<svg width="208" height="36" viewBox="0 0 208 36" fill="none" xmlns="http://www.w3.org/2000/svg">
<path fill-rule="evenodd" clip-rule="evenodd" d="M18.5513 27.5807C19.7265 26.3419 20.3139 24.6838 20.3139 22.6037C20.3139 20.5251 19.7265 18.8661 18.5513 17.6273C17.376 16.3885 15.8738 15.7697 14.0434 15.7697C12.2127 15.7697 10.7014 16.3885 9.51254 17.6273C8.32178 18.8661 7.72636 20.5251 7.72636 22.6037C7.72636 24.6838 8.32178 26.3419 9.51254 27.5807C10.7014 28.8194 12.2127 29.4386 14.0434 29.4386C15.8738 29.4386 17.376 28.8194 18.5513 27.5807ZM7.06341 33.6813C5.00299 32.596 3.39293 31.0898 2.23473 29.1631C1.07335 27.237 0.495117 25.051 0.495117 22.6037C0.495117 20.1578 1.07335 17.971 2.23473 16.0446C3.39293 14.1182 5.00299 12.6124 7.06341 11.5267C9.12231 10.4418 11.4493 9.89844 14.0434 9.89844C16.6359 9.89844 18.9554 10.4418 21.0004 11.5267C23.0453 12.6124 24.646 14.1182 25.8074 16.0446C26.9656 17.971 27.5455 20.1578 27.5455 22.6037C27.5455 25.051 26.9656 27.237 25.8074 29.1631C24.646 31.0898 23.0453 32.596 21.0004 33.6813C18.9554 34.7672 16.6359 35.3095 14.0434 35.3095C11.4493 35.3095 9.12231 34.7672 7.06341 33.6813V33.6813Z" fill="url(#paint0_linear_677_2194)"/>
<path fill-rule="evenodd" clip-rule="evenodd" d="M54.6655 12.6501C56.5425 14.4852 57.4816 17.2068 57.4816 20.8147V34.9426H50.3412V21.9158C50.3412 19.9594 49.9125 18.4988 49.0596 17.5352C48.2051 16.5724 46.9684 16.0903 45.3522 16.0903C43.5508 16.0903 42.1165 16.649 41.0494 17.7646C39.9805 18.8813 39.4471 20.5398 39.4471 22.741V34.9426H32.3066V10.2654H39.1263V13.1546C40.0716 12.1152 41.2468 11.3133 42.6518 10.7469C44.0536 10.1811 45.5958 9.89844 47.2738 9.89844C50.3257 9.89844 52.7902 10.8155 54.6655 12.6501V12.6501Z" fill="url(#paint1_linear_677_2194)"/>
<path d="M64.3936 34.9413H70.1151V0.90625H64.3936V34.9413Z" fill="#FEFEFE"/>
<path d="M93.8238 28.2444C95.1981 26.8381 95.8842 24.9874 95.8842 22.6938C95.8842 20.4004 95.1981 18.5503 93.8238 17.144C92.4514 15.7377 90.7118 15.0337 88.6068 15.0337C86.5015 15.0337 84.7683 15.7377 83.4111 17.144C82.054 18.5503 81.3736 20.4004 81.3736 22.6938C81.3736 24.9874 82.054 26.8381 83.4111 28.2444C84.7683 29.6507 86.5015 30.3538 88.6068 30.3538C90.7118 30.3538 92.4514 29.6507 93.8238 28.2444ZM81.9244 33.6563C79.9393 32.5862 78.3911 31.0958 77.2776 29.1838C76.1641 27.2738 75.6074 25.1103 75.6074 22.6938C75.6074 20.2781 76.1641 18.1231 77.2776 16.2262C78.3911 14.3306 79.9393 12.8477 81.9244 11.7776C83.9076 10.7072 86.1345 10.1719 88.6068 10.1719C91.1082 10.1719 93.3505 10.7072 95.3354 11.7776C97.3186 12.8477 98.867 14.3306 99.9805 16.2262C101.094 18.1231 101.652 20.2781 101.652 22.6938C101.652 25.1103 101.094 27.2738 99.9805 29.1838C98.867 31.0958 97.3186 32.5862 95.3354 33.6563C93.3505 34.7275 91.1082 35.262 88.6068 35.262C86.1345 35.262 83.9076 34.7275 81.9244 33.6563Z" fill="#FEFEFE"/>
<path d="M123.346 28.2444C124.72 26.8381 125.406 24.9874 125.406 22.6938C125.406 20.4004 124.72 18.5503 123.346 17.144C121.973 15.7377 120.234 15.0337 118.128 15.0337C116.023 15.0337 114.29 15.7377 112.933 17.144C111.575 18.5503 110.895 20.4004 110.895 22.6938C110.895 24.9874 111.575 26.8381 112.933 28.2444C114.29 29.6507 116.023 30.3538 118.128 30.3538C120.234 30.3538 121.973 29.6507 123.346 28.2444V28.2444ZM111.446 33.6563C109.461 32.5862 107.913 31.0958 106.799 29.1838C105.686 27.2738 105.129 25.1103 105.129 22.6938C105.129 20.2781 105.686 18.1231 106.799 16.2262C107.913 14.3306 109.461 12.8477 111.446 11.7776C113.429 10.7072 115.656 10.1719 118.128 10.1719C120.63 10.1719 122.872 10.7072 124.857 11.7776C126.84 12.8477 128.388 14.3306 129.502 16.2262C130.616 18.1231 131.174 20.2781 131.174 22.6938C131.174 25.1103 130.616 27.2738 129.502 29.1838C128.388 31.0958 126.84 32.5862 124.857 33.6563C122.872 34.7275 120.63 35.262 118.128 35.262C115.656 35.262 113.429 34.7275 111.446 33.6563V33.6563Z" fill="#FEFEFE"/>
<path d="M146.644 24.4376L142.388 28.4734V34.9413H136.666V0.90625H142.388V21.4555L154.243 10.4472H161.109L150.901 20.7223L162.069 34.9413H155.113L146.644 24.4376Z" fill="#FEFEFE"/>
<path d="M170.743 16.3868C169.477 17.4724 168.706 18.9176 168.431 20.7219H182.3C182.055 18.9483 181.309 17.5105 180.058 16.4101C178.806 15.3089 177.249 14.7586 175.388 14.7586C173.557 14.7586 172.009 15.3019 170.743 16.3868V16.3868ZM187.656 24.5284H168.477C168.812 26.3333 169.69 27.762 171.108 28.8177C172.527 29.8726 174.29 30.3993 176.395 30.3993C179.08 30.3993 181.293 29.5131 183.033 27.7398L186.099 31.2711C185 32.5862 183.613 33.5808 181.935 34.2532C180.255 34.9261 178.365 35.262 176.258 35.262C173.573 35.262 171.207 34.7275 169.164 33.6563C167.119 32.5862 165.539 31.0958 164.426 29.1838C163.313 27.2738 162.756 25.1103 162.756 22.6938C162.756 20.3084 163.297 18.1609 164.38 16.2492C165.464 14.3383 166.966 12.8477 168.889 11.7776C170.811 10.7072 172.978 10.1719 175.388 10.1719C177.769 10.1719 179.897 10.6994 181.774 11.7543C183.651 12.8092 185.115 14.2929 186.168 16.2037C187.221 18.1146 187.747 20.3247 187.747 22.8314C187.747 23.2294 187.716 23.795 187.656 24.5284V24.5284Z" fill="#FEFEFE"/>
<path d="M207.384 10.1719V15.6304C206.895 15.5383 206.452 15.4928 206.056 15.4928C203.828 15.4928 202.09 16.1427 200.839 17.4416C199.587 18.7423 198.962 20.6143 198.962 23.0608V34.9408H193.24V10.4468H198.688V14.0247C200.334 11.4559 203.234 10.1719 207.384 10.1719V10.1719Z" fill="#FEFEFE"/>
<defs>
<linearGradient id="paint0_linear_677_2194" x1="0.307043" y1="22.604" x2="57.664" y2="22.604" gradientUnits="userSpaceOnUse">
<stop stop-color="#009B8D"/>
<stop offset="1" stop-color="#009DB9"/>
</linearGradient>
<linearGradient id="paint1_linear_677_2194" x1="32.1316" y1="22.4206" x2="85.5121" y2="22.4206" gradientUnits="userSpaceOnUse">
<stop stop-color="#009B8D"/>
<stop offset="1" stop-color="#009DB9"/>
</linearGradient>
</defs>
</svg>
