<svg width="50" height="50" viewBox="0 0 50 50" fill="none" xmlns="http://www.w3.org/2000/svg">
<path fill-rule="evenodd" clip-rule="evenodd" d="M21.1042 0.115192C20.0995 0.433725 19.3791 1.0659 18.9279 2.02483C18.6909 2.52879 18.6704 2.68253 18.6402 4.19285L18.6077 5.81857L17.3159 5.86708C16.2633 5.90669 15.9029 5.96057 15.369 6.15832C13.7735 6.74923 12.6401 7.89065 12.0323 9.51881C11.8284 10.0648 11.814 10.2858 11.7796 13.3985C11.7596 15.214 11.7248 16.6993 11.7025 16.6993C11.6802 16.6993 9.45253 15.599 6.75214 14.2543C1.43718 11.6075 1.45847 11.6153 0.731381 12.0309C0.0134147 12.4413 -0.206027 13.2709 0.207743 14.0098C0.41816 14.3854 0.651629 14.5135 6.08989 17.2371L11.7528 20.0731L11.7795 32.9339L11.8061 45.7946L12.0273 46.3736C12.662 48.0353 13.8612 49.2211 15.466 49.7739L16.1223 50H25H33.8777L34.534 49.7739C36.1397 49.2208 37.3429 48.0305 37.9712 46.3736C38.1888 45.7995 38.191 45.7419 38.2209 39.5599C38.2376 36.1309 38.2708 33.3252 38.2946 33.3252C38.3185 33.3252 40.5475 34.4254 43.2479 35.7702C48.5628 38.4169 48.5415 38.4091 49.2686 37.9935C49.9866 37.5832 50.206 36.7535 49.7923 36.0147C49.5818 35.639 49.3484 35.5109 43.9107 32.7877L38.2483 29.9519L38.2211 20.0248L38.1939 10.0978L37.9389 9.44458C37.3056 7.82277 36.1581 6.6971 34.5565 6.12654C34.1214 5.97153 33.652 5.90698 32.6841 5.86913L31.3923 5.81857L31.3598 4.19285C31.3294 2.67686 31.3097 2.53016 31.0687 2.01759C30.7052 1.24468 30.1862 0.714312 29.4306 0.34326L28.7814 0.0244337L25.1495 0.00428698C22.3389 -0.0113609 21.4241 0.0136757 21.1042 0.115192ZM28.2793 3.06316C28.404 3.18766 28.4334 3.46668 28.4334 4.53016V5.84351H25H21.5666V4.53016C21.5666 3.46668 21.596 3.18766 21.7207 3.06316C21.8544 2.92996 22.2898 2.90952 25 2.90952C27.7102 2.90952 28.1456 2.92996 28.2793 3.06316ZM33.6819 8.93945C33.9639 9.03529 34.3255 9.26776 34.5669 9.50845C35.3373 10.2764 35.3001 9.76204 35.3001 19.6506C35.3001 24.4821 35.2781 28.4352 35.2512 28.4352C35.2243 28.4352 30.5892 26.1358 24.9511 23.3254L14.6999 18.2155V14.5408C14.6999 10.3537 14.7194 10.2198 15.4348 9.50669C16.1855 8.75823 15.7154 8.79382 24.958 8.78522C32.3901 8.77827 33.2522 8.79353 33.6819 8.93945ZM25.049 26.6991L35.3001 31.8089V38.4176C35.3001 45.8735 35.3225 45.6308 34.5669 46.384C33.8 47.1486 34.2408 47.1149 25 47.1149C15.7592 47.1149 16.2 47.1486 15.4331 46.384C14.6507 45.6041 14.6999 46.4803 14.6999 33.3078C14.6999 26.8626 14.7219 21.5892 14.7488 21.5892C14.7757 21.5892 19.4108 23.8886 25.049 26.6991ZM18.4041 35.5806C18.18 35.6987 17.9606 35.9236 17.8401 36.1592C17.6542 36.5224 17.6428 36.7318 17.6428 39.7799C17.6428 42.8293 17.6542 43.0373 17.8403 43.4011C17.9674 43.6496 18.1757 43.8573 18.425 43.9841C18.8009 44.1752 18.9919 44.1809 25 44.1809C31.0081 44.1809 31.1991 44.1752 31.575 43.9841C31.8243 43.8573 32.0326 43.6496 32.1598 43.4011C32.3458 43.0373 32.3572 42.8293 32.3572 39.7799C32.3572 36.7306 32.3458 36.5226 32.1598 36.1588C32.0326 35.9103 31.8243 35.7026 31.575 35.5758C31.1988 35.3845 31.0126 35.3791 24.9794 35.3833C18.9919 35.3875 18.7578 35.3945 18.4041 35.5806ZM29.4143 39.7799V41.2469H25H20.5857V39.7799V38.313H25H29.4143V39.7799Z" fill="url(#paint0_linear_677_3120)"/>
<defs>
<linearGradient id="paint0_linear_677_3120" x1="0" y1="0" x2="51" y2="51.25" gradientUnits="userSpaceOnUse">
<stop stop-color="#0ABD92"/>
<stop offset="1" stop-color="#009DB8"/>
</linearGradient>
</defs>
</svg>
