<svg width="40" height="44" viewBox="0 0 40 44" fill="none" xmlns="http://www.w3.org/2000/svg">
<mask id="path-1-inside-1_677_2183" fill="white">
<path fill-rule="evenodd" clip-rule="evenodd" d="M2.69906 0.909789C2.45747 0.975129 2.1025 1.10908 1.9102 1.20751C1.42502 1.45586 0.739922 2.1274 0.47708 2.61208C-0.0272643 3.54204 0.00026673 2.57193 0.00026673 19.4246C0.00026673 33.088 0.0150782 34.8995 0.130139 35.3431C0.429215 36.496 1.27724 37.4331 2.37086 37.8193L2.80358 37.9722L2.84542 40.3513C2.88065 42.3532 2.90918 42.7704 3.02575 42.9824C3.20516 43.3088 3.49679 43.5783 3.79227 43.6906C4.12364 43.8167 35.8764 43.8167 36.2077 43.6906C36.5032 43.5783 36.7948 43.3088 36.9742 42.9824C37.0908 42.7704 37.1194 42.3532 37.1546 40.3513L37.1964 37.9722L37.6291 37.8193C38.7228 37.4331 39.5708 36.496 39.8699 35.3431C39.9849 34.8995 39.9997 33.088 39.9997 19.4246C39.9997 2.57193 40.0273 3.54204 39.5229 2.61208C39.0782 1.79196 38.1058 1.07348 37.1714 0.874431C36.851 0.806236 32.0686 0.781544 19.9331 0.785576C5.73659 0.790195 3.07035 0.809427 2.69906 0.909789ZM37.3638 2.43134C37.7583 2.64542 38.162 3.05719 38.3795 3.46754C38.5296 3.75074 38.5362 4.3278 38.5573 19.2104C38.5816 36.2103 38.6121 35.1683 38.0699 35.8251C37.9258 35.9996 37.6609 36.2177 37.4812 36.3097L37.1546 36.477L37.1527 33.5568C37.1511 30.9033 37.1368 30.606 36.9972 30.3007C36.8088 29.889 36.5938 29.6898 36.1769 29.5405C35.7013 29.3703 4.2987 29.3703 3.82314 29.5405C3.40616 29.6898 3.19119 29.889 3.00282 30.3007C2.86316 30.606 2.84893 30.9033 2.84726 33.5568L2.84542 36.477L2.51881 36.3097C2.33915 36.2177 2.07421 35.9996 1.93012 35.8251C1.38837 35.1688 1.41891 36.2096 1.44284 19.2112C1.46385 4.32763 1.47037 3.75074 1.6205 3.46754C1.9215 2.89972 2.43597 2.46292 3.01228 2.2858C3.12759 2.25035 10.8286 2.22776 20.1255 2.23557L37.0291 2.24977L37.3638 2.43134ZM7.86033 3.74511C6.7575 4.05854 6.01307 4.8648 5.78011 5.99792L5.68287 6.47067L5.20555 6.56566C4.2664 6.75261 3.5244 7.34848 3.10725 8.25081C2.79839 8.91899 2.80082 9.86307 3.11303 10.5387C3.37922 11.1147 3.92113 11.6798 4.45669 11.94C5.09208 12.2487 5.84772 12.3027 9.03663 12.2666C12.2927 12.2298 12.3348 12.2239 13.1006 11.6951C13.8592 11.1713 14.386 9.98392 14.2673 9.06588C14.1048 7.80939 13.1742 6.80485 11.9587 6.57347C11.4899 6.48428 11.3842 6.3966 11.3821 6.09526C11.3797 5.74009 11.0386 4.9943 10.7042 4.6131C10.0433 3.8595 8.79672 3.47905 7.86033 3.74511ZM32.7579 3.75267C30.9498 4.19351 29.802 5.8989 30.0565 7.7663C30.2079 8.87717 30.9726 9.91556 32.0325 10.4494C32.5727 10.7216 32.6304 10.7322 33.5581 10.7322C34.4802 10.7322 34.5466 10.7201 35.0848 10.4542C36.5246 9.7428 37.3509 8.18127 37.0819 6.67996C36.7077 4.59143 34.7509 3.26674 32.7579 3.75267ZM9.17872 5.22644C9.85269 5.53357 10.1466 6.33445 9.8685 7.10627C9.73177 7.48571 9.82357 7.79015 10.1476 8.03228C10.3639 8.19395 10.4041 8.1974 10.7752 8.08603C11.3298 7.91958 11.8149 7.94679 12.165 8.16397C12.8459 8.58633 13.0544 9.50344 12.6197 10.1629C12.2159 10.7751 12.2219 10.7742 8.57756 10.7742C4.95694 10.7742 4.93167 10.7706 4.56104 10.1942C4.16607 9.58004 4.22841 8.8655 4.71987 8.37225C5.12129 7.96938 5.60245 7.86541 6.21039 8.05009C6.76687 8.21915 7.00762 8.15843 7.24946 7.78797C7.38686 7.57751 7.38695 7.53686 7.2513 7.02589C7.02411 6.17001 7.27866 5.54457 7.98518 5.22249C8.41907 5.02479 8.73831 5.0258 9.17872 5.22644ZM34.1933 5.1873C36.0484 5.74026 36.2092 8.38132 34.4368 9.18934C34.0627 9.35991 33.3489 9.39275 32.8766 9.26106C32.4722 9.14827 31.8543 8.59036 31.6387 8.14323C31.2106 7.25584 31.529 6.04856 32.3346 5.50409C32.9971 5.05637 33.4786 4.97431 34.1933 5.1873ZM27.5566 6.57599C27.3145 6.67383 27.0884 7.11861 27.16 7.35604C27.1907 7.45766 27.2934 7.62588 27.3881 7.72977C27.5387 7.89488 27.6431 7.91874 28.2153 7.91874C28.7558 7.91874 28.899 7.88976 29.0354 7.75287C29.401 7.38602 29.3199 6.82811 28.8677 6.59841C28.6318 6.47873 27.8312 6.46496 27.5566 6.57599ZM22.1757 8.75312C21.3526 9.00533 20.6632 9.67805 20.4364 10.4503C20.3002 10.9142 20.2807 10.9366 19.9674 10.9897C19.4446 11.0783 19.0904 11.2612 18.6614 11.6639C17.4545 12.7969 17.7006 14.684 19.1632 15.511L19.6234 15.7713H22.8451H26.0669L26.471 15.5641C27.4999 15.0367 28.0571 13.8277 27.7536 12.7816C27.4909 11.876 26.757 11.1971 25.8463 11.0172C25.433 10.9356 25.3554 10.8923 25.3547 10.7423C25.3519 10.1213 24.4501 9.06194 23.7084 8.8083C23.3025 8.66948 22.5385 8.64201 22.1757 8.75312ZM23.4055 10.2666C23.8336 10.5286 23.9645 10.7946 23.8939 11.2588C23.793 11.9215 23.8154 12.1129 24.0194 12.3309C24.2358 12.562 24.403 12.5811 24.9989 12.4431C25.5661 12.3117 26.0936 12.5373 26.3153 13.0061C26.4524 13.2962 26.4561 13.3634 26.3511 13.6656C26.2781 13.8759 26.1275 14.0741 25.9499 14.1938C25.6678 14.384 25.6432 14.3856 22.8537 14.385C20.2151 14.3845 20.0267 14.3745 19.7964 14.2221C19.0729 13.7434 19.2223 12.7254 20.0567 12.449C20.2931 12.3707 20.4545 12.3719 20.7983 12.4548C21.3858 12.5962 21.6447 12.5203 21.8178 12.1562C21.9338 11.912 21.9404 11.8164 21.8572 11.5855C21.7237 11.2151 21.7313 10.9843 21.8869 10.6823C22.1636 10.1454 22.8847 9.94798 23.4055 10.2666ZM33.0923 11.7363C32.9089 11.9202 32.8869 12.0136 32.8869 12.6034C32.8869 13.1826 32.9102 13.2855 33.0751 13.4346C33.354 13.6866 33.5347 13.725 33.8395 13.5972C34.2043 13.4442 34.3397 13.0987 34.2924 12.4414C34.2611 12.0077 34.2184 11.893 34.0266 11.7274C33.726 11.4679 33.3561 11.4715 33.0923 11.7363ZM14.6776 14.4935C14.4026 14.6528 3.00876 26.8318 2.91738 27.064C2.6968 27.6249 3.29043 28.1689 3.87687 27.9431C3.9454 27.9167 6.45943 25.2712 9.46366 22.0641C12.4678 18.8572 14.948 16.2332 14.9751 16.2332C15.0249 16.2332 21.6151 23.8488 21.6513 23.9482C21.6621 23.9777 21.1443 24.676 20.5007 25.5C19.4588 26.834 19.3306 27.0335 19.3306 27.3206C19.3306 27.8352 19.8746 28.1543 20.3327 27.9082C20.4176 27.8626 22.1306 25.7282 24.1394 23.1651C26.1482 20.6019 27.8191 18.4879 27.8527 18.4671C27.8862 18.4463 29.7507 20.5807 31.9959 23.2102L36.0783 27.9911H36.4111C37.0938 27.9911 37.3726 27.3448 36.9245 26.8008C35.9235 25.5854 28.6249 17.0562 28.4027 16.8421C28.1994 16.6461 28.0412 16.5692 27.8418 16.5692C27.4767 16.5692 27.4832 16.5619 24.8538 19.9286C23.6453 21.476 22.6262 22.742 22.5893 22.742C22.5523 22.742 21.0107 20.9847 19.1635 18.8368C17.3164 16.6888 15.6762 14.8086 15.5188 14.6585C15.2183 14.3719 14.9712 14.3234 14.6776 14.4935ZM35.7117 36.6205L35.7332 42.3525H20.0006H4.26799V36.6555C4.26799 33.5222 4.29318 30.9332 4.32397 30.9023C4.35477 30.8714 11.4248 30.8556 20.0351 30.8673L35.6902 30.8886L35.7117 36.6205ZM8.97914 32.4113C8.83186 32.4839 8.37053 32.8967 7.95405 33.3288C7.26544 34.0433 7.19682 34.1439 7.19682 34.4395C7.19682 35.0309 7.81397 35.3331 8.32944 34.9942L8.53572 34.8585V37.1778V39.497H8.09413C7.60251 39.497 7.31439 39.6485 7.19205 39.9714C7.08344 40.2582 7.29264 40.7336 7.57481 40.8413C7.69506 40.8872 8.46643 40.9247 9.28885 40.9247C10.1113 40.9247 10.8826 40.8872 11.0029 40.8413C11.2851 40.7336 11.4943 40.2582 11.3856 39.9714C11.2636 39.6494 10.975 39.497 10.4872 39.497H10.0492L10.0247 36.1395L10.0001 32.7818L9.79093 32.5787C9.50357 32.2996 9.29378 32.2563 8.97914 32.4113ZM15.2491 32.3732C14.2928 32.5211 13.3992 33.2586 13.0539 34.1849C12.888 34.6297 12.8786 34.7912 12.9029 36.7633L12.929 38.8671L13.1619 39.3109C13.638 40.2178 14.4658 40.7894 15.4524 40.893C16.7554 41.0296 18.0336 40.172 18.4176 38.9032C18.5729 38.39 18.5864 38.1579 18.5622 36.4164L18.5356 34.4955L18.2605 33.9353C17.6893 32.7715 16.5373 32.174 15.2491 32.3732ZM22.1867 32.3601C20.5395 32.7062 19.5602 34.4826 20.2662 35.8437C20.386 36.0746 20.5625 36.3348 20.6584 36.4218L20.8329 36.58L20.6217 36.8319C20.1958 37.3398 20.0468 37.7369 20.0469 38.3632C20.0471 38.8392 20.0905 39.0345 20.2746 39.3892C20.5761 39.9698 21.0117 40.394 21.5827 40.6627C21.9845 40.8518 22.1621 40.8827 22.8469 40.8827C23.5788 40.8827 23.6892 40.8602 24.2032 40.6063C25.6988 39.8673 26.1509 38.0939 25.1444 36.914L24.8587 36.5789L25.0321 36.4213C25.1275 36.3347 25.3052 36.0937 25.427 35.8857C25.7313 35.3664 25.7434 34.4413 25.4536 33.8508C25.1792 33.2916 24.5826 32.7303 24.0504 32.5305C23.5179 32.3305 22.6885 32.2547 22.1867 32.3601ZM29.5815 32.3683C28.7679 32.4771 28.0969 32.8931 27.6569 33.5615C27.2048 34.248 27.1127 34.7631 27.1142 36.5962C27.116 38.7855 27.3052 39.479 28.0891 40.1699C28.641 40.6562 29.2372 40.8777 30.0016 40.8804C30.5939 40.8825 30.7385 40.8503 31.2315 40.6067C31.903 40.2749 32.3884 39.7549 32.6476 39.0894C32.8092 38.6749 32.837 38.4133 32.8683 37.0119C32.9215 34.6314 32.7634 33.9274 32.0049 33.1661C31.3724 32.5313 30.5028 32.2451 29.5815 32.3683ZM16.5615 34.0325C17.0817 34.4043 17.1512 34.7067 17.1512 36.5995C17.1512 38.7183 17.0479 39.0177 16.1938 39.3759C15.5745 39.6356 14.835 39.3625 14.4904 38.7468C14.3066 38.4188 14.3016 38.3504 14.3262 36.523C14.3544 34.4242 14.3611 34.3985 14.9868 33.9676C15.3708 33.7033 16.1455 33.7352 16.5615 34.0325ZM23.5421 33.9006C23.9317 34.0639 24.2677 34.4949 24.2677 34.831C24.2677 35.6338 23.0387 36.1417 22.1147 35.7207C21.2302 35.3177 21.2409 34.303 22.1339 33.9046C22.4623 33.7581 23.1973 33.756 23.5421 33.9006ZM30.7177 33.977C31.3949 34.4351 31.5008 34.8787 31.4512 37.0493C31.4196 38.4332 31.4137 38.4727 31.185 38.8195C30.9307 39.2052 30.4262 39.492 29.9967 39.4952C29.6668 39.4976 29.0485 39.1784 28.8486 38.9026C28.599 38.5582 28.5395 38.1217 28.5375 36.6157C28.5354 35.1519 28.6096 34.6282 28.8631 34.3176C29.3082 33.7721 30.1784 33.6123 30.7177 33.977ZM23.6324 37.5253C23.987 37.6942 24.2671 38.0825 24.2671 38.4052C24.2671 39.2528 22.9365 39.761 22.0426 39.255C21.0965 38.7194 21.2886 37.754 22.4136 37.3909C22.7295 37.289 23.2585 37.3472 23.6324 37.5253Z"/>
</mask>
<path fill-rule="evenodd" clip-rule="evenodd" d="M2.69906 0.909789C2.45747 0.975129 2.1025 1.10908 1.9102 1.20751C1.42502 1.45586 0.739922 2.1274 0.47708 2.61208C-0.0272643 3.54204 0.00026673 2.57193 0.00026673 19.4246C0.00026673 33.088 0.0150782 34.8995 0.130139 35.3431C0.429215 36.496 1.27724 37.4331 2.37086 37.8193L2.80358 37.9722L2.84542 40.3513C2.88065 42.3532 2.90918 42.7704 3.02575 42.9824C3.20516 43.3088 3.49679 43.5783 3.79227 43.6906C4.12364 43.8167 35.8764 43.8167 36.2077 43.6906C36.5032 43.5783 36.7948 43.3088 36.9742 42.9824C37.0908 42.7704 37.1194 42.3532 37.1546 40.3513L37.1964 37.9722L37.6291 37.8193C38.7228 37.4331 39.5708 36.496 39.8699 35.3431C39.9849 34.8995 39.9997 33.088 39.9997 19.4246C39.9997 2.57193 40.0273 3.54204 39.5229 2.61208C39.0782 1.79196 38.1058 1.07348 37.1714 0.874431C36.851 0.806236 32.0686 0.781544 19.9331 0.785576C5.73659 0.790195 3.07035 0.809427 2.69906 0.909789ZM37.3638 2.43134C37.7583 2.64542 38.162 3.05719 38.3795 3.46754C38.5296 3.75074 38.5362 4.3278 38.5573 19.2104C38.5816 36.2103 38.6121 35.1683 38.0699 35.8251C37.9258 35.9996 37.6609 36.2177 37.4812 36.3097L37.1546 36.477L37.1527 33.5568C37.1511 30.9033 37.1368 30.606 36.9972 30.3007C36.8088 29.889 36.5938 29.6898 36.1769 29.5405C35.7013 29.3703 4.2987 29.3703 3.82314 29.5405C3.40616 29.6898 3.19119 29.889 3.00282 30.3007C2.86316 30.606 2.84893 30.9033 2.84726 33.5568L2.84542 36.477L2.51881 36.3097C2.33915 36.2177 2.07421 35.9996 1.93012 35.8251C1.38837 35.1688 1.41891 36.2096 1.44284 19.2112C1.46385 4.32763 1.47037 3.75074 1.6205 3.46754C1.9215 2.89972 2.43597 2.46292 3.01228 2.2858C3.12759 2.25035 10.8286 2.22776 20.1255 2.23557L37.0291 2.24977L37.3638 2.43134ZM7.86033 3.74511C6.7575 4.05854 6.01307 4.8648 5.78011 5.99792L5.68287 6.47067L5.20555 6.56566C4.2664 6.75261 3.5244 7.34848 3.10725 8.25081C2.79839 8.91899 2.80082 9.86307 3.11303 10.5387C3.37922 11.1147 3.92113 11.6798 4.45669 11.94C5.09208 12.2487 5.84772 12.3027 9.03663 12.2666C12.2927 12.2298 12.3348 12.2239 13.1006 11.6951C13.8592 11.1713 14.386 9.98392 14.2673 9.06588C14.1048 7.80939 13.1742 6.80485 11.9587 6.57347C11.4899 6.48428 11.3842 6.3966 11.3821 6.09526C11.3797 5.74009 11.0386 4.9943 10.7042 4.6131C10.0433 3.8595 8.79672 3.47905 7.86033 3.74511ZM32.7579 3.75267C30.9498 4.19351 29.802 5.8989 30.0565 7.7663C30.2079 8.87717 30.9726 9.91556 32.0325 10.4494C32.5727 10.7216 32.6304 10.7322 33.5581 10.7322C34.4802 10.7322 34.5466 10.7201 35.0848 10.4542C36.5246 9.7428 37.3509 8.18127 37.0819 6.67996C36.7077 4.59143 34.7509 3.26674 32.7579 3.75267ZM9.17872 5.22644C9.85269 5.53357 10.1466 6.33445 9.8685 7.10627C9.73177 7.48571 9.82357 7.79015 10.1476 8.03228C10.3639 8.19395 10.4041 8.1974 10.7752 8.08603C11.3298 7.91958 11.8149 7.94679 12.165 8.16397C12.8459 8.58633 13.0544 9.50344 12.6197 10.1629C12.2159 10.7751 12.2219 10.7742 8.57756 10.7742C4.95694 10.7742 4.93167 10.7706 4.56104 10.1942C4.16607 9.58004 4.22841 8.8655 4.71987 8.37225C5.12129 7.96938 5.60245 7.86541 6.21039 8.05009C6.76687 8.21915 7.00762 8.15843 7.24946 7.78797C7.38686 7.57751 7.38695 7.53686 7.2513 7.02589C7.02411 6.17001 7.27866 5.54457 7.98518 5.22249C8.41907 5.02479 8.73831 5.0258 9.17872 5.22644ZM34.1933 5.1873C36.0484 5.74026 36.2092 8.38132 34.4368 9.18934C34.0627 9.35991 33.3489 9.39275 32.8766 9.26106C32.4722 9.14827 31.8543 8.59036 31.6387 8.14323C31.2106 7.25584 31.529 6.04856 32.3346 5.50409C32.9971 5.05637 33.4786 4.97431 34.1933 5.1873ZM27.5566 6.57599C27.3145 6.67383 27.0884 7.11861 27.16 7.35604C27.1907 7.45766 27.2934 7.62588 27.3881 7.72977C27.5387 7.89488 27.6431 7.91874 28.2153 7.91874C28.7558 7.91874 28.899 7.88976 29.0354 7.75287C29.401 7.38602 29.3199 6.82811 28.8677 6.59841C28.6318 6.47873 27.8312 6.46496 27.5566 6.57599ZM22.1757 8.75312C21.3526 9.00533 20.6632 9.67805 20.4364 10.4503C20.3002 10.9142 20.2807 10.9366 19.9674 10.9897C19.4446 11.0783 19.0904 11.2612 18.6614 11.6639C17.4545 12.7969 17.7006 14.684 19.1632 15.511L19.6234 15.7713H22.8451H26.0669L26.471 15.5641C27.4999 15.0367 28.0571 13.8277 27.7536 12.7816C27.4909 11.876 26.757 11.1971 25.8463 11.0172C25.433 10.9356 25.3554 10.8923 25.3547 10.7423C25.3519 10.1213 24.4501 9.06194 23.7084 8.8083C23.3025 8.66948 22.5385 8.64201 22.1757 8.75312ZM23.4055 10.2666C23.8336 10.5286 23.9645 10.7946 23.8939 11.2588C23.793 11.9215 23.8154 12.1129 24.0194 12.3309C24.2358 12.562 24.403 12.5811 24.9989 12.4431C25.5661 12.3117 26.0936 12.5373 26.3153 13.0061C26.4524 13.2962 26.4561 13.3634 26.3511 13.6656C26.2781 13.8759 26.1275 14.0741 25.9499 14.1938C25.6678 14.384 25.6432 14.3856 22.8537 14.385C20.2151 14.3845 20.0267 14.3745 19.7964 14.2221C19.0729 13.7434 19.2223 12.7254 20.0567 12.449C20.2931 12.3707 20.4545 12.3719 20.7983 12.4548C21.3858 12.5962 21.6447 12.5203 21.8178 12.1562C21.9338 11.912 21.9404 11.8164 21.8572 11.5855C21.7237 11.2151 21.7313 10.9843 21.8869 10.6823C22.1636 10.1454 22.8847 9.94798 23.4055 10.2666ZM33.0923 11.7363C32.9089 11.9202 32.8869 12.0136 32.8869 12.6034C32.8869 13.1826 32.9102 13.2855 33.0751 13.4346C33.354 13.6866 33.5347 13.725 33.8395 13.5972C34.2043 13.4442 34.3397 13.0987 34.2924 12.4414C34.2611 12.0077 34.2184 11.893 34.0266 11.7274C33.726 11.4679 33.3561 11.4715 33.0923 11.7363ZM14.6776 14.4935C14.4026 14.6528 3.00876 26.8318 2.91738 27.064C2.6968 27.6249 3.29043 28.1689 3.87687 27.9431C3.9454 27.9167 6.45943 25.2712 9.46366 22.0641C12.4678 18.8572 14.948 16.2332 14.9751 16.2332C15.0249 16.2332 21.6151 23.8488 21.6513 23.9482C21.6621 23.9777 21.1443 24.676 20.5007 25.5C19.4588 26.834 19.3306 27.0335 19.3306 27.3206C19.3306 27.8352 19.8746 28.1543 20.3327 27.9082C20.4176 27.8626 22.1306 25.7282 24.1394 23.1651C26.1482 20.6019 27.8191 18.4879 27.8527 18.4671C27.8862 18.4463 29.7507 20.5807 31.9959 23.2102L36.0783 27.9911H36.4111C37.0938 27.9911 37.3726 27.3448 36.9245 26.8008C35.9235 25.5854 28.6249 17.0562 28.4027 16.8421C28.1994 16.6461 28.0412 16.5692 27.8418 16.5692C27.4767 16.5692 27.4832 16.5619 24.8538 19.9286C23.6453 21.476 22.6262 22.742 22.5893 22.742C22.5523 22.742 21.0107 20.9847 19.1635 18.8368C17.3164 16.6888 15.6762 14.8086 15.5188 14.6585C15.2183 14.3719 14.9712 14.3234 14.6776 14.4935ZM35.7117 36.6205L35.7332 42.3525H20.0006H4.26799V36.6555C4.26799 33.5222 4.29318 30.9332 4.32397 30.9023C4.35477 30.8714 11.4248 30.8556 20.0351 30.8673L35.6902 30.8886L35.7117 36.6205ZM8.97914 32.4113C8.83186 32.4839 8.37053 32.8967 7.95405 33.3288C7.26544 34.0433 7.19682 34.1439 7.19682 34.4395C7.19682 35.0309 7.81397 35.3331 8.32944 34.9942L8.53572 34.8585V37.1778V39.497H8.09413C7.60251 39.497 7.31439 39.6485 7.19205 39.9714C7.08344 40.2582 7.29264 40.7336 7.57481 40.8413C7.69506 40.8872 8.46643 40.9247 9.28885 40.9247C10.1113 40.9247 10.8826 40.8872 11.0029 40.8413C11.2851 40.7336 11.4943 40.2582 11.3856 39.9714C11.2636 39.6494 10.975 39.497 10.4872 39.497H10.0492L10.0247 36.1395L10.0001 32.7818L9.79093 32.5787C9.50357 32.2996 9.29378 32.2563 8.97914 32.4113ZM15.2491 32.3732C14.2928 32.5211 13.3992 33.2586 13.0539 34.1849C12.888 34.6297 12.8786 34.7912 12.9029 36.7633L12.929 38.8671L13.1619 39.3109C13.638 40.2178 14.4658 40.7894 15.4524 40.893C16.7554 41.0296 18.0336 40.172 18.4176 38.9032C18.5729 38.39 18.5864 38.1579 18.5622 36.4164L18.5356 34.4955L18.2605 33.9353C17.6893 32.7715 16.5373 32.174 15.2491 32.3732ZM22.1867 32.3601C20.5395 32.7062 19.5602 34.4826 20.2662 35.8437C20.386 36.0746 20.5625 36.3348 20.6584 36.4218L20.8329 36.58L20.6217 36.8319C20.1958 37.3398 20.0468 37.7369 20.0469 38.3632C20.0471 38.8392 20.0905 39.0345 20.2746 39.3892C20.5761 39.9698 21.0117 40.394 21.5827 40.6627C21.9845 40.8518 22.1621 40.8827 22.8469 40.8827C23.5788 40.8827 23.6892 40.8602 24.2032 40.6063C25.6988 39.8673 26.1509 38.0939 25.1444 36.914L24.8587 36.5789L25.0321 36.4213C25.1275 36.3347 25.3052 36.0937 25.427 35.8857C25.7313 35.3664 25.7434 34.4413 25.4536 33.8508C25.1792 33.2916 24.5826 32.7303 24.0504 32.5305C23.5179 32.3305 22.6885 32.2547 22.1867 32.3601ZM29.5815 32.3683C28.7679 32.4771 28.0969 32.8931 27.6569 33.5615C27.2048 34.248 27.1127 34.7631 27.1142 36.5962C27.116 38.7855 27.3052 39.479 28.0891 40.1699C28.641 40.6562 29.2372 40.8777 30.0016 40.8804C30.5939 40.8825 30.7385 40.8503 31.2315 40.6067C31.903 40.2749 32.3884 39.7549 32.6476 39.0894C32.8092 38.6749 32.837 38.4133 32.8683 37.0119C32.9215 34.6314 32.7634 33.9274 32.0049 33.1661C31.3724 32.5313 30.5028 32.2451 29.5815 32.3683ZM16.5615 34.0325C17.0817 34.4043 17.1512 34.7067 17.1512 36.5995C17.1512 38.7183 17.0479 39.0177 16.1938 39.3759C15.5745 39.6356 14.835 39.3625 14.4904 38.7468C14.3066 38.4188 14.3016 38.3504 14.3262 36.523C14.3544 34.4242 14.3611 34.3985 14.9868 33.9676C15.3708 33.7033 16.1455 33.7352 16.5615 34.0325ZM23.5421 33.9006C23.9317 34.0639 24.2677 34.4949 24.2677 34.831C24.2677 35.6338 23.0387 36.1417 22.1147 35.7207C21.2302 35.3177 21.2409 34.303 22.1339 33.9046C22.4623 33.7581 23.1973 33.756 23.5421 33.9006ZM30.7177 33.977C31.3949 34.4351 31.5008 34.8787 31.4512 37.0493C31.4196 38.4332 31.4137 38.4727 31.185 38.8195C30.9307 39.2052 30.4262 39.492 29.9967 39.4952C29.6668 39.4976 29.0485 39.1784 28.8486 38.9026C28.599 38.5582 28.5395 38.1217 28.5375 36.6157C28.5354 35.1519 28.6096 34.6282 28.8631 34.3176C29.3082 33.7721 30.1784 33.6123 30.7177 33.977ZM23.6324 37.5253C23.987 37.6942 24.2671 38.0825 24.2671 38.4052C24.2671 39.2528 22.9365 39.761 22.0426 39.255C21.0965 38.7194 21.2886 37.754 22.4136 37.3909C22.7295 37.289 23.2585 37.3472 23.6324 37.5253Z" fill="white" stroke="url(#paint0_linear_677_2183)" stroke-width="2" mask="url(#path-1-inside-1_677_2183)"/>
<defs>
<linearGradient id="paint0_linear_677_2183" x1="0" y1="0.785156" x2="43.761" y2="41.6926" gradientUnits="userSpaceOnUse">
<stop stop-color="#0ABD92"/>
<stop offset="1" stop-color="#009DB8"/>
</linearGradient>
</defs>
</svg>
