<svg width="41" height="33" viewBox="0 0 41 33" fill="none" xmlns="http://www.w3.org/2000/svg">
<path fill-rule="evenodd" clip-rule="evenodd" d="M18.2125 0.16347C15.5142 0.634472 13.1353 1.91641 11.2033 3.9408C10.3309 4.85484 9.81931 5.57487 9.81931 5.88868C9.81931 6.36698 11.1402 7.94926 12.3639 8.93704C14.7813 10.8883 17.3401 11.7778 20.534 11.7771C23.3381 11.7764 25.6548 11.0921 27.7664 9.64082C29.093 8.72909 30.762 7.0474 31.1372 6.24459C31.3295 5.83303 31.2464 5.6176 30.554 4.73273C28.7088 2.37458 25.8159 0.666961 22.8136 0.163655C21.8232 -0.0023913 19.1635 -0.00248349 18.2125 0.16347ZM21.7211 1.87451C22.8569 2.23715 23.8281 3.12645 24.2805 4.21816C25.1479 6.31132 24.2703 8.70832 22.2785 9.68614C20.7194 10.4515 18.8441 10.1063 17.6372 8.83182C16.4148 7.54093 16.1282 5.60717 16.92 3.99212C17.2106 3.39929 17.9385 2.58539 18.4611 2.26881C19.4238 1.68557 20.6607 1.53596 21.7211 1.87451ZM15.4559 3.23509C14.6542 4.8769 14.6308 6.73783 15.3909 8.39229L15.6961 9.05647L15.3693 8.9171C14.9127 8.72208 14.0615 8.1873 13.4794 7.72959C12.9148 7.28563 11.6944 6.02972 11.6944 5.89265C11.6944 5.73122 13.3252 4.13666 13.901 3.73507C14.349 3.42264 15.5932 2.70668 15.6913 2.70483C15.7044 2.70455 15.5984 2.94324 15.4559 3.23509ZM27.0521 3.67083C27.8244 4.20321 29.3737 5.69412 29.3737 5.90493C29.3737 6.06183 28.0854 7.34848 27.409 7.86711C26.8429 8.3011 25.5686 9.073 25.4181 9.073C25.3932 9.073 25.4899 8.84954 25.633 8.57643C26.427 7.06097 26.4455 4.90791 25.678 3.33099L25.3818 2.72255L25.7928 2.90429C26.0189 3.00425 26.5856 3.34926 27.0521 3.67083ZM19.7689 3.51263C18.7222 3.89964 18.1151 4.79346 18.13 5.92551C18.1424 6.87093 18.5921 7.65538 19.3787 8.10386C19.7985 8.34319 19.9552 8.38048 20.534 8.37863C21.2499 8.37632 21.655 8.22108 22.214 7.73485C22.9476 7.09678 23.1804 5.74211 22.7226 4.775C22.1911 3.65209 20.8926 3.0971 19.7689 3.51263ZM20.8422 5.14244C21.3531 5.36313 21.5027 5.9699 21.158 6.42291C20.7154 7.00458 19.7304 6.67498 19.7304 5.94526C19.7304 5.61437 19.9425 5.26539 20.2194 5.14069C20.555 4.98951 20.4876 4.98932 20.8422 5.14244ZM6.78347 8.58021C2.69403 9.99174 0.463315 11.7393 0.0945503 13.8203C-0.0229543 14.4834 -0.0345619 20.6788 0.0801748 21.4983C0.194376 22.3141 0.574926 23.0496 1.24754 23.7546C1.98784 24.5306 2.69019 25.017 4.04676 25.6932C7.16644 27.2482 11.0619 28.1002 17.3419 28.601L18.0339 28.6562L18.0368 30.1019C18.0397 31.6108 18.068 31.7365 18.4522 31.9481C18.9128 32.2016 18.9827 32.1534 23.1883 28.6795C25.4362 26.8227 27.3859 25.1815 27.5209 25.0322C27.833 24.6875 27.8514 24.2227 27.5655 23.9041C27.4212 23.7431 20.4231 17.943 19.2194 16.9867C19.1593 16.939 18.9598 16.8999 18.776 16.8999C18.5251 16.8999 18.3911 16.961 18.2379 17.1451C18.0452 17.3768 18.0339 17.466 18.0339 18.7696V20.1489L17.3419 20.1469C15.4862 20.1419 12.2188 19.6769 9.44206 19.0225L8.21657 18.7337L8.19201 13.803L8.16746 8.87234L7.91691 8.64962C7.63244 8.39672 7.36278 8.3802 6.78347 8.58021ZM33.1336 8.55575C32.6809 8.81511 32.6839 8.77921 32.6805 13.9341L32.6774 18.7491L31.5389 19.0246C30.9128 19.176 29.9104 19.3925 29.3114 19.5055C28.4308 19.6718 28.1839 19.7536 28.0212 19.9325C27.6368 20.3555 27.8248 21.0496 28.3835 21.2704C28.808 21.4382 32.7486 20.5642 34.8582 19.8345C35.9951 19.4413 37.3698 18.7364 38.4102 18.0133L39.1955 17.4674V19.4579C39.1955 21.2884 39.1806 21.4785 39.0107 21.8227C38.1469 23.573 34.3641 25.3187 29.54 26.1935C28.2253 26.4318 28.0025 26.5109 27.8578 26.7904C27.6714 27.1505 27.7481 27.5927 28.0412 27.8476C28.3795 28.142 28.4434 28.1421 29.9704 27.8531C34.6111 26.9748 37.8709 25.6049 39.6041 23.8048C40.3165 23.065 40.6728 22.4027 40.8039 21.5748C40.9142 20.8789 40.9184 14.5535 40.8091 13.8637C40.6452 12.8296 39.9725 11.8092 38.883 10.9423C38.076 10.3003 36.0559 9.27393 34.6656 8.79951C33.4531 8.38592 33.4351 8.38297 33.1336 8.55575ZM6.6049 14.2879C6.6049 17.6011 6.58713 18.1183 6.47328 18.1183C6.25837 18.1183 5.00903 17.5807 4.19409 17.1376C2.65045 16.2982 1.69399 15.2346 1.69399 14.3575C1.69399 13.1461 3.1069 11.8983 5.75665 10.7697C6.14952 10.6024 6.50114 10.4637 6.53793 10.4614C6.57472 10.4593 6.6049 12.1812 6.6049 14.2879ZM35.0635 10.7416C37.6184 11.7868 39.1955 13.158 39.1955 14.334C39.1955 15.2566 38.2517 16.2955 36.6061 17.1843C35.8902 17.571 34.4697 18.2106 34.3269 18.2106C34.3036 18.2106 34.2846 16.4661 34.2846 14.334C34.2846 12.2019 34.3036 10.4575 34.3269 10.4575C34.3502 10.4575 34.6816 10.5853 35.0635 10.7416ZM4.14944 18.9993C7.02893 20.4634 12.7091 21.6809 17.5447 21.8704L19.0646 21.93L19.3305 21.6939C19.5889 21.4645 19.5977 21.4291 19.6411 20.4498L19.6858 19.4419L22.6301 21.9113C24.2494 23.2695 25.5828 24.415 25.5931 24.4569C25.6033 24.4988 24.2784 25.6454 22.6487 27.0048L19.6858 29.4766L19.6376 28.5278C19.6111 28.0059 19.556 27.5047 19.5151 27.414C19.3745 27.1016 18.999 27.0046 17.6768 26.9393C10.8589 26.6028 4.88715 24.9468 2.57751 22.7521C1.7281 21.945 1.69399 21.8185 1.69399 19.4762V17.4774L2.43062 17.9886C2.83582 18.2698 3.60924 18.7246 4.14944 18.9993Z" fill="url(#paint0_linear_677_3064)"/>
<defs>
<linearGradient id="paint0_linear_677_3064" x1="0" y1="0.0390625" x2="31.6462" y2="40.6741" gradientUnits="userSpaceOnUse">
<stop stop-color="#0ABD92"/>
<stop offset="1" stop-color="#009DB8"/>
</linearGradient>
</defs>
</svg>
