<svg width="79" height="79" viewBox="0 0 79 79" fill="none" xmlns="http://www.w3.org/2000/svg">
<g clip-path="url(#clip0_677_2680)">
<path d="M12.3718 40.1797C11.935 40.1797 11.5762 40.5385 11.5762 40.9753C11.5762 41.4121 11.935 41.7709 12.3718 41.7709C12.8086 41.7709 13.1674 41.4121 13.1674 40.9753C13.1674 40.5229 12.8086 40.1797 12.3718 40.1797Z" fill="url(#paint0_linear_677_2680)"/>
<path d="M15.4138 40.1797C14.977 40.1797 14.6182 40.5385 14.6182 40.9753C14.6182 41.4121 14.977 41.7709 15.4138 41.7709C15.8506 41.7709 16.2094 41.4121 16.2094 40.9753C16.2094 40.5229 15.8506 40.1797 15.4138 40.1797Z" fill="url(#paint1_linear_677_2680)"/>
<path d="M18.4558 40.1797C18.019 40.1797 17.6602 40.5385 17.6602 40.9753C17.6602 41.4121 18.019 41.7709 18.4558 41.7709C18.8926 41.7709 19.2514 41.4121 19.2514 40.9753C19.2514 40.5229 18.8926 40.1797 18.4558 40.1797Z" fill="url(#paint2_linear_677_2680)"/>
<path d="M21.5134 40.1797C21.0766 40.1797 20.7178 40.5385 20.7178 40.9753C20.7178 41.4121 21.0766 41.7709 21.5134 41.7709C21.9502 41.7709 22.309 41.4121 22.309 40.9753C22.2934 40.5229 21.9502 40.1797 21.5134 40.1797Z" fill="url(#paint3_linear_677_2680)"/>
<path d="M24.5554 40.1797C24.1186 40.1797 23.7598 40.5385 23.7598 40.9753C23.7598 41.4121 24.1186 41.7709 24.5554 41.7709C24.9922 41.7709 25.351 41.4121 25.351 40.9753C25.3354 40.5229 24.9922 40.1797 24.5554 40.1797Z" fill="url(#paint4_linear_677_2680)"/>
<path d="M27.5974 40.1797C27.1606 40.1797 26.8018 40.5385 26.8018 40.9753C26.8018 41.4121 27.1606 41.7709 27.5974 41.7709C28.0342 41.7709 28.393 41.4121 28.393 40.9753C28.3774 40.5229 28.0342 40.1797 27.5974 40.1797Z" fill="url(#paint5_linear_677_2680)"/>
<path d="M30.6394 40.1797C30.2026 40.1797 29.8438 40.5385 29.8438 40.9753C29.8438 41.4121 30.2026 41.7709 30.6394 41.7709C31.0762 41.7709 31.435 41.4121 31.435 40.9753C31.4194 40.5229 31.0762 40.1797 30.6394 40.1797Z" fill="url(#paint6_linear_677_2680)"/>
<path d="M12.3718 37.4805C11.935 37.4805 11.5762 37.8393 11.5762 38.2761C11.5762 38.7129 11.935 39.0717 12.3718 39.0717C12.8086 39.0717 13.1674 38.7129 13.1674 38.2761C13.1674 37.8393 12.8086 37.4805 12.3718 37.4805Z" fill="url(#paint7_linear_677_2680)"/>
<path d="M15.4138 39.0717C15.8532 39.0717 16.2094 38.7155 16.2094 38.2761C16.2094 37.8366 15.8532 37.4805 15.4138 37.4805C14.9744 37.4805 14.6182 37.8366 14.6182 38.2761C14.6182 38.7155 14.9744 39.0717 15.4138 39.0717Z" fill="url(#paint8_linear_677_2680)"/>
<path d="M18.4558 39.0717C18.8952 39.0717 19.2514 38.7155 19.2514 38.2761C19.2514 37.8366 18.8952 37.4805 18.4558 37.4805C18.0163 37.4805 17.6602 37.8366 17.6602 38.2761C17.6602 38.7155 18.0163 39.0717 18.4558 39.0717Z" fill="url(#paint9_linear_677_2680)"/>
<path d="M21.5134 39.0717C21.9528 39.0717 22.309 38.7155 22.309 38.2761C22.309 37.8366 21.9528 37.4805 21.5134 37.4805C21.0741 37.4805 20.7178 37.8366 20.7178 38.2761C20.7178 38.7155 21.0741 39.0717 21.5134 39.0717Z" fill="url(#paint10_linear_677_2680)"/>
<path d="M24.5554 39.0717C24.9947 39.0717 25.351 38.7155 25.351 38.2761C25.351 37.8366 24.9947 37.4805 24.5554 37.4805C24.1159 37.4805 23.7598 37.8366 23.7598 38.2761C23.7598 38.7155 24.1159 39.0717 24.5554 39.0717Z" fill="url(#paint11_linear_677_2680)"/>
<path d="M27.5974 39.0717C28.0368 39.0717 28.393 38.7155 28.393 38.2761C28.393 37.8366 28.0368 37.4805 27.5974 37.4805C27.1579 37.4805 26.8018 37.8366 26.8018 38.2761C26.8018 38.7155 27.1579 39.0717 27.5974 39.0717Z" fill="url(#paint12_linear_677_2680)"/>
<path d="M30.6394 39.0717C31.0788 39.0717 31.435 38.7155 31.435 38.2761C31.435 37.8366 31.0788 37.4805 30.6394 37.4805C30.1999 37.4805 29.8438 37.8366 29.8438 38.2761C29.8438 38.7155 30.1999 39.0717 30.6394 39.0717Z" fill="url(#paint13_linear_677_2680)"/>
<path d="M12.3718 34.7812C11.935 34.7812 11.5762 35.1401 11.5762 35.5769C11.5762 36.0137 11.935 36.3725 12.3718 36.3725C12.8086 36.3725 13.1674 36.0137 13.1674 35.5769C13.1674 35.1401 12.8086 34.7812 12.3718 34.7812Z" fill="url(#paint14_linear_677_2680)"/>
<path d="M15.4138 36.3725C15.8532 36.3725 16.2094 36.0163 16.2094 35.5769C16.2094 35.1374 15.8532 34.7812 15.4138 34.7812C14.9744 34.7812 14.6182 35.1374 14.6182 35.5769C14.6182 36.0163 14.9744 36.3725 15.4138 36.3725Z" fill="url(#paint15_linear_677_2680)"/>
<path d="M18.4558 36.3725C18.8952 36.3725 19.2514 36.0163 19.2514 35.5769C19.2514 35.1374 18.8952 34.7812 18.4558 34.7812C18.0163 34.7812 17.6602 35.1374 17.6602 35.5769C17.6602 36.0163 18.0163 36.3725 18.4558 36.3725Z" fill="url(#paint16_linear_677_2680)"/>
<path d="M21.5134 36.3725C21.9528 36.3725 22.309 36.0163 22.309 35.5769C22.309 35.1374 21.9528 34.7812 21.5134 34.7812C21.0741 34.7812 20.7178 35.1374 20.7178 35.5769C20.7178 36.0163 21.0741 36.3725 21.5134 36.3725Z" fill="url(#paint17_linear_677_2680)"/>
<path d="M24.5554 36.3725C24.9947 36.3725 25.351 36.0163 25.351 35.5769C25.351 35.1374 24.9947 34.7812 24.5554 34.7812C24.1159 34.7812 23.7598 35.1374 23.7598 35.5769C23.7598 36.0163 24.1159 36.3725 24.5554 36.3725Z" fill="url(#paint18_linear_677_2680)"/>
<path d="M27.5974 36.3725C28.0368 36.3725 28.393 36.0163 28.393 35.5769C28.393 35.1374 28.0368 34.7812 27.5974 34.7812C27.1579 34.7812 26.8018 35.1374 26.8018 35.5769C26.8018 36.0163 27.1579 36.3725 27.5974 36.3725Z" fill="url(#paint19_linear_677_2680)"/>
<path d="M30.6394 36.3725C31.0788 36.3725 31.435 36.0163 31.435 35.5769C31.435 35.1374 31.0788 34.7812 30.6394 34.7812C30.1999 34.7812 29.8438 35.1374 29.8438 35.5769C29.8438 36.0163 30.1999 36.3725 30.6394 36.3725Z" fill="url(#paint20_linear_677_2680)"/>
<path d="M12.3718 32.082C11.935 32.082 11.5762 32.4408 11.5762 32.8776C11.5762 33.3144 11.935 33.6732 12.3718 33.6732C12.8086 33.6732 13.1674 33.3144 13.1674 32.8776C13.1674 32.4408 12.8086 32.082 12.3718 32.082Z" fill="url(#paint21_linear_677_2680)"/>
<path d="M15.4138 32.082C14.977 32.082 14.6182 32.4408 14.6182 32.8776C14.6182 33.3144 14.977 33.6732 15.4138 33.6732C15.8506 33.6732 16.2094 33.3144 16.2094 32.8776C16.2094 32.4408 15.8506 32.082 15.4138 32.082Z" fill="url(#paint22_linear_677_2680)"/>
<path d="M18.4558 32.082C18.019 32.082 17.6602 32.4408 17.6602 32.8776C17.6602 33.3144 18.019 33.6732 18.4558 33.6732C18.8926 33.6732 19.2514 33.3144 19.2514 32.8776C19.2514 32.4408 18.8926 32.082 18.4558 32.082Z" fill="url(#paint23_linear_677_2680)"/>
<path d="M21.5134 32.082C21.0766 32.082 20.7178 32.4408 20.7178 32.8776C20.7178 33.3144 21.0766 33.6732 21.5134 33.6732C21.9502 33.6732 22.309 33.3144 22.309 32.8776C22.2934 32.4408 21.9502 32.082 21.5134 32.082Z" fill="url(#paint24_linear_677_2680)"/>
<path d="M24.5554 32.082C24.1186 32.082 23.7598 32.4408 23.7598 32.8776C23.7598 33.3144 24.1186 33.6732 24.5554 33.6732C24.9922 33.6732 25.351 33.3144 25.351 32.8776C25.3354 32.4408 24.9922 32.082 24.5554 32.082Z" fill="url(#paint25_linear_677_2680)"/>
<path d="M27.5974 32.082C27.1606 32.082 26.8018 32.4408 26.8018 32.8776C26.8018 33.3144 27.1606 33.6732 27.5974 33.6732C28.0342 33.6732 28.393 33.3144 28.393 32.8776C28.3774 32.4408 28.0342 32.082 27.5974 32.082Z" fill="url(#paint26_linear_677_2680)"/>
<path d="M30.6394 32.082C30.2026 32.082 29.8438 32.4408 29.8438 32.8776C29.8438 33.3144 30.2026 33.6732 30.6394 33.6732C31.0762 33.6732 31.435 33.3144 31.435 32.8776C31.4194 32.4408 31.0762 32.082 30.6394 32.082Z" fill="url(#paint27_linear_677_2680)"/>
<path d="M27.5974 30.974C28.0368 30.974 28.393 30.6179 28.393 30.1784C28.393 29.739 28.0368 29.3828 27.5974 29.3828C27.1579 29.3828 26.8018 29.739 26.8018 30.1784C26.8018 30.6179 27.1579 30.974 27.5974 30.974Z" fill="url(#paint28_linear_677_2680)"/>
<path d="M30.6394 30.974C31.0788 30.974 31.435 30.6179 31.435 30.1784C31.435 29.739 31.0788 29.3828 30.6394 29.3828C30.1999 29.3828 29.8438 29.739 29.8438 30.1784C29.8438 30.6179 30.1999 30.974 30.6394 30.974Z" fill="url(#paint29_linear_677_2680)"/>
<path d="M27.5974 26.6836C27.1606 26.6836 26.8018 27.0424 26.8018 27.4792C26.8018 27.916 27.1606 28.2748 27.5974 28.2748C28.0342 28.2748 28.393 27.916 28.393 27.4792C28.3774 27.0424 28.0342 26.6836 27.5974 26.6836Z" fill="url(#paint30_linear_677_2680)"/>
<path d="M30.6394 26.6836C30.2026 26.6836 29.8438 27.0424 29.8438 27.4792C29.8438 27.916 30.2026 28.2748 30.6394 28.2748C31.0762 28.2748 31.435 27.916 31.435 27.4792C31.4194 27.0424 31.0762 26.6836 30.6394 26.6836Z" fill="url(#paint31_linear_677_2680)"/>
<path d="M27.5974 25.5795C28.0368 25.5795 28.393 25.2233 28.393 24.7839C28.393 24.3444 28.0368 23.9883 27.5974 23.9883C27.1579 23.9883 26.8018 24.3444 26.8018 24.7839C26.8018 25.2233 27.1579 25.5795 27.5974 25.5795Z" fill="url(#paint32_linear_677_2680)"/>
<path d="M30.6394 25.5795C31.0788 25.5795 31.435 25.2233 31.435 24.7839C31.435 24.3444 31.0788 23.9883 30.6394 23.9883C30.1999 23.9883 29.8438 24.3444 29.8438 24.7839C29.8438 25.2233 30.1999 25.5795 30.6394 25.5795Z" fill="url(#paint33_linear_677_2680)"/>
<path d="M14.1502 29.0582C15.5542 29.0582 16.7086 27.9194 16.7086 26.4998C16.7086 25.0802 15.5542 23.957 14.1502 23.957C12.7462 23.957 11.5918 25.0958 11.5918 26.4998C11.5918 27.9038 12.7462 29.0582 14.1502 29.0582ZM14.1502 25.517C14.6962 25.517 15.1486 25.9694 15.1486 26.5154C15.1486 27.0614 14.6962 27.4982 14.1502 27.4982C13.6042 27.4982 13.1518 27.0458 13.1518 26.4998C13.1518 25.9538 13.6042 25.517 14.1502 25.517Z" fill="url(#paint34_linear_677_2680)"/>
<path d="M20.7645 29.0582C22.1685 29.0582 23.3229 27.9194 23.3229 26.4998C23.3229 25.0802 22.1685 23.957 20.7645 23.957C19.3605 23.957 18.2061 25.0958 18.2061 26.5154C18.2061 27.935 19.3605 29.0582 20.7645 29.0582ZM20.7645 25.517C21.3105 25.517 21.7629 25.9694 21.7629 26.5154C21.7629 27.0614 21.3105 27.5138 20.7645 27.5138C20.2185 27.5138 19.7661 27.0614 19.7661 26.5154C19.7661 25.9694 20.2185 25.517 20.7645 25.517Z" fill="url(#paint35_linear_677_2680)"/>
<path d="M77.72 55.6404H73.7108V53.6747H73.9292C76.0664 53.6747 77.798 51.9432 77.798 49.7904C77.798 49.3536 77.4548 49.0104 77.018 49.0104H73.6952V45.4224H74.99C75.848 45.4224 76.55 44.7204 76.55 43.8624V23.0364C76.55 19.4172 73.6016 16.4688 69.9824 16.4688H48.704C45.0848 16.4688 42.1364 19.4172 42.1364 23.0364V43.8624C42.1364 44.7204 42.8384 45.4224 43.6964 45.4224H45.1472V49.0104H40.046C39.9056 49.0104 39.7808 49.0572 39.656 49.1352C39.5468 49.0728 39.4064 49.0104 39.266 49.0104H35.9432V45.4224H37.238C38.096 45.4224 38.798 44.7204 38.798 43.8624V23.0364C38.798 19.4172 35.8496 16.4688 32.2304 16.4688H10.9364C7.3172 16.4688 4.3532 19.4172 4.3532 23.0364V43.8624C4.3532 44.7204 5.0552 45.4224 5.9132 45.4224H7.364V49.0104H2.2628C1.826 49.0104 1.4828 49.3692 1.4828 49.7904C1.4828 51.9276 3.2144 53.6592 5.3516 53.6592H5.4452V55.6247H1.28C0.8432 55.6247 0.5 55.9679 0.5 56.4047V62.832C0.5 63.2688 0.8432 63.612 1.28 63.612H77.72C78.1568 63.612 78.5 63.2688 78.5 62.832V56.4047C78.5 55.9835 78.1568 55.6404 77.72 55.6404ZM72.1508 55.6404H71.1524V53.6747H72.1508V55.6404ZM47.3468 55.6404V53.6747H69.5924V55.6404H47.3468ZM44.7884 53.6747H45.7868V55.6404H44.7884V53.6747ZM45.2564 23.0364C45.2564 22.8492 45.2876 22.6775 45.3032 22.4903C45.8492 22.9427 46.5356 23.2235 47.2844 23.2703V42.3024H45.2408V23.0364H45.2564ZM48.8444 23.3016H50.7164V39.4944C50.7164 39.9312 51.0596 40.2744 51.4964 40.2744H67.3304C67.7672 40.2744 68.1104 39.9312 68.1104 39.4944V23.3016H70.0604V42.3024H48.8444V23.3016ZM52.2764 23.3016H66.5504V38.7144H52.2764V23.3016ZM73.4456 23.0364V42.3024H71.636V23.3016H71.714C72.3536 23.3016 72.9464 23.0832 73.4144 22.74C73.43 22.8336 73.4456 22.9428 73.4456 23.0364ZM48.704 19.5888H69.998C71.1836 19.5888 72.2132 20.1816 72.8372 21.0864C72.6032 21.4764 72.1976 21.7416 71.714 21.7416H70.9496C70.9184 21.7416 70.8872 21.726 70.856 21.726H48.08C48.0488 21.726 48.0176 21.7416 47.9864 21.7416H47.456C46.832 21.7416 46.3172 21.4139 45.9896 20.9303C46.6136 20.1191 47.5964 19.5888 48.704 19.5888ZM46.7072 45.4224H72.1664V49.0104H46.7072V45.4224ZM45.9272 50.5704H72.9464H76.1288C75.8168 51.4752 74.9588 52.1147 73.9448 52.1147H72.9464H70.388H46.5668H44.0084H43.1348C42.1364 52.1147 41.2784 51.4752 40.9508 50.5704H45.9272ZM39.656 51.4751C40.28 52.7699 41.606 53.6904 43.1348 53.6904H43.2284V55.6559H35.9432V53.6904H36.1616C37.706 53.6748 39.0164 52.7699 39.656 51.4751ZM9.5792 55.6404V53.6747H31.8248V55.6404H9.5792ZM33.3848 53.6747H34.3832V55.6404H33.3848V53.6747ZM7.4732 23.0364C7.4732 22.8492 7.5044 22.6775 7.52 22.4903C8.066 22.9427 8.7524 23.2235 9.5012 23.2703V30.5088V42.318H7.4732V23.0364ZM24.5552 23.3016V29.7288H11.0768V23.3016H24.5552ZM11.0768 31.2888H25.3352C25.772 31.2888 26.1152 30.9456 26.1152 30.5088V23.3016H32.2928V42.3024H11.0768V31.2888ZM35.678 23.0364V42.3024H33.8684V23.3016H33.9464C34.586 23.3016 35.1788 23.0832 35.6468 22.74C35.6468 22.8336 35.678 22.9428 35.678 23.0364ZM10.9364 19.5888H32.2304C33.416 19.5888 34.4456 20.1816 35.0696 21.0864C34.82 21.4764 34.4144 21.7416 33.9308 21.7416H33.1664C33.1352 21.7416 33.104 21.726 33.0728 21.726H25.3352H10.2968C10.2656 21.726 10.2344 21.7416 10.2032 21.7416H9.6884C9.0644 21.7416 8.5496 21.4139 8.222 20.9303C8.846 20.1191 9.8288 19.5888 10.9364 19.5888ZM8.924 45.4224H34.3832V49.0104H8.924V45.4224ZM3.1832 50.5704H8.144H35.1632H38.3456C38.0336 51.4752 37.1756 52.1147 36.1616 52.1147H35.1632H32.6048H8.7992H6.2408H5.3672C4.3532 52.1147 3.4952 51.4752 3.1832 50.5704ZM7.0208 53.6747H8.0192V55.6404H7.0208V53.6747ZM76.94 62.052H2.06V57.1847H6.2408H8.7992H32.6048H35.1632H44.0084H46.5668H70.3724H72.9308H76.94V62.052Z" fill="url(#paint36_linear_677_2680)"/>
</g>
<defs>
<linearGradient id="paint0_linear_677_2680" x1="11.5762" y1="40.1797" x2="13.1992" y2="41.8107" gradientUnits="userSpaceOnUse">
<stop stop-color="#0ABD92"/>
<stop offset="1" stop-color="#009DB8"/>
</linearGradient>
<linearGradient id="paint1_linear_677_2680" x1="14.6182" y1="40.1797" x2="16.2412" y2="41.8107" gradientUnits="userSpaceOnUse">
<stop stop-color="#0ABD92"/>
<stop offset="1" stop-color="#009DB8"/>
</linearGradient>
<linearGradient id="paint2_linear_677_2680" x1="17.6602" y1="40.1797" x2="19.2832" y2="41.8107" gradientUnits="userSpaceOnUse">
<stop stop-color="#0ABD92"/>
<stop offset="1" stop-color="#009DB8"/>
</linearGradient>
<linearGradient id="paint3_linear_677_2680" x1="20.7178" y1="40.1797" x2="22.3408" y2="41.8107" gradientUnits="userSpaceOnUse">
<stop stop-color="#0ABD92"/>
<stop offset="1" stop-color="#009DB8"/>
</linearGradient>
<linearGradient id="paint4_linear_677_2680" x1="23.7598" y1="40.1797" x2="25.3828" y2="41.8107" gradientUnits="userSpaceOnUse">
<stop stop-color="#0ABD92"/>
<stop offset="1" stop-color="#009DB8"/>
</linearGradient>
<linearGradient id="paint5_linear_677_2680" x1="26.8018" y1="40.1797" x2="28.4248" y2="41.8107" gradientUnits="userSpaceOnUse">
<stop stop-color="#0ABD92"/>
<stop offset="1" stop-color="#009DB8"/>
</linearGradient>
<linearGradient id="paint6_linear_677_2680" x1="29.8438" y1="40.1797" x2="31.4668" y2="41.8107" gradientUnits="userSpaceOnUse">
<stop stop-color="#0ABD92"/>
<stop offset="1" stop-color="#009DB8"/>
</linearGradient>
<linearGradient id="paint7_linear_677_2680" x1="11.5762" y1="37.4805" x2="13.1992" y2="39.1114" gradientUnits="userSpaceOnUse">
<stop stop-color="#0ABD92"/>
<stop offset="1" stop-color="#009DB8"/>
</linearGradient>
<linearGradient id="paint8_linear_677_2680" x1="14.6182" y1="37.4805" x2="16.2412" y2="39.1115" gradientUnits="userSpaceOnUse">
<stop stop-color="#0ABD92"/>
<stop offset="1" stop-color="#009DB8"/>
</linearGradient>
<linearGradient id="paint9_linear_677_2680" x1="17.6602" y1="37.4805" x2="19.2832" y2="39.1114" gradientUnits="userSpaceOnUse">
<stop stop-color="#0ABD92"/>
<stop offset="1" stop-color="#009DB8"/>
</linearGradient>
<linearGradient id="paint10_linear_677_2680" x1="20.7178" y1="37.4805" x2="22.3408" y2="39.1114" gradientUnits="userSpaceOnUse">
<stop stop-color="#0ABD92"/>
<stop offset="1" stop-color="#009DB8"/>
</linearGradient>
<linearGradient id="paint11_linear_677_2680" x1="23.7598" y1="37.4805" x2="25.3828" y2="39.1114" gradientUnits="userSpaceOnUse">
<stop stop-color="#0ABD92"/>
<stop offset="1" stop-color="#009DB8"/>
</linearGradient>
<linearGradient id="paint12_linear_677_2680" x1="26.8018" y1="37.4805" x2="28.4248" y2="39.1114" gradientUnits="userSpaceOnUse">
<stop stop-color="#0ABD92"/>
<stop offset="1" stop-color="#009DB8"/>
</linearGradient>
<linearGradient id="paint13_linear_677_2680" x1="29.8438" y1="37.4805" x2="31.4668" y2="39.1114" gradientUnits="userSpaceOnUse">
<stop stop-color="#0ABD92"/>
<stop offset="1" stop-color="#009DB8"/>
</linearGradient>
<linearGradient id="paint14_linear_677_2680" x1="11.5762" y1="34.7812" x2="13.1992" y2="36.4122" gradientUnits="userSpaceOnUse">
<stop stop-color="#0ABD92"/>
<stop offset="1" stop-color="#009DB8"/>
</linearGradient>
<linearGradient id="paint15_linear_677_2680" x1="14.6182" y1="34.7812" x2="16.2412" y2="36.4122" gradientUnits="userSpaceOnUse">
<stop stop-color="#0ABD92"/>
<stop offset="1" stop-color="#009DB8"/>
</linearGradient>
<linearGradient id="paint16_linear_677_2680" x1="17.6602" y1="34.7812" x2="19.2832" y2="36.4122" gradientUnits="userSpaceOnUse">
<stop stop-color="#0ABD92"/>
<stop offset="1" stop-color="#009DB8"/>
</linearGradient>
<linearGradient id="paint17_linear_677_2680" x1="20.7178" y1="34.7812" x2="22.3408" y2="36.4122" gradientUnits="userSpaceOnUse">
<stop stop-color="#0ABD92"/>
<stop offset="1" stop-color="#009DB8"/>
</linearGradient>
<linearGradient id="paint18_linear_677_2680" x1="23.7598" y1="34.7812" x2="25.3828" y2="36.4122" gradientUnits="userSpaceOnUse">
<stop stop-color="#0ABD92"/>
<stop offset="1" stop-color="#009DB8"/>
</linearGradient>
<linearGradient id="paint19_linear_677_2680" x1="26.8018" y1="34.7812" x2="28.4248" y2="36.4122" gradientUnits="userSpaceOnUse">
<stop stop-color="#0ABD92"/>
<stop offset="1" stop-color="#009DB8"/>
</linearGradient>
<linearGradient id="paint20_linear_677_2680" x1="29.8438" y1="34.7812" x2="31.4668" y2="36.4122" gradientUnits="userSpaceOnUse">
<stop stop-color="#0ABD92"/>
<stop offset="1" stop-color="#009DB8"/>
</linearGradient>
<linearGradient id="paint21_linear_677_2680" x1="11.5762" y1="32.082" x2="13.1992" y2="33.713" gradientUnits="userSpaceOnUse">
<stop stop-color="#0ABD92"/>
<stop offset="1" stop-color="#009DB8"/>
</linearGradient>
<linearGradient id="paint22_linear_677_2680" x1="14.6182" y1="32.082" x2="16.2412" y2="33.713" gradientUnits="userSpaceOnUse">
<stop stop-color="#0ABD92"/>
<stop offset="1" stop-color="#009DB8"/>
</linearGradient>
<linearGradient id="paint23_linear_677_2680" x1="17.6602" y1="32.082" x2="19.2832" y2="33.713" gradientUnits="userSpaceOnUse">
<stop stop-color="#0ABD92"/>
<stop offset="1" stop-color="#009DB8"/>
</linearGradient>
<linearGradient id="paint24_linear_677_2680" x1="20.7178" y1="32.082" x2="22.3408" y2="33.713" gradientUnits="userSpaceOnUse">
<stop stop-color="#0ABD92"/>
<stop offset="1" stop-color="#009DB8"/>
</linearGradient>
<linearGradient id="paint25_linear_677_2680" x1="23.7598" y1="32.082" x2="25.3828" y2="33.713" gradientUnits="userSpaceOnUse">
<stop stop-color="#0ABD92"/>
<stop offset="1" stop-color="#009DB8"/>
</linearGradient>
<linearGradient id="paint26_linear_677_2680" x1="26.8018" y1="32.082" x2="28.4248" y2="33.713" gradientUnits="userSpaceOnUse">
<stop stop-color="#0ABD92"/>
<stop offset="1" stop-color="#009DB8"/>
</linearGradient>
<linearGradient id="paint27_linear_677_2680" x1="29.8438" y1="32.082" x2="31.4668" y2="33.713" gradientUnits="userSpaceOnUse">
<stop stop-color="#0ABD92"/>
<stop offset="1" stop-color="#009DB8"/>
</linearGradient>
<linearGradient id="paint28_linear_677_2680" x1="26.8018" y1="29.3828" x2="28.4248" y2="31.0138" gradientUnits="userSpaceOnUse">
<stop stop-color="#0ABD92"/>
<stop offset="1" stop-color="#009DB8"/>
</linearGradient>
<linearGradient id="paint29_linear_677_2680" x1="29.8438" y1="29.3828" x2="31.4668" y2="31.0138" gradientUnits="userSpaceOnUse">
<stop stop-color="#0ABD92"/>
<stop offset="1" stop-color="#009DB8"/>
</linearGradient>
<linearGradient id="paint30_linear_677_2680" x1="26.8018" y1="26.6836" x2="28.4248" y2="28.3146" gradientUnits="userSpaceOnUse">
<stop stop-color="#0ABD92"/>
<stop offset="1" stop-color="#009DB8"/>
</linearGradient>
<linearGradient id="paint31_linear_677_2680" x1="29.8438" y1="26.6836" x2="31.4668" y2="28.3146" gradientUnits="userSpaceOnUse">
<stop stop-color="#0ABD92"/>
<stop offset="1" stop-color="#009DB8"/>
</linearGradient>
<linearGradient id="paint32_linear_677_2680" x1="26.8018" y1="23.9883" x2="28.4248" y2="25.6193" gradientUnits="userSpaceOnUse">
<stop stop-color="#0ABD92"/>
<stop offset="1" stop-color="#009DB8"/>
</linearGradient>
<linearGradient id="paint33_linear_677_2680" x1="29.8438" y1="23.9883" x2="31.4668" y2="25.6193" gradientUnits="userSpaceOnUse">
<stop stop-color="#0ABD92"/>
<stop offset="1" stop-color="#009DB8"/>
</linearGradient>
<linearGradient id="paint34_linear_677_2680" x1="11.5918" y1="23.957" x2="16.7949" y2="29.2017" gradientUnits="userSpaceOnUse">
<stop stop-color="#0ABD92"/>
<stop offset="1" stop-color="#009DB8"/>
</linearGradient>
<linearGradient id="paint35_linear_677_2680" x1="18.2061" y1="23.957" x2="23.4092" y2="29.2016" gradientUnits="userSpaceOnUse">
<stop stop-color="#0ABD92"/>
<stop offset="1" stop-color="#009DB8"/>
</linearGradient>
<linearGradient id="paint36_linear_677_2680" x1="0.5" y1="16.4688" x2="42.9776" y2="87.0938" gradientUnits="userSpaceOnUse">
<stop stop-color="#0ABD92"/>
<stop offset="1" stop-color="#009DB8"/>
</linearGradient>
<clipPath id="clip0_677_2680">
<rect width="78" height="78" fill="white" transform="translate(0.5 0.867188)"/>
</clipPath>
</defs>
</svg>
