<svg width="67" height="68" viewBox="0 0 67 68" fill="none" xmlns="http://www.w3.org/2000/svg">
<g clip-path="url(#clip0_677_2607)">
<path d="M66.2684 34.5433L54.6908 34.9051L54.1012 32.7745C54.3424 32.1581 54.396 31.5015 54.2486 30.8583C54.4228 31.0057 54.664 31.0727 54.8918 30.9923C55.2402 30.8717 55.4412 30.4965 55.3206 30.1481L53.5652 24.8417L56.3926 23.9037C57.2904 25.5653 60.4126 30.4965 66.2818 30.5903C66.2818 30.5903 66.2818 30.5903 66.2952 30.5903C66.657 30.5903 66.9652 30.2955 66.9652 29.9337C66.9652 29.5585 66.6704 29.2637 66.3086 29.2503C60.3858 29.1565 57.5048 23.1399 57.3574 22.8317L55.3072 16.6141L56.674 16.1585C57.009 16.0513 57.2904 15.8101 57.4512 15.4885C57.612 15.1669 57.6388 14.8051 57.5316 14.4701L54.9052 6.51047C54.6774 5.81367 53.9136 5.42507 53.2168 5.65287L51.0862 6.36307L49.7596 3.44187C49.6122 3.13367 49.2638 2.97287 48.9288 3.08007L15.4154 14.4701C15.2278 14.5371 15.0804 14.6711 15.0134 14.8453L13.5394 18.4499C13.4992 18.5571 13.4858 18.6643 13.4992 18.7581L9.86776 19.9641C9.43896 20.1115 9.10396 20.4599 8.99676 20.9021C8.87616 21.3443 8.99676 21.8133 9.30496 22.1483L10.7924 23.7831L0.460971 27.1867C0.286771 27.2403 0.152759 27.3609 0.072359 27.5217C-0.00804103 27.6825 -0.0214394 27.8701 0.0321606 28.0309L2.72555 36.2049C2.81935 36.4863 3.07396 36.6605 3.35536 36.6605C3.42236 36.6605 3.48936 36.6471 3.56976 36.6203L18.7654 31.6087C18.8056 31.6891 18.8726 31.7561 18.9396 31.8097L22.8524 34.6773C22.973 34.7577 23.107 34.8113 23.2544 34.8113C23.3214 34.8113 23.4018 34.7979 23.4688 34.7711L44.949 27.6825L46.7044 32.9889C46.7982 33.2703 47.0528 33.4445 47.3342 33.4445C47.4012 33.4445 47.4682 33.4311 47.5486 33.4043C47.7764 33.3239 47.9372 33.1363 47.9774 32.9085C48.2454 33.5115 48.6742 34.0073 49.2236 34.3557L51.1666 40.2383C51.247 40.4795 51.448 40.6537 51.7026 40.6939L66.2282 42.9719C66.2684 42.9719 66.2952 42.9853 66.3354 42.9853C66.4962 42.9853 66.6436 42.9317 66.7776 42.8245C66.925 42.7039 67.0054 42.5163 67.0054 42.3153V35.1865C67.0054 34.9989 66.9384 34.8381 66.8044 34.7041C66.6168 34.6103 66.4426 34.5299 66.2684 34.5433ZM16.8492 26.4899L15.7504 25.2839L53.994 12.3395L54.5568 14.0413L16.8492 26.4899ZM16.1122 15.6493L48.768 4.55407L49.7864 6.79187L15.0536 18.2489L16.1122 15.6493ZM52.7612 8.64108L53.5652 11.0799L14.7588 24.2119L12.6281 21.8669L52.7612 8.64108ZM1.46597 28.2587L4.11916 27.3877L5.32516 31.1531C5.41896 31.4345 5.67357 31.6221 5.96837 31.6221C6.03537 31.6221 6.10236 31.6087 6.16936 31.5953C6.51776 31.4881 6.71875 31.0995 6.59815 30.7511L5.39216 26.9723L11.7304 24.8819L15.4422 28.9555C15.6968 29.2369 16.0586 29.3977 16.4338 29.3977C16.5678 29.3977 16.7152 29.3709 16.8492 29.3307L24.648 26.7579L25.0902 28.1247L3.73055 35.1731L1.46597 28.2587ZM23.3348 33.4043L20.226 31.1263L26.1622 29.1699C26.5106 29.0493 26.7116 28.6741 26.591 28.3257L25.9344 26.3291L54.0342 17.0563L55.8834 22.6709L23.3348 33.4043ZM47.9908 30.0677C47.7228 30.5903 47.6156 31.1665 47.6558 31.7293L46.1818 27.2805L47.0126 26.9991L52.2922 25.2571L53.7662 29.7059C53.4446 29.2369 53.0292 28.8349 52.4932 28.5669C51.6892 28.1649 50.7914 28.0979 49.9338 28.3793C49.0762 28.6741 48.3928 29.2637 47.9908 30.0677ZM49.1834 30.6707C49.4246 30.1883 49.84 29.8399 50.3492 29.6657C50.5502 29.5987 50.7646 29.5585 50.979 29.5585C51.2872 29.5585 51.5954 29.6255 51.8768 29.7729C52.3592 30.0141 52.721 30.4295 52.8818 30.9387C53.056 31.4479 53.0158 31.9973 52.7746 32.4797C52.5334 32.9621 52.118 33.3239 51.6088 33.4847C51.0996 33.6589 50.5502 33.6187 50.0678 33.3641C49.5854 33.1229 49.2236 32.7075 49.0628 32.1983C48.902 31.6891 48.9422 31.1531 49.1834 30.6707ZM65.6118 41.5515L52.2654 39.4611L50.7646 34.9051C50.8316 34.9051 50.912 34.9319 50.979 34.9319C51.3274 34.9319 51.6892 34.8783 52.0376 34.7577C52.4262 34.6237 52.788 34.4227 53.0962 34.1681L53.5384 35.7627C53.6188 36.0575 53.9136 36.2719 54.2084 36.2585L65.6252 35.8967V41.5515H65.6118Z" fill="url(#paint0_linear_677_2607)"/>
<path d="M58.5631 56.2513L44.2385 56.6935L43.9035 55.5009C44.0107 55.1927 44.0643 54.8711 44.0375 54.5361C44.1179 54.5361 44.1849 54.5361 44.2653 54.5093C44.6137 54.3887 44.8147 54.0135 44.6941 53.6651L43.5953 50.3285L45.0961 49.8327C45.8197 51.1191 47.9637 54.2011 51.8095 54.2681C51.8095 54.2681 51.8095 54.2681 51.8229 54.2681C52.1847 54.2681 52.4929 53.9733 52.4929 53.6115C52.4929 53.2363 52.1981 52.9415 51.8363 52.9281C48.0575 52.8745 46.1815 49.0555 46.0609 48.7741L44.8281 45.0489L45.5249 44.8211C46.2217 44.5933 46.6103 43.8295 46.3825 43.1327L44.6271 37.7995C44.3993 37.1027 43.6489 36.7141 42.9387 36.9419L41.6791 37.3573L40.9689 35.7895C40.8215 35.4813 40.4731 35.3205 40.1381 35.4277L17.7199 43.0389C17.5323 43.1059 17.3849 43.2399 17.3179 43.4141L16.3799 45.6921L13.9277 46.4961C13.4989 46.6435 13.1639 46.9919 13.0567 47.4341C12.9361 47.8763 13.0567 48.3453 13.3649 48.6803L14.0617 49.4441L7.71006 51.5479C7.36166 51.6685 7.16066 52.0437 7.28126 52.3921L9.07686 57.8593C9.13046 58.0335 9.25106 58.1675 9.41186 58.2479C9.50566 58.3015 9.61286 58.3149 9.70666 58.3149C9.77366 58.3149 9.85406 58.3015 9.92106 58.2747L19.9577 54.9649C19.9711 54.9783 19.9845 55.0051 20.0113 55.0185L22.6243 56.9347C22.7449 57.0151 22.8789 57.0687 23.0263 57.0687C23.0933 57.0687 23.1737 57.0553 23.2407 57.0285L37.4045 52.3519L38.5033 55.6885C38.5971 55.9699 38.8517 56.1441 39.1331 56.1441C39.2001 56.1441 39.2671 56.1307 39.3475 56.1039C39.4279 56.0771 39.4815 56.0369 39.5485 55.9967C39.7227 56.2647 39.9505 56.5059 40.2185 56.6801L41.4915 60.5393C41.5719 60.7805 41.7729 60.9547 42.0275 60.9949L58.4023 63.5677C58.4425 63.5677 58.4693 63.5811 58.5095 63.5811C58.6703 63.5811 58.8177 63.5275 58.9383 63.4203C59.0857 63.2997 59.1795 63.1121 59.1795 62.9111L59.2599 56.8945C59.2599 56.7069 59.1929 56.5327 59.0589 56.4121C58.9249 56.2915 58.7373 56.2513 58.5631 56.2513ZM43.4345 42.6905L18.8991 50.7841L16.7417 48.4123L42.5099 39.9167L43.4345 42.6905ZM18.4435 44.2181L40.0041 36.9017L40.4061 37.7861L18.0549 45.1561L18.4435 44.2181ZM8.75524 52.6199L15.0399 50.5429L17.4921 53.2363C17.7467 53.5177 18.1085 53.6785 18.4837 53.6785C18.6177 53.6785 18.7651 53.6517 18.8991 53.6115L23.8973 51.9633L23.9911 52.2447L10.1221 56.8141L8.75524 52.6199ZM23.1469 55.6751L21.5121 54.4691L25.0765 53.2899C25.4249 53.1693 25.6259 52.7941 25.5053 52.4457L25.1971 51.5345L43.5685 45.4777L44.6003 48.5999L23.1469 55.6751ZM41.0895 55.7019C40.8215 55.5679 40.6205 55.3401 40.5267 55.0453C40.3391 54.4557 40.6607 53.8125 41.2369 53.6249C41.3575 53.5847 41.4781 53.5713 41.5853 53.5713C41.7595 53.5713 41.9337 53.6115 42.0945 53.6919C42.3625 53.8259 42.5635 54.0537 42.6573 54.3485C42.8449 54.9381 42.5367 55.5813 41.9471 55.7689C41.6657 55.8627 41.3575 55.8359 41.0895 55.7019ZM39.2939 53.8661L38.6641 51.9633L42.3357 50.7573L42.9655 52.6601C42.8851 52.6065 42.8047 52.5529 42.7109 52.4993C42.1213 52.2045 41.4513 52.1509 40.8349 52.3653C40.0845 52.6065 39.5485 53.1827 39.2939 53.8661ZM57.8395 62.1607L42.6305 59.7755L41.7595 57.1357C41.9605 57.1223 42.1749 57.1089 42.3759 57.0419C42.5635 56.9749 42.7243 56.8945 42.8851 56.8007L43.0995 57.5645C43.1799 57.8593 43.4613 58.0469 43.7695 58.0603L57.9199 57.6181L57.8395 62.1607Z" fill="url(#paint1_linear_677_2607)"/>
</g>
<defs>
<linearGradient id="paint0_linear_677_2607" x1="0" y1="3.04688" x2="35.7492" y2="63.3179" gradientUnits="userSpaceOnUse">
<stop stop-color="#0ABD92"/>
<stop offset="1" stop-color="#009DB8"/>
</linearGradient>
<linearGradient id="paint1_linear_677_2607" x1="7.24609" y1="35.3945" x2="31.2686" y2="79.9414" gradientUnits="userSpaceOnUse">
<stop stop-color="#0ABD92"/>
<stop offset="1" stop-color="#009DB8"/>
</linearGradient>
<clipPath id="clip0_677_2607">
<rect width="67" height="67" fill="white" transform="translate(0 0.367188)"/>
</clipPath>
</defs>
</svg>
