<svg width="79" height="48" viewBox="0 0 79 48" fill="none" xmlns="http://www.w3.org/2000/svg">
<path d="M77.72 39.6404H73.7108V37.6747H73.9292C76.0664 37.6747 77.798 35.9432 77.798 33.7904C77.798 33.3536 77.4548 33.0104 77.018 33.0104H73.6952V29.4223H74.99C75.848 29.4223 76.55 28.7204 76.55 27.8624V7.03635C76.55 3.41715 73.6016 0.46875 69.9824 0.46875H48.704C45.0848 0.46875 42.1364 3.41715 42.1364 7.03635V27.8624C42.1364 28.7204 42.8384 29.4223 43.6964 29.4223H45.1472V33.0104H40.046C39.9056 33.0104 39.7808 33.0572 39.656 33.1352C39.5468 33.0728 39.4064 33.0104 39.266 33.0104H35.9432V29.4223H37.238C38.096 29.4223 38.798 28.7204 38.798 27.8624V7.03635C38.798 3.41715 35.8496 0.46875 32.2304 0.46875H10.9364C7.3172 0.46875 4.3532 3.41715 4.3532 7.03635V27.8624C4.3532 28.7204 5.0552 29.4223 5.9132 29.4223H7.364V33.0104H2.2628C1.826 33.0104 1.4828 33.3692 1.4828 33.7904C1.4828 35.9276 3.2144 37.6592 5.3516 37.6592H5.4452V39.6247H1.28C0.8432 39.6247 0.5 39.9679 0.5 40.4048V46.832C0.5 47.2688 0.8432 47.612 1.28 47.612H77.72C78.1568 47.612 78.5 47.2688 78.5 46.832V40.4048C78.5 39.9836 78.1568 39.6404 77.72 39.6404ZM72.1508 39.6404H71.1524V37.6747H72.1508V39.6404ZM47.3468 39.6404V37.6747H69.5924V39.6404H47.3468ZM44.7884 37.6747H45.7868V39.6404H44.7884V37.6747ZM45.2564 7.03635C45.2564 6.84915 45.2876 6.67755 45.3032 6.49035C45.8492 6.94275 46.5356 7.22355 47.2844 7.27035V26.3024H45.2408V7.03635H45.2564ZM48.8444 7.30155H50.7164V23.4944C50.7164 23.9312 51.0596 24.2744 51.4964 24.2744H67.3304C67.7672 24.2744 68.1104 23.9312 68.1104 23.4944V7.30155H70.0604V26.3024H48.8444V7.30155ZM52.2764 7.30155H66.5504V22.7144H52.2764V7.30155ZM73.4456 7.03635V26.3024H71.636V7.30155H71.714C72.3536 7.30155 72.9464 7.08315 73.4144 6.73995C73.43 6.83355 73.4456 6.94275 73.4456 7.03635ZM48.704 3.58875H69.998C71.1836 3.58875 72.2132 4.18155 72.8372 5.08635C72.6032 5.47635 72.1976 5.74155 71.714 5.74155H70.9496C70.9184 5.74155 70.8872 5.72595 70.856 5.72595H48.08C48.0488 5.72595 48.0176 5.74155 47.9864 5.74155H47.456C46.832 5.74155 46.3172 5.41395 45.9896 4.93035C46.6136 4.11915 47.5964 3.58875 48.704 3.58875ZM46.7072 29.4223H72.1664V33.0104H46.7072V29.4223ZM45.9272 34.5704H72.9464H76.1288C75.8168 35.4752 74.9588 36.1147 73.9448 36.1147H72.9464H70.388H46.5668H44.0084H43.1348C42.1364 36.1147 41.2784 35.4752 40.9508 34.5704H45.9272ZM39.656 35.4752C40.28 36.77 41.606 37.6904 43.1348 37.6904H43.2284V39.6559H35.9432V37.6904H36.1616C37.706 37.6748 39.0164 36.77 39.656 35.4752ZM9.5792 39.6404V37.6747H31.8248V39.6404H9.5792ZM33.3848 37.6747H34.3832V39.6404H33.3848V37.6747ZM7.4732 7.03635C7.4732 6.84915 7.5044 6.67755 7.52 6.49035C8.066 6.94275 8.7524 7.22355 9.5012 7.27035V14.5088V26.318H7.4732V7.03635ZM24.5552 7.30155V13.7288H11.0768V7.30155H24.5552ZM11.0768 15.2888H25.3352C25.772 15.2888 26.1152 14.9456 26.1152 14.5088V7.30155H32.2928V26.3024H11.0768V15.2888ZM35.678 7.03635V26.3024H33.8684V7.30155H33.9464C34.586 7.30155 35.1788 7.08315 35.6468 6.73995C35.6468 6.83355 35.678 6.94275 35.678 7.03635ZM10.9364 3.58875H32.2304C33.416 3.58875 34.4456 4.18155 35.0696 5.08635C34.82 5.47635 34.4144 5.74155 33.9308 5.74155H33.1664C33.1352 5.74155 33.104 5.72595 33.0728 5.72595H25.3352H10.2968C10.2656 5.72595 10.2344 5.74155 10.2032 5.74155H9.6884C9.0644 5.74155 8.5496 5.41395 8.222 4.93035C8.846 4.11915 9.8288 3.58875 10.9364 3.58875ZM8.924 29.4223H34.3832V33.0104H8.924V29.4223ZM3.1832 34.5704H8.144H35.1632H38.3456C38.0336 35.4752 37.1756 36.1147 36.1616 36.1147H35.1632H32.6048H8.7992H6.2408H5.3672C4.3532 36.1147 3.4952 35.4752 3.1832 34.5704ZM7.0208 37.6747H8.0192V39.6404H7.0208V37.6747ZM76.94 46.052H2.06V41.1847H6.2408H8.7992H32.6048H35.1632H44.0084H46.5668H70.3724H72.9308H76.94V46.052Z" fill="url(#paint0_linear_677_2717)"/>
<defs>
<linearGradient id="paint0_linear_677_2717" x1="0.5" y1="0.46875" x2="42.9776" y2="71.0938" gradientUnits="userSpaceOnUse">
<stop stop-color="#0ABD92"/>
<stop offset="1" stop-color="#009DB8"/>
</linearGradient>
</defs>
</svg>
