<svg width="56" height="45" viewBox="0 0 56 45" fill="none" xmlns="http://www.w3.org/2000/svg">
<path fill-rule="evenodd" clip-rule="evenodd" d="M0.897531 0.417319C0.581984 0.572923 0.357656 0.786062 0.213937 1.06665C0.0112656 1.46242 0 1.73516 0 6.22884V10.9732H28H56V6.22884C56 1.72644 55.9891 1.46307 55.7849 1.06447C55.6375 0.776691 55.42 0.572161 55.0942 0.414922L54.6185 0.185547L27.9928 0.185656L1.36719 0.185765L0.897531 0.417319ZM41.7444 5.80801C42.7947 6.58919 42.7851 7.90921 41.7246 8.52847C41.3062 8.77267 41.1569 8.79391 39.8576 8.7937C38.2511 8.79359 37.8576 8.67144 37.4358 8.04226C36.9957 7.38596 37.1868 6.30947 37.8164 5.89845C38.3053 5.57929 38.6276 5.53047 40.0559 5.55924C41.2559 5.58343 41.4886 5.61764 41.7444 5.80801ZM48.1975 5.80801C49.2527 6.59279 49.2383 7.9358 48.1683 8.547C47.7878 8.76427 47.5899 8.79054 46.3203 8.79195C44.7031 8.7938 44.312 8.67318 43.8889 8.04226C43.4488 7.38596 43.64 6.30947 44.2695 5.89845C44.7584 5.57929 45.0808 5.53047 46.509 5.55924C47.709 5.58343 47.9417 5.61764 48.1975 5.80801ZM4.8125 17.7619C4.8125 23.3802 5.06341 25.5031 6.08278 28.5099C10.9424 42.8449 28.1485 48.7022 40.8021 40.3293C46.7549 36.3905 50.5113 29.9993 51.0724 22.8561C51.1357 22.05 51.1875 19.7576 51.1875 17.7619V14.1333H28H4.8125V17.7619ZM30.7667 17.7714C32.6041 18.3189 34.0541 19.1924 35.3464 20.5302C37.1956 22.4447 38.1721 24.8235 38.1814 27.4365C38.1862 28.7864 38.115 29.3117 37.7693 30.4783C36.9648 33.1933 35.1355 35.3464 32.5391 36.6344C30.9222 37.4365 29.7946 37.7016 28 37.7016C26.2054 37.7016 25.0778 37.4365 23.4609 36.6344C20.8645 35.3464 19.0352 33.1933 18.2307 30.4783C17.885 29.3117 17.8138 28.7864 17.8186 27.4365C17.8279 24.8235 18.8044 22.4447 20.6536 20.5302C22.1394 18.992 23.8247 18.0645 26.0436 17.564C27.1815 17.3074 29.5598 17.4118 30.7667 17.7714ZM26.9502 20.6646C24.9613 20.9778 23.0192 22.2904 22.0085 24.0045C19.6923 27.9324 21.5802 32.7414 26.0312 34.2515C26.4929 34.4081 26.9508 34.4556 28 34.4556C29.5223 34.4556 29.9974 34.3414 31.3359 33.6543C31.841 33.3951 32.3842 32.9812 32.9322 32.4383C35.2028 30.1881 35.6303 26.7838 33.9915 24.0045C33.1428 22.5651 31.543 21.3364 29.8858 20.851C29.172 20.6419 27.6915 20.5478 26.9502 20.6646ZM29.4625 24.5952C30.141 24.9373 30.8831 25.7572 31.1071 26.4121C31.665 28.0433 30.9795 29.7493 29.4683 30.4905C27.2638 31.5717 24.7293 30.0483 24.7212 27.6373C24.716 26.1107 25.4792 25.0098 26.9609 24.4065C27.5109 24.1826 28.8437 24.2832 29.4625 24.5952Z" fill="url(#paint0_linear_677_2956)"/>
<defs>
<linearGradient id="paint0_linear_677_2956" x1="0" y1="0.185547" x2="43.5554" y2="55.8914" gradientUnits="userSpaceOnUse">
<stop stop-color="#0ABD92"/>
<stop offset="1" stop-color="#009DB8"/>
</linearGradient>
</defs>
</svg>
