<svg width="25" height="29" viewBox="0 0 25 29" fill="none" xmlns="http://www.w3.org/2000/svg">
<g opacity="0.6">
<path fill-rule="evenodd" clip-rule="evenodd" d="M11.9834 0.331117C11.7758 0.442482 11.6545 0.55675 11.5375 0.7509C11.3813 1.01048 11.3764 1.03944 11.3579 1.81626L11.339 2.61482L10.8779 2.70785C7.50145 3.38896 4.91877 6.36709 4.57696 9.97338C4.54955 10.2624 4.52641 11.4351 4.52556 12.5795C4.52385 14.8238 4.49191 15.2076 4.22955 16.14C4.02729 16.8588 3.71209 17.5586 3.30165 18.2002C2.89233 18.8401 2.56097 19.2393 1.92566 19.8576C1.26688 20.4988 1.02863 21.1162 1.16514 21.8284C1.33466 22.7131 1.9391 23.3346 2.79133 23.5002C3.02479 23.5456 5.70686 23.5581 12.7097 23.5462L22.3082 23.5299L22.6146 23.4028C23.0424 23.2254 23.4637 22.8143 23.68 22.3633C23.8382 22.0332 23.8546 21.9528 23.8543 21.5052C23.8539 20.7592 23.7139 20.4989 22.8081 19.5603C21.6062 18.3148 20.9687 17.1363 20.6224 15.5196C20.5188 15.0358 20.5051 14.7497 20.4685 12.3057C20.4248 9.38961 20.4085 9.22114 20.0659 8.14034C19.2015 5.41287 16.8781 3.28406 14.1301 2.70177L13.6696 2.6042L13.6429 1.8155C13.613 0.929939 13.5519 0.727631 13.233 0.457758C12.8641 0.145507 12.4144 0.0999538 11.9834 0.331117ZM4.55104 1.13531C4.27706 1.23332 3.5182 2.03932 2.87958 2.91048C1.12813 5.29986 0.144027 8.09243 0.0125284 11.0464C-0.0275184 11.9457 0.0189808 12.1877 0.29131 12.4972C0.801734 13.0773 1.71615 12.9799 2.10179 12.3042C2.23329 12.0738 2.24822 11.9847 2.2896 11.1826C2.38254 9.38151 2.74393 7.89861 3.45688 6.39249C3.98628 5.27402 4.54881 4.42394 5.41666 3.43063C5.98964 2.77475 6.07842 2.6151 6.07837 2.24021C6.07837 1.88427 6.00313 1.67851 5.78759 1.44444C5.45623 1.08467 5.00665 0.972263 4.55104 1.13531ZM19.6492 1.13438C19.2259 1.28933 18.9254 1.73852 18.9232 2.2194C18.9215 2.59593 19.0234 2.7972 19.4605 3.28083C21.5321 5.57324 22.5688 8.12468 22.738 11.3475C22.7769 12.0885 22.841 12.2945 23.1165 12.5629C23.6734 13.1056 24.5407 12.9283 24.9069 12.1967C25.009 11.9928 25.0142 11.9156 24.9836 11.0469C24.8915 8.42762 24.0964 5.89551 22.6759 3.69804C21.9353 2.55219 20.9027 1.34907 20.4951 1.15705C20.243 1.03824 19.9345 1.02997 19.6492 1.13438ZM8.39533 24.9945C8.52619 25.4699 8.92473 26.2444 9.2393 26.6346C9.76412 27.2855 10.6314 27.8515 11.4566 28.0816C11.9867 28.2294 13.0618 28.2177 13.6055 28.0582C15.0417 27.637 16.1425 26.5478 16.5697 25.1256C16.6317 24.9191 16.6824 24.7405 16.6824 24.7287C16.6824 24.7168 14.8 24.707 12.4993 24.707H8.31619L8.39533 24.9945Z" fill="url(#paint0_linear_677_2962)"/>
<path fill-rule="evenodd" clip-rule="evenodd" d="M11.9834 0.331117C11.7758 0.442482 11.6545 0.55675 11.5375 0.7509C11.3813 1.01048 11.3764 1.03944 11.3579 1.81626L11.339 2.61482L10.8779 2.70785C7.50145 3.38896 4.91877 6.36709 4.57696 9.97338C4.54955 10.2624 4.52641 11.4351 4.52556 12.5795C4.52385 14.8238 4.49191 15.2076 4.22955 16.14C4.02729 16.8588 3.71209 17.5586 3.30165 18.2002C2.89233 18.8401 2.56097 19.2393 1.92566 19.8576C1.26688 20.4988 1.02863 21.1162 1.16514 21.8284C1.33466 22.7131 1.9391 23.3346 2.79133 23.5002C3.02479 23.5456 5.70686 23.5581 12.7097 23.5462L22.3082 23.5299L22.6146 23.4028C23.0424 23.2254 23.4637 22.8143 23.68 22.3633C23.8382 22.0332 23.8546 21.9528 23.8543 21.5052C23.8539 20.7592 23.7139 20.4989 22.8081 19.5603C21.6062 18.3148 20.9687 17.1363 20.6224 15.5196C20.5188 15.0358 20.5051 14.7497 20.4685 12.3057C20.4248 9.38961 20.4085 9.22114 20.0659 8.14034C19.2015 5.41287 16.8781 3.28406 14.1301 2.70177L13.6696 2.6042L13.6429 1.8155C13.613 0.929939 13.5519 0.727631 13.233 0.457758C12.8641 0.145507 12.4144 0.0999538 11.9834 0.331117ZM4.55104 1.13531C4.27706 1.23332 3.5182 2.03932 2.87958 2.91048C1.12813 5.29986 0.144027 8.09243 0.0125284 11.0464C-0.0275184 11.9457 0.0189808 12.1877 0.29131 12.4972C0.801734 13.0773 1.71615 12.9799 2.10179 12.3042C2.23329 12.0738 2.24822 11.9847 2.2896 11.1826C2.38254 9.38151 2.74393 7.89861 3.45688 6.39249C3.98628 5.27402 4.54881 4.42394 5.41666 3.43063C5.98964 2.77475 6.07842 2.6151 6.07837 2.24021C6.07837 1.88427 6.00313 1.67851 5.78759 1.44444C5.45623 1.08467 5.00665 0.972263 4.55104 1.13531ZM19.6492 1.13438C19.2259 1.28933 18.9254 1.73852 18.9232 2.2194C18.9215 2.59593 19.0234 2.7972 19.4605 3.28083C21.5321 5.57324 22.5688 8.12468 22.738 11.3475C22.7769 12.0885 22.841 12.2945 23.1165 12.5629C23.6734 13.1056 24.5407 12.9283 24.9069 12.1967C25.009 11.9928 25.0142 11.9156 24.9836 11.0469C24.8915 8.42762 24.0964 5.89551 22.6759 3.69804C21.9353 2.55219 20.9027 1.34907 20.4951 1.15705C20.243 1.03824 19.9345 1.02997 19.6492 1.13438ZM8.39533 24.9945C8.52619 25.4699 8.92473 26.2444 9.2393 26.6346C9.76412 27.2855 10.6314 27.8515 11.4566 28.0816C11.9867 28.2294 13.0618 28.2177 13.6055 28.0582C15.0417 27.637 16.1425 26.5478 16.5697 25.1256C16.6317 24.9191 16.6824 24.7405 16.6824 24.7287C16.6824 24.7168 14.8 24.707 12.4993 24.707H8.31619L8.39533 24.9945Z" fill="white"/>
</g>
<defs>
<linearGradient id="paint0_linear_677_2962" x1="0" y1="0.185547" x2="28.3932" y2="25.6609" gradientUnits="userSpaceOnUse">
<stop stop-color="#0ABD92"/>
<stop offset="1" stop-color="#009DB8"/>
</linearGradient>
</defs>
</svg>
