<svg width="37" height="40" viewBox="0 0 37 40" fill="none" xmlns="http://www.w3.org/2000/svg">
<path fill-rule="evenodd" clip-rule="evenodd" d="M12.6664 7.66042V15.0298L8.22005 10.5742L3.77374 6.1187L2.38687 7.50861L1 8.89851L6.43393 14.3447L11.8679 19.791L6.43393 25.2373L1 30.6835L2.38687 32.0734L3.77374 33.4633L8.22005 29.0078L12.6664 24.5522V31.9216V39.291H13.6357H14.6049L20.1471 33.7363L25.6893 28.1815L21.572 24.0135C19.3075 21.7211 17.4547 19.821 17.4547 19.791C17.4547 19.7611 19.3075 17.861 21.572 15.5686L25.6893 11.4005L20.1471 5.84577L14.6049 0.291016H13.6357H12.6664V7.66042ZM18.443 9.6223L20.2281 11.4125L18.3854 13.2593L16.5426 15.1061V11.469C16.5426 9.46866 16.5686 7.83203 16.6002 7.83203C16.6319 7.83203 17.4612 8.63762 18.443 9.6223ZM31.9518 10.7084C31.2939 11.3687 30.7556 11.934 30.7556 11.9647C30.7556 11.9954 30.9134 12.3721 31.1063 12.8018C31.8013 14.3501 32.2919 16.1183 32.5067 17.8486C32.6289 18.8331 32.6093 20.9656 32.4684 22.0229C32.2557 23.6182 31.8147 25.1874 31.1645 26.6616C30.9742 27.0932 30.8031 27.4977 30.7842 27.5605C30.7627 27.6321 31.1757 28.1001 31.8914 28.8149C32.9849 29.9072 33.0377 29.9488 33.1493 29.8052C33.4238 29.4519 34.6517 26.8374 34.9361 26.0006C35.695 23.7673 36 21.9273 36 19.5823C36 16.7313 35.4778 14.3195 34.2722 11.6025C33.9954 10.9788 33.2159 9.50781 33.1622 9.50781C33.1544 9.50781 32.6097 10.0481 31.9518 10.7084ZM25.1294 17.5458L22.8897 19.7913L25.1381 22.0446L27.3864 24.2979L27.5622 23.8154C28.0813 22.3911 28.3348 20.3417 28.1867 18.7666C28.0699 17.5254 27.6361 15.5979 27.4188 15.3557C27.3915 15.3251 26.3612 16.3107 25.1294 17.5458ZM18.443 29.9597C17.4612 30.9444 16.6319 31.75 16.6002 31.75C16.5686 31.75 16.5426 30.1134 16.5426 28.113V24.476L18.3854 26.3228L20.2281 28.1695L18.443 29.9597Z" fill="url(#paint0_linear_677_2940)" stroke="white" stroke-width="0.2"/>
<defs>
<linearGradient id="paint0_linear_677_2940" x1="1" y1="0.291016" x2="40.5691" y2="35.9758" gradientUnits="userSpaceOnUse">
<stop stop-color="#0ABD92"/>
<stop offset="1" stop-color="#009DB8"/>
</linearGradient>
</defs>
</svg>
