<svg width="67" height="53" viewBox="0 0 67 53" fill="none" xmlns="http://www.w3.org/2000/svg">
<path fill-rule="evenodd" clip-rule="evenodd" d="M23.9515 0.182743C23.3565 0.28916 22.5475 0.566775 21.8793 0.893783C20.2142 1.70904 19.4849 2.50116 17.1038 6.08144L15.0722 9.13624L10.9039 9.20102C6.27334 9.27317 5.90937 9.32618 4.24907 10.172C2.95693 10.8301 1.52121 12.2788 0.873111 13.5785C-0.033733 15.3969 0.000164006 14.7181 0.000164006 31.0824C0.000164006 47.434 -0.0315081 46.7925 0.864997 48.603C1.54032 49.9667 3.08938 51.493 4.44539 52.1308C6.41011 53.0551 4.54773 52.9994 33.5 52.9994C62.4523 52.9994 60.5899 53.0551 62.5546 52.1308C63.9106 51.493 65.4597 49.9667 66.135 48.603C67.0315 46.7925 66.9998 47.434 66.9998 31.0824C66.9998 14.7181 67.0337 15.3969 66.1269 13.5785C65.4788 12.2788 64.0431 10.8301 62.7509 10.172C61.0906 9.32618 60.7267 9.27317 56.0961 9.20102L51.9278 9.13624L49.8962 6.08144C47.5171 2.50426 46.7852 1.70865 45.126 0.896369C43.3129 0.00870075 43.1065 -0.00707427 33.4346 0.00107186C26.8901 0.00663191 24.7023 0.0485261 23.9515 0.182743ZM36.6947 11.1862C43.5745 12.3219 49.2831 17.6224 51.0205 24.4879C53.4109 33.9343 47.4041 43.67 37.7753 45.955C27.1978 48.4651 16.8668 41.3619 15.5801 30.6945C14.7015 23.4104 18.496 16.3581 25.1406 12.9251C28.6828 11.0951 32.5845 10.5078 36.6947 11.1862ZM59.0223 16.0509C60.7471 17.2107 60.3882 19.7854 58.434 20.2716C57.7089 20.452 54.928 20.4575 54.2807 20.2799C53.3862 20.0345 52.4875 18.9721 52.4808 18.1521C52.4766 17.6553 52.7517 16.9285 53.0973 16.5227C53.6706 15.8495 54.0167 15.7705 56.4168 15.765C58.4591 15.7602 58.6156 15.7774 59.0223 16.0509ZM32.4887 18.8784C29.1751 19.1836 26.1742 21.1978 24.6073 24.1682C22.023 29.0677 23.9913 35.0582 28.9848 37.4915C31.8042 38.8653 35.1451 38.8837 37.9175 37.5405C41.6831 35.716 44 31.5152 43.4584 27.4944C42.7294 22.082 38.0039 18.3703 32.4887 18.8784Z" fill="url(#paint0_linear_677_2137)"/>
<defs>
<linearGradient id="paint0_linear_677_2137" x1="0" y1="0" x2="52.549" y2="66.7555" gradientUnits="userSpaceOnUse">
<stop stop-color="#0ABD92"/>
<stop offset="1" stop-color="#009DB8"/>
</linearGradient>
</defs>
</svg>
