<svg width="35" height="36" viewBox="0 0 35 36" fill="none" xmlns="http://www.w3.org/2000/svg">
<path fill-rule="evenodd" clip-rule="evenodd" d="M19.6904 0.0813933C19.1472 0.218079 18.5513 0.489266 18.0582 0.824179L17.6439 1.10552L17.1738 0.929495C16.6018 0.715267 16.3719 0.708711 16.128 0.899606C15.99 1.0076 15.9413 1.10989 15.9413 1.2919C15.9413 1.63866 16.0364 1.77703 16.3643 1.90759C16.5213 1.97004 16.6498 2.04533 16.6498 2.07487C16.6498 2.1044 14.8782 3.889 12.7129 6.04066C10.3941 8.3448 8.71642 10.0666 8.63111 10.2297C8.55148 10.382 8.47007 10.6845 8.4503 10.9019C8.42005 11.2336 8.45059 11.3874 8.64018 11.8586C9.33919 13.5961 10.7939 15.4136 12.4042 16.5616C12.7715 16.8234 13.4561 17.2295 13.9256 17.4641C14.9314 17.9665 15.342 18.0444 15.9493 17.8482C16.3091 17.7319 16.5627 17.4949 20.3779 13.709C24.2833 9.83361 24.4265 9.70031 24.475 9.89353C24.5851 10.3324 24.949 10.5383 25.3328 10.3787C25.7237 10.2162 25.7685 9.99349 25.5475 9.3114L25.3626 8.74055L25.6755 8.27628C26.6984 6.7585 26.7505 4.75966 25.809 3.15151C25.4773 2.58495 24.0057 1.08296 23.4236 0.716888C23.194 0.572448 22.7477 0.358079 22.4317 0.240496C21.9254 0.0520682 21.7522 0.024012 20.9717 0.00427394C20.3736 -0.0108821 19.9576 0.014143 19.6904 0.0813933ZM21.8498 1.32024C22.1072 1.39933 22.3178 1.48794 22.3178 1.51705C22.3178 1.54617 22.1738 1.71063 21.9978 1.88249L21.6778 2.19499L21.1659 1.68574L20.654 1.17643H21.0179C21.2181 1.17643 21.5924 1.24115 21.8498 1.32024ZM20.1226 2.3445C20.5701 2.79305 21.0295 3.2091 21.1433 3.26902C21.3917 3.39964 21.9471 3.41163 22.1832 3.29151C22.2767 3.24392 22.5843 2.97943 22.8667 2.70373L23.3801 2.20253L23.8039 2.61978L24.2277 3.03703L23.7325 3.54514C22.7082 4.59612 22.7567 4.95387 24.106 6.30233L24.9677 7.16341L24.639 7.64198C24.2481 8.21122 23.8993 8.56227 23.8178 8.46844C23.786 8.43193 23.5425 8.07256 23.2766 7.6699C21.9889 5.71929 19.9913 3.81802 18.1165 2.75851L17.8385 2.60138L18.1475 2.30122C18.4646 1.99324 19.1085 1.53884 19.237 1.53249C19.2766 1.53052 19.6751 1.89588 20.1226 2.3445ZM17.684 3.89598C19.7681 5.19531 21.4395 6.87629 22.6144 8.85418L22.9667 9.44745L22.0872 10.3226L21.2077 11.1977L20.8751 10.6105C19.69 8.51814 17.574 6.43888 15.6427 5.46889L15.212 5.25255L16.0892 4.37766C16.5717 3.89641 16.9861 3.5027 17.0099 3.5027C17.0337 3.5027 17.3371 3.67964 17.684 3.89598ZM25.1859 4.85476C25.2439 5.09979 25.2919 5.41053 25.2925 5.54524L25.2935 5.7902L24.7625 5.26538L24.2314 4.74049L24.5654 4.40311L24.8994 4.06573L24.9899 4.23752C25.0396 4.33198 25.1278 4.60973 25.1859 4.85476ZM4.77332 5.80035C2.01115 8.64496 1.95709 13.1576 4.64969 16.1131C5.25843 16.7813 5.67765 16.8912 5.97969 16.4622C6.19224 16.1603 6.12528 15.9474 5.65654 15.4351C4.80719 14.5067 4.23812 13.4378 3.99595 12.316C3.82988 11.5468 3.86183 10.2826 4.06779 9.47572C4.35105 8.36567 4.82157 7.52687 5.6678 6.62301C6.01752 6.24946 6.09312 6.12547 6.09312 5.92513C6.09312 5.58866 5.83203 5.33552 5.48501 5.33552C5.25716 5.33552 5.16852 5.3934 4.77332 5.80035ZM15.6193 6.83153C16.4947 7.37178 17.2622 8.00016 18.0531 8.82436C18.8083 9.61142 19.7076 10.87 20.0828 11.6653L20.2921 12.1089L18.6945 13.6984L17.097 15.2879L16.5999 15.0388C14.5855 14.0295 12.507 12.0037 11.4789 10.0475L11.1056 9.33727L12.7209 7.72904L14.336 6.12081L14.6955 6.30205C14.8931 6.40173 15.3089 6.64 15.6193 6.83153ZM6.48109 7.5416C5.89438 8.14657 5.44987 8.93842 5.23788 9.75635C5.05679 10.4552 5.04411 11.5443 5.20919 12.2195C5.37711 12.9062 5.80603 13.7527 6.26521 14.304C6.83832 14.992 7.22275 15.1476 7.60683 14.8469C7.75292 14.7326 7.79352 14.6395 7.79352 14.4188C7.79352 14.1744 7.74265 14.0831 7.41341 13.7366C6.64851 12.9315 6.30567 12.1048 6.30567 11.0655C6.30567 9.96995 6.62719 9.15096 7.38316 8.32104C7.71984 7.95138 7.79352 7.82583 7.79352 7.62196C7.79352 7.2934 7.53371 7.02736 7.21276 7.02736C7.0163 7.02736 6.9018 7.10786 6.48109 7.5416ZM10.5412 10.8184C11.0991 11.8192 11.7701 12.6803 12.7508 13.6537C13.2781 14.1771 13.9705 14.7895 14.2896 15.0145C14.791 15.3682 15.9054 16.0606 16.1184 16.1508C16.2218 16.1946 15.696 16.6727 15.4871 16.7249C15.258 16.782 14.8158 16.6126 14.0399 16.1701C12.3163 15.1871 10.869 13.6732 10.0245 11.9696C9.56726 11.0475 9.55493 10.9233 9.88403 10.5608C10.0293 10.4009 10.1683 10.271 10.1929 10.2721C10.2177 10.2732 10.3744 10.5191 10.5412 10.8184ZM25.0101 14.9952C24.7179 15.0243 24.3193 15.0882 24.1245 15.1372C22.3119 15.593 20.8387 17.2241 20.5855 19.0559L20.5364 19.4118L20.0371 19.6521C19.494 19.9135 19.3421 20.0683 19.3421 20.3605C19.3421 20.6477 19.4096 20.7682 19.636 20.8847C19.8368 20.9879 20.0274 20.9696 20.4226 20.8088C20.54 20.7611 20.5467 21.055 20.5497 26.3878C20.553 32.4578 20.5418 32.2718 20.934 32.7835C21.2802 33.235 22.5086 33.7167 24.0536 34.0067C24.5171 34.0937 25.0591 34.1257 26.0374 34.1238C27.5319 34.1208 28.2592 34.0119 29.5683 33.5949C30.4173 33.3246 30.8536 33.044 31.1366 32.5867L31.3512 32.2398L31.3701 26.4996C31.388 21.0867 31.3961 20.7622 31.5118 20.809C31.8847 20.9598 32.0215 20.9684 32.2478 20.8552C32.5241 20.717 32.6393 20.4147 32.5272 20.1218C32.4728 19.9797 32.3126 19.8591 31.9249 19.6682L31.3966 19.4081L31.3178 18.9575C31.147 17.9817 30.6884 17.1076 29.9749 16.3976C29.1269 15.5538 28.1532 15.1224 26.8123 14.9958C25.9681 14.9162 25.8046 14.9161 25.0101 14.9952ZM10.0727 16.0658C9.87992 16.1613 9.49393 16.8805 9.49393 17.1443C9.49393 17.591 10.1681 17.847 10.4931 17.5236C10.7274 17.2905 10.9941 16.6527 10.9427 16.4488C10.8535 16.0953 10.4087 15.8995 10.0727 16.0658ZM26.2973 16.1652L26.5571 16.208L26.5807 16.9985C26.6028 17.7381 26.6171 17.8057 26.8028 18.0477C27.1536 18.505 27.3041 18.5473 28.7253 18.5874L29.9961 18.6235L30.0878 18.9759C30.1382 19.1698 30.1801 19.5555 30.1808 19.8331L30.1822 20.3378L29.8102 20.2382C28.6099 19.9172 27.772 19.826 26.002 19.8239C24.1931 19.8218 23.4656 19.8961 22.2554 20.2069L21.7325 20.3412L21.7687 19.6586C21.7886 19.2831 21.8397 18.8887 21.8824 18.7821L21.96 18.5882L23.1131 18.5851C24.633 18.581 24.9425 18.4733 25.2311 17.848C25.3285 17.6372 25.3617 17.394 25.3628 16.8837C25.3643 16.2326 25.3717 16.1998 25.5238 16.1707C25.7815 16.1213 26.02 16.1196 26.2973 16.1652ZM24.1455 16.8788L24.1245 17.3546L23.4337 17.3747C23.0211 17.3868 22.7429 17.3674 22.7429 17.3266C22.7429 17.1757 23.8646 16.4205 24.11 16.4062C24.141 16.4044 24.1569 16.617 24.1455 16.8788ZM28.6731 16.8696C29.311 17.3035 29.3046 17.3193 28.4904 17.3193H27.7733V16.8602V16.401L28.039 16.51C28.1851 16.5699 28.4704 16.7318 28.6731 16.8696ZM0.154028 18.7513L0 18.9145V27.0592V35.2037L0.15998 35.4432C0.247976 35.575 0.461943 35.7541 0.635526 35.8414L0.951093 36H17.5H34.0489L34.3645 35.8414C34.5381 35.7541 34.752 35.575 34.84 35.4432L35 35.2037V27.0492V18.8948L34.8361 18.7415C34.6023 18.523 34.2238 18.536 34.0027 18.7701L33.831 18.952L33.8123 26.8768L33.7938 34.8016H25.9669H18.1401L18.1211 26.8768L18.1022 18.952L17.9305 18.7701C17.8066 18.639 17.6865 18.5882 17.5 18.5882C17.3135 18.5882 17.1934 18.639 17.0695 18.7701L16.8978 18.952L16.8789 26.8768L16.8599 34.8016H13.2478H9.63563V34.3826C9.63563 34.0473 9.60382 33.9283 9.47621 33.7873C9.23369 33.5191 8.86825 33.5144 8.60511 33.7763C8.45881 33.9218 8.43117 34.017 8.43117 34.3755V34.8016H4.81781H1.20445V26.9815C1.20445 22.4152 1.17746 19.0906 1.13955 18.9914C1.03285 18.7123 0.858846 18.5882 0.574099 18.5882C0.387692 18.5882 0.262004 18.637 0.154028 18.7513ZM8.90268 18.9511C8.74653 19.0867 8.69261 19.2261 8.60695 19.7161C8.46483 20.5292 8.47319 20.7885 8.6489 21.0107C8.87413 21.2956 9.41365 21.2657 9.57888 20.959C9.66489 20.7994 9.84145 19.7604 9.8457 19.3891C9.84903 19.0931 9.65582 18.8748 9.34691 18.8256C9.14577 18.7936 9.0543 18.8194 8.90268 18.9511ZM27.8575 21.088C28.274 21.1432 28.9675 21.2722 29.3985 21.3748L30.1822 21.5612V22.7887C30.1822 23.4638 30.1691 24.0162 30.1531 24.0162C30.1371 24.0162 29.8262 23.9378 29.4623 23.842C28.1348 23.4925 27.5495 23.4222 25.9666 23.4222C24.3837 23.4222 23.7984 23.4925 22.4709 23.842C22.107 23.9378 21.7961 24.0162 21.7801 24.0162C21.7641 24.0162 21.751 23.4661 21.751 22.7937V21.5713L22.0167 21.4933C22.409 21.3783 23.6414 21.1368 24.2022 21.0653C24.9856 20.9652 27.0264 20.9779 27.8575 21.088ZM8.81072 22.5337C8.496 22.6632 8.43117 22.8658 8.43117 23.72C8.43117 24.5108 8.43372 24.523 8.63827 24.7265C8.76311 24.8507 8.92004 24.9326 9.0334 24.9326C9.14676 24.9326 9.30369 24.8507 9.42853 24.7265C9.63343 24.5226 9.63563 24.512 9.63563 23.7083C9.63563 22.9657 9.62195 22.881 9.47621 22.7186C9.29399 22.5157 9.03163 22.4428 8.81072 22.5337ZM27.6156 24.6857C28.3508 24.7896 28.8318 24.8969 29.7039 25.1515L30.1822 25.291V27.5768V29.8626L29.5837 30.0442C28.2589 30.4463 27.6474 30.5283 25.9666 30.5293C24.2929 30.5304 23.7161 30.4523 22.3355 30.038L21.751 29.8626V27.5821V25.3016L22.3355 25.1226C24.0146 24.608 25.9402 24.4487 27.6156 24.6857ZM8.60511 26.3745C8.44131 26.5374 8.43117 26.5933 8.43117 27.3296C8.43117 28.3761 8.54439 28.5982 9.07782 28.5982C9.20635 28.5982 9.35534 28.531 9.46169 28.4252C9.6272 28.2606 9.63563 28.2108 9.63563 27.3998C9.63563 26.5889 9.6272 26.5391 9.46169 26.3745C9.22512 26.1391 8.84168 26.1391 8.60511 26.3745ZM8.63827 30.0732C8.43337 30.2771 8.43117 30.2877 8.43117 31.0914C8.43117 31.8356 8.44471 31.9192 8.593 32.0907C8.71713 32.2343 8.81979 32.278 9.0334 32.278C9.24701 32.278 9.34968 32.2343 9.47381 32.0907C9.62209 31.9192 9.63563 31.8356 9.63563 31.0914C9.63563 30.2877 9.63343 30.2771 9.42853 30.0732C9.30369 29.9489 9.14676 29.8671 9.0334 29.8671C8.92004 29.8671 8.76311 29.9489 8.63827 30.0732ZM22.7674 31.3887C25.0298 31.9693 27.5475 31.8922 30.0228 31.1663C30.1748 31.1217 30.1822 31.1379 30.1822 31.5187C30.1822 32.0561 30.0466 32.1802 29.1529 32.4608C27.9152 32.8495 27.3682 32.9311 26.002 32.9311C25.093 32.9311 24.6015 32.898 24.1599 32.8069C23.2452 32.6182 22.1894 32.2659 21.958 32.0721C21.7752 31.9192 21.751 31.8533 21.751 31.5092C21.751 31.1387 21.7589 31.1217 21.9104 31.1646C21.9981 31.1894 22.3837 31.2902 22.7674 31.3887Z" fill="url(#paint0_linear_677_3385)"/>
<defs>
<linearGradient id="paint0_linear_677_3385" x1="0" y1="0" x2="36.7105" y2="35.8657" gradientUnits="userSpaceOnUse">
<stop stop-color="#0ABD92"/>
<stop offset="1" stop-color="#009DB8"/>
</linearGradient>
</defs>
</svg>
