<svg width="54" height="44" viewBox="0 0 54 44" fill="none" xmlns="http://www.w3.org/2000/svg">
<path fill-rule="evenodd" clip-rule="evenodd" d="M15.6733 4.30661C15.5829 4.40952 15.0188 5.3945 14.4197 6.49552C13.4938 8.19745 13.3412 8.54572 13.4013 8.81972C13.5396 9.44969 14.3861 9.69174 14.8095 9.22239C15.2101 8.77826 17.0859 5.20866 17.0859 4.89042C17.0859 4.25158 16.085 3.83791 15.6733 4.30661ZM36.9668 4.36689C36.8391 4.50292 36.7346 4.74551 36.7346 4.9058C36.7346 5.07497 37.2108 6.06689 37.8693 7.26922C39.0841 9.48763 39.2718 9.69612 39.8544 9.47438C40.1772 9.35159 40.4722 8.96891 40.4722 8.67289C40.4722 8.45767 38.4382 4.63789 38.1472 4.30661C37.902 4.02748 37.2544 4.06061 36.9668 4.36689ZM11.4618 12.0543C11.0839 12.4765 8.22258 17.8792 8.22258 18.1704C8.22258 18.3239 8.34037 18.5671 8.48474 18.7114C8.82165 19.0487 9.29611 19.0555 9.61134 18.7279C9.94537 18.3806 12.9185 12.8767 12.92 12.6031C12.9207 12.4788 12.8216 12.2503 12.6998 12.0954C12.4066 11.7224 11.7776 11.7014 11.4618 12.0543ZM41.1207 12.0954C40.999 12.2503 40.8993 12.476 40.8993 12.5969C40.8993 12.8022 41.5861 14.1278 43.3837 17.392C44.1823 18.842 44.4454 19.0819 45.0039 18.8695C45.3018 18.7561 45.5979 18.3661 45.5979 18.0869C45.5979 17.8553 42.6721 12.4092 42.3571 12.0543C42.0435 11.7013 41.414 11.7223 41.1207 12.0954ZM22.6388 17.0076C19.0071 17.2038 17.4608 17.5787 16.2085 18.5662C15.5999 19.0461 14.8377 20.2813 14.1554 21.8934L13.5367 23.3552H12.1562C10.8329 23.3552 10.7649 23.3661 10.5137 23.6176C10.1956 23.9358 10.1714 24.408 10.4553 24.7593C10.6383 24.986 10.7674 25.0171 11.7238 25.0651L12.7887 25.1185L12.2046 26.4543C11.1333 28.9042 11.1772 28.5444 11.1304 35.2707C11.102 39.3559 11.1255 41.269 11.2074 41.5441C11.3666 42.0796 11.8078 42.5804 12.3295 42.8174C12.6971 42.9846 13.0505 43.014 14.7133 43.016C16.7949 43.0185 17.1746 42.9471 17.7125 42.4522C18.1995 42.0042 18.3624 41.4583 18.365 40.2666L18.3673 39.1712H35.4532L35.4556 40.2666C35.4581 41.4583 35.6211 42.0042 36.108 42.4522C36.6459 42.9471 37.0256 43.0185 39.1072 43.016C40.77 43.014 41.1235 42.9846 41.491 42.8174C42.0127 42.5804 42.4539 42.0796 42.6131 41.5441C42.6951 41.269 42.7185 39.3559 42.6901 35.2707C42.6434 28.5374 42.681 28.8461 41.6102 26.4256L41.032 25.1185L42.0967 25.0651C43.0531 25.0171 43.1822 24.986 43.3652 24.7593C43.6491 24.408 43.625 23.9358 43.3068 23.6176C43.0557 23.3661 42.9876 23.3552 41.6643 23.3552H40.2838L39.6651 21.8934C38.2056 18.4452 37.0183 17.5511 33.3709 17.1535C32.3482 17.042 24.0814 16.9296 22.6388 17.0076ZM33.3175 18.8621C35.7947 19.1519 36.8357 19.7907 37.5748 21.4744L37.8046 21.9981L36.3998 21.9239C31.432 21.6614 22.3449 21.6608 17.4329 21.9225C16.6548 21.9641 16.018 21.9654 16.018 21.9255C16.018 21.8856 16.1636 21.5644 16.3415 21.2118C17.4857 18.9434 18.901 18.6346 27.8179 18.7071C30.2847 18.727 32.7595 18.7969 33.3175 18.8621ZM6.26529 21.6721C5.90883 22.0011 0 32.9229 0 33.2528C0 33.8758 0.889213 34.2668 1.36858 33.8547C1.48829 33.7519 2.96472 31.1322 4.6496 28.0332C7.90927 22.0381 7.86495 22.1424 7.36562 21.6427C7.08413 21.361 6.5881 21.3743 6.26529 21.6721ZM46.4549 21.6427C45.9556 22.1424 45.9113 22.0381 49.1709 28.0332C50.8558 31.1322 52.3322 33.7519 52.4519 33.8547C52.94 34.2741 53.8205 33.874 53.8205 33.2327C53.8205 32.8867 47.931 22.0214 47.5541 21.6721C47.2326 21.3742 46.7365 21.3609 46.4549 21.6427ZM34.4387 23.5676C35.6721 23.6229 37.1191 23.6992 37.6542 23.7371L38.6271 23.8059L38.8642 24.3783C38.9946 24.6931 39.0705 25.0004 39.0329 25.0613C38.9953 25.1221 38.7589 25.1719 38.5074 25.1719C37.8603 25.1719 36.4955 25.5418 35.8543 25.8909C34.703 26.5178 33.7479 27.6929 33.7461 28.4847C33.7449 28.948 34.1309 29.4288 34.7465 29.7309C35.3027 30.0039 35.3198 30.0252 35.2188 30.3154C35.078 30.7196 34.4834 31.2259 33.9878 31.3637C33.4158 31.5226 20.3857 31.5171 19.8089 31.3577C19.3561 31.2325 18.6536 30.5915 18.5548 30.2132C18.5077 30.033 18.6007 29.944 19.0823 29.7081C20.3688 29.0783 20.4053 28.045 19.1842 26.8264C18.2173 25.8615 16.6909 25.1789 15.4841 25.1716C14.7228 25.1669 14.6648 25.0822 14.9511 24.3909L15.1954 23.8011L16.2828 23.7269C20.0103 23.4727 30.3131 23.3823 34.4387 23.5676ZM16.4745 27.0958C17.147 27.3037 18.0362 27.8597 18.1242 28.1273C18.1759 28.2844 17.6988 28.4381 16.5519 28.6337C15.2773 28.8512 13.9646 28.9514 13.5101 28.8661C13.0657 28.7827 13.0638 28.8153 13.59 27.5348L13.9145 26.7452L14.84 26.8109C15.349 26.847 16.0845 26.9753 16.4745 27.0958ZM40.1755 27.3894C40.6283 28.4336 40.7174 28.7025 40.6367 28.782C40.3897 29.0256 37.0514 28.7297 35.8979 28.362L35.5417 28.2484L35.8413 27.9355C36.4577 27.2915 37.9121 26.8009 39.2562 26.7834L39.9091 26.7749L40.1755 27.3894ZM17.0837 31.0246C17.3807 31.7115 18.0329 32.4251 18.6534 32.7418C19.5029 33.1755 20.0295 33.2012 27.3399 33.1666L34.3367 33.1334L35.0507 32.7816C35.8732 32.3762 36.388 31.8327 36.7516 30.9857L37.0016 30.4034L37.8559 30.486C38.3258 30.5314 39.2288 30.5681 39.8624 30.5675L41.0148 30.5664L40.9527 37.053L40.7006 37.2572C40.4554 37.4558 40.0771 37.4614 26.8528 37.4614H13.257L13.0358 37.1798C12.8231 36.9093 12.8144 36.7736 12.8144 33.7168V30.5354L13.642 30.5841C14.0971 30.6109 14.854 30.5887 15.3239 30.5347C16.8771 30.3565 16.7837 30.3305 17.0837 31.0246ZM14.9094 39.1712H16.6664L16.6053 41.2551H12.8678L12.8373 40.1468C12.81 39.1622 12.8259 39.0459 12.9794 39.1049C13.0744 39.1414 13.9429 39.1712 14.9094 39.1712ZM41.0061 40.0582C41.0061 40.6887 40.9592 41.0989 40.878 41.1803C40.6986 41.3598 37.4693 41.3598 37.2899 41.1803C37.2097 41.1 37.1618 40.7011 37.1618 40.1142V39.1762L39.0039 39.1443C40.0171 39.1268 40.8819 39.1015 40.926 39.0884C40.9701 39.0751 41.0061 39.5116 41.0061 40.0582Z" fill="#565656"/>
<path fill-rule="evenodd" clip-rule="evenodd" d="M24.9095 0.479981C23.363 0.564939 22.7045 0.727267 22.1713 1.15488C21.9121 1.3627 21.5875 1.89753 21.297 2.59562L21.0335 3.22859H20.4457C19.8822 3.22859 19.8532 3.23331 19.7462 3.34219C19.6108 3.48 19.6005 3.68444 19.7214 3.83658C19.7993 3.93473 19.8543 3.9482 20.2615 3.96897L20.715 3.99211L20.4663 4.57053C20.0101 5.63136 20.0288 5.47555 20.0088 8.38811C19.9967 10.1571 20.0067 10.9855 20.0416 11.1046C20.1094 11.3365 20.2973 11.5533 20.5195 11.656C20.676 11.7283 20.8265 11.7411 21.5346 11.7419C22.421 11.743 22.5827 11.7121 22.8117 11.4978C23.0191 11.3038 23.0885 11.0675 23.0896 10.5514L23.0906 10.0771H30.3663L30.3673 10.5514C30.3684 11.0675 30.4378 11.3038 30.6451 11.4978C30.8742 11.7121 31.0359 11.743 31.9223 11.7419C32.6304 11.7411 32.7809 11.7283 32.9374 11.656C33.1595 11.5533 33.3474 11.3365 33.4152 11.1046C33.4501 10.9855 33.4601 10.1571 33.448 8.38811C33.4281 5.47255 33.4441 5.60618 32.9882 4.55808L32.7419 3.99211L33.1953 3.96897C33.6026 3.9482 33.6576 3.93473 33.7355 3.83658C33.8564 3.68444 33.8461 3.48 33.7106 3.34219C33.6037 3.23331 33.5747 3.22859 33.0112 3.22859H32.4233L32.1599 2.59562C31.5384 1.1025 31.0328 0.715329 29.4796 0.543145C29.0441 0.494881 25.5238 0.446201 24.9095 0.479981ZM29.4568 1.28301C30.5117 1.40851 30.955 1.68509 31.2698 2.41418L31.3676 2.64092L30.7694 2.6088C28.654 2.49515 24.7844 2.49488 22.6927 2.6082C22.3613 2.6262 22.0902 2.62676 22.0902 2.6095C22.0902 2.59224 22.1521 2.45314 22.2279 2.30044C22.7151 1.31823 23.3178 1.1845 27.115 1.21587C28.1654 1.22452 29.2192 1.25479 29.4568 1.28301ZM29.9343 3.32054C30.4595 3.34451 31.0757 3.37755 31.3036 3.39393L31.7179 3.42373L31.8188 3.67157C31.8743 3.80789 31.9067 3.94098 31.8907 3.96735C31.8747 3.99368 31.774 4.01525 31.6669 4.01525C31.3913 4.01525 30.8102 4.1754 30.5371 4.32658C30.0469 4.59802 29.6401 5.10684 29.6394 5.44973C29.6389 5.65033 29.8032 5.85852 30.0654 5.98933C30.3022 6.10756 30.3095 6.11677 30.2665 6.24245C30.2065 6.41745 29.9533 6.6367 29.7423 6.69635C29.4987 6.76516 23.9501 6.7628 23.7045 6.69375C23.5116 6.63952 23.2125 6.36197 23.1704 6.19816C23.1504 6.12015 23.1899 6.0816 23.395 5.97947C23.9429 5.70674 23.9584 5.25931 23.4384 4.73166C23.0267 4.31385 22.3767 4.01826 21.8628 4.01511C21.5386 4.01307 21.5139 3.97638 21.6358 3.67703L21.7399 3.42165L22.2029 3.38953C23.7902 3.27945 28.1775 3.2403 29.9343 3.32054ZM22.2846 4.84831C22.5709 4.93831 22.9496 5.17908 22.987 5.29495C23.009 5.36297 22.8059 5.42951 22.3175 5.51424C21.7748 5.60841 21.2157 5.65181 21.0222 5.61488C20.833 5.57874 20.8321 5.59286 21.0562 5.0384L21.1944 4.69649L21.5885 4.72495C21.8053 4.74059 22.1185 4.79612 22.2846 4.84831ZM32.3772 4.97543C32.57 5.42757 32.608 5.54404 32.5736 5.57847C32.4684 5.68392 31.0469 5.55579 30.5557 5.39656L30.404 5.34737L30.5316 5.21188C30.7941 4.93304 31.4134 4.7206 31.9857 4.71301L32.2638 4.70935L32.3772 4.97543ZM22.544 6.54952C22.6704 6.84697 22.9481 7.15594 23.2124 7.29309C23.5741 7.48087 23.7984 7.49202 26.9114 7.47703L29.8909 7.46264L30.1949 7.31031C30.5451 7.13479 30.7644 6.89944 30.9192 6.53268L31.0257 6.28053L31.3895 6.3163C31.5895 6.33597 31.9741 6.35184 32.2439 6.35161L32.7346 6.3511L32.7082 9.15991L32.6008 9.2483C32.4964 9.33432 32.3353 9.33672 26.704 9.33672H20.9144L20.8202 9.21479C20.7296 9.09767 20.726 9.03891 20.726 7.71529V6.33768L21.0784 6.35878C21.2722 6.37039 21.5945 6.36077 21.7946 6.3374C22.456 6.26022 22.4162 6.24897 22.544 6.54952ZM21.618 10.0771H22.3663L22.3403 10.9794H20.7487L20.7357 10.4995C20.7241 10.0732 20.7309 10.0228 20.7962 10.0484C20.8367 10.0642 21.2065 10.0771 21.618 10.0771ZM32.7309 10.4612C32.7309 10.7342 32.711 10.9118 32.6763 10.947C32.6 11.0248 31.2248 11.0248 31.1484 10.947C31.1143 10.9123 31.0939 10.7396 31.0939 10.4854V10.0793L31.8783 10.0654C32.3097 10.0579 32.678 10.0469 32.6968 10.0412C32.7156 10.0355 32.7309 10.2245 32.7309 10.4612Z" fill="#565656"/>
</svg>
