<svg width="57" height="74" viewBox="0 0 57 74" fill="none" xmlns="http://www.w3.org/2000/svg">
<path fill-rule="evenodd" clip-rule="evenodd" d="M37.8711 0.160867L37.3706 0.296389L34.5211 5.23192L31.6716 10.1673L30.9728 9.76383C30.5884 9.54191 30.1589 9.34239 30.0186 9.32035C29.4861 9.23706 28.994 9.74103 28.1052 11.2806L27.2483 12.7647L26.2537 12.256C25.4388 11.8391 25.176 11.7697 24.7986 11.872L24.338 11.9968L13.2741 31.1601C4.19631 46.8833 2.14124 50.5164 1.82621 51.3989C1.06262 53.5377 0.715053 55.932 0.830011 58.2613C0.915042 59.9847 1.89883 63.483 2.73406 65.0324C6.40427 71.8405 13.9389 75.2296 21.3556 73.408C24.7381 72.5773 27.5214 70.9218 29.9965 68.2684C30.9272 67.2706 31.0928 66.9935 41.9705 48.2532C54.0264 27.4829 53.4803 28.5069 52.888 27.7776C52.7437 27.5996 52.2809 27.2551 51.8599 27.012L51.0944 26.5701L51.8613 25.2399C52.7281 23.7367 52.9981 22.9108 52.7524 22.5133C52.66 22.3636 52.2613 22.0548 51.8665 21.8268L51.1485 21.4123L53.9162 16.6186C55.785 13.3817 56.6965 11.6953 56.7232 11.426C56.7448 11.2067 56.6584 10.8808 56.5313 10.7017C56.3689 10.4732 53.6309 8.83519 47.3357 5.20067L38.3715 0.0251412L37.8711 0.160867ZM51.5189 16.0047L49.0847 20.2208L41.4101 15.7898L33.7354 11.3588L36.1695 7.14276L38.6037 2.92669L46.2784 7.35767L53.953 11.7886L51.5189 16.0047ZM41.5908 8.01637C41.1264 8.14211 41.0366 8.24503 40.3441 9.44447C39.4717 10.9555 39.4303 11.1159 39.7747 11.6558C40.1002 12.1665 40.6407 12.3298 41.2247 12.0942C41.592 11.946 41.7847 11.7153 42.33 10.7708C43.0651 9.49766 43.1798 8.98531 42.838 8.50378C42.4821 8.00274 42.1375 7.8681 41.5908 8.01637ZM46.6212 10.9207C46.1567 11.0465 46.0671 11.1492 45.3726 12.3522C44.696 13.5241 44.6338 13.6985 44.7226 14.1757C44.8573 14.8995 45.488 15.2636 46.1822 15.0184C46.6398 14.8567 46.7597 14.7156 47.4363 13.5437C48.1309 12.3408 48.1751 12.2118 48.0517 11.7466C47.9681 11.4306 47.7716 11.1602 47.5204 11.0152C47.2691 10.8701 46.9367 10.8351 46.6212 10.9207ZM49.5549 24.4705L49.0306 25.3785L39.1632 19.6816L29.2957 13.9846L29.82 13.0765L30.3443 12.1684L40.2117 17.8654L50.0792 23.5624L49.5549 24.4705ZM40.3105 46.3755C30.0272 64.274 29.0126 65.9446 27.5957 67.3147C22.6566 72.0908 15.182 72.8671 9.65347 69.1781C3.77917 65.2582 1.63389 58.0033 4.40689 51.4363C4.93672 50.1817 25.3265 14.7685 25.5547 14.7067C25.6301 14.6862 31.2308 17.8875 38.0009 21.8204L50.31 28.9712L40.3105 46.3755ZM28.5141 21.737C27.8467 21.9178 27.5019 22.5118 27.6783 23.1771L27.8109 23.6783L34.5945 27.5948L41.378 31.5113L41.8784 31.3755C42.4859 31.211 42.8458 30.6546 42.7487 30.0301L42.6791 29.5815L35.8494 25.5906L29.0197 21.5999L28.5141 21.737ZM25.2427 27.9751C24.4301 27.8877 23.8088 28.6418 24.044 29.4299L24.1798 29.8843L31.0306 33.8396L37.8815 37.795L38.3461 37.6075C38.9805 37.3516 39.2472 36.8334 39.0627 36.2152L38.9114 35.7086L32.3281 31.8688C27.0009 28.7617 25.6488 28.0188 25.2427 27.9751ZM18.7814 52.0401C17.8248 51.7528 16.2601 51.7894 15.2367 52.123C10.9434 53.5217 9.55126 58.6735 12.5432 62.0899C14.0352 63.7937 16.6686 64.5092 18.8306 63.7981C23.2694 62.3383 24.6096 56.8392 21.3274 53.5528C20.7139 52.9386 19.6315 52.2955 18.7814 52.0401ZM20.0521 55.7617C20.9427 57.0562 21.013 58.4416 20.2552 59.7685C19.6806 60.7748 18.9473 61.3137 17.8235 61.555C16.7938 61.7762 15.9837 61.6525 15.12 61.1421C12.4654 59.5736 12.8655 55.5317 15.784 54.4343C16.2411 54.2625 17.3196 54.1744 17.8187 54.2682C18.6418 54.4226 19.5472 55.0282 20.0521 55.7617Z" fill="url(#paint0_linear_927_2814)"/>
<defs>
<linearGradient id="paint0_linear_927_2814" x1="33.0303" y1="-3.05859" x2="70.2254" y2="47.4933" gradientUnits="userSpaceOnUse">
<stop stop-color="#0ABD92"/>
<stop offset="1" stop-color="#009DB8"/>
</linearGradient>
</defs>
</svg>
