<svg width="134" height="40" viewBox="0 0 134 40" fill="none" xmlns="http://www.w3.org/2000/svg">
<path fill-rule="evenodd" clip-rule="evenodd" d="M116.095 0.0574225C111.802 0.259027 107.528 1.9753 104.115 4.86746C100.711 7.75273 98.2591 12.0858 97.4852 16.5839L97.255 17.9214L93.2041 17.8949L89.1531 17.8685V11.1821V4.49575L94.047 4.46941C97.6001 4.45037 98.9801 4.41066 99.0835 4.32464C99.2512 4.18514 101.942 0.632045 101.942 0.549985C101.942 0.519289 98.1658 0.494063 93.5508 0.494063H85.1598V19.7427C85.1598 34.313 85.1885 38.9913 85.2775 38.9913C85.4218 38.9913 88.8004 36.7524 88.9755 36.5408C89.0725 36.4235 89.1071 34.7509 89.1271 29.2055L89.1531 22.0222L93.2028 21.9957L97.2525 21.9693L97.4379 23.1101C98.7436 31.1449 104.651 37.5195 112.543 39.4098C115.309 40.0723 118.959 40.0641 121.706 39.3892C125.165 38.5393 128.099 36.9557 130.647 34.5627C131.826 33.4556 133.281 31.7561 133.281 31.4863C133.281 31.374 132.723 30.9201 131.74 30.232L130.198 29.1537L129.793 29.6363C126.636 33.4054 123.173 35.3342 118.624 35.8572C116.669 36.0819 114.038 35.7786 111.989 35.0926C110.811 34.6982 108.897 33.7102 107.809 32.9355C106.765 32.1911 105.267 30.745 104.508 29.7479C102.535 27.1557 101.395 24.0495 101.17 20.6541C101.008 18.2155 101.813 14.7667 103.093 12.4132C104.198 10.3828 106.046 8.28034 107.859 6.9922C108.953 6.21476 111.042 5.1809 112.355 4.76696C117.888 3.02212 124.126 4.5306 128.206 8.60038C128.699 9.09142 129.278 9.7251 129.493 10.0085C129.709 10.2918 129.933 10.5223 129.991 10.5206C130.141 10.5163 132.885 8.47881 133.012 8.27761C133.096 8.14418 133.003 7.96902 132.545 7.40159C130.075 4.33812 126.489 1.94693 122.726 0.854215C121.014 0.356992 118.24 -0.0597916 117.089 0.00707216C116.904 0.0178109 116.456 0.0404027 116.095 0.0574225ZM18.7992 0.557482C14.0346 0.865562 9.40982 2.96245 6.05416 6.33613C2.76371 9.64426 0.860794 13.7358 0.399394 18.4944C0.243202 20.1048 0.242697 20.3618 0.393025 21.9389C0.569033 23.7864 0.869791 25.2804 1.33887 26.6371C3.86363 33.939 10.2253 39.0342 17.9076 39.9072C19.2302 40.0575 21.7209 40.0045 21.9029 39.8223C22.0021 39.7229 22.0416 39.0541 22.0644 37.0885C22.0811 35.6572 22.0694 34.3849 22.0385 34.2612C21.9828 34.0391 21.9653 34.0369 20.6433 34.096C16.7345 34.2708 13.0727 32.8672 10.3116 30.1359C8.47318 28.3172 7.26013 26.2155 6.60139 23.7076C6.32975 22.6739 6.28537 22.3104 6.24089 20.7558C6.18347 18.7543 6.30822 17.7464 6.81744 16.0956C7.45909 14.0154 8.57134 12.21 10.2544 10.5167C12.3631 8.39512 14.6988 7.16959 17.6871 6.61665C18.4906 6.46793 20.4324 6.41251 21.7309 6.50126L22.0342 6.52193V3.66492C22.0342 1.80875 21.9971 0.770737 21.9283 0.701847C21.8138 0.587267 19.7855 0.493658 18.7992 0.557482ZM51.9585 0.591623C45.1351 1.14244 38.992 5.28799 35.9444 11.3982C34.9591 13.3739 34.2922 15.5083 34.0022 17.6152C33.8122 18.9954 33.8402 21.8642 34.0577 23.2885C34.9059 28.8448 38.1089 33.7653 42.9104 36.8884C45.0124 38.2555 47.3353 39.1732 50.0376 39.7039C51.3493 39.9615 54.7015 40.0998 55.1698 39.9156L55.4494 39.8057L55.4226 36.9482L55.3957 34.0907L53.576 34.077C52.0984 34.0657 51.5567 34.0198 50.6948 33.8327C49.5602 33.5863 48.3105 33.1413 47.253 32.6071C44.7399 31.3375 42.4313 28.9961 41.1206 26.388C40.7364 25.6235 39.967 23.3893 40.0447 23.2635C40.0705 23.2215 42.66 23.1872 45.7991 23.1872H51.5067L51.4798 20.2746L51.453 17.362L45.7664 17.3358C40.3731 17.311 40.0797 17.3003 40.0797 17.1277C40.0797 16.794 40.7839 14.8452 41.1976 14.0343C43.1893 10.1288 46.8998 7.38214 51.2176 6.61706C52.1949 6.44392 54.5301 6.38263 55.1177 6.51484L55.4462 6.58869V3.64861C55.4462 1.87875 55.4076 0.684726 55.3492 0.648457C55.1795 0.5434 53.0075 0.506929 51.9585 0.591623ZM115.994 8.66582C114.638 8.79854 113.211 9.2289 111.902 9.89976C108.971 11.4024 106.931 13.9967 106.074 17.3113C105.825 18.2764 105.718 20.4266 105.866 21.5156C106.52 26.3336 110.082 30.1164 114.932 31.1422C115.979 31.3634 118.177 31.3638 119.229 31.1431C120.783 30.8167 122.135 30.2619 123.424 29.4218C124.123 28.9666 126.306 26.8269 126.306 26.5974C126.306 26.5127 125.617 25.9614 124.776 25.3725C123.371 24.3892 122.97 24.1686 122.97 24.38C122.97 24.5222 121.783 25.6919 121.303 26.023C119.102 27.5405 116.326 27.751 113.921 26.5827C111.49 25.4013 109.932 23.1073 109.758 20.4519C109.621 18.3645 110.407 16.3318 111.951 14.7812C113.286 13.4403 114.786 12.7704 116.663 12.6767C118.99 12.5606 120.782 13.2779 122.478 15.004L123.069 15.6052L123.853 15.0379C124.285 14.726 124.888 14.2912 125.194 14.0717C126.298 13.279 126.266 13.3174 126.068 13.0144C125.753 12.5334 124.406 11.2527 123.655 10.7219C121.432 9.14906 118.659 8.40495 115.994 8.66582Z" fill="white"/>
</svg>
