<svg width="33" height="42" viewBox="0 0 33 42" fill="none" xmlns="http://www.w3.org/2000/svg">
<path fill-rule="evenodd" clip-rule="evenodd" d="M2.78926 0.279275C2.12012 0.440394 1.60938 0.730442 1.09048 1.24383C0.562375 1.76643 0.24283 2.34164 0.0959 3.03433C-0.0319667 3.63692 -0.0319667 37.6988 0.0959 38.3014C0.387659 39.6766 1.51043 40.7897 2.8975 41.0789C3.4563 41.1954 29.2653 41.2061 29.8825 41.09C30.8947 40.8997 31.9866 40.0702 32.4149 39.1662C32.8022 38.3488 32.8105 38.1789 32.7845 31.5987L32.7601 25.4326L32.5641 25.0934C32.323 24.676 32.0568 24.4926 30.8215 23.8919L29.8522 23.4206V21.5438V19.6669L30.6711 19.613C31.6005 19.5518 31.9787 19.4058 32.3796 18.9531C32.5174 18.7975 32.6682 18.5342 32.7148 18.3678C32.7631 18.1955 32.7997 17.2361 32.8 16.1391C32.8004 14.2219 32.7995 14.2109 32.5891 13.7926C32.473 13.5614 32.2864 13.3111 32.1746 13.2363C32.0628 13.1616 31.1863 12.686 30.2267 12.1795C28.9839 11.5235 28.453 11.201 28.3808 11.0584C28.3105 10.9196 28.2791 10.4015 28.2783 9.36908C28.2771 7.97931 28.2662 7.87024 28.1145 7.7341C27.8915 7.53415 27.5007 7.54816 27.283 7.76405C27.1123 7.9335 27.1058 7.99885 27.1058 9.55919C27.1058 11.3643 27.1511 11.5971 27.5868 12.0289C27.7424 12.1833 28.5849 12.6763 29.5428 13.1735C30.4682 13.6539 31.3071 14.1195 31.4071 14.2082C31.5854 14.3665 31.5888 14.4034 31.5888 16.1886C31.5888 18.476 31.6573 18.3474 30.4002 18.4209C29.5846 18.4686 29.4804 18.493 29.2061 18.7003C28.6463 19.1237 28.604 19.3251 28.6019 21.572C28.5996 24.2146 28.5596 24.1355 30.3409 25.0164C30.9207 25.3032 31.4396 25.591 31.4939 25.6559C31.5703 25.7472 31.5877 27.1759 31.5706 31.9696C31.5488 38.0767 31.546 38.1704 31.3783 38.5297C31.1297 39.0624 30.7503 39.4504 30.2304 39.7035L29.7714 39.927H16.4031H3.03489L2.57593 39.7035C2.05598 39.4504 1.67658 39.0624 1.42796 38.5297L1.25785 38.1652V20.6679V3.17054L1.48321 2.71553C1.73854 2.20006 2.12989 1.82393 2.66729 1.57744C3.03457 1.40895 3.04354 1.40879 14.0203 1.38765C26.3389 1.36387 25.5063 1.32559 26.2204 1.94877C26.42 2.12294 26.6826 2.43309 26.804 2.63793C27.0137 2.99172 27.0267 3.07517 27.0653 4.30342C27.1006 5.42798 27.1258 5.61841 27.2597 5.76487C27.4635 5.98789 27.898 5.98877 28.122 5.76663C28.2817 5.6084 28.2888 5.52976 28.2634 4.22511L28.2367 2.85022L27.9455 2.24963C27.6148 1.56759 27.0435 0.952582 26.4362 0.624897C25.5499 0.146583 26.1041 0.166923 14.1447 0.174371C5.80168 0.179576 3.09951 0.20456 2.78926 0.279275ZM4.40556 3.29234C4.10686 3.38251 3.81833 3.63868 3.71655 3.90415C3.67479 4.01306 3.64071 5.30618 3.64071 6.78332C3.64071 9.6914 3.64765 9.74209 4.09426 10.0904C4.29506 10.2469 4.40888 10.2576 5.881 10.2576H7.45328L7.72065 9.9925C7.91055 9.80424 8.00336 9.6243 8.04092 9.37189C8.07 9.17633 8.08236 7.87953 8.06838 6.49015C8.04569 4.23792 8.02751 3.9405 7.90045 3.74855C7.60037 3.29482 7.441 3.25206 5.98698 3.23452C5.25184 3.22563 4.54022 3.25166 4.40556 3.29234ZM10.1234 3.28473C9.80335 3.36481 9.64317 3.4907 9.49156 3.78139C9.39754 3.96164 9.37573 4.52452 9.37573 6.77411C9.37573 9.81537 9.38711 9.8948 9.85771 10.1361C10.2013 10.3123 12.912 10.3123 13.2556 10.1361C13.7265 9.89464 13.7376 9.81689 13.7372 6.7581C13.7368 3.06964 13.8488 3.26479 11.7182 3.23669C10.9852 3.22708 10.2675 3.24862 10.1234 3.28473ZM15.8069 3.2901C15.4764 3.39292 15.2043 3.67264 15.1111 4.00545C15.0039 4.38807 15.006 9.16784 15.1136 9.55174C15.159 9.71407 15.307 9.93925 15.4424 10.0522C15.688 10.2571 15.6922 10.2576 17.2466 10.2576C18.7043 10.2576 18.8184 10.2468 19.019 10.0904C19.4659 9.74193 19.4726 9.6926 19.4726 6.77019C19.4726 3.10784 19.5644 3.26239 17.3724 3.2346C16.6394 3.22531 15.935 3.2503 15.8069 3.2901ZM21.4546 3.32653C21.0891 3.46027 20.8699 3.70411 20.803 4.05141C20.7775 4.18354 20.7677 5.5107 20.781 7.00058L20.8054 9.7095L21.1071 9.98353L21.4088 10.2576L22.9245 10.2572C24.2829 10.257 24.467 10.2408 24.6976 10.1014C25.1693 9.81625 25.1672 9.83122 25.1672 6.77059C25.1672 3.6901 25.1719 3.72133 24.6649 3.39188C24.3642 3.19641 21.9451 3.14716 21.4546 3.32653ZM6.85272 6.75409L6.87421 9.05637H5.86323H4.85233V6.78749C4.85233 5.53953 4.87769 4.49345 4.90863 4.46278C4.93957 4.43203 5.3848 4.41706 5.89812 4.42939L6.83132 4.45181L6.85272 6.75409ZM12.5259 6.73407V9.05637H11.5566H10.5873V6.73407V4.41177H11.5566H12.5259V6.73407ZM18.242 6.75409L18.2635 9.05637H17.2525H16.2416V6.78749C16.2416 5.53953 16.267 4.49345 16.2979 4.46278C16.3288 4.43203 16.7741 4.41706 17.2874 4.42939L18.2206 4.45181L18.242 6.75409ZM23.977 6.75409L23.9985 9.05637H22.9875H21.9766V6.73159V4.40681L22.9661 4.42931L23.9556 4.45181L23.977 6.75409ZM5.43609 25.4819C5.02592 25.6833 4.63707 26.125 4.52802 26.5137C4.48472 26.6678 4.44918 27.5918 4.44894 28.5668C4.44854 30.1709 4.46267 30.3571 4.5974 30.5221C4.81299 30.7861 5.22559 30.7693 5.4709 30.4865C5.65653 30.2725 5.66008 30.2366 5.66008 28.5512C5.66008 26.9407 5.6701 26.8241 5.82163 26.6738C5.98148 26.5154 6.09085 26.5137 16.4031 26.5137C26.7154 26.5137 26.8248 26.5154 26.9847 26.6738C27.1425 26.8303 27.1462 26.9407 27.1462 31.5097C27.1462 35.9942 27.1399 36.1933 26.9918 36.3746L26.8374 36.5636H16.4031H5.96888L5.81452 36.3746C5.67325 36.2017 5.66008 36.04 5.66008 34.4835C5.66008 32.8829 5.65014 32.7689 5.49263 32.5705C5.28286 32.3061 4.85055 32.2812 4.61001 32.5196C4.45783 32.6705 4.44846 32.7865 4.44846 34.5242C4.44846 36.5312 4.48521 36.7404 4.91719 37.1916C5.03698 37.3167 5.28044 37.4969 5.45814 37.592L5.78124 37.7648H16.4031H27.025L27.3481 37.592C27.5258 37.4969 27.7693 37.3167 27.8891 37.1916C28.3674 36.692 28.3578 36.8062 28.3578 31.5905C28.3578 28.2421 28.3302 26.7212 28.2657 26.5074C28.1392 26.0889 27.7799 25.6799 27.3631 25.4799C27.0149 25.3127 27.0015 25.3125 16.3978 25.3126L5.78124 25.3126L5.43609 25.4819Z" fill="url(#paint0_linear_677_2540)"/>
<defs>
<linearGradient id="paint0_linear_677_2540" x1="0" y1="0.171875" x2="40.8438" y2="33.0071" gradientUnits="userSpaceOnUse">
<stop stop-color="#0ABD92"/>
<stop offset="1" stop-color="#009DB8"/>
</linearGradient>
</defs>
</svg>
