<svg width="66" height="67" viewBox="0 0 66 67" fill="none" xmlns="http://www.w3.org/2000/svg">
<g clip-path="url(#clip0_677_2621)">
<path d="M44.1174 35.1557L40.4618 37.5049C40.277 37.6235 40.1582 37.8347 40.1582 38.0591V45.2913C40.1582 45.5155 40.277 45.7267 40.4618 45.8455L44.1174 48.1946C44.8301 48.6434 45.6351 48.8809 46.4534 48.8809C47.2716 48.8809 48.0766 48.6566 48.7893 48.1946L52.4449 45.8455C52.6297 45.7267 52.7485 45.5155 52.7485 45.2913V38.0591C52.7485 37.8347 52.6297 37.6235 52.4449 37.5049L48.7893 35.1557C47.364 34.245 45.5295 34.245 44.1174 35.1557ZM51.4156 44.9349L48.367 46.8881C48.367 46.8617 48.3802 46.8485 48.3802 46.8221C48.3802 46.4658 48.0898 46.1754 47.7336 46.1754C47.3772 46.1754 47.0869 46.4658 47.0869 46.8221C47.0869 47.0597 47.2188 47.2709 47.4168 47.3765C46.7569 47.6007 46.0574 47.5875 45.4107 47.3501C45.5823 47.2313 45.7143 47.0465 45.7143 46.8221C45.7143 46.4658 45.4239 46.1754 45.0677 46.1754C44.7113 46.1754 44.421 46.4658 44.421 46.8221L41.4779 44.9349V38.4154L44.4606 36.5018C44.4474 36.5546 44.4342 36.6074 44.4342 36.6602C44.4342 37.0165 44.7245 37.3069 45.0809 37.3069C45.4371 37.3069 45.7276 37.0165 45.7276 36.6602C45.7276 36.383 45.5427 36.1455 45.2919 36.0531C46.031 35.7363 46.8493 35.7363 47.5884 36.0399C47.3112 36.1191 47.1001 36.3566 47.1001 36.6602C47.1001 37.0165 47.3904 37.3069 47.7468 37.3069C48.103 37.3069 48.3934 37.0165 48.3934 36.6602C48.3934 36.581 48.3802 36.515 48.3538 36.449L51.4288 38.4154V44.9349H51.4156Z" fill="url(#paint0_linear_677_2621)"/>
<path d="M49.1193 44.895C49.4764 44.895 49.766 44.6054 49.766 44.2484C49.766 43.8912 49.4764 43.6016 49.1193 43.6016C48.7621 43.6016 48.4727 43.8912 48.4727 44.2484C48.4727 44.6054 48.7621 44.895 49.1193 44.895Z" fill="url(#paint1_linear_677_2621)"/>
<path d="M46.4533 44.895C46.8104 44.895 47.1 44.6054 47.1 44.2484C47.1 43.8912 46.8104 43.6016 46.4533 43.6016C46.0961 43.6016 45.8066 43.8912 45.8066 44.2484C45.8066 44.6054 46.0961 44.895 46.4533 44.895Z" fill="url(#paint2_linear_677_2621)"/>
<path d="M43.7746 44.895C44.1317 44.895 44.4213 44.6054 44.4213 44.2484C44.4213 43.8912 44.1317 43.6016 43.7746 43.6016C43.4174 43.6016 43.1279 43.8912 43.1279 44.2484C43.1279 44.6054 43.4174 44.895 43.7746 44.895Z" fill="url(#paint3_linear_677_2621)"/>
<path d="M49.1193 39.7465C49.4756 39.7465 49.766 39.4562 49.766 39.0998C49.766 38.7435 49.4756 38.4531 49.1193 38.4531C48.7629 38.4531 48.4727 38.7435 48.4727 39.0998C48.4727 39.4562 48.7629 39.7465 49.1193 39.7465Z" fill="url(#paint4_linear_677_2621)"/>
<path d="M46.4533 39.7465C46.8096 39.7465 47.1 39.4562 47.1 39.0998C47.1 38.7435 46.8096 38.4531 46.4533 38.4531C46.0969 38.4531 45.8066 38.7435 45.8066 39.0998C45.8066 39.4562 46.0837 39.7465 46.4533 39.7465Z" fill="url(#paint5_linear_677_2621)"/>
<path d="M43.7746 39.7465C44.1309 39.7465 44.4213 39.4562 44.4213 39.0998C44.4213 38.7435 44.1309 38.4531 43.7746 38.4531C43.4182 38.4531 43.1279 38.7435 43.1279 39.0998C43.1279 39.4562 43.4182 39.7465 43.7746 39.7465Z" fill="url(#paint6_linear_677_2621)"/>
<path d="M50.4123 42.3871C50.7694 42.3871 51.059 42.0976 51.059 41.7404C51.059 41.3832 50.7694 41.0938 50.4123 41.0938C50.0551 41.0938 49.7656 41.3832 49.7656 41.7404C49.7656 42.0976 50.0551 42.3871 50.4123 42.3871Z" fill="url(#paint7_linear_677_2621)"/>
<path d="M47.7473 41.0938C47.3909 41.0938 47.1006 41.3842 47.1006 41.7404C47.1006 42.0968 47.3909 42.3871 47.7473 42.3871C48.1035 42.3871 48.3939 42.0968 48.3939 41.7404C48.3939 41.3842 48.1035 41.0938 47.7473 41.0938Z" fill="url(#paint8_linear_677_2621)"/>
<path d="M45.0676 42.3871C45.4246 42.3871 45.7142 42.0976 45.7142 41.7404C45.7142 41.3832 45.4246 41.0938 45.0676 41.0938C44.7104 41.0938 44.4209 41.3832 44.4209 41.7404C44.4209 42.0976 44.7104 42.3871 45.0676 42.3871Z" fill="url(#paint9_linear_677_2621)"/>
<path d="M42.4016 42.3871C42.7586 42.3871 43.0482 42.0976 43.0482 41.7404C43.0482 41.3832 42.7586 41.0938 42.4016 41.0938C42.0444 41.0938 41.7549 41.3832 41.7549 41.7404C41.7549 42.0976 42.0444 42.3871 42.4016 42.3871Z" fill="url(#paint10_linear_677_2621)"/>
<path d="M64.4942 14.989H61.4061H16.4954V13.1281H18.5146C18.8841 13.1281 19.1745 12.8378 19.1745 12.4682V2.84737C19.1745 2.47785 18.8841 2.1875 18.5146 2.1875H10.0947C9.7252 2.1875 9.43485 2.47785 9.43485 2.84737V8.89175C8.64301 8.40346 7.53443 8.12631 6.02994 8.53543C5.31728 8.73339 4.77619 9.1821 4.44625 9.84197C3.68081 11.3597 4.20871 13.7088 4.59143 14.989H4.01075H0.922563C0.553037 14.989 0.262695 15.2793 0.262695 15.6489V28.2128V40.7766V45.4748C0.262695 45.8444 0.553037 46.1347 0.922563 46.1347H3.39047V55.2277C3.39047 55.9536 3.98435 56.5475 4.7102 56.5475H23.1997V58.6327C23.1997 59.0022 23.49 59.2925 23.8596 59.2925H24.5987L17.1157 66.7754C16.8518 67.0394 16.8518 67.4484 17.1157 67.7124C17.2477 67.8444 17.4193 67.9103 17.5776 67.9103C17.736 67.9103 17.9208 67.8444 18.0396 67.7124L25.4169 60.3351V61.3776V63.001L21.3653 67.0526C21.1013 67.3164 21.1013 67.7256 21.3653 67.9895C21.4972 68.1215 21.6688 68.1875 21.8272 68.1875C21.9856 68.1875 22.1702 68.1215 22.2891 67.9895L25.4037 64.875V67.2504C25.4037 67.62 25.694 67.9103 26.0636 67.9103C26.4331 67.9103 26.7235 67.62 26.7235 67.2504V62.0375H28.6107V67.2504C28.6107 67.62 28.9009 67.9103 29.2705 67.9103C29.64 67.9103 29.9304 67.62 29.9304 67.2504V62.0375H34.5231V67.2504C34.5231 67.62 34.8133 67.9103 35.1829 67.9103C35.5524 67.9103 35.8428 67.62 35.8428 67.2504V62.0375H37.73V67.2504C37.73 67.62 38.0203 67.9103 38.3899 67.9103C38.7594 67.9103 39.0498 67.62 39.0498 67.2504V64.875L42.1511 67.9763C42.2831 68.1083 42.4547 68.1743 42.613 68.1743C42.7714 68.1743 42.9562 68.1083 43.075 67.9763C43.3388 67.7124 43.3388 67.3032 43.075 67.0394L39.0366 63.001V61.3512V60.3219L46.4007 67.686C46.5326 67.818 46.7042 67.8839 46.8626 67.8839C47.021 67.8839 47.2058 67.818 47.3244 67.686C47.5884 67.422 47.5884 67.013 47.3244 66.749L39.8416 59.2662H40.6334C41.003 59.2662 41.2932 58.9757 41.2932 58.6063V56.5211H60.667C61.3929 56.5211 61.9867 55.9272 61.9867 55.2013V46.1347H64.4546C64.8242 46.1347 65.1145 45.8444 65.1145 45.4748V40.7766V28.2128V15.6489C65.1541 15.2793 64.8506 14.989 64.4942 14.989ZM1.58244 28.8726H3.39047V40.1168H1.58244V28.8726ZM62.0263 28.8726H63.8343V40.1168H62.0263V28.8726ZM63.8343 27.5529H62.0659V19.8587V16.3087H63.8343V27.5529ZM60.7462 18.5522C60.733 18.5522 60.7198 18.539 60.7066 18.539H4.7102C4.697 18.539 4.6838 18.5522 4.67062 18.5522V16.3087H12.7738H15.8356H60.7462V18.5522ZM15.1625 14.989H13.4205V13.1281H15.1625V14.989ZM17.8548 3.50724V11.8084H15.8356H12.7738H10.7546V10.4754V3.50724H17.8548ZM5.62082 10.4359C5.79239 10.1059 6.02994 9.90796 6.38627 9.81557C8.36588 9.27449 9.2105 10.3039 9.43485 10.6734V12.4682C9.43485 12.8378 9.7252 13.1281 10.0947 13.1281H12.1139V14.989H5.97715C5.58123 13.8144 5.04014 11.584 5.62082 10.4359ZM1.58244 16.3087H3.35088V19.8587V27.5529H1.58244V16.3087ZM1.58244 44.8149V41.4365H3.39047V44.8149H1.58244ZM35.1961 60.7046H29.2837H26.7367V59.2925H37.7432V60.7046H35.1961ZM40.0131 57.9728H38.4163H26.0899H24.5195V56.5475H40.0131V57.9728ZM59.3869 53.908H6.02994V21.1785H59.3869V53.908ZM63.8343 44.8149H62.0263V41.4365H63.8343V44.8149Z" fill="url(#paint11_linear_677_2621)"/>
<path d="M10.1344 48.997H29.8644C31.1974 48.997 32.2927 47.9149 32.2927 46.5687V26.2447C32.2927 24.9117 31.2106 23.8164 29.8644 23.8164H10.1344C8.80143 23.8164 7.70605 24.8985 7.70605 26.2447V46.5687C7.71925 47.9017 8.80143 48.997 10.1344 48.997ZM9.03898 26.2447C9.03898 25.6376 9.54047 25.1361 10.1476 25.1361H29.8776C30.4847 25.1361 30.9862 25.6376 30.9862 26.2447V46.5687C30.9862 47.1758 30.4847 47.6773 29.8776 47.6773H10.1476C9.54047 47.6773 9.03898 47.1758 9.03898 46.5687V26.2447Z" fill="url(#paint12_linear_677_2621)"/>
<path d="M12.2722 10.3165H16.3369C16.7065 10.3165 16.9968 10.0262 16.9968 9.65668V5.22237C16.9968 4.85283 16.7065 4.5625 16.3369 4.5625H12.2722C11.9027 4.5625 11.6123 4.85283 11.6123 5.22237V9.65668C11.6123 10.0262 11.9027 10.3165 12.2722 10.3165ZM12.932 5.88224H15.6771V8.99682H12.932V5.88224Z" fill="url(#paint13_linear_677_2621)"/>
<path d="M54.5701 33.123V24.9802C54.5701 24.6107 54.2799 24.3203 53.9103 24.3203H38.9841C38.6146 24.3203 38.3242 24.6107 38.3242 24.9802V33.123C38.3242 33.4926 38.6146 33.7829 38.9841 33.7829H53.9103C54.2799 33.7829 54.5701 33.4926 54.5701 33.123ZM53.2504 32.4631H39.644V25.64H53.2504V32.4631Z" fill="url(#paint14_linear_677_2621)"/>
<path d="M32.9395 50.1486C32.9395 50.518 33.2299 50.8084 33.5993 50.8084H57.0511C57.4206 50.8084 57.711 50.518 57.711 50.1486V22.6716C57.711 22.3021 57.4206 22.0117 57.0511 22.0117H33.5993C33.2299 22.0117 32.9395 22.3021 32.9395 22.6716C32.9395 23.0412 33.2299 23.3315 33.5993 23.3315H56.3912V49.4755H33.5993C33.2299 49.4887 32.9395 49.779 32.9395 50.1486Z" fill="url(#paint15_linear_677_2621)"/>
</g>
<defs>
<linearGradient id="paint0_linear_677_2621" x1="40.1582" y1="34.4727" x2="54.7315" y2="47.2696" gradientUnits="userSpaceOnUse">
<stop stop-color="#0ABD92"/>
<stop offset="1" stop-color="#009DB8"/>
</linearGradient>
<linearGradient id="paint1_linear_677_2621" x1="48.4727" y1="43.6016" x2="49.792" y2="44.9272" gradientUnits="userSpaceOnUse">
<stop stop-color="#0ABD92"/>
<stop offset="1" stop-color="#009DB8"/>
</linearGradient>
<linearGradient id="paint2_linear_677_2621" x1="45.8066" y1="43.6016" x2="47.126" y2="44.9272" gradientUnits="userSpaceOnUse">
<stop stop-color="#0ABD92"/>
<stop offset="1" stop-color="#009DB8"/>
</linearGradient>
<linearGradient id="paint3_linear_677_2621" x1="43.1279" y1="43.6016" x2="44.4473" y2="44.9272" gradientUnits="userSpaceOnUse">
<stop stop-color="#0ABD92"/>
<stop offset="1" stop-color="#009DB8"/>
</linearGradient>
<linearGradient id="paint4_linear_677_2621" x1="48.4727" y1="38.4531" x2="49.7919" y2="39.7788" gradientUnits="userSpaceOnUse">
<stop stop-color="#0ABD92"/>
<stop offset="1" stop-color="#009DB8"/>
</linearGradient>
<linearGradient id="paint5_linear_677_2621" x1="45.8066" y1="38.4531" x2="47.1258" y2="39.7788" gradientUnits="userSpaceOnUse">
<stop stop-color="#0ABD92"/>
<stop offset="1" stop-color="#009DB8"/>
</linearGradient>
<linearGradient id="paint6_linear_677_2621" x1="43.1279" y1="38.4531" x2="44.4471" y2="39.7788" gradientUnits="userSpaceOnUse">
<stop stop-color="#0ABD92"/>
<stop offset="1" stop-color="#009DB8"/>
</linearGradient>
<linearGradient id="paint7_linear_677_2621" x1="49.7656" y1="41.0938" x2="51.0848" y2="42.4194" gradientUnits="userSpaceOnUse">
<stop stop-color="#0ABD92"/>
<stop offset="1" stop-color="#009DB8"/>
</linearGradient>
<linearGradient id="paint8_linear_677_2621" x1="47.1006" y1="41.0938" x2="48.4198" y2="42.4194" gradientUnits="userSpaceOnUse">
<stop stop-color="#0ABD92"/>
<stop offset="1" stop-color="#009DB8"/>
</linearGradient>
<linearGradient id="paint9_linear_677_2621" x1="44.4209" y1="41.0938" x2="45.7401" y2="42.4194" gradientUnits="userSpaceOnUse">
<stop stop-color="#0ABD92"/>
<stop offset="1" stop-color="#009DB8"/>
</linearGradient>
<linearGradient id="paint10_linear_677_2621" x1="41.7549" y1="41.0938" x2="43.0741" y2="42.4194" gradientUnits="userSpaceOnUse">
<stop stop-color="#0ABD92"/>
<stop offset="1" stop-color="#009DB8"/>
</linearGradient>
<linearGradient id="paint11_linear_677_2621" x1="0.262695" y1="2.1875" x2="67.5782" y2="68.6597" gradientUnits="userSpaceOnUse">
<stop stop-color="#0ABD92"/>
<stop offset="1" stop-color="#009DB8"/>
</linearGradient>
<linearGradient id="paint12_linear_677_2621" x1="7.70605" y1="23.8164" x2="33.3859" y2="49.0135" gradientUnits="userSpaceOnUse">
<stop stop-color="#0ABD92"/>
<stop offset="1" stop-color="#009DB8"/>
</linearGradient>
<linearGradient id="paint13_linear_677_2621" x1="11.6123" y1="4.5625" x2="17.4704" y2="10.0713" gradientUnits="userSpaceOnUse">
<stop stop-color="#0ABD92"/>
<stop offset="1" stop-color="#009DB8"/>
</linearGradient>
<linearGradient id="paint14_linear_677_2621" x1="38.3242" y1="24.3203" x2="46.6994" y2="38.7698" gradientUnits="userSpaceOnUse">
<stop stop-color="#0ABD92"/>
<stop offset="1" stop-color="#009DB8"/>
</linearGradient>
<linearGradient id="paint15_linear_677_2621" x1="32.9395" y1="22.0117" x2="62.0035" y2="47.1358" gradientUnits="userSpaceOnUse">
<stop stop-color="#0ABD92"/>
<stop offset="1" stop-color="#009DB8"/>
</linearGradient>
<clipPath id="clip0_677_2621">
<rect width="66" height="66" fill="white" transform="translate(0 0.867188)"/>
</clipPath>
</defs>
</svg>
