<svg width="24" height="22" viewBox="0 0 24 22" fill="none" xmlns="http://www.w3.org/2000/svg">
<path opacity="0.6" d="M3.41237 18.4106V20.0945C3.41237 20.3864 3.31134 20.6279 3.10928 20.8192C2.90721 21.0096 2.67147 21.1048 2.40205 21.1048H1.56012C1.26825 21.1048 1.02712 21.0096 0.836735 20.8192C0.645448 20.6279 0.549805 20.3864 0.549805 20.0945V9.75556L3.31134 1.90876C3.40115 1.59443 3.58076 1.34747 3.85018 1.16786C4.11959 0.988243 4.42269 0.898438 4.75946 0.898438H19.308C19.6224 0.898438 19.9084 0.994081 20.1661 1.18537C20.4248 1.37576 20.599 1.61689 20.6888 1.90876L23.4503 9.75556V20.0945C23.4503 20.3864 23.3552 20.6279 23.1648 20.8192C22.9735 21.0096 22.7319 21.1048 22.44 21.1048H21.5981C21.3287 21.1048 21.0929 21.0096 20.8909 20.8192C20.6888 20.6279 20.5878 20.3864 20.5878 20.0945V18.4106H3.41237ZM3.3787 7.73492H20.6215L18.9039 2.91907H5.09624L3.3787 7.73492ZM5.90449 14.8408C6.37597 14.8408 6.78549 14.6666 7.13304 14.3182C7.48148 13.9706 7.65571 13.5499 7.65571 13.0559C7.65571 12.5845 7.48148 12.1749 7.13304 11.8274C6.78549 11.4789 6.36475 11.3047 5.87081 11.3047C5.39933 11.3047 4.98982 11.4789 4.64227 11.8274C4.29382 12.1749 4.1196 12.5957 4.1196 13.0896C4.1196 13.5611 4.29382 13.9706 4.64227 14.3182C4.98982 14.6666 5.41056 14.8408 5.90449 14.8408ZM18.1293 14.8408C18.6008 14.8408 19.0103 14.6666 19.3579 14.3182C19.7063 13.9706 19.8806 13.5499 19.8806 13.0559C19.8806 12.5845 19.7063 12.1749 19.3579 11.8274C19.0103 11.4789 18.5896 11.3047 18.0957 11.3047C17.6242 11.3047 17.2147 11.4789 16.8671 11.8274C16.5187 12.1749 16.3444 12.5957 16.3444 13.0896C16.3444 13.5611 16.5187 13.9706 16.8671 14.3182C17.2147 14.6666 17.6354 14.8408 18.1293 14.8408ZM2.57044 16.39H21.4297V9.75556H2.57044V16.39Z" fill="white"/>
</svg>
