<svg width="33" height="33" viewBox="0 0 33 33" fill="none" xmlns="http://www.w3.org/2000/svg">
<mask id="mask0_677_2076" style="mask-type:alpha" maskUnits="userSpaceOnUse" x="0" y="0" width="33" height="33">
<rect x="0.165039" y="0.164062" width="32.3302" height="32.3302" fill="#D9D9D9"/>
</mask>
<g mask="url(#mask0_677_2076)">
<path d="M7.125 25.9333V27.85C7.125 28.1822 7.01471 28.4572 6.79412 28.6749C6.57353 28.8916 6.31618 29 6.02206 29H5.10294C4.78431 29 4.52108 28.8916 4.31324 28.6749C4.10441 28.4572 4 28.1822 4 27.85V16.0817L7.01471 7.15C7.11275 6.79222 7.30882 6.51111 7.60294 6.30667C7.89706 6.10222 8.22794 6 8.59559 6H24.4779C24.8211 6 25.1333 6.10887 25.4147 6.3266C25.6971 6.54331 25.8873 6.81778 25.9853 7.15L29 16.0817V27.85C29 28.1822 28.8961 28.4572 28.6882 28.6749C28.4794 28.8916 28.2157 29 27.8971 29H26.9779C26.6838 29 26.4265 28.8916 26.2059 28.6749C25.9853 28.4572 25.875 28.1822 25.875 27.85V25.9333H7.125ZM7.08824 13.7817H25.9118L24.0368 8.3H8.96324L7.08824 13.7817ZM9.84559 21.87C10.3603 21.87 10.8074 21.6717 11.1868 21.2751C11.5672 20.8795 11.7574 20.4006 11.7574 19.8383C11.7574 19.3017 11.5672 18.8355 11.1868 18.4399C10.8074 18.0433 10.348 17.845 9.80882 17.845C9.29412 17.845 8.84706 18.0433 8.46765 18.4399C8.08726 18.8355 7.89706 19.3144 7.89706 19.8767C7.89706 20.4133 8.08726 20.8795 8.46765 21.2751C8.84706 21.6717 9.30637 21.87 9.84559 21.87ZM23.1912 21.87C23.7059 21.87 24.1529 21.6717 24.5324 21.2751C24.9127 20.8795 25.1029 20.4006 25.1029 19.8383C25.1029 19.3017 24.9127 18.8355 24.5324 18.4399C24.1529 18.0433 23.6936 17.845 23.1544 17.845C22.6397 17.845 22.1926 18.0433 21.8132 18.4399C21.4328 18.8355 21.2426 19.3144 21.2426 19.8767C21.2426 20.4133 21.4328 20.8795 21.8132 21.2751C22.1926 21.6717 22.652 21.87 23.1912 21.87ZM6.20588 23.6333H26.7941V16.0817H6.20588V23.6333Z" fill="url(#paint0_linear_677_2076)"/>
</g>
<defs>
<linearGradient id="paint0_linear_677_2076" x1="3.82618" y1="17.5" x2="56.8356" y2="17.5" gradientUnits="userSpaceOnUse">
<stop stop-color="#009B8D"/>
<stop offset="1" stop-color="#009DB9"/>
</linearGradient>
</defs>
</svg>
