<svg width="55" height="54" viewBox="0 0 55 54" fill="none" xmlns="http://www.w3.org/2000/svg">
<path fill-rule="evenodd" clip-rule="evenodd" d="M29.9116 2.10445C25.1142 2.79121 22.1634 3.25661 21.9703 3.35718C21.8014 3.44523 17.2274 7.90167 11.806 13.2604C2.72207 22.2393 1.9234 23.0559 1.62503 23.67C0.777172 25.4153 0.792126 27.1989 1.66856 28.8765C2.02488 29.5585 2.66803 30.2208 10.3628 37.8294C14.933 42.3484 18.9091 46.2266 19.1985 46.4477L19.7248 46.8498L19.7857 47.7387C19.9472 50.1012 21.4088 51.9999 23.6547 52.7649L24.3447 53H36.7723H49.1999L49.8899 52.7649C51.5772 52.1902 52.8379 50.9573 53.5052 49.2296L53.7378 48.6277L53.7658 34.569C53.7911 21.7461 53.7789 20.4822 53.6257 20.1903C53.5333 20.0142 52.2884 18.3331 50.8591 16.4545C49.43 14.5758 48.2239 12.9789 48.179 12.9058C48.1341 12.8326 48.1534 12.3836 48.2219 11.9081C48.4073 10.6199 48.3529 10.5229 46.3148 8.51635L44.6131 6.84102L46.309 5.15859C48.3795 3.10429 48.5648 2.76569 48.117 1.8537C47.7547 1.11579 46.8588 0.796507 46.1201 1.14202C45.9407 1.22601 45.0298 2.04913 44.0959 2.97109L42.3979 4.64743L40.6423 2.92706C39.6767 1.9808 38.7559 1.15779 38.5962 1.098C38.4366 1.03831 38.1349 0.994381 37.9258 1.00058C37.7168 1.00668 34.1104 1.50351 29.9116 2.10445ZM38.8108 5.49048L40.1761 6.83929L39.0936 7.903L38.011 8.9667L37.3659 8.34511C36.5926 7.59998 36.4054 7.49698 35.8251 7.49749C34.6896 7.4984 33.9543 8.66806 34.4638 9.66292C34.6835 10.0921 38.7564 14.1493 39.3451 14.5253C40.5714 15.3088 41.9486 14.3591 41.6745 12.9189C41.6228 12.6469 41.4168 12.3545 40.9201 11.8471L40.2369 11.1493L41.316 10.0854L42.3952 9.0215L43.7554 10.3692L45.1156 11.7169L44.1153 18.6058L43.115 25.4947L33.6783 34.8054C28.1313 40.2784 24.0715 44.2066 23.829 44.3353C23.2862 44.6235 22.1411 44.6414 21.6116 44.37C21.1092 44.1124 4.63768 27.8873 4.35963 27.376C4.0627 26.8299 4.04651 25.7193 4.32714 25.139C4.45967 24.8649 7.59328 21.7002 13.9416 15.4295L23.3593 6.12681L30.2463 5.14496C34.0341 4.60492 37.2035 4.15823 37.2894 4.15234C37.3753 4.14644 38.0599 4.7486 38.8108 5.49048ZM27.2273 12.6226C27.0543 12.6968 26.7915 12.8997 26.6434 13.0732C26.4419 13.3094 25.4332 16.1728 22.6441 24.4253C18.647 36.2526 18.8009 35.7071 19.2523 36.4404C19.7728 37.2859 21.2039 37.2863 21.7656 36.4412C22.0041 36.0823 29.3467 14.3164 29.3467 13.9683C29.3467 13.4964 28.9471 12.9106 28.47 12.6829C27.9779 12.448 27.6687 12.433 27.2273 12.6226ZM50.6954 34.5757C50.6954 49.4687 50.7501 48.4265 49.9245 49.2404C49.1042 50.0493 49.9499 50.0004 36.7723 50.0004C23.5947 50.0004 24.4404 50.0493 23.6201 49.2404C23.2623 48.8878 22.8492 48.0927 22.8492 47.7567C22.8492 47.7172 23.0696 47.6535 23.3391 47.6154C24.0884 47.5095 24.7488 47.2974 25.4554 46.9362C26.0113 46.652 27.429 45.2983 35.9737 36.8917C43.9015 29.0922 45.8787 27.0952 45.9976 26.7674C46.0791 26.5429 46.4302 24.3459 46.7777 21.8852C47.1253 19.4244 47.4305 17.3478 47.4559 17.2704C47.4823 17.1904 48.1899 18.0326 49.0988 19.2263L50.6954 21.3227V34.5757ZM14.5065 20.3174C12.8511 20.6379 11.3602 22.0148 10.9416 23.6097C10.5043 25.2759 10.9838 26.9228 12.2499 28.1034C13.4461 29.2188 15.0112 29.6124 16.6138 29.201C18.8626 28.6237 20.3741 26.3084 19.9674 24.0642C19.504 21.5076 17.0512 19.8247 14.5065 20.3174ZM31.8692 20.3492C30.5271 20.6707 29.3796 21.5831 28.7582 22.8227C28.4173 23.5026 28.3708 23.6901 28.3334 24.5342C28.2997 25.2931 28.3346 25.6227 28.5088 26.188C29.5041 29.4188 33.7181 30.4276 36.1672 28.0215C37.9582 26.2618 37.9745 23.4687 36.2045 21.6391C35.0762 20.4728 33.4158 19.9788 31.8692 20.3492ZM16.2334 23.5364C16.9453 24.0604 17.1314 24.7701 16.7438 25.4842C16.2033 26.4804 14.8253 26.5847 14.1531 25.6804C13.8596 25.2855 13.8157 24.5134 14.0616 24.0739C14.4762 23.3329 15.5844 23.0586 16.2334 23.5364ZM33.7979 23.5745C34.2002 23.857 34.4174 24.3077 34.4174 24.8605C34.4174 25.9543 33.1058 26.6764 32.1561 26.1055C31.2289 25.5482 31.1447 24.1818 32.0008 23.5828C32.1577 23.473 32.3788 23.3584 32.4922 23.328C32.8418 23.2344 33.487 23.3562 33.7979 23.5745Z" fill="url(#paint0_linear_940_5850)" stroke="#151515"/>
<defs>
<linearGradient id="paint0_linear_940_5850" x1="1" y1="1" x2="54.0303" y2="55.0857" gradientUnits="userSpaceOnUse">
<stop stop-color="#0ABD92"/>
<stop offset="1" stop-color="#009DB8"/>
</linearGradient>
</defs>
</svg>
