<svg width="50" height="51" viewBox="0 0 50 51" fill="none" xmlns="http://www.w3.org/2000/svg">
<path fill-rule="evenodd" clip-rule="evenodd" d="M2.38176 0.93442C1.52256 1.20317 0.661118 1.974 0.266907 2.82682C0.0613086 3.27178 0.0552558 3.4025 0.0279208 7.99746L0 12.7117L0.288971 13.0006C0.709345 13.421 1.32809 13.3403 1.55839 12.8349C1.63268 12.6718 1.66675 11.2186 1.66675 8.21496C1.66675 5.3562 1.70288 3.73744 1.77063 3.55811C1.91189 3.18412 2.33314 2.75048 2.7131 2.58794C2.96429 2.48046 3.90696 2.45351 7.41893 2.45351C10.4296 2.45351 11.8854 2.41944 12.0485 2.34515C12.552 2.11574 12.6348 1.49633 12.2178 1.07929L11.9324 0.793942L7.36094 0.800483C3.88831 0.805462 2.69143 0.837677 2.38176 0.93442ZM37.7849 1.0749C37.3637 1.49614 37.444 2.11467 37.9498 2.34515C38.113 2.41944 39.5662 2.45351 42.5699 2.45351C45.4288 2.45351 47.0476 2.48963 47.227 2.55738C47.601 2.69864 48.0346 3.11988 48.1972 3.49983C48.3046 3.75101 48.3316 4.69364 48.3316 8.2055C48.3316 11.2161 48.3657 12.6718 48.4399 12.8349C48.6704 13.3407 49.289 13.421 49.7102 12.9998L50 12.7101L49.9712 7.99668L49.9424 3.2833L49.6783 2.7457C49.3383 2.05326 48.7348 1.4482 48.0474 1.11073L47.5018 0.842753L42.7882 0.813955L38.0747 0.785156L37.7849 1.0749ZM22.7538 4.21461C17.2491 4.74392 14.0776 7.03022 13.243 11.0706C12.9376 12.5495 13.0782 14.9668 13.5721 16.7292L13.7564 17.3866L13.3494 17.5075C12.7708 17.6793 12.0899 18.3873 11.8611 19.0549C11.6402 19.6993 11.6352 20.7078 11.8501 21.2191L12.0032 21.5829L6.24069 21.6096L0.478266 21.6362L0.242696 21.9101C-0.065116 22.268 -0.063554 22.6971 0.246796 23.0073L0.486369 23.247H6.59477H12.7033L12.7913 23.4786C12.8398 23.606 12.9073 24.0343 12.9415 24.4305C12.9757 24.8265 13.0699 25.3361 13.1509 25.5628C13.3344 26.0764 14.0921 26.7777 14.6409 26.9421C14.8612 27.0081 15.0414 27.0985 15.0414 27.143C15.0414 27.4458 15.3755 29.0691 15.5455 29.5924C15.8474 30.5217 16.0788 30.9323 16.6276 31.5125L17.1184 32.0314L16.9397 33.552C16.8051 34.6978 16.7236 35.0922 16.609 35.1527C16.5254 35.1968 14.7876 35.7441 12.7472 36.3688C10.7068 36.9935 8.83976 37.576 8.59814 37.6632C7.41746 38.0893 6.42569 39.1205 6.06096 40.3016C5.89422 40.8413 5.86464 41.2097 5.86464 42.7439C5.86464 44.4276 5.87938 44.577 6.08058 44.935C6.1993 45.1463 6.45195 45.4158 6.64193 45.534L6.98733 45.7488H25.0063H43.0254L43.3791 45.5064C44.065 45.0365 44.1337 44.7849 44.1337 42.7439C44.1337 41.2097 44.1041 40.8413 43.9374 40.3016C43.5544 39.0617 42.5662 38.0719 41.2538 37.6136C40.9316 37.5011 39.0645 36.919 37.1047 36.32C35.1449 35.7211 33.4729 35.1953 33.3894 35.1518C33.2747 35.0919 33.1934 34.699 33.0586 33.552L32.88 32.0314L33.3707 31.5125C33.6407 31.2271 33.9492 30.8211 34.0562 30.6103C34.3582 30.016 34.7328 28.7409 34.859 27.8773L34.9735 27.0942L35.4343 26.9306C35.9805 26.7366 36.5744 26.1822 36.8183 25.6387C36.9147 25.424 37.0236 24.8974 37.0604 24.4684C37.0971 24.0396 37.1649 23.5893 37.2111 23.4678L37.2951 23.247H43.4036H49.512L49.7515 23.0073C50.0619 22.6971 50.0635 22.268 49.7556 21.9101L49.5201 21.6362L43.7577 21.6096L37.9951 21.5829L38.1487 21.2191C38.3592 20.7202 38.3522 19.7044 38.1339 19.0549C37.8983 18.3544 37.2283 17.6722 36.6042 17.4974L36.1531 17.3712L36.2848 16.9335C36.7442 15.4072 36.9521 13.4578 36.8075 12.0314C36.3742 7.75438 33.4362 5.09868 28.3178 4.35704C27.0497 4.17332 23.9963 4.09513 22.7538 4.21461ZM27.8791 5.97005C32.7415 6.64481 35.1631 9.00365 35.1928 13.0943C35.1973 13.7118 35.164 14.3487 35.1188 14.5098C35.0395 14.7919 35.0266 14.7757 34.7676 14.0705C33.8905 11.6822 32.4071 9.9704 31.2144 9.9704C30.6623 9.9704 30.3653 10.1358 29.6202 10.8583C28.4566 11.9865 27.1934 12.4109 24.9992 12.4109C22.8049 12.4109 21.5418 11.9865 20.3782 10.8583C19.633 10.1358 19.336 9.9704 18.784 9.9704C17.5603 9.9704 16.0555 11.741 15.1802 14.2106C14.918 14.9505 14.9017 14.9724 14.8184 14.6987C14.7705 14.5412 14.7304 13.8631 14.7292 13.1919C14.727 11.7755 14.9216 10.8823 15.4901 9.70028C15.9017 8.84453 16.8203 7.87036 17.7131 7.34271C18.9399 6.61767 20.8733 6.06543 22.8538 5.87438C23.9711 5.76661 26.8011 5.82049 27.8791 5.97005ZM20.0508 12.7889C21.1233 13.5266 22.4617 13.9518 24.0473 14.0585C27.0455 14.2602 29.3545 13.5703 30.828 12.0325L31.2515 11.5905L31.7761 12.1453C32.1129 12.5015 32.4597 13.0241 32.7446 13.605C33.4013 14.9442 34.0783 17.3118 34.0783 18.2692C34.0783 18.5213 34.1517 18.733 34.298 18.9028C34.5369 19.1801 34.8385 19.2229 35.6573 19.0962C36.0665 19.0328 36.1395 19.0515 36.3651 19.277C36.6861 19.598 36.7048 20.2704 36.4143 21.0468L36.212 21.5874H24.9992H13.7863L13.5841 21.0468C13.2935 20.2704 13.3123 19.598 13.6333 19.277C13.8586 19.0517 13.9322 19.0328 14.341 19.0954C15.577 19.2849 15.7135 19.1579 16.0097 17.5425C16.4427 15.1816 17.2992 13.0901 18.2238 12.1355L18.7409 11.6016L19.161 12.0336C19.392 12.2713 19.7924 12.6112 20.0508 12.7889ZM35.459 23.2935C35.5247 23.3591 35.3049 24.9337 35.2082 25.0901C35.0941 25.2748 34.5301 25.4918 34.1547 25.4954C33.5841 25.5009 33.2978 25.8806 33.2965 26.6329C33.2956 27.3106 33.1334 28.2122 32.8473 29.1322C32.6151 29.8785 32.549 29.9814 31.8936 30.6174C31.4177 31.0792 30.8304 31.5066 30.0823 31.9353C29.3114 32.3772 28.7146 32.8147 28.1171 33.3759C27.1951 34.2421 26.4347 34.6774 25.5073 34.8699C25.0724 34.9602 24.8641 34.9515 24.3431 34.8205C23.3799 34.5786 22.7819 34.2281 21.924 33.4025C21.4407 32.9374 20.8266 32.4723 20.3132 32.1824C18.4357 31.1225 17.5304 30.2761 17.1944 29.2665C16.9334 28.4821 16.7091 27.2775 16.7044 26.6345C16.7007 26.1218 16.5048 25.6479 16.2573 25.5529C16.1704 25.5196 15.9697 25.4923 15.8113 25.4923C15.3824 25.4923 14.8585 25.2398 14.7583 24.9848C14.6525 24.7155 14.4781 23.3547 14.5414 23.2915C14.6008 23.2319 35.3996 23.234 35.459 23.2935ZM19.4664 33.6099C19.8515 33.833 20.5225 34.3547 20.9572 34.7693C21.9209 35.6883 22.9873 36.2565 24.1938 36.4936C24.9366 36.6397 25.0617 36.6397 25.8046 36.4936C27.0078 36.2571 28.0769 35.6883 29.0411 34.7716C29.7001 34.1451 31.1987 33.1234 31.304 33.2287C31.3205 33.2452 31.4057 33.8147 31.4933 34.4941C31.6496 35.7059 31.6488 35.7381 31.4526 36.1817C30.9262 37.3717 29.2561 38.4896 27.432 38.873C26.1617 39.14 23.8492 39.1427 22.5941 38.8787C20.7808 38.4972 19.1734 37.4505 18.5994 36.2776L18.3427 35.7527L18.4981 34.5477C18.5836 33.8848 18.6535 33.3115 18.6535 33.2734C18.6535 33.1546 18.7464 33.1931 19.4664 33.6099ZM17.2463 37.2801C17.899 38.3973 19.3505 39.5718 20.6939 40.0698C22.0001 40.554 23.2206 40.7455 24.9992 40.7455C27.4231 40.7455 29.1103 40.3429 30.6139 39.4058C31.3942 38.9195 32.3518 37.9671 32.7543 37.2771C32.9822 36.8864 33.0606 36.8212 33.2351 36.877C33.3499 36.9137 35.1266 37.4614 37.1834 38.0942C39.2401 38.727 41.1072 39.353 41.3324 39.4854C42.2524 40.0259 42.4741 40.6379 42.4741 42.6372V44.1381H24.9992H7.52426V42.6372C7.52426 40.6363 7.74568 40.0261 8.66872 39.4838C8.96892 39.3074 16.4284 36.9026 16.9114 36.8265C16.9466 36.8209 17.0973 37.025 17.2463 37.2801ZM0.288971 38.5697L0 38.8586L0.0279208 43.5728L0.0559392 48.287L0.32558 48.8361C0.643643 49.4837 1.39038 50.2165 2.03607 50.5148C2.48602 50.7227 2.60425 50.7282 7.21011 50.7564L11.9236 50.7852L12.2134 50.4954C12.6346 50.0742 12.5543 49.4556 12.0485 49.2252C11.8854 49.1509 10.4296 49.1168 7.41893 49.1168C3.90696 49.1168 2.96429 49.0898 2.7131 48.9824C2.33314 48.8198 1.91189 48.3862 1.77063 48.0122C1.70288 47.8329 1.66675 46.2141 1.66675 43.3553C1.66675 40.3517 1.63268 38.8985 1.55839 38.7354C1.32809 38.23 0.709345 38.1493 0.288971 38.5697ZM48.7576 38.395C48.3474 38.5935 48.3316 38.7782 48.3316 43.3553C48.3316 46.2141 48.2955 47.8329 48.2277 48.0122C48.0864 48.3862 47.6652 48.8198 47.2852 48.9824C47.034 49.0898 46.0914 49.1168 42.5794 49.1168C39.5687 49.1168 38.113 49.1509 37.9498 49.2252C37.444 49.4556 37.3637 50.0742 37.7849 50.4954L38.0747 50.7852L42.7882 50.7564C47.3941 50.7282 47.5123 50.7227 47.9623 50.5148C48.608 50.2165 49.3547 49.4837 49.6728 48.8361L49.9424 48.287L49.9712 43.5736L50 38.8602L49.7102 38.5705C49.4105 38.2708 49.1233 38.2179 48.7576 38.395Z" fill="url(#paint0_linear_677_2399)"/>
<defs>
<linearGradient id="paint0_linear_677_2399" x1="0" y1="0.785156" x2="51" y2="52.0352" gradientUnits="userSpaceOnUse">
<stop stop-color="#0ABD92"/>
<stop offset="1" stop-color="#009DB8"/>
</linearGradient>
</defs>
</svg>
