<svg width="33" height="31" viewBox="0 0 33 31" fill="none" xmlns="http://www.w3.org/2000/svg">
<path fill-rule="evenodd" clip-rule="evenodd" d="M15.4243 0.0576808C14.7715 0.145961 13.9074 0.4045 13.2258 0.71545C11.437 1.53148 10.0667 2.99977 9.42878 4.78391C8.87435 6.33448 8.9656 8.21811 9.66925 9.74608C9.95489 10.3664 16.0807 20.0915 16.2344 20.1688C16.4141 20.259 16.6543 20.239 16.8006 20.1216C16.9971 19.9638 23.0977 10.23 23.3339 9.69742C23.4456 9.44555 23.6119 8.9784 23.7036 8.65939C23.8545 8.13407 23.8702 7.97344 23.8702 6.95837C23.8702 5.93628 23.8552 5.78492 23.6993 5.24143C23.5062 4.56821 23.0278 3.58349 22.6199 3.01958C21.4937 1.46259 19.5172 0.319673 17.4938 0.055439C16.9209 -0.0193295 15.9861 -0.01836 15.4243 0.0576808ZM18.0352 1.14025C19.1182 1.39182 20.2288 1.99045 21.0407 2.76019C21.802 3.482 22.3237 4.32136 22.6659 5.3746C22.8197 5.84818 22.8364 5.99614 22.841 6.92808C22.8469 8.12553 22.7415 8.60922 22.2771 9.5148C22.0045 10.0465 16.549 18.77 16.4892 18.7699C16.4285 18.7699 10.8785 9.89204 10.654 9.43567C10.2317 8.57765 10.1317 8.0919 10.1374 6.92808C10.142 5.99614 10.1587 5.84818 10.3125 5.3746C10.5475 4.65134 10.7543 4.23296 11.1595 3.66123C12.132 2.28934 13.6341 1.36243 15.3931 1.04882C16.0572 0.930363 17.3198 0.97411 18.0352 1.14025ZM4.69339 1.94525C4.49293 2.14556 4.00368 3.14761 3.74663 3.88438C3.3332 5.06917 3.22853 5.73324 3.22853 7.17044C3.22853 8.63861 3.33714 9.30431 3.78219 10.5635C4.09919 11.4604 4.33095 11.875 4.55695 11.9494C4.82246 12.0368 5.05673 11.9495 5.17335 11.7198C5.27506 11.5196 5.2717 11.504 4.98051 10.8277C4.40678 9.49523 4.18593 8.27603 4.24763 6.782C4.3052 5.38739 4.59574 4.26435 5.23156 2.9782C5.56638 2.30092 5.58754 2.11078 5.34785 1.9338C5.12533 1.76942 4.86473 1.77396 4.69339 1.94525ZM27.6305 1.9338C27.389 2.11218 27.4115 2.32406 27.7417 2.97801C28.3544 4.19164 28.6693 5.40187 28.7299 6.7766C28.7947 8.24386 28.5739 9.46112 27.9959 10.8239C27.7325 11.4448 27.7129 11.5253 27.7855 11.6896C27.8748 11.8921 28.023 11.9874 28.2486 11.9874C28.6007 11.9874 28.7561 11.7598 29.1767 10.6283C29.866 8.7739 29.9666 6.60937 29.455 4.64237C29.1798 3.5844 28.6147 2.28559 28.2812 1.94452C28.1142 1.77378 27.853 1.76948 27.6305 1.9338ZM15.7192 3.02134C14.4106 3.28066 13.2979 4.04446 12.7173 5.08183C12.0872 6.2076 12.062 7.62578 12.6523 8.74579C13.3875 10.1407 14.8254 10.9767 16.4892 10.9767C18.3981 10.9767 19.9517 9.89204 20.5959 8.10959C20.6904 7.84821 20.716 7.59997 20.7149 6.95837C20.7137 6.22675 20.6955 6.09351 20.542 5.69598C19.9148 4.07082 18.441 3.04442 16.6505 2.98577C16.2956 2.9742 15.8765 2.99019 15.7192 3.02134ZM6.65382 3.76575C6.49939 3.91074 6.17341 4.75543 6.00471 5.44774C5.84188 6.11617 5.77348 7.14136 5.84408 7.85663C5.92966 8.72428 6.21084 9.79473 6.39987 9.97274C6.61104 10.1716 6.95205 10.1578 7.13191 9.94312C7.28971 9.7548 7.28461 9.66373 7.07551 8.93435C6.69332 7.6016 6.79813 5.95379 7.35295 4.56978C7.55825 4.05779 7.55908 3.9614 7.36012 3.77466C7.1547 3.58174 6.85382 3.57798 6.65382 3.76575ZM25.6183 3.77466C25.4248 3.95624 25.4189 4.12953 25.5935 4.50023C25.8034 4.94568 26.033 5.87859 26.1027 6.5692C26.179 7.32555 26.1016 8.24125 25.9027 8.93495C25.6938 9.66367 25.6887 9.7548 25.8465 9.94312C25.948 10.0644 26.0431 10.1091 26.1996 10.1091C26.5668 10.1091 26.6784 9.96263 26.8939 9.1981C27.066 8.58783 27.0935 8.37461 27.1207 7.4431C27.1444 6.63294 27.1271 6.24995 27.0475 5.81994C26.9053 5.05172 26.5178 3.94716 26.3279 3.76884C26.1245 3.57792 25.8252 3.5804 25.6183 3.77466ZM17.1475 3.99581C18.6225 4.28458 19.716 5.54517 19.716 6.95662C19.716 8.32251 18.8554 9.43985 17.4695 9.87301C15.7575 10.4081 13.817 9.41677 13.3613 7.77422C13.06 6.68826 13.4088 5.53608 14.2671 4.78227C15.0717 4.07561 16.1088 3.79247 17.1475 3.99581ZM16.0697 5.25457C15.4665 5.40405 14.8982 5.89374 14.7098 6.42621C14.403 7.29326 14.9348 8.33475 15.8306 8.62134C16.2069 8.74167 16.7715 8.74167 17.1478 8.62134C18.0452 8.33426 18.5754 7.29338 18.2675 6.42318C18.1304 6.03546 17.6837 5.5605 17.2948 5.3889C16.9713 5.24609 16.3699 5.18017 16.0697 5.25457ZM16.8582 6.27189C17.1914 6.42033 17.3416 6.67881 17.3078 7.0455C17.2848 7.29526 17.2417 7.3779 17.047 7.54537C16.8476 7.71691 16.7666 7.74605 16.4892 7.74605C16.2117 7.74605 16.1308 7.71691 15.9314 7.54537C15.494 7.16911 15.5856 6.51673 16.1098 6.27431C16.3875 6.14586 16.5739 6.14525 16.8582 6.27189ZM8.48661 13.3571C7.94727 13.493 1.10371 16.9655 0.754502 17.2805C0.599742 17.4201 0.370765 17.7315 0.238206 17.9827L0 18.4339V24.2235V30.013L0.152824 30.2634C0.343788 30.5763 0.697903 30.7704 1.0777 30.7704C1.32953 30.7704 1.78387 30.5572 4.90887 28.9727C6.85886 27.9839 8.59593 27.1393 8.76902 27.0958C8.99684 27.0385 9.16141 27.033 9.36541 27.0759C9.52036 27.1085 12.7331 27.9981 16.5047 29.0526C24.0749 31.1691 23.9256 31.1357 24.6622 30.8785C24.8802 30.8024 26.6166 29.9499 28.5208 28.984C30.9687 27.7424 32.0605 27.1566 32.2477 26.9845C32.3934 26.8507 32.6173 26.5366 32.7454 26.2867L32.9784 25.8323L32.9961 20.1791C33.0083 16.3136 32.9921 14.4501 32.945 14.2859C32.8015 13.7856 32.299 13.4539 31.783 13.5189C31.6287 13.5383 30.2032 14.2256 27.9157 15.3835C24.3826 17.172 24.2836 17.2175 23.9244 17.2188C23.6551 17.2198 23.2017 17.1195 22.2381 16.8456C21.5133 16.6396 20.8367 16.4711 20.7347 16.4711C20.506 16.4711 20.2323 16.7127 20.2323 16.9146C20.2323 17.2547 20.3971 17.3365 21.9695 17.7775L23.4551 18.1941L23.4732 20.6402L23.4915 23.0862L23.6438 23.202C23.8693 23.3733 24.1945 23.3534 24.358 23.1581C24.4883 23.0026 24.4918 22.9352 24.4918 20.5576V18.1166L24.6693 18.0792C24.7668 18.0586 26.4295 17.2401 28.364 16.2602C30.2985 15.2804 31.9032 14.4991 31.93 14.524C31.9569 14.5489 31.9714 16.82 31.9623 19.5709L31.9458 24.5726L29.9129 23.7604C27.8766 22.9469 27.5356 22.8442 27.1161 22.9181C26.9923 22.9399 26.2568 23.3144 25.4816 23.7503C24.7065 24.1863 24.0341 24.5572 23.9875 24.5745C23.9409 24.5919 22.6869 24.3114 21.2009 23.9512L18.4991 23.2963V22.9722C18.4991 22.2582 18.0516 21.6028 17.3416 21.2767C17.0365 21.1365 16.8916 21.1082 16.4896 21.11C15.942 21.1125 15.5655 21.2396 15.191 21.5483L14.9642 21.7353L13.4518 20.9111C11.6978 19.9552 11.418 19.8383 10.9954 19.8846C10.8279 19.9029 9.86493 20.2396 8.80349 20.6509C7.45647 21.173 6.8506 21.3795 6.70339 21.3666C6.53004 21.3515 6.15573 21.0407 4.39045 19.4462C3.23207 18.3999 2.30758 17.5224 2.33611 17.4963C2.36457 17.4702 3.7383 16.7663 5.38884 15.9321L8.3898 14.4154L8.42207 16.6488C8.45221 18.736 8.46241 18.8904 8.57728 19.0096C8.7618 19.2008 9.14766 19.1842 9.32088 18.9774C9.45079 18.8223 9.45466 18.7524 9.45466 16.5526V14.2875L9.63214 14.3282C9.72972 14.3506 9.92217 14.4056 10.0598 14.4505C10.6062 14.6289 11.0036 14.4868 11.0036 14.113C11.0036 13.722 10.8839 13.6433 9.93727 13.4124C9.22775 13.2394 8.99019 13.2303 8.48661 13.3571ZM4.10397 20.5339C6.07932 22.3258 6.17083 22.3858 6.85486 22.3361C7.14431 22.3151 7.65583 22.1432 9.13198 21.5712C10.1791 21.1654 11.0807 20.8334 11.1356 20.8335C11.1904 20.8335 11.9601 21.2265 12.8458 21.7068L14.4563 22.58L14.4904 23.0852C14.5453 23.8976 14.9273 24.4249 15.7022 24.7579C16.0064 24.8886 16.1174 24.9042 16.5764 24.8806C17.1483 24.8511 17.4749 24.7315 17.8673 24.408C17.9884 24.3082 18.1271 24.2269 18.1757 24.2272C18.2242 24.2276 19.4256 24.5149 20.8454 24.8658C22.2652 25.2166 23.5434 25.519 23.6857 25.5379C24.1194 25.5952 24.4519 25.4612 25.8968 24.6464C26.6609 24.2156 27.3471 23.8636 27.4217 23.8642C27.4962 23.8648 28.5302 24.255 29.7193 24.7313C31.7592 25.5485 31.8803 25.6057 31.8642 25.7451C31.8227 26.1056 31.5291 26.3509 30.526 26.8631C27.4769 28.4201 24.6054 29.8615 24.5526 29.8615C24.5161 29.8615 24.4918 29.2277 24.4918 28.2749C24.4918 26.7293 24.4882 26.6847 24.3515 26.5481C24.1479 26.3446 23.7716 26.3543 23.593 26.5675C23.4651 26.72 23.4592 26.7999 23.4592 28.359V29.9909L23.3198 29.9493C23.0485 29.8685 19.3615 28.8368 14.4404 27.4646L9.45518 26.0746L9.45492 24.4317C9.45466 22.8616 9.44873 22.7817 9.32088 22.6292C9.13198 22.4036 8.74476 22.4036 8.55586 22.6292C8.42782 22.782 8.42207 22.8609 8.42207 24.4698V26.1508L8.21233 26.2309C8.097 26.275 6.60858 27.0169 4.90481 27.8796C3.20103 28.7422 1.64944 29.5275 1.45673 29.6245C1.26409 29.7216 1.08216 29.8009 1.0524 29.8009C1.02265 29.8009 1.00607 27.2857 1.01549 24.2115L1.03259 18.622L1.18445 18.3325L1.33637 18.0429L1.82982 18.4808C2.10126 18.7216 3.12462 19.6455 4.10397 20.5339ZM16.9182 22.1709C17.8385 22.5892 17.5268 23.9237 16.5087 23.9237C15.4465 23.9237 15.107 22.6129 16.0551 22.1722C16.3975 22.0131 16.5704 22.0128 16.9182 22.1709Z" fill="url(#paint0_linear_677_2448)"/>
<defs>
<linearGradient id="paint0_linear_677_2448" x1="0" y1="0" x2="31.5487" y2="33.7487" gradientUnits="userSpaceOnUse">
<stop stop-color="#0ABD92"/>
<stop offset="1" stop-color="#009DB8"/>
</linearGradient>
</defs>
</svg>
