<svg width="39" height="28" viewBox="0 0 39 28" fill="none" xmlns="http://www.w3.org/2000/svg">
<path opacity="0.6" fill-rule="evenodd" clip-rule="evenodd" d="M2.28474 0.0416506C1.6168 0.1952 1.00225 0.668543 0.684125 1.27446L0.5 1.62519V14.0059V26.3866L0.700411 26.7449C0.997198 27.2757 1.22133 27.4941 1.7418 27.7603L2.21037 28H19.5H36.7896L37.2582 27.7603C37.7787 27.4941 38.0028 27.2757 38.2996 26.7449L38.5 26.3866V14.0059V1.62519L38.2459 1.1832C37.9637 0.692252 37.7321 0.480833 37.1694 0.200882L36.7896 0.0118387L19.6487 0.00110639C10.2212 -0.00478586 2.40744 0.013452 2.28474 0.0416506ZM36.7982 1.27881C36.9111 1.35836 37.0725 1.51057 37.1568 1.61712L37.3102 1.81087V14.0059V26.201L37.1568 26.3947C37.0725 26.5013 36.9111 26.6535 36.7982 26.733L36.5928 26.8777H19.5H2.40721L2.20182 26.733C2.08886 26.6535 1.92749 26.5013 1.84316 26.3947C1.6899 26.2011 1.68982 26.1961 1.66856 14.1937C1.65688 7.58969 1.66655 2.08472 1.69012 1.96042C1.74337 1.67927 2.05592 1.3209 2.35538 1.19751C2.54241 1.12049 5.563 1.10674 19.5875 1.11916L36.5928 1.13417L36.7982 1.27881ZM3.02503 2.39364L2.84247 2.56578V12.8836V23.2014L3.02503 23.3735L3.20752 23.5457H19.5H35.7925L35.975 23.3735L36.1575 23.2014V12.8836V2.56578L35.975 2.39364L35.7925 2.22143H19.5H3.20752L3.02503 2.39364ZM14.7407 12.8836V22.4234H9.3865H4.03229V12.8836V3.34376H9.3865H14.7407V12.8836ZM17.1204 5.13564V6.92758L17.3029 7.09972L17.4854 7.27193H19.5H21.5146L21.6971 7.09972L21.8796 6.92758V5.13564V3.34376H22.4714H23.0633L23.0884 10.1654L23.1136 16.9871L23.308 17.7236C23.6925 19.1809 24.248 20.3432 25.1851 21.651L25.7384 22.4234H20.8345H15.9305V12.8836V3.34376H16.5254H17.1204V5.13564ZM20.6898 4.74668V6.14959H19.5H18.3102V4.74668V3.34376H19.5H20.6898V4.74668ZM25.4491 7.66088V11.9781L25.6317 12.1502C25.8131 12.3214 25.8226 12.3224 27.2842 12.3224H28.7542L31.8609 9.39496L34.9677 6.46749V7.27361V8.07965L33.1458 9.79717C31.4252 11.4192 31.3239 11.5291 31.3239 11.7732C31.3239 11.9689 31.3715 12.067 31.5198 12.177C31.7045 12.3141 31.8094 12.3224 33.3417 12.3224H34.9677V12.8836V13.4448H30.391H25.8142L25.6234 13.6247L25.4327 13.8046L25.4676 15.2906C25.4984 16.597 25.5256 16.8587 25.6932 17.455C26.1386 19.0406 27.0389 20.4849 28.5005 21.9588L28.966 22.4282L28.1192 22.4083L27.2725 22.3883L26.7352 21.757C25.7861 20.6418 24.9726 19.2097 24.6241 18.0408C24.2708 16.8558 24.2602 16.6155 24.2597 9.77964L24.2593 3.34376H24.8542H25.4491V7.66088ZM34.9677 4.13262V4.92148L31.6402 8.06079L28.3127 11.2001H27.4758H26.6389V7.27193V3.34376H30.8033H34.9677V4.13262ZM9.06881 4.54269C8.89569 4.63781 8.19667 5.95536 8.19667 6.18656C8.19667 6.4367 8.50692 6.71076 8.7901 6.71076H9.01847L8.90506 6.91769C8.74184 7.21539 8.76496 7.46363 8.97415 7.66088C9.16683 7.8427 9.44859 7.88177 9.68968 7.76007C9.87009 7.66895 10.5763 6.35673 10.5763 6.11263C10.5763 5.86249 10.2661 5.58843 9.9829 5.58843H9.75452L9.86793 5.3815C10.0312 5.0838 10.008 4.83555 9.79885 4.6383C9.60624 4.45656 9.29897 4.41636 9.06881 4.54269ZM8.37924 9.12763C8.26412 9.23615 8.19667 9.37995 8.19667 9.51659C8.19667 9.65323 8.26412 9.79703 8.37924 9.90555C8.55109 10.0677 8.60999 10.0778 9.3865 10.0778C10.163 10.0778 10.2219 10.0677 10.3938 9.90555C10.5089 9.79703 10.5763 9.65323 10.5763 9.51659C10.5763 9.37995 10.5089 9.23615 10.3938 9.12763C10.2219 8.96553 10.163 8.95542 9.3865 8.95542C8.60999 8.95542 8.55109 8.96553 8.37924 9.12763ZM17.3029 9.12763L17.1204 9.29977V12.3224V15.3451L17.3029 15.5172L17.4854 15.6894H19.5H21.5146L21.6971 15.5172L21.8796 15.3451V12.3224V9.29977L21.6971 9.12763L21.5146 8.95542H19.5H17.4854L17.3029 9.12763ZM34.9677 10.4285V11.2001H34.1324H33.297L34.1125 10.4285C34.561 10.0041 34.9369 9.65688 34.9479 9.65688C34.9588 9.65688 34.9677 10.0041 34.9677 10.4285ZM20.6898 12.3224V14.5671H19.5H18.3102V12.3224V10.0778H19.5H20.6898V12.3224ZM7.63894 10.7014C6.96164 10.8645 6.35572 11.332 6.03833 11.9366L5.85421 12.2873V15.4088V18.5303L6.10831 18.9723C6.39052 19.4633 6.62209 19.6747 7.1848 19.9546L7.56458 20.1437H9.3865H11.2084L11.5882 19.9546C12.1509 19.6747 12.3825 19.4633 12.6647 18.9723L12.9188 18.5303V15.4088V12.2873L12.7184 11.9291C12.4216 11.3983 12.1975 11.1799 11.677 10.9137L11.2084 10.674L9.53522 10.6608C8.61497 10.6536 7.76164 10.6718 7.63894 10.7014ZM11.2172 11.941C11.33 12.0205 11.4913 12.1727 11.5756 12.2793C11.7248 12.4677 11.729 12.5531 11.729 15.4088C11.729 18.2646 11.7248 18.35 11.5756 18.5384C11.1973 19.0164 11.1751 19.0213 9.3865 19.0213C7.59797 19.0213 7.57588 19.0165 7.19737 18.5385C7.04953 18.3519 7.04321 18.2458 7.0218 15.5967C7.00953 14.0852 7.01927 12.7469 7.04336 12.6226C7.06746 12.4983 7.17618 12.2969 7.28497 12.1749C7.63069 11.7874 7.77711 11.7609 9.47425 11.7795C10.8959 11.7951 11.0276 11.8073 11.2172 11.941ZM8.07271 13.889L7.60176 14.3333V15.97V17.6067L8.07271 18.051L8.54373 18.4952H9.3865H10.2293L10.7003 18.051L11.1712 17.6067V15.97V14.3333L10.7003 13.889L10.2293 13.4448H9.3865H8.54373L8.07271 13.889ZM9.8454 14.6832C9.96668 14.7867 9.98141 14.9245 9.98141 15.9578C9.98141 17.3087 9.95501 17.3729 9.39944 17.3729C8.81464 17.3729 8.79159 17.3201 8.79159 15.9822C8.79159 15.0026 8.81062 14.8038 8.91466 14.6954C9.07588 14.5274 9.65398 14.5198 9.8454 14.6832ZM34.9677 18.4952V22.4234H32.8439H30.7201L29.6601 21.4238C27.5451 19.4295 26.7493 17.8938 26.6609 15.6368L26.619 14.5671H30.7934H34.9677V18.4952ZM18.9423 16.8726C18.2565 17.0426 17.6541 17.5092 17.3455 18.1094C17.1988 18.3947 17.1647 18.5715 17.1627 19.0564C17.1605 19.6031 17.1813 19.6894 17.413 20.0946C17.6944 20.5869 17.9277 20.7995 18.4881 21.0742C18.812 21.2329 18.9609 21.2603 19.5 21.2603C20.0391 21.2603 20.188 21.2329 20.5119 21.0742C21.0723 20.7995 21.3056 20.5869 21.587 20.0946C21.8184 19.6899 21.8396 19.6024 21.8381 19.0564C21.8367 18.5498 21.8068 18.4064 21.6391 18.1019C21.3493 17.5759 21.1222 17.3528 20.6193 17.1C20.14 16.859 19.4013 16.7588 18.9423 16.8726ZM19.9707 18.0298C20.7347 18.3309 20.9209 19.2758 20.3268 19.8363C19.4913 20.6244 18.1222 19.9185 18.342 18.8129C18.4734 18.1526 19.2881 17.7608 19.9707 18.0298ZM8.37924 20.9121C8.26412 21.0206 8.19667 21.1644 8.19667 21.3011C8.19667 21.4377 8.26412 21.5815 8.37924 21.69C8.55109 21.8521 8.60999 21.8622 9.3865 21.8622C10.163 21.8622 10.2219 21.8521 10.3938 21.69C10.5089 21.5815 10.5763 21.4377 10.5763 21.3011C10.5763 21.1644 10.5089 21.0206 10.3938 20.9121C10.2219 20.75 10.163 20.7399 9.3865 20.7399C8.60999 20.7399 8.55109 20.75 8.37924 20.9121ZM4.21485 24.8403C4.09974 24.9488 4.03229 25.0926 4.03229 25.2292C4.03229 25.3659 4.09974 25.5097 4.21485 25.6182C4.37429 25.7687 4.46397 25.7904 4.92466 25.7904C5.38534 25.7904 5.47503 25.7687 5.63446 25.6182C5.876 25.3904 5.876 25.068 5.63446 24.8403C5.47503 24.6898 5.38534 24.6681 4.92466 24.6681C4.46397 24.6681 4.37429 24.6898 4.21485 24.8403ZM8.37924 24.8403C8.26412 24.9488 8.19667 25.0926 8.19667 25.2292C8.19667 25.3659 8.26412 25.5097 8.37924 25.6182C8.53867 25.7687 8.62836 25.7904 9.08904 25.7904C9.54973 25.7904 9.63941 25.7687 9.79885 25.6182C10.0404 25.3904 10.0404 25.068 9.79885 24.8403C9.63941 24.6898 9.54973 24.6681 9.08904 24.6681C8.62836 24.6681 8.53867 24.6898 8.37924 24.8403ZM12.5436 24.8403C12.4285 24.9488 12.3611 25.0926 12.3611 25.2292C12.3611 25.3659 12.4285 25.5097 12.5436 25.6182C12.7031 25.7687 12.7927 25.7904 13.2534 25.7904C13.7141 25.7904 13.8038 25.7687 13.9632 25.6182C14.0783 25.5097 14.1458 25.3659 14.1458 25.2292C14.1458 25.0926 14.0783 24.9488 13.9632 24.8403C13.8038 24.6898 13.7141 24.6681 13.2534 24.6681C12.7927 24.6681 12.7031 24.6898 12.5436 24.8403ZM16.708 24.8403C16.5929 24.9488 16.5254 25.0926 16.5254 25.2292C16.5254 25.3659 16.5929 25.5097 16.708 25.6182C16.8674 25.7687 16.9571 25.7904 17.4178 25.7904C17.8785 25.7904 17.9682 25.7687 18.1276 25.6182C18.2427 25.5097 18.3102 25.3659 18.3102 25.2292C18.3102 25.0926 18.2427 24.9488 18.1276 24.8403C17.9682 24.6898 17.8785 24.6681 17.4178 24.6681C16.9571 24.6681 16.8674 24.6898 16.708 24.8403ZM20.8724 24.8403C20.7573 24.9488 20.6898 25.0926 20.6898 25.2292C20.6898 25.3659 20.7573 25.5097 20.8724 25.6182C21.0318 25.7687 21.1215 25.7904 21.5822 25.7904C22.0429 25.7904 22.1326 25.7687 22.292 25.6182C22.4071 25.5097 22.4746 25.3659 22.4746 25.2292C22.4746 25.0926 22.4071 24.9488 22.292 24.8403C22.1326 24.6898 22.0429 24.6681 21.5822 24.6681C21.1215 24.6681 21.0318 24.6898 20.8724 24.8403ZM25.0368 24.8403C24.9217 24.9488 24.8542 25.0926 24.8542 25.2292C24.8542 25.3659 24.9217 25.5097 25.0368 25.6182C25.1962 25.7687 25.2859 25.7904 25.7466 25.7904C26.2073 25.7904 26.2969 25.7687 26.4564 25.6182C26.5715 25.5097 26.6389 25.3659 26.6389 25.2292C26.6389 25.0926 26.5715 24.9488 26.4564 24.8403C26.2969 24.6898 26.2073 24.6681 25.7466 24.6681C25.2859 24.6681 25.1962 24.6898 25.0368 24.8403ZM29.2012 24.8403C29.086 24.9488 29.0186 25.0926 29.0186 25.2292C29.0186 25.3659 29.086 25.5097 29.2012 25.6182C29.3606 25.7687 29.4503 25.7904 29.911 25.7904C30.3716 25.7904 30.4613 25.7687 30.6208 25.6182C30.7359 25.5097 30.8033 25.3659 30.8033 25.2292C30.8033 25.0926 30.7359 24.9488 30.6208 24.8403C30.4613 24.6898 30.3716 24.6681 29.911 24.6681C29.4503 24.6681 29.3606 24.6898 29.2012 24.8403ZM33.3655 24.8403C33.2504 24.9488 33.183 25.0926 33.183 25.2292C33.183 25.3659 33.2504 25.5097 33.3655 25.6182C33.525 25.7687 33.6147 25.7904 34.0753 25.7904C34.536 25.7904 34.6257 25.7687 34.7851 25.6182C34.9003 25.5097 34.9677 25.3659 34.9677 25.2292C34.9677 25.0926 34.9003 24.9488 34.7851 24.8403C34.6257 24.6898 34.536 24.6681 34.0753 24.6681C33.6147 24.6681 33.525 24.6898 33.3655 24.8403Z" fill="white"/>
</svg>
