<svg width="29" height="35" viewBox="0 0 29 35" fill="none" xmlns="http://www.w3.org/2000/svg">
<path opacity="0.6" fill-rule="evenodd" clip-rule="evenodd" d="M4.31167 1.04603C3.49373 1.25344 2.7115 1.91986 2.3543 2.71369L2.15973 3.14612H1.21225H0.264769L0.132416 3.32118L0 3.49624V19.0694V34.6426L0.156817 34.8056L0.31357 34.9688H8.79537H17.2772L20.3599 31.7624L23.4427 28.5562V16.0142V3.47225L23.2859 3.30922L23.1292 3.14612H15.497H7.86481L7.65325 2.69808C7.40586 2.17424 6.88296 1.6009 6.41238 1.33755C5.7915 0.989957 4.97797 0.877083 4.31167 1.04603ZM5.78282 2.22572C6.11913 2.38783 6.45474 2.68134 6.59891 2.93944L6.71427 3.14612H5.01796C4.08491 3.14612 3.32159 3.12161 3.32159 3.09165C3.32159 2.97379 3.7944 2.47174 4.05495 2.31289C4.56118 2.00436 5.25117 1.96955 5.78282 2.22572ZM24.6675 3.29985C24.465 3.52414 24.479 3.89312 24.6969 4.07137C24.7895 4.14711 24.9332 4.20909 25.0163 4.20909H25.1674V19.0574V33.9058H22.2901H19.4127L19.2559 34.0689C19.0007 34.3343 19.0652 34.7069 19.3983 34.8915C19.499 34.9472 20.4186 34.9688 22.7004 34.9688H25.8629L26.0421 34.8084L26.2214 34.6481L26.2396 19.2459C26.2496 10.7747 26.241 3.74643 26.2207 3.62751C26.1542 3.24059 25.985 3.14612 25.3581 3.14612C24.864 3.14612 24.7919 3.1622 24.6675 3.29985ZM27.4885 3.24425C27.091 3.53377 27.3463 4.20909 27.8532 4.20909C27.9766 4.20909 27.978 4.37266 27.978 19.0574V33.9058H27.8006C27.4266 33.9058 27.1948 34.2742 27.3398 34.6382C27.4396 34.8886 27.6501 34.9688 28.2075 34.9688C28.6308 34.9688 28.7046 34.9498 28.8432 34.8056L29 34.6426V19.0694V3.49624L28.8676 3.32118C28.7427 3.15602 28.7038 3.14612 28.1792 3.14612C27.7922 3.14612 27.5822 3.17595 27.4885 3.24425ZM6.89868 6.24175C6.89868 8.52494 6.89893 8.52368 6.43544 8.79461C6.02772 9.03291 5.56091 8.88755 5.29895 8.44077C5.1871 8.24997 5.17446 8.10009 5.17426 6.96437C5.17407 5.9131 5.15676 5.67466 5.07174 5.54837C4.93089 5.33923 4.70899 5.26229 4.48293 5.34427C4.16425 5.45981 4.14291 5.57946 4.16431 7.13491C4.1829 8.48761 4.19178 8.57656 4.3371 8.87233C4.92655 10.0717 6.42829 10.3591 7.34083 9.4472C7.49318 9.29493 7.69318 9.00328 7.78522 8.79906L7.95264 8.42775L7.97404 6.31842L7.99538 4.20909H15.2081H22.4207V15.9993V27.7897L19.6438 27.8083L16.8669 27.8269L16.7214 27.9782L16.576 28.1295L16.558 31.0176L16.5402 33.9058H8.78106H1.02203V19.0574V4.20909H3.96035H6.89868V6.24175ZM4.42799 11.9282C4.21503 12.0352 4.11832 12.335 4.21688 12.5825C4.26108 12.6935 4.34891 12.8131 4.41202 12.8482C4.48363 12.8881 7.23786 12.9114 11.7331 12.91C17.544 12.9084 18.9606 12.8912 19.0487 12.8216C19.3263 12.6022 19.3144 12.1663 19.0251 11.9555C18.8932 11.8595 18.1855 11.8496 11.7231 11.8537C6.85 11.8568 4.52279 11.8805 4.42799 11.9282ZM4.42799 15.1835C4.21503 15.2905 4.11832 15.5904 4.21688 15.8378C4.26108 15.9488 4.34891 16.0684 4.41202 16.1036C4.48363 16.1434 7.23786 16.1667 11.7331 16.1654C17.544 16.1637 18.9606 16.1466 19.0487 16.0769C19.3263 15.8576 19.3144 15.4217 19.0251 15.2109C18.8932 15.1148 18.1855 15.105 11.7231 15.109C6.85 15.1121 4.52279 15.1358 4.42799 15.1835ZM4.42799 18.4389C4.21503 18.5459 4.11832 18.8457 4.21688 19.0932C4.26108 19.2042 4.34891 19.3238 4.41202 19.3589C4.56986 19.4467 18.8749 19.4456 19.0328 19.3578C19.1936 19.2682 19.3002 18.9259 19.2284 18.7294C19.085 18.3371 19.5447 18.3595 11.7231 18.3644C6.85 18.3674 4.52279 18.3912 4.42799 18.4389ZM4.42799 21.6942C4.21503 21.8012 4.11832 22.101 4.21688 22.3485C4.26108 22.4595 4.34891 22.5791 4.41202 22.6143C4.56986 22.7021 18.8749 22.701 19.0328 22.6131C19.1936 22.5236 19.3002 22.1812 19.2284 21.9848C19.085 21.5924 19.5447 21.6148 11.7231 21.6197C6.85 21.6228 4.52279 21.6465 4.42799 21.6942ZM4.33869 25.0647C4.23598 25.1716 4.15198 25.3076 4.15198 25.367C4.15198 25.5312 4.32585 25.8458 4.4423 25.8923C4.62052 25.9633 18.904 25.9401 19.0328 25.8685C19.1936 25.7789 19.3002 25.4366 19.2284 25.2401C19.085 24.848 19.5455 24.8705 11.7023 24.8705H4.52541L4.33869 25.0647ZM21.5903 28.9401C21.5903 28.9495 20.6992 29.8836 19.6101 31.0158L17.63 33.0745V30.9988V28.9231H19.6101C20.6992 28.9231 21.5903 28.9308 21.5903 28.9401Z" fill="white"/>
</svg>
