<svg width="65" height="65" viewBox="0 0 65 65" fill="none" xmlns="http://www.w3.org/2000/svg">
<g clip-path="url(#clip0_677_2644)">
<path d="M63.8347 0.378906H1.13974C0.781487 0.378906 0.5 0.660394 0.5 1.01865V24.2029C0.5 24.5612 0.781487 24.8427 1.13974 24.8427H3.32767V35.0914C3.32767 35.7951 3.90344 36.3708 4.60716 36.3708H6.87185V39.4929H4.60716V41.5272H11.1837V39.4929H8.90623V36.3708H13.0518V45.2506H5.25969C4.55597 45.2506 3.9802 45.8263 3.9802 46.5301V51.7631C3.9802 52.4668 4.55597 53.0426 5.25969 53.0426C5.96341 53.0426 6.53918 52.4668 6.53918 51.7631V47.8096H14.3313H15.3805H22.6352V51.3154H16.1993C12.0794 51.3154 8.71432 54.6675 8.71432 58.8003V63.5728C8.71432 63.931 8.99581 64.2125 9.35407 64.2125C9.71233 64.2125 9.99381 63.931 9.99381 63.5728V58.8003C9.99381 55.3841 12.7703 52.5948 16.1993 52.5948H23.2749H41.5076H48.9287C52.3449 52.5948 55.1341 55.3713 55.1341 58.8003V63.7008C55.1341 64.059 55.4156 64.3405 55.7739 64.3405C56.1321 64.3405 56.4136 64.059 56.4136 63.7008V58.8003C56.4136 54.6804 53.0614 51.3154 48.9287 51.3154H42.1474V47.8096H50.2466H51.2316H59.1006V51.7631C59.1006 52.4668 59.6763 53.0426 60.3801 53.0426C61.0838 53.0426 61.6595 52.4668 61.6595 51.7631V46.5301C61.6595 45.8263 61.0838 45.2506 60.3801 45.2506H52.5111V36.3708H56.8103V39.4929H54.5456V41.5272H61.1222V39.4929H58.8575V36.3708H60.3929C61.0966 36.3708 61.6724 35.7951 61.6724 35.0914V24.8427H63.8603C64.2185 24.8427 64.5 24.5612 64.5 24.2029V1.01865C64.4744 0.673189 64.1801 0.378906 63.8347 0.378906ZM23.9147 51.3154V48.155H40.8679V51.3154H23.9147ZM49.9522 45.2506H15.6108V36.3708H49.9522V45.2506ZM59.0878 33.8119H51.2188H14.3313H5.87385V7.36492H59.0878V33.8119ZM63.1949 23.5632H61.6468V6.08543C61.6468 5.38172 61.071 4.80595 60.3673 4.80595H4.59436C3.89064 4.80595 3.31487 5.38172 3.31487 6.08543V23.5632H1.7667V1.65839H63.1821V23.5632H63.1949Z" fill="url(#paint0_linear_677_2644)"/>
<path d="M9.36728 31.2539H29.033C29.3913 31.2539 29.6728 30.9723 29.6728 30.6141V10.9483C29.6728 10.5901 29.3913 10.3086 29.033 10.3086H9.36728C9.00902 10.3086 8.72754 10.5901 8.72754 10.9483V30.6141C8.72754 30.9723 9.00902 31.2539 9.36728 31.2539ZM10.007 11.5881H28.3933V15.6056C28.0862 13.4433 26.2438 11.78 24.0047 11.78C21.548 11.78 19.5519 13.776 19.5519 16.2326C19.5519 18.6893 21.548 20.6852 24.0047 20.6852C26.2438 20.6852 28.0862 19.0092 28.3933 16.8596V29.9744H10.007V11.5881ZM27.1778 16.2326C27.1778 17.9855 25.7575 19.4057 24.0047 19.4057C22.2517 19.4057 20.8314 17.9855 20.8314 16.2326C20.8314 14.4797 22.2517 13.0595 24.0047 13.0595C25.7575 13.0595 27.1778 14.4925 27.1778 16.2326Z" fill="url(#paint1_linear_677_2644)"/>
<path d="M34.8801 32.1771H54.1619C55.8381 32.1771 57.1943 30.8208 57.1943 29.1446V11.8332C57.1943 10.157 55.8381 8.80078 54.1619 8.80078H34.8801C33.2039 8.80078 31.8477 10.157 31.8477 11.8332V29.1446C31.8477 30.8208 33.2039 32.1771 34.8801 32.1771ZM33.1271 11.8332C33.1271 10.8607 33.9205 10.0803 34.8801 10.0803H54.1619C55.1343 10.0803 55.9149 10.8735 55.9149 11.8332V29.1446C55.9149 30.117 55.1215 30.8976 54.1619 30.8976H34.8801C33.9077 30.8976 33.1271 30.1042 33.1271 29.1446V11.8332Z" fill="url(#paint2_linear_677_2644)"/>
<path d="M37.0936 29.4113H51.9484C53.1767 29.4113 54.1875 28.4005 54.1875 27.1722V13.8016C54.1875 12.5733 53.1767 11.5625 51.9484 11.5625H37.0936C35.8652 11.5625 34.8545 12.5733 34.8545 13.8016V27.1722C34.8545 28.4133 35.8525 29.4113 37.0936 29.4113ZM36.134 13.8016C36.134 13.277 36.5689 12.842 37.0936 12.842H51.9484C52.4731 12.842 52.908 13.277 52.908 13.8016V27.1722C52.908 27.6969 52.4731 28.1318 51.9484 28.1318H37.0936C36.5689 28.1318 36.134 27.6969 36.134 27.1722V13.8016Z" fill="url(#paint3_linear_677_2644)"/>
<path d="M18.8861 16.2462C18.8861 13.8152 16.9029 11.832 14.4718 11.832C12.0408 11.832 10.0576 13.8152 10.0576 16.2462C10.0576 18.6773 12.0408 20.6606 14.4718 20.6606C16.9029 20.6606 18.8861 18.6773 18.8861 16.2462ZM14.4718 19.3811C12.7446 19.3811 11.3371 17.9736 11.3371 16.2462C11.3371 14.519 12.7446 13.1115 14.4718 13.1115C16.1992 13.1115 17.6067 14.519 17.6067 16.2462C17.6067 17.9736 16.1992 19.3811 14.4718 19.3811Z" fill="url(#paint4_linear_677_2644)"/>
<path d="M19.193 19.5586C16.7363 19.5586 14.7402 21.5546 14.7402 24.0112C14.7402 26.4678 16.7363 28.4638 19.193 28.4638C21.6495 28.4638 23.6456 26.4678 23.6456 24.0112C23.6456 21.5546 21.6495 19.5586 19.193 19.5586ZM19.193 27.1843C17.44 27.1843 16.0197 25.7642 16.0197 24.0112C16.0197 22.2584 17.44 20.8381 19.193 20.8381C20.9458 20.8381 22.3661 22.2584 22.3661 24.0112C22.3661 25.7642 20.9458 27.1843 19.193 27.1843Z" fill="url(#paint5_linear_677_2644)"/>
<path d="M21.4325 43.6903H45.0903C46.6768 43.6903 47.9563 42.398 47.9563 40.8115C47.9563 39.2249 46.664 37.9453 45.0903 37.9453H21.4325C19.846 37.9453 18.5665 39.2376 18.5665 40.8242C18.5537 42.398 19.846 43.6903 21.4325 43.6903ZM21.4325 39.2121H45.0903C45.9731 39.2121 46.6768 39.9285 46.6768 40.8115C46.6768 41.6943 45.9603 42.3979 45.0903 42.3979H21.4325C20.5496 42.3979 19.846 41.6815 19.846 40.7986C19.8332 39.9285 20.5496 39.2121 21.4325 39.2121Z" fill="url(#paint6_linear_677_2644)"/>
<path d="M32.3849 54.3086C32.0267 54.3086 31.7451 54.5901 31.7451 54.9483C31.7451 55.3066 32.0267 55.5881 32.3849 55.5881C32.7431 55.5881 33.0246 55.3066 33.0246 54.9483C33.0246 54.5901 32.7431 54.3086 32.3849 54.3086Z" fill="url(#paint7_linear_677_2644)"/>
<path d="M39.3194 54.3086C38.9612 54.3086 38.6797 54.5901 38.6797 54.9483C38.6797 55.3066 38.9612 55.5881 39.3194 55.5881C39.6777 55.5881 39.9592 55.3066 39.9592 54.9483C39.9592 54.5901 39.6777 54.3086 39.3194 54.3086Z" fill="url(#paint8_linear_677_2644)"/>
<path d="M46.255 54.3086C45.8967 54.3086 45.6152 54.5901 45.6152 54.9483C45.6152 55.3066 45.8967 55.5881 46.255 55.5881C46.6133 55.5881 46.8947 55.3066 46.8947 54.9483C46.8947 54.5901 46.6133 54.3086 46.255 54.3086Z" fill="url(#paint9_linear_677_2644)"/>
<path d="M19.1935 54.3086C18.8353 54.3086 18.5537 54.5901 18.5537 54.9483C18.5537 55.3066 18.8353 55.5881 19.1935 55.5881C19.5517 55.5881 19.8332 55.3066 19.8332 54.9483C19.8332 54.5901 19.5517 54.3086 19.1935 54.3086Z" fill="url(#paint10_linear_677_2644)"/>
<path d="M26.128 54.3086C25.7698 54.3086 25.4883 54.5901 25.4883 54.9483C25.4883 55.3066 25.7698 55.5881 26.128 55.5881C26.4863 55.5881 26.7678 55.3066 26.7678 54.9483C26.7678 54.5901 26.4863 54.3086 26.128 54.3086Z" fill="url(#paint11_linear_677_2644)"/>
</g>
<defs>
<linearGradient id="paint0_linear_677_2644" x1="0.5" y1="0.378906" x2="65.7406" y2="65.9787" gradientUnits="userSpaceOnUse">
<stop stop-color="#0ABD92"/>
<stop offset="1" stop-color="#009DB8"/>
</linearGradient>
<linearGradient id="paint1_linear_677_2644" x1="8.72754" y1="10.3086" x2="30.0917" y2="31.7775" gradientUnits="userSpaceOnUse">
<stop stop-color="#0ABD92"/>
<stop offset="1" stop-color="#009DB8"/>
</linearGradient>
<linearGradient id="paint2_linear_677_2644" x1="31.8477" y1="8.80078" x2="55.6042" y2="34.6861" gradientUnits="userSpaceOnUse">
<stop stop-color="#0ABD92"/>
<stop offset="1" stop-color="#009DB8"/>
</linearGradient>
<linearGradient id="paint3_linear_677_2644" x1="34.8545" y1="11.5625" x2="52.9953" y2="31.3081" gradientUnits="userSpaceOnUse">
<stop stop-color="#0ABD92"/>
<stop offset="1" stop-color="#009DB8"/>
</linearGradient>
<linearGradient id="paint4_linear_677_2644" x1="10.0576" y1="11.832" x2="19.0627" y2="20.8813" gradientUnits="userSpaceOnUse">
<stop stop-color="#0ABD92"/>
<stop offset="1" stop-color="#009DB8"/>
</linearGradient>
<linearGradient id="paint5_linear_677_2644" x1="14.7402" y1="19.5586" x2="23.8236" y2="28.6866" gradientUnits="userSpaceOnUse">
<stop stop-color="#0ABD92"/>
<stop offset="1" stop-color="#009DB8"/>
</linearGradient>
<linearGradient id="paint6_linear_677_2644" x1="18.5664" y1="37.9453" x2="20.7631" y2="49.238" gradientUnits="userSpaceOnUse">
<stop stop-color="#0ABD92"/>
<stop offset="1" stop-color="#009DB8"/>
</linearGradient>
<linearGradient id="paint7_linear_677_2644" x1="31.7451" y1="54.3086" x2="33.0502" y2="55.6201" gradientUnits="userSpaceOnUse">
<stop stop-color="#0ABD92"/>
<stop offset="1" stop-color="#009DB8"/>
</linearGradient>
<linearGradient id="paint8_linear_677_2644" x1="38.6797" y1="54.3086" x2="39.9848" y2="55.6201" gradientUnits="userSpaceOnUse">
<stop stop-color="#0ABD92"/>
<stop offset="1" stop-color="#009DB8"/>
</linearGradient>
<linearGradient id="paint9_linear_677_2644" x1="45.6152" y1="54.3086" x2="46.9203" y2="55.6201" gradientUnits="userSpaceOnUse">
<stop stop-color="#0ABD92"/>
<stop offset="1" stop-color="#009DB8"/>
</linearGradient>
<linearGradient id="paint10_linear_677_2644" x1="18.5537" y1="54.3086" x2="19.8588" y2="55.6201" gradientUnits="userSpaceOnUse">
<stop stop-color="#0ABD92"/>
<stop offset="1" stop-color="#009DB8"/>
</linearGradient>
<linearGradient id="paint11_linear_677_2644" x1="25.4883" y1="54.3086" x2="26.7934" y2="55.6201" gradientUnits="userSpaceOnUse">
<stop stop-color="#0ABD92"/>
<stop offset="1" stop-color="#009DB8"/>
</linearGradient>
<clipPath id="clip0_677_2644">
<rect width="64" height="64" fill="white" transform="translate(0.5 0.367188)"/>
</clipPath>
</defs>
</svg>
