<svg width="71" height="44" viewBox="0 0 71 44" fill="none" xmlns="http://www.w3.org/2000/svg">
<path d="M14.6121 13.2109C9.55691 13.2109 5.45312 17.3147 5.45312 22.3699C5.45312 27.4251 9.55691 31.5289 14.6121 31.5289C19.6673 31.5289 23.7711 27.4251 23.7711 22.3699C23.7711 17.3147 19.6673 13.2109 14.6121 13.2109ZM14.6121 30.1089C10.3521 30.1089 6.87313 26.6441 6.87313 22.3699C6.87313 18.1099 10.3379 14.6309 14.6121 14.6309C18.8863 14.6309 22.3511 18.0957 22.3511 22.3699C22.3511 26.6299 18.8863 30.1089 14.6121 30.1089Z" fill="url(#paint0_linear_677_2671)"/>
<path d="M14.6117 16.5078C11.3741 16.5078 8.74707 19.1348 8.74707 22.3724C8.74707 25.61 11.3741 28.237 14.6117 28.237C17.8493 28.237 20.4763 25.61 20.4763 22.3724C20.4905 19.1348 17.8493 16.5078 14.6117 16.5078ZM14.6117 26.817C12.1551 26.817 10.1671 24.829 10.1671 22.3724C10.1671 19.9158 12.1551 17.9278 14.6117 17.9278C17.0683 17.9278 19.0563 19.9158 19.0563 22.3724C19.0705 24.829 17.0683 26.817 14.6117 26.817Z" fill="url(#paint1_linear_677_2671)"/>
<path d="M46.4343 13.2109H34.3217C32.8023 13.2109 31.5811 14.4463 31.5811 15.9515V34.1133C31.5811 35.6185 32.8165 36.8539 34.3217 36.8539H46.4343C47.9395 36.8539 49.1749 35.6185 49.1749 34.1133V15.9515C49.1749 14.4463 47.9395 13.2109 46.4343 13.2109ZM47.7549 34.1133C47.7549 34.8375 47.1585 35.4339 46.4343 35.4339H34.3217C33.5975 35.4339 33.0011 34.8375 33.0011 34.1133V15.9515C33.0011 15.2273 33.5975 14.6309 34.3217 14.6309H46.4343C47.1585 14.6309 47.7549 15.2273 47.7549 15.9515V34.1133Z" fill="url(#paint2_linear_677_2671)"/>
<path d="M27.065 13.2109H23.515C23.1174 13.2109 22.805 13.5233 22.805 13.9209C22.805 14.3185 23.1174 14.6309 23.515 14.6309H27.065C27.8176 14.6309 28.4424 15.2415 28.4424 16.0083V29.6403C28.4424 30.3929 27.8318 31.0177 27.065 31.0177H21.8536C21.456 31.0177 21.1436 31.3301 21.1436 31.7277C21.1436 32.1253 21.456 32.4377 21.8536 32.4377H27.065C28.5986 32.4377 29.8624 31.1881 29.8624 29.6403V16.0083C29.8624 14.4605 28.6128 13.2109 27.065 13.2109Z" fill="url(#paint3_linear_677_2671)"/>
<path d="M70.2758 0.574219H18.6162C17.2956 0.574219 16.117 1.31262 15.549 2.50542C14.9668 3.69822 15.123 5.07562 15.9466 6.11222C16.0744 6.28262 16.2874 6.38202 16.5004 6.38202H50.9922L59.8956 16.109C60.0234 16.251 60.2222 16.3362 60.421 16.3362H64.5106C61.7274 25.5804 56.303 26.5034 54.528 26.5318V18.4804C54.528 12.8714 49.9698 8.32742 44.375 8.32742H14.0438C6.3048 8.32742 0 14.618 0 22.3712C0 28.9742 4.50141 34.6116 10.9482 36.06L41.2794 42.8902C42.0746 43.0748 42.884 43.16 43.6934 43.16C46.1358 43.16 48.5072 42.3364 50.4526 40.7744C51.8158 39.681 52.8666 38.3036 53.5624 36.77C55.6782 36.2588 67.4926 32.6804 68.586 16.322H70.29C70.6876 16.322 71 16.0096 71 15.612V1.27002C70.9858 0.886618 70.6592 0.574219 70.2758 0.574219ZM51.6738 32.297C51.6738 34.7536 50.5804 37.0256 48.6634 38.5592C46.7464 40.0928 44.2756 40.6608 41.89 40.1212L11.5588 33.291C6.4184 32.1266 2.82581 27.6394 2.82581 22.3712C2.82581 16.1942 7.8526 11.1674 14.0296 11.1674H44.3608C48.3936 11.1674 51.6738 14.4476 51.6738 18.4804V32.297ZM54.1162 35.1654C54.3718 34.2424 54.5138 33.291 54.5138 32.297V27.9234C56.7006 27.8382 63.0338 26.688 65.9874 16.322H67.1376C66.172 30.2238 57.3254 34.1856 54.1162 35.1654ZM69.5658 14.9162H60.7334L51.83 5.18922C51.7022 5.04722 51.5034 4.96202 51.3046 4.96202H16.8696C16.543 4.39402 16.5288 3.72662 16.8128 3.13022C17.1536 2.42022 17.821 2.00842 18.602 2.00842H69.5516V14.9162H69.5658Z" fill="url(#paint4_linear_677_2671)"/>
<defs>
<linearGradient id="paint0_linear_677_2671" x1="5.45313" y1="13.2109" x2="24.1375" y2="31.9869" gradientUnits="userSpaceOnUse">
<stop stop-color="#0ABD92"/>
<stop offset="1" stop-color="#009DB8"/>
</linearGradient>
<linearGradient id="paint1_linear_677_2671" x1="8.74707" y1="16.5078" x2="20.7109" y2="28.5303" gradientUnits="userSpaceOnUse">
<stop stop-color="#0ABD92"/>
<stop offset="1" stop-color="#009DB8"/>
</linearGradient>
<linearGradient id="paint2_linear_677_2671" x1="31.5811" y1="13.2109" x2="54.7134" y2="30.5091" gradientUnits="userSpaceOnUse">
<stop stop-color="#0ABD92"/>
<stop offset="1" stop-color="#009DB8"/>
</linearGradient>
<linearGradient id="paint3_linear_677_2671" x1="21.1436" y1="13.2109" x2="35.9439" y2="19.9554" gradientUnits="userSpaceOnUse">
<stop stop-color="#0ABD92"/>
<stop offset="1" stop-color="#009DB8"/>
</linearGradient>
<linearGradient id="paint4_linear_677_2671" x1="0" y1="0.574219" x2="38.2332" y2="64.6299" gradientUnits="userSpaceOnUse">
<stop stop-color="#0ABD92"/>
<stop offset="1" stop-color="#009DB8"/>
</linearGradient>
</defs>
</svg>
