<svg width="25" height="25" viewBox="0 0 25 25" fill="none" xmlns="http://www.w3.org/2000/svg">
<path fill-rule="evenodd" clip-rule="evenodd" d="M1.56232 0.436182C0.843128 0.628262 0.259682 1.19409 0.0679342 1.8854C0.0124167 2.0855 0.000893291 3.53444 0.000405011 10.3546C-0.000229754 19.437 -0.0195169 18.8685 0.307045 19.3924C0.610902 19.8798 1.13693 20.2271 1.72999 20.332C1.92311 20.3662 3.24562 20.3832 5.69727 20.3832H9.37481V19.8677V19.3521H5.57388H1.77301L1.55778 19.243C1.41647 19.1713 1.2923 19.0559 1.19611 18.9068L1.04962 18.6798L1.03663 10.5205C1.02731 4.66727 1.03898 2.28995 1.07794 2.10931C1.15426 1.75566 1.4443 1.47725 1.81266 1.40408C2.00153 1.36658 5.03619 1.35547 12.6463 1.36443L23.2176 1.37685L23.4129 1.47734C23.6363 1.59222 23.7296 1.68404 23.8586 1.91587C23.9469 2.07434 23.95 2.36106 23.95 10.3798V18.6798L23.8035 18.9068C23.7073 19.0559 23.5831 19.1713 23.4418 19.243C23.2465 19.342 23.1641 19.3521 22.5507 19.3521H21.8748V19.8677V20.3832H22.4273C22.7312 20.3832 23.1103 20.3602 23.2696 20.332C23.8627 20.2271 24.3887 19.8798 24.6926 19.3924C25.019 18.8687 24.9998 19.4328 24.9998 10.3921C24.9998 4.50636 24.9844 2.13181 24.9449 1.95332C24.7866 1.23703 24.1744 0.627277 23.4202 0.434495C23.0649 0.343658 1.9025 0.345298 1.56232 0.436182ZM3.12482 4.86878V5.38624L4.16241 5.37358L5.20001 5.36093V4.86878V4.37662L4.16241 4.36397L3.12482 4.35131V4.86878ZM7.29615 4.41529C7.28248 4.44946 7.27769 4.67618 7.28545 4.91916L7.29961 5.36093L8.84991 5.3733L10.4002 5.38567V4.86943V4.35319H8.8606C7.62745 4.35319 7.31602 4.36556 7.29615 4.41529ZM14.5956 5.45383C11.3509 5.97851 9.04146 8.90976 9.41919 12.0237C9.57759 13.3296 10.1141 14.4542 11.0754 15.4955L11.4744 15.9278V20.1475V24.3672L13.5496 23.3715L15.6248 22.3758L17.7 23.3715L19.7752 24.3672V20.148V15.929L20.2024 15.4622C20.9244 14.6735 21.3974 13.8455 21.6559 12.9185C22.6062 9.5098 20.2573 6.01853 16.6342 5.45448C16.099 5.37114 15.1087 5.37082 14.5956 5.45383ZM16.7613 6.4835C17.6531 6.6768 18.5043 7.10244 19.1504 7.67811C19.6714 8.14233 19.9747 8.536 20.2904 9.15752C21.1188 10.7888 20.9913 12.6668 19.9503 14.1686C18.8231 15.7949 16.7481 16.6293 14.6913 16.2835C11.6934 15.7795 9.81406 12.9234 10.5956 10.0591C11.1073 8.18358 12.6763 6.80771 14.7215 6.44094C15.1991 6.35526 16.2731 6.37766 16.7613 6.4835ZM3.12482 7.86855V8.38498L5.72491 8.37284L8.325 8.3607V7.86855V7.3764L5.72491 7.36426L3.12482 7.35212V7.86855ZM14.7945 8.47212C13.0468 8.92513 12.0819 10.7068 12.6808 12.3746C13.0047 13.2768 13.7008 13.9244 14.6727 14.2277C15.0011 14.3302 15.1527 14.3496 15.6248 14.3496C16.0978 14.3496 16.2479 14.3304 16.5769 14.2272C17.6688 13.8852 18.4444 13.0619 18.6816 11.9932C18.7743 11.5761 18.7484 10.8917 18.6249 10.4934C18.3112 9.48065 17.4751 8.72021 16.3836 8.45487C15.9877 8.35864 15.1992 8.36717 14.7945 8.47212ZM16.1394 9.44072C17.6656 9.81986 18.2136 11.6241 17.1351 12.7188C16.7081 13.1521 16.2306 13.3525 15.6248 13.3525C14.3545 13.3525 13.3526 12.2281 13.5748 11.0518C13.7959 9.88089 14.9621 9.14829 16.1394 9.44072ZM3.12482 10.8683V11.3839H5.20001H7.2752V10.8683V10.3527H5.20001H3.12482V10.8683ZM12.8794 16.7448C13.7442 17.1613 14.5976 17.3492 15.6248 17.3492C16.652 17.3492 17.5054 17.1613 18.3702 16.7448C18.5508 16.6578 18.71 16.5867 18.7242 16.5867C18.7383 16.5867 18.7498 17.9788 18.7498 19.6803V22.774L17.1873 22.0238L15.6248 21.2735L14.0623 22.0238L12.4998 22.774V19.6803C12.4998 17.9788 12.5113 16.5867 12.5254 16.5867C12.5395 16.5867 12.6988 16.6578 12.8794 16.7448Z" fill="url(#paint0_linear_677_2744)"/>
<defs>
<linearGradient id="paint0_linear_677_2744" x1="0" y1="0.367188" x2="24.4547" y2="25.9657" gradientUnits="userSpaceOnUse">
<stop stop-color="#0ABD92"/>
<stop offset="1" stop-color="#009DB8"/>
</linearGradient>
</defs>
</svg>
