<svg width="73" height="70" viewBox="0 0 73 70" fill="none" xmlns="http://www.w3.org/2000/svg">
<path fill-rule="evenodd" clip-rule="evenodd" d="M55.308 0.43913C51.7697 0.862589 48.378 2.39359 45.9782 4.65071C45.0376 5.53539 44.8901 6.05133 45.462 6.45503C45.9707 6.81432 46.2271 6.73674 47.064 5.97021C48.766 4.41148 51.0666 3.15039 53.3323 2.53445C54.3891 2.24713 54.9395 2.1958 56.991 2.19285C59.8123 2.18902 60.9864 2.43637 63.2369 3.50851C64.795 4.25085 65.5945 4.78095 66.8251 5.88761C67.7707 6.73792 68.0072 6.81713 68.52 6.45503C69.094 6.04986 68.9513 5.48052 68.077 4.68833C64.9905 1.89137 60.8644 0.304762 56.8447 0.36907C56.241 0.378657 55.5495 0.410221 55.308 0.43913ZM10.7064 3.90158C10.3552 4.26324 9.21879 6.59308 6.53268 12.4587C4.50252 16.8917 2.8416 20.6936 2.8416 20.9075C2.8416 21.5121 3.21596 22.2696 3.65925 22.5624C3.88097 22.7089 4.792 23.1708 5.68386 23.5891C6.68723 24.0596 7.28785 24.4229 7.25946 24.5421C7.23428 24.648 6.64771 25.9666 5.95607 27.4724C4.4911 30.6612 4.33392 31.4114 4.88844 32.566C5.06699 32.9377 5.42101 33.4017 5.67507 33.597C5.92914 33.7923 9.62681 35.578 13.8923 37.5653L21.6475 41.1785L21.6863 45.6385C21.7247 50.0501 21.7216 50.1022 21.4047 50.4421L21.0842 50.7858H15.4135H9.74257L9.68959 47.1353C9.63969 43.7063 9.61539 43.4311 9.2886 42.5998C8.80857 41.3785 7.48308 40.0459 6.28082 39.5756C5.09421 39.1114 1.45215 38.9542 0.864996 39.3419L0.5 39.5829V54.2519V68.921L0.864557 69.1617C1.17057 69.3637 1.5767 69.3938 3.3926 69.3493C5.49097 69.2977 5.58522 69.2816 6.52888 68.8134C7.74007 68.2125 8.83594 67.0479 9.30206 65.8668C9.61232 65.0803 9.64042 64.7554 9.68959 61.3686L9.74257 57.7181H15.4163C21.0086 57.7181 21.0939 57.7225 21.3687 58.0302C22.6976 59.5181 25.2028 60.0842 27.172 59.3417C28.3378 58.9022 29.4885 57.8097 30.0957 56.566C30.531 55.6747 30.5746 55.4626 30.5715 54.2546C30.5686 53.135 30.5076 52.7932 30.1859 52.0956C29.9756 51.6397 29.5655 51.001 29.2746 50.6765L28.7455 50.0864V47.3214C28.7455 44.7581 28.7642 44.5621 29.0016 44.6316C29.1425 44.6727 33.7559 46.8061 39.2537 49.3724C45.335 52.2111 49.4979 54.0727 49.8834 54.126C50.731 54.2431 51.8402 53.8603 52.4132 53.2531C52.6602 52.9912 53.0419 52.4119 53.2613 51.9658C53.4807 51.5196 53.6744 51.1377 53.692 51.1171C53.7094 51.0964 54.6399 51.511 55.7598 52.0383C59.3304 53.7195 59.1164 53.8795 62.1727 47.2456C64.3018 42.6243 64.5156 42.0862 64.5034 41.3825L64.49 40.6076L68.1677 37.4254C70.1904 35.6752 71.9983 34.0327 72.1849 33.7753C72.6782 33.0954 72.5793 31.9121 71.979 31.3138C71.6927 31.0284 67.0839 28.809 57.9423 24.5542C50.4565 21.0701 37.2521 14.9179 28.5992 10.8827C10.9669 2.66012 11.6524 2.92753 10.7064 3.90158ZM41.4154 18.7575C57.5886 26.2899 70.8211 32.5332 70.8211 32.6318C70.8211 32.8834 62.2396 40.3136 61.9489 40.3136C61.8179 40.3136 61.0604 40.0079 60.2656 39.6341C58.9192 39.0011 44.9038 32.47 28.7675 24.956C21.3264 21.4911 21.1246 21.4221 20.1638 22.0125C19.883 22.1851 19.5613 22.6005 19.3359 23.0813C19.1333 23.5139 18.6362 24.5815 18.2316 25.4535C17.8268 26.3255 17.4221 27.039 17.3323 27.039C17.1868 27.039 10.9577 24.1736 6.3174 21.9723C5.37169 21.5236 4.59779 21.0734 4.59779 20.972C4.59779 20.7131 11.7937 5.06223 11.9126 5.06223C11.9661 5.06223 25.2423 11.225 41.4154 18.7575ZM54.7226 6.31122C52.867 6.71904 50.5322 7.98736 49.5399 9.12632C49.0262 9.71585 48.9961 9.87898 49.316 10.3392C49.6745 10.8551 50.1774 10.747 51.1651 9.94152C52.9496 8.48633 54.7286 7.84664 56.991 7.84664C59.2624 7.84664 61.0474 8.48648 62.8118 9.93326C63.8659 10.7976 64.3678 10.8656 64.7399 10.1945C64.9436 9.82706 64.9374 9.76305 64.6609 9.38325C63.7885 8.18441 61.224 6.73836 59.2064 6.30738C58.0093 6.05163 55.8951 6.0534 54.7226 6.31122ZM55.1505 12.1419C54.7421 12.305 54.1293 12.6786 53.7889 12.9723C53.2731 13.4171 53.1774 13.5822 53.2146 13.9625C53.2449 14.2735 53.3808 14.4875 53.6411 14.6339C54.0025 14.8375 54.0707 14.8168 54.9181 14.2465C55.4104 13.9152 56.0782 13.599 56.4021 13.5438C57.3187 13.3878 58.0907 13.5916 59.0639 14.2465C59.9113 14.8168 59.9795 14.8375 60.341 14.6339C60.9568 14.2873 60.9343 13.6223 60.2874 13.05C59.3209 12.1947 58.6557 11.9445 57.2105 11.8926C56.1564 11.8548 55.7451 11.9045 55.1505 12.1419ZM39.1363 31.6825C48.8357 36.2013 56.7895 39.916 56.8114 39.9374C56.9143 40.0375 51.441 51.7513 51.1477 52.0584C50.5465 52.6881 50.1571 52.5665 44.8795 50.1035C39.6029 47.6408 25.1526 40.9122 13.891 35.6742C10.1079 33.9145 6.85129 32.3155 6.65401 32.1208C6.07066 31.545 6.18115 31.0521 7.57835 28.0009C8.28347 26.4612 8.88101 25.1805 8.90648 25.1549C8.9318 25.1294 10.6706 25.906 12.7704 26.8809C14.8702 27.8557 16.7581 28.6963 16.9657 28.7487C17.5423 28.8945 18.5846 28.4304 18.9222 27.8773C19.0798 27.619 19.5837 26.5781 20.0419 25.5641C20.9475 23.5601 21.1006 23.3055 21.3417 23.4022C21.4295 23.4375 29.437 27.1635 39.1363 31.6825ZM33.2319 34.6836C32.9178 35.0333 32.9235 35.4877 33.2458 35.7815C33.6021 36.1066 45.2226 41.4936 45.5672 41.4936C46.2867 41.4936 46.5918 40.356 45.9782 39.961C45.2074 39.4648 34.1385 34.4138 33.8218 34.4138C33.6305 34.4138 33.365 34.5352 33.2319 34.6836ZM31.4757 38.5185C31.2153 38.8083 31.1653 39.2394 31.3565 39.5433C31.5437 39.8405 43.3863 45.3285 43.8406 45.3285C44.4554 45.3285 44.8427 44.2726 44.3683 43.8892C43.9817 43.5767 32.3281 38.2487 32.0312 38.2487C31.8588 38.2487 31.6088 38.3701 31.4757 38.5185ZM60.0488 41.4198C60.9155 41.8201 61.6972 42.0836 62.019 42.0836C62.3123 42.0836 62.5523 42.116 62.5523 42.1558C62.5523 42.4567 58.4222 51.1641 58.2632 51.1979C58.1511 51.2218 57.2279 50.8454 56.2117 50.3613L54.364 49.4811L55.505 46.9992C56.1325 45.6341 57.0308 43.6709 57.5012 42.6367C57.9715 41.6024 58.414 40.7561 58.4844 40.7561C58.5546 40.7561 59.2587 41.0548 60.0488 41.4198ZM6.0929 41.3867C6.87236 41.848 7.4661 42.5578 7.755 43.3739C8.00438 44.0783 8.05618 64.0884 7.81076 64.9786C7.57162 65.8463 6.80855 66.7426 5.92431 67.1947C5.21085 67.5593 4.97801 67.6003 3.62032 67.6003H2.10985V54.236V40.8718L3.75628 40.925C5.23983 40.9731 5.47106 41.0187 6.0929 41.3867ZM25.288 42.8892L26.9893 43.695V46.4255V49.156L26.6139 49.0122C26.4074 48.9331 25.786 48.8684 25.2331 48.8684C24.6802 48.8684 24.0588 48.9331 23.8523 49.0122L23.4769 49.156V45.6198C23.4769 43.6749 23.5016 42.0836 23.5318 42.0836C23.5619 42.0836 24.3522 42.4461 25.288 42.8892ZM26.3407 50.7078C27.8678 51.1669 28.893 52.5889 28.8904 54.244C28.8873 56.2299 27.5342 57.7703 25.619 57.9679C24.1197 58.1227 22.7196 57.3718 21.9802 56.0161C20.9041 54.0428 21.9512 51.3781 24.0623 50.7175C24.9277 50.4467 25.4646 50.4444 26.3407 50.7078ZM19.9357 53.1089C19.782 53.6699 19.8449 55.3655 20.0371 55.8375C20.136 56.0804 19.8365 56.0956 14.9311 56.0956H9.72003V54.3257V52.5558H14.9036H20.0873L19.9357 53.1089ZM24.3657 53.5344C23.9694 54.0421 23.9818 54.5101 24.4051 55.0058C24.6499 55.2927 24.8863 55.4073 25.2331 55.4073C25.58 55.4073 25.8163 55.2927 26.0612 55.0058C26.4844 54.5101 26.4968 54.0421 26.1005 53.5344C25.8667 53.2345 25.6682 53.1457 25.2331 53.1457C24.798 53.1457 24.5996 53.2345 24.3657 53.5344Z" fill="url(#paint0_linear_677_2641)"/>
<defs>
<linearGradient id="paint0_linear_677_2641" x1="0.5" y1="0.367188" x2="70.8017" y2="74.0851" gradientUnits="userSpaceOnUse">
<stop stop-color="#0ABD92"/>
<stop offset="1" stop-color="#009DB8"/>
</linearGradient>
</defs>
</svg>
