<svg width="256" height="46" viewBox="0 0 256 46" fill="none" xmlns="http://www.w3.org/2000/svg">
<g clip-path="url(#clip0_804_5903)">
<path fill-rule="evenodd" clip-rule="evenodd" d="M22.5945 34.3808C24.0081 32.8889 24.7146 30.892 24.7146 28.387C24.7146 25.8836 24.0081 23.8857 22.5945 22.3939C21.1808 20.902 19.374 20.1567 17.1722 20.1567C14.9702 20.1567 13.1524 20.902 11.7224 22.3939C10.2901 23.8857 9.57394 25.8836 9.57394 28.387C9.57394 30.892 10.2901 32.8889 11.7224 34.3808C13.1524 35.8726 14.9702 36.6182 17.1722 36.6182C19.374 36.6182 21.1808 35.8726 22.5945 34.3808ZM8.77652 41.7278C6.29819 40.4207 4.36155 38.6068 2.96843 36.2865C1.57149 33.9669 0.875977 31.3343 0.875977 28.387C0.875977 25.4414 1.57149 22.8078 2.96843 20.4878C4.36155 18.1678 6.29819 16.3543 8.77652 15.0468C11.253 13.7404 14.052 13.0859 17.1722 13.0859C20.2906 13.0859 23.0806 13.7404 25.5403 15.0468C28 16.3543 29.9254 18.1678 31.3223 20.4878C32.7155 22.8078 33.413 25.4414 33.413 28.387C33.413 31.3343 32.7155 33.9669 31.3223 36.2865C29.9254 38.6068 28 40.4207 25.5403 41.7278C23.0806 43.0356 20.2906 43.6886 17.1722 43.6886C14.052 43.6886 11.253 43.0356 8.77652 41.7278Z" fill="#FEFEFE"/>
<path fill-rule="evenodd" clip-rule="evenodd" d="M66.0336 16.3997C68.2912 18.6097 69.4209 21.8875 69.4209 26.2324V43.2467H60.8321V27.5585C60.8321 25.2024 60.3165 23.4434 59.2906 22.2829C58.2628 21.1235 56.7753 20.5429 54.8313 20.5429C52.6645 20.5429 50.9392 21.2157 49.6558 22.5592C48.37 23.9041 47.7284 25.9014 47.7284 28.5523V43.2467H39.1396V13.5279H47.3425V17.0074C48.4796 15.7556 49.8932 14.7899 51.5831 14.1078C53.2692 13.4264 55.1242 13.0859 57.1426 13.0859C60.8135 13.0859 63.7779 14.1904 66.0336 16.3997Z" fill="#FEFEFE"/>
<path d="M77.7344 43.2464H84.6165V2.25781H77.7344V43.2464Z" fill="#FEFEFE"/>
<path d="M113.134 35.1828C114.787 33.4891 115.612 31.2604 115.612 28.4981C115.612 25.7362 114.787 23.5081 113.134 21.8145C111.483 20.121 109.391 19.2731 106.859 19.2731C104.326 19.2731 102.242 20.121 100.609 21.8145C98.9768 23.5081 98.1584 25.7362 98.1584 28.4981C98.1584 31.2604 98.9768 33.4891 100.609 35.1828C102.242 36.8764 104.326 37.7232 106.859 37.7232C109.391 37.7232 111.483 36.8764 113.134 35.1828ZM98.8209 41.7004C96.4331 40.4116 94.571 38.6167 93.2316 36.3142C91.8922 34.0139 91.2227 31.4083 91.2227 28.4981C91.2227 25.5889 91.8922 22.9937 93.2316 20.7092C94.571 18.4263 96.4331 16.6405 98.8209 15.3517C101.206 14.0626 103.885 13.418 106.859 13.418C109.867 13.418 112.565 14.0626 114.952 15.3517C117.338 16.6405 119.2 18.4263 120.539 20.7092C121.878 22.9937 122.55 25.5889 122.55 28.4981C122.55 31.4083 121.878 34.0139 120.539 36.3142C119.2 38.6167 117.338 40.4116 114.952 41.7004C112.565 42.9904 109.867 43.6341 106.859 43.6341C103.885 43.6341 101.206 42.9904 98.8209 41.7004Z" fill="#FEFEFE"/>
<path d="M148.644 35.1828C150.297 33.4891 151.122 31.2604 151.122 28.4981C151.122 25.7362 150.297 23.5081 148.644 21.8145C146.993 20.121 144.901 19.2731 142.368 19.2731C139.836 19.2731 137.751 20.121 136.119 21.8145C134.487 23.5081 133.669 25.7362 133.669 28.4981C133.669 31.2604 134.487 33.4891 136.119 35.1828C137.751 36.8764 139.836 37.7232 142.368 37.7232C144.901 37.7232 146.993 36.8764 148.644 35.1828ZM134.331 41.7004C131.943 40.4116 130.081 38.6167 128.742 36.3142C127.402 34.0139 126.732 31.4083 126.732 28.4981C126.732 25.5889 127.402 22.9937 128.742 20.7092C130.081 18.4263 131.943 16.6405 134.331 15.3517C136.716 14.0626 139.395 13.418 142.368 13.418C145.377 13.418 148.075 14.0626 150.462 15.3517C152.847 16.6405 154.71 18.4263 156.049 20.7092C157.389 22.9937 158.06 25.5889 158.06 28.4981C158.06 31.4083 157.389 34.0139 156.049 36.3142C154.71 38.6167 152.847 40.4116 150.462 41.7004C148.075 42.9904 145.377 43.6341 142.368 43.6341C139.395 43.6341 136.716 42.9904 134.331 41.7004Z" fill="#FEFEFE"/>
<path d="M176.668 30.5967L171.548 35.4571V43.2464H164.666V2.25781H171.548V27.0054L185.808 13.748H194.066L181.788 26.1224L195.222 43.2464H186.854L176.668 30.5967Z" fill="#FEFEFE"/>
<path d="M205.655 20.9026C204.132 22.2101 203.205 23.9505 202.874 26.1234H219.556C219.261 23.9875 218.364 22.2558 216.859 20.9306C215.353 19.6045 213.481 18.9418 211.242 18.9418C209.04 18.9418 207.178 19.5961 205.655 20.9026ZM225.999 30.7076H202.93C203.333 32.8812 204.388 34.6019 206.095 35.8732C207.801 37.1436 209.921 37.778 212.454 37.778C215.683 37.778 218.345 36.7107 220.438 34.5751L224.125 38.8279C222.804 40.4116 221.135 41.6094 219.117 42.4192C217.097 43.2296 214.822 43.6341 212.289 43.6341C209.059 43.6341 206.213 42.9904 203.755 41.7004C201.296 40.4116 199.396 38.6167 198.057 36.3142C196.717 34.0139 196.048 31.4083 196.048 28.4981C196.048 25.6254 196.699 23.0392 198.001 20.7369C199.305 18.4356 201.112 16.6405 203.425 15.3517C205.736 14.0626 208.343 13.418 211.242 13.418C214.106 13.418 216.666 14.0533 218.924 15.3237C221.182 16.5941 222.942 18.3809 224.209 20.6821C225.476 22.9834 226.108 25.645 226.108 28.6639C226.108 29.1432 226.071 29.8243 225.999 30.7076Z" fill="#FEFEFE"/>
<path d="M249.728 13.418V19.9917C249.14 19.8807 248.608 19.826 248.131 19.826C245.451 19.826 243.36 20.6086 241.856 22.173C240.349 23.7393 239.598 25.9938 239.598 28.9401V43.2473H232.716V13.749H239.268V18.0579C241.249 14.9643 244.737 13.418 249.728 13.418Z" fill="#FEFEFE"/>
</g>
<defs>
<clipPath id="clip0_804_5903">
<rect width="255" height="45.6875" fill="white" transform="translate(0.28125)"/>
</clipPath>
</defs>
</svg>
