<svg width="31" height="31" viewBox="0 0 31 31" fill="none" xmlns="http://www.w3.org/2000/svg">
<path fill-rule="evenodd" clip-rule="evenodd" d="M30.1138 0.297978V9.22646H29.1426V0.971206H20.8874V0H29.8159L30.1138 0.297978ZM14.0889 0.971206H5.83367V9.22646H4.86249V0.297978L5.16045 0H14.0889V0.971206ZM18.2166 2.97487C21.9511 3.48772 25.0463 6.03392 26.2217 9.56031C26.5907 10.6674 26.678 11.2537 26.678 12.6257C26.678 13.6889 26.6581 13.9628 26.5409 14.5074C26.3437 15.4244 26.0952 16.1351 25.6815 16.9658C25.202 17.9284 24.6396 18.7069 23.8617 19.4848C22.4972 20.8493 20.8309 21.7463 18.8843 22.1643C18.3404 22.2811 18.0643 22.3012 17.0025 22.3013C15.8838 22.3015 15.681 22.2851 14.9932 22.139C13.8438 21.8948 12.6401 21.4379 11.8247 20.9362L11.5203 20.7489L9.45123 22.8179L9.82764 23.21C10.4508 23.8589 10.6548 23.557 7.39671 26.8083C5.01594 29.1841 4.53373 29.6375 4.22361 29.7919C3.72143 30.0419 3.41392 30.115 2.86938 30.1138C1.25196 30.1103 0.00359471 28.8619 1.33891e-05 27.2445C-0.00113992 26.6999 0.0719494 26.3924 0.321974 25.8902C0.476396 25.5801 0.929767 25.0979 3.30558 22.7171C6.55686 19.459 6.25493 19.663 6.90388 20.2861L7.29595 20.6626L9.30379 18.6548L8.90099 18.04C8.1988 16.9683 7.72297 15.7948 7.45771 14.4805C7.2622 13.512 7.2656 11.6719 7.46457 10.744C7.66094 9.82837 7.90945 9.11714 8.3236 8.2856C8.80308 7.32296 9.36547 6.54447 10.1434 5.76654C11.5072 4.40278 13.1785 3.50053 15.0905 3.09608C15.7799 2.95028 17.5402 2.88199 18.2166 2.97487ZM17.822 3.92295C21.3569 4.30718 24.2422 6.63498 25.3081 9.96251C25.6201 10.9362 25.7066 11.5149 25.7066 12.6257C25.7066 13.7365 25.6201 14.3152 25.3081 15.2889C24.3262 18.3542 21.7747 20.6057 18.6011 21.2074C16.4855 21.6084 14.0753 21.1579 12.224 20.0154C11.3295 19.4633 11.4621 19.4118 9.98922 20.8834L8.74735 22.1241L7.99109 21.3679L9.219 20.1346C10.678 18.6693 10.6408 18.7589 10.0928 18.0317C6.98285 13.9045 7.97816 8.07164 12.268 5.28427C13.1292 4.72474 14.3398 4.24709 15.4243 4.03894C15.9357 3.94079 17.3546 3.87214 17.822 3.92295ZM17.8827 4.89324C18.9214 5.04554 19.6987 5.28719 20.5459 5.72126C22.0772 6.50581 23.2382 7.69851 23.9878 9.25681C24.8399 11.0283 24.9993 12.8731 24.4678 14.8109C24.2933 15.4473 23.6999 16.6336 23.258 17.2296C22.1035 18.7866 20.4484 19.8399 18.5014 20.2567C17.8057 20.4057 16.1916 20.4061 15.5037 20.2576C12.3668 19.5804 10.0378 17.2571 9.37421 14.1432C9.22252 13.4313 9.22088 11.8262 9.37111 11.1269C10.0406 8.01124 12.3406 5.69594 15.4547 5.00287C15.8663 4.91121 17.5019 4.8374 17.8827 4.89324ZM18.0475 5.92138C20.6457 6.32595 22.7853 8.2178 23.5228 10.7628C24.4399 13.9276 22.8852 17.3577 19.8993 18.757C16.1017 20.5366 11.6491 18.515 10.4799 14.4803C9.8084 12.163 10.4668 9.59455 12.1769 7.86016C13.6991 6.3163 15.9051 5.58778 18.0475 5.92138ZM17.822 9.77513C18.8195 9.93065 19.3975 10.2009 21.342 11.421C23.3342 12.671 23.3353 12.5825 21.3112 13.8572C18.9604 15.3377 18.5378 15.4988 17.0025 15.4988C15.4673 15.4988 15.0447 15.3377 12.6939 13.8572C10.6494 12.5697 10.6426 12.6863 12.8425 11.3109C14.9026 10.0229 15.4712 9.79735 16.7901 9.7449C17.1573 9.73034 17.6217 9.74393 17.822 9.77513ZM18.3987 10.9192C18.5823 10.9785 18.8554 11.0891 19.0057 11.1649C19.3566 11.3421 21.3712 12.5856 21.3721 12.6257C21.3732 12.6729 19.4439 13.8648 19.036 14.0688C18.6484 14.2627 18.0911 14.4467 17.8916 14.4467C17.8067 14.4467 17.8571 14.3895 18.0613 14.2543C19.2275 13.4819 19.2275 11.7695 18.0613 10.997C17.817 10.8353 17.7942 10.8052 17.9178 10.8079C17.9986 10.8097 18.215 10.8598 18.3987 10.9192ZM15.9438 10.997C14.7776 11.7695 14.7776 13.4819 15.9438 14.2543C16.1479 14.3895 16.1984 14.4467 16.1135 14.4467C15.9162 14.4467 15.3588 14.2645 14.9742 14.0742C14.5767 13.8776 12.6315 12.6738 12.6336 12.6257C12.6357 12.5779 14.5646 11.3867 14.9691 11.1834C15.3558 10.9891 15.9131 10.8047 16.1135 10.8047C16.1984 10.8047 16.1479 10.8619 15.9438 10.997ZM17.4298 11.7911C17.7213 11.9381 17.9738 12.3254 17.9738 12.6257C17.9738 12.926 17.7213 13.3133 17.4298 13.4603C17.2808 13.5355 17.0886 13.5969 17.0025 13.5969C16.9165 13.5969 16.7243 13.5355 16.5753 13.4603C16.2838 13.3133 16.0313 12.926 16.0313 12.6257C16.0313 12.3254 16.2838 11.9381 16.5753 11.7911C16.7243 11.7159 16.9165 11.6545 17.0025 11.6545C17.0886 11.6545 17.2808 11.7159 17.4298 11.7911ZM30.1138 24.9534L29.8159 25.2514H20.8874V24.2802H29.1426V16.0249H30.1138V24.9534ZM7.68516 22.4593L9.01966 23.7948L6.5313 26.2853C3.69272 29.1265 3.71719 29.1075 2.88972 29.1021C2.31349 29.0983 1.9383 28.9464 1.55286 28.561C1.17761 28.1857 1.01747 27.7987 1.01231 27.2545C1.00424 26.402 0.927825 26.502 3.76102 23.658C5.14958 22.2642 6.30028 21.1237 6.31812 21.1237C6.33603 21.1237 6.95117 21.7247 7.68516 22.4593Z" fill="url(#paint0_linear_804_5930)"/>
<defs>
<linearGradient id="paint0_linear_804_5930" x1="0" y1="0" x2="30.7161" y2="30.8667" gradientUnits="userSpaceOnUse">
<stop stop-color="#0ABD92"/>
<stop offset="1" stop-color="#009DB8"/>
</linearGradient>
</defs>
</svg>
