<svg width="33" height="42" viewBox="0 0 33 42" fill="none" xmlns="http://www.w3.org/2000/svg">
<path fill-rule="evenodd" clip-rule="evenodd" d="M2.78926 0.146462C2.12012 0.307582 1.60938 0.597629 1.09048 1.11102C0.562375 1.63362 0.24283 2.20883 0.0959 2.90151C-0.0319667 3.50411 -0.0319667 37.566 0.0959 38.1686C0.387659 39.5438 1.51043 40.6569 2.8975 40.9461C3.4563 41.0626 29.2653 41.0733 29.8825 40.9572C30.8947 40.7669 31.9866 39.9374 32.4149 39.0334C32.8022 38.216 32.8105 38.0461 32.7845 31.4659L32.7601 25.2998L32.5641 24.9606C32.323 24.5432 32.0568 24.3597 30.8215 23.7591L29.8522 23.2878V21.411V19.5341L30.6711 19.4802C31.6005 19.419 31.9787 19.2729 32.3796 18.8202C32.5174 18.6647 32.6682 18.4014 32.7148 18.2349C32.7631 18.0627 32.7997 17.1033 32.8 16.0063C32.8004 14.0891 32.7995 14.0781 32.5891 13.6598C32.473 13.4286 32.2864 13.1783 32.1746 13.1035C32.0628 13.0288 31.1863 12.5532 30.2267 12.0467C28.9839 11.3906 28.453 11.0682 28.3808 10.9255C28.3105 10.7868 28.2791 10.2687 28.2783 9.23627C28.2771 7.84649 28.2662 7.73743 28.1145 7.60129C27.8915 7.40133 27.5007 7.41535 27.283 7.63124C27.1123 7.80069 27.1058 7.86603 27.1058 9.42638C27.1058 11.2314 27.1511 11.4643 27.5868 11.8961C27.7424 12.0505 28.5849 12.5435 29.5428 13.0407C30.4682 13.5211 31.3071 13.9867 31.4071 14.0754C31.5854 14.2337 31.5888 14.2705 31.5888 16.0557C31.5888 18.3432 31.6573 18.2146 30.4002 18.2881C29.5846 18.3358 29.4804 18.3602 29.2061 18.5675C28.6463 18.9909 28.604 19.1923 28.6019 21.4392C28.5996 24.0818 28.5596 24.0027 30.3409 24.8836C30.9207 25.1704 31.4396 25.4582 31.4939 25.5231C31.5703 25.6144 31.5877 27.043 31.5706 31.8368C31.5488 37.9438 31.546 38.0376 31.3783 38.3969C31.1297 38.9296 30.7503 39.3176 30.2304 39.5707L29.7714 39.7942H16.4031H3.03489L2.57593 39.5707C2.05598 39.3176 1.67658 38.9296 1.42796 38.3969L1.25785 38.0324V20.5351V3.03773L1.48321 2.58272C1.73854 2.06725 2.12989 1.69111 2.66729 1.44463C3.03457 1.27614 3.04354 1.27598 14.0203 1.25484C26.3389 1.23106 25.5063 1.19278 26.2204 1.81596C26.42 1.99013 26.6826 2.30028 26.804 2.50512C27.0137 2.85891 27.0267 2.94235 27.0653 4.17061C27.1006 5.29517 27.1258 5.48559 27.2597 5.63206C27.4635 5.85508 27.898 5.85596 28.122 5.63382C28.2817 5.47558 28.2888 5.39695 28.2634 4.09229L28.2367 2.71741L27.9455 2.11681C27.6148 1.43478 27.0435 0.819769 26.4362 0.492085C25.5499 0.0137705 26.1041 0.0341107 14.1447 0.0415581C5.80168 0.0467632 3.09951 0.071748 2.78926 0.146462ZM4.40556 3.15953C4.10686 3.2497 3.81833 3.50587 3.71655 3.77133C3.67479 3.88024 3.64071 5.17336 3.64071 6.65051C3.64071 9.55859 3.64765 9.60928 4.09426 9.95755C4.29506 10.1141 4.40888 10.1248 5.881 10.1248H7.45328L7.72065 9.85969C7.91055 9.67142 8.00336 9.49148 8.04092 9.23907C8.07 9.04352 8.08236 7.74672 8.06838 6.35734C8.04569 4.10511 8.02751 3.80769 7.90045 3.61574C7.60037 3.16201 7.441 3.11925 5.98698 3.10171C5.25184 3.09282 4.54022 3.11885 4.40556 3.15953ZM10.1234 3.15192C9.80335 3.232 9.64317 3.35788 9.49156 3.64857C9.39754 3.82883 9.37573 4.39171 9.37573 6.6413C9.37573 9.68255 9.38711 9.76199 9.85771 10.0033C10.2013 10.1794 12.912 10.1794 13.2556 10.0033C13.7265 9.76183 13.7376 9.68408 13.7372 6.62528C13.7368 2.93683 13.8488 3.13198 11.7182 3.10387C10.9852 3.09426 10.2675 3.1158 10.1234 3.15192ZM15.8069 3.15729C15.4764 3.26011 15.2043 3.53983 15.1111 3.87264C15.0039 4.25525 15.006 9.03503 15.1136 9.41893C15.159 9.58125 15.307 9.80644 15.4424 9.91943C15.688 10.1243 15.6922 10.1248 17.2466 10.1248C18.7043 10.1248 18.8184 10.1139 19.019 9.95755C19.4659 9.60912 19.4726 9.55979 19.4726 6.63738C19.4726 2.97503 19.5644 3.12958 17.3724 3.10179C16.6394 3.0925 15.935 3.11749 15.8069 3.15729ZM21.4546 3.19372C21.0891 3.32746 20.8699 3.5713 20.803 3.9186C20.7775 4.05073 20.7677 5.37789 20.781 6.86776L20.8054 9.57669L21.1071 9.85072L21.4088 10.1248L22.9245 10.1244C24.2829 10.1242 24.467 10.108 24.6976 9.9686C25.1693 9.68343 25.1672 9.69841 25.1672 6.63778C25.1672 3.55728 25.1719 3.58851 24.6649 3.25907C24.3642 3.06359 21.9451 3.01434 21.4546 3.19372ZM6.85272 6.62128L6.87421 8.92356H5.86323H4.85233V6.65467C4.85233 5.40672 4.87769 4.36064 4.90863 4.32997C4.93957 4.29922 5.3848 4.28424 5.89812 4.29658L6.83132 4.319L6.85272 6.62128ZM12.5259 6.60126V8.92356H11.5566H10.5873V6.60126V4.27896H11.5566H12.5259V6.60126ZM18.242 6.62128L18.2635 8.92356H17.2525H16.2416V6.65467C16.2416 5.40672 16.267 4.36064 16.2979 4.32997C16.3288 4.29922 16.7741 4.28424 17.2874 4.29658L18.2206 4.319L18.242 6.62128ZM23.977 6.62128L23.9985 8.92356H22.9875H21.9766V6.59878V4.27399L22.9661 4.2965L23.9556 4.319L23.977 6.62128ZM5.43609 25.3491C5.02592 25.5504 4.63707 25.9922 4.52802 26.3809C4.48472 26.535 4.44918 27.459 4.44894 28.434C4.44854 30.0381 4.46267 30.2243 4.5974 30.3893C4.81299 30.6533 5.22559 30.6364 5.4709 30.3537C5.65653 30.1397 5.66008 30.1038 5.66008 28.4184C5.66008 26.8079 5.6701 26.6913 5.82163 26.541C5.98148 26.3825 6.09085 26.3809 16.4031 26.3809C26.7154 26.3809 26.8248 26.3825 26.9847 26.541C27.1425 26.6975 27.1462 26.8079 27.1462 31.3769C27.1462 35.8614 27.1399 36.0605 26.9918 36.2418L26.8374 36.4308H16.4031H5.96888L5.81452 36.2418C5.67325 36.0689 5.66008 35.9072 5.66008 34.3507C5.66008 32.7501 5.65014 32.6361 5.49263 32.4377C5.28286 32.1732 4.85055 32.1483 4.61001 32.3868C4.45783 32.5377 4.44846 32.6537 4.44846 34.3914C4.44846 36.3984 4.48521 36.6076 4.91719 37.0588C5.03698 37.1839 5.28044 37.3641 5.45814 37.4592L5.78124 37.632H16.4031H27.025L27.3481 37.4592C27.5258 37.3641 27.7693 37.1839 27.8891 37.0588C28.3674 36.5592 28.3578 36.6734 28.3578 31.4577C28.3578 28.1093 28.3302 26.5884 28.2657 26.3746C28.1392 25.9561 27.7799 25.5471 27.3631 25.347C27.0149 25.1799 27.0015 25.1797 16.3978 25.1798L5.78124 25.1798L5.43609 25.3491Z" fill="url(#paint0_linear_677_3053)"/>
<defs>
<linearGradient id="paint0_linear_677_3053" x1="0" y1="0.0390625" x2="40.8438" y2="32.8743" gradientUnits="userSpaceOnUse">
<stop stop-color="#0ABD92"/>
<stop offset="1" stop-color="#009DB8"/>
</linearGradient>
</defs>
</svg>
