<svg width="50" height="51" viewBox="0 0 50 51" fill="none" xmlns="http://www.w3.org/2000/svg">
<path fill-rule="evenodd" clip-rule="evenodd" d="M1.46988 0.956586C0.999244 1.16157 0.364802 1.80634 0.166384 2.28109C0.0408333 2.58147 0.00715767 3.70779 0.00715767 7.60316V12.5441L0.350135 12.8871C0.857266 13.3942 1.53113 13.3723 2.07229 12.8311L2.47124 12.4322V7.84428V3.2564H7.05913H11.647L12.046 2.85745C12.5871 2.31629 12.6091 1.64242 12.1019 1.13529L11.759 0.792314L6.79242 0.79689C2.94141 0.80041 1.74598 0.836316 1.46988 0.956586ZM37.9017 1.13165C37.3908 1.64254 37.4112 2.31465 37.954 2.85745L38.353 3.2564H42.9409H47.5288V7.84428V12.4322L47.9277 12.8311C48.4705 13.3739 49.1426 13.3943 49.6535 12.8835L50 12.537L49.9671 7.44651L49.9342 2.35607L49.6134 1.89681C49.437 1.6443 49.0977 1.30566 48.8595 1.14433L48.4263 0.850983L43.3372 0.818011L38.2482 0.785156L37.9017 1.13165ZM4.10493 4.89008C3.83282 5.16219 3.76195 5.33679 3.76195 5.73456C3.76195 6.2289 3.79398 6.26821 5.98889 8.47169L8.21584 10.7073H8.75594C9.21766 10.7073 9.34568 10.6517 9.63844 10.3241C10.021 9.89604 10.0806 9.41954 9.81515 8.91205C9.72398 8.73781 8.72778 7.68435 7.60134 6.57118L5.55322 4.54711H5.00056C4.54623 4.54711 4.38689 4.60812 4.10493 4.89008ZM42.3135 6.77405C40.0808 8.99794 40.0778 9.0017 40.0778 9.52197C40.0778 9.91106 40.1494 10.1192 40.3606 10.344C40.6717 10.6752 41.2552 10.8345 41.681 10.7046C42.0077 10.605 45.8314 6.85666 46.0713 6.40104C46.5395 5.51162 46.0084 4.54711 45.0506 4.54711C44.5563 4.54711 44.5169 4.57914 42.3135 6.77405ZM10.7304 10.881C10.3461 11.0363 9.98083 11.5797 9.98083 11.9963C9.98083 12.6124 11.2744 14.1146 12.0632 14.4145C12.9852 14.765 13.9279 13.8951 13.6832 12.9198C13.5933 12.5616 12.3033 11.173 11.8348 10.9303C11.4818 10.7473 11.103 10.7304 10.7304 10.881ZM38.3178 10.8749C38.1887 10.9326 37.6871 11.3819 37.2031 11.8732C36.377 12.7119 36.323 12.7983 36.323 13.2823C36.323 14.1759 37.1881 14.7499 38.0172 14.4064C38.4359 14.2329 39.8351 12.8039 39.9545 12.4277C40.0848 12.017 39.933 11.4228 39.6235 11.1321C39.3154 10.8426 38.673 10.716 38.3178 10.8749ZM22.8293 13.0688C17.8932 13.8108 12.6324 16.135 8.06389 19.5921C6.7909 20.5553 4.50775 22.8462 3.90721 23.7627C2.93484 25.2467 2.73924 26.2797 3.21281 27.4307C3.66433 28.5279 4.3362 29.4231 5.80902 30.8893C9.13271 34.1981 14.3895 37.2387 19.1936 38.6308C21.609 39.3308 22.427 39.4456 25 39.4456C27.0397 39.4456 27.5855 39.4064 28.5897 39.1878C31.3093 38.5958 33.3213 37.8842 35.971 36.5768C39.3125 34.9281 41.938 33.1172 44.132 30.948C46.0683 29.0336 47.05 27.4694 47.0566 26.2883C47.0769 22.6812 38.4354 16.0445 30.8965 13.8774C28.6619 13.235 27.7651 13.101 25.4107 13.0573C24.1845 13.0346 23.0229 13.0397 22.8293 13.0688ZM26.9978 15.5794C30.7942 16.037 35.2953 17.9083 39.2384 20.6683C42.4586 22.9224 44.7839 25.4629 44.5418 26.4629C44.0571 28.4657 38.6455 32.7539 33.9257 34.8752C27.2143 37.8915 21.731 37.7254 14.909 34.2991C11.04 32.356 7.25039 29.4103 5.84246 27.2519C5.3832 26.5478 5.34131 26.2247 5.6316 25.6252C6.70137 23.4153 11.5935 19.6537 15.9571 17.686C20.0465 15.8418 23.5809 15.1674 26.9978 15.5794ZM23.4468 17.4501C19.0186 18.2595 15.85 22.2713 16.1219 26.7239C16.2057 28.0955 16.4324 28.9672 17.0222 30.1853C18.1165 32.4451 20.2794 34.218 22.7706 34.8971C23.8247 35.1843 26.1783 35.1839 27.2294 34.8962C29.7412 34.2085 31.8476 32.4811 32.9737 30.1853C33.5661 28.9776 33.7936 28.1064 33.8781 26.7239C34.1285 22.6223 31.5455 18.9521 27.5228 17.6932C26.6022 17.4053 24.4083 17.2743 23.4468 17.4501ZM26.056 19.9251C26.493 19.9951 27.2367 20.2489 27.7974 20.5194C31.7397 22.4206 32.6202 27.6692 29.5175 30.772C28.2957 31.9938 26.7533 32.6272 25 32.6272C22.1035 32.6272 19.6654 30.7818 18.8281 27.9559C18.549 27.0143 18.5518 25.3599 18.834 24.4944C19.4348 22.652 20.5765 21.3047 22.2051 20.5164C23.5677 19.8569 24.6218 19.695 26.056 19.9251ZM24.3374 20.8483C24.1127 20.9854 23.9135 21.2394 23.8284 21.4971C23.7069 21.865 23.7203 21.9848 23.9302 22.4091C24.0632 22.6778 24.1602 22.9037 24.1459 22.9111C24.1317 22.9186 23.8956 23.0097 23.6213 23.1135C23.1395 23.2958 23.1226 23.2943 23.1226 23.0711C23.1226 22.4297 22.5392 21.913 21.8146 21.913C21.2784 21.913 20.6585 22.5736 20.6585 23.1451C20.6585 23.6832 21.2798 24.3771 21.7615 24.3771C22.0622 24.3771 22.1696 24.5342 21.9583 24.6648C21.8987 24.7017 21.8152 24.8896 21.7729 25.0824C21.6836 25.4892 21.6365 25.5051 21.3331 25.2305C21.202 25.1119 20.9205 25.0277 20.6542 25.0277C19.5036 25.0277 18.9642 26.3309 19.7779 27.1446C20.1181 27.4848 20.9244 27.5338 21.344 27.2399C21.4916 27.1365 21.6237 27.0705 21.6376 27.0932C21.7093 27.2105 22.0666 28.0302 22.0666 28.0772C22.0666 28.1073 21.9213 28.1331 21.7439 28.1345C20.7888 28.1422 20.3263 29.3991 21.0009 30.1541C21.2948 30.4831 21.4207 30.5373 21.8906 30.5373C22.3604 30.5373 22.4863 30.4831 22.7802 30.1541C22.9685 29.9434 23.1226 29.6398 23.1226 29.4794C23.1226 29.3191 23.1472 29.1879 23.1773 29.1879C23.2294 29.1879 24.0669 29.5564 24.1682 29.6237C24.1946 29.6414 24.1357 29.7486 24.0372 29.8619C23.3951 30.6009 24.0064 31.8867 25 31.8867C25.9936 31.8867 26.6049 30.6009 25.9628 29.8619C25.8643 29.7486 25.8054 29.6414 25.8318 29.6237C25.9331 29.5564 26.7706 29.1879 26.8227 29.1879C26.8528 29.1879 26.8774 29.3191 26.8774 29.4794C26.8774 29.6398 27.0315 29.9434 27.2198 30.1541C27.5137 30.4831 27.6396 30.5373 28.1094 30.5373C28.5793 30.5373 28.7052 30.4831 28.9991 30.1541C29.7022 29.3672 29.1912 28.1319 28.1626 28.1319C28.0366 28.1319 27.9334 28.1073 27.9334 28.0772C27.9334 28.0302 28.2907 27.2105 28.3624 27.0932C28.3763 27.0705 28.5084 27.1365 28.656 27.2399C29.0098 27.4877 29.8025 27.4769 30.1198 27.22C30.7066 26.7445 30.7959 25.9978 30.3318 25.4462C29.9204 24.9572 29.3587 24.8612 28.8087 25.1858C28.5781 25.3218 28.3702 25.4331 28.3467 25.4331C28.3232 25.4331 28.2695 25.2753 28.2271 25.0824C28.1848 24.8896 28.1013 24.7017 28.0417 24.6648C27.8304 24.5342 27.9378 24.3771 28.2385 24.3771C28.7202 24.3771 29.3415 23.6832 29.3415 23.1451C29.3415 22.5638 28.7221 21.913 28.1686 21.913C27.4802 21.913 26.8774 22.459 26.8774 23.0825C26.8774 23.2923 26.8551 23.2937 26.3787 23.1135C26.1045 23.0097 25.8683 22.9186 25.8541 22.9111C25.8398 22.9037 25.9368 22.6778 26.0698 22.4091C26.2797 21.9848 26.2931 21.865 26.1716 21.4971C26.017 21.0284 25.4737 20.6231 25 20.6231C24.8387 20.6231 24.5405 20.7245 24.3374 20.8483ZM25.6506 25.6039C26.1185 26.0716 26.0241 26.7303 25.4466 27.0289C24.7774 27.3751 24.0613 26.9584 24.0613 26.2231C24.0613 25.7731 24.5344 25.3158 25 25.3158C25.2286 25.3158 25.4691 25.4222 25.6506 25.6039ZM11.6705 37.3837C11.0092 37.8666 10.1201 38.8572 10.0315 39.2102C9.78839 40.1789 10.7347 41.0472 11.6532 40.698C12.0496 40.5474 12.9562 39.7266 13.4021 39.1147C13.8717 38.4703 13.8519 37.9637 13.3367 37.4485C12.8212 36.933 12.3147 36.9133 11.6705 37.3837ZM37.0857 37.1324C36.5233 37.338 36.1401 38.1158 36.3207 38.6849C36.4283 39.0239 37.5977 40.2696 38.0993 40.5797C38.8521 41.045 39.813 40.6345 39.9734 39.7793C40.0677 39.2767 39.9221 38.9544 39.2884 38.2633C38.3447 37.234 37.7055 36.9058 37.0857 37.1324ZM0.346497 38.6869L0 39.0334L0.0328547 44.1238L0.0658263 49.2142L0.386627 49.6735C0.562985 49.926 0.902324 50.2646 1.14052 50.426L1.57373 50.7193L6.66276 50.7523L11.7518 50.7852L12.0983 50.4387C12.6092 49.9278 12.5888 49.2557 12.046 48.7129L11.647 48.3139H7.05913H2.47124V43.726V39.1381L2.07229 38.7392C1.52949 38.1964 0.857383 38.176 0.346497 38.6869ZM48.1647 38.4746C48.0305 38.5397 47.8325 38.7422 47.7247 38.9247C47.5508 39.2192 47.5288 39.7652 47.5288 43.7852V48.3139H43C38.9854 48.3139 38.4338 48.3361 38.1406 48.5093C37.4595 48.9116 37.3399 49.8769 37.9017 50.4387L38.2482 50.7852L43.3372 50.7523L48.4263 50.7193L48.8595 50.426C49.0977 50.2646 49.437 49.926 49.6134 49.6735L49.9342 49.2142L49.9671 44.1238L50 39.0334L49.6535 38.6869C49.3855 38.4189 49.205 38.342 48.8578 38.3482C48.6108 38.3526 48.299 38.4094 48.1647 38.4746ZM8.27944 40.9128C8.15037 40.9702 7.08107 41.9891 5.90336 43.1768C3.79856 45.2993 3.76195 45.3448 3.76195 45.8367C3.76195 46.7936 4.72693 47.3243 5.61588 46.8565C6.0715 46.6165 9.81984 42.7928 9.91946 42.4662C10.0458 42.052 9.89294 41.4597 9.58517 41.1704C9.27727 40.8812 8.63497 40.7545 8.27944 40.9128ZM40.7687 40.9193C40.3844 41.0747 40.0192 41.6181 40.0192 42.0346C40.0192 42.2672 40.1495 42.5874 40.3589 42.8695C40.7536 43.4011 43.929 46.5471 44.3575 46.831C44.8852 47.1807 45.8345 46.9713 46.1172 46.443C46.2885 46.123 46.2669 45.5405 46.07 45.1693C45.8688 44.7899 42.1826 41.1199 41.8163 40.9342C41.518 40.7831 41.1199 40.7775 40.7687 40.9193Z" fill="url(#paint0_linear_677_2402)"/>
<defs>
<linearGradient id="paint0_linear_677_2402" x1="0" y1="0.785156" x2="51" y2="52.0352" gradientUnits="userSpaceOnUse">
<stop stop-color="#0ABD92"/>
<stop offset="1" stop-color="#009DB8"/>
</linearGradient>
</defs>
</svg>
