<svg width="38" height="28" viewBox="0 0 38 28" fill="none" xmlns="http://www.w3.org/2000/svg">
<path fill-rule="evenodd" clip-rule="evenodd" d="M30.3648 0.0948971C27.1732 0.66944 25.0083 3.11466 25.1896 5.94049C25.2724 7.2333 25.7471 8.26901 26.727 9.2952C27.7065 10.321 28.989 10.9227 30.8659 11.2371L31.033 11.2651V17.7439V24.2227H30.2882C29.4554 24.2227 29.2017 24.2887 28.7774 24.6154C28.2548 25.0179 28.1802 25.2296 28.1506 26.3931C28.1324 27.1086 28.1523 27.4831 28.2157 27.6174C28.3936 27.9943 28.4443 28 31.6221 28H34.5199L34.7624 27.8102L35.0049 27.6203L35.0289 26.671C35.057 25.5569 34.9642 25.1762 34.5642 24.7662C34.1546 24.3465 33.7731 24.2227 32.8894 24.2227H32.1458L32.1648 17.7308L32.1837 11.2389L32.7603 11.1534C34.8679 10.8412 36.775 9.45697 37.5687 7.6634C38.8625 4.73989 37.1428 1.41031 33.784 0.335734C32.7411 0.00202743 31.4038 -0.092145 30.3648 0.0948971ZM33.0375 1.13613C35.4357 1.78238 37.0262 3.75075 36.8768 5.88741C36.6445 9.20715 32.6789 11.2502 29.2883 9.79686C28.9208 9.63932 28.4296 9.37589 28.1968 9.21138C27.4558 8.68803 26.7732 7.76773 26.4548 6.86293C26.3503 6.56576 26.3194 6.27152 26.322 5.59662C26.3248 4.80983 26.3467 4.66265 26.5304 4.19641C27.1641 2.5874 28.6049 1.44392 30.4762 1.06482C31.0594 0.946682 32.4813 0.986278 33.0375 1.13613ZM0.182595 2.95608C-0.0497045 3.1598 -0.0497045 3.40949 0.182595 3.6132L0.364782 3.77309H9.93375C19.1097 3.77309 19.5077 3.77797 19.6255 3.89221C19.931 4.18833 19.8544 4.28192 17.9698 5.9132C16.236 7.41383 16.188 7.46248 16.0676 7.83859C15.9078 8.33765 15.9623 8.81365 16.2284 9.24258C16.471 9.63359 18.2455 11.1796 19.1198 11.7617C21.0481 13.0454 23.0879 13.8377 25.3907 14.1973C25.8623 14.2709 25.8834 14.2831 26.3187 14.7301C26.7514 15.1746 27.097 15.6081 27.0978 15.7074C27.0981 15.7343 26.3526 15.7563 25.4413 15.7563C24.1878 15.7563 23.6934 15.78 23.411 15.8536C22.5112 16.0879 21.9014 16.8135 21.9014 17.6496C21.9014 18.4761 22.5124 19.2022 23.403 19.4342C23.6673 19.5031 24.1107 19.5336 24.8474 19.5336C25.432 19.5336 25.9103 19.541 25.9102 19.5499C25.9101 19.5588 25.5299 20.6013 25.0651 21.8666C24.1529 24.3505 24.08 24.4816 23.5389 24.6135C23.3018 24.6713 20.9362 24.7103 20.9362 24.6564C20.9362 24.6442 21.0056 24.4024 21.0905 24.1191C21.2037 23.7411 21.2448 23.4047 21.2448 22.855C21.2448 21.9237 21.0798 21.3295 20.5889 20.4927C19.9403 19.3869 18.6297 18.3987 17.2984 18.0115C15.8455 17.5889 14.3594 17.6534 13.0178 18.1971C10.8725 19.0666 9.57405 20.8426 9.57866 22.9011C9.57977 23.3937 9.62936 23.6887 9.85283 24.532L9.89165 24.6786H5.09986H0.308062L0.154235 24.8502C-0.0499272 25.0778 -0.0401274 25.3003 0.182595 25.4956L0.364782 25.6555L5.43513 25.6594L10.5054 25.6633L10.8395 26.0481C11.4033 26.6975 12.4567 27.3833 13.3316 27.6705C14.4571 28.0399 15.9651 28.0935 17.0386 27.8023C18.1915 27.4896 19.3325 26.8165 20.0003 26.0553L20.3433 25.6643L22.0317 25.6436C23.6699 25.6235 23.7324 25.6179 24.1286 25.4542C24.5843 25.2658 25.0285 24.8982 25.2134 24.5564C25.2807 24.432 25.9853 22.555 26.7794 20.3852L28.2233 16.4401L28.1982 15.9191C28.18 15.5393 28.1264 15.3145 28.0008 15.0896C27.7492 14.6395 22.6141 9.3979 22.3728 9.34476C21.9928 9.26107 21.5751 9.67625 21.7331 9.98045C21.776 10.0633 22.436 10.7689 23.1995 11.5484C23.9629 12.3279 24.5691 12.9819 24.5464 13.0018C24.4794 13.0606 23.2609 12.7042 22.4898 12.4001C20.906 11.7757 19.6763 11.0068 18.1761 9.70295C16.7637 8.47539 16.7454 8.3469 17.8442 7.36883L18.5272 6.76088L19.2576 7.51426C20.3472 8.63821 20.4995 8.72626 20.8891 8.45742C21.0318 8.35901 21.0847 8.26262 21.0847 8.10137C21.0847 7.91348 20.9551 7.74721 20.2221 6.99468L19.3594 6.10903L20.0258 5.51091C20.7743 4.83914 20.896 4.62012 20.8475 4.03197C20.8065 3.53525 20.5378 3.1865 20.0224 2.96116L19.645 2.7962H10.0049H0.364782L0.182595 2.95608ZM29.8456 2.98109L29.6224 3.17693V5.65973V8.14246L29.8047 8.30228C30.0369 8.50606 30.3215 8.50606 30.5538 8.30228C30.7298 8.14793 30.736 8.11153 30.736 7.23682V6.33118L31.5873 6.29822C32.3142 6.27009 32.4982 6.23968 32.846 6.09041C33.5506 5.78803 33.9471 5.22475 33.9467 4.52679C33.9464 4.04896 33.8121 3.74658 33.4395 3.38481C32.9272 2.88731 32.7271 2.83306 31.3119 2.8076L30.0689 2.78526L29.8456 2.98109ZM32.3622 3.85547C32.7919 4.04922 32.9767 4.62292 32.7148 4.95076C32.4836 5.24045 32.2893 5.30036 31.497 5.32615L30.736 5.3509V4.56196V3.77309L31.4599 3.77407C31.8864 3.77459 32.257 3.80806 32.3622 3.85547ZM0.154235 7.13588C-0.0960307 7.41494 -0.0383456 7.69121 0.302642 7.84588C0.476143 7.92462 1.00429 7.94116 3.34436 7.94116C5.8782 7.94116 6.2523 7.95477 6.90049 8.07063C8.55072 8.36565 9.93635 9.01939 11.0993 10.0516C11.7768 10.6529 12.9956 12.126 13.0986 12.4679C13.1881 12.7649 13.0138 13.1021 12.6779 13.2817C12.4414 13.4082 12.294 13.4113 6.40026 13.4115L0.364782 13.4118L0.182595 13.5716C-0.0497045 13.7754 -0.0497045 14.025 0.182595 14.2288L0.364782 14.3886H6.40531C13.364 14.3886 12.9896 14.4174 13.6384 13.8336C14.284 13.2528 14.4234 12.4584 13.9956 11.7979C13.5548 11.1172 12.5214 9.93688 11.842 9.33825C10.7759 8.39893 9.64458 7.78583 8.18649 7.3573C7.00592 7.01038 6.42966 6.96479 3.21667 6.96453L0.308062 6.96427L0.154235 7.13588ZM5.76402 16.2169C5.51887 16.3861 5.49578 16.7346 5.71687 16.9286C5.85258 17.0476 5.96432 17.0588 7.01943 17.0588C8.14581 17.0588 8.17795 17.055 8.35576 16.8989C8.45599 16.811 8.53802 16.6632 8.53802 16.5704C8.53802 16.4776 8.45599 16.3297 8.35576 16.2418C8.17862 16.0864 8.14291 16.0819 7.06657 16.0819C6.05912 16.0819 5.94205 16.094 5.76402 16.2169ZM26.9135 16.8146C26.8961 16.8594 26.745 17.2697 26.5778 17.7264L26.2737 18.5567H25.0442C23.9338 18.5567 23.7879 18.5435 23.5381 18.4203C23.1812 18.2444 23.015 17.9912 23.015 17.6236C23.015 17.2848 23.2622 16.97 23.6423 16.8248C23.9592 16.7037 26.9601 16.6944 26.9135 16.8146ZM16.556 18.8284C16.7398 18.8662 17.1722 19.0147 17.517 19.1582C18.7152 19.6572 19.6804 20.7073 20.0171 21.8781C20.1751 22.4279 20.1726 23.3538 20.0115 23.8918C19.3027 26.2587 16.415 27.6057 13.8318 26.7747C13.0468 26.5222 12.5147 26.2083 11.9261 25.6505C11.0362 24.8074 10.6469 23.8468 10.714 22.6597C10.7557 21.9209 10.8896 21.4966 11.2877 20.8415C11.9349 19.7762 13.2995 18.946 14.7283 18.7483C15.1644 18.688 16.0669 18.7275 16.556 18.8284ZM14.6383 20.6685C14.1856 20.7978 14.0318 20.9394 14.0318 21.2269C14.0318 21.5859 14.2286 21.714 14.6796 21.649C14.8745 21.6208 15.2401 21.595 15.4919 21.5915C15.8874 21.5859 15.9925 21.6117 16.2648 21.7805C17.075 22.2827 17.138 23.301 16.3934 23.8599C15.498 24.5323 14.1801 24.109 13.9237 23.0668C13.7789 22.4786 12.844 22.5484 12.844 23.1474C12.844 23.6784 13.3196 24.381 13.9272 24.7477C14.3988 25.0324 14.8155 25.1447 15.4053 25.1459C16.4424 25.1481 17.3566 24.6386 17.7877 23.8183C17.9716 23.4683 18.0031 23.3279 18.0033 22.855C18.0036 22.3926 17.9715 22.2412 17.8081 21.9355C17.3694 21.1148 16.5533 20.6354 15.5304 20.5977C15.1769 20.5846 14.8376 20.6116 14.6383 20.6685ZM33.5612 25.2667C33.835 25.3952 33.9284 25.6755 33.9284 26.3686V27.0231H31.5834H29.2384L29.2634 26.2684C29.2876 25.5341 29.294 25.5094 29.4966 25.3566C29.7047 25.1997 29.7064 25.1996 31.5617 25.1996C32.6932 25.1996 33.4742 25.2258 33.5612 25.2667Z" fill="url(#paint0_linear_677_3396)"/>
<defs>
<linearGradient id="paint0_linear_677_3396" x1="0" y1="0" x2="27.2387" y2="37.148" gradientUnits="userSpaceOnUse">
<stop stop-color="#0ABD92"/>
<stop offset="1" stop-color="#009DB8"/>
</linearGradient>
</defs>
</svg>
