<svg width="12" height="13" viewBox="0 0 12 13" fill="none" xmlns="http://www.w3.org/2000/svg">
<g opacity="0.6">
<path d="M1.16614 8.90529L0.516263 11.9713C0.493844 12.0834 0.494613 12.1996 0.518512 12.3113C0.542411 12.423 0.588838 12.5275 0.6544 12.617C0.719961 12.7066 0.803003 12.7791 0.897457 12.8291C0.99191 12.8791 1.09539 12.9054 1.20034 12.9061C1.24924 12.9115 1.29851 12.9115 1.34742 12.9061L4.16923 12.1957L9.58712 6.2954L6.5635 2.99753L1.16614 8.90529Z" fill="white"/>
<path d="M11.2905 3.34153L9.27244 1.13547C9.13977 0.991164 8.96022 0.910156 8.77307 0.910156C8.58591 0.910156 8.40637 0.991164 8.27369 1.13547L7.15181 2.36189L10.172 5.6635L11.2939 4.43708C11.3595 4.36495 11.4115 4.27937 11.4469 4.18524C11.4823 4.09111 11.5003 3.99029 11.5 3.88853C11.4997 3.78677 11.481 3.68608 11.4451 3.59222C11.4091 3.49836 11.3566 3.41317 11.2905 3.34153Z" fill="white"/>
</g>
</svg>
