<svg width="24" height="26" viewBox="0 0 24 26" fill="none" xmlns="http://www.w3.org/2000/svg">
<path d="M22.7375 11.6287C23.7934 12.2384 23.7934 13.7625 22.7375 14.3721L3.1369 25.6885C2.08098 26.2981 0.761073 25.5361 0.761073 24.3168L0.761074 1.68404C0.761074 0.464767 2.08098 -0.297278 3.1369 0.312359L22.7375 11.6287Z" fill="#609C97"/>
<path d="M22.7375 11.6287C23.7934 12.2384 23.7934 13.7625 22.7375 14.3721L3.1369 25.6885C2.08098 26.2981 0.761073 25.5361 0.761073 24.3168L0.761074 1.68404C0.761074 0.464767 2.08098 -0.297278 3.1369 0.312359L22.7375 11.6287Z" fill="white"/>
<path d="M22.7375 11.6287C23.7934 12.2384 23.7934 13.7625 22.7375 14.3721L3.1369 25.6885C2.08098 26.2981 0.761073 25.5361 0.761073 24.3168L0.761074 1.68404C0.761074 0.464767 2.08098 -0.297278 3.1369 0.312359L22.7375 11.6287Z" fill="url(#paint0_linear_677_2053)"/>
<defs>
<linearGradient id="paint0_linear_677_2053" x1="25.1133" y1="-3.23437" x2="-8.16807" y2="29.8846" gradientUnits="userSpaceOnUse">
<stop stop-color="#0ABD92"/>
<stop offset="1" stop-color="#009DB8"/>
</linearGradient>
</defs>
</svg>
