<svg width="24" height="27" viewBox="0 0 24 27" fill="none" xmlns="http://www.w3.org/2000/svg">
<path d="M22.2375 11.8787C23.2934 12.4884 23.2934 14.0125 22.2375 14.6221L2.6369 25.9385C1.58097 26.5481 0.261073 25.7861 0.261073 24.5668L0.261074 1.93404C0.261074 0.714767 1.58098 -0.0472782 2.6369 0.562359L22.2375 11.8787Z" fill="#609C97"/>
<path d="M22.2375 11.8787C23.2934 12.4884 23.2934 14.0125 22.2375 14.6221L2.6369 25.9385C1.58097 26.5481 0.261073 25.7861 0.261073 24.5668L0.261074 1.93404C0.261074 0.714767 1.58098 -0.0472782 2.6369 0.562359L22.2375 11.8787Z" fill="white"/>
<path d="M22.2375 11.8787C23.2934 12.4884 23.2934 14.0125 22.2375 14.6221L2.6369 25.9385C1.58097 26.5481 0.261073 25.7861 0.261073 24.5668L0.261074 1.93404C0.261074 0.714767 1.58098 -0.0472782 2.6369 0.562359L22.2375 11.8787Z" fill="white"/>
</svg>
