<svg width="68" height="67" viewBox="0 0 68 67" fill="none" xmlns="http://www.w3.org/2000/svg">
<path fill-rule="evenodd" clip-rule="evenodd" d="M43.8186 0.204361C43.3454 0.326837 42.6604 0.596417 42.2964 0.803514C41.49 1.26238 18.7774 23.644 18.4722 24.2805C18.3266 24.5842 18.2719 25.1452 18.2719 26.3359V27.9737L16.4519 28.019C14.8372 28.0592 14.5871 28.0964 14.2348 28.3485C14.0163 28.5047 10.9723 31.4815 7.47031 34.9635C1.75764 40.6436 1.05928 41.3834 0.678062 42.1593C-0.184436 43.9144 -0.187084 45.8846 0.670915 47.6093C1.02327 48.3177 1.55353 48.9299 3.60468 50.9964C4.98155 52.3838 6.31859 53.6176 6.57577 53.7383C7.17103 54.0179 7.50962 53.9308 8.37847 53.2745C10.4782 51.6889 13.2125 52.2963 14.464 54.6265C14.7048 55.0747 14.761 55.3904 14.7608 56.2929C14.7605 57.2442 14.7093 57.5029 14.4087 58.0696C14.2152 58.4342 13.9536 58.8174 13.8275 58.921C13.4881 59.1995 13.2567 59.8415 13.3347 60.2882C13.3862 60.5836 14.0652 61.3322 16.0692 63.3028C18.2628 65.4598 18.8877 65.9991 19.5956 66.3468C21.3616 67.2138 23.3512 67.2179 25.155 66.3582C25.9251 65.991 26.6864 65.287 32.4127 59.6468C35.9313 56.1812 38.9393 53.1688 39.0972 52.9527C39.3519 52.604 39.3895 52.3565 39.4301 50.7586L39.4759 48.9574H41.122C42.2339 48.9574 42.9065 48.8984 43.1941 48.7755C43.4317 48.6741 45.4434 46.7764 47.7418 44.4855C50.8933 41.3445 51.8846 40.2795 51.9528 39.9614C52.1386 39.0955 51.269 38.235 50.3942 38.4189C50.0729 38.4865 49.0353 39.4315 45.9979 42.4225L42.0221 46.3376H39.7996H37.577L37.1901 46.7205L36.8032 47.1034V49.3081V51.5128L30.5489 57.689C27.109 61.0859 24.0861 63.9728 23.8313 64.1045C23.19 64.4356 21.5599 64.4355 20.9193 64.1041C20.6644 63.9723 19.5516 62.9761 18.4465 61.8904L16.4371 59.9164L16.7599 59.2858C18.5646 55.7614 16.8233 51.4782 13.0327 50.1184C11.4659 49.5562 9.05367 49.7579 7.70301 50.5639L7.25998 50.8283L5.27792 48.8777C4.18775 47.8048 3.16734 46.6913 3.01049 46.4031C2.63152 45.7075 2.60783 44.1349 2.96588 43.4558C3.09891 43.2036 6.01613 40.2122 9.44865 36.808L15.6897 30.6187H17.9176H20.1454L20.5323 30.2358L20.9193 29.8529V27.6484V25.444L32.2035 14.2898C38.4099 8.155 43.6962 3.02801 43.951 2.89649C44.6373 2.54216 46.2265 2.56574 46.9292 2.94063C47.2204 3.09586 48.3397 4.09964 49.4164 5.17128L51.3741 7.11938L50.9724 7.96886C50.2265 9.54652 50.1329 11.2334 50.7009 12.8671C51.9918 16.5802 56.3904 18.3309 59.9472 16.5472L60.5844 16.2277L62.5792 18.2163C63.6762 19.3099 64.6829 20.4112 64.816 20.6633C65.1521 21.2996 65.1512 22.9117 64.8144 23.5451C64.6805 23.7973 63.0668 25.5067 61.2286 27.3439C59.0709 29.5003 57.8555 30.8115 57.7994 31.0433C57.5709 31.9882 58.5633 32.8907 59.4958 32.5862C59.7893 32.4904 61.0119 31.3623 63.3004 29.0757C66.1761 26.2026 66.7341 25.5811 67.0903 24.8551C67.959 23.0846 67.9593 21.126 67.0911 19.3534C66.7417 18.6401 66.2431 18.0743 64.0156 15.8644C62.0245 13.8889 61.2575 13.2094 60.96 13.1582C60.5089 13.0804 59.8603 13.309 59.5785 13.6452C59.4738 13.7701 59.0867 14.0289 58.7182 14.2204C58.1455 14.5179 57.8841 14.5686 56.9229 14.5688C56.0109 14.5691 55.6919 14.5134 55.2389 14.2752C54.3769 13.8218 53.7895 13.2453 53.4125 12.4827C52.7081 11.0579 52.879 9.48613 53.8737 8.2408C54.5304 7.41857 54.6254 7.06096 54.3433 6.47268C54.0241 5.80672 49.201 1.16177 48.3737 0.723478C46.997 -0.00601116 45.3554 -0.193067 43.8186 0.204361ZM39.5531 17.3308C39.1111 17.5682 38.9211 17.8992 38.9211 18.4315C38.9211 18.6545 39.9028 22.3252 41.1027 26.589C43.5192 35.1756 43.4488 35.001 44.4939 35.001C44.9392 35.001 45.106 34.9245 45.4205 34.576C45.6315 34.3425 45.8041 34.011 45.8041 33.8394C45.8041 33.3654 41.4642 18.0402 41.2298 17.686C40.8699 17.1426 40.177 16.9957 39.5531 17.3308ZM48.7813 21.1527C47.4133 21.6374 46.44 22.76 46.1788 24.1548C45.6189 27.1437 48.5587 29.5745 51.442 28.507C52.368 28.1642 53.0472 27.5717 53.5557 26.6633C53.9011 26.0464 53.9445 25.8437 53.943 24.8551C53.9413 23.6325 53.7295 23.0662 52.942 22.1786C52.0194 21.1387 50.1334 20.6736 48.7813 21.1527ZM33.2803 21.6611C32.9807 21.7663 32.489 22.0613 32.1873 22.3167C30.2155 23.9871 30.32 26.9149 32.4076 28.4822C33.805 29.5312 35.9799 29.4202 37.4049 28.2272C37.6267 28.0414 37.984 27.5752 38.1991 27.191C38.5511 26.5621 38.5901 26.3748 38.5896 25.3135C38.5892 24.4093 38.5311 24.0277 38.3398 23.6761C37.8547 22.7838 37.3198 22.2494 36.5125 21.8501C35.8263 21.5109 35.5579 21.4509 34.7634 21.4596C34.2473 21.4653 33.5798 21.556 33.2803 21.6611ZM50.6825 23.7318C51.3356 24.066 51.572 25.0517 51.1289 25.5929C50.5815 26.2618 49.8408 26.3363 49.2177 25.7854C48.8624 25.4712 48.7883 25.3109 48.7883 24.8551C48.7883 24.3992 48.8624 24.2389 49.2177 23.9248C49.6912 23.506 50.1287 23.4483 50.6825 23.7318ZM35.6663 24.4722C36.133 25.021 36.1236 25.6409 35.6405 26.176C35.0046 26.8803 33.9129 26.6927 33.5425 25.8158C33.3889 25.4519 33.3796 25.2638 33.4976 24.9097C33.6917 24.3281 34.0833 24.0691 34.7693 24.0691C35.2258 24.0691 35.3841 24.1402 35.6663 24.4722ZM22.9149 32.2139C22.1007 32.7605 22.0575 33.5261 22.794 34.3562C23.6085 35.2744 24.364 35.4309 25.0505 34.8237C25.403 34.5123 25.4799 34.3477 25.4799 33.9055C25.4799 33.4337 25.3979 33.2856 24.821 32.7158C24.0071 31.9117 23.5458 31.7903 22.9149 32.2139ZM53.9626 34.6317C53.6957 34.8959 53.6137 35.1072 53.6137 35.5308C53.6137 35.9545 53.6957 36.1658 53.9626 36.43C54.2296 36.6942 54.4431 36.7753 54.8712 36.7753C55.2993 36.7753 55.5128 36.6942 55.7798 36.43C56.0467 36.1658 56.1287 35.9545 56.1287 35.5308C56.1287 35.1072 56.0467 34.8959 55.7798 34.6317C55.5128 34.3675 55.2993 34.2864 54.8712 34.2864C54.4431 34.2864 54.2296 34.3675 53.9626 34.6317ZM28.067 36.8629C27.6677 37.0171 27.275 37.4825 27.197 37.8937C27.0932 38.4413 27.3541 38.9324 28.1201 39.6311C28.5946 40.0639 28.824 40.181 29.1978 40.181C29.8112 40.181 30.1342 40.0031 30.3821 39.5287C30.7423 38.8393 30.6439 38.5149 29.8209 37.6792C29.0738 36.9207 28.5495 36.6766 28.067 36.8629ZM19.2647 38.1047C19.1191 38.183 17.9129 39.3153 16.5843 40.6209C14.0205 43.1402 13.8275 43.4266 14.159 44.219C14.2432 44.4202 14.4925 44.6903 14.713 44.8192C15.4914 45.2742 15.7367 45.116 18.5086 42.3702C20.6847 40.2146 21.0708 39.7727 21.1383 39.3609C21.2085 38.9332 21.1641 38.8253 20.7507 38.4162C20.2597 37.9302 19.7768 37.8289 19.2647 38.1047ZM32.6071 41.9498C32.2003 42.2318 31.9931 42.9279 32.1744 43.4042C32.3466 43.8572 33.154 44.7138 33.6529 44.9729C34.5846 45.4571 35.6119 44.824 35.6119 43.7657C35.6119 43.5365 35.3586 43.1719 34.7967 42.593C34.0532 41.8268 33.9336 41.7529 33.4363 41.7529C33.1365 41.7529 32.7633 41.8415 32.6071 41.9498ZM23.2357 42.2623C22.528 42.7017 18.298 47.0338 18.2014 47.4183C17.9491 48.4218 18.8129 49.2768 19.8272 49.0272C20.2308 48.9281 24.7836 44.5462 25.0991 43.9536C25.3461 43.4895 25.3368 43.1207 25.0669 42.6685C24.6705 42.0044 23.9195 41.8379 23.2357 42.2623ZM27.6699 46.1659C27.5607 46.2043 26.3248 47.3631 24.9233 48.7414C22.1532 51.4657 21.9931 51.7079 22.4536 52.4794C22.5839 52.6976 22.8568 52.9443 23.0601 53.0276C23.8606 53.3557 24.1503 53.1646 26.6976 50.6276C28.0177 49.3127 29.1637 48.1082 29.2442 47.9509C29.5093 47.433 29.4154 46.9909 28.9406 46.521C28.5113 46.0961 28.154 45.9962 27.6699 46.1659Z" fill="url(#paint0_linear_804_3514)"/>
<defs>
<linearGradient id="paint0_linear_804_3514" x1="0.0292969" y1="0" x2="68.3619" y2="69.3981" gradientUnits="userSpaceOnUse">
<stop stop-color="#0ABD92"/>
<stop offset="1" stop-color="#009DB8"/>
</linearGradient>
</defs>
</svg>
