<svg width="38" height="27" viewBox="0 0 38 27" fill="none" xmlns="http://www.w3.org/2000/svg">
<path fill-rule="evenodd" clip-rule="evenodd" d="M6.96081 0.121348C6.54727 0.295999 6.4702 0.51844 6.4702 1.53888V2.45134H5.48936C4.01848 2.45134 3.20535 2.82344 2.75959 3.7006L2.5703 4.0729H1.61578C0.370011 4.0729 0.0178509 4.25708 0.0115793 4.91181C0.00958377 5.12128 0.0863635 5.30432 0.241824 5.46028C0.458479 5.67786 0.542766 5.69445 1.42963 5.69445H2.38415V6.50523L2.38415 7.31601H1.48873C0.664017 7.31601 0.570133 7.33557 0.300929 7.56297C-0.0768887 7.88213 -0.101595 8.35867 0.241824 8.7034C0.458479 8.92097 0.542766 8.93757 1.42963 8.93757H2.38415L2.38415 9.73938V10.5413L1.44132 10.574C0.598545 10.6034 0.472543 10.6313 0.253511 10.838C-0.0503769 11.125 -0.0703318 11.5775 0.205524 11.9293C0.395763 12.1722 0.436053 12.1807 1.39333 12.1807H2.38415L2.38415 13.0392V13.8976H1.39333C0.436053 13.8976 0.395763 13.9061 0.205524 14.149C-0.0703318 14.5009 -0.0503769 14.9534 0.253511 15.2403C0.472543 15.447 0.598545 15.4749 1.44132 15.5043L2.38415 15.537V16.3389V17.1407H1.42963C0.542766 17.1407 0.458479 17.1573 0.241824 17.3749C-0.101595 17.7196 -0.0768887 18.1962 0.300929 18.5154C0.570133 18.7428 0.664017 18.7623 1.48873 18.7623H2.38415V19.5731V20.3839H1.42963C0.542766 20.3839 0.458479 20.4005 0.241824 20.618C0.0863635 20.774 0.00958377 20.957 0.0115793 21.1665C0.0178509 21.8212 0.370011 22.0054 1.61578 22.0054H2.5703L2.75959 22.3777C3.20535 23.2549 4.01848 23.627 5.48936 23.627H6.4702V24.5851C6.4702 25.4754 6.48674 25.56 6.70349 25.7775C7.05641 26.1318 7.54654 26.1255 7.87181 25.7626C8.06329 25.549 8.08562 25.4249 8.08562 24.5755V23.627H8.89332H9.70103V24.4793C9.70103 25.5021 9.79511 25.7896 10.1835 25.9534C10.5686 26.1161 10.8963 26.045 11.1286 25.7487C11.2869 25.5467 11.3164 25.361 11.3164 24.568V23.627H12.1242H12.9319V24.4902C12.9319 25.4827 13.0762 25.8754 13.48 25.9819C13.8455 26.0782 14.0861 26.0257 14.3335 25.7957C14.5286 25.6142 14.5473 25.5108 14.5473 24.6119V23.627H15.355H16.1627V24.4235C16.1627 25.6726 16.3506 26.0116 17.0426 26.0116C17.2566 26.0116 17.4343 25.9374 17.5715 25.7909C17.7557 25.594 17.7781 25.4648 17.7781 24.5986V23.627H18.6333H19.4886V24.6119C19.4886 25.5181 19.5061 25.6134 19.7084 25.8043C19.9431 26.0256 20.4203 26.0793 20.7202 25.9182C20.9829 25.7771 21.104 25.3058 21.104 24.4235V23.627H21.9117H22.7194V24.6119C22.7194 25.5108 22.7381 25.6142 22.9332 25.7957C23.1805 26.0257 23.4211 26.0782 23.7867 25.9819C24.1905 25.8754 24.3348 25.4827 24.3348 24.4902V23.627H25.1425H25.9502V24.568C25.9502 25.361 25.9798 25.5467 26.1381 25.7487C26.3703 26.045 26.6981 26.1161 27.0832 25.9534C27.4716 25.7896 27.5656 25.5021 27.5656 24.4793V23.627H28.3733H29.181V24.5755C29.181 25.4249 29.2034 25.549 29.3949 25.7626C29.7201 26.1255 30.2103 26.1318 30.5632 25.7775C30.7799 25.56 30.7965 25.4754 30.7965 24.5851V23.627H31.7773C33.2482 23.627 34.0613 23.2549 34.5071 22.3777L34.6964 22.0054H35.6509C36.8967 22.0054 37.2488 21.8212 37.2551 21.1665C37.2571 20.957 37.1803 20.774 37.0248 20.618C36.8082 20.4005 36.7239 20.3839 35.837 20.3839H34.8825V19.5731V18.7623H35.7779C36.6026 18.7623 36.6965 18.7428 36.9657 18.5154C37.3436 18.1962 37.3683 17.7196 37.0248 17.3749C36.8082 17.1573 36.7239 17.1407 35.837 17.1407H34.8825V16.3389V15.537L35.8253 15.5043C36.6681 15.4749 36.7941 15.447 37.0131 15.2403C37.317 14.9534 37.337 14.5009 37.0611 14.149C36.8709 13.9061 36.8306 13.8976 35.8733 13.8976H34.8825V13.0392V12.1807H35.8733C36.8306 12.1807 36.8709 12.1722 37.0611 11.9293C37.337 11.5775 37.317 11.125 37.0131 10.838C36.7941 10.6313 36.6681 10.6034 35.8253 10.574L34.8825 10.5413V9.73938V8.93757H35.837C36.7239 8.93757 36.8082 8.92097 37.0248 8.7034C37.3683 8.35867 37.3436 7.88213 36.9657 7.56297C36.6965 7.33557 36.6026 7.31601 35.7779 7.31601H34.8825V6.50523V5.69445H35.837C36.7239 5.69445 36.8082 5.67786 37.0248 5.46028C37.1803 5.30432 37.2571 5.12128 37.2551 4.91181C37.2488 4.25708 36.8967 4.0729 35.6509 4.0729H34.6964L34.5071 3.7006C34.0613 2.82344 33.2482 2.45134 31.7773 2.45134L30.7965 2.45134V1.49319C30.7965 0.602951 30.7799 0.518344 30.5632 0.300865C30.2103 -0.0534935 29.7201 -0.0471988 29.3949 0.315744C29.2034 0.529313 29.181 0.65341 29.181 1.50282V2.45134L28.3733 2.45134H27.5656V1.59906C27.5656 0.576243 27.4716 0.28875 27.0832 0.124877C26.6981 -0.0377554 26.3703 0.0333072 26.1381 0.329575C25.9798 0.531603 25.9502 0.717318 25.9502 1.51036V2.45134H25.1425H24.3348V1.58809C24.3348 0.595606 24.1905 0.202903 23.7867 0.0964524C23.4211 0.00011272 23.1805 0.0525748 22.9332 0.282645C22.7381 0.464164 22.7194 0.567562 22.7194 1.46638V2.45134H21.9117H21.104V1.65477C21.104 0.405693 20.9161 0.0666917 20.224 0.0666917C20.01 0.0666917 19.8324 0.140902 19.6951 0.287415C19.511 0.484291 19.4886 0.613538 19.4886 1.47974V2.45134H18.6333L17.7781 2.45134V1.46638C17.7781 0.560218 17.7605 0.464928 17.5582 0.274061C17.3235 0.052766 16.8464 -0.00103229 16.5465 0.160074C16.2838 0.301245 16.1627 0.772547 16.1627 1.65477V2.45134H15.355L14.5473 2.45134V1.46638C14.5473 0.567562 14.5286 0.464164 14.3335 0.282645C14.0861 0.0525748 13.8455 0.00011272 13.48 0.0964524C13.0762 0.202903 12.9319 0.595606 12.9319 1.58809V2.45134L12.1242 2.45134H11.3164V1.51036C11.3164 0.717318 11.2869 0.531603 11.1286 0.329575C10.8963 0.0333072 10.5686 -0.0377554 10.1835 0.124877C9.79511 0.28875 9.70103 0.576243 9.70103 1.59906V2.45134L8.89332 2.45134H8.08562V1.51036C8.08562 0.717318 8.05606 0.531603 7.89775 0.329575C7.66703 0.0352149 7.33815 -0.0378507 6.96081 0.121348ZM32.7429 4.16771C33.277 4.37155 33.2671 4.20376 33.2671 13.0392C33.2671 21.8746 33.277 21.7068 32.7429 21.9106C32.4017 22.0408 4.86495 22.0408 4.52382 21.9106C3.98968 21.7068 3.99957 21.8746 3.99957 13.0392C3.99957 4.2774 3.99415 4.37431 4.49426 4.17286C4.80186 4.04895 32.4185 4.0439 32.7429 4.16771ZM6.07642 5.83906C5.93825 5.91441 5.77785 6.11234 5.72008 6.27879C5.64729 6.48835 5.61498 8.57177 5.61498 13.0564C5.61498 20.1691 5.60557 20.0475 6.17344 20.2836C6.41623 20.3845 6.52418 20.3845 6.76696 20.2836C7.29093 20.0658 7.32542 19.8455 7.32542 16.7146V13.8976H8.80134C10.3722 13.8976 10.6749 13.9611 11.2663 14.4138C11.4272 14.537 11.6861 14.8683 11.8416 15.15L12.1242 15.6623L12.1557 17.775C12.1846 19.7112 12.2027 19.9044 12.3722 20.0869C12.7539 20.4982 13.4124 20.4065 13.6641 19.9069C13.8456 19.5467 13.8314 16.1114 13.6453 15.3945C13.4445 14.6208 13.1063 13.9972 12.6087 13.4833L12.1788 13.0392L12.6184 12.5861C13.4774 11.7007 13.914 10.3211 13.7048 9.15314C13.4065 7.48809 12.22 6.20219 10.6518 5.84411C9.75653 5.6398 6.44863 5.63608 6.07642 5.83906ZM16.2548 5.84097C15.6896 6.0159 15.1006 6.53223 14.8203 7.09882L14.5948 7.55448L14.5706 13.6115C14.5516 18.393 14.5721 19.7186 14.6684 19.9069C14.9218 20.4023 15.5753 20.4965 15.975 20.0953C16.154 19.9157 16.1627 19.7668 16.1627 16.9023V13.8976L18.6333 13.8976H21.104V16.9023C21.104 19.7668 21.1127 19.9157 21.2916 20.0953C21.6992 20.5044 22.3151 20.4152 22.5756 19.9092C22.7091 19.6502 22.723 18.9364 22.699 13.5858L22.6719 7.55448L22.4464 7.09882C22.1577 6.51544 21.5732 6.01457 20.9721 5.83534C20.3265 5.64295 16.8816 5.64705 16.2548 5.84097ZM23.7573 5.97327L23.4796 6.25208L23.481 12.9603C23.4821 18.1764 23.5091 19.7215 23.6025 19.9069C23.8519 20.4018 24.5358 20.5005 24.8843 20.0921C25.0326 19.9184 25.0519 19.4496 25.095 14.9677L25.1425 10.0345L26.0181 11.7675C26.4996 12.7207 26.9903 13.5684 27.1083 13.6513C27.3821 13.8439 27.7491 13.8439 28.023 13.6514C28.141 13.5685 28.6186 12.7421 29.0843 11.8153L29.9312 10.1299L29.9362 14.8307C29.9402 18.5979 29.9672 19.594 30.0721 19.8459C30.3497 20.5128 31.2433 20.5128 31.5208 19.8459C31.7142 19.3813 31.7142 6.69705 31.5208 6.23243C31.3601 5.84612 30.9269 5.63722 30.54 5.75932C30.3084 5.83238 30.1007 6.18731 28.9435 8.48726C28.2118 9.94141 27.5911 11.1313 27.5642 11.1313C27.5373 11.1314 26.9387 9.96869 26.2339 8.54754C24.9123 5.88265 24.7806 5.69445 24.2372 5.69445C24.126 5.69445 23.9101 5.81989 23.7573 5.97327ZM10.6582 7.52395C11.9658 8.10085 12.5136 9.68234 11.837 10.9283C11.684 11.21 11.4272 11.5413 11.2663 11.6646C10.6749 12.1173 10.3722 12.1807 8.80134 12.1807H7.32542V9.73834L7.32542 7.29598L8.82206 7.33509C9.9041 7.36332 10.4128 7.41559 10.6582 7.52395ZM20.6232 7.45623C21.045 7.67504 21.104 8.01099 21.104 10.1918L21.104 12.1807H18.6333L16.1627 12.1807L16.1627 10.1918C16.1627 8.03503 16.2228 7.67953 16.6241 7.46062C16.9913 7.2605 20.2392 7.25687 20.6232 7.45623Z" fill="url(#paint0_linear_677_3058)"/>
<defs>
<linearGradient id="paint0_linear_677_3058" x1="0" y1="0.0390625" x2="24.8477" y2="35.8287" gradientUnits="userSpaceOnUse">
<stop stop-color="#0ABD92"/>
<stop offset="1" stop-color="#009DB8"/>
</linearGradient>
</defs>
</svg>
