<svg width="30" height="30" viewBox="0 0 30 30" fill="none" xmlns="http://www.w3.org/2000/svg">
<g clip-path="url(#clip0_1775_3228)">
<path d="M3.28125 18.75C3.54013 18.75 3.75 18.5401 3.75 18.2812C3.75 18.0224 3.54013 17.8125 3.28125 17.8125C3.02237 17.8125 2.8125 18.0224 2.8125 18.2812C2.8125 18.5401 3.02237 18.75 3.28125 18.75Z" fill="#02C0D0"/>
<path d="M5.15625 18.75C5.41513 18.75 5.625 18.5401 5.625 18.2812C5.625 18.0224 5.41513 17.8125 5.15625 17.8125C4.89737 17.8125 4.6875 18.0224 4.6875 18.2812C4.6875 18.5401 4.89737 18.75 5.15625 18.75Z" fill="#02C0D0"/>
<path d="M7.03125 19.6875H3.28125C3.02237 19.6875 2.8125 19.8974 2.8125 20.1562C2.8125 20.4151 3.02237 20.625 3.28125 20.625H7.03125C7.29013 20.625 7.5 20.4151 7.5 20.1562C7.5 19.8974 7.29013 19.6875 7.03125 19.6875Z" fill="#02C0D0"/>
<path d="M7.03125 21.5625H3.28125C3.02237 21.5625 2.8125 21.7724 2.8125 22.0312C2.8125 22.2901 3.02237 22.5 3.28125 22.5H7.03125C7.29013 22.5 7.5 22.2901 7.5 22.0312C7.5 21.7724 7.29013 21.5625 7.03125 21.5625Z" fill="#02C0D0"/>
<path d="M17.959 17.9297L25.2246 25.1953" stroke="#02C0D0" stroke-width="0.9375" stroke-linecap="round"/>
<path fill-rule="evenodd" clip-rule="evenodd" d="M0.9375 12.6562V24.375H7.26867H13.5998L13.6615 24.5519C13.7608 24.8368 14.1727 25.6687 14.3716 25.9863C15.0261 27.0313 16.0389 28.0525 17.0854 28.7225C17.8203 29.1932 18.8634 29.6095 19.8702 29.834C20.7316 30.0261 22.3614 30.0269 23.2434 29.8357C24.9316 29.4697 26.299 28.7255 27.5122 27.5122C28.7255 26.299 29.4697 24.9316 29.8357 23.2434C30.0269 22.3614 30.0261 20.7316 29.834 19.8702C29.2418 17.215 27.5906 15.1025 25.2111 13.9556C24.9458 13.8278 24.6492 13.6954 24.5519 13.6615L24.375 13.5998V7.26867V0.9375H12.6562H0.9375V12.6562ZM1.875 12.6562V23.4375H7.58789C10.73 23.4375 13.3008 23.4158 13.3008 23.3892C13.3008 23.3627 13.2586 23.0661 13.207 22.73C13.0174 21.495 13.1805 19.9194 13.6252 18.6914C14.4681 16.3634 16.3634 14.4681 18.6914 13.6252C19.9194 13.1805 21.495 13.0174 22.73 13.207C23.0661 13.2586 23.3627 13.3008 23.3892 13.3008C23.4158 13.3008 23.4375 10.73 23.4375 7.58789V1.875H19.9219H16.4062V5.51408C16.4062 8.40211 16.3911 9.14701 16.333 9.12351C16.2928 9.10717 15.4484 8.74517 14.4567 8.31908L12.6536 7.54435L10.8825 8.30959C9.90832 8.73047 9.06521 9.09246 9.00879 9.11402C8.91181 9.15105 8.90625 8.9557 8.90625 5.51408V1.875H5.39062H1.875V12.6562ZM9.84375 4.79953V7.72406L11.25 7.11914L12.6562 6.51422L14.0625 7.11914L15.4687 7.72406V4.79953V1.875H12.6562H9.84375V4.79953ZM20.6036 14.1247C18.8728 14.3653 17.3795 15.1298 16.1505 16.4046C13.3705 19.2885 13.3864 23.86 16.1866 26.7565C19.0578 29.7267 23.7644 29.824 26.7204 26.9744C27.8447 25.8906 28.5448 24.6463 28.8919 23.1152C29.0808 22.2816 29.0802 20.8544 28.8906 20.0098C28.2395 17.1101 26.0716 14.9189 23.2031 14.2614C22.4975 14.0996 21.2545 14.0343 20.6036 14.1247Z" fill="#02C0D0"/>
<path d="M25.1953 17.9297L17.9297 25.1953" stroke="#02C0D0" stroke-width="0.9375" stroke-linecap="round"/>
</g>
<defs>
<clipPath id="clip0_1775_3228">
<rect width="30" height="30" fill="white"/>
</clipPath>
</defs>
</svg>
