<svg width="31" height="31" viewBox="0 0 31 31" fill="none" xmlns="http://www.w3.org/2000/svg">
<path d="M29.8221 24.2732L29.1281 23.967C29.1011 23.8697 29.0717 23.7765 29.0402 23.6857L29.427 23.0192C29.5158 22.8655 29.5173 22.6765 29.4309 22.5216C29.2275 22.1592 28.9849 21.8204 28.7074 21.511C28.5859 21.3742 28.3993 21.3149 28.2211 21.3563L27.4908 21.5232C27.4191 21.4673 27.3455 21.413 27.2699 21.3602L27.1993 20.5858C27.183 20.4071 27.0726 20.2506 26.9097 20.1755C26.5371 20.0015 26.1462 19.8702 25.744 19.7843C25.5649 19.7461 25.3792 19.809 25.2601 19.9482L24.7487 20.5421H24.5033L23.9918 19.9482C23.8731 19.8085 23.6871 19.7455 23.508 19.7843C23.1059 19.8702 22.7148 20.0014 22.3422 20.1755C22.1793 20.2506 22.0689 20.4071 22.0527 20.5858L21.982 21.3602C21.9064 21.4128 21.8328 21.4671 21.7611 21.5232L21.0308 21.3563C20.8526 21.3151 20.6662 21.3744 20.5445 21.511C20.267 21.8203 20.0246 22.1594 19.8215 22.5221C19.7351 22.6769 19.7366 22.8657 19.8254 23.0192L20.2117 23.6853C20.1802 23.776 20.1509 23.8699 20.1238 23.967L19.4298 24.2732C19.2475 24.3534 19.1298 24.5339 19.13 24.7331V25.8707C19.1298 26.0699 19.2475 26.2503 19.4298 26.3306L20.1238 26.6368C20.1508 26.734 20.1802 26.8272 20.2117 26.9181L19.8249 27.5846C19.7361 27.7382 19.7346 27.9273 19.8209 28.0823C20.0244 28.4446 20.267 28.7835 20.5444 29.0929C20.6661 29.2297 20.8529 29.2891 21.0313 29.2475L21.7606 29.0801C21.8323 29.1365 21.9063 29.1911 21.9819 29.2436L22.0526 30.0181C22.0688 30.1968 22.1792 30.3532 22.3421 30.4283C22.7147 30.6024 23.1057 30.7336 23.5078 30.8196C23.687 30.8576 23.8726 30.7947 23.9917 30.6557L24.5032 30.0618H24.7485L25.26 30.6557C25.3554 30.7667 25.4945 30.8304 25.6409 30.8303C25.6755 30.8304 25.7101 30.8267 25.7439 30.8196C26.1461 30.7336 26.5371 30.6024 26.9097 30.4283C27.0726 30.3532 27.183 30.1967 27.1992 30.0181L27.2698 29.2436C27.3454 29.1911 27.419 29.1367 27.4908 29.0806L28.2211 29.2475C28.3992 29.2891 28.5859 29.2297 28.7074 29.0929C28.9847 28.7835 29.2274 28.4446 29.4308 28.0823C29.5173 27.9273 29.5157 27.7383 29.4269 27.5846L29.0402 26.9182C29.0716 26.8273 29.1011 26.7341 29.128 26.6369L29.822 26.3306C30.0043 26.2504 30.122 26.07 30.1219 25.8708V24.7331C30.1221 24.5339 30.0044 24.3534 29.8221 24.2732ZM28.4979 25.8163C28.3523 25.8803 28.2457 26.0096 28.2108 26.1648C28.1649 26.3718 28.1015 26.5746 28.0213 26.7709C27.9614 26.9158 27.9722 27.0803 28.0508 27.2161L28.4085 27.8326C28.3276 27.9582 28.2402 28.0805 28.1465 28.1996L27.4731 28.0455C27.3155 28.0087 27.1498 28.0508 27.0289 28.1584C26.8724 28.2958 26.7046 28.4197 26.5273 28.529C26.3929 28.612 26.3053 28.7534 26.2908 28.9108L26.2255 29.6284C26.0905 29.6814 25.955 29.7275 25.8201 29.7658L25.3597 29.2313C25.2643 29.1204 25.1252 29.0567 24.9789 29.0566H24.2731C24.1268 29.0567 23.9878 29.1205 23.8923 29.2313L23.432 29.7658C23.297 29.7276 23.1615 29.6814 23.0266 29.6284L22.9613 28.9108C22.9468 28.7534 22.8592 28.612 22.7247 28.529C22.5475 28.4199 22.3799 28.2959 22.2236 28.1584C22.1021 28.0511 21.9364 28.0089 21.7784 28.045L21.1056 28.1991C21.0118 28.0809 20.9244 27.9582 20.8435 27.8326L21.2012 27.2161C21.2797 27.0803 21.2906 26.9158 21.2307 26.7709C21.1505 26.5746 21.0871 26.3718 21.0412 26.1648C21.0062 26.0096 20.8997 25.8803 20.7541 25.8163L20.1352 25.5434V25.0604L20.7541 24.7875C20.8997 24.7235 21.0063 24.5943 21.0412 24.4391C21.0872 24.2317 21.1506 24.0286 21.2307 23.832C21.2906 23.6872 21.2798 23.5229 21.2012 23.3873L20.8439 22.7708C20.9244 22.6457 21.0117 22.523 21.1055 22.4042L21.7789 22.5583C21.9365 22.5945 22.1019 22.5525 22.223 22.4454C22.3796 22.3081 22.5473 22.1841 22.7246 22.0749C22.859 21.9918 22.9467 21.8504 22.9612 21.693L23.0265 20.9755C23.1614 20.9224 23.2969 20.8764 23.4318 20.838L23.8922 21.3725C23.9877 21.4834 24.1267 21.5472 24.2731 21.5472H24.9789C25.1252 21.5472 25.2642 21.4834 25.3597 21.3725L25.8201 20.838C25.955 20.8763 26.0905 20.9224 26.2255 20.9755L26.2908 21.693C26.3053 21.8504 26.3929 21.9918 26.5273 22.0749C26.7046 22.1841 26.8724 22.3081 27.0289 22.4454C27.1501 22.5525 27.3155 22.5946 27.4731 22.5583L28.1465 22.4042C28.2402 22.523 28.3276 22.6453 28.4085 22.7713L28.0508 23.3878C27.9723 23.5236 27.9614 23.688 28.0213 23.833C28.1015 24.0292 28.1649 24.2321 28.2108 24.4391C28.2458 24.5943 28.3524 24.7235 28.4979 24.7875L29.1168 25.0604V25.5434L28.4979 25.8163Z" fill="url(#paint0_linear_804_5958)"/>
<path d="M24.6267 22.7899C23.2388 22.7899 22.1138 23.9149 22.1138 25.3028C22.1138 26.6905 23.2388 27.8157 24.6267 27.8157C26.0145 27.8157 27.1396 26.6905 27.1396 25.3028C27.1379 23.9156 26.0139 22.7915 24.6267 22.7899ZM24.6267 26.8105C23.794 26.8105 23.1189 26.1355 23.1189 25.3028C23.1189 24.47 23.794 23.795 24.6267 23.795C25.4594 23.795 26.1344 24.47 26.1344 25.3028C26.1335 26.1351 25.459 26.8096 24.6267 26.8105Z" fill="url(#paint1_linear_804_5958)"/>
<path d="M14.0726 2.68355C9.90913 2.68355 6.53389 6.05874 6.53389 10.2222C6.53842 14.3838 9.91101 17.7564 14.0726 17.7609C18.236 17.7609 21.6112 14.3857 21.6112 10.2222C21.6112 6.05874 18.236 2.68355 14.0726 2.68355ZM7.81067 12.0848C6.78133 8.62708 8.74982 4.98963 12.2075 3.96023C12.8128 3.78005 13.441 3.68858 14.0726 3.68871C14.7034 3.68927 15.3307 3.78162 15.935 3.96274C15.8122 4.04365 15.6846 4.12193 15.571 4.20749C15.399 4.33697 15.3287 4.56156 15.3958 4.76604L15.6265 5.4684C15.5318 5.55773 15.439 5.65046 15.3497 5.74519L14.6479 5.51451C14.4436 5.44848 14.2199 5.51853 14.0898 5.68922C13.7185 6.17691 13.4081 6.70807 13.1656 7.27111C13.0812 7.46909 13.1323 7.69886 13.2927 7.84241L13.8517 8.343C13.8134 8.46813 13.7796 8.59433 13.7496 8.72047L13.0213 8.87363C12.7887 8.92259 12.6223 9.12773 12.6222 9.36536V11.0793C12.6223 11.3169 12.7887 11.522 13.0213 11.571L13.7496 11.7241C13.7796 11.8503 13.8134 11.9765 13.8512 12.1016L13.2927 12.6023C13.1323 12.7458 13.0811 12.9755 13.1656 13.1736C13.408 13.7362 13.718 14.2671 14.0887 14.7549C14.2182 14.9269 14.4428 14.9973 14.6473 14.9301L15.3496 14.6994C15.439 14.7942 15.5317 14.8869 15.6264 14.9762L15.3957 15.6781C15.3288 15.8823 15.3989 16.1065 15.5704 16.2361C15.6841 16.3219 15.8121 16.4006 15.9351 16.4817C12.4774 17.511 8.84001 15.5425 7.81067 12.0848ZM17.1007 16.0063C16.883 15.8952 16.6714 15.7726 16.4667 15.6392L16.6841 14.9776C16.7479 14.7831 16.6876 14.5692 16.5315 14.4368C16.2995 14.2406 16.0843 14.0256 15.888 13.7938C15.7554 13.6383 15.542 13.5783 15.3476 13.6417L14.684 13.8601C14.5192 13.618 14.3708 13.3652 14.2399 13.1033L14.767 12.6307C14.9196 12.4941 14.9741 12.2787 14.9049 12.0859C14.8019 11.8013 14.7229 11.5086 14.6688 11.2108C14.6325 11.0096 14.4778 10.8504 14.2776 10.8084L13.6273 10.6714V9.77325L14.2776 9.63631C14.4778 9.5942 14.6325 9.43506 14.6688 9.23382C14.7231 8.93573 14.802 8.64273 14.9049 8.35771C14.9741 8.16507 14.9196 7.94982 14.767 7.81344L14.2399 7.34131C14.371 7.07949 14.5193 6.82661 14.684 6.5845L15.3481 6.80293C15.5426 6.86626 15.7561 6.80601 15.8889 6.65027C16.085 6.4184 16.3 6.20316 16.5318 6.00685C16.6876 5.87429 16.7477 5.66076 16.684 5.46645L16.4665 4.80487C16.6714 4.67169 16.8829 4.54931 17.1005 4.43824C17.7876 4.80104 18.4049 5.28289 18.9236 5.86147C16.5152 6.50892 15.0876 8.9862 15.735 11.3946C16.1532 12.95 17.3682 14.165 18.9236 14.5831C18.405 15.1616 17.7878 15.6435 17.1007 16.0063ZM16.6213 9.72235C16.8431 8.18072 18.0542 6.96969 19.5958 6.74784C20.9429 8.86823 20.9429 11.5762 19.5958 13.6966C17.6769 13.4206 16.3452 11.6412 16.6213 9.72235Z" fill="url(#paint2_linear_804_5958)"/>
<path d="M27.3124 9.25003L26.7096 8.98399C26.689 8.91191 26.6674 8.8412 26.6438 8.772L26.9801 8.19235C27.0689 8.03887 27.0704 7.85001 26.984 7.69515C26.7994 7.36595 26.5792 7.05799 26.3273 6.77688C26.2055 6.6398 26.0185 6.58031 25.84 6.62177L25.2069 6.76658C25.1533 6.72537 25.0989 6.6851 25.0434 6.64633L24.9816 5.97244C24.9649 5.79415 24.8548 5.63817 24.6924 5.56265C24.3539 5.40415 23.9984 5.28472 23.6329 5.20683C23.4596 5.17033 23.2799 5.228 23.1602 5.35848L22.6055 5.96126C20.2643 1.24237 14.5409 -0.685143 9.82201 1.65605C5.10312 3.99725 3.17555 9.72058 5.51674 14.4395C5.65664 14.7216 5.81044 14.9965 5.97754 15.2633L4.63309 16.9437C4.54764 17.0512 4.50951 17.1886 4.52755 17.3246C4.54551 17.4609 4.61882 17.5837 4.73027 17.6642L5.82174 18.458L0.112336 25.4846C-0.06275 25.7006 -0.029517 26.0177 0.186529 26.1928C0.187157 26.1933 0.187785 26.1938 0.18835 26.1943L2.70124 28.2046C2.91704 28.3768 3.2312 28.343 3.40554 28.129L9.24222 20.9456L10.2586 21.6848C10.4758 21.8428 10.7788 21.8022 10.9466 21.5926L12.5148 19.6322C16.6508 20.349 20.7632 18.2489 22.6075 14.4781L23.1572 15.083C23.2525 15.1878 23.3876 15.2475 23.5292 15.2475C23.5639 15.2475 23.5984 15.2439 23.6324 15.2366C23.9981 15.1588 24.3538 15.0393 24.6924 14.8808C24.8548 14.8053 24.9649 14.6493 24.9816 14.471L25.0434 13.7972C25.0989 13.7579 25.1533 13.7176 25.2063 13.6769L25.84 13.8217C26.0185 13.8635 26.2057 13.8039 26.3273 13.6666C26.579 13.3856 26.7989 13.0778 26.9835 12.7488C27.0703 12.594 27.069 12.4048 26.9801 12.2511L26.6438 11.6715C26.6674 11.6023 26.689 11.5316 26.7096 11.4595L27.3124 11.1934C27.4947 11.1133 27.6123 10.9328 27.6122 10.7336V9.70977C27.6123 9.51067 27.4947 9.33023 27.3124 9.25003ZM2.93984 27.1082L1.21173 25.7256L6.63607 19.0502L8.42789 20.3537L2.93984 27.1082ZM10.4613 20.5899L5.74667 17.1607L6.57856 16.1215C7.81285 17.689 9.50625 18.8314 11.422 19.3888L10.4613 20.5899ZM14.0721 18.7655C9.35347 18.7655 5.5283 14.9404 5.5283 10.2217C5.53358 5.5053 9.35567 1.68319 14.0721 1.67791C18.7907 1.67791 22.616 5.5031 22.616 10.2217C22.616 14.9404 18.7907 18.7655 14.0721 18.7655ZM26.6071 10.4063L26.0805 10.6384C25.9348 10.7025 25.8283 10.8317 25.7934 10.9869C25.7524 11.1709 25.6963 11.3511 25.6255 11.5258C25.5656 11.6703 25.5765 11.8346 25.655 11.9699L25.9612 12.4981C25.8998 12.5918 25.8343 12.6835 25.7644 12.7734L25.1901 12.6419C25.0324 12.6048 24.8666 12.6468 24.7455 12.7542C24.6064 12.8764 24.4573 12.9867 24.2998 13.0841C24.166 13.1672 24.0788 13.3081 24.0643 13.4649L24.0078 14.0799C23.9053 14.1197 23.8024 14.1545 23.6991 14.1844L23.043 13.4621C23.8149 11.3677 23.8137 9.06651 23.0398 6.97289L23.6977 6.25854C23.8008 6.2885 23.9048 6.32381 24.0079 6.36358L24.0643 6.97855C24.079 7.13561 24.1663 7.27676 24.3004 7.35985C24.4578 7.45689 24.6068 7.567 24.7455 7.68918C24.8668 7.7964 25.0325 7.83832 25.1902 7.80155L25.7644 7.67001C25.8341 7.75988 25.8998 7.85164 25.9613 7.94535L25.655 8.47347C25.5765 8.60885 25.5657 8.77307 25.6256 8.91762C25.6964 9.09228 25.7525 9.27253 25.7934 9.45649C25.8284 9.61166 25.935 9.74094 26.0805 9.80499L26.6072 10.0371L26.6071 10.4063Z" fill="url(#paint3_linear_804_5958)"/>
<defs>
<linearGradient id="paint0_linear_804_5958" x1="0" y1="0.660156" x2="30.7739" y2="31.5353" gradientUnits="userSpaceOnUse">
<stop stop-color="#0ABD92"/>
<stop offset="1" stop-color="#009DB8"/>
</linearGradient>
<linearGradient id="paint1_linear_804_5958" x1="0" y1="0.660156" x2="30.7739" y2="31.5353" gradientUnits="userSpaceOnUse">
<stop stop-color="#0ABD92"/>
<stop offset="1" stop-color="#009DB8"/>
</linearGradient>
<linearGradient id="paint2_linear_804_5958" x1="0" y1="0.660156" x2="30.7739" y2="31.5353" gradientUnits="userSpaceOnUse">
<stop stop-color="#0ABD92"/>
<stop offset="1" stop-color="#009DB8"/>
</linearGradient>
<linearGradient id="paint3_linear_804_5958" x1="0" y1="0.660156" x2="30.7739" y2="31.5353" gradientUnits="userSpaceOnUse">
<stop stop-color="#0ABD92"/>
<stop offset="1" stop-color="#009DB8"/>
</linearGradient>
</defs>
</svg>
