<svg width="40" height="39" viewBox="0 0 40 39" fill="none" xmlns="http://www.w3.org/2000/svg">
<g opacity="0.6">
<path fill-rule="evenodd" clip-rule="evenodd" d="M18.9712 0.0825856C16.6958 0.609066 15.1133 2.46338 14.9886 4.74932C14.8989 6.39296 15.6773 8.05436 16.9879 9.01728L17.4852 9.38258V10.3591V11.3355L15.6753 11.3372C13.5962 11.3391 13.4701 11.3683 12.9423 11.9682C12.5808 12.3791 12.4556 12.743 12.4556 13.3818V13.8473L7.63383 13.8685L2.81203 13.8898L2.31478 14.1348C1.76534 14.4055 1.19417 14.9232 0.910302 15.4079C0.475011 16.151 0.486214 15.8734 0.508618 25.3729L0.52927 34.0951L0.771987 34.6077C1.19958 35.5108 1.94534 36.1414 2.88023 36.3905C3.19184 36.4735 4.21842 36.4952 7.86413 36.4959L12.4556 36.4968L12.4572 37.0115C12.4599 37.832 12.8108 38.4467 13.4843 38.8103C13.7883 38.9744 13.8057 38.9749 19.8328 38.9956C23.8809 39.0096 25.9746 38.9901 26.1738 38.9364C26.6326 38.8128 27.0981 38.4175 27.3348 37.9504C27.5026 37.6194 27.5444 37.4331 27.5444 37.0169V36.4968L32.1358 36.4959C35.7815 36.4952 36.8081 36.4735 37.1197 36.3905C38.0546 36.1414 38.8004 35.5108 39.228 34.6077L39.4707 34.0951L39.4913 25.3729C39.5138 15.8679 39.5252 16.1516 39.0876 15.4044C38.7963 14.9071 38.2564 14.4162 37.6981 14.1412L37.1879 13.8898L32.3661 13.8685L27.5444 13.8473V13.3818C27.5444 12.743 27.4191 12.3791 27.0577 11.9682C26.5299 11.3683 26.4037 11.3391 24.3247 11.3372L22.5148 11.3355V10.3634V9.39127L23.0161 9.02002C24.3213 8.05345 25.106 6.36955 25.0089 4.74299C24.8523 2.11623 22.8044 0.102562 20.1905 0.0051956C19.7111 -0.012646 19.2589 0.0160226 18.9712 0.0825856ZM21.1646 1.42948C22.3298 1.81902 23.2895 2.809 23.6204 3.96284C23.974 5.19589 23.5983 6.74194 22.7465 7.55838L22.5148 7.78049V6.3938V5.0071H20H17.4852V6.3938V7.78049L17.2534 7.55838C16.1789 6.52837 15.9273 4.51951 16.7047 3.17834C16.9571 2.74282 17.5038 2.15687 17.9343 1.8605C18.784 1.27531 20.1558 1.09224 21.1646 1.42948ZM21.2775 8.80036L21.2574 11.2974H20H18.7426L18.7225 8.80036L18.7024 6.30329H20H21.2975L21.2775 8.80036ZM26.0633 12.7311C26.2391 12.8823 26.2687 12.9694 26.2772 13.3601L26.287 13.8136H20H13.713L13.7228 13.3601C13.7312 12.9694 13.7608 12.8823 13.9366 12.7311L14.1406 12.5555H20H25.8593L26.0633 12.7311ZM37.1954 15.2787C37.5872 15.4883 38.0386 16.006 38.1423 16.3644C38.1942 16.544 38.2128 19.5384 38.1978 25.2946L38.1752 33.9545L37.9446 34.3278C37.8016 34.5591 37.5721 34.7888 37.3409 34.9318L36.9678 35.1625L20.1583 35.1849C8.73318 35.2001 3.26134 35.182 3.0754 35.1284C2.6366 35.0017 2.18927 34.6281 1.97887 34.2127L1.78667 33.8332V25.1743C1.78667 18.0002 1.80466 16.4724 1.89146 16.2645C2.11169 15.7372 2.64628 15.2776 3.19649 15.1424C3.32223 15.1116 10.9524 15.0916 20.1524 15.0981L36.8797 15.1097L37.1954 15.2787ZM8.75955 16.4744C8.47294 16.6014 8.30262 16.791 8.1528 17.1496C8.04992 17.3961 8.03559 18.3803 8.03559 25.198V32.9655L8.21109 33.2975C8.33104 33.5244 8.49161 33.6851 8.7184 33.8051L9.05028 33.9807H21.2574H33.4645L33.7964 33.8051C34.0232 33.6851 34.1837 33.5244 34.3037 33.2975L34.4792 32.9655V25.1784V17.3913L34.3077 17.0555C34.2134 16.871 34.0395 16.6492 33.9211 16.5629C33.7062 16.4062 33.6898 16.4059 21.3471 16.3895C11.2062 16.376 8.94717 16.3912 8.75955 16.4744ZM35.9287 16.5567C35.564 16.9451 35.8347 17.5877 36.363 17.5877C36.6983 17.5877 36.994 17.3019 36.994 16.9778C36.994 16.4383 36.2981 16.1632 35.9287 16.5567ZM33.1837 24.6973V31.8068L30.6852 29.3078L28.1866 26.8088L28.0491 26.2749C27.8929 25.6682 27.5329 25.074 27.0759 24.6685L26.7637 24.3916L26.5821 22.4574C26.4822 21.3936 26.3597 20.3688 26.3099 20.1801C26.1927 19.7363 25.5635 19.0861 25.1367 18.9674C24.694 18.8444 17.7943 18.8537 17.3802 18.9778C16.9656 19.1021 16.3979 19.6634 16.2413 20.1039C16.1702 20.3038 16.0427 21.2698 15.9354 22.4191L15.7516 24.3911L15.4391 24.6684C14.9819 25.074 14.6219 25.6681 14.4656 26.2749L14.3282 26.8088L11.8296 29.3078L9.3311 31.8068V24.6973V17.5877H21.2574H33.1837V24.6973ZM24.7533 20.1765C24.8582 20.2164 24.9866 20.3279 25.0386 20.4243C25.0906 20.5206 25.2056 21.3458 25.2942 22.2578L25.4553 23.9162H21.2797H17.1041L17.1067 23.6303C17.1126 22.9859 17.3898 20.587 17.4772 20.4236C17.529 20.3269 17.6463 20.2176 17.7378 20.1806C17.9664 20.0885 24.5118 20.0846 24.7533 20.1765ZM4.14907 21.5546C3.72399 21.7522 3.42259 22.0325 3.20853 22.4294C3.05223 22.7192 3.04293 22.8474 3.02083 25.0085C2.99386 27.6413 3.02487 27.8276 3.58187 28.385C4.32793 29.1314 5.51339 29.1054 6.25991 28.3261C6.74138 27.8235 6.773 27.6623 6.8025 25.5555C6.8358 23.1759 6.80234 22.8315 6.48708 22.3054C6.14522 21.7352 5.66542 21.4497 4.99641 21.4187C4.6089 21.4007 4.41251 21.4322 4.14907 21.5546ZM35.7168 25.1552L35.7366 28.9103L36.3653 28.9324L36.994 28.9546V25.1773V21.4001H36.3455H35.697L35.7168 25.1552ZM5.29803 22.8429L5.52078 23.0657V25.1719V27.278L5.3337 27.4651C5.09456 27.7044 4.7197 27.7138 4.47782 27.4865C4.30163 27.3208 4.30148 27.3193 4.30148 25.1755C4.30148 22.9311 4.30682 22.8928 4.64441 22.7081C4.89307 22.572 5.0621 22.6069 5.29803 22.8429ZM25.8298 25.3391C26.4758 25.6885 26.8831 26.3079 26.8914 26.9536C26.8958 27.2928 26.8667 27.3848 26.7167 27.5064C26.5434 27.6469 26.344 27.6523 21.282 27.6523C18.0637 27.6523 15.9742 27.6238 15.8903 27.5789C15.6818 27.4673 15.5546 27.0875 15.6159 26.7602C15.7548 26.02 16.3461 25.3861 17.066 25.2059C17.1918 25.1744 19.1465 25.1544 21.4098 25.1614C25.471 25.1741 25.5289 25.1764 25.8298 25.3391ZM17.0412 25.9988C16.814 26.2408 16.8234 26.6158 17.0626 26.8551C17.6135 27.4064 18.4206 26.6385 17.9368 26.0233C17.7259 25.7549 17.2816 25.7427 17.0412 25.9988ZM24.5779 26.0233C24.3641 26.2951 24.3756 26.6236 24.607 26.8551C24.9942 27.2425 25.6392 26.9649 25.6392 26.411C25.6392 25.8628 24.9127 25.5973 24.5779 26.0233ZM15.4122 28.7499C15.5283 28.81 15.7464 28.8822 15.8968 28.9105L16.1703 28.9618L16.2054 29.7366C16.2423 30.5506 16.3337 30.8327 16.6587 31.1354C16.9473 31.4043 17.2159 31.4646 18.1259 31.4646C18.8736 31.4646 19.029 31.4418 19.3212 31.2897C19.8361 31.0216 20 30.6364 20 29.6947V28.9484H21.2574H22.5148V29.6989C22.5148 30.6325 22.6788 31.0145 23.1976 31.289C23.4878 31.4425 23.6383 31.4646 24.3962 31.4646C25.3746 31.4646 25.6528 31.3848 25.9637 31.0151C26.2333 30.6946 26.3242 30.3347 26.3246 29.5859L26.3251 28.9654L26.6082 28.9123C26.9654 28.8452 27.2447 28.7013 27.5674 28.4178L27.821 28.195L30.0637 30.4397L32.3063 32.6845H21.2574H10.2085L12.4511 30.4397L14.6937 28.195L14.9473 28.4178C15.0869 28.5403 15.2961 28.6897 15.4122 28.7499ZM18.7045 29.5584V30.1684H18.0948H17.4852V29.5584V28.9484H18.0948H18.7045V29.5584ZM25.0296 29.5584V30.1684H24.4199H23.8103V29.5584V28.9484H24.4199H25.0296V29.5584ZM26.3251 36.7904C26.3251 37.1771 26.1906 37.5493 26.0173 37.6421C25.8276 37.7437 14.1724 37.7437 13.9827 37.6421C13.8094 37.5493 13.6749 37.1771 13.6749 36.7904V36.4968H20H26.3251V36.7904Z" fill="url(#paint0_linear_677_2141)"/>
<path fill-rule="evenodd" clip-rule="evenodd" d="M18.9712 0.0825856C16.6958 0.609066 15.1133 2.46338 14.9886 4.74932C14.8989 6.39296 15.6773 8.05436 16.9879 9.01728L17.4852 9.38258V10.3591V11.3355L15.6753 11.3372C13.5962 11.3391 13.4701 11.3683 12.9423 11.9682C12.5808 12.3791 12.4556 12.743 12.4556 13.3818V13.8473L7.63383 13.8685L2.81203 13.8898L2.31478 14.1348C1.76534 14.4055 1.19417 14.9232 0.910302 15.4079C0.475011 16.151 0.486214 15.8734 0.508618 25.3729L0.52927 34.0951L0.771987 34.6077C1.19958 35.5108 1.94534 36.1414 2.88023 36.3905C3.19184 36.4735 4.21842 36.4952 7.86413 36.4959L12.4556 36.4968L12.4572 37.0115C12.4599 37.832 12.8108 38.4467 13.4843 38.8103C13.7883 38.9744 13.8057 38.9749 19.8328 38.9956C23.8809 39.0096 25.9746 38.9901 26.1738 38.9364C26.6326 38.8128 27.0981 38.4175 27.3348 37.9504C27.5026 37.6194 27.5444 37.4331 27.5444 37.0169V36.4968L32.1358 36.4959C35.7815 36.4952 36.8081 36.4735 37.1197 36.3905C38.0546 36.1414 38.8004 35.5108 39.228 34.6077L39.4707 34.0951L39.4913 25.3729C39.5138 15.8679 39.5252 16.1516 39.0876 15.4044C38.7963 14.9071 38.2564 14.4162 37.6981 14.1412L37.1879 13.8898L32.3661 13.8685L27.5444 13.8473V13.3818C27.5444 12.743 27.4191 12.3791 27.0577 11.9682C26.5299 11.3683 26.4037 11.3391 24.3247 11.3372L22.5148 11.3355V10.3634V9.39127L23.0161 9.02002C24.3213 8.05345 25.106 6.36955 25.0089 4.74299C24.8523 2.11623 22.8044 0.102562 20.1905 0.0051956C19.7111 -0.012646 19.2589 0.0160226 18.9712 0.0825856ZM21.1646 1.42948C22.3298 1.81902 23.2895 2.809 23.6204 3.96284C23.974 5.19589 23.5983 6.74194 22.7465 7.55838L22.5148 7.78049V6.3938V5.0071H20H17.4852V6.3938V7.78049L17.2534 7.55838C16.1789 6.52837 15.9273 4.51951 16.7047 3.17834C16.9571 2.74282 17.5038 2.15687 17.9343 1.8605C18.784 1.27531 20.1558 1.09224 21.1646 1.42948ZM21.2775 8.80036L21.2574 11.2974H20H18.7426L18.7225 8.80036L18.7024 6.30329H20H21.2975L21.2775 8.80036ZM26.0633 12.7311C26.2391 12.8823 26.2687 12.9694 26.2772 13.3601L26.287 13.8136H20H13.713L13.7228 13.3601C13.7312 12.9694 13.7608 12.8823 13.9366 12.7311L14.1406 12.5555H20H25.8593L26.0633 12.7311ZM37.1954 15.2787C37.5872 15.4883 38.0386 16.006 38.1423 16.3644C38.1942 16.544 38.2128 19.5384 38.1978 25.2946L38.1752 33.9545L37.9446 34.3278C37.8016 34.5591 37.5721 34.7888 37.3409 34.9318L36.9678 35.1625L20.1583 35.1849C8.73318 35.2001 3.26134 35.182 3.0754 35.1284C2.6366 35.0017 2.18927 34.6281 1.97887 34.2127L1.78667 33.8332V25.1743C1.78667 18.0002 1.80466 16.4724 1.89146 16.2645C2.11169 15.7372 2.64628 15.2776 3.19649 15.1424C3.32223 15.1116 10.9524 15.0916 20.1524 15.0981L36.8797 15.1097L37.1954 15.2787ZM8.75955 16.4744C8.47294 16.6014 8.30262 16.791 8.1528 17.1496C8.04992 17.3961 8.03559 18.3803 8.03559 25.198V32.9655L8.21109 33.2975C8.33104 33.5244 8.49161 33.6851 8.7184 33.8051L9.05028 33.9807H21.2574H33.4645L33.7964 33.8051C34.0232 33.6851 34.1837 33.5244 34.3037 33.2975L34.4792 32.9655V25.1784V17.3913L34.3077 17.0555C34.2134 16.871 34.0395 16.6492 33.9211 16.5629C33.7062 16.4062 33.6898 16.4059 21.3471 16.3895C11.2062 16.376 8.94717 16.3912 8.75955 16.4744ZM35.9287 16.5567C35.564 16.9451 35.8347 17.5877 36.363 17.5877C36.6983 17.5877 36.994 17.3019 36.994 16.9778C36.994 16.4383 36.2981 16.1632 35.9287 16.5567ZM33.1837 24.6973V31.8068L30.6852 29.3078L28.1866 26.8088L28.0491 26.2749C27.8929 25.6682 27.5329 25.074 27.0759 24.6685L26.7637 24.3916L26.5821 22.4574C26.4822 21.3936 26.3597 20.3688 26.3099 20.1801C26.1927 19.7363 25.5635 19.0861 25.1367 18.9674C24.694 18.8444 17.7943 18.8537 17.3802 18.9778C16.9656 19.1021 16.3979 19.6634 16.2413 20.1039C16.1702 20.3038 16.0427 21.2698 15.9354 22.4191L15.7516 24.3911L15.4391 24.6684C14.9819 25.074 14.6219 25.6681 14.4656 26.2749L14.3282 26.8088L11.8296 29.3078L9.3311 31.8068V24.6973V17.5877H21.2574H33.1837V24.6973ZM24.7533 20.1765C24.8582 20.2164 24.9866 20.3279 25.0386 20.4243C25.0906 20.5206 25.2056 21.3458 25.2942 22.2578L25.4553 23.9162H21.2797H17.1041L17.1067 23.6303C17.1126 22.9859 17.3898 20.587 17.4772 20.4236C17.529 20.3269 17.6463 20.2176 17.7378 20.1806C17.9664 20.0885 24.5118 20.0846 24.7533 20.1765ZM4.14907 21.5546C3.72399 21.7522 3.42259 22.0325 3.20853 22.4294C3.05223 22.7192 3.04293 22.8474 3.02083 25.0085C2.99386 27.6413 3.02487 27.8276 3.58187 28.385C4.32793 29.1314 5.51339 29.1054 6.25991 28.3261C6.74138 27.8235 6.773 27.6623 6.8025 25.5555C6.8358 23.1759 6.80234 22.8315 6.48708 22.3054C6.14522 21.7352 5.66542 21.4497 4.99641 21.4187C4.6089 21.4007 4.41251 21.4322 4.14907 21.5546ZM35.7168 25.1552L35.7366 28.9103L36.3653 28.9324L36.994 28.9546V25.1773V21.4001H36.3455H35.697L35.7168 25.1552ZM5.29803 22.8429L5.52078 23.0657V25.1719V27.278L5.3337 27.4651C5.09456 27.7044 4.7197 27.7138 4.47782 27.4865C4.30163 27.3208 4.30148 27.3193 4.30148 25.1755C4.30148 22.9311 4.30682 22.8928 4.64441 22.7081C4.89307 22.572 5.0621 22.6069 5.29803 22.8429ZM25.8298 25.3391C26.4758 25.6885 26.8831 26.3079 26.8914 26.9536C26.8958 27.2928 26.8667 27.3848 26.7167 27.5064C26.5434 27.6469 26.344 27.6523 21.282 27.6523C18.0637 27.6523 15.9742 27.6238 15.8903 27.5789C15.6818 27.4673 15.5546 27.0875 15.6159 26.7602C15.7548 26.02 16.3461 25.3861 17.066 25.2059C17.1918 25.1744 19.1465 25.1544 21.4098 25.1614C25.471 25.1741 25.5289 25.1764 25.8298 25.3391ZM17.0412 25.9988C16.814 26.2408 16.8234 26.6158 17.0626 26.8551C17.6135 27.4064 18.4206 26.6385 17.9368 26.0233C17.7259 25.7549 17.2816 25.7427 17.0412 25.9988ZM24.5779 26.0233C24.3641 26.2951 24.3756 26.6236 24.607 26.8551C24.9942 27.2425 25.6392 26.9649 25.6392 26.411C25.6392 25.8628 24.9127 25.5973 24.5779 26.0233ZM15.4122 28.7499C15.5283 28.81 15.7464 28.8822 15.8968 28.9105L16.1703 28.9618L16.2054 29.7366C16.2423 30.5506 16.3337 30.8327 16.6587 31.1354C16.9473 31.4043 17.2159 31.4646 18.1259 31.4646C18.8736 31.4646 19.029 31.4418 19.3212 31.2897C19.8361 31.0216 20 30.6364 20 29.6947V28.9484H21.2574H22.5148V29.6989C22.5148 30.6325 22.6788 31.0145 23.1976 31.289C23.4878 31.4425 23.6383 31.4646 24.3962 31.4646C25.3746 31.4646 25.6528 31.3848 25.9637 31.0151C26.2333 30.6946 26.3242 30.3347 26.3246 29.5859L26.3251 28.9654L26.6082 28.9123C26.9654 28.8452 27.2447 28.7013 27.5674 28.4178L27.821 28.195L30.0637 30.4397L32.3063 32.6845H21.2574H10.2085L12.4511 30.4397L14.6937 28.195L14.9473 28.4178C15.0869 28.5403 15.2961 28.6897 15.4122 28.7499ZM18.7045 29.5584V30.1684H18.0948H17.4852V29.5584V28.9484H18.0948H18.7045V29.5584ZM25.0296 29.5584V30.1684H24.4199H23.8103V29.5584V28.9484H24.4199H25.0296V29.5584ZM26.3251 36.7904C26.3251 37.1771 26.1906 37.5493 26.0173 37.6421C25.8276 37.7437 14.1724 37.7437 13.9827 37.6421C13.8094 37.5493 13.6749 37.1771 13.6749 36.7904V36.4968H20H26.3251V36.7904Z" fill="white"/>
</g>
<defs>
<linearGradient id="paint0_linear_677_2141" x1="0.5" y1="0" x2="40.28" y2="39.975" gradientUnits="userSpaceOnUse">
<stop stop-color="#0ABD92"/>
<stop offset="1" stop-color="#009DB8"/>
</linearGradient>
</defs>
</svg>
