<svg width="21" height="22" viewBox="0 0 21 22" fill="none" xmlns="http://www.w3.org/2000/svg">
<path fill-rule="evenodd" clip-rule="evenodd" d="M8.48304 0.0533844C6.20607 0.273907 4.80615 1.44829 4.29298 3.56848L4.17752 4.04534L3.82864 4.12443C1.88374 4.56511 0.698298 5.99922 0.418689 8.24964C0.317565 9.06362 0.349016 14.2725 0.458964 14.916C0.548468 15.4399 0.761243 16.1792 0.912951 16.4933C1.61405 17.945 2.98339 18.6211 5.22266 18.6211C5.65398 18.6211 5.86448 18.6385 5.91183 18.6782C5.94935 18.7097 6.2211 19.0751 6.51569 19.4902C7.16655 20.4072 7.38125 20.6479 7.70017 20.8181C8.19404 21.0818 8.73198 21.0917 9.24311 20.8467C9.58142 20.6845 9.71946 20.5346 10.4426 19.5434L11.1064 18.6336L11.836 18.6074C13.1137 18.5616 14.0417 18.2758 14.837 17.6832C15.139 17.4583 15.5637 17.0049 15.772 16.6852C16.0217 16.302 16.3073 15.6089 16.4243 15.1025L16.5365 14.6163L16.9415 14.5165C18.4773 14.1378 19.5633 13.131 20.0366 11.647C20.3254 10.7417 20.331 10.6712 20.3513 7.71157C20.3712 4.79666 20.351 4.35667 20.1608 3.56674C19.6897 1.61063 18.5459 0.538845 16.4751 0.113169C16.1498 0.04634 15.6571 0.0354077 12.5 0.0251157C10.518 0.0186661 8.71032 0.0313824 8.48304 0.0533844ZM15.8417 1.51553C17.7655 1.70646 18.7065 2.64811 18.9253 4.60111C18.9548 4.86463 18.9648 5.96743 18.9529 7.66583C18.9374 9.89613 18.9233 10.3663 18.8645 10.6162C18.6345 11.5949 18.2805 12.1949 17.6764 12.6299C17.4714 12.7774 16.8204 13.0838 16.7082 13.0855C16.6704 13.0861 16.6526 12.4847 16.639 10.742C16.6184 8.11882 16.603 7.94669 16.3057 7.02055C16.0933 6.35875 15.8305 5.8834 15.4302 5.43659C14.7849 4.71652 14.0753 4.31888 12.9805 4.06387C12.5811 3.97083 12.4358 3.96658 9.10341 3.95048L5.64126 3.93373L5.66878 3.81C5.72208 3.57022 5.93455 3.08215 6.09783 2.82462C6.55894 2.09714 7.43271 1.63153 8.54682 1.51965C9.12434 1.4616 15.2637 1.45817 15.8417 1.51553ZM12.5219 5.46898C13.3292 5.60657 13.8519 5.86003 14.3168 6.33931C14.8357 6.87422 15.1112 7.59104 15.2115 8.66699C15.2419 8.99327 15.2519 10.0436 15.2395 11.5997C15.2185 14.2146 15.2041 14.4004 14.9666 15.1123C14.6406 16.0892 13.9509 16.7211 12.903 17.003C12.5667 17.0934 12.3051 17.1251 11.6482 17.155C10.3677 17.2133 10.3437 17.2279 9.4336 18.5057C9.05331 19.0397 8.72696 19.453 8.65087 19.497C8.40446 19.6395 8.33662 19.5808 7.65134 18.6327C6.91577 17.615 6.84073 17.5278 6.56702 17.3726C6.28627 17.2134 5.94616 17.1573 5.26093 17.1573C2.84597 17.1573 2.00836 16.4707 1.79865 14.3191C1.76344 13.9579 1.75313 12.9502 1.76554 11.0736C1.78126 8.68876 1.79292 8.30952 1.8598 8.0089C2.19205 6.51519 3.03524 5.71219 4.52807 5.46783C5.07934 5.37763 11.9916 5.37859 12.5219 5.46898ZM5.13962 10.7919C4.41564 11.1533 4.42009 12.1996 5.14713 12.5609C5.26031 12.6171 5.38083 12.6336 5.5812 12.6203C6.08809 12.5864 6.42824 12.2042 6.42824 11.6683C6.42824 11.3367 6.29143 11.054 6.04178 10.8699C5.80258 10.6935 5.4056 10.6592 5.13962 10.7919ZM8.1096 10.7905C8.01333 10.8377 7.87189 10.951 7.79531 11.0423C7.27405 11.664 7.70454 12.6289 8.50313 12.6289C9.40844 12.6289 9.76096 11.42 9.01548 10.8719C8.77388 10.6943 8.37847 10.6587 8.1096 10.7905ZM11.1472 10.7586C10.719 10.9375 10.4711 11.4303 10.5769 11.8921C10.7535 12.6629 11.6801 12.892 12.1851 12.2897C12.3202 12.1285 12.412 11.88 12.4124 11.6736C12.4132 11.332 12.1692 10.9367 11.8697 10.7943C11.6775 10.7028 11.3225 10.6853 11.1472 10.7586Z" fill="white"/>
</svg>
