<svg width="31" height="31" viewBox="0 0 31 31" fill="none" xmlns="http://www.w3.org/2000/svg">
<path fill-rule="evenodd" clip-rule="evenodd" d="M6.53453 0.133469C5.70845 0.569981 5.63368 1.71481 6.39974 2.1975L6.60135 2.32454L6.60466 3.21382C6.6065 3.70293 6.62549 4.1686 6.64696 4.24857C6.72592 4.54331 6.9295 4.57951 8.50868 4.57951H9.97282V7.31087H8.76593C7.18002 7.31087 7.30497 7.18593 7.30497 8.77184V9.97873H4.57356V8.51458C4.57356 6.9354 4.53735 6.73182 4.24262 6.65287C4.16265 6.6314 3.69698 6.6124 3.20787 6.61056L2.31859 6.60726L2.19155 6.40565C1.70486 5.63317 0.551962 5.71594 0.124344 6.55409C-0.0834314 6.96139 -0.00320535 7.56286 0.304233 7.90288C0.777904 8.42667 1.80268 8.36302 2.17605 7.78658L2.31859 7.56654L3.62076 7.56496V9.02294C3.62076 10.5707 3.64775 10.7386 3.91657 10.861C4.01706 10.9068 4.63854 10.9315 5.68818 10.9315H7.30497V13.0912H2.36725L2.20419 12.8448C1.99673 12.5313 1.59014 12.329 1.1676 12.329C0.164869 12.329 -0.379563 13.5882 0.305885 14.322C0.676018 14.7183 1.21696 14.8364 1.68599 14.6233C1.92965 14.5127 2.28683 14.1654 2.28683 14.0391C2.28683 14.0043 3.30455 13.9805 4.79588 13.9805H7.30497V16.1402H4.79588C3.30455 16.1402 2.28683 16.1164 2.28683 16.0816C2.28683 15.9554 1.92965 15.608 1.68599 15.4974C1.21696 15.2843 0.676018 15.4024 0.305885 15.7987C-0.379563 16.5325 0.164869 17.7917 1.1676 17.7917C1.59014 17.7917 1.99673 17.5894 2.20419 17.2759L2.36725 17.0295H7.30497V19.1892H5.68818C4.63854 19.1892 4.01706 19.2139 3.91657 19.2597C3.64775 19.3822 3.62076 19.55 3.62076 21.0978V22.5558L2.31859 22.5542L2.17605 22.3341C1.79829 21.751 0.783494 21.6879 0.304233 22.2178C-0.00320535 22.5579 -0.0834314 23.1593 0.124344 23.5666C0.551962 24.4048 1.70486 24.4875 2.19155 23.7151L2.31859 23.5135L3.20787 23.5101C3.69698 23.5083 4.16265 23.4893 4.24262 23.4678C4.53735 23.3889 4.57356 23.1853 4.57356 21.6061V20.142H7.30497V21.3378C7.30497 22.9216 7.19247 22.8098 8.78588 22.8098H9.97282V25.5412H8.50868C6.9295 25.5412 6.72592 25.5774 6.64696 25.8722C6.62549 25.9521 6.6065 26.4178 6.60466 26.9069L6.60135 27.7962L6.39974 27.9232C5.62727 28.4099 5.71003 29.5628 6.54819 29.9904C6.95548 30.1982 7.55695 30.118 7.89698 29.8105C8.42077 29.3369 8.35712 28.3121 7.78067 27.9387L7.56064 27.7962L7.55905 26.494H9.01703C10.5648 26.494 10.7327 26.467 10.8551 26.1982C10.9009 26.0977 10.9256 25.4762 10.9256 24.4266V22.8098H13.0853V27.7475L12.8389 27.9106C12.5254 28.118 12.3231 28.5246 12.3231 28.9472C12.3231 29.7452 13.196 30.3337 13.9546 30.0471C14.3626 29.8929 14.7341 29.3501 14.7341 28.9078C14.7341 28.5791 14.5312 28.1904 14.2356 27.953L13.9746 27.7431V22.8098H16.1343V27.7431L15.8733 27.953C15.5777 28.1904 15.3748 28.5791 15.3748 28.9078C15.3748 29.3501 15.7462 29.8929 16.1543 30.0471C16.9129 30.3337 17.7858 29.7452 17.7858 28.9472C17.7858 28.5246 17.5835 28.118 17.27 27.9106L17.0236 27.7475V22.8098H19.1833V24.4266C19.1833 25.4762 19.208 26.0977 19.2538 26.1982C19.3762 26.467 19.5441 26.494 21.0919 26.494H22.5498L22.5483 27.7962L22.3282 27.9387C21.745 28.3165 21.682 29.3313 22.2119 29.8105C22.5519 30.118 23.1534 30.1982 23.5607 29.9904C24.3989 29.5628 24.4816 28.4099 23.7092 27.9232L23.5075 27.7962L23.5042 26.9069C23.5024 26.4178 23.4834 25.9521 23.4619 25.8722C23.383 25.5774 23.1794 25.5412 21.6002 25.5412H20.1361V22.8098H21.3319C22.9157 22.8098 22.8039 22.9223 22.8039 21.3289V20.142H25.5353V21.6061C25.5353 23.1853 25.5715 23.3889 25.8662 23.4678C25.9462 23.4893 26.4119 23.5083 26.901 23.5101L27.7903 23.5135L27.9173 23.7151C28.404 24.4875 29.5569 24.4048 29.9845 23.5666C30.3017 22.9448 29.9465 22.0891 29.2877 21.8883C28.8096 21.7426 28.1822 21.9491 27.9328 22.3341L27.7903 22.5542L26.4881 22.5558V21.0978C26.4881 19.55 26.4611 19.3822 26.1923 19.2597C26.0918 19.2139 25.4703 19.1892 24.4207 19.1892H22.8039V17.0295H27.7416L27.9047 17.2759C28.1121 17.5894 28.5187 17.7917 28.9413 17.7917C29.7393 17.7917 30.3278 16.9188 30.0412 16.1602C29.887 15.7522 29.3442 15.3808 28.9019 15.3808C28.5732 15.3808 28.1845 15.5836 27.947 15.8792L27.7372 16.1402H22.8039V13.9805H27.7372L27.947 14.2415C28.1845 14.5371 28.5732 14.74 28.9019 14.74C29.3442 14.74 29.887 14.3686 30.0412 13.9605C30.3278 13.2019 29.7393 12.329 28.9413 12.329C28.5187 12.329 28.1121 12.5313 27.9047 12.8448L27.7416 13.0912H22.8039V10.9315H24.4207C25.4703 10.9315 26.0918 10.9068 26.1923 10.861C26.4611 10.7386 26.4881 10.5707 26.4881 9.02294V7.56496L27.7903 7.56654L27.9328 7.78658C28.1497 8.12133 28.5194 8.28261 29.0002 8.25199C29.3122 8.23211 29.4443 8.18904 29.6317 8.04619C30.0771 7.70648 30.234 7.04301 29.9845 6.55409C29.5569 5.71594 28.404 5.63317 27.9173 6.40565L27.7903 6.60726L26.901 6.61056C26.4119 6.6124 25.9462 6.6314 25.8662 6.65287C25.5715 6.73182 25.5353 6.9354 25.5353 8.51458V9.97873H22.8039V8.78289C22.8039 7.19908 22.9164 7.31087 21.323 7.31087H20.1361V4.57951H21.6002C23.1794 4.57951 23.383 4.54331 23.4619 4.24857C23.4834 4.1686 23.5024 3.70293 23.5042 3.21382L23.5075 2.32454L23.7092 2.1975C24.4816 1.71081 24.3989 0.557912 23.5607 0.130293C23.1534 -0.0774817 22.5519 0.00274441 22.2119 0.310183C21.682 0.789444 21.745 1.80424 22.3282 2.182L22.5483 2.32454L22.5498 3.62671H21.0919C19.5441 3.62671 19.3762 3.6537 19.2538 3.92252C19.208 4.02301 19.1833 4.64449 19.1833 5.69409V7.31087H17.0236V2.3732L17.27 2.21014C17.5835 2.00268 17.7858 1.59609 17.7858 1.17355C17.7858 0.375545 16.9129 -0.212971 16.1543 0.0736332C15.7462 0.227797 15.3748 0.770642 15.3748 1.21293C15.3748 1.54159 15.5777 1.93033 15.8733 2.16777L16.1343 2.37758V7.31087H13.9746V4.80183C13.9746 3.3105 13.9984 2.29278 14.0332 2.29278C14.1594 2.29278 14.5068 1.9356 14.6174 1.69194C14.8305 1.22291 14.7124 0.681967 14.3161 0.311834C13.5823 -0.373614 12.3231 0.170819 12.3231 1.17355C12.3231 1.59609 12.5254 2.00268 12.8389 2.21014L13.0853 2.3732V7.31087H10.9256V5.69409C10.9256 4.64449 10.9009 4.02301 10.8551 3.92252C10.7327 3.6537 10.5648 3.62671 9.01703 3.62671H7.55905L7.56064 2.32454L7.78067 2.182C8.36385 1.80424 8.42693 0.789444 7.89698 0.310183C7.55797 0.00363369 6.93356 -0.0773547 6.53453 0.133469ZM6.90797 0.963934C6.75393 1.05363 6.76155 1.38018 6.91965 1.46479C6.98724 1.50094 7.07096 1.53054 7.1057 1.53054C7.21007 1.53054 7.36849 1.33902 7.36849 1.21293C7.36849 1.0798 7.20721 0.894316 7.09402 0.897238C7.05279 0.898318 6.96914 0.928299 6.90797 0.963934ZM13.3121 0.995123C13.1777 1.1296 13.1864 1.29684 13.3348 1.43113C13.5917 1.66361 13.9466 1.34182 13.7553 1.04988C13.6392 0.872719 13.4571 0.850233 13.3121 0.995123ZM16.3536 1.04988C16.1623 1.34182 16.5172 1.66361 16.7741 1.43113C16.9279 1.29189 16.9303 1.13607 16.7804 1.00046C16.6172 0.852774 16.4716 0.869606 16.3536 1.04988ZM22.8402 0.995123C22.7853 1.05007 22.7404 1.14808 22.7404 1.21293C22.7404 1.33902 22.8988 1.53054 23.0032 1.53054C23.1732 1.53054 23.3121 1.38774 23.3121 1.21293C23.3121 0.933826 23.0312 0.804181 22.8402 0.995123ZM0.951632 6.93217C0.86264 7.09846 0.924954 7.29347 1.08318 7.34365C1.3769 7.4369 1.60183 7.19279 1.46234 6.93217C1.36826 6.75628 1.04571 6.75628 0.951632 6.93217ZM28.6465 6.93217C28.5575 7.09846 28.6198 7.29347 28.7781 7.34365C29.0718 7.4369 29.2967 7.19279 29.1572 6.93217C29.0632 6.75628 28.7406 6.75628 28.6465 6.93217ZM8.19425 21.9206H21.9146V8.20016H8.19425V21.9206ZM9.71874 9.72465C9.5938 9.84959 9.5917 9.93636 9.5917 15.0493V20.2469L9.88573 20.5231H20.2409L20.5172 20.2291V9.87386L20.2232 9.59761H15.0345C9.93045 9.59761 9.84368 9.5997 9.71874 9.72465ZM10.481 19.6338H19.6279V10.4869H10.481V19.6338ZM0.988792 13.3407C0.756307 13.5976 1.0781 13.9525 1.37004 13.7612C1.55374 13.6409 1.5688 13.4685 1.40841 13.3234C1.25564 13.1851 1.12473 13.1906 0.988792 13.3407ZM28.6841 13.3181C28.5392 13.463 28.5617 13.6451 28.7388 13.7612C29.0308 13.9525 29.3526 13.5976 29.1201 13.3407C28.9858 13.1923 28.8185 13.1836 28.6841 13.3181ZM1.03059 16.3661C0.952903 16.4205 0.889382 16.5161 0.889382 16.5786C0.889382 16.7131 1.08153 16.9024 1.21804 16.9024C1.34063 16.9024 1.52459 16.7015 1.52459 16.5676C1.52459 16.4773 1.30239 16.2672 1.20698 16.2672C1.18761 16.2672 1.10821 16.3118 1.03059 16.3661ZM28.7255 16.3661C28.554 16.4862 28.5442 16.6559 28.7005 16.7973C28.8514 16.934 28.9839 16.9304 29.1144 16.7863C29.2517 16.6345 29.247 16.5488 29.0924 16.3943C28.9395 16.2413 28.9072 16.2388 28.7255 16.3661ZM0.989173 22.8461C0.872168 22.9632 0.865816 23.0282 0.955126 23.1952C1.08782 23.443 1.52459 23.3003 1.52459 23.0091C1.52459 22.9047 1.33307 22.7463 1.20698 22.7463C1.14213 22.7463 1.04412 22.7912 0.989173 22.8461ZM28.6841 22.8461C28.5671 22.9632 28.5607 23.0282 28.65 23.1952C28.7827 23.443 29.2195 23.3003 29.2195 23.0091C29.2195 22.9047 29.028 22.7463 28.9019 22.7463C28.837 22.7463 28.739 22.7912 28.6841 22.8461ZM6.90797 28.6588C6.75393 28.7485 6.76155 29.075 6.91965 29.1596C6.98724 29.1958 7.07096 29.2254 7.1057 29.2254C7.21007 29.2254 7.36849 29.0339 7.36849 28.9078C7.36849 28.7747 7.20721 28.5892 7.09402 28.5921C7.05279 28.5932 6.96914 28.6232 6.90797 28.6588ZM13.3175 28.7064C13.1809 28.8574 13.1844 28.9898 13.3285 29.1203C13.4877 29.2643 13.6311 29.2521 13.7487 29.0842C13.876 28.9025 13.8735 28.8702 13.7205 28.7172C13.5628 28.5595 13.453 28.5565 13.3175 28.7064ZM16.3508 28.749C16.2544 28.8961 16.2544 28.9195 16.3508 29.0666C16.4737 29.2542 16.6452 29.2708 16.7914 29.1092C16.928 28.9582 16.9245 28.8258 16.7804 28.6953C16.6161 28.5467 16.4715 28.5647 16.3508 28.749ZM22.8402 28.69C22.7853 28.7449 22.7404 28.8429 22.7404 28.9078C22.7404 29.0339 22.8988 29.2254 23.0032 29.2254C23.1732 29.2254 23.3121 29.0826 23.3121 28.9078C23.3121 28.6287 23.0312 28.499 22.8402 28.69Z" fill="url(#paint0_linear_804_5933)"/>
<defs>
<linearGradient id="paint0_linear_804_5933" x1="0" y1="0" x2="30.7232" y2="30.8677" gradientUnits="userSpaceOnUse">
<stop stop-color="#0ABD92"/>
<stop offset="1" stop-color="#009DB8"/>
</linearGradient>
</defs>
</svg>
