<svg width="29" height="30" viewBox="0 0 29 30" fill="none" xmlns="http://www.w3.org/2000/svg">
<path fill-rule="evenodd" clip-rule="evenodd" d="M13.0275 0.384103C11.3521 0.560679 9.71765 0.967966 8.71171 1.45966C8.37261 1.62535 8.30005 1.68759 8.20093 1.89784C8.06586 2.18427 8.05747 2.32565 8.16067 2.5792C8.33815 3.01523 8.80724 3.21822 9.24436 3.04822C10.0117 2.74983 11.0133 2.44004 11.6194 2.31363C17.1925 1.15151 22.8274 4.01562 25.3155 9.27487C25.5227 9.71299 25.7703 10.301 25.8656 10.5816C26.9916 13.897 26.7721 17.5005 25.2555 20.5985C24.8849 21.3556 24.3604 22.2152 24.3307 22.1142C24.1993 21.668 23.9207 21.429 23.5245 21.4229C23.2239 21.4182 22.9537 21.5729 22.8033 21.8357C22.6987 22.0185 22.6909 22.1263 22.6909 23.3926C22.6909 24.7006 22.6957 24.7608 22.8139 24.956C23.0482 25.3427 23.1249 25.3583 24.6918 25.338L26.0853 25.3199L26.287 25.1128C26.4546 24.9406 26.4934 24.8553 26.5166 24.6078C26.5669 24.0699 26.2618 23.7264 25.6788 23.6646L25.379 23.6329L25.7263 23.1159C27.8792 19.9108 28.6834 16.0178 27.9895 12.1603C27.4787 9.32078 26.1226 6.69351 24.0918 4.60872C21.8966 2.35529 19.2324 0.984121 16.0922 0.491749C15.5367 0.404623 13.5085 0.333426 13.0275 0.384103ZM2.14925 4.42886C1.9049 4.53333 1.72047 4.81103 1.69175 5.1177C1.64183 5.65112 1.94819 5.9965 2.52551 6.05767L2.82094 6.08896L2.36504 6.78982C1.12498 8.69605 0.381169 10.7254 0.0715522 13.0474C-0.0233703 13.7592 -0.0239778 15.9769 0.070503 16.6753C0.655113 20.9961 2.89703 24.6614 6.40116 27.0252C9.53255 29.1375 13.4173 29.8573 17.1901 29.0244C17.8909 28.8697 19.0145 28.4988 19.4969 28.2631C19.836 28.0974 19.9085 28.0351 20.0077 27.8249C20.1427 27.5384 20.1511 27.3971 20.0479 27.1435C19.8704 26.7075 19.4013 26.5045 18.9642 26.6745C18.1819 26.9787 17.1684 27.2922 16.576 27.4132C14.7305 27.7899 12.7536 27.7336 10.9568 27.2531C8.51822 26.6009 6.19281 25.0968 4.59371 23.1375C1.51543 19.3656 0.774001 14.2392 2.65892 9.75964C2.94248 9.08588 3.11156 8.75829 3.54928 8.03509C3.82461 7.58013 3.85901 7.54329 3.89165 7.66839C4.08094 8.39499 5.03563 8.53285 5.40527 7.88703C5.50986 7.70422 5.51764 7.5964 5.51764 6.33015C5.51764 5.0702 5.50947 4.95581 5.4072 4.78156C5.17688 4.38923 5.10935 4.3741 3.60605 4.37807C2.86555 4.38005 2.20999 4.4029 2.14925 4.42886ZM12.0484 5.05807C11.7335 5.22869 11.6514 5.43809 11.6194 6.15199L11.5918 6.76749L11.1777 6.92263C10.9499 7.008 10.6545 7.13509 10.5213 7.20504L10.2791 7.33236L9.88629 6.93681C9.67021 6.71925 9.43917 6.51285 9.37285 6.47822C9.21791 6.39727 8.83082 6.39704 8.67532 6.47788C8.50331 6.56727 6.05084 9.07686 5.9557 9.26081C5.86144 9.44317 5.85216 9.83124 5.93797 10.0043C5.97171 10.0724 6.17266 10.3095 6.38453 10.5312L6.76969 10.9343L6.63501 11.2114C6.56096 11.3638 6.43235 11.6735 6.3493 11.8995L6.19822 12.3105H5.64868C4.97903 12.3105 4.72452 12.4154 4.55202 12.7625C4.44727 12.9734 4.44086 13.0939 4.44086 14.8614C4.44086 16.6277 4.44732 16.7494 4.55185 16.9598C4.71812 17.2944 4.91801 17.379 5.62019 17.4122L6.21976 17.4406L6.3709 17.8657C6.45406 18.0995 6.57786 18.4027 6.646 18.5395L6.77002 18.7881L6.3847 19.1914C6.17277 19.4132 5.97171 19.6503 5.93797 19.7184C5.85912 19.8775 5.8589 20.2748 5.93764 20.4345C6.02472 20.6111 8.46941 23.1286 8.64859 23.2263C8.82624 23.3231 9.20427 23.3326 9.37285 23.2445C9.43917 23.2099 9.67021 23.0035 9.88629 22.7859L10.2791 22.3904L10.5213 22.5177C10.6545 22.5876 10.9499 22.7147 11.1777 22.8001L11.5918 22.9552L11.6194 23.5707C11.6518 24.2915 11.7342 24.4967 12.0601 24.6674C12.265 24.7747 12.3836 24.7814 14.1043 24.7814C15.826 24.7814 15.9434 24.7748 16.1489 24.6673C16.4864 24.4905 16.5892 24.2286 16.5892 23.5455V22.9853L16.9895 22.8262C17.2097 22.7386 17.5113 22.6049 17.6598 22.5288L17.9297 22.3907L18.3225 22.7861C18.5384 23.0036 18.7694 23.2099 18.8357 23.2445C19.0043 23.3326 19.3823 23.3231 19.56 23.2263C19.7392 23.1286 22.1839 20.6111 22.2709 20.4345C22.3497 20.2748 22.3495 19.8775 22.2706 19.7184C22.2369 19.6503 22.0358 19.4132 21.8239 19.1914L21.4386 18.7881L21.5626 18.5395C21.6307 18.4027 21.7545 18.0995 21.8377 17.8657L21.9888 17.4406L22.5884 17.4122C23.2906 17.379 23.4905 17.2944 23.6567 16.9598C23.7613 16.7494 23.7677 16.6277 23.7677 14.8614C23.7677 13.095 23.7613 12.9733 23.6567 12.7629C23.4905 12.4284 23.2906 12.3437 22.5884 12.3105L21.9888 12.2822L21.8377 11.857C21.7545 11.6232 21.6307 11.32 21.5626 11.1832L21.4386 10.9346L21.8239 10.5314C22.0358 10.3096 22.2369 10.0724 22.2706 10.0043C22.3495 9.84524 22.3497 9.44787 22.2709 9.28824C22.1839 9.11167 19.7392 6.59408 19.56 6.49641C19.3823 6.39965 19.0043 6.39013 18.8357 6.47822C18.7694 6.51285 18.5384 6.71913 18.3225 6.93664L17.9297 7.33202L17.6598 7.19388C17.5113 7.11786 17.2097 6.98408 16.9895 6.89656L16.5892 6.73739V6.17722C16.5892 5.49415 16.4864 5.23221 16.1489 5.05546C15.9431 4.9477 15.8287 4.94147 14.0927 4.94385C12.3728 4.94623 12.2412 4.95354 12.0484 5.05807ZM14.9327 7.10958C14.9328 7.88884 15.0957 8.09183 15.9041 8.32039C16.1793 8.39822 16.7413 8.6359 17.1798 8.85998C18.1736 9.36766 18.2482 9.36517 18.8128 8.80562L19.189 8.4328L19.7794 9.03888L20.3698 9.64497L20.0286 9.99988C19.686 10.3564 19.571 10.5594 19.571 10.8079C19.571 10.8815 19.7163 11.2306 19.8939 11.5836C20.2164 12.225 20.3728 12.6257 20.5331 13.2227C20.6971 13.8334 20.9528 14.0111 21.6676 14.0111H22.1111V14.8614V15.7116H21.6676C20.9528 15.7116 20.6971 15.8893 20.5331 16.5C20.3728 17.097 20.2164 17.4978 19.8939 18.1391C19.7163 18.4921 19.571 18.8412 19.571 18.9148C19.571 19.1634 19.686 19.3663 20.0286 19.7228L20.3698 20.0778L19.7778 20.6855L19.1858 21.2932L18.84 20.943C18.4928 20.5913 18.295 20.4732 18.0529 20.4732C17.9812 20.4732 17.6412 20.6224 17.2973 20.8047C16.6725 21.1358 16.2821 21.2963 15.7006 21.4608C15.1056 21.6292 14.9326 21.8917 14.9326 22.6255V23.0808H14.1043H13.276V22.6255C13.276 21.8917 13.1029 21.6292 12.508 21.4608C11.9265 21.2963 11.5361 21.1358 10.9113 20.8047C10.5674 20.6224 10.2274 20.4732 10.1556 20.4732C9.91357 20.4732 9.71582 20.5913 9.36855 20.943L9.02282 21.2932L8.43241 20.6871L7.842 20.0811L8.20518 19.6949C8.75025 19.1153 8.75268 19.0387 8.25814 18.0185C8.03985 17.5683 7.80832 16.9914 7.7325 16.709C7.50986 15.879 7.31211 15.7119 6.55301 15.7118L6.09745 15.7116V14.8614V14.0111L6.55301 14.011C7.31791 14.0108 7.52841 13.8269 7.75034 12.9644C7.82654 12.6684 8.02991 12.1606 8.25753 11.698C8.46653 11.2733 8.63755 10.8692 8.63755 10.7999C8.63755 10.5596 8.51932 10.353 8.17994 9.99988L7.8388 9.64497L8.42921 9.03888L9.01956 8.4328L9.39577 8.80562C9.96039 9.36517 10.035 9.36766 11.0288 8.85998C11.4673 8.6359 12.0293 8.39822 12.3045 8.32039C13.1129 8.09183 13.2758 7.88884 13.2759 7.10958L13.276 6.64193H14.1043H14.9326L14.9327 7.10958ZM13.1932 9.55591C11.1498 9.96354 9.56507 11.4745 9.01315 13.5415C8.84335 14.1774 8.84335 15.5453 9.01315 16.1812C9.52907 18.1133 10.9474 19.562 12.8342 20.0842C13.4925 20.2663 14.7482 20.2666 15.402 20.0848C17.264 19.5669 18.6838 18.099 19.1932 16.1651C19.3757 15.4722 19.3757 14.2505 19.1932 13.5576C18.6834 11.6223 17.2437 10.1356 15.402 9.64253C14.833 9.49016 13.7379 9.44725 13.1932 9.55591ZM14.8498 11.2618C16.1776 11.547 17.3329 12.733 17.6108 14.0961C17.7797 14.9251 17.6778 15.7139 17.2996 16.5052C16.9764 17.1813 16.3643 17.8098 15.7057 18.1415C14.6424 18.6771 13.5662 18.6771 12.5029 18.1415C11.8443 17.8098 11.2322 17.1813 10.909 16.5052C10.3872 15.4137 10.3872 14.309 10.909 13.2175C11.3604 12.2731 12.34 11.4835 13.3312 11.2649C13.8045 11.1606 14.3731 11.1594 14.8498 11.2618Z" fill="url(#paint0_linear_677_2760)"/>
<defs>
<linearGradient id="paint0_linear_677_2760" x1="0" y1="0.367188" x2="29.5687" y2="29.2989" gradientUnits="userSpaceOnUse">
<stop stop-color="#0ABD92"/>
<stop offset="1" stop-color="#009DB8"/>
</linearGradient>
</defs>
</svg>
