<svg width="50" height="51" viewBox="0 0 50 51" fill="none" xmlns="http://www.w3.org/2000/svg">
<path fill-rule="evenodd" clip-rule="evenodd" d="M3.13077 0.286486C2.48597 0.437614 1.5421 0.992407 1.08233 1.49042C0.848961 1.74327 0.509875 2.26225 0.329002 2.6435L0 3.33686V9.04567C0 14.7002 0.00218302 14.7584 0.22474 15.1697C0.907484 16.4306 2.20728 16.8959 3.44252 16.3216C4.01767 16.0541 4.46341 15.5574 4.68534 14.9363C4.79366 14.6334 4.82557 13.4936 4.82911 9.80204L4.83368 5.05729L9.69335 5.0274C14.2219 4.99968 14.58 4.98422 14.9501 4.8007C16.9262 3.82076 16.7933 1.05261 14.7351 0.319182C14.4274 0.209469 13.2039 0.181444 8.93971 0.186011C5.96674 0.189229 3.3527 0.234484 3.13077 0.286486ZM35.2649 0.317003C34.6404 0.542968 34.1448 0.987113 33.8775 1.56017C33.2274 2.95437 33.9568 4.51993 35.449 4.93367C35.7226 5.00944 37.439 5.04857 40.5146 5.04888L45.1663 5.0495L45.1709 9.7982C45.1744 13.4929 45.2063 14.6334 45.3147 14.9363C45.5366 15.5574 45.9823 16.0541 46.5575 16.3216C47.7927 16.8959 49.0925 16.4306 49.7753 15.1697C49.9978 14.7584 50 14.7003 50 9.04017V3.32596L49.6117 2.54168C49.1442 1.59702 48.5422 1.0086 47.5759 0.551479L46.8815 0.222963L41.2682 0.199401C36.7498 0.180406 35.5788 0.203345 35.2649 0.317003ZM14.6077 1.99031C14.9621 2.36699 14.9445 2.92323 14.568 3.24656L14.2815 3.49256H9.14667C5.60489 3.49256 3.93326 3.52826 3.75852 3.60777C3.61923 3.67119 3.45333 3.83685 3.38981 3.97594C3.31029 4.15042 3.27443 5.81739 3.27443 9.34793C3.27443 14.2962 3.26757 14.4757 3.06819 14.7288C2.95478 14.8728 2.74387 15.0202 2.59948 15.0564C2.29023 15.1339 1.77017 14.8953 1.61435 14.6045C1.46466 14.3253 1.46965 3.99545 1.61965 3.45571C1.75988 2.95157 2.47037 2.17039 3.01455 1.92222C3.40021 1.74628 3.82661 1.73237 8.89563 1.7303L14.3608 1.72801L14.6077 1.99031ZM46.9854 1.92222C47.5296 2.17039 48.2401 2.95157 48.3804 3.45571C48.4527 3.71593 48.4918 5.71754 48.4921 9.18009L48.4927 14.5044L48.2375 14.7592C47.8515 15.1448 47.3153 15.1379 46.9595 14.743L46.7256 14.4834V9.35613C46.7256 5.81957 46.6898 4.15042 46.6102 3.97594C46.5467 3.83685 46.3808 3.67119 46.2415 3.60777C46.0667 3.52826 44.3951 3.49256 40.8533 3.49256H35.7185L35.432 3.24656C35.0306 2.90175 35.0306 2.31882 35.432 1.97401L35.7185 1.72801L41.1441 1.7303C46.1746 1.73237 46.5999 1.74639 46.9854 1.92222ZM21.9854 12.4757C16.599 13.2214 10.5481 16.149 5.24948 20.5733C2.15197 23.1597 1.61123 23.8453 1.61123 25.186C1.61123 26.305 1.95447 26.864 3.50936 28.2773C6.82412 31.2901 10.5706 33.8492 14.0333 35.466C19.7985 38.1577 25.3789 38.7545 30.9931 37.2798C36.0764 35.9445 41.4112 32.8616 46.3636 28.3975C48.0496 26.8778 48.3754 26.3502 48.3842 25.1248C48.3919 24.0643 48.02 23.4753 46.4389 22.0436C44.0547 19.8847 41.7857 18.1754 39.4271 16.7615C37.9981 15.9048 37.5509 15.7753 37.2461 16.1298C36.7298 16.7299 36.9146 17.0188 38.3737 17.8925C40.6966 19.2833 42.9136 20.9228 45.0666 22.8416C46.6553 24.2575 46.8695 24.5369 46.8695 25.1938C46.8695 25.8499 46.6561 26.1153 44.8448 27.7118C41.9948 30.2238 39.1692 32.1579 36.1227 33.682C28.2963 37.5975 21.372 37.5427 13.5135 33.5031C10.7205 32.0672 8.05665 30.2343 5.34896 27.8849C3.20374 26.0235 2.93617 25.6396 3.17277 24.7623C3.25489 24.4578 3.51206 24.1522 4.29044 23.4348C9.45437 18.6749 15.0141 15.5104 20.2585 14.3465C22.0866 13.9406 23.1571 13.8249 25.052 13.828C27.742 13.8326 30.379 14.3243 33.0448 15.3183C34.2953 15.7847 34.5131 15.8161 34.8521 15.5789C35.1019 15.4044 35.1624 14.9405 34.9799 14.6001C34.7542 14.1789 31.2683 13.0477 28.8462 12.6094C27.2659 12.3236 23.6006 12.2522 21.9854 12.4757ZM23.8046 16.5745C21.0307 17.0003 18.557 18.7304 17.3361 21.0986C17.0085 21.7339 16.9654 21.8921 17.0522 22.1385C17.1084 22.2982 17.2761 22.4972 17.4247 22.5804C17.8874 22.8397 18.2198 22.6036 18.8061 21.5991C19.6927 20.0802 21.0691 18.9655 22.8071 18.3592C23.5098 18.114 23.751 18.0836 25 18.0824C26.3028 18.0812 26.4675 18.1038 27.2992 18.3988C30.1252 19.401 32.0006 21.8883 32.1428 24.8228C32.2082 26.1725 32.0064 27.1325 31.3991 28.3611C30.5529 30.0727 29.0849 31.3561 27.2349 32.0017C26.4831 32.2641 26.2689 32.292 25 32.292C23.7455 32.292 23.5129 32.2625 22.8071 32.0146C20.0121 31.0333 18.0767 28.6053 17.8608 25.8096C17.7822 24.7917 17.5821 24.4595 17.0478 24.4595C16.7913 24.4595 16.6396 24.5349 16.474 24.7449C16.2707 25.0027 16.2559 25.1056 16.3216 25.8088C16.6146 28.9441 18.3918 31.5905 21.1019 32.9268C22.4268 33.5801 23.433 33.8211 24.896 33.8358C26.3577 33.8506 27.3979 33.635 28.6328 33.0615C30.4333 32.2252 31.8749 30.83 32.7483 29.0784C33.4348 27.7017 33.6543 26.7589 33.6543 25.186C33.6543 23.6106 33.434 22.6666 32.7461 21.2937C31.8552 19.5157 30.5896 18.2692 28.7942 17.4013C28.2225 17.1249 27.4159 16.8245 27.0018 16.7338C26.0407 16.5232 24.6049 16.4517 23.8046 16.5745ZM23.5789 21.1311C22.4967 21.5202 21.6079 22.3311 21.073 23.4177C20.8147 23.9422 20.79 24.0966 20.79 25.1882C20.79 26.3264 20.8062 26.417 21.1262 27.0658C21.5365 27.898 22.3728 28.7198 23.2065 29.11C23.7474 29.363 23.9189 29.3898 25 29.3898C26.1111 29.3898 26.2394 29.3683 26.8191 29.0854C27.1622 28.9179 27.7032 28.5209 28.0215 28.2031C28.3398 27.8853 28.7374 27.345 28.9051 27.0025C29.1885 26.4236 29.21 26.2955 29.21 25.186C29.21 24.0925 29.1859 23.9434 28.9228 23.4086C28.1301 21.7976 26.7338 20.9262 24.9577 20.9341C24.4075 20.9366 23.9305 21.0047 23.5789 21.1311ZM25.8226 22.5462C26.4578 22.7345 27.1974 23.3584 27.5094 23.9688C28.1719 25.2658 27.5703 26.9848 26.2001 27.7094C25.6028 28.0253 24.3928 28.023 23.7906 27.7047C22.7672 27.1639 22.2472 26.294 22.2542 25.1341C22.2591 24.3057 22.4258 23.8979 23.0104 23.2832C23.7962 22.4571 24.7125 22.2169 25.8226 22.5462ZM1.50728 33.9664C1.03659 34.1696 0.508212 34.6789 0.22474 35.2024C0.00218302 35.6137 0 35.6719 0 41.3264V47.0352L0.329002 47.7286C0.786694 48.6934 1.37609 49.2946 2.32204 49.7614L3.10728 50.1491L8.64719 50.1793C12.246 50.199 14.3277 50.1719 14.5879 50.1018C15.2356 49.9277 15.8371 49.4238 16.1189 48.8195C16.6973 47.579 16.2453 46.276 15.0079 45.6168L14.553 45.3745L9.69335 45.3447L4.83368 45.3148L4.82911 40.5701C4.82422 35.45 4.81985 35.4045 4.26029 34.672C3.69044 33.926 2.379 33.5899 1.50728 33.9664ZM46.5575 34.0505C45.9823 34.318 45.5366 34.8147 45.3147 35.4357C45.2063 35.7387 45.1744 36.8785 45.1709 40.5701L45.1663 45.3148L40.3067 45.3447L35.447 45.3745L34.9921 45.6168C33.7547 46.276 33.3027 47.579 33.8811 48.8195C34.1629 49.4238 34.7645 49.9277 35.4121 50.1018C35.6724 50.1719 37.7539 50.199 41.3528 50.1793L46.8927 50.1491L47.678 49.7614C48.6239 49.2946 49.2133 48.6934 49.671 47.7286L50 47.0352V41.3264C50 35.6719 49.9978 35.6137 49.7753 35.2024C49.0925 33.9415 47.7927 33.4762 46.5575 34.0505ZM3.06892 35.6442C3.26736 35.8961 3.27443 36.0817 3.27443 41.0242C3.27443 44.5547 3.31029 46.2217 3.38981 46.3962C3.45333 46.5352 3.61923 46.7009 3.75852 46.7643C3.93326 46.8438 5.60489 46.8795 9.14667 46.8795H14.2815L14.568 47.1255C14.9445 47.4489 14.9621 48.0051 14.6077 48.3818L14.3608 48.6441L8.89563 48.6418C3.82661 48.6397 3.40021 48.6258 3.01455 48.4499C2.47037 48.2017 1.75988 47.4205 1.61965 46.9164C1.46518 46.3609 1.46497 36.0462 1.61944 35.758C1.76143 35.493 2.27942 35.2718 2.60988 35.3349C2.74927 35.3614 2.95582 35.5006 3.06892 35.6442ZM48.2375 35.6129L48.4927 35.8676L48.4921 41.192C48.4918 44.6545 48.4527 46.6562 48.3804 46.9164C48.2401 47.4205 47.5296 48.2017 46.9854 48.4499C46.5998 48.6258 46.1734 48.6397 41.1044 48.6418L35.6392 48.6441L35.3923 48.3818C35.0379 48.0051 35.0555 47.4489 35.432 47.1255L35.7185 46.8795H40.8533C44.3951 46.8795 46.0667 46.8438 46.2415 46.7643C46.3808 46.7009 46.5467 46.5352 46.6102 46.3962C46.6897 46.2217 46.7256 44.5547 46.7256 41.0242C46.7256 36.0025 46.7296 35.8999 46.9411 35.6316C47.2363 35.2568 47.8718 35.2477 48.2375 35.6129Z" fill="url(#paint0_linear_677_3439)"/>
<defs>
<linearGradient id="paint0_linear_677_3439" x1="0" y1="0.185547" x2="51" y2="51.4355" gradientUnits="userSpaceOnUse">
<stop stop-color="#0ABD92"/>
<stop offset="1" stop-color="#009DB8"/>
</linearGradient>
</defs>
</svg>
