<svg width="30" height="25" viewBox="0 0 30 25" fill="none" xmlns="http://www.w3.org/2000/svg">
<path fill-rule="evenodd" clip-rule="evenodd" d="M2.66338 0.677372L2.51953 0.815626V2.81822V4.82075H3.01758H3.51562V3.15878V1.49681H5.24414H6.97266V1.01794V0.539062H4.88994H2.80717L2.66338 0.677372ZM14.4727 2.45456C14.4727 3.50808 14.4501 4.37005 14.4226 4.37005C14.395 4.37005 14.0325 4.39608 13.6169 4.42785C10.5787 4.66041 7.73684 5.60289 5.21965 7.2127C4.22561 7.84841 3.63363 8.31236 2.70311 9.18492C1.43742 10.3717 0 12.1588 0 12.5456C0 12.6773 0.376699 13.2657 0.882187 13.9236C1.61092 14.8721 3.00375 16.2574 3.98438 17.0091C5.23324 17.9665 7.06523 18.9808 8.57443 19.5503C10.2043 20.1655 11.9174 20.5218 14.0186 20.6829L14.4727 20.7177V22.6284V24.5391H15H15.5273V22.6236C15.5273 21.57 15.5499 20.7081 15.5774 20.7081C15.8872 20.7081 17.2939 20.5684 17.8498 20.4825C18.8246 20.3317 20.2097 19.9841 21.123 19.6609C22.71 19.0993 24.6792 18.034 26.0156 17.0139C26.8607 16.369 28.3872 14.8495 29.0396 14.0039C29.7769 13.0483 30 12.7066 30 12.5325C30 12.4008 29.6233 11.8124 29.1178 11.1545C28.3886 10.2053 26.9944 8.81889 26.0156 8.06937C23.6291 6.24199 20.7281 5.01867 17.7246 4.57337C17.2627 4.50487 15.8389 4.37005 15.5774 4.37005C15.5499 4.37005 15.5273 3.50808 15.5273 2.45456V0.539062H15H14.4727V2.45456ZM23.0273 1.01794V1.49681H24.7559H26.4844V3.15878V4.82075H26.9824H27.4805V2.81822V0.815626L27.3366 0.677372L27.1928 0.539062H25.1101H23.0273V1.01794ZM14.4727 6.79258V8.20103H15H15.5273V6.79258V5.38413H15.7379C16.1243 5.38413 17.1319 5.61472 17.7336 5.84092C20.1182 6.73715 21.8709 8.77247 22.3538 11.206C22.402 11.4489 22.4414 11.734 22.4414 11.8398V12.032H20.9766H19.5117V12.5391V13.0461H20.985H22.4582L22.4208 13.4332C22.3713 13.9459 22.1439 14.7733 21.8998 15.3291C20.9256 17.5477 18.8523 19.1574 16.3864 19.6098C16.1338 19.6561 15.8372 19.694 15.7273 19.694H15.5273V18.2855V16.8771H15H14.4727V18.2855V19.694H14.2727C14.1628 19.694 13.8662 19.6561 13.6136 19.6098C11.055 19.1404 8.94674 17.4439 8.00332 15.0952C7.7918 14.5686 7.55859 13.6002 7.55859 13.2485V13.0461H9.02344H10.4883V12.5391V12.032H9.02344H7.55859V11.8296C7.55859 11.7183 7.61279 11.3713 7.67906 11.0587C8.1815 8.6883 9.9484 6.70041 12.3432 5.81112C12.9149 5.59884 13.823 5.39456 14.2236 5.38813L14.4727 5.38413V6.79258ZM9.12943 6.66582C7.97186 7.73354 7.19109 9.01253 6.79477 10.4906C6.70037 10.8425 6.60293 11.3269 6.5782 11.5672L6.5332 12.0039L4.52637 12.0187L2.51953 12.0335V12.5391V13.0446L4.52637 13.0595L6.5332 13.0743L6.5782 13.5109C6.60293 13.7512 6.70037 14.2356 6.79477 14.5876C7.19232 16.07 7.97139 17.3441 9.13893 18.4211C9.43805 18.697 9.63334 18.9036 9.57287 18.8801C9.5124 18.8566 9.33105 18.7916 9.16992 18.7357C7.73438 18.238 6.1749 17.4008 4.77539 16.3764C3.69135 15.5829 2.14787 14.0189 1.36377 12.9193L1.0926 12.5391L1.36377 12.1588C2.14787 11.0592 3.69135 9.49523 4.77539 8.70177C6.03059 7.78301 7.45822 6.99264 8.73047 6.51213C9.06885 6.38436 9.39844 6.25743 9.46289 6.23011C9.69264 6.13281 9.65736 6.17889 9.12943 6.66582ZM21.0811 6.4323C22.4972 6.96746 24.025 7.80965 25.3125 8.76498C26.3582 9.54086 27.8705 11.085 28.6358 12.1582L28.9066 12.538L28.6258 12.9296C27.8412 14.0237 26.3728 15.5227 25.3125 16.3119C24.0452 17.2551 22.2684 18.2324 21.0351 18.6646C20.7612 18.7606 20.4923 18.8562 20.4376 18.8771C20.3828 18.898 20.598 18.6695 20.9157 18.3693C22.0921 17.2581 22.8363 16.011 23.232 14.4881C23.3133 14.1753 23.3994 13.7292 23.4233 13.4968L23.4668 13.0743L25.4736 13.0595L27.4805 13.0446V12.5391V12.0335L25.4736 12.0187L23.4668 12.0039L23.4233 11.5813C23.3994 11.3489 23.3133 10.9028 23.232 10.59C22.837 9.0696 22.0919 7.8198 20.921 6.71371C20.6061 6.41625 20.3589 6.17287 20.3715 6.17287C20.3842 6.17287 20.7036 6.2896 21.0811 6.4323ZM14.4289 9.21777C13.581 9.36317 12.7283 9.86548 12.2167 10.5208C10.734 12.4202 11.6865 15.0942 14.0918 15.7848C14.6487 15.9448 15.4949 15.9203 16.0818 15.7275C17.5451 15.2464 18.4797 14.0038 18.4797 12.5391C18.4797 10.7502 17.0559 9.30002 15.1932 9.19163C14.9419 9.17698 14.598 9.18875 14.4289 9.21777ZM15.8558 10.2932C16.5053 10.5256 16.9716 10.9404 17.257 11.5396C17.9482 12.9913 17.0123 14.6525 15.3589 14.9085C14.0385 15.113 12.7549 14.1926 12.5357 12.8842C12.369 11.8885 12.9596 10.8202 13.9145 10.3906C14.5618 10.0994 15.2216 10.0663 15.8558 10.2932ZM2.51953 22.2599V24.2625L2.66338 24.4008L2.80717 24.5391H4.88994H6.97266V24.0602V23.5813H5.24414H3.51562V21.9193V20.2574H3.01758H2.51953V22.2599ZM26.4844 21.9193V23.5813H24.7559H23.0273V24.0602V24.5391H25.1101H27.1928L27.3366 24.4008L27.4805 24.2625V22.2599V20.2574H26.9824H26.4844V21.9193Z" fill="url(#paint0_linear_677_2752)"/>
<defs>
<linearGradient id="paint0_linear_677_2752" x1="0" y1="0.539063" x2="23.8573" y2="30.5069" gradientUnits="userSpaceOnUse">
<stop stop-color="#0ABD92"/>
<stop offset="1" stop-color="#009DB8"/>
</linearGradient>
</defs>
</svg>
