<svg width="39" height="48" viewBox="0 0 39 48" fill="none" xmlns="http://www.w3.org/2000/svg">
<path fill-rule="evenodd" clip-rule="evenodd" d="M36.8743 0.993024C36.6293 1.24172 36.6273 1.2596 36.6273 3.19436C36.6273 5.12913 36.6293 5.14701 36.8743 5.3957C37.03 5.55386 37.2363 5.64653 37.4323 5.64653C37.6283 5.64653 37.8346 5.55386 37.9902 5.3957C38.2353 5.14701 38.2373 5.12913 38.2373 3.19436C38.2373 1.2596 38.2353 1.24172 37.9902 0.993024C37.8346 0.834859 37.6283 0.742188 37.4323 0.742188C37.2363 0.742188 37.03 0.834859 36.8743 0.993024ZM0.247033 1.40172C0.00201268 1.65041 0 1.66829 0 3.60306C0 5.53782 0.00201268 5.5557 0.247033 5.80439C0.402699 5.96256 0.608979 6.05523 0.804995 6.05523C1.00101 6.05523 1.20729 5.96256 1.36296 5.80439C1.60798 5.5557 1.60999 5.53782 1.60999 3.60306C1.60999 1.66829 1.60798 1.65041 1.36296 1.40172C1.20729 1.24355 1.00101 1.15088 0.804995 1.15088C0.608979 1.15088 0.402699 1.24355 0.247033 1.40172ZM23.6655 2.07566C22.1571 2.34979 20.6524 3.66293 19.0463 6.10632C18.2301 7.34804 17.0614 9.63551 16.556 10.9802L16.1835 11.9715L15.6851 11.7721C14.8619 11.4426 14.414 11.5295 14.1973 12.0608C13.9672 12.625 14.3032 13.0595 15.1691 13.3169C15.4044 13.3868 15.5968 13.4739 15.5968 13.5103C15.5968 13.5468 14.3033 17.0913 12.7223 21.3871C9.20915 30.9331 8.64947 32.4989 8.20371 34.0276C7.14826 37.647 7.07943 40.2406 7.98706 42.1814C8.55116 43.3874 9.22203 43.9881 11.0477 44.9217C12.9122 45.8751 16.0737 47.0193 18.0016 47.4384C19.4907 47.7622 20.3384 47.7033 21.3691 47.2045C23.5085 46.1692 25.0163 44.2075 26.708 40.2585C27.0148 39.5422 28.7894 34.8294 30.6515 29.7856C32.5136 24.7418 34.0524 20.5973 34.0711 20.5758C34.0898 20.5542 34.3747 20.6389 34.7042 20.764C35.2339 20.9652 35.3361 20.9755 35.587 20.8534C35.9587 20.6725 36.1657 20.2356 36.0526 19.8707C35.9888 19.6647 35.7959 19.5079 35.3038 19.2619L34.6409 18.9306L35.0338 17.8489C35.8882 15.4968 36.3683 12.8715 36.3684 10.5509C36.3685 8.79952 36.2323 8.05631 35.7452 7.14706C34.4708 4.76876 29.2177 2.21809 25.1987 2.02611C24.6495 1.99985 23.9596 2.02212 23.6655 2.07566ZM26.9581 3.92593C29.7758 4.53948 33.0693 6.22658 34.0856 7.5768C34.6225 8.28998 34.767 8.95237 34.757 10.6531C34.7437 12.8739 34.2471 15.4592 33.4222 17.6009C33.1637 18.2721 33.0977 18.3644 32.8899 18.3449C31.2887 18.1946 31.362 18.2177 31.0927 17.7789C29.9395 15.8992 26.5948 13.9923 23.359 13.3694C22.3086 13.1671 20.557 13.161 19.8318 13.357C19.3294 13.4928 19.267 13.4897 19.0268 13.3179C18.8836 13.2153 18.5301 13.0105 18.2411 12.8627L17.7157 12.594L18.0254 11.7001C19.1092 8.57177 21.6519 4.79257 23.2267 3.96904C24.0055 3.56198 25.2224 3.54788 26.9581 3.92593ZM0.247033 8.34955C0.00201268 8.59824 0 8.61612 0 10.5509C0 12.4856 0.00201268 12.5035 0.247033 12.7522C0.402699 12.9104 0.608979 13.0031 0.804995 13.0031C1.00101 13.0031 1.20729 12.9104 1.36296 12.7522C1.60798 12.5035 1.60999 12.4856 1.60999 10.5509C1.60999 8.61612 1.60798 8.59824 1.36296 8.34955C1.20729 8.19138 1.00101 8.09871 0.804995 8.09871C0.608979 8.09871 0.402699 8.19138 0.247033 8.34955ZM18.1433 14.7125C18.168 14.7557 17.9912 16.0095 17.7503 17.4987C17.5093 18.9879 17.3111 20.3072 17.3098 20.4305C17.3085 20.5538 17.4102 20.776 17.5359 20.9244C17.7454 21.1718 17.8545 21.2015 18.851 21.2824C20.2483 21.396 21.3305 21.6229 22.579 22.0641C24.1667 22.6253 25.2955 23.2377 26.7291 24.3156C27.508 24.9012 27.931 25.0006 28.2529 24.6738C28.3511 24.574 29.0644 23.4441 29.8378 22.1629L31.2439 19.8335L31.8304 19.8832C32.153 19.9106 32.4381 19.9545 32.4639 19.9806C32.5152 20.0327 26.672 35.978 25.6605 38.5465C23.8789 43.0706 22.2432 45.2719 20.1551 45.9562C19.7009 46.1049 19.5348 46.1112 18.8973 46.0034C17.193 45.7154 14.0758 44.6242 11.924 43.5625C9.90285 42.5652 9.5398 42.1759 9.14193 40.5789C8.96091 39.8521 8.93756 39.5426 8.98827 38.5465C9.11617 36.0371 9.44853 34.9745 13.8052 23.147L17.1252 14.1333L17.6117 14.3836C17.8792 14.5214 18.1184 14.6693 18.1433 14.7125ZM22.8083 14.946C25.1715 15.3355 28.1439 16.7771 29.2866 18.0879C30.0121 18.9202 30.0386 18.7762 28.7818 20.8283C28.1654 21.8349 27.6241 22.696 27.5792 22.7418C27.5344 22.7876 27.1179 22.5748 26.6539 22.2689C24.6496 20.9476 22.3355 20.0796 19.9071 19.7384L19.0352 19.6159L19.0961 19.2469C19.1296 19.0441 19.2955 18.0275 19.4649 16.9878L19.7727 15.0976L20.2255 14.9781C20.7957 14.8277 21.9993 14.8127 22.8083 14.946ZM0.247033 15.2974C0.00201268 15.5461 0 15.5639 0 17.4987C0 19.4335 0.00201268 19.4514 0.247033 19.7C0.402699 19.8582 0.608979 19.9509 0.804995 19.9509C1.00101 19.9509 1.20729 19.8582 1.36296 19.7C1.60798 19.4514 1.60999 19.4335 1.60999 17.4987C1.60999 15.5639 1.60798 15.5461 1.36296 15.2974C1.20729 15.1392 1.00101 15.0465 0.804995 15.0465C0.608979 15.0465 0.402699 15.1392 0.247033 15.2974ZM0.247033 22.2452C0.00201268 22.4939 0 22.5118 0 24.4465C0 26.3813 0.00201268 26.3992 0.247033 26.6479C0.402699 26.806 0.608979 26.8987 0.804995 26.8987C1.00101 26.8987 1.20729 26.806 1.36296 26.6479C1.60798 26.3992 1.60999 26.3813 1.60999 24.4465C1.60999 22.5118 1.60798 22.4939 1.36296 22.2452C1.20729 22.087 1.00101 21.9944 0.804995 21.9944C0.608979 21.9944 0.402699 22.087 0.247033 22.2452ZM36.4718 22.2452L36.2248 22.4959V34.8683V47.2406L36.4718 47.4914C36.6275 47.6495 36.8338 47.7422 37.0298 47.7422C37.2258 47.7422 37.4321 47.6495 37.5877 47.4914L37.8348 47.2406V34.8683V22.4959L37.5877 22.2452C37.4321 22.087 37.2258 21.9944 37.0298 21.9944C36.8338 21.9944 36.6275 22.087 36.4718 22.2452ZM0.247033 29.193C0.00201268 29.4417 0 29.4596 0 31.3944C0 33.3291 0.00201268 33.347 0.247033 33.5957C0.402699 33.7539 0.608979 33.8465 0.804995 33.8465C1.00101 33.8465 1.20729 33.7539 1.36296 33.5957C1.60798 33.347 1.60999 33.3291 1.60999 31.3944C1.60999 29.4596 1.60798 29.4417 1.36296 29.193C1.20729 29.0349 1.00101 28.9422 0.804995 28.9422C0.608979 28.9422 0.402699 29.0349 0.247033 29.193ZM12.508 34.9193C12.2728 35.0866 11.9931 35.8587 11.6756 37.2183C11.4316 38.2621 11.4036 39.6501 11.6179 40.071C12.0059 40.8327 13.4488 41.7658 15.3452 42.4817C17.5085 43.2982 19.2129 43.5553 19.9877 43.182C20.561 42.9057 21.1972 42.0558 21.8999 40.6275C22.8355 38.7255 22.7909 38.2655 21.6481 38.0314C19.5349 37.5986 16.6019 36.5181 14.2803 35.317C13.1587 34.7367 12.8592 34.6695 12.508 34.9193ZM0.247033 36.1408C0.00201268 36.3895 0 36.4074 0 38.3422C0 40.277 0.00201268 40.2948 0.247033 40.5435C0.402699 40.7017 0.608979 40.7944 0.804995 40.7944C1.00101 40.7944 1.20729 40.7017 1.36296 40.5435C1.60798 40.2948 1.60999 40.277 1.60999 38.3422C1.60999 36.4074 1.60798 36.3895 1.36296 36.1408C1.20729 35.9827 1.00101 35.89 0.804995 35.89C0.608979 35.89 0.402699 35.9827 0.247033 36.1408ZM14.8458 37.4087C16.4407 38.1412 18.0668 38.7546 19.4887 39.16C20.0781 39.3281 20.5797 39.4852 20.6032 39.5091C20.6998 39.6071 19.7773 41.2227 19.4666 41.4997C19.1765 41.7583 19.0733 41.7914 18.6974 41.7457C17.2627 41.5713 14.4135 40.4722 13.4082 39.7052C13.1096 39.4774 13.0812 39.4075 13.0812 38.9019C13.0812 38.322 13.3679 36.8096 13.4778 36.8096C13.5129 36.8096 14.1285 37.0792 14.8458 37.4087ZM0.247033 43.0887C0.00201268 43.3374 0 43.3552 0 45.29C0 47.2248 0.00201268 47.2427 0.247033 47.4914C0.402699 47.6495 0.608979 47.7422 0.804995 47.7422C1.00101 47.7422 1.20729 47.6495 1.36296 47.4914C1.60798 47.2427 1.60999 47.2248 1.60999 45.29C1.60999 43.3552 1.60798 43.3374 1.36296 43.0887C1.20729 42.9305 1.00101 42.8378 0.804995 42.8378C0.608979 42.8378 0.402699 42.9305 0.247033 43.0887Z" fill="#565656"/>
</svg>
