<svg width="22" height="24" viewBox="0 0 22 24" fill="none" xmlns="http://www.w3.org/2000/svg">
<path fill-rule="evenodd" clip-rule="evenodd" d="M19.0786 1.27533C18.6204 1.50192 18.0105 1.97526 17.3443 2.62135C16.7791 3.16939 16.4768 3.48018 16.6727 3.31201C17.9972 2.17493 19.0265 1.88155 19.5193 2.50084C19.7308 2.76672 19.7582 2.90534 19.6947 3.38865C19.6118 4.0195 19.3476 4.98887 19.0961 5.58468L18.9338 5.96924L18.1549 5.37664C15.6008 3.43378 12.1581 3.11956 9.23731 4.56273C7.65967 5.34228 6.00252 7.12568 5.38063 8.71319C5.23215 9.09249 5.05822 9.40236 4.99423 9.40167C4.81393 9.39995 3.36462 8.29071 3.03319 7.90076C2.6807 7.48596 2.54427 7.02911 2.70003 6.78465C3.00808 6.30134 3.43267 6.13913 4.56802 6.07108C5.18401 6.03408 5.58383 5.99456 5.45654 5.9831C5.32925 5.97153 4.73802 5.91139 4.14263 5.8493C2.9567 5.7257 1.71592 5.85343 1.26322 6.14589C0.856454 6.40856 0.618875 6.84273 0.70208 7.17104C0.86629 7.81863 1.93117 8.72327 3.7207 9.7356L4.76221 10.3248L4.77563 11.7826C4.79067 13.4147 4.94736 14.1415 5.5593 15.417C6.37758 17.1228 7.68501 18.4329 9.39111 19.2567C10.668 19.8733 11.6638 20.0876 13.2233 20.0816L14.5095 20.0765L15.0025 20.7687C16.1313 22.353 17.8111 23.8368 18.4761 23.8368C19.1758 23.8368 19.5856 22.9922 19.4816 21.7644C19.4226 21.0684 18.84 18.6264 18.7533 18.7122C18.734 18.7313 18.7951 19.188 18.889 19.7273C19.088 20.8683 18.9725 21.4284 18.4609 21.8043C18.1594 22.0256 18.1529 22.0255 17.6302 21.7966C17.3395 21.6693 16.6975 21.177 16.1981 20.6982C15.3279 19.864 15.3042 19.8274 15.5823 19.7511C15.7414 19.7074 16.3402 19.4397 16.9131 19.1561C18.7674 18.238 20.2948 16.4499 20.9875 14.386C21.2572 13.5827 21.2962 13.2786 21.3029 11.923C21.3098 10.52 21.2799 10.284 20.9803 9.37922C20.666 8.43013 19.8219 6.88454 19.5746 6.80515C19.5108 6.78465 19.3285 7.01204 19.1695 7.31046C18.683 8.22301 16.9251 10.7781 16.0587 11.8315C15.6078 12.3798 15.2899 12.8595 15.3523 12.8977C15.4147 12.9358 16.2289 13.015 17.1618 13.0735C18.0946 13.1321 18.8845 13.2064 18.9173 13.2388C18.95 13.2712 18.169 13.2977 17.1818 13.2977C15.5337 13.2977 15.3696 13.3165 15.1772 13.5268C15.0586 13.6566 14.8208 13.7559 14.6287 13.7559C14.3771 13.7559 14.0819 13.9386 13.485 14.4638C12.99 14.8993 12.7041 15.2331 12.7422 15.3313C12.7762 15.419 12.7553 15.5811 12.6957 15.6913C12.6118 15.8466 12.7555 16.158 13.3313 17.0696C13.7407 17.7173 14.3422 18.5832 14.6683 18.9939C15.2932 19.7811 15.2909 19.9795 14.6572 19.9143C14.3371 19.8814 13.8634 19.2293 12.7854 17.3373C12.4075 16.6742 12.052 16.1946 11.8681 16.0999C11.5925 15.9577 11.5214 15.9758 11.0002 16.3208C10 16.9831 9.79613 17.1057 9.79613 17.0448C9.79613 17.0119 10.1538 16.7227 10.5909 16.4019C11.2924 15.8871 11.3929 15.7659 11.4466 15.369C11.5278 14.7697 10.8565 13.0656 10.4857 12.9299C10.3491 12.8798 10.2112 12.7405 10.1794 12.6203C10.1373 12.4607 9.78908 12.2882 8.88852 11.9811C8.21027 11.7497 7.04344 11.301 6.29553 10.9838C4.91056 10.3965 4.85432 10.3449 5.00314 9.79643C5.06308 9.57534 5.18181 9.61646 6.82415 10.4275C8.42297 11.217 10.1962 11.9088 10.3164 11.7899C10.3427 11.7638 10.2635 11.3578 10.1403 10.8877C9.87714 9.88303 9.55798 7.74451 9.58043 7.13645C9.59177 6.82921 9.61005 6.79049 9.64616 6.99715C10.0133 9.10371 10.655 11.494 10.8736 11.5696C10.9493 11.5958 11.1414 11.7548 11.3005 11.9228C11.5044 12.1383 11.8291 12.2834 12.3999 12.4144C13.8433 12.7454 13.9399 12.7533 14.2165 12.5616C14.3595 12.4624 14.5833 12.3813 14.714 12.3813C15.1881 12.3813 17.2013 9.55254 18.2605 7.39809C18.6013 6.70503 18.8976 6.11221 18.919 6.0807C18.9404 6.0492 19.0792 6.16295 19.2274 6.33341L19.4969 6.6434L19.6626 6.39069C19.9944 5.88458 20.7937 4.00175 21.0203 3.19241C21.3377 2.05843 21.3248 1.55942 20.9686 1.20694C20.5713 0.813551 19.9677 0.835432 19.0786 1.27533ZM5.95565 6.15895C6.03909 6.19205 6.13896 6.18793 6.17738 6.1499C6.2158 6.11186 6.14752 6.08483 6.02555 6.08975C5.89073 6.09525 5.86331 6.1224 5.95565 6.15895ZM11.3005 12.8869C11.3005 12.9898 11.462 13.4546 11.6594 13.9201C12.1436 15.0621 12.2647 15.0777 13.2798 14.1297C13.7239 13.715 14.046 13.3369 13.9958 13.2895C13.9455 13.242 13.4356 13.1182 12.8628 13.0143C12.29 12.9104 11.7042 12.7972 11.5609 12.7627C11.3715 12.7171 11.3005 12.7509 11.3005 12.8869Z" fill="url(#paint0_linear_779_2473)"/>
<defs>
<linearGradient id="paint0_linear_779_2473" x1="0.685547" y1="0.927734" x2="23.9357" y2="21.9554" gradientUnits="userSpaceOnUse">
<stop stop-color="#0ABD92"/>
<stop offset="1" stop-color="#009DB8"/>
</linearGradient>
</defs>
</svg>
