<svg width="18" height="19" viewBox="0 0 18 19" fill="none" xmlns="http://www.w3.org/2000/svg">
<path fill-rule="evenodd" clip-rule="evenodd" d="M0.460717 0.779917C0.296936 0.827164 0.0778572 1.05865 0.0305145 1.23447C0.00510084 1.32893 -0.00489568 1.68146 0.00224972 2.23361L0.0133022 3.08679L0.107741 3.22941C0.216893 3.39428 0.38071 3.50543 0.564871 3.53955L0.694086 3.56352L0.705667 3.99435C0.716684 4.40237 0.722914 4.4343 0.823408 4.59675C0.900599 4.72148 0.980923 4.7951 1.11785 4.86664C1.2918 4.95755 1.3365 4.96501 1.70687 4.96501H2.10764V6.45758C2.10764 7.2785 2.12422 8.11421 2.14453 8.31475C2.27984 9.65258 2.82148 10.9685 3.65689 11.9888C3.89037 12.274 4.43131 12.8112 4.71304 13.0378C5.50048 13.6711 6.62195 14.1953 7.62245 14.3976C11.6304 15.2082 15.4571 12.3854 15.8688 8.31475C15.8891 8.11421 15.9057 7.2785 15.9057 6.45758V4.96501H16.3064C16.6768 4.96501 16.7215 4.95755 16.8955 4.86664C17.0324 4.7951 17.1127 4.72148 17.1899 4.59675C17.2904 4.4343 17.2966 4.40237 17.3076 3.99435L17.3192 3.56352L17.4484 3.53955C17.6327 3.5054 17.7964 3.39425 17.9056 3.2293L18 3.08658V2.14845V1.21032L17.9056 1.06759C17.8536 0.989117 17.7507 0.887263 17.6768 0.841318L17.5424 0.757771L13.9522 0.748301C11.2907 0.741294 10.3365 0.749427 10.2634 0.77967C10.0925 0.850507 10.02 1.06583 10.1047 1.25166C10.1961 1.45241 10.0398 1.44431 13.8272 1.44431H17.3136V2.14845V2.85259H9.00665H0.699683V2.14845V1.44431H4.18615C7.97345 1.44431 7.81717 1.45241 7.90862 1.25166C7.9618 1.13491 7.9618 1.04957 7.90862 0.932821C7.81703 0.731718 7.98007 0.739886 4.12455 0.743336C2.003 0.745238 0.529953 0.759954 0.460717 0.779917ZM8.83453 0.789317C8.52939 0.958487 8.65705 1.44431 9.00665 1.44431C9.18501 1.44431 9.35864 1.27232 9.35864 1.09565C9.35864 0.831319 9.0666 0.660635 8.83453 0.789317ZM16.6021 3.9L16.592 4.24327H9.00665H1.42126L1.4112 3.9L1.40113 3.55673H9.00665H16.6122L16.6021 3.9ZM15.2011 6.45251C15.2007 7.27065 15.1849 8.08791 15.1658 8.26866C15.0844 9.04248 14.8901 9.69933 14.5329 10.4089C14.2498 10.9713 13.9546 11.3986 13.5399 11.846L13.2481 12.1609L13.2282 10.913C13.2069 9.58336 13.1927 9.45609 13.0014 8.88637C12.5333 7.49157 11.3208 6.42114 9.85143 6.10551C9.47783 6.02523 8.61344 6.01562 8.24987 6.08766C7.38824 6.25838 6.64205 6.65498 6.0292 7.26794C5.4487 7.84857 5.07513 8.51937 4.88048 9.33068C4.81786 9.5916 4.80589 9.79189 4.78692 10.8939L4.76517 12.1579L4.48358 11.8597C3.74067 11.073 3.17231 9.985 2.95087 8.9258C2.83264 8.36016 2.81222 7.99922 2.81191 6.47011L2.81162 4.96501H9.00665H15.2017L15.2011 6.45251ZM9.83383 6.82648C11.1105 7.1438 12.0876 8.11949 12.4297 9.4187C12.4983 9.67951 12.5048 9.81277 12.5175 11.2184L12.5312 12.7365L12.3068 12.8783C11.6685 13.2814 10.8638 13.596 10.1063 13.7383C9.77399 13.8008 9.56202 13.8162 9.02425 13.8171C8.32164 13.8183 8.05494 13.788 7.4869 13.6428C6.86877 13.4847 6.23705 13.2134 5.70629 12.8781L5.4821 12.7365L5.4958 11.2184C5.5085 9.81027 5.51487 9.67997 5.58397 9.4187C5.90361 8.20976 6.75057 7.29652 7.91605 6.90425C8.48588 6.71244 9.25033 6.68146 9.83383 6.82648ZM8.49627 7.87181C8.35589 7.89937 8.10598 7.99109 7.91548 8.08492C7.63833 8.22145 7.52928 8.30147 7.27827 8.5525C7.02695 8.80388 6.94754 8.91225 6.81111 9.18985C6.45458 9.91536 6.45458 10.6472 6.81111 11.3727C6.94754 11.6503 7.02695 11.7587 7.27827 12.01C7.53143 12.2632 7.63593 12.3396 7.91548 12.4755C8.92784 12.9679 10.0214 12.7706 10.795 11.9559C11.2114 11.5174 11.4706 10.8751 11.4706 10.2813C11.4706 9.68747 11.2114 9.04512 10.795 8.60661C10.1827 7.96183 9.36635 7.70088 8.49627 7.87181ZM9.36572 8.55982C10.1595 8.7254 10.7666 9.4714 10.7666 10.2813C10.7666 11.2315 9.95664 12.0416 9.00665 12.0416C8.058 12.0416 7.2467 11.2301 7.2467 10.2813C7.2467 9.4908 7.82495 8.75811 8.59651 8.57091C8.82837 8.51465 9.12844 8.51032 9.36572 8.55982ZM8.66635 9.28808C7.78331 9.60378 7.70608 10.8107 8.54266 11.2217C8.82752 11.3616 9.18578 11.3616 9.47064 11.2217C9.84822 11.0362 10.0436 10.7155 10.0436 10.2813C10.0436 9.98134 9.97047 9.78073 9.7837 9.56794C9.53133 9.28048 9.03523 9.15619 8.66635 9.28808ZM9.17754 9.97937C9.4151 10.1022 9.40799 10.481 9.16603 10.5913C8.98543 10.6736 8.78859 10.6142 8.70482 10.4522C8.5396 10.1326 8.85804 9.81411 9.17754 9.97937ZM8.83453 15.2946C8.52939 15.4638 8.65705 15.9496 9.00665 15.9496C9.18501 15.9496 9.35864 15.7776 9.35864 15.6009C9.35864 15.3366 9.0666 15.1659 8.83453 15.2946ZM7.86603 16.285C7.72087 16.3607 7.67148 16.4398 7.67022 16.5986C7.66923 16.7189 7.69165 16.7589 7.84114 16.903C8.12418 17.1759 8.59056 17.3579 9.00665 17.3579C9.42274 17.3579 9.88913 17.1759 10.1722 16.903C10.3175 16.7628 10.3442 16.7168 10.3442 16.6062C10.3442 16.4305 10.2586 16.3105 10.0991 16.2627C9.94977 16.2179 9.90475 16.2345 9.65192 16.4276C9.48187 16.5574 9.20704 16.6537 9.00665 16.6537C8.80626 16.6537 8.53143 16.5574 8.36138 16.4276C8.08074 16.2133 8.03097 16.199 7.86603 16.285ZM6.78024 17.3411C6.6751 17.4463 6.65064 17.545 6.69108 17.7012C6.75979 17.9664 7.61006 18.5054 8.21467 18.667C8.4409 18.7274 8.59662 18.7422 9.00665 18.7422C9.41669 18.7422 9.5724 18.7274 9.79863 18.667C10.4012 18.5059 11.2541 17.9641 11.3229 17.6987C11.3872 17.4505 11.2432 17.2523 10.9988 17.2523C10.8775 17.2523 10.8243 17.2777 10.678 17.4056C10.2979 17.7379 9.92577 17.9248 9.46994 18.0124C8.69655 18.161 7.9598 17.9516 7.3353 17.4056C7.18897 17.2777 7.13582 17.2523 7.01453 17.2523C6.90597 17.2523 6.84659 17.2748 6.78024 17.3411Z" fill="white"/>
</svg>
