<svg width="19" height="19" viewBox="0 0 19 19" fill="none" xmlns="http://www.w3.org/2000/svg">
<path fill-rule="evenodd" clip-rule="evenodd" d="M8.76087 0.784744C5.38589 1.1696 2.37711 3.6127 1.30179 6.84144C0.942997 7.91873 0.809791 8.84817 0.845417 10.0257C0.897144 11.7355 1.36903 13.229 2.31676 14.6823L2.60984 15.1317L2.51712 15.3387C2.25033 15.9345 2.55794 16.6954 3.17529 16.9666C3.46988 17.0961 3.91244 17.0983 4.15607 16.9716L4.32976 16.8812L4.86634 17.2362C7.19875 18.7789 10.067 19.158 12.7132 18.2734C15.0239 17.5009 16.98 15.7451 18.0157 13.5139C18.8097 11.8034 19.0398 9.81497 18.6632 7.91882C18.3481 6.33236 17.4838 4.67976 16.3705 3.53487C16.14 3.29786 16.0963 3.27077 15.9449 3.27077C15.7781 3.27077 15.7454 3.30132 13.1967 5.84313L10.6173 8.41552L10.4272 8.32586C10.2752 8.25419 10.1564 8.23615 9.83551 8.23598C9.48843 8.23577 9.40141 8.25103 9.19332 8.34855C8.88621 8.49247 8.59204 8.78661 8.4481 9.09367C8.35064 9.30157 8.33526 9.38904 8.33526 9.73578C8.33526 10.0825 8.35064 10.17 8.4481 10.3779C8.59204 10.685 8.88621 10.9791 9.19332 11.123C9.40124 11.2204 9.48872 11.2358 9.83551 11.2358C10.1823 11.2358 10.2698 11.2204 10.4777 11.123C10.7848 10.9791 11.079 10.685 11.2229 10.3779C11.3204 10.17 11.3358 10.0826 11.3357 9.73578C11.3357 9.41494 11.3176 9.29515 11.2454 9.13897L11.1551 8.94358L11.7867 8.315L12.4183 7.68641L12.5217 7.81318C12.6717 7.99712 12.9488 8.5755 13.0277 8.86955C13.1225 9.22293 13.1554 9.95728 13.0916 10.2957L13.0398 10.5699L12.7768 10.591C11.9345 10.6586 11.3847 11.4396 11.6431 12.2013L11.727 12.4485L11.5387 12.5678C11.0874 12.854 10.4225 13.0319 9.80559 13.0314C8.00461 13.0299 6.53919 11.5514 6.53919 9.73578C6.53919 8.12937 7.68986 6.75803 9.27007 6.48105C9.6292 6.41813 10.3538 6.44661 10.6596 6.53573C11.3039 6.72347 11.2611 6.71831 11.3877 6.62379C11.6783 6.40694 11.5887 6.10921 11.184 5.94665C10.5575 5.69502 9.47342 5.65015 8.779 5.8471C7.40202 6.23766 6.34276 7.30359 5.93904 8.70497C5.85647 8.99171 5.84294 9.13652 5.84294 9.73578C5.84294 10.3349 5.85655 10.4806 5.93942 10.771C6.33984 12.1741 7.43401 13.2628 8.81289 13.63C9.30675 13.7615 10.1238 13.7816 10.6389 13.675C11.1177 13.576 11.5875 13.3877 11.9699 13.1417L12.2493 12.9619L12.4898 13.0434C12.9134 13.1868 13.3823 13.0671 13.7202 12.7292C13.9724 12.477 14.0791 12.2229 14.0811 11.8697C14.0829 11.5392 14.0268 11.3674 13.8256 11.0872L13.6885 10.8964L13.7558 10.6647C13.8052 10.4946 13.8232 10.2476 13.8234 9.73578C13.8236 9.14628 13.8093 8.98635 13.7304 8.70053C13.6172 8.29058 13.3227 7.67965 13.0964 7.38543L12.9299 7.16892L13.5597 6.54033L14.1895 5.91171L14.2952 6.03847C14.5235 6.31211 14.9526 6.9865 15.0892 7.28626C15.4837 8.15202 15.6023 8.71706 15.6033 9.73578C15.6044 10.8 15.4726 11.3937 15.0358 12.2922C14.2668 13.8741 12.7846 15.0253 11.0082 15.4203C10.5341 15.5257 9.48019 15.5497 8.95755 15.4669C8.142 15.3378 7.28944 15.0023 6.58145 14.532C6.08311 14.201 5.33387 13.432 4.98395 12.8925C3.81135 11.0845 3.73253 8.78804 4.77874 6.91505C4.9269 6.64986 4.96168 6.6128 5.0367 6.64039C5.08441 6.65793 5.27559 6.67196 5.46154 6.67158C5.75551 6.67099 5.82904 6.65468 6.025 6.54676C6.29268 6.39933 6.43138 6.24522 6.57236 5.93862C6.68723 5.68881 6.71229 5.29052 6.62696 5.07193C6.56666 4.91745 6.5727 4.91271 7.27875 4.5606C8.20518 4.09859 9.00344 3.92391 10.0257 3.9594C10.9483 3.99147 11.7096 4.18783 12.5179 4.60218C12.7668 4.72979 13.0241 4.83421 13.0897 4.83421C13.2626 4.83421 13.4441 4.60987 13.4098 4.43845C13.371 4.24458 13.2866 4.17794 12.734 3.90527C11.821 3.45471 11.104 3.2761 10.0679 3.24119C8.75871 3.19712 7.66066 3.47013 6.55609 4.11439L6.12254 4.36729L5.91982 4.27762C5.32998 4.01674 4.55687 4.3181 4.28471 4.91495C4.15522 5.19887 4.15958 5.67601 4.2943 5.96398L4.39488 6.17901L4.30812 6.30088C4.15083 6.52174 3.7936 7.27616 3.66758 7.65363C3.41524 8.40931 3.35168 8.82962 3.3527 9.73578C3.3535 10.4282 3.3688 10.6306 3.44871 11.0034C3.73283 12.3295 4.2979 13.3713 5.24872 14.322C6.19654 15.2697 7.2266 15.8313 8.55333 16.1238C8.90299 16.2009 9.10702 16.2157 9.83551 16.2172C10.5776 16.2187 10.7636 16.2055 11.1324 16.1251C13.1363 15.6883 14.7721 14.4273 15.6663 12.6302C16.1407 11.6771 16.2993 11.0318 16.331 9.92593C16.3555 9.07462 16.2821 8.47891 16.068 7.79205C15.85 7.09248 15.3352 6.1455 14.8832 5.61254L14.7012 5.39789L15.3315 4.76875C15.7148 4.38613 15.976 4.15568 15.9982 4.18056C18.5267 7.01718 18.8278 11.1789 16.7318 14.3204C15.3596 16.377 13.1948 17.6951 10.7245 17.9781C9.85284 18.078 8.68235 17.992 7.78625 17.7624C6.95862 17.5502 5.96516 17.1081 5.25654 16.6366C4.84454 16.3624 4.84061 16.3582 4.87547 16.2274C4.89483 16.1546 4.91012 15.9525 4.90949 15.7782C4.9086 15.5348 4.88663 15.4199 4.81487 15.2829C4.67672 15.0191 4.50172 14.8382 4.24947 14.6985C4.04826 14.587 3.98918 14.5747 3.6866 14.5812C3.50065 14.5851 3.30097 14.5946 3.24286 14.6023C3.15192 14.6143 3.10348 14.5662 2.89501 14.2571C2.59906 13.8182 2.19763 13.0155 2.01811 12.5035C1.15324 10.037 1.49703 7.2964 2.94099 5.14651C4.50675 2.81535 7.04881 1.45381 9.83551 1.45381C11.4477 1.45381 12.9177 1.88101 14.3107 2.75433C14.8082 3.06626 14.9504 3.09436 15.1075 2.91177C15.239 2.75894 15.2309 2.57395 15.0864 2.43079C14.9138 2.25974 14.2318 1.85003 13.6907 1.59224C12.8293 1.18186 11.8379 0.897861 10.8509 0.778702C10.4258 0.727404 9.23359 0.730827 8.76087 0.784744ZM5.71874 4.98835C5.86281 5.08275 5.94754 5.2598 5.94754 5.46655C5.94754 5.83003 5.51944 6.08368 5.19188 5.91428C4.82015 5.72211 4.79716 5.17309 5.15262 4.97589C5.29056 4.89936 5.59306 4.90604 5.71874 4.98835ZM10.2914 9.06988C10.7901 9.39985 10.7349 10.1927 10.1949 10.454C9.9369 10.5789 9.61588 10.558 9.37829 10.4008C8.88816 10.0765 8.93612 9.28847 9.46227 9.02121C9.71237 8.89419 10.0564 8.91439 10.2914 9.06988ZM13.0881 11.377C13.3925 11.5402 13.4597 11.9148 13.2331 12.1841C12.8038 12.6942 12.0311 12.0887 12.3976 11.5294C12.5413 11.3101 12.8402 11.2441 13.0881 11.377ZM3.89832 15.332C3.97845 15.3655 4.08232 15.4558 4.12923 15.5327C4.38445 15.9513 4.00478 16.4567 3.53298 16.3264C3.15006 16.2207 3.02006 15.7456 3.29349 15.4512C3.46566 15.2658 3.65194 15.2291 3.89832 15.332Z" fill="white"/>
</svg>
