<svg width="109" height="133" viewBox="0 0 109 133" fill="none" xmlns="http://www.w3.org/2000/svg">
<path fill-rule="evenodd" clip-rule="evenodd" d="M20.9016 0.817788C18.0941 1.50329 15.4161 3.84738 14.3083 6.58886L13.7144 8.0583L13.6389 24.1005L13.5636 40.1427L6.99971 46.6498L0.435547 53.1569L0.437867 60.6749L0.440187 68.193L1.23329 68.986L2.02639 69.7789H5.22844H8.4305L8.42431 73.8378L8.41812 77.8967L4.66783 80.8484C2.6053 82.472 0.81006 84.0009 0.678865 84.246C0.53839 84.5086 0.441218 92.8325 0.443022 104.488C0.446116 126.427 0.390183 125.648 2.14212 128.2C3.22107 129.772 4.27682 130.628 6.30791 131.58L7.78612 132.273H54.5681H101.35L102.828 131.58C104.859 130.628 105.915 129.772 106.994 128.2C108.827 125.53 108.69 130.499 108.69 66.4287C108.69 2.35809 108.827 7.32744 106.994 4.65761C105.915 3.08586 104.859 2.22924 102.828 1.27754L101.35 0.584821L61.7851 0.540238C30.8907 0.505448 21.9313 0.566266 20.9016 0.817788ZM35.2367 19.9128V33.9578H32.5303H29.8239V19.9128V5.8678H32.5303H35.2367V19.9128ZM54.3103 19.9128V33.9578H51.7328H49.1553V19.9128V5.8678H51.7328H54.3103V19.9128ZM73.384 19.9128V33.9578H70.8064H68.2289V19.9128V5.8678H70.8064H73.384V19.9128ZM92.4576 15.5318V25.1958H89.8801H87.3026V15.5318V5.8678H89.8801H92.4576V15.5318Z" fill="#2E2E2E"/>
<path opacity="0.1" d="M33.2199 115.247C32.082 115.247 31.073 115.053 30.1929 114.664C29.3176 114.27 28.6271 113.728 28.1214 113.037C27.6157 112.347 27.358 111.552 27.3483 110.652H30.9807C30.9952 110.978 31.0998 111.267 31.2943 111.52C31.4888 111.768 31.7538 111.962 32.0893 112.104C32.4249 112.245 32.8066 112.315 33.2345 112.315C33.6624 112.315 34.0393 112.24 34.365 112.089C34.6957 111.933 34.9534 111.722 35.1382 111.454C35.323 111.182 35.4129 110.871 35.4081 110.521C35.4129 110.171 35.3133 109.859 35.109 109.587C34.9048 109.315 34.6155 109.103 34.241 108.953C33.8715 108.802 33.4339 108.726 32.9281 108.726H31.4766V106.159H32.9281C33.3706 106.159 33.7596 106.086 34.0952 105.94C34.4356 105.794 34.7006 105.59 34.8902 105.327C35.0799 105.06 35.1722 104.754 35.1674 104.408C35.1722 104.073 35.092 103.779 34.9267 103.526C34.7662 103.268 34.5401 103.069 34.2483 102.928C33.9614 102.787 33.6284 102.716 33.2491 102.716C32.8503 102.716 32.4881 102.787 32.1623 102.928C31.8413 103.069 31.5861 103.268 31.3964 103.526C31.2068 103.784 31.1071 104.083 31.0974 104.423H27.6473C27.657 103.533 27.905 102.75 28.3913 102.074C28.8776 101.394 29.5389 100.861 30.3753 100.477C31.2165 100.093 32.1744 99.9007 33.2491 99.9007C34.3189 99.9007 35.2598 100.088 36.0718 100.462C36.8839 100.837 37.516 101.347 37.9683 101.994C38.4205 102.636 38.6466 103.363 38.6466 104.175C38.6515 105.016 38.3767 105.709 37.8224 106.254C37.2729 106.798 36.5654 107.134 35.6998 107.26V107.377C36.8571 107.513 37.73 107.888 38.3184 108.5C38.9116 109.113 39.2058 109.879 39.2009 110.798C39.2009 111.663 38.9456 112.432 38.4351 113.103C37.9294 113.769 37.2243 114.294 36.3198 114.678C35.4202 115.058 34.3869 115.247 33.2199 115.247ZM41.2378 115.043V112.446L46.6864 107.676C47.0948 107.307 47.4425 106.969 47.7294 106.662C48.0163 106.351 48.2351 106.04 48.3858 105.729C48.5366 105.413 48.612 105.07 48.612 104.7C48.612 104.287 48.522 103.934 48.3421 103.643C48.1622 103.346 47.9142 103.117 47.5981 102.957C47.282 102.796 46.9198 102.716 46.5113 102.716C46.098 102.716 45.7357 102.801 45.4245 102.971C45.1133 103.137 44.8702 103.378 44.6951 103.694C44.5249 104.01 44.4398 104.394 44.4398 104.846H41.019C41.019 103.83 41.2475 102.952 41.7046 102.213C42.1617 101.474 42.8035 100.905 43.6302 100.506C44.4617 100.103 45.4269 99.9007 46.5259 99.9007C47.6589 99.9007 48.6436 100.09 49.4799 100.47C50.3163 100.849 50.963 101.379 51.4201 102.06C51.8821 102.736 52.1131 103.521 52.1131 104.416C52.1131 104.985 51.9988 105.549 51.7702 106.108C51.5417 106.667 51.1308 107.285 50.5376 107.961C49.9492 108.636 49.1128 109.446 48.0284 110.389L46.2414 112.038V112.133H52.2954V115.043H41.2378ZM68.581 104.985C68.4983 104.678 68.3767 104.408 68.2163 104.175C68.0558 103.937 67.8589 103.735 67.6255 103.57C67.3921 103.404 67.1246 103.28 66.8231 103.198C66.5216 103.11 66.191 103.066 65.8311 103.066C65.1066 103.066 64.4793 103.241 63.9493 103.591C63.4241 103.942 63.0181 104.452 62.7312 105.123C62.4443 105.789 62.3009 106.599 62.3009 107.552C62.3009 108.51 62.4395 109.327 62.7166 110.003C62.9938 110.679 63.395 111.194 63.9201 111.549C64.4453 111.904 65.0823 112.082 65.8311 112.082C66.4925 112.082 67.0517 111.975 67.5088 111.761C67.9707 111.542 68.3208 111.233 68.5591 110.834C68.7974 110.436 68.9165 109.966 68.9165 109.427L69.5875 109.507H65.9551V106.874H72.3957V108.85C72.3957 110.188 72.1112 111.333 71.5423 112.286C70.9782 113.239 70.2002 113.971 69.2082 114.481C68.2211 114.992 67.0857 115.247 65.802 115.247C64.3772 115.247 63.1251 114.938 62.0456 114.321C60.9661 113.703 60.1248 112.823 59.5219 111.68C58.9189 110.533 58.6174 109.171 58.6174 107.596C58.6174 106.37 58.7998 105.284 59.1645 104.335C59.5292 103.382 60.0373 102.575 60.6889 101.914C61.3454 101.253 62.1039 100.752 62.9646 100.411C63.8302 100.071 64.7614 99.9007 65.7582 99.9007C66.6238 99.9007 67.4285 100.025 68.1725 100.273C68.9214 100.521 69.5827 100.871 70.1565 101.323C70.7351 101.775 71.2044 102.313 71.5642 102.935C71.924 103.557 72.1477 104.241 72.2352 104.985H68.581ZM74.5237 115.043V100.105H80.7527C81.8712 100.105 82.8072 100.263 83.5609 100.579C84.3195 100.895 84.8884 101.338 85.2677 101.907C85.6518 102.475 85.8439 103.134 85.8439 103.883C85.8439 104.452 85.7248 104.96 85.4865 105.408C85.2483 105.85 84.92 106.217 84.5018 106.509C84.0836 106.801 83.5998 107.005 83.0503 107.122V107.268C83.6533 107.297 84.2101 107.46 84.7207 107.756C85.2361 108.053 85.6494 108.466 85.9606 108.996C86.2718 109.521 86.4274 110.144 86.4274 110.864C86.4274 111.666 86.2232 112.383 85.8147 113.015C85.4063 113.643 84.8155 114.139 84.0423 114.503C83.2692 114.863 82.3307 115.043 81.2269 115.043H74.5237ZM78.1342 112.133H80.3662C81.1491 112.133 81.7253 111.984 82.0948 111.688C82.4693 111.391 82.6565 110.978 82.6565 110.448C82.6565 110.064 82.5665 109.733 82.3866 109.456C82.2067 109.174 81.9514 108.957 81.6207 108.807C81.2901 108.651 80.8938 108.573 80.4318 108.573H78.1342V112.133ZM78.1342 106.246H80.1328C80.5266 106.246 80.8767 106.181 81.1831 106.05C81.4894 105.918 81.7277 105.729 81.8979 105.481C82.073 105.233 82.1605 104.934 82.1605 104.583C82.1605 104.083 81.983 103.689 81.628 103.402C81.273 103.115 80.7941 102.971 80.1911 102.971H78.1342V106.246Z" fill="white"/>
</svg>
