<svg width="126" height="153" viewBox="0 0 126 153" fill="none" xmlns="http://www.w3.org/2000/svg">
<path fill-rule="evenodd" clip-rule="evenodd" d="M23.8534 0.86185C20.6143 1.65276 17.5244 4.35732 16.2462 7.52037L15.5611 9.21577L15.4739 27.7249L15.3871 46.234L7.81381 53.7417L0.240234 61.2494L0.242912 69.9236L0.245588 78.5977L1.16065 79.5126L2.07571 80.4275H5.77016H9.46461L9.45747 85.1105L9.45034 89.7936L5.12334 93.1992C2.74365 95.0724 0.672339 96.8365 0.520969 97.1193C0.358892 97.4223 0.246778 107.026 0.24886 120.474C0.252428 145.786 0.187895 144.888 2.20924 147.832C3.45411 149.646 4.67221 150.634 7.01562 151.732L8.72114 152.531H62.697H116.673L118.378 151.732C120.722 150.634 121.94 149.646 123.185 147.832C125.3 144.752 125.142 150.485 125.142 76.5621C125.142 2.63902 125.3 8.37253 123.185 5.29214C121.94 3.4787 120.722 2.49035 118.378 1.3923L116.673 0.593059L71.0239 0.54162C35.3787 0.50148 25.0415 0.571651 23.8534 0.86185ZM40.3929 22.8932V39.0979H37.2704H34.1478V22.8932V6.68843H37.2704H40.3929V22.8932ZM62.3996 22.8932V39.0979H59.4258H56.4519V22.8932V6.68843H59.4258H62.3996V22.8932ZM84.4063 22.8932V39.0979H81.4325H78.4586V22.8932V6.68843H81.4325H84.4063V22.8932ZM106.413 17.8385V28.9886H103.439H100.465V17.8385V6.68843H103.439H106.413V17.8385Z" fill="url(#paint0_linear_677_3712)"/>
<path d="M37.7444 133.81C36.8019 133.81 35.8986 133.658 35.0346 133.355C34.1706 133.047 33.402 132.559 32.7287 131.891C32.0555 131.218 31.5253 130.337 31.1382 129.249C30.751 128.155 30.5603 126.822 30.5659 125.251C30.5715 123.832 30.7454 122.558 31.0877 121.431C31.4299 120.297 31.918 119.335 32.552 118.544C33.1916 117.753 33.9546 117.15 34.841 116.735C35.7331 116.314 36.7289 116.103 37.8286 116.103C39.0348 116.103 40.098 116.339 41.0181 116.81C41.9438 117.276 42.6843 117.904 43.2398 118.695C43.7952 119.481 44.1234 120.356 44.2244 121.321H40.126C40.0026 120.777 39.7305 120.365 39.3097 120.084C38.8945 119.798 38.4008 119.655 37.8286 119.655C36.7738 119.655 35.9855 120.112 35.4638 121.027C34.9476 121.941 34.6839 123.164 34.6727 124.696H34.7821C35.0177 124.18 35.3572 123.736 35.8004 123.366C36.2436 122.996 36.7514 122.713 37.3236 122.516C37.9015 122.314 38.513 122.213 39.1582 122.213C40.1905 122.213 41.1022 122.452 41.8933 122.929C42.6843 123.405 43.3043 124.059 43.7531 124.889C44.202 125.714 44.4236 126.659 44.418 127.725C44.4236 128.926 44.143 129.986 43.5764 130.906C43.0097 131.821 42.2243 132.533 41.22 133.044C40.2214 133.555 39.0628 133.81 37.7444 133.81ZM37.7192 130.612C38.2297 130.612 38.6869 130.491 39.0909 130.25C39.4948 130.009 39.8118 129.681 40.0419 129.265C40.2719 128.85 40.3841 128.382 40.3785 127.86C40.3841 127.333 40.2719 126.864 40.0419 126.455C39.8174 126.045 39.5033 125.72 39.0993 125.478C38.701 125.237 38.2437 125.117 37.7276 125.117C37.3517 125.117 37.001 125.187 36.6756 125.327C36.3502 125.467 36.0669 125.664 35.8256 125.916C35.59 126.163 35.4049 126.455 35.2702 126.791C35.1356 127.122 35.0654 127.481 35.0598 127.868C35.0654 128.379 35.1833 128.842 35.4133 129.257C35.6433 129.672 35.9575 130.003 36.3558 130.25C36.7542 130.491 37.2086 130.612 37.7192 130.612ZM46.5702 130.713V127.465L53.6309 116.339H56.5175V120.749H54.8428L50.7107 127.296V127.431H60.9356V130.713H46.5702ZM54.8932 133.574V129.72L54.9774 128.298V116.339H58.8738V133.574H54.8932ZM79.5551 121.969C79.4597 121.616 79.3195 121.304 79.1343 121.035C78.9492 120.76 78.722 120.527 78.4527 120.337C78.1834 120.146 77.8748 120.003 77.527 119.907C77.1791 119.806 76.7976 119.756 76.3824 119.756C75.5465 119.756 74.8227 119.958 74.2112 120.362C73.6053 120.766 73.1368 121.355 72.8058 122.129C72.4748 122.898 72.3093 123.832 72.3093 124.931C72.3093 126.037 72.4692 126.979 72.789 127.759C73.1088 128.539 73.5716 129.134 74.1776 129.543C74.7835 129.953 75.5184 130.157 76.3824 130.157C77.1454 130.157 77.7906 130.034 78.318 129.787C78.851 129.535 79.255 129.178 79.5299 128.718C79.8048 128.258 79.9422 127.717 79.9422 127.094L80.7165 127.187H76.5255V124.149H83.9565V126.429C83.9565 127.972 83.6282 129.293 82.9718 130.393C82.321 131.493 81.4234 132.337 80.2788 132.926C79.1399 133.515 77.8299 133.81 76.3488 133.81C74.7049 133.81 73.2603 133.454 72.0147 132.741C70.7692 132.029 69.7986 131.013 69.103 129.695C68.4073 128.371 68.0594 126.8 68.0594 124.982C68.0594 123.568 68.2698 122.314 68.6906 121.22C69.1114 120.121 69.6977 119.189 70.4494 118.426C71.2069 117.663 72.0821 117.085 73.0751 116.693C74.0738 116.3 75.1481 116.103 76.2983 116.103C77.2969 116.103 78.2254 116.247 79.0838 116.533C79.9478 116.819 80.7108 117.223 81.3729 117.745C82.0405 118.266 82.5819 118.886 82.9971 119.604C83.4122 120.322 83.6703 121.111 83.7713 121.969H79.5551ZM86.4117 133.574V116.339H93.5986C94.889 116.339 95.969 116.521 96.8386 116.886C97.7138 117.251 98.3702 117.761 98.8078 118.418C99.2511 119.074 99.4727 119.834 99.4727 120.698C99.4727 121.355 99.3352 121.941 99.0603 122.457C98.7854 122.968 98.4067 123.391 97.9242 123.728C97.4417 124.065 96.8835 124.3 96.2495 124.435V124.603C96.9452 124.637 97.5876 124.825 98.1767 125.167C98.7714 125.509 99.2483 125.986 99.6073 126.598C99.9664 127.204 100.146 127.922 100.146 128.752C100.146 129.678 99.9103 130.505 99.439 131.235C98.9677 131.958 98.2861 132.531 97.394 132.951C96.502 133.367 95.4192 133.574 94.1456 133.574H86.4117ZM90.5774 130.216H93.1526C94.0559 130.216 94.7207 130.045 95.1471 129.703C95.5791 129.361 95.7951 128.884 95.7951 128.272C95.7951 127.829 95.6913 127.448 95.4837 127.128C95.2761 126.802 94.9816 126.553 94.6001 126.379C94.2186 126.199 93.7613 126.11 93.2283 126.11H90.5774V130.216ZM90.5774 123.425H92.8833C93.3377 123.425 93.7417 123.349 94.0951 123.198C94.4486 123.046 94.7235 122.828 94.9199 122.541C95.1218 122.255 95.2228 121.91 95.2228 121.506C95.2228 120.928 95.018 120.474 94.6085 120.143C94.1989 119.812 93.6463 119.646 92.9506 119.646H90.5774V123.425Z" fill="white"/>
<defs>
<linearGradient id="paint0_linear_677_3712" x1="0.240234" y1="0.53125" x2="152.484" y2="126.249" gradientUnits="userSpaceOnUse">
<stop stop-color="#0ABD92"/>
<stop offset="1" stop-color="#009DB8"/>
</linearGradient>
</defs>
</svg>
