<svg width="86" height="104" viewBox="0 0 86 104" fill="none" xmlns="http://www.w3.org/2000/svg">
<path fill-rule="evenodd" clip-rule="evenodd" d="M17.0048 0.75623C14.8005 1.29446 12.6978 3.13497 11.828 5.28749L11.3617 6.44125L11.3024 19.0371L11.2433 31.6329L6.08952 36.7421L0.935547 41.8512L0.937369 47.7542L0.93919 53.6571L1.56191 54.2797L2.18463 54.9023H4.69878H7.21293L7.20807 58.0892L7.20321 61.2761L4.2586 63.5937C2.63917 64.8685 1.2296 66.069 1.12659 66.2614C1.0163 66.4676 0.94 73.0033 0.941416 82.1546C0.943845 99.3805 0.899929 98.769 2.2755 100.773C3.12265 102.007 3.9516 102.679 5.54634 103.427L6.70698 103.97H43.4387H80.1704L81.331 103.427C82.9258 102.679 83.7547 102.007 84.6019 100.773C86.041 98.6763 85.9337 102.578 85.9337 52.2719C85.9337 1.96563 86.041 5.86741 84.6019 3.77114C83.7547 2.53705 82.9258 1.86446 81.331 1.11721L80.1704 0.573312L49.1053 0.538307C24.848 0.510991 17.8133 0.558744 17.0048 0.75623ZM28.2603 15.749V26.7767H26.1353H24.0103V15.749V4.72134H26.1353H28.2603V15.749ZM43.2363 15.749V26.7767H41.2125H39.1887V15.749V4.72134H41.2125H43.2363V15.749ZM58.2123 15.749V26.7767H56.1885H54.1648V15.749V4.72134H56.1885H58.2123V15.749ZM73.1883 12.3092V19.897H71.1646H69.1408V12.3092V4.72134H71.1646H73.1883V12.3092Z" fill="#2E2E2E"/>
<path opacity="0.1" d="M29.5196 90.8986C28.6071 90.8986 27.792 90.7536 27.0742 90.4634C26.3602 90.1694 25.799 89.7723 25.3904 89.2722C24.9857 88.7682 24.7834 88.1993 24.7834 87.5655C24.7834 87.0807 24.8998 86.6359 25.1327 86.2311C25.3656 85.8264 25.6806 85.4905 26.0777 85.2232C26.4786 84.9521 26.9253 84.7784 27.4178 84.702V84.6104C26.7726 84.4921 26.2438 84.1923 25.8314 83.7113C25.4229 83.2302 25.2186 82.6671 25.2186 82.0218C25.2186 81.4109 25.4038 80.8669 25.7742 80.3896C26.1483 79.9124 26.658 79.5363 27.3033 79.2614C27.9523 78.9865 28.6911 78.8491 29.5196 78.8491C30.3481 78.8491 31.085 78.9865 31.7302 79.2614C32.3793 79.5363 32.889 79.9124 33.2593 80.3896C33.6335 80.8669 33.8206 81.4109 33.8206 82.0218C33.8206 82.6709 33.6125 83.2359 33.1963 83.717C32.784 84.1943 32.259 84.4921 31.6214 84.6104V84.702C32.1101 84.7784 32.553 84.9521 32.9501 85.2232C33.3509 85.4905 33.6678 85.8264 33.9007 86.2311C34.1375 86.6359 34.2558 87.0807 34.2558 87.5655C34.2558 88.1993 34.0515 88.7682 33.643 89.2722C33.2345 89.7723 32.6733 90.1694 31.9593 90.4634C31.2491 90.7536 30.4359 90.8986 29.5196 90.8986ZM29.5196 88.8885C29.867 88.8885 30.1725 88.8236 30.4359 88.6938C30.6994 88.5601 30.9055 88.3749 31.0544 88.1382C31.2071 87.9015 31.2835 87.6343 31.2835 87.3365C31.2835 87.031 31.2071 86.7599 31.0544 86.5232C30.9017 86.2865 30.6917 86.1013 30.4245 85.9677C30.161 85.8303 29.8594 85.7615 29.5196 85.7615C29.1836 85.7615 28.882 85.8303 28.6147 85.9677C28.3475 86.1013 28.1375 86.2865 27.9848 86.5232C27.832 86.7599 27.7557 87.031 27.7557 87.3365C27.7557 87.6343 27.8301 87.9015 27.979 88.1382C28.1318 88.3711 28.3398 88.5544 28.6033 88.688C28.8705 88.8217 29.176 88.8885 29.5196 88.8885ZM29.5196 83.7628C29.8174 83.7628 30.0808 83.7017 30.3099 83.5796C30.5428 83.4574 30.7242 83.2875 30.854 83.0699C30.9876 82.8522 31.0544 82.606 31.0544 82.3311C31.0544 82.0562 30.9876 81.8137 30.854 81.6038C30.7242 81.3938 30.5447 81.2296 30.3156 81.1112C30.0866 80.9891 29.8212 80.928 29.5196 80.928C29.2218 80.928 28.9564 80.9891 28.7235 81.1112C28.4907 81.2296 28.3093 81.3938 28.1795 81.6038C28.0497 81.8137 27.9848 82.0562 27.9848 82.3311C27.9848 82.606 28.0497 82.8522 28.1795 83.0699C28.3131 83.2837 28.4964 83.4536 28.7293 83.5796C28.9622 83.7017 29.2256 83.7628 29.5196 83.7628ZM47.0212 82.8408C46.9563 82.6002 46.8609 82.3883 46.7349 82.2051C46.6089 82.018 46.4543 81.8596 46.271 81.7297C46.0877 81.5999 45.8778 81.5026 45.641 81.4377C45.4043 81.3689 45.1447 81.3346 44.8622 81.3346C44.2933 81.3346 43.8008 81.472 43.3846 81.7469C42.9723 82.0218 42.6535 82.4227 42.4282 82.9496C42.2029 83.4727 42.0903 84.1083 42.0903 84.8567C42.0903 85.6088 42.1991 86.2502 42.4168 86.7809C42.6344 87.3116 42.9494 87.7163 43.3617 87.9951C43.774 88.2738 44.2742 88.4131 44.8622 88.4131C45.3814 88.4131 45.8205 88.3291 46.1794 88.1611C46.5421 87.9893 46.817 87.7469 47.0041 87.4338C47.1911 87.1207 47.2847 86.7523 47.2847 86.3285L47.8116 86.3915H44.9595V84.3241H50.0165V85.8761C50.0165 86.926 49.7931 87.8252 49.3464 88.5735C48.9035 89.3218 48.2926 89.8964 47.5138 90.2973C46.7387 90.6982 45.8472 90.8986 44.8393 90.8986C43.7206 90.8986 42.7375 90.6562 41.8899 90.1713C41.0423 89.6864 40.3818 88.9954 39.9083 88.0981C39.4349 87.1971 39.1982 86.1281 39.1982 84.891C39.1982 83.9289 39.3414 83.0756 39.6277 82.3311C39.9141 81.5828 40.313 80.949 40.8247 80.4297C41.3401 79.9105 41.9357 79.5172 42.6115 79.25C43.2911 78.9827 44.0222 78.8491 44.8049 78.8491C45.4845 78.8491 46.1164 78.9464 46.7005 79.1412C47.2885 79.3359 47.8077 79.6108 48.2583 79.9658C48.7126 80.3209 49.081 80.7428 49.3636 81.2315C49.6461 81.7202 49.8217 82.2566 49.8905 82.8408H47.0212ZM51.6873 90.7383V79.0094H56.5781C57.4563 79.0094 58.1912 79.1335 58.783 79.3817C59.3786 79.6299 59.8253 79.9773 60.1231 80.424C60.4248 80.8707 60.5756 81.388 60.5756 81.976C60.5756 82.4227 60.482 82.8217 60.2949 83.1729C60.1079 83.5204 59.8501 83.8086 59.5218 84.0377C59.1935 84.2668 58.8136 84.4272 58.3821 84.5188V84.6333C58.8556 84.6562 59.2927 84.7841 59.6936 85.017C60.0983 85.2499 60.4228 85.5745 60.6672 85.9906C60.9115 86.403 61.0337 86.8917 61.0337 87.4567C61.0337 88.0867 60.8734 88.6498 60.5527 89.1462C60.2319 89.6387 59.7681 90.0281 59.161 90.3145C58.5539 90.597 57.8171 90.7383 56.9504 90.7383H51.6873ZM54.5221 88.4532H56.2746C56.8893 88.4532 57.3417 88.3368 57.6319 88.1039C57.9259 87.871 58.0729 87.5464 58.0729 87.1303C58.0729 86.8287 58.0022 86.569 57.861 86.3514C57.7197 86.13 57.5193 85.9601 57.2596 85.8417C57 85.7195 56.6889 85.6585 56.3261 85.6585H54.5221V88.4532ZM54.5221 83.8315H56.0913C56.4006 83.8315 56.6755 83.78 56.916 83.6769C57.1566 83.5738 57.3436 83.4249 57.4773 83.2302C57.6147 83.0355 57.6834 82.8007 57.6834 82.5258C57.6834 82.1325 57.5441 81.8233 57.2654 81.598C56.9867 81.3728 56.6106 81.2601 56.1372 81.2601H54.5221V83.8315Z" fill="white"/>
</svg>
