<svg width="27" height="29" viewBox="0 0 27 29" fill="none" xmlns="http://www.w3.org/2000/svg">
<g opacity="0.6">
<path fill-rule="evenodd" clip-rule="evenodd" d="M3.39033 0.203093C3.0884 0.258149 2.50519 0.460076 2.39861 0.546522C2.34366 0.59106 2.35504 0.631325 2.45279 0.738314C2.7544 1.06838 11.1285 8.91624 13.6857 11.2652C14.1919 11.7301 14.6712 12.1705 14.7508 12.2438L14.8956 12.377L17.0144 10.252C18.1798 9.08338 19.1143 8.11001 19.0912 8.08903C19.0524 8.05375 13.578 4.99686 8.40159 2.12003C5.62782 0.57846 5.19248 0.352868 4.82526 0.266914C4.42704 0.173675 3.72342 0.142395 3.39033 0.203093ZM0.793158 2.17415C0.712257 2.35636 0.620085 2.63449 0.588277 2.7922C0.51079 3.17672 0.463485 22.6425 0.535824 24.3893C0.580529 25.4679 0.604696 25.6917 0.703858 25.9444C0.767582 26.1068 0.854118 26.2892 0.896221 26.3499C0.968507 26.4543 1.31991 26.11 7.31942 20.0562L13.6662 13.652L13.3221 13.3233C12.0025 12.0626 1.04388 1.88019 0.983191 1.85833C0.959566 1.84984 0.874005 1.99189 0.793158 2.17415ZM18.4198 11.3101L16.157 13.5972L18.9461 16.1886L21.7351 18.7799L22.8848 18.1398C24.9136 17.0102 25.1462 16.8632 25.5284 16.469C26.1099 15.869 26.5 14.947 26.5 14.1724C26.5 13.1439 25.8401 11.9456 24.9689 11.3921C24.4141 11.0396 20.7987 9.0229 20.7216 9.0229C20.7001 9.0229 19.6643 10.0521 18.4198 11.3101ZM8.72053 21.1159C5.30817 24.5734 2.46103 27.4826 2.39346 27.5806L2.27073 27.7589L2.52145 27.8676C3.06473 28.103 3.37668 28.1675 3.95827 28.165C5.00857 28.1603 4.14922 28.5921 13.5764 23.3324C16.7355 21.5699 19.4726 20.0429 19.6587 19.9391C19.8449 19.8352 20.0091 19.731 20.0235 19.7073C20.0589 19.6495 19.0846 18.6997 16.9627 16.7235C15.9944 15.8216 15.1397 15.0265 15.0634 14.9566L14.9249 14.8295L8.72053 21.1159Z" fill="url(#paint0_linear_752_2495)"/>
<path fill-rule="evenodd" clip-rule="evenodd" d="M3.39033 0.203093C3.0884 0.258149 2.50519 0.460076 2.39861 0.546522C2.34366 0.59106 2.35504 0.631325 2.45279 0.738314C2.7544 1.06838 11.1285 8.91624 13.6857 11.2652C14.1919 11.7301 14.6712 12.1705 14.7508 12.2438L14.8956 12.377L17.0144 10.252C18.1798 9.08338 19.1143 8.11001 19.0912 8.08903C19.0524 8.05375 13.578 4.99686 8.40159 2.12003C5.62782 0.57846 5.19248 0.352868 4.82526 0.266914C4.42704 0.173675 3.72342 0.142395 3.39033 0.203093ZM0.793158 2.17415C0.712257 2.35636 0.620085 2.63449 0.588277 2.7922C0.51079 3.17672 0.463485 22.6425 0.535824 24.3893C0.580529 25.4679 0.604696 25.6917 0.703858 25.9444C0.767582 26.1068 0.854118 26.2892 0.896221 26.3499C0.968507 26.4543 1.31991 26.11 7.31942 20.0562L13.6662 13.652L13.3221 13.3233C12.0025 12.0626 1.04388 1.88019 0.983191 1.85833C0.959566 1.84984 0.874005 1.99189 0.793158 2.17415ZM18.4198 11.3101L16.157 13.5972L18.9461 16.1886L21.7351 18.7799L22.8848 18.1398C24.9136 17.0102 25.1462 16.8632 25.5284 16.469C26.1099 15.869 26.5 14.947 26.5 14.1724C26.5 13.1439 25.8401 11.9456 24.9689 11.3921C24.4141 11.0396 20.7987 9.0229 20.7216 9.0229C20.7001 9.0229 19.6643 10.0521 18.4198 11.3101ZM8.72053 21.1159C5.30817 24.5734 2.46103 27.4826 2.39346 27.5806L2.27073 27.7589L2.52145 27.8676C3.06473 28.103 3.37668 28.1675 3.95827 28.165C5.00857 28.1603 4.14922 28.5921 13.5764 23.3324C16.7355 21.5699 19.4726 20.0429 19.6587 19.9391C19.8449 19.8352 20.0091 19.731 20.0235 19.7073C20.0589 19.6495 19.0846 18.6997 16.9627 16.7235C15.9944 15.8216 15.1397 15.0265 15.0634 14.9566L14.9249 14.8295L8.72053 21.1159Z" fill="white"/>
</g>
<defs>
<linearGradient id="paint0_linear_752_2495" x1="0.5" y1="0.171875" x2="28.9921" y2="26.7585" gradientUnits="userSpaceOnUse">
<stop stop-color="#0ABD92"/>
<stop offset="1" stop-color="#009DB8"/>
</linearGradient>
</defs>
</svg>
