<svg width="65" height="49" viewBox="0 0 65 49" fill="none" xmlns="http://www.w3.org/2000/svg">
<path fill-rule="evenodd" clip-rule="evenodd" d="M29.4528 1.12021C25.2293 1.82671 21.5059 3.74962 18.4819 6.78621C17.1165 8.15726 16.3156 9.2373 16.3156 9.70802C16.3156 10.4255 18.3831 12.7989 20.2984 14.2806C24.0822 17.2075 28.0872 18.5417 33.0865 18.5406C37.4754 18.5396 41.1017 17.5132 44.4068 15.3362C46.4832 13.9686 49.0955 11.4461 49.6828 10.2419C49.9838 9.62454 49.8537 9.3014 48.7699 7.9741C45.8818 4.43688 41.3538 1.87544 36.6545 1.12048C35.1043 0.871413 30.9414 0.871275 29.4528 1.12021ZM34.9446 3.68676C36.7223 4.23073 38.2424 5.56468 38.9506 7.20225C40.3083 10.342 38.9346 13.9375 35.8169 15.4042C33.3766 16.5522 30.4415 16.0344 28.5524 14.1227C26.6391 12.1864 26.1905 9.28576 27.4298 6.86318C27.8846 5.97393 29.0239 4.75309 29.8419 4.27821C31.3488 3.40336 33.2848 3.17893 34.9446 3.68676ZM25.1381 5.72763C23.8833 8.19035 23.8467 10.9817 25.0363 13.4634L25.514 14.4597L25.0027 14.2507C24.2879 13.9581 22.9556 13.1559 22.0444 12.4694C21.1607 11.8034 19.2505 9.91957 19.2505 9.71398C19.2505 9.47183 21.8031 7.08 22.7044 6.47761C23.4057 6.00896 25.353 4.93501 25.5066 4.93225C25.527 4.93183 25.3611 5.28986 25.1381 5.72763ZM43.2888 6.38125C44.4975 7.17982 46.9224 9.41617 46.9224 9.73239C46.9224 9.96775 44.906 11.8977 43.8474 12.6757C42.9613 13.3267 40.9667 14.4845 40.7312 14.4845C40.6922 14.4845 40.8436 14.1493 41.0675 13.7396C42.3103 11.4665 42.3392 8.23687 41.1379 5.87148L40.6743 4.95883L41.3176 5.23143C41.6715 5.38137 42.5585 5.89889 43.2888 6.38125ZM31.8889 6.14395C30.2505 6.72446 29.3003 8.0652 29.3237 9.76327C29.3431 11.1814 30.0469 12.3581 31.2782 13.0308C31.9352 13.3898 32.1806 13.4457 33.0865 13.4429C34.2071 13.4395 34.841 13.2066 35.716 12.4773C36.8643 11.5202 37.2286 9.48817 36.5121 8.03751C35.6802 6.35314 33.6478 5.52065 31.8889 6.14395ZM33.5689 8.58867C34.3685 8.9197 34.6027 9.82986 34.0631 10.5094C33.3703 11.3819 31.8287 10.8875 31.8287 9.79289C31.8287 9.29656 32.1606 8.77308 32.594 8.58604C33.1193 8.35926 33.0138 8.35898 33.5689 8.58867ZM11.5639 13.7453C5.16303 15.8626 1.67148 18.484 1.09428 21.6055C0.910361 22.6001 0.892192 31.8931 1.07178 33.1224C1.25053 34.3462 1.84617 35.4495 2.89896 36.5069C4.05769 37.6709 5.15702 38.4005 7.28035 39.4148C12.1633 41.7473 18.2606 43.0254 28.0902 43.7764L29.1733 43.8592L29.1778 46.0279C29.1824 48.2912 29.2267 48.4798 29.8279 48.7971C30.5489 49.1775 30.6583 49.1051 37.241 43.8943C40.7594 41.1091 43.8112 38.6472 44.0225 38.4233C44.5109 37.9062 44.5397 37.209 44.0924 36.7311C43.8664 36.4896 32.9129 27.7895 31.0288 26.3551C30.9348 26.2835 30.6226 26.2249 30.3348 26.2249C29.9421 26.2249 29.7323 26.3164 29.4925 26.5926C29.1909 26.9401 29.1733 27.074 29.1733 29.0293V31.0983L28.0902 31.0954C25.1856 31.0878 20.0713 30.3903 15.7252 29.4087L13.807 28.9756L13.7686 21.5796L13.7301 14.1835L13.338 13.8494C12.8927 13.4701 12.4706 13.4453 11.5639 13.7453ZM52.8076 13.7086C52.099 14.0977 52.1037 14.0438 52.0983 21.7762L52.0935 28.9986L50.3116 29.4119C49.3316 29.6391 47.7625 29.9637 46.825 30.1333C45.4467 30.3827 45.0602 30.5053 44.8055 30.7738C44.2039 31.4083 44.4982 32.4494 45.3727 32.7806C46.0371 33.0323 52.205 31.7213 55.5069 30.6268C57.2864 30.037 59.4381 28.9796 61.0666 27.8949L62.2957 27.0761V30.0619C62.2957 32.8076 62.2725 33.0928 62.0066 33.6091C60.6545 36.2345 54.7336 38.8531 47.1828 40.1653C45.125 40.5228 44.7763 40.6414 44.5498 41.0606C44.258 41.6007 44.378 42.264 44.8368 42.6464C45.3664 43.0879 45.4665 43.0881 47.8564 42.6546C55.1202 41.3373 60.2226 39.2824 62.9354 36.5822C64.0504 35.4724 64.608 34.4791 64.8133 33.2372C64.9859 32.1933 64.9925 22.7053 64.8214 21.6705C64.5648 20.1193 63.5119 18.5888 61.8066 17.2885C60.5436 16.3254 57.3816 14.7859 55.2054 14.0743C53.3077 13.4539 53.2794 13.4495 52.8076 13.7086ZM11.2844 22.3068C11.2844 27.2766 11.2566 28.0524 11.0784 28.0524C10.742 28.0524 8.78651 27.2461 7.51095 26.5814C5.09483 25.3222 3.59775 23.7269 3.59775 22.4112C3.59775 20.5941 5.80927 18.7224 9.9567 17.0296C10.5716 16.7786 11.122 16.5705 11.1796 16.5672C11.2372 16.564 11.2844 19.1467 11.2844 22.3068ZM55.8283 16.9874C59.8273 18.5552 62.2957 20.6119 62.2957 22.3761C62.2957 23.7598 60.8185 25.3182 58.2428 26.6515C57.1223 27.2314 54.8989 28.1909 54.6753 28.1909C54.6388 28.1909 54.6091 25.5742 54.6091 22.3761C54.6091 19.1779 54.6388 16.5612 54.6753 16.5612C54.7118 16.5612 55.2306 16.753 55.8283 16.9874ZM7.44107 29.3739C11.9481 31.5701 20.8387 33.3964 28.4076 33.6806L30.7865 33.7699L31.2027 33.4158C31.6072 33.0718 31.621 33.0186 31.6889 31.5497L31.7588 30.0378L36.3673 33.742C38.9019 35.7793 40.9889 37.4975 41.005 37.5604C41.0211 37.6232 38.9472 39.3431 36.3965 41.3823L31.7588 45.0899L31.6833 43.6667C31.642 42.8839 31.5557 42.1321 31.4917 41.996C31.2716 41.5274 30.6838 41.3818 28.6143 41.284C17.9428 40.7792 8.59574 38.2951 4.98065 35.0031C3.65114 33.7925 3.59775 33.6027 3.59775 30.0893V27.0911L4.75075 27.8579C5.38496 28.2798 6.59554 28.9619 7.44107 29.3739Z" fill="url(#paint0_linear_677_2475)"/>
<path fill-rule="evenodd" clip-rule="evenodd" d="M29.4528 1.12021C25.2293 1.82671 21.5059 3.74962 18.4819 6.78621C17.1165 8.15726 16.3156 9.2373 16.3156 9.70802C16.3156 10.4255 18.3831 12.7989 20.2984 14.2806C24.0822 17.2075 28.0872 18.5417 33.0865 18.5406C37.4754 18.5396 41.1017 17.5132 44.4068 15.3362C46.4832 13.9686 49.0955 11.4461 49.6828 10.2419C49.9838 9.62454 49.8537 9.3014 48.7699 7.9741C45.8818 4.43688 41.3538 1.87544 36.6545 1.12048C35.1043 0.871413 30.9414 0.871275 29.4528 1.12021ZM34.9446 3.68676C36.7223 4.23073 38.2424 5.56468 38.9506 7.20225C40.3083 10.342 38.9346 13.9375 35.8169 15.4042C33.3766 16.5522 30.4415 16.0344 28.5524 14.1227C26.6391 12.1864 26.1905 9.28576 27.4298 6.86318C27.8846 5.97393 29.0239 4.75309 29.8419 4.27821C31.3488 3.40336 33.2848 3.17893 34.9446 3.68676ZM25.1381 5.72763C23.8833 8.19035 23.8467 10.9817 25.0363 13.4634L25.514 14.4597L25.0027 14.2507C24.2879 13.9581 22.9556 13.1559 22.0444 12.4694C21.1607 11.8034 19.2505 9.91957 19.2505 9.71398C19.2505 9.47183 21.8031 7.08 22.7044 6.47761C23.4057 6.00896 25.353 4.93501 25.5066 4.93225C25.527 4.93183 25.3611 5.28986 25.1381 5.72763ZM43.2888 6.38125C44.4975 7.17982 46.9224 9.41617 46.9224 9.73239C46.9224 9.96775 44.906 11.8977 43.8474 12.6757C42.9613 13.3267 40.9667 14.4845 40.7312 14.4845C40.6922 14.4845 40.8436 14.1493 41.0675 13.7396C42.3103 11.4665 42.3392 8.23687 41.1379 5.87148L40.6743 4.95883L41.3176 5.23143C41.6715 5.38137 42.5585 5.89889 43.2888 6.38125ZM31.8889 6.14395C30.2505 6.72446 29.3003 8.0652 29.3237 9.76327C29.3431 11.1814 30.0469 12.3581 31.2782 13.0308C31.9352 13.3898 32.1806 13.4457 33.0865 13.4429C34.2071 13.4395 34.841 13.2066 35.716 12.4773C36.8643 11.5202 37.2286 9.48817 36.5121 8.03751C35.6802 6.35314 33.6478 5.52065 31.8889 6.14395ZM33.5689 8.58867C34.3685 8.9197 34.6027 9.82986 34.0631 10.5094C33.3703 11.3819 31.8287 10.8875 31.8287 9.79289C31.8287 9.29656 32.1606 8.77308 32.594 8.58604C33.1193 8.35926 33.0138 8.35898 33.5689 8.58867ZM11.5639 13.7453C5.16303 15.8626 1.67148 18.484 1.09428 21.6055C0.910361 22.6001 0.892192 31.8931 1.07178 33.1224C1.25053 34.3462 1.84617 35.4495 2.89896 36.5069C4.05769 37.6709 5.15702 38.4005 7.28035 39.4148C12.1633 41.7473 18.2606 43.0254 28.0902 43.7764L29.1733 43.8592L29.1778 46.0279C29.1824 48.2912 29.2267 48.4798 29.8279 48.7971C30.5489 49.1775 30.6583 49.1051 37.241 43.8943C40.7594 41.1091 43.8112 38.6472 44.0225 38.4233C44.5109 37.9062 44.5397 37.209 44.0924 36.7311C43.8664 36.4896 32.9129 27.7895 31.0288 26.3551C30.9348 26.2835 30.6226 26.2249 30.3348 26.2249C29.9421 26.2249 29.7323 26.3164 29.4925 26.5926C29.1909 26.9401 29.1733 27.074 29.1733 29.0293V31.0983L28.0902 31.0954C25.1856 31.0878 20.0713 30.3903 15.7252 29.4087L13.807 28.9756L13.7686 21.5796L13.7301 14.1835L13.338 13.8494C12.8927 13.4701 12.4706 13.4453 11.5639 13.7453ZM52.8076 13.7086C52.099 14.0977 52.1037 14.0438 52.0983 21.7762L52.0935 28.9986L50.3116 29.4119C49.3316 29.6391 47.7625 29.9637 46.825 30.1333C45.4467 30.3827 45.0602 30.5053 44.8055 30.7738C44.2039 31.4083 44.4982 32.4494 45.3727 32.7806C46.0371 33.0323 52.205 31.7213 55.5069 30.6268C57.2864 30.037 59.4381 28.9796 61.0666 27.8949L62.2957 27.0761V30.0619C62.2957 32.8076 62.2725 33.0928 62.0066 33.6091C60.6545 36.2345 54.7336 38.8531 47.1828 40.1653C45.125 40.5228 44.7763 40.6414 44.5498 41.0606C44.258 41.6007 44.378 42.264 44.8368 42.6464C45.3664 43.0879 45.4665 43.0881 47.8564 42.6546C55.1202 41.3373 60.2226 39.2824 62.9354 36.5822C64.0504 35.4724 64.608 34.4791 64.8133 33.2372C64.9859 32.1933 64.9925 22.7053 64.8214 21.6705C64.5648 20.1193 63.5119 18.5888 61.8066 17.2885C60.5436 16.3254 57.3816 14.7859 55.2054 14.0743C53.3077 13.4539 53.2794 13.4495 52.8076 13.7086ZM11.2844 22.3068C11.2844 27.2766 11.2566 28.0524 11.0784 28.0524C10.742 28.0524 8.78651 27.2461 7.51095 26.5814C5.09483 25.3222 3.59775 23.7269 3.59775 22.4112C3.59775 20.5941 5.80927 18.7224 9.9567 17.0296C10.5716 16.7786 11.122 16.5705 11.1796 16.5672C11.2372 16.564 11.2844 19.1467 11.2844 22.3068ZM55.8283 16.9874C59.8273 18.5552 62.2957 20.6119 62.2957 22.3761C62.2957 23.7598 60.8185 25.3182 58.2428 26.6515C57.1223 27.2314 54.8989 28.1909 54.6753 28.1909C54.6388 28.1909 54.6091 25.5742 54.6091 22.3761C54.6091 19.1779 54.6388 16.5612 54.6753 16.5612C54.7118 16.5612 55.2306 16.753 55.8283 16.9874ZM7.44107 29.3739C11.9481 31.5701 20.8387 33.3964 28.4076 33.6806L30.7865 33.7699L31.2027 33.4158C31.6072 33.0718 31.621 33.0186 31.6889 31.5497L31.7588 30.0378L36.3673 33.742C38.9019 35.7793 40.9889 37.4975 41.005 37.5604C41.0211 37.6232 38.9472 39.3431 36.3965 41.3823L31.7588 45.0899L31.6833 43.6667C31.642 42.8839 31.5557 42.1321 31.4917 41.996C31.2716 41.5274 30.6838 41.3818 28.6143 41.284C17.9428 40.7792 8.59574 38.2951 4.98065 35.0031C3.65114 33.7925 3.59775 33.6027 3.59775 30.0893V27.0911L4.75075 27.8579C5.38496 28.2798 6.59554 28.9619 7.44107 29.3739Z" fill="white"/>
<defs>
<linearGradient id="paint0_linear_677_2475" x1="0.946289" y1="0.933594" x2="47.8836" y2="63.8235" gradientUnits="userSpaceOnUse">
<stop stop-color="#0ABD92"/>
<stop offset="1" stop-color="#009DB8"/>
</linearGradient>
</defs>
</svg>
