<svg width="41" height="33" viewBox="0 0 41 33" fill="none" xmlns="http://www.w3.org/2000/svg">
<mask id="path-1-inside-1_677_2166" fill="white">
<path fill-rule="evenodd" clip-rule="evenodd" d="M5.8241 0.902056C5.70758 0.963717 5.57232 1.12567 5.5236 1.26187C5.46246 1.43265 5.43497 3.03277 5.43497 6.41668V11.3238L5.13447 11.1737C4.57843 10.8959 4.18097 10.2871 4.09523 9.5818C4.03488 9.08547 3.79785 8.8219 3.41522 8.82549C2.98162 8.82955 2.71117 9.13332 2.70964 9.61786C2.7086 9.96847 2.38871 10.6024 2.05912 10.9069C1.73402 11.2073 1.35107 11.3722 0.818742 11.441C0.382497 11.4973 0.219346 11.5858 0.0791128 11.8423C-0.140532 12.2441 0.116615 12.6903 0.610395 12.7641C1.30146 12.8673 1.73675 13.0445 2.0681 13.3578C2.44921 13.718 2.6114 14.045 2.71421 14.6605C2.75356 14.896 2.84467 15.1521 2.91671 15.2295C3.18684 15.5203 3.71563 15.4829 3.96341 15.1554C4.01349 15.0892 4.07728 14.8461 4.10516 14.6151C4.16494 14.1199 4.31791 13.7977 4.66265 13.4409C4.88438 13.2113 5.26525 12.9597 5.3909 12.9597C5.41518 12.9597 5.43497 17.257 5.43497 22.5093C5.43497 29.2971 5.46069 32.1307 5.52376 32.3071C5.70718 32.8194 4.61737 32.7847 20.5 32.7847C36.3826 32.7847 35.2928 32.8194 35.4762 32.3071C35.5373 32.1364 35.565 30.6365 35.565 27.5046C35.565 24.9997 35.5848 22.9502 35.6091 22.9502C35.7348 22.9502 36.1156 23.2019 36.3374 23.4314C36.6821 23.7883 36.8351 24.1105 36.8948 24.6056C36.9227 24.8366 36.9865 25.0798 37.0366 25.146C37.2844 25.4734 37.8132 25.5108 38.0833 25.22C38.1553 25.1426 38.2464 24.8865 38.2858 24.651C38.478 23.5006 39.0903 22.9487 40.3896 22.7546C40.8834 22.6809 41.1405 22.2347 40.9209 21.8328C40.7807 21.5764 40.6175 21.4879 40.1813 21.4315C39.6489 21.3627 39.266 21.1978 38.9409 20.8974C38.6113 20.5929 38.2914 19.959 38.2904 19.6084C38.2888 19.1239 38.0184 18.8201 37.5848 18.816C37.2021 18.8124 36.9651 19.076 36.9048 19.5723C36.819 20.2777 36.4216 20.8865 35.8655 21.1643L35.565 21.3144V11.4119C35.565 4.36588 35.5394 1.43788 35.4762 1.26133C35.2928 0.748842 36.3853 0.783419 20.484 0.786853C8.08201 0.789507 6.006 0.805819 5.8241 0.902056ZM26.9908 2.16758C26.9908 2.19887 25.8369 3.35044 24.4265 4.72648C21.78 7.30872 21.739 7.35898 21.9555 7.75494C22.096 8.01196 22.2736 8.1153 22.5791 8.11803C22.8366 8.12037 23.0639 7.91767 25.947 5.11556L29.0387 2.1106H30.0582C30.6188 2.1106 31.0776 2.13651 31.0776 2.1682C31.0776 2.19997 29.0041 4.24654 26.4699 6.71631C22.3726 10.7094 21.8623 11.2334 21.8623 11.4474C21.8623 11.8045 22.178 12.1011 22.5581 12.1011C22.852 12.1011 23.0147 11.9515 27.9961 7.10173L33.1311 2.1024L33.6469 2.12597L34.1627 2.14962L34.183 14.7009L34.2032 27.2523L34.017 27.0414C33.8727 26.878 33.7257 26.8166 33.3654 26.769C32.2395 26.6201 31.6299 25.9965 31.4361 24.7952C31.2931 23.9091 30.221 23.9091 30.078 24.7952C29.8848 25.9929 29.2742 26.6202 28.1579 26.7677C27.5898 26.8428 27.3754 27.0285 27.3754 27.4454C27.3754 27.7995 27.6703 28.1014 28.017 28.1021C28.6652 28.1033 29.4304 28.5302 29.7567 29.0725C29.8697 29.2603 29.9977 29.6368 30.0411 29.909C30.1311 30.474 30.3691 30.7553 30.757 30.7553C31.145 30.7553 31.383 30.474 31.4729 29.909C31.5164 29.6368 31.6444 29.2603 31.7573 29.0725C32.086 28.5263 32.8489 28.1033 33.5078 28.1021C33.6512 28.1018 33.8208 28.0174 33.97 27.872L34.2056 27.6426L34.1842 29.5306L34.1627 31.4188L27.1711 31.4387C23.3257 31.4497 20.1795 31.4323 20.1795 31.4001C20.1795 31.368 21.3176 30.2327 22.7086 28.8773C24.9145 26.728 25.2387 26.3817 25.2448 26.1688C25.2597 25.6606 24.8177 25.3357 24.3618 25.5197C24.2397 25.569 22.7892 26.9251 21.1383 28.5335L18.1369 31.4578H17.0556H15.9743L20.6011 26.9488C23.4007 24.2204 25.2315 22.3787 25.2371 22.2852C25.2667 21.7896 25.0013 21.4673 24.5637 21.4673C24.3339 21.4673 23.8116 21.9518 19.1776 26.4633L14.0459 31.4594L10.4416 31.4391L6.8373 31.4188L6.81959 19.1648C6.80613 9.90618 6.82432 6.94891 6.89387 7.06684C7.04501 7.32316 7.21032 7.40394 7.77622 7.49799C8.1393 7.55833 8.41953 7.66159 8.63733 7.81519C9.14353 8.17236 9.41486 8.59703 9.51984 9.19631C9.5704 9.48463 9.65751 9.78067 9.71352 9.85412C9.87242 10.0626 10.2085 10.1588 10.4568 10.0668C10.7654 9.95247 10.8627 9.78629 10.9661 9.19631C11.1287 8.26797 11.7566 7.65636 12.7097 7.49799C13.0057 7.44874 13.3097 7.3639 13.3851 7.30934C13.5991 7.15457 13.6978 6.82722 13.6034 6.58534C13.486 6.28477 13.3154 6.19001 12.7097 6.08933C11.7566 5.93096 11.1287 5.31936 10.9661 4.39102C10.9155 4.1027 10.8284 3.80665 10.7724 3.7332C10.6135 3.52473 10.2774 3.42857 10.0291 3.52051C9.72049 3.63486 9.62321 3.80103 9.51984 4.39102C9.35725 5.31936 8.72932 5.93096 7.77622 6.08933C7.21032 6.18338 7.04493 6.26424 6.89403 6.52048C6.82328 6.64068 6.80156 6.16317 6.79964 4.44565C6.79836 3.21861 6.82127 2.19123 6.85068 2.16266C6.92384 2.0914 26.9908 2.09632 26.9908 2.16758ZM10.6048 6.48271L10.9191 6.79624L10.581 7.12553L10.243 7.45483L9.90488 7.12553L9.5668 6.79624L9.88108 6.48271C10.0539 6.31029 10.2168 6.16925 10.243 6.16925C10.2692 6.16925 10.432 6.31029 10.6048 6.48271ZM3.74809 12.4357L3.43084 12.7447L3.0813 12.4309L2.73176 12.1171L3.05958 11.7978L3.38741 11.4785L3.72637 11.8026L4.06542 12.1267L3.74809 12.4357ZM37.9204 22.4199L37.5705 22.734L37.2544 22.4324L36.9384 22.1307L37.2702 21.7988L37.602 21.4669L37.9362 21.7863L38.2703 22.1057L37.9204 22.4199ZM31.1015 27.149L31.3985 27.4451L31.0777 27.7502L30.757 28.0552L30.4363 27.7502L30.1156 27.4451L30.4125 27.149C30.5758 26.9861 30.7308 26.8528 30.757 26.8528C30.7832 26.8528 30.9383 26.9861 31.1015 27.149Z"/>
</mask>
<path fill-rule="evenodd" clip-rule="evenodd" d="M5.8241 0.902056C5.70758 0.963717 5.57232 1.12567 5.5236 1.26187C5.46246 1.43265 5.43497 3.03277 5.43497 6.41668V11.3238L5.13447 11.1737C4.57843 10.8959 4.18097 10.2871 4.09523 9.5818C4.03488 9.08547 3.79785 8.8219 3.41522 8.82549C2.98162 8.82955 2.71117 9.13332 2.70964 9.61786C2.7086 9.96847 2.38871 10.6024 2.05912 10.9069C1.73402 11.2073 1.35107 11.3722 0.818742 11.441C0.382497 11.4973 0.219346 11.5858 0.0791128 11.8423C-0.140532 12.2441 0.116615 12.6903 0.610395 12.7641C1.30146 12.8673 1.73675 13.0445 2.0681 13.3578C2.44921 13.718 2.6114 14.045 2.71421 14.6605C2.75356 14.896 2.84467 15.1521 2.91671 15.2295C3.18684 15.5203 3.71563 15.4829 3.96341 15.1554C4.01349 15.0892 4.07728 14.8461 4.10516 14.6151C4.16494 14.1199 4.31791 13.7977 4.66265 13.4409C4.88438 13.2113 5.26525 12.9597 5.3909 12.9597C5.41518 12.9597 5.43497 17.257 5.43497 22.5093C5.43497 29.2971 5.46069 32.1307 5.52376 32.3071C5.70718 32.8194 4.61737 32.7847 20.5 32.7847C36.3826 32.7847 35.2928 32.8194 35.4762 32.3071C35.5373 32.1364 35.565 30.6365 35.565 27.5046C35.565 24.9997 35.5848 22.9502 35.6091 22.9502C35.7348 22.9502 36.1156 23.2019 36.3374 23.4314C36.6821 23.7883 36.8351 24.1105 36.8948 24.6056C36.9227 24.8366 36.9865 25.0798 37.0366 25.146C37.2844 25.4734 37.8132 25.5108 38.0833 25.22C38.1553 25.1426 38.2464 24.8865 38.2858 24.651C38.478 23.5006 39.0903 22.9487 40.3896 22.7546C40.8834 22.6809 41.1405 22.2347 40.9209 21.8328C40.7807 21.5764 40.6175 21.4879 40.1813 21.4315C39.6489 21.3627 39.266 21.1978 38.9409 20.8974C38.6113 20.5929 38.2914 19.959 38.2904 19.6084C38.2888 19.1239 38.0184 18.8201 37.5848 18.816C37.2021 18.8124 36.9651 19.076 36.9048 19.5723C36.819 20.2777 36.4216 20.8865 35.8655 21.1643L35.565 21.3144V11.4119C35.565 4.36588 35.5394 1.43788 35.4762 1.26133C35.2928 0.748842 36.3853 0.783419 20.484 0.786853C8.08201 0.789507 6.006 0.805819 5.8241 0.902056ZM26.9908 2.16758C26.9908 2.19887 25.8369 3.35044 24.4265 4.72648C21.78 7.30872 21.739 7.35898 21.9555 7.75494C22.096 8.01196 22.2736 8.1153 22.5791 8.11803C22.8366 8.12037 23.0639 7.91767 25.947 5.11556L29.0387 2.1106H30.0582C30.6188 2.1106 31.0776 2.13651 31.0776 2.1682C31.0776 2.19997 29.0041 4.24654 26.4699 6.71631C22.3726 10.7094 21.8623 11.2334 21.8623 11.4474C21.8623 11.8045 22.178 12.1011 22.5581 12.1011C22.852 12.1011 23.0147 11.9515 27.9961 7.10173L33.1311 2.1024L33.6469 2.12597L34.1627 2.14962L34.183 14.7009L34.2032 27.2523L34.017 27.0414C33.8727 26.878 33.7257 26.8166 33.3654 26.769C32.2395 26.6201 31.6299 25.9965 31.4361 24.7952C31.2931 23.9091 30.221 23.9091 30.078 24.7952C29.8848 25.9929 29.2742 26.6202 28.1579 26.7677C27.5898 26.8428 27.3754 27.0285 27.3754 27.4454C27.3754 27.7995 27.6703 28.1014 28.017 28.1021C28.6652 28.1033 29.4304 28.5302 29.7567 29.0725C29.8697 29.2603 29.9977 29.6368 30.0411 29.909C30.1311 30.474 30.3691 30.7553 30.757 30.7553C31.145 30.7553 31.383 30.474 31.4729 29.909C31.5164 29.6368 31.6444 29.2603 31.7573 29.0725C32.086 28.5263 32.8489 28.1033 33.5078 28.1021C33.6512 28.1018 33.8208 28.0174 33.97 27.872L34.2056 27.6426L34.1842 29.5306L34.1627 31.4188L27.1711 31.4387C23.3257 31.4497 20.1795 31.4323 20.1795 31.4001C20.1795 31.368 21.3176 30.2327 22.7086 28.8773C24.9145 26.728 25.2387 26.3817 25.2448 26.1688C25.2597 25.6606 24.8177 25.3357 24.3618 25.5197C24.2397 25.569 22.7892 26.9251 21.1383 28.5335L18.1369 31.4578H17.0556H15.9743L20.6011 26.9488C23.4007 24.2204 25.2315 22.3787 25.2371 22.2852C25.2667 21.7896 25.0013 21.4673 24.5637 21.4673C24.3339 21.4673 23.8116 21.9518 19.1776 26.4633L14.0459 31.4594L10.4416 31.4391L6.8373 31.4188L6.81959 19.1648C6.80613 9.90618 6.82432 6.94891 6.89387 7.06684C7.04501 7.32316 7.21032 7.40394 7.77622 7.49799C8.1393 7.55833 8.41953 7.66159 8.63733 7.81519C9.14353 8.17236 9.41486 8.59703 9.51984 9.19631C9.5704 9.48463 9.65751 9.78067 9.71352 9.85412C9.87242 10.0626 10.2085 10.1588 10.4568 10.0668C10.7654 9.95247 10.8627 9.78629 10.9661 9.19631C11.1287 8.26797 11.7566 7.65636 12.7097 7.49799C13.0057 7.44874 13.3097 7.3639 13.3851 7.30934C13.5991 7.15457 13.6978 6.82722 13.6034 6.58534C13.486 6.28477 13.3154 6.19001 12.7097 6.08933C11.7566 5.93096 11.1287 5.31936 10.9661 4.39102C10.9155 4.1027 10.8284 3.80665 10.7724 3.7332C10.6135 3.52473 10.2774 3.42857 10.0291 3.52051C9.72049 3.63486 9.62321 3.80103 9.51984 4.39102C9.35725 5.31936 8.72932 5.93096 7.77622 6.08933C7.21032 6.18338 7.04493 6.26424 6.89403 6.52048C6.82328 6.64068 6.80156 6.16317 6.79964 4.44565C6.79836 3.21861 6.82127 2.19123 6.85068 2.16266C6.92384 2.0914 26.9908 2.09632 26.9908 2.16758ZM10.6048 6.48271L10.9191 6.79624L10.581 7.12553L10.243 7.45483L9.90488 7.12553L9.5668 6.79624L9.88108 6.48271C10.0539 6.31029 10.2168 6.16925 10.243 6.16925C10.2692 6.16925 10.432 6.31029 10.6048 6.48271ZM3.74809 12.4357L3.43084 12.7447L3.0813 12.4309L2.73176 12.1171L3.05958 11.7978L3.38741 11.4785L3.72637 11.8026L4.06542 12.1267L3.74809 12.4357ZM37.9204 22.4199L37.5705 22.734L37.2544 22.4324L36.9384 22.1307L37.2702 21.7988L37.602 21.4669L37.9362 21.7863L38.2703 22.1057L37.9204 22.4199ZM31.1015 27.149L31.3985 27.4451L31.0777 27.7502L30.757 28.0552L30.4363 27.7502L30.1156 27.4451L30.4125 27.149C30.5758 26.9861 30.7308 26.8528 30.757 26.8528C30.7832 26.8528 30.9383 26.9861 31.1015 27.149Z" fill="white" stroke="url(#paint0_linear_677_2166)" stroke-width="2" mask="url(#path-1-inside-1_677_2166)"/>
<defs>
<linearGradient id="paint0_linear_677_2166" x1="0" y1="0.785156" x2="31.6251" y2="41.5034" gradientUnits="userSpaceOnUse">
<stop stop-color="#0ABD92"/>
<stop offset="1" stop-color="#009DB8"/>
</linearGradient>
</defs>
</svg>
