<svg width="43" height="50" viewBox="0 0 43 50" fill="none" xmlns="http://www.w3.org/2000/svg">
<path fill-rule="evenodd" clip-rule="evenodd" d="M31.6127 0.969127C30.0653 1.13996 28.3269 1.76477 26.7626 2.71235C25.6025 3.41501 24.6116 4.30268 23.7439 5.41628C22.5008 7.01171 21.7608 8.70027 21.4956 10.5459C21.4436 10.9081 21.4307 12.2248 21.4773 12.41L21.5032 12.5129L22.0229 12.5202C24.2052 12.5507 26.2503 11.6882 28.2566 9.89121C30.1909 8.15884 31.5555 5.89839 31.9715 3.73788C32.1089 3.02403 32.1288 2.79398 32.13 1.90655C32.1306 1.44694 32.1218 1.03909 32.1106 1.00019C32.0866 0.917651 32.0818 0.917342 31.6127 0.969127ZM30.8223 12.5414C29.767 12.6091 29.0197 12.7243 28.0224 12.9731C27.2824 13.1578 26.7278 13.3286 25.5763 13.7265C23.8545 14.3214 22.7214 14.6723 22.1392 14.791C21.6931 14.8819 21.3196 14.8219 20.0719 14.4584C19.7702 14.3705 18.984 14.1081 18.4026 13.9013C15.6733 12.9302 14.1425 12.6034 12.6772 12.6792C10.8861 12.7718 9.31607 13.1588 7.77242 13.8882C5.68719 14.8735 3.95343 16.3275 2.68242 18.1568C1.23298 20.2429 0.40553 22.512 0.108793 25.2148C-0.0363176 26.5364 -0.0362643 28.169 0.108953 29.6373C0.449039 33.0763 1.57854 36.7704 3.31562 40.125C4.21024 41.8527 5.0395 43.12 6.47233 44.949C8.02039 46.9252 9.20932 48.1026 10.4866 48.9243C11.3235 49.4627 12.1831 49.7895 13.0432 49.8963C14.2166 50.042 15.5975 49.7672 17.746 48.9605C18.5286 48.6666 18.8761 48.5511 19.4527 48.3933C20.8798 48.0026 22.2759 47.8766 23.557 48.0229C24.6446 48.1472 25.6741 48.4174 27.0564 48.9415C28.5612 49.5121 29.598 49.7746 30.6888 49.8614C31.7132 49.9428 32.8157 49.7212 33.8303 49.2297C35.4859 48.4278 36.9919 46.9346 39.1987 43.9068C40.6813 41.8727 41.751 39.8607 42.6949 37.3311L42.875 36.8484L42.738 36.7927C42.4652 36.6817 41.713 36.3088 41.4258 36.1422C40.6673 35.7021 40.114 35.2976 39.3751 34.643C37.2821 32.7889 36.1206 30.5137 35.8698 27.777C35.824 27.2771 35.8181 26.2217 35.8584 25.7497C36.1217 22.6714 37.5885 20.1819 40.2793 18.2459C40.4452 18.1265 40.7831 17.9005 41.0302 17.7437C41.2772 17.587 41.4793 17.4484 41.4793 17.4357C41.4793 17.3675 40.8624 16.6294 40.4295 16.1796C39.1955 14.8976 37.5032 13.8751 35.6148 13.2707C34.3421 12.8633 32.68 12.5796 31.3565 12.5437C31.1362 12.5378 30.8958 12.5367 30.8223 12.5414Z" fill="url(#paint0_linear_677_2489)"/>
<defs>
<linearGradient id="paint0_linear_677_2489" x1="0" y1="0.933594" x2="49.5699" y2="44.5199" gradientUnits="userSpaceOnUse">
<stop stop-color="#0ABD92"/>
<stop offset="1" stop-color="#009DB8"/>
</linearGradient>
</defs>
</svg>
