<svg width="66" height="67" viewBox="0 0 66 67" fill="none" xmlns="http://www.w3.org/2000/svg">
<g clip-path="url(#clip0_677_2659)">
<path d="M57.6791 29.6289C55.2356 29.6289 53.2412 31.6233 53.2412 34.0667C53.2412 36.5102 55.2356 38.5046 57.6791 38.5046C60.1225 38.5046 62.1169 36.5102 62.1169 34.0667C62.1169 31.6233 60.1225 29.6289 57.6791 29.6289ZM57.6791 37.1706C55.962 37.1706 54.562 35.7706 54.562 34.0535C54.562 32.3366 55.962 30.9365 57.6791 30.9365C59.3961 30.9365 60.7961 32.3366 60.7961 34.0535C60.7961 35.7706 59.3961 37.1706 57.6791 37.1706Z" fill="url(#paint0_linear_677_2659)"/>
<path d="M57.6787 25.4426C55.473 25.4426 53.4654 26.3143 51.9597 27.7144V20.0274C51.9597 19.301 51.3654 18.7066 50.6389 18.7066H32.3593V1.00805C32.3593 0.638229 32.0687 0.347656 31.6989 0.347656H3.16989C2.80006 0.347656 2.50949 0.638229 2.50949 1.00805V18.7198H1.32079C0.594354 18.7198 0 19.3142 0 20.0406V52.9281C0 53.6547 0.594354 54.2489 1.32079 54.2489H17.3023V56.3226C17.3023 56.6924 17.5928 56.983 17.9627 56.983H18.7155L11.1739 64.5247C10.9097 64.7888 10.9097 65.1983 11.1739 65.4624C11.3059 65.5945 11.4776 65.6606 11.6361 65.6606C11.7946 65.6606 11.9795 65.5945 12.0984 65.4624L19.5344 58.0264V59.083V60.7207L15.4532 64.8021C15.1891 65.0662 15.1891 65.4756 15.4532 65.7398C15.5852 65.8719 15.757 65.9379 15.9155 65.9379C16.0739 65.9379 16.2588 65.8719 16.3778 65.7398L19.5212 62.5963V65.0002C19.5212 65.3699 19.8117 65.6606 20.1816 65.6606C20.5515 65.6606 20.842 65.3699 20.842 65.0002V59.7434H22.744V65.0002C22.744 65.3699 23.0345 65.6606 23.4044 65.6606C23.7741 65.6606 24.0648 65.3699 24.0648 65.0002V59.7434H28.6874V65.0002C28.6874 65.3699 28.9781 65.6606 29.3478 65.6606C29.7177 65.6606 30.0082 65.3699 30.0082 65.0002V59.7434H31.9102V65.0002C31.9102 65.3699 32.2007 65.6606 32.5706 65.6606C32.9405 65.6606 33.231 65.3699 33.231 65.0002V62.6095L36.3612 65.7398C36.4934 65.8719 36.665 65.9379 36.8235 65.9379C36.982 65.9379 37.167 65.8719 37.2858 65.7398C37.5499 65.4756 37.5499 65.0662 37.2858 64.8021L33.2178 60.7339V59.0698V58.0264L40.6406 65.4492C40.7727 65.5812 40.9444 65.6474 41.1028 65.6474C41.2614 65.6474 41.4463 65.5812 41.5651 65.4492C41.8293 65.1851 41.8293 64.7757 41.5651 64.5115L34.0234 56.9698H34.8291C35.199 56.9698 35.4895 56.6792 35.4895 56.3094V54.2357H50.5993C51.3257 54.2357 51.9201 53.6414 51.9201 52.9149V39.1919C53.3334 40.7637 55.3674 41.7543 57.6391 41.7543C60.109 41.7543 62.4468 40.5523 63.8864 38.5447C64.0977 38.2542 64.0318 37.8315 63.7411 37.6202C63.4506 37.4089 63.0279 37.475 62.8166 37.7655C61.6147 39.4297 59.6863 40.4203 57.6391 40.4203C55.1165 40.4203 52.9636 38.941 51.9201 36.8146V33.79C51.9201 30.6333 54.4825 28.0709 57.6391 28.0709C60.7958 28.0709 63.3582 30.6333 63.3582 33.79C63.3582 34.5164 63.9524 35.1108 64.6789 35.1108C65.4053 35.1108 65.9997 34.5164 65.9997 33.79C66.0393 29.1936 62.2883 25.4426 57.6787 25.4426ZM49.3313 46.1526L47.1917 44.0128V24.3199C47.1917 23.9502 46.9012 23.6595 46.5313 23.6595H25.9798H25.6365H5.09824C4.72841 23.6595 4.43784 23.9502 4.43784 24.3199V44.0128L2.62837 45.8223V21.3482H49.3181V46.1526H49.3313ZM31.0385 1.66844V18.7198H5.07182L7.8851 14.1764H22.7043C23.0081 15.7083 24.3685 16.8707 25.993 16.8707C27.8422 16.8707 29.3478 15.365 29.3478 13.5159C29.3478 11.6668 27.8422 10.1611 25.993 10.1611C24.3685 10.1611 23.0081 11.3234 22.7043 12.8555H7.52849C7.30394 12.8555 7.09262 12.9744 6.97375 13.1725L3.83028 18.2311V1.66844H31.0385ZM25.993 12.8555H24.078C24.3553 12.063 25.1081 11.4819 25.993 11.4819C27.1157 11.4819 28.027 12.3932 28.027 13.5159C28.027 14.6386 27.1157 15.5499 25.993 15.5499C25.1081 15.5499 24.3553 14.9688 24.078 14.1764H25.993C26.3629 14.1764 26.6534 13.8857 26.6534 13.5159C26.6534 13.1461 26.3629 12.8555 25.993 12.8555ZM29.3744 58.4094H23.4308H20.8684V56.983H31.9498V58.4094H29.3744ZM34.2215 55.6622H32.6102H20.208H18.6231V54.2489H34.2215V55.6622ZM2.64157 51.6073V47.6847L5.57371 44.7524C5.69259 44.6336 5.77183 44.4619 5.77183 44.2902V24.9803H25.6497H25.993H45.8709V44.277C45.8709 44.4487 45.9369 44.6204 46.0691 44.7392L49.3446 48.0148V51.5941H2.64157V51.6073Z" fill="url(#paint1_linear_677_2659)"/>
<path d="M25.9802 25.6523C21.965 25.6523 18.6895 28.9147 18.6895 32.9431C18.6895 36.9583 21.9518 40.2339 25.9802 40.2339C30.0086 40.2339 33.271 36.9715 33.271 32.9431C33.271 28.9147 29.9954 25.6523 25.9802 25.6523ZM25.9802 38.8999C22.6914 38.8999 20.0102 36.2187 20.0102 32.9299C20.0102 29.6411 22.6914 26.9599 25.9802 26.9599C29.269 26.9599 31.9502 29.6411 31.9502 32.9299C31.9502 36.2187 29.269 38.8999 25.9802 38.8999Z" fill="url(#paint2_linear_677_2659)"/>
<path d="M25.9802 28.0312C23.2858 28.0312 21.0801 30.2238 21.0801 32.9314C21.0801 35.6389 23.2726 37.8315 25.9802 37.8315C28.6878 37.8315 30.8803 35.6389 30.8803 32.9314C30.8803 30.2238 28.6878 28.0312 25.9802 28.0312ZM25.9802 36.5107C24.0122 36.5107 22.4009 34.9125 22.4009 32.9314C22.4009 30.9502 24.0122 29.352 25.9802 29.352C27.9482 29.352 29.5595 30.9634 29.5595 32.9314C29.5595 34.8993 27.9482 36.5107 25.9802 36.5107Z" fill="url(#paint3_linear_677_2659)"/>
<path d="M7.52861 45.5195C6.12857 45.5195 4.97949 46.6554 4.97949 48.0686C4.97949 49.4819 6.11537 50.6178 7.52861 50.6178C8.94184 50.6178 10.0777 49.4819 10.0777 48.0686C10.0777 46.6554 8.92864 45.5195 7.52861 45.5195ZM7.52861 49.297C6.855 49.297 6.30027 48.7422 6.30027 48.0686C6.30027 47.395 6.855 46.8403 7.52861 46.8403C8.20221 46.8403 8.75694 47.395 8.75694 48.0686C8.75694 48.7422 8.20221 49.297 7.52861 49.297Z" fill="url(#paint4_linear_677_2659)"/>
<path d="M43.7844 45.5195C42.3844 45.5195 41.2354 46.6554 41.2354 48.0686C41.2354 49.4819 42.3712 50.6178 43.7844 50.6178C45.1977 50.6178 46.3336 49.4819 46.3336 48.0686C46.3336 46.6554 45.1977 45.5195 43.7844 45.5195ZM43.7844 49.297C43.1108 49.297 42.5561 48.7422 42.5561 48.0686C42.5561 47.395 43.1108 46.8403 43.7844 46.8403C44.458 46.8403 45.0128 47.395 45.0128 48.0686C45.0128 48.7422 44.458 49.297 43.7844 49.297Z" fill="url(#paint5_linear_677_2659)"/>
<path d="M5.73266 3.92625C6.10247 3.92625 6.39304 3.63568 6.39304 3.26586C6.39304 2.89604 6.10247 2.60547 5.73266 2.60547C5.36284 2.60547 5.07227 2.89604 5.07227 3.26586C5.07227 3.63568 5.36284 3.92625 5.73266 3.92625Z" fill="url(#paint6_linear_677_2659)"/>
<path d="M29.0706 3.92625C29.4404 3.92625 29.7309 3.63568 29.7309 3.26586C29.7309 2.89604 29.4404 2.60547 29.0706 2.60547C28.7007 2.60547 28.4102 2.89604 28.4102 3.26586C28.4102 3.63568 28.7007 3.92625 29.0706 3.92625Z" fill="url(#paint7_linear_677_2659)"/>
</g>
<defs>
<linearGradient id="paint0_linear_677_2659" x1="53.2412" y1="29.6289" x2="62.2944" y2="38.7265" gradientUnits="userSpaceOnUse">
<stop stop-color="#0ABD92"/>
<stop offset="1" stop-color="#009DB8"/>
</linearGradient>
<linearGradient id="paint1_linear_677_2659" x1="0" y1="0.347656" x2="66.8987" y2="67.9943" gradientUnits="userSpaceOnUse">
<stop stop-color="#0ABD92"/>
<stop offset="1" stop-color="#009DB8"/>
</linearGradient>
<linearGradient id="paint2_linear_677_2659" x1="18.6895" y1="25.6523" x2="33.5626" y2="40.5984" gradientUnits="userSpaceOnUse">
<stop stop-color="#0ABD92"/>
<stop offset="1" stop-color="#009DB8"/>
</linearGradient>
<linearGradient id="paint3_linear_677_2659" x1="21.0801" y1="28.0312" x2="31.0763" y2="38.0765" gradientUnits="userSpaceOnUse">
<stop stop-color="#0ABD92"/>
<stop offset="1" stop-color="#009DB8"/>
</linearGradient>
<linearGradient id="paint4_linear_677_2659" x1="4.97949" y1="45.5195" x2="10.1797" y2="50.7452" gradientUnits="userSpaceOnUse">
<stop stop-color="#0ABD92"/>
<stop offset="1" stop-color="#009DB8"/>
</linearGradient>
<linearGradient id="paint5_linear_677_2659" x1="41.2354" y1="45.5195" x2="46.4356" y2="50.7452" gradientUnits="userSpaceOnUse">
<stop stop-color="#0ABD92"/>
<stop offset="1" stop-color="#009DB8"/>
</linearGradient>
<linearGradient id="paint6_linear_677_2659" x1="5.07227" y1="2.60547" x2="6.41946" y2="3.95927" gradientUnits="userSpaceOnUse">
<stop stop-color="#0ABD92"/>
<stop offset="1" stop-color="#009DB8"/>
</linearGradient>
<linearGradient id="paint7_linear_677_2659" x1="28.4102" y1="2.60547" x2="29.7574" y2="3.95928" gradientUnits="userSpaceOnUse">
<stop stop-color="#0ABD92"/>
<stop offset="1" stop-color="#009DB8"/>
</linearGradient>
<clipPath id="clip0_677_2659">
<rect width="66" height="66" fill="white" transform="translate(0 0.367188)"/>
</clipPath>
</defs>
</svg>
