<svg width="17" height="12" viewBox="0 0 17 12" fill="none" xmlns="http://www.w3.org/2000/svg">
<path fill-rule="evenodd" clip-rule="evenodd" d="M11.7616 0.238643L16.6472 5.42386C16.947 5.74206 16.947 6.25795 16.6472 6.57614L11.7616 11.7614C11.4617 12.0795 10.9757 12.0795 10.6759 11.7614C10.376 11.4432 10.376 10.9273 10.6759 10.6091L14.251 6.81478H0.87207V5.18522H14.251L10.6759 1.39092C10.376 1.07272 10.376 0.556835 10.6759 0.238643C10.9757 -0.0795478 11.4617 -0.0795478 11.7616 0.238643Z" fill="url(#paint0_linear_941_6035)"/>
<path fill-rule="evenodd" clip-rule="evenodd" d="M11.7616 0.238643L16.6472 5.42386C16.947 5.74206 16.947 6.25795 16.6472 6.57614L11.7616 11.7614C11.4617 12.0795 10.9757 12.0795 10.6759 11.7614C10.376 11.4432 10.376 10.9273 10.6759 10.6091L14.251 6.81478H0.87207V5.18522H14.251L10.6759 1.39092C10.376 1.07272 10.376 0.556835 10.6759 0.238643C10.9757 -0.0795478 11.4617 -0.0795478 11.7616 0.238643Z" fill="white"/>
<defs>
<linearGradient id="paint0_linear_941_6035" x1="-8.97408" y1="-1.9642e-07" x2="0.346683" y2="20.1739" gradientUnits="userSpaceOnUse">
<stop stop-color="#0ABD92"/>
<stop offset="1" stop-color="#009DB8"/>
</linearGradient>
</defs>
</svg>
