<svg width="44" height="34" viewBox="0 0 44 34" fill="none" xmlns="http://www.w3.org/2000/svg">
<path fill-rule="evenodd" clip-rule="evenodd" d="M1.1262 0.881273C0.725843 0.994301 0.190318 1.54807 0.0745911 1.96869C0.0124687 2.19466 -0.0119672 3.03799 0.00549932 4.35888L0.0325165 6.39988L0.263367 6.74107C0.530184 7.13549 0.930623 7.40138 1.3808 7.483L1.69666 7.54035L1.72496 8.571C1.75189 9.54707 1.76712 9.62346 2.01277 10.0121C2.20146 10.3105 2.39781 10.4866 2.73252 10.6577C3.15774 10.8752 3.26701 10.8931 4.17234 10.8931H5.15202V14.4636C5.15202 16.4275 5.19254 18.4267 5.24219 18.9065C5.57294 22.1069 6.89695 25.2548 8.93907 27.6957C9.50979 28.3779 10.8321 29.6632 11.5208 30.2053C13.4456 31.7202 16.187 32.9741 18.6327 33.4582C28.4297 35.3973 37.784 28.6445 38.7903 18.9065C38.84 18.4267 38.8805 16.4275 38.8805 14.4636V10.8931H39.8602C40.7655 10.8931 40.8748 10.8752 41.3 10.6577C41.6347 10.4866 41.8311 10.3105 42.0197 10.0121C42.2654 9.62346 42.2806 9.54707 42.3075 8.571L42.3359 7.54035L42.6517 7.483C43.1021 7.4013 43.5024 7.1354 43.7691 6.74081L44 6.39937V4.15514V1.91091L43.7691 1.56947C43.6422 1.38173 43.3906 1.13807 43.2099 1.02816L42.8815 0.828296L34.1053 0.80564C27.5995 0.788879 25.2669 0.808335 25.0884 0.880683C24.6705 1.05014 24.4934 1.56526 24.7003 2.00979C24.9239 2.49003 24.5419 2.47066 33.7997 2.47066H42.3222V4.15514V5.83962H22.0163H1.71034V4.15514V2.47066H10.2328C19.4907 2.47066 19.1086 2.49003 19.3322 2.00979C19.4622 1.7305 19.4622 1.52634 19.3322 1.24706C19.1083 0.76597 19.5068 0.78551 10.0822 0.793764C4.89622 0.798312 1.29544 0.833518 1.1262 0.881273ZM21.5955 0.903761C20.8496 1.30846 21.1617 2.47066 22.0163 2.47066C22.4522 2.47066 22.8767 2.05923 22.8767 1.63659C22.8767 1.00424 22.1628 0.595922 21.5955 0.903761ZM40.5829 8.34528L40.5583 9.16646H22.0163H3.4742L3.44959 8.34528L3.42498 7.5241H22.0163H40.6075L40.5829 8.34528ZM37.1582 14.4515C37.1573 16.4087 37.1186 18.3638 37.0721 18.7962C36.8729 20.6474 36.398 22.2187 35.5249 23.9163C34.8329 25.2615 34.1112 26.2837 33.0976 27.354L32.3843 28.1073L32.3355 25.1221C32.2835 21.9413 32.2487 21.6368 31.7813 20.2739C30.637 16.9372 27.673 14.3765 24.0813 13.6214C23.168 13.4294 21.0551 13.4064 20.1664 13.5787C18.0601 13.9871 16.2361 14.9359 14.738 16.4022C13.319 17.7912 12.4059 19.396 11.9301 21.3368C11.777 21.961 11.7477 22.4402 11.7014 25.0765L11.6482 28.1003L10.9599 27.3869C9.14385 25.5049 7.75453 22.9021 7.21324 20.3682C6.92423 19.0151 6.87432 18.1516 6.87355 14.4936L6.87286 10.8931H22.0163H37.1597L37.1582 14.4515ZM24.0382 15.3461C27.159 16.1052 29.5473 18.4393 30.3836 21.5474C30.5515 22.1713 30.5674 22.4901 30.5984 25.8528L30.6318 29.4844L30.0832 29.8236C28.5231 30.788 26.556 31.5405 24.7044 31.881C23.892 32.0304 23.3738 32.0674 22.0593 32.0695C20.3418 32.0722 19.6899 31.9999 18.3013 31.6524C16.7903 31.2742 15.2461 30.6253 13.9487 29.8232L13.4007 29.4844L13.4342 25.8528C13.4652 22.4841 13.4808 22.1724 13.6497 21.5474C14.431 18.6553 16.5014 16.4706 19.3503 15.5322C20.7433 15.0733 22.6119 14.9992 24.0382 15.3461ZM20.7686 17.8468C20.4255 17.9128 19.8146 18.1322 19.349 18.3566C18.6715 18.6833 18.4049 18.8747 17.7913 19.4752C17.177 20.0766 16.9829 20.3358 16.6494 20.9999C15.7779 22.7355 15.7779 24.4862 16.6494 26.2218C16.9829 26.8859 17.177 27.1452 17.7913 27.7465C18.4102 28.3522 18.6656 28.5348 19.349 28.8601C21.8236 30.0379 24.4967 29.5659 26.3878 27.6171C27.4058 26.5681 28.0392 25.0314 28.0392 23.6109C28.0392 22.1903 27.4058 20.6537 26.3878 19.6047C24.8909 18.0622 22.8955 17.4379 20.7686 17.8468ZM22.894 19.4927C24.8344 19.8888 26.3184 21.6735 26.3184 23.6109C26.3184 25.884 24.3384 27.8221 22.0163 27.8221C19.6973 27.8221 17.7142 25.8808 17.7142 23.6109C17.7142 21.7199 19.1277 19.9671 21.0137 19.5193C21.5805 19.3847 22.314 19.3743 22.894 19.4927ZM21.1844 21.2349C19.0259 21.9901 18.8371 24.8775 20.882 25.8605C21.5784 26.1952 22.4541 26.1952 23.1505 25.8605C24.0734 25.4168 24.551 24.6498 24.551 23.6109C24.551 22.8934 24.3723 22.4135 23.9157 21.9044C23.2988 21.2167 22.0861 20.9194 21.1844 21.2349ZM22.434 22.8886C23.0147 23.1826 22.9973 24.0887 22.4059 24.3525C21.9644 24.5494 21.4832 24.4074 21.2784 24.0198C20.8746 23.2553 21.653 22.4933 22.434 22.8886Z" fill="url(#paint0_linear_677_2923)"/>
<defs>
<linearGradient id="paint0_linear_677_2923" x1="0" y1="0.791016" x2="32.2694" y2="44.0278" gradientUnits="userSpaceOnUse">
<stop stop-color="#0ABD92"/>
<stop offset="1" stop-color="#009DB8"/>
</linearGradient>
</defs>
</svg>
