<svg width="67" height="68" viewBox="0 0 67 68" fill="none" xmlns="http://www.w3.org/2000/svg">
<g opacity="0.66">
<mask id="path-1-inside-1_677_2569" fill="white">
<path fill-rule="evenodd" clip-rule="evenodd" d="M1.71489 0.640436C1.10526 0.816303 0.289802 1.67795 0.113582 2.3324C0.0189865 2.684 -0.0182228 3.99619 0.00837396 6.05142L0.0495138 9.22712L0.401037 9.758C0.807325 10.3717 1.41709 10.7854 2.10257 10.9124L2.58354 11.0016L2.62665 12.6053C2.66766 14.124 2.69085 14.2429 3.06491 14.8475C3.35223 15.3118 3.65121 15.5858 4.16088 15.8521C4.80837 16.1905 4.97476 16.2183 6.35334 16.2183H7.84512V21.7739C7.84512 24.8296 7.90683 27.9403 7.98243 28.6868C8.48606 33.6665 10.5022 38.5645 13.6118 42.3624C14.4808 43.4238 16.4943 45.4237 17.543 46.2672C20.474 48.6243 24.6484 50.5754 28.3725 51.3285C43.2907 54.3458 57.5347 43.8387 59.0671 28.6868C59.1427 27.9403 59.2044 24.8296 59.2044 21.7739V16.2183H60.6962C62.0747 16.2183 62.2411 16.1905 62.8886 15.8521C63.3983 15.5858 63.6973 15.3118 63.9846 14.8475C64.3587 14.2429 64.3819 14.124 64.4229 12.6053L64.466 11.0016L64.9469 10.9124C65.6327 10.7853 66.2423 10.3716 66.6485 9.7576L67 9.22633V5.73442V2.2425L66.6485 1.71123C66.4552 1.41913 66.072 1.04 65.7969 0.868984L65.2968 0.558006L51.9331 0.522754C42.0266 0.496676 38.4746 0.526948 38.2028 0.639519C37.5664 0.903188 37.2968 1.70468 37.6119 2.39635C37.9523 3.14359 37.3705 3.11345 51.4678 3.11345H64.4451V5.73442V8.35538H33.5248H2.60438V5.73442V3.11345H15.5818C29.679 3.11345 29.0972 3.14359 29.4376 2.39635C29.6356 1.9618 29.6356 1.64414 29.4376 1.20958C29.0967 0.461031 29.7036 0.491434 15.3525 0.504277C7.4556 0.511353 1.9726 0.566131 1.71489 0.640436ZM32.8841 0.675426C31.7483 1.30511 32.2235 3.11345 33.5248 3.11345C34.1886 3.11345 34.8349 2.47328 34.8349 1.81568C34.8349 0.831766 33.7479 0.196444 32.8841 0.675426ZM61.7967 12.2541L61.7593 13.5318H33.5248H5.29026L5.25279 12.2541L5.21531 10.9764H33.5248H61.8342L61.7967 12.2541ZM56.5818 21.7551C56.5805 24.8004 56.5215 27.8424 56.4506 28.5152C56.1473 31.3955 55.4242 33.8405 54.0947 36.4818C53.041 38.5749 51.942 40.1654 50.3986 41.8308L49.3125 43.0029L49.2382 38.358C49.1589 33.4088 49.106 32.9351 48.3942 30.8145C46.6518 25.6227 42.1384 21.6383 36.6692 20.4635C35.2786 20.1647 32.0611 20.1289 30.7079 20.397C27.5007 21.0325 24.7232 22.5087 22.442 24.7903C20.2813 26.9515 18.8908 29.4484 18.1662 32.4683C17.9332 33.4395 17.8886 34.185 17.818 38.2871L17.737 42.9919L16.6889 41.8819C13.9236 38.9536 11.808 34.9038 10.9838 30.9612C10.5437 28.8558 10.4677 27.5123 10.4665 21.8206L10.4655 16.2183H33.5248H56.584L56.5818 21.7551ZM36.6037 23.1471C41.3557 24.3282 44.9925 27.96 46.2659 32.7959C46.5215 33.7667 46.5458 34.2627 46.5929 39.495L46.6439 45.1455L45.8085 45.6732C43.4329 47.1739 40.4376 48.3447 37.618 48.8745C36.381 49.107 35.592 49.1645 33.5903 49.1678C30.975 49.1721 29.9823 49.0595 27.8679 48.5188C25.5671 47.9304 23.2157 46.9207 21.2401 45.6727L20.4056 45.1455L20.4566 39.495C20.5039 34.2534 20.5276 33.7684 20.7848 32.7959C21.9746 28.296 25.1271 24.8967 29.4653 23.4366C31.5863 22.7226 34.4318 22.6073 36.6037 23.1471ZM31.625 27.038C31.1025 27.1406 30.1723 27.482 29.4632 27.8313C28.4315 28.3395 28.0256 28.6373 27.0914 29.5717C26.1559 30.5074 25.8603 30.9108 25.3525 31.9441C24.0254 34.6446 24.0254 37.3686 25.3525 40.0691C25.8603 41.1024 26.1559 41.5058 27.0914 42.4415C28.0336 43.3838 28.4226 43.6681 29.4632 44.1742C33.2314 46.0068 37.3018 45.2724 40.1814 42.24C41.7315 40.6078 42.6961 38.2169 42.6961 36.0066C42.6961 33.7963 41.7315 31.4053 40.1814 29.7731C37.9021 27.3731 34.8636 26.4018 31.625 27.038ZM34.8613 29.599C37.816 30.2153 40.0757 32.9921 40.0757 36.0066C40.0757 39.5435 37.0608 42.559 33.5248 42.559C29.9937 42.559 26.9738 39.5385 26.9738 36.0066C26.9738 33.0643 29.1262 30.337 31.9981 29.6403C32.8611 29.4308 33.9781 29.4147 34.8613 29.599ZM32.2581 32.3097C28.9712 33.4848 28.6838 37.9774 31.7977 39.5069C32.858 40.0277 34.1915 40.0277 35.2518 39.5069C36.6573 38.8165 37.3844 37.6231 37.3844 36.0066C37.3844 34.8902 37.1123 34.1435 36.4171 33.3514C35.4777 32.2814 33.6311 31.8188 32.2581 32.3097ZM34.1609 34.8828C35.0451 35.3402 35.0186 36.75 34.118 37.1605C33.4458 37.4669 32.7131 37.2459 32.4013 36.6428C31.7863 35.4533 32.9716 34.2677 34.1609 34.8828ZM32.8841 54.6674C31.7483 55.297 32.2235 57.1054 33.5248 57.1054C34.1886 57.1054 34.8349 56.4652 34.8349 55.8076C34.8349 54.8237 33.7479 54.1884 32.8841 54.6674ZM29.2791 58.3539C28.7388 58.6358 28.555 58.9301 28.5502 59.5211C28.5466 59.969 28.63 60.1177 29.1865 60.6542C30.24 61.6698 31.976 62.3473 33.5248 62.3473C35.0735 62.3473 36.8095 61.6698 37.863 60.6542C38.4041 60.1323 38.5035 59.961 38.5035 59.5493C38.5035 58.8952 38.1848 58.4486 37.5912 58.2708C37.0353 58.1042 36.8677 58.1659 35.9266 58.8845C35.2936 59.3678 34.2706 59.7263 33.5248 59.7263C32.7789 59.7263 31.7559 59.3678 31.1229 58.8845C30.0783 58.0869 29.8931 58.0336 29.2791 58.3539ZM25.2376 62.2849C24.8462 62.6765 24.7552 63.044 24.9057 63.625C25.1614 64.6124 28.3263 66.6186 30.5768 67.2199C31.4189 67.445 31.9985 67.5 33.5248 67.5C35.051 67.5 35.6306 67.445 36.4727 67.2199C38.7155 66.6205 41.8903 64.6037 42.1462 63.6157C42.3855 62.6921 41.8498 61.9542 40.9399 61.9542C40.4884 61.9542 40.2906 62.0488 39.7459 62.5249C38.3312 63.7617 36.9459 64.4575 35.2492 64.7835C32.3705 65.3367 29.6281 64.5572 27.3036 62.5249C26.759 62.0488 26.5611 61.9542 26.1096 61.9542C25.7056 61.9542 25.4845 62.038 25.2376 62.2849Z"/>
</mask>
<path fill-rule="evenodd" clip-rule="evenodd" d="M1.71489 0.640436C1.10526 0.816303 0.289802 1.67795 0.113582 2.3324C0.0189865 2.684 -0.0182228 3.99619 0.00837396 6.05142L0.0495138 9.22712L0.401037 9.758C0.807325 10.3717 1.41709 10.7854 2.10257 10.9124L2.58354 11.0016L2.62665 12.6053C2.66766 14.124 2.69085 14.2429 3.06491 14.8475C3.35223 15.3118 3.65121 15.5858 4.16088 15.8521C4.80837 16.1905 4.97476 16.2183 6.35334 16.2183H7.84512V21.7739C7.84512 24.8296 7.90683 27.9403 7.98243 28.6868C8.48606 33.6665 10.5022 38.5645 13.6118 42.3624C14.4808 43.4238 16.4943 45.4237 17.543 46.2672C20.474 48.6243 24.6484 50.5754 28.3725 51.3285C43.2907 54.3458 57.5347 43.8387 59.0671 28.6868C59.1427 27.9403 59.2044 24.8296 59.2044 21.7739V16.2183H60.6962C62.0747 16.2183 62.2411 16.1905 62.8886 15.8521C63.3983 15.5858 63.6973 15.3118 63.9846 14.8475C64.3587 14.2429 64.3819 14.124 64.4229 12.6053L64.466 11.0016L64.9469 10.9124C65.6327 10.7853 66.2423 10.3716 66.6485 9.7576L67 9.22633V5.73442V2.2425L66.6485 1.71123C66.4552 1.41913 66.072 1.04 65.7969 0.868984L65.2968 0.558006L51.9331 0.522754C42.0266 0.496676 38.4746 0.526948 38.2028 0.639519C37.5664 0.903188 37.2968 1.70468 37.6119 2.39635C37.9523 3.14359 37.3705 3.11345 51.4678 3.11345H64.4451V5.73442V8.35538H33.5248H2.60438V5.73442V3.11345H15.5818C29.679 3.11345 29.0972 3.14359 29.4376 2.39635C29.6356 1.9618 29.6356 1.64414 29.4376 1.20958C29.0967 0.461031 29.7036 0.491434 15.3525 0.504277C7.4556 0.511353 1.9726 0.566131 1.71489 0.640436ZM32.8841 0.675426C31.7483 1.30511 32.2235 3.11345 33.5248 3.11345C34.1886 3.11345 34.8349 2.47328 34.8349 1.81568C34.8349 0.831766 33.7479 0.196444 32.8841 0.675426ZM61.7967 12.2541L61.7593 13.5318H33.5248H5.29026L5.25279 12.2541L5.21531 10.9764H33.5248H61.8342L61.7967 12.2541ZM56.5818 21.7551C56.5805 24.8004 56.5215 27.8424 56.4506 28.5152C56.1473 31.3955 55.4242 33.8405 54.0947 36.4818C53.041 38.5749 51.942 40.1654 50.3986 41.8308L49.3125 43.0029L49.2382 38.358C49.1589 33.4088 49.106 32.9351 48.3942 30.8145C46.6518 25.6227 42.1384 21.6383 36.6692 20.4635C35.2786 20.1647 32.0611 20.1289 30.7079 20.397C27.5007 21.0325 24.7232 22.5087 22.442 24.7903C20.2813 26.9515 18.8908 29.4484 18.1662 32.4683C17.9332 33.4395 17.8886 34.185 17.818 38.2871L17.737 42.9919L16.6889 41.8819C13.9236 38.9536 11.808 34.9038 10.9838 30.9612C10.5437 28.8558 10.4677 27.5123 10.4665 21.8206L10.4655 16.2183H33.5248H56.584L56.5818 21.7551ZM36.6037 23.1471C41.3557 24.3282 44.9925 27.96 46.2659 32.7959C46.5215 33.7667 46.5458 34.2627 46.5929 39.495L46.6439 45.1455L45.8085 45.6732C43.4329 47.1739 40.4376 48.3447 37.618 48.8745C36.381 49.107 35.592 49.1645 33.5903 49.1678C30.975 49.1721 29.9823 49.0595 27.8679 48.5188C25.5671 47.9304 23.2157 46.9207 21.2401 45.6727L20.4056 45.1455L20.4566 39.495C20.5039 34.2534 20.5276 33.7684 20.7848 32.7959C21.9746 28.296 25.1271 24.8967 29.4653 23.4366C31.5863 22.7226 34.4318 22.6073 36.6037 23.1471ZM31.625 27.038C31.1025 27.1406 30.1723 27.482 29.4632 27.8313C28.4315 28.3395 28.0256 28.6373 27.0914 29.5717C26.1559 30.5074 25.8603 30.9108 25.3525 31.9441C24.0254 34.6446 24.0254 37.3686 25.3525 40.0691C25.8603 41.1024 26.1559 41.5058 27.0914 42.4415C28.0336 43.3838 28.4226 43.6681 29.4632 44.1742C33.2314 46.0068 37.3018 45.2724 40.1814 42.24C41.7315 40.6078 42.6961 38.2169 42.6961 36.0066C42.6961 33.7963 41.7315 31.4053 40.1814 29.7731C37.9021 27.3731 34.8636 26.4018 31.625 27.038ZM34.8613 29.599C37.816 30.2153 40.0757 32.9921 40.0757 36.0066C40.0757 39.5435 37.0608 42.559 33.5248 42.559C29.9937 42.559 26.9738 39.5385 26.9738 36.0066C26.9738 33.0643 29.1262 30.337 31.9981 29.6403C32.8611 29.4308 33.9781 29.4147 34.8613 29.599ZM32.2581 32.3097C28.9712 33.4848 28.6838 37.9774 31.7977 39.5069C32.858 40.0277 34.1915 40.0277 35.2518 39.5069C36.6573 38.8165 37.3844 37.6231 37.3844 36.0066C37.3844 34.8902 37.1123 34.1435 36.4171 33.3514C35.4777 32.2814 33.6311 31.8188 32.2581 32.3097ZM34.1609 34.8828C35.0451 35.3402 35.0186 36.75 34.118 37.1605C33.4458 37.4669 32.7131 37.2459 32.4013 36.6428C31.7863 35.4533 32.9716 34.2677 34.1609 34.8828ZM32.8841 54.6674C31.7483 55.297 32.2235 57.1054 33.5248 57.1054C34.1886 57.1054 34.8349 56.4652 34.8349 55.8076C34.8349 54.8237 33.7479 54.1884 32.8841 54.6674ZM29.2791 58.3539C28.7388 58.6358 28.555 58.9301 28.5502 59.5211C28.5466 59.969 28.63 60.1177 29.1865 60.6542C30.24 61.6698 31.976 62.3473 33.5248 62.3473C35.0735 62.3473 36.8095 61.6698 37.863 60.6542C38.4041 60.1323 38.5035 59.961 38.5035 59.5493C38.5035 58.8952 38.1848 58.4486 37.5912 58.2708C37.0353 58.1042 36.8677 58.1659 35.9266 58.8845C35.2936 59.3678 34.2706 59.7263 33.5248 59.7263C32.7789 59.7263 31.7559 59.3678 31.1229 58.8845C30.0783 58.0869 29.8931 58.0336 29.2791 58.3539ZM25.2376 62.2849C24.8462 62.6765 24.7552 63.044 24.9057 63.625C25.1614 64.6124 28.3263 66.6186 30.5768 67.2199C31.4189 67.445 31.9985 67.5 33.5248 67.5C35.051 67.5 35.6306 67.445 36.4727 67.2199C38.7155 66.6205 41.8903 64.6037 42.1462 63.6157C42.3855 62.6921 41.8498 61.9542 40.9399 61.9542C40.4884 61.9542 40.2906 62.0488 39.7459 62.5249C38.3312 63.7617 36.9459 64.4575 35.2492 64.7835C32.3705 65.3367 29.6281 64.5572 27.3036 62.5249C26.759 62.0488 26.5611 61.9542 26.1096 61.9542C25.7056 61.9542 25.4845 62.038 25.2376 62.2849Z" fill="url(#paint0_linear_677_2569)"/>
<path fill-rule="evenodd" clip-rule="evenodd" d="M1.71489 0.640436C1.10526 0.816303 0.289802 1.67795 0.113582 2.3324C0.0189865 2.684 -0.0182228 3.99619 0.00837396 6.05142L0.0495138 9.22712L0.401037 9.758C0.807325 10.3717 1.41709 10.7854 2.10257 10.9124L2.58354 11.0016L2.62665 12.6053C2.66766 14.124 2.69085 14.2429 3.06491 14.8475C3.35223 15.3118 3.65121 15.5858 4.16088 15.8521C4.80837 16.1905 4.97476 16.2183 6.35334 16.2183H7.84512V21.7739C7.84512 24.8296 7.90683 27.9403 7.98243 28.6868C8.48606 33.6665 10.5022 38.5645 13.6118 42.3624C14.4808 43.4238 16.4943 45.4237 17.543 46.2672C20.474 48.6243 24.6484 50.5754 28.3725 51.3285C43.2907 54.3458 57.5347 43.8387 59.0671 28.6868C59.1427 27.9403 59.2044 24.8296 59.2044 21.7739V16.2183H60.6962C62.0747 16.2183 62.2411 16.1905 62.8886 15.8521C63.3983 15.5858 63.6973 15.3118 63.9846 14.8475C64.3587 14.2429 64.3819 14.124 64.4229 12.6053L64.466 11.0016L64.9469 10.9124C65.6327 10.7853 66.2423 10.3716 66.6485 9.7576L67 9.22633V5.73442V2.2425L66.6485 1.71123C66.4552 1.41913 66.072 1.04 65.7969 0.868984L65.2968 0.558006L51.9331 0.522754C42.0266 0.496676 38.4746 0.526948 38.2028 0.639519C37.5664 0.903188 37.2968 1.70468 37.6119 2.39635C37.9523 3.14359 37.3705 3.11345 51.4678 3.11345H64.4451V5.73442V8.35538H33.5248H2.60438V5.73442V3.11345H15.5818C29.679 3.11345 29.0972 3.14359 29.4376 2.39635C29.6356 1.9618 29.6356 1.64414 29.4376 1.20958C29.0967 0.461031 29.7036 0.491434 15.3525 0.504277C7.4556 0.511353 1.9726 0.566131 1.71489 0.640436ZM32.8841 0.675426C31.7483 1.30511 32.2235 3.11345 33.5248 3.11345C34.1886 3.11345 34.8349 2.47328 34.8349 1.81568C34.8349 0.831766 33.7479 0.196444 32.8841 0.675426ZM61.7967 12.2541L61.7593 13.5318H33.5248H5.29026L5.25279 12.2541L5.21531 10.9764H33.5248H61.8342L61.7967 12.2541ZM56.5818 21.7551C56.5805 24.8004 56.5215 27.8424 56.4506 28.5152C56.1473 31.3955 55.4242 33.8405 54.0947 36.4818C53.041 38.5749 51.942 40.1654 50.3986 41.8308L49.3125 43.0029L49.2382 38.358C49.1589 33.4088 49.106 32.9351 48.3942 30.8145C46.6518 25.6227 42.1384 21.6383 36.6692 20.4635C35.2786 20.1647 32.0611 20.1289 30.7079 20.397C27.5007 21.0325 24.7232 22.5087 22.442 24.7903C20.2813 26.9515 18.8908 29.4484 18.1662 32.4683C17.9332 33.4395 17.8886 34.185 17.818 38.2871L17.737 42.9919L16.6889 41.8819C13.9236 38.9536 11.808 34.9038 10.9838 30.9612C10.5437 28.8558 10.4677 27.5123 10.4665 21.8206L10.4655 16.2183H33.5248H56.584L56.5818 21.7551ZM36.6037 23.1471C41.3557 24.3282 44.9925 27.96 46.2659 32.7959C46.5215 33.7667 46.5458 34.2627 46.5929 39.495L46.6439 45.1455L45.8085 45.6732C43.4329 47.1739 40.4376 48.3447 37.618 48.8745C36.381 49.107 35.592 49.1645 33.5903 49.1678C30.975 49.1721 29.9823 49.0595 27.8679 48.5188C25.5671 47.9304 23.2157 46.9207 21.2401 45.6727L20.4056 45.1455L20.4566 39.495C20.5039 34.2534 20.5276 33.7684 20.7848 32.7959C21.9746 28.296 25.1271 24.8967 29.4653 23.4366C31.5863 22.7226 34.4318 22.6073 36.6037 23.1471ZM31.625 27.038C31.1025 27.1406 30.1723 27.482 29.4632 27.8313C28.4315 28.3395 28.0256 28.6373 27.0914 29.5717C26.1559 30.5074 25.8603 30.9108 25.3525 31.9441C24.0254 34.6446 24.0254 37.3686 25.3525 40.0691C25.8603 41.1024 26.1559 41.5058 27.0914 42.4415C28.0336 43.3838 28.4226 43.6681 29.4632 44.1742C33.2314 46.0068 37.3018 45.2724 40.1814 42.24C41.7315 40.6078 42.6961 38.2169 42.6961 36.0066C42.6961 33.7963 41.7315 31.4053 40.1814 29.7731C37.9021 27.3731 34.8636 26.4018 31.625 27.038ZM34.8613 29.599C37.816 30.2153 40.0757 32.9921 40.0757 36.0066C40.0757 39.5435 37.0608 42.559 33.5248 42.559C29.9937 42.559 26.9738 39.5385 26.9738 36.0066C26.9738 33.0643 29.1262 30.337 31.9981 29.6403C32.8611 29.4308 33.9781 29.4147 34.8613 29.599ZM32.2581 32.3097C28.9712 33.4848 28.6838 37.9774 31.7977 39.5069C32.858 40.0277 34.1915 40.0277 35.2518 39.5069C36.6573 38.8165 37.3844 37.6231 37.3844 36.0066C37.3844 34.8902 37.1123 34.1435 36.4171 33.3514C35.4777 32.2814 33.6311 31.8188 32.2581 32.3097ZM34.1609 34.8828C35.0451 35.3402 35.0186 36.75 34.118 37.1605C33.4458 37.4669 32.7131 37.2459 32.4013 36.6428C31.7863 35.4533 32.9716 34.2677 34.1609 34.8828ZM32.8841 54.6674C31.7483 55.297 32.2235 57.1054 33.5248 57.1054C34.1886 57.1054 34.8349 56.4652 34.8349 55.8076C34.8349 54.8237 33.7479 54.1884 32.8841 54.6674ZM29.2791 58.3539C28.7388 58.6358 28.555 58.9301 28.5502 59.5211C28.5466 59.969 28.63 60.1177 29.1865 60.6542C30.24 61.6698 31.976 62.3473 33.5248 62.3473C35.0735 62.3473 36.8095 61.6698 37.863 60.6542C38.4041 60.1323 38.5035 59.961 38.5035 59.5493C38.5035 58.8952 38.1848 58.4486 37.5912 58.2708C37.0353 58.1042 36.8677 58.1659 35.9266 58.8845C35.2936 59.3678 34.2706 59.7263 33.5248 59.7263C32.7789 59.7263 31.7559 59.3678 31.1229 58.8845C30.0783 58.0869 29.8931 58.0336 29.2791 58.3539ZM25.2376 62.2849C24.8462 62.6765 24.7552 63.044 24.9057 63.625C25.1614 64.6124 28.3263 66.6186 30.5768 67.2199C31.4189 67.445 31.9985 67.5 33.5248 67.5C35.051 67.5 35.6306 67.445 36.4727 67.2199C38.7155 66.6205 41.8903 64.6037 42.1462 63.6157C42.3855 62.6921 41.8498 61.9542 40.9399 61.9542C40.4884 61.9542 40.2906 62.0488 39.7459 62.5249C38.3312 63.7617 36.9459 64.4575 35.2492 64.7835C32.3705 65.3367 29.6281 64.5572 27.3036 62.5249C26.759 62.0488 26.5611 61.9542 26.1096 61.9542C25.7056 61.9542 25.4845 62.038 25.2376 62.2849Z" fill="white"/>
<path fill-rule="evenodd" clip-rule="evenodd" d="M1.71489 0.640436C1.10526 0.816303 0.289802 1.67795 0.113582 2.3324C0.0189865 2.684 -0.0182228 3.99619 0.00837396 6.05142L0.0495138 9.22712L0.401037 9.758C0.807325 10.3717 1.41709 10.7854 2.10257 10.9124L2.58354 11.0016L2.62665 12.6053C2.66766 14.124 2.69085 14.2429 3.06491 14.8475C3.35223 15.3118 3.65121 15.5858 4.16088 15.8521C4.80837 16.1905 4.97476 16.2183 6.35334 16.2183H7.84512V21.7739C7.84512 24.8296 7.90683 27.9403 7.98243 28.6868C8.48606 33.6665 10.5022 38.5645 13.6118 42.3624C14.4808 43.4238 16.4943 45.4237 17.543 46.2672C20.474 48.6243 24.6484 50.5754 28.3725 51.3285C43.2907 54.3458 57.5347 43.8387 59.0671 28.6868C59.1427 27.9403 59.2044 24.8296 59.2044 21.7739V16.2183H60.6962C62.0747 16.2183 62.2411 16.1905 62.8886 15.8521C63.3983 15.5858 63.6973 15.3118 63.9846 14.8475C64.3587 14.2429 64.3819 14.124 64.4229 12.6053L64.466 11.0016L64.9469 10.9124C65.6327 10.7853 66.2423 10.3716 66.6485 9.7576L67 9.22633V5.73442V2.2425L66.6485 1.71123C66.4552 1.41913 66.072 1.04 65.7969 0.868984L65.2968 0.558006L51.9331 0.522754C42.0266 0.496676 38.4746 0.526948 38.2028 0.639519C37.5664 0.903188 37.2968 1.70468 37.6119 2.39635C37.9523 3.14359 37.3705 3.11345 51.4678 3.11345H64.4451V5.73442V8.35538H33.5248H2.60438V5.73442V3.11345H15.5818C29.679 3.11345 29.0972 3.14359 29.4376 2.39635C29.6356 1.9618 29.6356 1.64414 29.4376 1.20958C29.0967 0.461031 29.7036 0.491434 15.3525 0.504277C7.4556 0.511353 1.9726 0.566131 1.71489 0.640436ZM32.8841 0.675426C31.7483 1.30511 32.2235 3.11345 33.5248 3.11345C34.1886 3.11345 34.8349 2.47328 34.8349 1.81568C34.8349 0.831766 33.7479 0.196444 32.8841 0.675426ZM61.7967 12.2541L61.7593 13.5318H33.5248H5.29026L5.25279 12.2541L5.21531 10.9764H33.5248H61.8342L61.7967 12.2541ZM56.5818 21.7551C56.5805 24.8004 56.5215 27.8424 56.4506 28.5152C56.1473 31.3955 55.4242 33.8405 54.0947 36.4818C53.041 38.5749 51.942 40.1654 50.3986 41.8308L49.3125 43.0029L49.2382 38.358C49.1589 33.4088 49.106 32.9351 48.3942 30.8145C46.6518 25.6227 42.1384 21.6383 36.6692 20.4635C35.2786 20.1647 32.0611 20.1289 30.7079 20.397C27.5007 21.0325 24.7232 22.5087 22.442 24.7903C20.2813 26.9515 18.8908 29.4484 18.1662 32.4683C17.9332 33.4395 17.8886 34.185 17.818 38.2871L17.737 42.9919L16.6889 41.8819C13.9236 38.9536 11.808 34.9038 10.9838 30.9612C10.5437 28.8558 10.4677 27.5123 10.4665 21.8206L10.4655 16.2183H33.5248H56.584L56.5818 21.7551ZM36.6037 23.1471C41.3557 24.3282 44.9925 27.96 46.2659 32.7959C46.5215 33.7667 46.5458 34.2627 46.5929 39.495L46.6439 45.1455L45.8085 45.6732C43.4329 47.1739 40.4376 48.3447 37.618 48.8745C36.381 49.107 35.592 49.1645 33.5903 49.1678C30.975 49.1721 29.9823 49.0595 27.8679 48.5188C25.5671 47.9304 23.2157 46.9207 21.2401 45.6727L20.4056 45.1455L20.4566 39.495C20.5039 34.2534 20.5276 33.7684 20.7848 32.7959C21.9746 28.296 25.1271 24.8967 29.4653 23.4366C31.5863 22.7226 34.4318 22.6073 36.6037 23.1471ZM31.625 27.038C31.1025 27.1406 30.1723 27.482 29.4632 27.8313C28.4315 28.3395 28.0256 28.6373 27.0914 29.5717C26.1559 30.5074 25.8603 30.9108 25.3525 31.9441C24.0254 34.6446 24.0254 37.3686 25.3525 40.0691C25.8603 41.1024 26.1559 41.5058 27.0914 42.4415C28.0336 43.3838 28.4226 43.6681 29.4632 44.1742C33.2314 46.0068 37.3018 45.2724 40.1814 42.24C41.7315 40.6078 42.6961 38.2169 42.6961 36.0066C42.6961 33.7963 41.7315 31.4053 40.1814 29.7731C37.9021 27.3731 34.8636 26.4018 31.625 27.038ZM34.8613 29.599C37.816 30.2153 40.0757 32.9921 40.0757 36.0066C40.0757 39.5435 37.0608 42.559 33.5248 42.559C29.9937 42.559 26.9738 39.5385 26.9738 36.0066C26.9738 33.0643 29.1262 30.337 31.9981 29.6403C32.8611 29.4308 33.9781 29.4147 34.8613 29.599ZM32.2581 32.3097C28.9712 33.4848 28.6838 37.9774 31.7977 39.5069C32.858 40.0277 34.1915 40.0277 35.2518 39.5069C36.6573 38.8165 37.3844 37.6231 37.3844 36.0066C37.3844 34.8902 37.1123 34.1435 36.4171 33.3514C35.4777 32.2814 33.6311 31.8188 32.2581 32.3097ZM34.1609 34.8828C35.0451 35.3402 35.0186 36.75 34.118 37.1605C33.4458 37.4669 32.7131 37.2459 32.4013 36.6428C31.7863 35.4533 32.9716 34.2677 34.1609 34.8828ZM32.8841 54.6674C31.7483 55.297 32.2235 57.1054 33.5248 57.1054C34.1886 57.1054 34.8349 56.4652 34.8349 55.8076C34.8349 54.8237 33.7479 54.1884 32.8841 54.6674ZM29.2791 58.3539C28.7388 58.6358 28.555 58.9301 28.5502 59.5211C28.5466 59.969 28.63 60.1177 29.1865 60.6542C30.24 61.6698 31.976 62.3473 33.5248 62.3473C35.0735 62.3473 36.8095 61.6698 37.863 60.6542C38.4041 60.1323 38.5035 59.961 38.5035 59.5493C38.5035 58.8952 38.1848 58.4486 37.5912 58.2708C37.0353 58.1042 36.8677 58.1659 35.9266 58.8845C35.2936 59.3678 34.2706 59.7263 33.5248 59.7263C32.7789 59.7263 31.7559 59.3678 31.1229 58.8845C30.0783 58.0869 29.8931 58.0336 29.2791 58.3539ZM25.2376 62.2849C24.8462 62.6765 24.7552 63.044 24.9057 63.625C25.1614 64.6124 28.3263 66.6186 30.5768 67.2199C31.4189 67.445 31.9985 67.5 33.5248 67.5C35.051 67.5 35.6306 67.445 36.4727 67.2199C38.7155 66.6205 41.8903 64.6037 42.1462 63.6157C42.3855 62.6921 41.8498 61.9542 40.9399 61.9542C40.4884 61.9542 40.2906 62.0488 39.7459 62.5249C38.3312 63.7617 36.9459 64.4575 35.2492 64.7835C32.3705 65.3367 29.6281 64.5572 27.3036 62.5249C26.759 62.0488 26.5611 61.9542 26.1096 61.9542C25.7056 61.9542 25.4845 62.038 25.2376 62.2849Z" stroke="#121212" stroke-width="0.8" mask="url(#path-1-inside-1_677_2569)"/>
</g>
<defs>
<linearGradient id="paint0_linear_677_2569" x1="0" y1="0.5" x2="68.34" y2="69.175" gradientUnits="userSpaceOnUse">
<stop stop-color="#0ABD92"/>
<stop offset="1" stop-color="#009DB8"/>
</linearGradient>
</defs>
</svg>
