<svg width="31" height="31" viewBox="0 0 31 31" fill="none" xmlns="http://www.w3.org/2000/svg">
<path fill-rule="evenodd" clip-rule="evenodd" d="M6.42254 0.726785C6.05781 0.846272 5.62835 1.15832 5.39853 1.47074C5.11672 1.85391 5.01781 2.25264 5.01781 3.00512V3.65229H3.58177C2.32556 3.65229 2.09587 3.66785 1.74714 3.77667C1.00576 4.00812 0.355825 4.65805 0.124379 5.39943C0.00244617 5.79025 0 6.00268 0 16.1968C0 26.3909 0.00244617 26.6033 0.124379 26.9942C0.355825 27.7355 1.00576 28.3855 1.74714 28.6169C2.13508 28.738 2.34181 28.7413 9.44922 28.7413H16.7526L16.9066 28.5873C17.0935 28.4005 17.1076 28.1234 16.9407 27.9172L16.8207 27.7691L9.46101 27.7377C2.43382 27.7078 2.0913 27.7011 1.88168 27.5895C1.5744 27.4258 1.32871 27.1845 1.17028 26.891L1.03492 26.6401L1.00168 10.6772H29.1033V19.4013L29.2573 19.5553C29.4609 19.759 29.7492 19.759 29.9528 19.5553L30.1068 19.4013V12.5997C30.1068 5.9927 30.1033 5.78668 29.9825 5.39943C29.751 4.65805 29.1011 4.00812 28.3597 3.77667C28.0111 3.66791 27.7813 3.65229 26.5315 3.65229H25.1019L25.0792 2.88394C25.0528 1.99071 24.9414 1.68243 24.4774 1.2184C24.0673 0.808262 23.7242 0.674349 23.0819 0.673597C22.4468 0.672844 22.0856 0.819176 21.6516 1.25322C21.2173 1.68751 21.1145 1.98393 21.0861 2.88394L21.0619 3.65229H17.0735L17.0508 2.88394C17.0243 1.99071 16.913 1.68243 16.4489 1.2184C16.0388 0.808262 15.6957 0.674349 15.0534 0.673597C14.4183 0.672844 14.0571 0.819176 13.6231 1.25322C13.1888 1.68751 13.0861 1.98393 13.0576 2.88394L13.0334 3.65229H9.04497L9.02226 2.88394C9.00276 2.22491 8.97779 2.07118 8.84658 1.80361C8.64944 1.40149 8.226 0.980122 7.85261 0.814597C7.48726 0.652585 6.78138 0.609243 6.42254 0.726785ZM6.58349 1.78629C6.37901 1.88941 6.26561 2.00281 6.16249 2.20729C6.0267 2.47656 6.02137 2.55013 6.02137 4.15407C6.02137 5.75801 6.0267 5.83159 6.16249 6.10083C6.31441 6.40209 6.71464 6.66295 7.02493 6.66295C7.33522 6.66295 7.73545 6.40209 7.88736 6.10083C8.02316 5.83159 8.02849 5.75801 8.02849 4.15407C8.02849 2.55013 8.02316 2.47656 7.88736 2.20729C7.73545 1.90603 7.33522 1.64517 7.02493 1.64517C6.93605 1.64517 6.73741 1.70864 6.58349 1.78629ZM14.612 1.78629C14.4075 1.88941 14.2941 2.00281 14.191 2.20729C14.0552 2.47656 14.0499 2.55013 14.0499 4.15407C14.0499 5.75801 14.0552 5.83159 14.191 6.10083C14.3429 6.40209 14.7431 6.66295 15.0534 6.66295C15.3637 6.66295 15.7639 6.40209 15.9159 6.10083C16.0516 5.83159 16.057 5.75801 16.057 4.15407C16.057 2.55013 16.0516 2.47656 15.9159 2.20729C15.7639 1.90603 15.3637 1.64517 15.0534 1.64517C14.9645 1.64517 14.7659 1.70864 14.612 1.78629ZM22.6405 1.78629C22.436 1.88941 22.3226 2.00281 22.2195 2.20729C22.0837 2.47656 22.0783 2.55013 22.0783 4.15407C22.0783 5.75801 22.0837 5.83159 22.2195 6.10083C22.3714 6.40209 22.7716 6.66295 23.0819 6.66295C23.3922 6.66295 23.7924 6.40209 23.9443 6.10083C24.0801 5.83159 24.0855 5.75801 24.0855 4.15407C24.0855 2.55013 24.0801 2.47656 23.9443 2.20729C23.7924 1.90603 23.3922 1.64517 23.0819 1.64517C22.993 1.64517 22.7944 1.70864 22.6405 1.78629ZM2.13219 4.71443C1.70198 4.84534 1.37149 5.12163 1.15184 5.53397C1.04628 5.73223 1.0331 5.94353 1.01592 7.71356L0.996975 9.67364H29.1099L29.0909 7.71356C29.0737 5.94353 29.0606 5.73223 28.955 5.53397C28.7913 5.22669 28.5501 4.98101 28.2565 4.82257C28.0238 4.697 27.9009 4.68577 26.5539 4.66739L25.1021 4.64764L25.0793 5.42006C25.0528 6.31779 24.942 6.62507 24.4774 7.08972C24.0673 7.49986 23.7242 7.63377 23.0819 7.63453C22.4468 7.63528 22.0856 7.48895 21.6516 7.05491C21.2173 6.62062 21.1145 6.32419 21.0861 5.4242L21.0619 4.65585H17.0735L17.0508 5.4242C17.0243 6.31742 16.913 6.6257 16.4489 7.08972C16.0388 7.49986 15.6957 7.63377 15.0534 7.63453C14.4183 7.63528 14.0571 7.48895 13.6231 7.05491C13.1888 6.62062 13.0861 6.32419 13.0576 5.4242L13.0334 4.65585H9.04497L9.02226 5.4242C8.99586 6.31742 8.88446 6.6257 8.42044 7.08972C8.0103 7.49986 7.66721 7.63377 7.02493 7.63453C6.3898 7.63528 6.02864 7.48895 5.5946 7.05491C5.16031 6.62062 5.05757 6.32419 5.02916 5.4242L5.00488 4.65585L3.64713 4.66125C2.90035 4.66419 2.21862 4.68815 2.13219 4.71443ZM4.60697 13.2725C4.35332 13.3854 4.0912 13.7051 4.04341 13.9598C4.02221 14.0729 4.01399 14.5923 4.02522 15.114C4.04742 16.1467 4.07659 16.2386 4.47745 16.5379C4.64003 16.6592 4.7348 16.6672 6.02137 16.6672C7.30793 16.6672 7.40271 16.6592 7.56528 16.5379C7.98189 16.2268 7.99713 16.1705 7.99713 14.9423C7.99713 13.9092 7.98709 13.8091 7.86779 13.6493C7.55305 13.2277 7.51811 13.2189 6.09538 13.2024C5.11183 13.191 4.75205 13.2079 4.60697 13.2725ZM10.6283 13.2725C10.3747 13.3854 10.1126 13.7051 10.0648 13.9598C10.0436 14.0729 10.0354 14.5923 10.0466 15.114C10.0688 16.1467 10.098 16.2386 10.4988 16.5379C10.6614 16.6592 10.7562 16.6672 12.0427 16.6672C13.3293 16.6672 13.4241 16.6592 13.5866 16.5379C14.0033 16.2268 14.0185 16.1705 14.0185 14.9423C14.0185 13.9092 14.0085 13.8091 13.8892 13.6493C13.5744 13.2277 13.5395 13.2189 12.1167 13.2024C11.1332 13.191 10.7734 13.2079 10.6283 13.2725ZM16.6497 13.2725C16.3961 13.3854 16.1339 13.7051 16.0861 13.9598C16.0649 14.0729 16.0567 14.5923 16.068 15.114C16.0902 16.1467 16.1193 16.2386 16.5202 16.5379C16.6828 16.6592 16.7775 16.6672 18.0641 16.6672C19.3507 16.6672 19.4454 16.6592 19.608 16.5379C20.0246 16.2268 20.0399 16.1705 20.0399 14.9423C20.0399 13.9092 20.0298 13.8091 19.9105 13.6493C19.5958 13.2277 19.5608 13.2189 18.1381 13.2024C17.1546 13.191 16.7948 13.2079 16.6497 13.2725ZM22.6711 13.2725C22.4174 13.3854 22.1553 13.7051 22.1075 13.9598C22.0863 14.0729 22.0781 14.5923 22.0893 15.114C22.1115 16.1467 22.1407 16.2386 22.5415 16.5379C22.7041 16.6592 22.7989 16.6672 24.0855 16.6672C25.372 16.6672 25.4668 16.6592 25.6294 16.5379C26.046 16.2268 26.0612 16.1705 26.0612 14.9423C26.0612 13.9092 26.0512 13.8091 25.9319 13.6493C25.6171 13.2277 25.5822 13.2189 24.1595 13.2024C23.1759 13.191 22.8161 13.2079 22.6711 13.2725ZM5.01781 15.695H7.02493V14.1897H5.01781V15.695ZM11.0392 15.695H13.0463V14.1897H11.0392V15.695ZM17.0605 15.695H19.0677V14.1897H17.0605V15.695ZM23.0819 15.695H25.089V14.1897H23.0819V15.695ZM4.60697 17.7885C4.35332 17.9015 4.0912 18.2212 4.04341 18.4759C4.02221 18.589 4.01399 19.1083 4.02522 19.63C4.04742 20.6627 4.07659 20.7546 4.47745 21.0539C4.64003 21.1753 4.7348 21.1832 6.02137 21.1832C7.30793 21.1832 7.40271 21.1753 7.56528 21.0539C7.98189 20.7429 7.99713 20.6865 7.99713 19.4584C7.99713 18.4252 7.98709 18.3251 7.86779 18.1653C7.55305 17.7438 7.51811 17.7349 6.09538 17.7184C5.11183 17.707 4.75205 17.724 4.60697 17.7885ZM10.6283 17.7885C10.3747 17.9015 10.1126 18.2212 10.0648 18.4759C10.0436 18.589 10.0354 19.1083 10.0466 19.63C10.0688 20.6627 10.098 20.7546 10.4988 21.0539C10.6614 21.1753 10.7562 21.1832 12.0427 21.1832C13.3293 21.1832 13.4241 21.1753 13.5866 21.0539C14.0033 20.7429 14.0185 20.6865 14.0185 19.4584C14.0185 18.4252 14.0085 18.3251 13.8892 18.1653C13.5744 17.7438 13.5395 17.7349 12.1167 17.7184C11.1332 17.707 10.7734 17.724 10.6283 17.7885ZM16.6497 17.7904C16.397 17.9005 16.1341 18.2202 16.0861 18.4759C16.0649 18.589 16.0567 19.1083 16.068 19.63C16.086 20.4716 16.103 20.5982 16.2177 20.7516C16.4236 21.027 16.6485 21.1633 16.9545 21.1977C17.2002 21.2254 17.2613 21.2077 17.4007 21.0683C17.6121 20.8569 17.6153 20.5719 17.4083 20.365C17.3237 20.2803 17.2108 20.211 17.1574 20.211C17.0754 20.211 17.0605 20.0954 17.0605 19.4584V18.7057H18.161C19.2459 18.7057 19.2637 18.7035 19.4155 18.5517C19.5126 18.4547 19.5694 18.3261 19.5694 18.2039C19.5694 18.0817 19.5126 17.9531 19.4155 17.8561C19.2625 17.7031 19.2541 17.7021 18.0512 17.7046C17.1876 17.7063 16.7863 17.7309 16.6497 17.7904ZM22.7683 17.7398C21.5968 17.9551 20.777 18.2658 19.9793 18.7965C18.6176 19.7025 17.6383 21.1003 17.2305 22.7199C17.031 23.5119 17.0361 24.9757 17.2412 25.7578C17.8757 28.1786 19.6309 29.9333 22.0532 30.5683C22.8331 30.7728 24.298 30.7777 25.089 30.5785C27.5003 29.9712 29.3296 28.1419 29.9369 25.7306C30.1291 24.9676 30.1291 23.483 29.9369 22.7199C29.3343 20.3269 27.4871 18.4714 25.1204 17.8814C24.6337 17.7601 23.1453 17.6704 22.7683 17.7398ZM5.01781 20.211H7.02493V18.7057H5.01781V20.211ZM11.0392 20.211H13.0463V18.7057H11.0392V20.211ZM22.6643 18.7985C20.8718 19.1237 19.3997 20.2352 18.6333 21.8418C17.708 23.7815 17.9567 25.9782 19.2927 27.6678C19.9828 28.5405 21.1034 29.2638 22.2351 29.5669C22.9486 29.758 24.2219 29.7575 24.9322 29.5659C26.5204 29.1375 27.8272 28.0709 28.5169 26.6401C28.9399 25.7625 29.0597 25.2296 29.0597 24.2253C29.0597 23.22 28.9396 22.6864 28.5161 21.8105C27.4586 19.6236 25.0238 18.3703 22.6643 18.7985ZM24.6058 23.9881L22.5814 26.0089L21.6197 25.0544C20.9838 24.4232 20.6127 24.0998 20.5243 24.0998C20.1718 24.0998 19.8881 24.4268 19.9675 24.7415C19.9872 24.8198 20.5355 25.4131 21.1857 26.0599C22.2587 27.1271 22.388 27.236 22.5829 27.236C22.7818 27.236 22.9669 27.0668 25.0724 24.9613C27.5723 22.4614 27.5306 22.5175 27.1637 22.1506C26.8012 21.7881 26.8314 21.7664 24.6058 23.9881ZM4.60697 22.3045C4.35332 22.4175 4.0912 22.7372 4.04341 22.9919C4.02221 23.105 4.01399 23.6243 4.02522 24.1461C4.04742 25.1787 4.07659 25.2707 4.47745 25.5699C4.64003 25.6913 4.7348 25.6993 6.02137 25.6993C7.30793 25.6993 7.40271 25.6913 7.56528 25.5699C7.98189 25.2589 7.99713 25.2026 7.99713 23.9744C7.99713 22.9412 7.98709 22.8412 7.86779 22.6814C7.55305 22.2598 7.51811 22.251 6.09538 22.2345C5.11183 22.223 4.75205 22.24 4.60697 22.3045ZM10.6283 22.3045C10.3747 22.4175 10.1126 22.7372 10.0648 22.9919C10.0436 23.105 10.0354 23.6243 10.0466 24.1461C10.0688 25.1787 10.098 25.2707 10.4988 25.5699C10.6614 25.6913 10.7562 25.6993 12.0427 25.6993C13.3293 25.6993 13.4241 25.6913 13.5866 25.5699C14.0033 25.2589 14.0185 25.2026 14.0185 23.9744C14.0185 22.9412 14.0085 22.8412 13.8892 22.6814C13.5744 22.2598 13.5395 22.251 12.1167 22.2345C11.1332 22.223 10.7734 22.24 10.6283 22.3045ZM5.01781 24.7271H7.02493V23.2217H5.01781V24.7271ZM11.0392 24.7271H13.0463V23.2217H11.0392V24.7271Z" fill="url(#paint0_linear_804_5955)"/>
<path d="M30.1068 18.787H29.1033V23.4284H30.1068V18.787Z" fill="url(#paint1_linear_804_5955)"/>
<path d="M14.5516 27.7563V28.7599H19.1931V27.7563H14.5516Z" fill="url(#paint2_linear_804_5955)"/>
<path d="M16.9978 21.2018V20.2296H18.9422V21.2332L16.9978 21.2018Z" fill="url(#paint3_linear_804_5955)"/>
<defs>
<linearGradient id="paint0_linear_804_5955" x1="0" y1="0.660156" x2="30.6657" y2="31.5194" gradientUnits="userSpaceOnUse">
<stop stop-color="#0ABD92"/>
<stop offset="1" stop-color="#009DB8"/>
</linearGradient>
<linearGradient id="paint1_linear_804_5955" x1="0" y1="0.660156" x2="30.6657" y2="31.5194" gradientUnits="userSpaceOnUse">
<stop stop-color="#0ABD92"/>
<stop offset="1" stop-color="#009DB8"/>
</linearGradient>
<linearGradient id="paint2_linear_804_5955" x1="0" y1="0.660156" x2="30.6657" y2="31.5194" gradientUnits="userSpaceOnUse">
<stop stop-color="#0ABD92"/>
<stop offset="1" stop-color="#009DB8"/>
</linearGradient>
<linearGradient id="paint3_linear_804_5955" x1="0" y1="0.660156" x2="30.6657" y2="31.5194" gradientUnits="userSpaceOnUse">
<stop stop-color="#0ABD92"/>
<stop offset="1" stop-color="#009DB8"/>
</linearGradient>
</defs>
</svg>
