<svg width="52" height="50" viewBox="0 0 52 50" fill="none" xmlns="http://www.w3.org/2000/svg">
<path fill-rule="evenodd" clip-rule="evenodd" d="M22.5354 0.6382C22.4788 0.85606 22.3325 1.43815 22.2105 1.93184C22.0884 2.42554 21.9422 3.00773 21.8855 3.22548L21.7825 3.6215H20.5269H19.2714V4.56126V5.50092L18.5104 5.56861C10.6408 6.26887 6.11916 7.19258 2.94473 8.74844C1.65384 9.38122 0.626942 10.2177 0.24549 10.9474C-0.0985935 11.6056 -0.0787546 12.6047 0.291046 13.2375C1.24866 14.8762 4.07628 16.2128 8.73327 17.2282C9.53543 17.4031 10.3098 17.5614 10.4541 17.5801C10.5984 17.5987 10.6955 17.6615 10.6699 17.7196C10.6442 17.7776 10.0301 18.2579 9.30534 18.7868C8.57624 19.3187 7.99262 19.8184 7.99923 19.9053C8.01697 20.1418 8.80622 21.1621 8.93334 21.113C9.15828 21.0261 13.452 17.8594 13.6294 17.6495C13.993 17.2193 13.8737 16.933 12.5272 15.0019C11.82 13.9875 11.1203 13.0001 10.9724 12.8075L10.7034 12.4574L10.0462 12.9065C9.64984 13.1772 9.40989 13.4103 9.44169 13.4937C9.47077 13.5698 9.85726 14.1387 10.3005 14.7579C10.7439 15.3772 11.0848 15.9058 11.0581 15.9327C10.9778 16.0135 8.0303 15.3658 6.67443 14.9693C3.91715 14.1633 2.07675 13.2002 1.74254 12.3885C1.26462 11.2276 3.59018 9.90944 8.07712 8.79818C10.8794 8.10405 13.9929 7.64615 18.5104 7.26366L19.2714 7.19924V9.63445V12.0698H25.9893H32.7072V9.63445V7.19924L33.4682 7.26608C33.8868 7.30294 34.9378 7.40305 35.8038 7.4887C44.2035 8.31948 50.6101 10.4149 50.2948 12.2282C50.1086 13.2994 47.356 14.594 43.3614 15.4892C37.922 16.7081 31.3822 17.247 24.0474 17.0806C21.969 17.0335 19.8671 16.9916 19.3763 16.9876L18.4841 16.9803L18.4316 17.7562C18.4028 18.1829 18.4028 18.5464 18.4316 18.564C18.6492 18.6964 24.8861 18.8494 27.7737 18.7932C42.7832 18.5012 52.5122 15.6754 51.9791 11.7626C51.5667 8.73513 45.0439 6.54798 33.5207 5.57316L32.7072 5.5043V4.56295V3.6215H31.4517H30.1961L30.0931 3.22548C30.0364 3.00773 29.8902 2.42554 29.7681 1.93184C29.646 1.43815 29.4998 0.85606 29.4431 0.6382L29.3402 0.242188H25.9893H22.6384L22.5354 0.6382ZM26.7644 4.59474C27.6665 4.86287 28.5085 6.0245 28.5085 7.00081C28.5085 8.30934 27.2899 9.53529 25.9893 9.53529C25.0189 9.53529 23.8642 8.68814 23.5977 7.78058C23.3071 6.79076 23.512 6.00159 24.2538 5.2536C24.9901 4.51121 25.7832 4.30306 26.7644 4.59474ZM23.4701 20.5798C23.2103 20.602 22.4073 20.6708 21.6856 20.7325C19.2109 20.9446 15.025 21.7011 14.3127 22.065C14.1545 22.1459 13.9376 22.3892 13.8307 22.6059C13.4561 23.3647 11.2688 28.9764 11.3254 29.0333C11.3568 29.0649 11.7562 29.1165 12.2128 29.1481L13.0431 29.2053L14.1316 26.279C15.0702 23.7559 15.2587 23.3326 15.5001 23.207C16.3329 22.7737 22.3485 22.2075 26.0943 22.2098C29.5969 22.212 35.5324 22.7642 36.4184 23.1704C36.7496 23.3222 36.7678 23.3624 37.9614 26.5763L38.9365 29.2026L39.7583 29.1547C40.2103 29.1284 40.6094 29.0773 40.6452 29.0413C40.7074 28.9787 38.5526 23.4257 38.1479 22.6059C38.041 22.3892 37.8241 22.1448 37.6659 22.0625C37.0346 21.7343 33.5103 21.0696 30.8259 20.7726C29.4786 20.6234 24.4907 20.4928 23.4701 20.5798ZM23.0502 23.9589C22.7904 23.9808 21.9166 24.0503 21.1083 24.1133C19.4383 24.2436 16.6507 24.5987 16.5541 24.6934C16.5187 24.7281 16.1044 25.7869 15.6335 27.0462L14.7773 29.3359L15.4761 29.4074C16.9653 29.5598 20.5287 29.7147 24.007 29.7783L27.6404 29.8446L27.7149 29.2458C27.8154 28.4358 28.3936 27.3045 28.9894 26.7521C30.6745 25.1893 33.2102 25.2382 34.8268 26.8645C35.3835 27.4246 35.8442 28.3031 35.9338 28.976C35.9645 29.2058 36.0197 29.4126 36.0565 29.4355C36.0933 29.4584 36.3627 29.4453 36.6552 29.4065L37.187 29.3359L36.3379 27.0461C35.8709 25.7868 35.4624 24.7306 35.4301 24.699C35.3424 24.6134 33.3958 24.341 31.5526 24.1565C30.0363 24.0049 24.1353 23.8677 23.0502 23.9589ZM6.09323 27.5359C5.93074 27.6993 5.83554 27.9158 5.83554 28.1215C5.83554 28.3272 5.93074 28.5437 6.09323 28.7071C6.34137 28.9568 6.40299 28.9663 7.77271 28.9663H9.1945V28.3808C9.1945 27.8997 9.14841 27.7487 8.9368 27.5359C8.69422 27.2919 8.61109 27.2767 7.51502 27.2767C6.41894 27.2767 6.33581 27.2919 6.09323 27.5359ZM30.9866 27.4324C30.2028 27.7134 29.3483 28.8404 29.3483 29.5931C29.3483 29.773 30.2163 29.7788 33.0746 29.618L34.3342 29.5471L34.2971 29.2838C34.1919 28.5389 33.3812 27.6296 32.6172 27.3993C32.0849 27.2388 31.493 27.2508 30.9866 27.4324ZM43.0418 27.5359C42.8302 27.7487 42.7841 27.8997 42.7841 28.3808V28.9663H44.2059C45.5756 28.9663 45.6372 28.9568 45.8854 28.7071C46.0479 28.5437 46.1431 28.3272 46.1431 28.1215C46.1431 27.9158 46.0479 27.6993 45.8854 27.5359C45.6428 27.2919 45.5597 27.2767 44.4636 27.2767C43.3675 27.2767 43.2844 27.2919 43.0418 27.5359ZM9.24614 32.5346C8.58264 33.5431 8.03985 34.4046 8.03985 34.4489C8.03985 34.4934 9.25622 34.7329 10.7428 34.9812C12.2293 35.2295 13.6912 35.5246 13.9912 35.6371C14.7336 35.9153 15.4937 36.7519 15.7506 37.5737C16.2095 39.0415 15.539 40.5734 14.0988 41.3477C13.6723 41.577 13.5395 41.5872 10.5738 41.6183L7.49203 41.6506L7.53296 42.3805C7.57684 43.1605 7.7407 43.4899 8.2902 43.9027L8.58012 44.1204H25.9893H43.3985L43.6884 43.9027C44.2379 43.4899 44.4018 43.1605 44.4456 42.3805L44.4866 41.6506L41.4048 41.6183L38.323 41.5859L37.7647 41.2748C35.9783 40.2792 35.5203 38.0058 36.8092 36.5325C37.5748 35.6577 37.7972 35.5781 40.9665 35.044C42.5359 34.7797 43.8467 34.5633 43.8793 34.5633C44.0366 34.5633 43.8504 34.2338 42.7318 32.5336L41.525 30.6991L40.1339 30.8284C34.6722 31.3362 29.2726 31.5483 23.9424 31.4644C19.2072 31.3898 16.4255 31.2388 11.3192 30.779L10.4524 30.7009L9.24614 32.5346ZM7.51502 38.0556V39.9585L10.4525 39.9274L13.39 39.8963L13.7704 39.5135C14.4394 38.84 14.3258 37.75 13.5388 37.2905C13.3633 37.188 12.1533 36.9325 10.664 36.6835C9.2496 36.447 7.96249 36.2307 7.80368 36.203L7.51502 36.1526V38.0556ZM41.4668 36.6595C39.7139 36.9627 38.5249 37.2183 38.3597 37.3275C37.7248 37.747 37.5747 38.8463 38.0782 39.3886C38.5832 39.9326 38.6887 39.9491 41.6767 39.9491H44.4636V38.0482C44.4636 37.0027 44.4282 36.1521 44.3849 36.1579C44.3415 36.1637 43.0285 36.3895 41.4668 36.6595ZM34.129 37.6739C34.3719 37.9181 34.3867 38.0009 34.3867 39.1137C34.3867 40.6312 34.2663 41.0278 33.603 41.6951C33.2701 42.03 32.9147 42.2743 32.6426 42.3552C32.0257 42.5385 19.9529 42.5385 19.336 42.3552C18.7594 42.1838 17.8899 41.3089 17.7195 40.7289C17.6493 40.4898 17.5919 39.7629 17.5919 39.1137C17.5919 38.0009 17.6067 37.9181 17.8496 37.6739L18.1072 37.4146H25.9893H33.8714L34.129 37.6739ZM19.2714 39.6898C19.2714 40.1709 19.3175 40.3219 19.5291 40.5347L19.7867 40.7939H25.9893H32.1919L32.4495 40.5347C32.6611 40.3219 32.7072 40.1709 32.7072 39.6898V39.1043H25.9893H19.2714V39.6898ZM7.51502 47.0708C7.51502 48.685 7.5211 48.7298 7.77271 48.9829C8.0282 49.2401 8.04657 49.2422 10.0342 49.2422C12.0219 49.2422 12.0403 49.2401 12.2958 48.9829C12.544 48.7333 12.5535 48.6713 12.5535 47.2933V45.8629H10.6807C8.90772 45.8629 8.44188 45.8053 7.69871 45.4946C7.52835 45.4235 7.51502 45.5377 7.51502 47.0708ZM43.7813 45.6612C43.3475 45.8202 42.9242 45.8544 41.3408 45.8582L39.4251 45.8629V47.2933C39.4251 48.6713 39.4346 48.7333 39.6828 48.9829C39.9383 49.2401 39.9567 49.2422 41.9444 49.2422C43.932 49.2422 43.9504 49.2401 44.2059 48.9829C44.4574 48.73 44.4636 48.6843 44.4636 47.0821C44.4636 46.1792 44.4282 45.4468 44.3849 45.4546C44.3415 45.4623 44.07 45.5554 43.7813 45.6612Z" fill="url(#paint0_linear_677_2910)"/>
<defs>
<linearGradient id="paint0_linear_677_2910" x1="0" y1="0.242188" x2="49.8774" y2="53.4328" gradientUnits="userSpaceOnUse">
<stop stop-color="#0ABD92"/>
<stop offset="1" stop-color="#009DB8"/>
</linearGradient>
</defs>
</svg>
