<svg width="38" height="39" viewBox="0 0 38 39" fill="none" xmlns="http://www.w3.org/2000/svg">
<path d="M4.94709 7.74008L4.94708 7.74009C1.19842 12.1124 -0.315507 18.1415 0.925331 23.7524L0.437177 23.8603L0.925332 23.7524C1.08952 24.4948 1.30949 25.2429 1.57841 25.9828L1.32365 25.0014L1.2435 24.6926L1.24346 24.6925C1.19945 24.5227 1.1244 24.2338 1.07661 24.0507L1.07656 24.0505C0.667588 22.4808 0.486849 19.7041 0.671578 17.9198L0.671579 17.9198C1.03348 14.4254 2.46596 10.9289 4.64669 8.22168L4.64669 8.22168C4.81715 8.01008 4.96542 7.83655 5.1162 7.71657C5.29898 7.57114 5.47608 7.50982 5.6713 7.48695L5.67142 7.48694C6.2907 7.41454 7.80514 7.42863 8.83373 7.50862M4.94709 7.74008L25.8687 13.5026M4.94709 7.74008C5.09181 7.57128 5.23962 7.40525 5.3904 7.24205L6.61425 7.28612L7.12451 7.3045L7.12454 7.3045C12.1258 7.48431 16.3965 8.57215 20.7213 10.7647C22.3323 11.5814 23.6798 12.3842 25.0054 13.3159L25.2929 12.9068M4.94709 7.74008L20.9474 10.3187M8.83373 7.50862L8.79497 8.00711M8.83373 7.50862L8.79497 8.00711M8.83373 7.50862C10.3587 7.62714 12.2857 7.93802 13.7967 8.30923L13.6775 8.79479L13.7967 8.30923C14.5411 8.4921 15.5392 8.78822 16.3383 9.049C16.7376 9.17932 17.0948 9.30325 17.3498 9.40188C17.4744 9.45008 17.5883 9.49749 17.673 9.54021C17.7091 9.5584 17.7714 9.59109 17.8281 9.63664L17.8282 9.6367C17.8488 9.6532 17.9241 9.71371 17.9761 9.81835C18.0056 9.87781 18.0406 9.97781 18.0263 10.103C18.0111 10.2373 17.9457 10.343 17.8715 10.4136L17.8709 10.4141C17.836 10.4472 17.8003 10.4709 17.7935 10.4754L17.7926 10.4759C17.7786 10.4853 17.7642 10.4943 17.7515 10.5021C17.7255 10.518 17.6933 10.5369 17.6575 10.5575C17.5852 10.599 17.4873 10.6537 17.3717 10.7173C17.1401 10.8447 16.8305 11.0116 16.4985 11.1874L16.4985 11.1874C10.1548 14.5469 5.37393 19.072 2.74749 24.1474L2.74749 24.1475L2.25167 25.1055L1.67001 26.2295C2.42997 28.2341 3.54553 30.1666 4.87932 31.7491C8.34157 35.8568 13.584 38.2852 18.9963 38.2852C23.171 38.2852 27.3325 36.8163 30.6156 34.1822C34.3161 31.213 36.8188 26.6632 37.3784 21.879C38.0845 15.8409 35.6829 9.72346 31.0344 5.72964C28.8117 3.81991 25.8558 2.34554 22.9652 1.70592L23.0732 1.21773L22.9651 1.70592C21.0878 1.29049 18.6835 1.17124 16.8001 1.39945C12.5781 1.91112 8.57425 3.92348 5.63255 6.98506L6.30676 6.4069L6.97403 5.83469L6.97404 5.83467C9.90502 3.32143 13.1961 1.91577 17.2494 1.43368L17.2494 1.43368C17.6024 1.39172 18.3892 1.38455 19.1607 1.3976C19.9395 1.41077 20.7661 1.44579 21.211 1.4987L21.211 1.4987C21.2788 1.50678 21.345 1.51421 21.4087 1.52138C21.5744 1.54002 21.7238 1.55683 21.8443 1.57815C22.0288 1.61083 22.2135 1.66371 22.3931 1.78837C22.5615 1.90525 22.6897 2.06118 22.8099 2.2264C22.8948 2.34312 22.9943 2.49132 23.1122 2.66713C23.16 2.73838 23.2108 2.81416 23.265 2.89422L22.8508 3.17432L23.265 2.89422C24.2037 4.28228 25.186 6.49214 25.8352 8.64443L25.3566 8.78882L25.8353 8.64443C26.0599 9.38915 26.3358 10.5448 26.5441 11.5372C26.6485 12.0346 26.7375 12.498 26.7952 12.8546C26.8239 13.0319 26.846 13.1897 26.8581 13.3148C26.864 13.3767 26.8683 13.4391 26.8686 13.496L26.8687 13.4984C26.8689 13.534 26.8696 13.6425 26.8289 13.7503M8.79497 8.00711C7.77806 7.92804 6.30113 7.91673 5.72948 7.98355L8.79497 8.00711ZM26.8289 13.7503L26.3611 13.5739L26.8291 13.7497C26.829 13.7499 26.829 13.7501 26.8289 13.7503ZM26.8289 13.7503C26.7678 13.9122 26.6413 14.0052 26.5303 14.0458C26.4361 14.0803 26.3552 14.0781 26.3192 14.0756C26.2452 14.0706 26.1872 14.0503 26.1679 14.0435C26.1176 14.0257 26.0698 14.0018 26.037 13.9845C25.9642 13.9464 25.8723 13.8918 25.7722 13.8293C25.5687 13.7022 25.2972 13.521 25.0054 13.3159L25.2929 12.9068M25.2929 12.9068C25.4949 13.0488 25.6854 13.178 25.8481 13.2842C25.8543 13.3321 25.8592 13.3743 25.8626 13.4105C25.8672 13.4582 25.8686 13.4872 25.8687 13.5015C25.8687 13.5019 25.8687 13.5022 25.8687 13.5026M25.2929 12.9068C23.9457 11.96 22.5774 11.1451 20.9474 10.3187M25.8687 13.5026C25.8682 13.5091 25.8682 13.5129 25.8683 13.5132C25.8684 13.5136 25.8687 13.5103 25.8687 13.5026ZM20.9474 10.3187C16.6213 8.12556 12.3433 7.02034 7.36869 6.81359L7.13499 7.014L7.13497 7.01401L6.95773 7.166L6.63225 6.78645L6.65024 6.28677L7.16047 6.30515C7.16048 6.30515 7.16049 6.30515 7.1605 6.30515C7.17106 6.30553 7.18161 6.30591 7.19216 6.3063L7.29951 6.21424L20.9474 10.3187ZM17.0128 10.3438C16.8011 10.4593 16.5409 10.5992 16.2645 10.7456L17.0128 10.3438ZM17.0128 10.3438C17.1175 10.3847 17.1863 10.4147 17.2228 10.4331C17.2316 10.4376 17.2355 10.4398 17.2355 10.4399C17.2356 10.44 17.2216 10.4321 17.202 10.4163L17.2012 10.4157C17.1922 10.4085 17.1423 10.3689 17.0989 10.2967M17.0128 10.3438L17.0989 10.2967M17.0989 10.2967C17.3456 10.1614 17.5094 10.0679 17.5271 10.0511C17.536 10.0426 17.5209 10.0274 17.4849 10.0065L17.1833 9.68806C17.2039 9.66852 17.2212 9.65577 17.2251 9.6529L17.2253 9.65277C17.2315 9.64816 17.2358 9.64531 17.2366 9.64479C17.2382 9.6437 17.2363 9.64501 17.2289 9.64952C17.2147 9.65821 17.1919 9.67173 17.1593 9.69045C17.1116 9.71786 17.0489 9.7531 16.9736 9.79485L17.0989 10.2967ZM24.9388 2.35199L24.9388 2.352C29.4551 3.89581 33.2686 7.21361 35.4048 11.4594L35.4048 11.4595C35.6798 12.0061 35.9954 12.6776 36.1049 12.9545L36.1049 12.9545L36.2878 13.4171L36.3723 13.6307L36.2652 13.834L36.075 14.1951C36.075 14.1951 36.075 14.1952 36.075 14.1952C35.7765 14.762 34.4098 16.7994 33.8386 17.5364L33.4434 17.2302L33.8386 17.5365C32.8778 18.7763 31.7655 20.0204 30.5601 21.204C30.0427 21.712 29.4097 22.3031 28.9017 22.7607C28.648 22.9891 28.422 23.1875 28.2553 23.3268C28.1734 23.3953 28.0987 23.4555 28.0394 23.4988C28.0128 23.5182 27.9733 23.5461 27.9308 23.5693C27.9149 23.5781 27.8646 23.6054 27.7974 23.6223C27.7659 23.6302 27.6885 23.6471 27.5911 23.6313C27.4758 23.6126 27.3222 23.5432 27.2309 23.3779M24.9388 2.35199L27.6686 23.1362M24.9388 2.35199C24.6816 2.26411 24.4438 2.18401 24.2676 2.12568C24.1797 2.0966 24.1058 2.07249 24.052 2.0554C24.0255 2.04699 24.0013 2.03949 23.982 2.03378C23.9728 2.03107 23.9609 2.02763 23.9487 2.02448C23.9429 2.02299 23.9326 2.02038 23.9201 2.01778C23.9139 2.0165 23.9035 2.01442 23.8905 2.01248C23.8816 2.01115 23.8526 2.00687 23.8154 2.00687C23.764 2.00687 23.6345 2.01311 23.5067 2.10399C23.354 2.2126 23.2995 2.37038 23.2903 2.48819C23.2826 2.58724 23.3045 2.66697 23.3159 2.70381C23.3293 2.74733 23.3461 2.78585 23.36 2.81519C23.4101 2.92101 23.503 3.07162 23.6247 3.26377C25.5129 6.2437 26.7806 10.6112 27.2154 15.7801L27.2154 15.7802C27.3094 16.8966 27.3139 21.1156 27.2221 22.2954M24.9388 2.35199L27.7206 22.3343M27.2309 23.3779L27.6686 23.1362M27.2309 23.3779C27.2311 23.3782 27.2313 23.3786 27.2315 23.3789L27.6686 23.1362M27.2309 23.3779C27.1943 23.3117 27.182 23.2526 27.1792 23.239L27.179 23.2381C27.1769 23.2282 27.1753 23.2191 27.1741 23.2112C27.1726 23.2013 27.1717 23.1933 27.1711 23.188C27.169 23.1686 27.1684 23.1528 27.1682 23.1459C27.1677 23.1302 27.1679 23.116 27.1681 23.1074C27.1684 23.0885 27.1693 23.0662 27.1704 23.0439C27.1726 22.9978 27.1763 22.9351 27.1811 22.8614C27.1907 22.7133 27.2051 22.5129 27.2221 22.2954M27.6686 23.1362C27.6647 23.1293 27.677 22.9237 27.6977 22.6385C27.6286 22.635 27.5762 22.6468 27.5539 22.6524C27.4963 22.6668 27.457 22.6886 27.4515 22.6917L27.4511 22.6919C27.442 22.6969 27.4368 22.7003 27.4369 22.7002C27.437 22.7002 27.441 22.6975 27.4498 22.6911C27.4818 22.6678 27.5362 22.6246 27.614 22.5595C27.6436 22.5348 27.6755 22.5079 27.7095 22.4788C27.713 22.4318 27.7167 22.3835 27.7206 22.3343M27.2221 22.2954C27.2221 22.2954 27.2221 22.2955 27.2221 22.2955L27.7206 22.3343M27.2221 22.2954L27.7206 22.3343M36.9008 15.4468L36.9009 15.447C37.2869 17.0413 37.4282 18.552 37.3713 20.4219C37.2874 23.1831 36.7378 25.3791 35.5026 27.8943C34.8767 29.169 34.5275 29.7483 33.739 30.8173L33.2612 31.4651L33.1113 31.6683H32.8588H32.4558C31.8273 31.6683 29.6464 31.4486 28.4261 31.2676C27.1463 31.0777 25.708 30.7915 24.41 30.4686L24.4099 30.4686C23.8215 30.3223 22.8596 30.0447 22.0492 29.7971C21.6432 29.673 21.2704 29.555 20.9973 29.4632C20.8619 29.4176 20.7452 29.3766 20.6597 29.3435C20.6188 29.3276 20.5741 29.3094 20.5352 29.2905C20.5183 29.2822 20.4845 29.2653 20.4487 29.2407C20.4324 29.2294 20.3955 29.2031 20.3574 29.1615L20.3572 29.1612C20.3351 29.1371 20.2197 29.011 20.2246 28.8083C20.2246 28.8081 20.2246 28.8079 20.2246 28.8077L20.7245 28.8204L36.9008 15.4468ZM36.9008 15.4468C36.8732 15.3331 36.8417 15.2207 36.8119 15.1291C36.7973 15.084 36.7811 15.0379 36.7643 14.9968C36.756 14.9765 36.7451 14.9513 36.7317 14.9254L36.7316 14.9251C36.723 14.9085 36.6945 14.853 36.6443 14.7982C36.4346 14.5691 36.1651 14.636 36.0841 14.6665C35.9975 14.6991 35.9375 14.748 35.914 14.7677C35.8574 14.8153 35.8085 14.8721 35.7736 14.9153C35.6975 15.0095 35.6119 15.1351 35.5304 15.27C35.1115 15.9637 34.2451 17.1747 33.4772 18.1351L33.8677 18.4473L36.9008 15.4468ZM12.6664 25.5586C13.8813 26.378 16.1565 27.6046 17.845 28.3472L17.6438 28.8049M12.6664 25.5586L17.6438 28.8049M12.6664 25.5586C12.5401 25.4734 12.4196 25.3948 12.3265 25.3365C12.2806 25.3077 12.2376 25.2815 12.2023 25.2613C12.1855 25.2517 12.1642 25.2399 12.1423 25.2291C12.1321 25.2241 12.1138 25.2153 12.0916 25.2067C12.0805 25.2025 12.0619 25.1957 12.0385 25.1893C12.0211 25.1846 11.971 25.1716 11.9056 25.1716C11.7124 25.1716 11.577 25.2765 11.5065 25.3674C11.4465 25.4448 11.4239 25.5203 11.4155 25.552C11.3974 25.6197 11.3964 25.6791 11.3962 25.7012C11.3956 25.7574 11.4014 25.8172 11.407 25.8656C11.4193 25.9696 11.4422 26.1092 11.4716 26.269C11.531 26.5923 11.6236 27.0354 11.7328 27.5252C11.9509 28.5044 12.2402 29.6922 12.4743 30.5192L12.9554 30.383L12.4743 30.5192C13.09 32.6943 14.0757 35.3269 14.8767 36.9245L15.3236 36.7004L12.6664 25.5586ZM17.6438 28.8049L17.8451 28.3472C21.6499 30.0207 26.5336 31.266 30.708 31.6267C30.708 31.6267 30.708 31.6267 30.708 31.6267L30.6649 32.1249L17.6438 28.8049ZM25.8932 13.3974C25.9019 13.3745 25.9119 13.353 25.9229 13.3328L25.893 13.398L25.8932 13.3974ZM17.1827 9.68861L17.4846 10.0063C17.4162 9.96668 17.2732 9.90659 17.0777 9.8333C17.1055 9.77501 17.1429 9.7264 17.1827 9.68861ZM28.0656 22.8321C28.0802 22.8511 28.0938 22.8719 28.1063 22.8945C28.1426 22.9603 28.1548 23.0188 28.1575 23.0319L28.1577 23.0329C28.1623 23.0547 28.1644 23.0721 28.1653 23.0806C28.1672 23.098 28.1676 23.1112 28.1677 23.1149C28.168 23.1241 28.1678 23.1292 28.1679 23.1262C28.168 23.1219 28.1683 23.1111 28.1692 23.0916C28.171 23.0539 28.1743 22.9978 28.179 22.9261C28.1828 22.8664 28.1876 22.7974 28.193 22.7216C28.1483 22.7607 28.1057 22.7976 28.0656 22.8321ZM27.0697 15.1579L27.0502 14.9388L26.8755 14.8051L26.169 14.2644C24.5348 13.0139 22.7351 11.8955 20.7231 10.8781C20.3248 10.6767 19.9564 10.4935 19.6834 10.3604C19.5472 10.294 19.4328 10.2391 19.3495 10.2004C19.3085 10.1813 19.2715 10.1645 19.2419 10.1518C19.2278 10.1458 19.2098 10.1383 19.1914 10.1315C19.1828 10.1284 19.1671 10.1227 19.148 10.1173C19.1385 10.1145 19.1223 10.1102 19.102 10.1063C19.0879 10.1035 19.0425 10.095 18.9841 10.0976L18.9825 10.0976C18.9162 10.1007 18.8636 10.1174 18.8577 10.1192L18.8572 10.1194C18.8408 10.1243 18.8272 10.1293 18.8194 10.1322C18.8029 10.1384 18.7869 10.145 18.7745 10.1504C18.7483 10.1616 18.716 10.1762 18.6806 10.1926C18.6089 10.2258 18.5109 10.2725 18.3949 10.3287C18.1623 10.4415 17.8496 10.596 17.5125 10.7654C15.467 11.7928 13.7833 12.7999 12.0252 14.0486L11.0349 14.7518L10.8505 14.8827L10.8271 15.1076L10.7772 15.5851C10.6286 17.0077 10.7497 20.7767 11.0091 23.0654L11.0091 23.0655L11.139 24.2114L11.1653 24.4428L11.3593 24.5716L12.4293 25.2819L12.7058 24.8653L12.4293 25.2819C14.268 26.5023 16.15 27.521 18.126 28.3649C18.126 28.3649 18.126 28.3649 18.126 28.3649L18.9829 28.7309L19.1783 28.8143L19.3741 28.7316L19.7731 28.5629C19.7731 28.5628 19.7731 28.5628 19.7732 28.5628C21.4579 27.8508 24.6898 26.0088 26.1527 24.9268L26.8057 24.4438L26.9905 24.3071L27.007 24.0779L27.1142 22.596C27.2271 21.0344 27.2368 17.0377 27.1284 15.8186C27.1284 15.8186 27.1284 15.8186 27.1284 15.8186L27.0697 15.1579ZM10.8151 22.0507L10.8151 22.0507C10.746 21.3344 10.6654 19.7139 10.6373 18.4554L10.5862 16.1581L10.5621 15.0765L9.75393 15.7957L9.12592 16.3546L9.1259 16.3546C5.99597 19.1401 3.36213 22.6593 2.09813 25.783C2.09813 25.783 2.09813 25.783 2.09812 25.7831L1.89772 26.2783L1.81846 26.4741L1.90366 26.6675L2.16985 27.2715C3.90139 31.2015 7.04448 34.439 10.9674 36.3392C11.4427 36.5695 12.1551 36.8672 12.7737 37.1061C13.084 37.226 13.3766 37.3333 13.6091 37.4114C13.7248 37.4503 13.8307 37.4836 13.9188 37.5078C13.9842 37.5257 14.1032 37.5576 14.2104 37.5576C14.3761 37.5576 14.5209 37.4773 14.6109 37.3592C14.6829 37.2646 14.7019 37.1704 14.7082 37.1318C14.721 37.052 14.7118 36.986 14.7092 36.9675L14.7091 36.9669C14.7018 36.9152 14.6881 36.8659 14.679 36.8347C14.6582 36.7637 14.6263 36.6735 14.5896 36.5758C14.5145 36.3766 14.4042 36.108 14.2766 35.8166L13.8186 36.0172L14.2766 35.8166C12.471 31.6937 11.295 27.0238 10.8151 22.0507Z" stroke="url(#paint0_linear_677_2171)"/>
<defs>
<linearGradient id="paint0_linear_677_2171" x1="0" y1="0.785156" x2="38.76" y2="39.7352" gradientUnits="userSpaceOnUse">
<stop stop-color="#0ABD92"/>
<stop offset="1" stop-color="#009DB8"/>
</linearGradient>
</defs>
</svg>
