<svg width="37" height="38" viewBox="0 0 37 38" fill="none" xmlns="http://www.w3.org/2000/svg">
<path fill-rule="evenodd" clip-rule="evenodd" d="M2.61721 0.904212C1.3549 1.24357 0.327234 2.31288 0.0687069 3.5561C0.0133393 3.8222 -0.00460996 6.42799 0.0090691 12.209L0.028683 20.4811L0.19978 20.8062C0.293941 20.9851 0.450273 21.237 0.547257 21.3662L0.723637 21.601L0.547257 21.8358C0.450273 21.9649 0.293941 22.2169 0.19978 22.3958L0.028683 22.7209L0.00718733 26.0709C-0.0164072 29.7512 -0.00403092 29.8974 0.397945 30.6996C0.807955 31.5178 1.83092 32.3286 2.64623 32.4817L2.87545 32.5247L2.89955 33.3436C2.91996 34.0345 2.94703 34.1937 3.07296 34.3618C3.35675 34.7407 3.58148 34.8526 4.12024 34.883L4.62456 34.9115V36.1709C4.62456 37.4119 4.62716 37.4331 4.80224 37.6078C5.03725 37.8424 5.36989 37.8424 5.60489 37.6078C5.77997 37.4331 5.78257 37.4119 5.78257 36.1709V34.9115L6.28689 34.883C6.82566 34.8526 7.05038 34.7407 7.33417 34.3618C7.45909 34.1951 7.48739 34.0337 7.50787 33.3728L7.53241 32.5831H9.83563H12.1388L12.1634 33.3728C12.1839 34.0337 12.2122 34.1951 12.3371 34.3618C12.6209 34.7407 12.8456 34.8526 13.3844 34.883L13.8887 34.9115V36.1709C13.8887 37.4119 13.8913 37.4331 14.0664 37.6078C14.3014 37.8424 14.634 37.8424 14.869 37.6078C15.0441 37.4331 15.0467 37.4119 15.0467 36.1709V34.9115L15.551 34.883C16.0898 34.8526 16.3145 34.7407 16.5983 34.3618C16.7242 34.1937 16.7513 34.0345 16.7717 33.3436L16.7958 32.5247L17.025 32.4817C17.8496 32.3268 18.86 31.5243 19.2764 30.6936C19.6749 29.8982 19.6877 29.747 19.6641 26.0709L19.6426 22.7209L19.4715 22.3958C19.3773 22.2169 19.221 21.9649 19.124 21.8358L18.9476 21.601L19.124 21.3662C19.221 21.237 19.3773 20.9851 19.4715 20.8062L19.6426 20.4811L19.6628 14.8625L19.683 9.24382L19.5033 9.06435C19.2855 8.84695 18.9667 8.8299 18.7278 9.02295L18.5569 9.16102L18.5207 14.7256C18.4851 20.2043 18.4822 20.293 18.3353 20.4895C18.0957 20.8099 17.8567 20.95 17.4376 21.0161C16.9951 21.086 16.7837 21.275 16.7837 21.601C16.7837 21.927 16.9951 22.116 17.4376 22.1859C17.8568 22.252 18.0958 22.3922 18.3353 22.7126C18.4811 22.9076 18.4846 22.9909 18.4846 26.3207V29.7292L18.2895 30.0982C18.0007 30.6449 17.7825 30.8699 17.276 31.1441L16.8199 31.391H9.83563H2.85135L2.39531 31.1441C1.88875 30.8699 1.6706 30.6449 1.38175 30.0982L1.1867 29.7292V26.3207C1.1867 22.9909 1.19017 22.9076 1.33594 22.7126C1.5755 22.3922 1.81449 22.252 2.23362 22.1859C2.6762 22.116 2.88753 21.927 2.88753 21.601C2.88753 21.275 2.6762 21.086 2.23362 21.0161C1.81449 20.95 1.57557 20.8098 1.33594 20.4894C1.18721 20.2906 1.1867 20.2603 1.1867 11.9683V3.6467L1.3659 3.28545C1.46448 3.08676 1.67618 2.79335 1.83635 2.63346C1.99651 2.47357 2.29043 2.26224 2.48947 2.16383L2.85135 1.98494H9.83563H16.8199L17.1895 2.17965C17.738 2.46844 17.963 2.6862 18.2355 3.19145L18.481 3.6467L18.5189 4.97185C18.5558 6.25553 18.5623 6.30134 18.7278 6.43493C18.9658 6.62705 19.2855 6.61072 19.5011 6.39548C19.6752 6.22172 19.6788 6.1947 19.6788 5.03796C19.6788 4.21127 19.6455 3.73044 19.568 3.43299C19.2428 2.18681 18.2781 1.22696 17.0231 0.9006C16.4225 0.744466 3.19911 0.747717 2.61721 0.904212ZM3.06522 5.01622L2.88753 5.19352V10.0409V14.8883L3.06522 15.0656C3.30022 15.3002 3.63286 15.3002 3.86787 15.0656L4.04555 14.8883V10.0409V5.19352L3.86787 5.01622C3.7559 4.90437 3.60753 4.83884 3.46654 4.83884C3.32555 4.83884 3.17718 4.90437 3.06522 5.01622ZM18.6984 7.32824C18.3394 7.6866 18.5938 8.30687 19.0998 8.30687C19.3973 8.30687 19.6788 8.02589 19.6788 7.72887C19.6788 7.43185 19.3973 7.15086 19.0998 7.15086C18.9588 7.15086 18.8104 7.21639 18.6984 7.32824ZM28.1167 8.9598C27.0096 9.13407 25.7371 9.63419 24.8213 10.255C24.2262 10.6585 23.4495 11.3969 23.0018 11.9849C22.4964 12.6486 21.888 13.911 21.6577 14.7733C21.4858 15.4172 21.4648 15.6255 21.4648 16.688C21.4648 17.7445 21.4863 17.9604 21.6538 18.5865C21.9733 19.7811 22.6255 21.0087 23.3932 21.8607L23.7249 22.2287L23.7465 24.1495C23.7668 25.9587 23.7767 26.0818 23.9172 26.2696C24.2009 26.6487 24.4257 26.7605 24.9645 26.7909L25.4688 26.8194V31.2579V35.6965L25.6465 35.8738C25.8815 36.1084 26.2142 36.1084 26.4492 35.8738L26.6269 35.6965V31.2579V26.8194L27.1312 26.7909C27.6699 26.7605 27.8947 26.6486 28.1785 26.2698C28.3041 26.1021 28.3315 25.9426 28.3516 25.2627L28.3755 24.4549H29.2324H30.0893L30.1132 25.2627C30.1333 25.9426 30.1607 26.1021 30.2863 26.2698C30.5701 26.6486 30.7948 26.7605 31.3336 26.7909L31.8379 26.8194V32.1249V37.4305L32.0156 37.6078C32.1276 37.7196 32.2759 37.7852 32.4169 37.7852C32.5579 37.7852 32.7063 37.7196 32.8183 37.6078L32.9959 37.4305V32.1249V26.8194L33.5003 26.7909C34.0391 26.7605 34.2639 26.6487 34.5475 26.2696C34.6881 26.0818 34.698 25.9587 34.7183 24.1495L34.7398 22.2287L35.0715 21.8607C35.8393 21.0087 36.4915 19.7811 36.811 18.5865C36.9785 17.9604 37 17.7445 37 16.688C37 15.6255 36.979 15.4172 36.807 14.7733C36.5768 13.911 35.9684 12.6486 35.463 11.9849C34.4185 10.6131 32.8287 9.56172 31.1504 9.13292C30.3365 8.92491 28.8697 8.84124 28.1167 8.9598ZM30.394 10.1543C30.7232 10.2166 31.2441 10.3592 31.5515 10.4712C34.2272 11.446 36.0209 14.1496 35.8675 16.977C35.7782 18.6243 35.2209 19.9385 34.0367 21.2939L33.575 21.8224V23.7347V25.647H32.4169H31.2589V24.5962C31.2589 23.5645 31.2555 23.5418 31.0733 23.3599C30.896 23.1829 30.8664 23.1774 30.4039 23.2368C29.7838 23.3164 28.681 23.3164 28.0609 23.2368C27.5984 23.1774 27.5688 23.1829 27.3914 23.3599C27.2093 23.5418 27.2059 23.5645 27.2059 24.5962V25.647H26.0478H24.8898V23.7485C24.8898 21.6746 24.9149 21.8066 24.4201 21.2759C21.5595 18.2073 22.1206 13.4166 25.6076 11.1369C27.0267 10.209 28.7812 9.84885 30.394 10.1543ZM28.4724 11.2486C26.9507 11.4586 25.5099 12.3653 24.6712 13.6406C24.4522 13.9736 24.3108 14.2692 24.3108 14.3939C24.3108 14.7801 24.7567 15.0559 25.1422 14.9082C25.2079 14.883 25.3911 14.6579 25.5492 14.4079C25.9129 13.833 26.6091 13.1806 27.1851 12.8749C27.7101 12.5963 28.6041 12.3529 29.1025 12.3529C29.5351 12.3529 29.8114 12.1276 29.8114 11.7749C29.8114 11.6342 29.7458 11.486 29.6337 11.3743C29.486 11.2267 29.3916 11.1987 29.0728 11.2077C28.862 11.2137 28.5919 11.232 28.4724 11.2486ZM23.9095 15.9983C23.5504 16.3567 23.8048 16.977 24.3108 16.977C24.6084 16.977 24.8898 16.696 24.8898 16.3989C24.8898 16.1019 24.6084 15.8209 24.3108 15.8209C24.1698 15.8209 24.0215 15.8865 23.9095 15.9983ZM3.06522 16.5763C2.95318 16.6881 2.88753 16.8362 2.88753 16.977C2.88753 17.1177 2.95318 17.2658 3.06522 17.3776C3.4242 17.736 4.04555 17.4821 4.04555 16.977C4.04555 16.6799 3.76408 16.3989 3.46654 16.3989C3.32555 16.3989 3.17718 16.4645 3.06522 16.5763ZM6.36158 33.1611V33.7391H5.20357H4.04555V33.1611V32.5831H5.20357H6.36158V33.1611ZM15.6257 33.1611V33.7391H14.4677H13.3097V33.1611V32.5831H14.4677H15.6257V33.1611ZM25.6465 36.8065C25.5345 36.9183 25.4688 37.0664 25.4688 37.2071C25.4688 37.3479 25.5345 37.496 25.6465 37.6078C25.7585 37.7196 25.9069 37.7852 26.0478 37.7852C26.1888 37.7852 26.3372 37.7196 26.4492 37.6078C26.5612 37.496 26.6269 37.3479 26.6269 37.2071C26.6269 37.0664 26.5612 36.9183 26.4492 36.8065C26.3372 36.6947 26.1888 36.6291 26.0478 36.6291C25.9069 36.6291 25.7585 36.6947 25.6465 36.8065Z" fill="url(#paint0_linear_1035_3555)"/>
<defs>
<linearGradient id="paint0_linear_1035_3555" x1="0" y1="0.785156" x2="37.74" y2="38.7102" gradientUnits="userSpaceOnUse">
<stop stop-color="#0ABD92"/>
<stop offset="1" stop-color="#009DB8"/>
</linearGradient>
</defs>
</svg>
