<svg width="55" height="43" viewBox="0 0 55 43" fill="none" xmlns="http://www.w3.org/2000/svg">
<path fill-rule="evenodd" clip-rule="evenodd" d="M1.67867 0.915416C1.00156 1.21927 0.387149 1.89838 0.179446 2.5722C-0.0598153 3.34886 -0.0598153 39.9949 0.179446 40.7715C0.387149 41.4454 1.00156 42.1245 1.67867 42.4283L2.22138 42.6719H27.5H52.7786L53.3213 42.4283C53.9984 42.1245 54.6129 41.4454 54.8206 40.7715C55.0598 39.9949 55.0598 3.34886 54.8206 2.5722C54.6129 1.89838 53.9984 1.21927 53.3213 0.915416L52.7786 0.671875H27.5H2.22138L1.67867 0.915416ZM46.6618 7.29115C47.288 7.855 47.2506 6.94394 47.2506 21.6719C47.2506 36.3998 47.288 35.4888 46.6617 36.0526L46.3746 36.3112H27.5H8.6254L8.33827 36.0526C7.71204 35.4888 7.7494 36.3998 7.7494 21.6719C7.7494 10.2248 7.77291 8.06491 7.90021 7.82913C8.06627 7.52155 8.46461 7.14248 8.71546 7.0534C8.80402 7.02195 17.3135 7.00436 27.6256 7.0144L46.3746 7.0325L46.6618 7.29115ZM19.6339 10.9201C18.774 11.1187 17.9553 11.6675 17.5675 12.3054C17.4238 12.5417 16.9715 13.5223 16.5626 14.4846C16.1536 15.4469 15.7674 16.2508 15.7043 16.271C15.6413 16.2913 15.201 16.2131 14.7259 16.0973C14.2509 15.9816 13.7789 15.9123 13.6772 15.9436C12.9102 16.1791 12.6868 16.5649 12.6875 17.6526C12.6878 18.2287 12.7395 18.4947 12.9012 18.7501C13.1621 19.1626 13.7089 19.4983 14.1208 19.4988C14.3702 19.4991 14.4133 19.533 14.3513 19.6803C14.0475 20.4024 13.8241 21.1404 13.6457 22.0117C13.4617 22.9104 13.4384 23.4922 13.4384 27.1863C13.4384 31.0485 13.4528 31.3744 13.6384 31.709C13.9846 32.333 14.3842 32.4782 15.8676 32.5195C16.9951 32.5507 17.2358 32.5275 17.6627 32.3455C18.4339 32.0166 18.5899 31.6789 18.5903 30.3365L18.5908 29.2243H27.4342H36.2775L36.3183 30.2855C36.363 31.4497 36.5222 31.859 37.0879 32.2655C37.3627 32.4629 37.5334 32.4833 38.9127 32.4833C40.6728 32.4833 40.9847 32.3767 41.3491 31.6511C41.5495 31.2521 41.5616 31.003 41.5611 27.2518C41.5606 22.531 41.4577 21.6788 40.6461 19.6803C40.5865 19.5336 40.6307 19.4991 40.8792 19.4988C41.2911 19.4983 41.8379 19.1626 42.0988 18.7501C42.2605 18.4947 42.3122 18.2287 42.3125 17.6526C42.3132 16.5639 42.0902 16.1796 41.321 15.943C41.2183 15.9113 40.7012 15.9907 40.1722 16.1192L39.2102 16.353L38.3767 14.3826C37.4343 12.155 37.0651 11.6536 35.9933 11.1462L35.3895 10.8605L27.7147 10.8433C23.4247 10.8338 19.8608 10.8676 19.6339 10.9201ZM34.9928 12.3866C35.5393 12.7352 35.5772 12.8063 36.9939 16.1358C38.2362 19.055 38.3209 19.4252 37.8047 19.6772C37.5927 19.7808 35.4025 19.803 27.3697 19.783C17.9897 19.7599 17.1889 19.7443 17.0217 19.583C16.9218 19.4869 16.8444 19.2657 16.8496 19.0915C16.8641 18.6004 19.2307 13.1273 19.6105 12.7067C20.2101 12.0424 20.0629 12.0539 27.669 12.0791L34.5467 12.102L34.9928 12.3866ZM52.0269 16.7993C52.2038 16.8963 52.4574 17.1314 52.5905 17.3217C52.831 17.6658 52.8323 17.6888 52.8323 21.6719C52.8323 25.6549 52.831 25.678 52.5905 26.0221C51.8965 27.0145 50.5255 27.0286 49.7518 26.0514L49.4511 25.6715L49.4164 22.1457C49.3751 17.9412 49.3979 17.6856 49.86 17.1762C50.4508 16.5248 51.2674 16.3828 52.0269 16.7993ZM4.34897 19.7136C4.87955 19.8557 5.55687 20.4488 5.71466 20.9098C5.99503 21.7285 5.7971 22.513 5.17334 23.0561C4.39835 23.731 3.3462 23.7681 2.50486 23.1504C1.27496 22.2473 1.62103 20.2607 3.09674 19.7537C3.60295 19.5796 3.82225 19.5727 4.34897 19.7136ZM21.9367 23.1881C22.1066 23.3362 22.133 23.5303 22.133 24.6291C22.133 25.9855 22.0733 26.1566 21.5568 26.2816C21.4252 26.3134 20.2894 26.3251 19.0329 26.3076C16.9164 26.2782 16.7371 26.261 16.5962 26.075C16.3607 25.7642 16.3811 23.4622 16.6216 23.2061C16.7839 23.0332 17.0126 23.0168 19.2698 23.0168C21.4181 23.0168 21.766 23.0392 21.9367 23.1881ZM38.294 23.1634C38.4761 23.2916 38.5068 23.465 38.5377 24.5386C38.5694 25.6407 38.551 25.7932 38.3593 26.0215L38.1457 26.2758H35.6579H33.17L32.9564 26.0215C32.7647 25.7932 32.7464 25.6407 32.778 24.5386C32.8089 23.465 32.8396 23.2916 33.0217 23.1634C33.3261 22.9492 37.9896 22.9492 38.294 23.1634Z" fill="url(#paint0_linear_677_2528)"/>
<defs>
<linearGradient id="paint0_linear_677_2528" x1="0" y1="0.671875" x2="41.2751" y2="54.9875" gradientUnits="userSpaceOnUse">
<stop stop-color="#0ABD92"/>
<stop offset="1" stop-color="#009DB8"/>
</linearGradient>
</defs>
</svg>
