<svg width="38" height="39" viewBox="0 0 38 39" fill="none" xmlns="http://www.w3.org/2000/svg">
<g opacity="0.6">
<path fill-rule="evenodd" clip-rule="evenodd" d="M15.2345 0.761474C8.9553 1.24371 3.70376 5.59941 2.07223 11.6783C1.6815 13.134 1.44925 15.5078 1.65921 15.8996C1.70595 15.9867 1.84399 16.0997 1.96606 16.1506C2.16406 16.2334 2.55166 16.1611 5.55366 15.4819C7.40482 15.063 9.02395 14.6874 9.15181 14.6471C9.50843 14.5347 9.61943 14.3552 9.80844 13.5852C10.0323 12.6731 10.4265 11.8626 10.9551 11.2277C11.8653 10.1344 12.9041 9.46966 14.2137 9.14257C14.9946 8.94748 15.1651 8.834 15.269 8.44028C15.4719 7.67136 16.6833 1.63803 16.6833 1.39638C16.6833 0.850141 16.2951 0.680002 15.2345 0.761474ZM29.7821 2.16853L29.5736 2.34946V5.42725V8.50504L29.7796 8.7128L29.9854 8.92064L32.8026 8.9435C35.9101 8.96869 36.1495 8.94433 36.334 8.58434C36.3956 8.46419 36.446 8.31257 36.446 8.24728C36.446 7.98361 35.58 6.50872 34.971 5.73523C33.8848 4.35568 32.2592 2.97493 30.8367 2.22347C30.3013 1.94068 30.0592 1.92809 29.7821 2.16853ZM15.2349 2.23126C15.2173 2.28283 14.9482 3.55587 14.637 5.06037C14.3258 6.56478 14.0655 7.79825 14.0585 7.80125C14.0515 7.80425 13.8284 7.86511 13.5628 7.93646C11.5184 8.48563 9.6074 10.2537 8.8131 12.3309C8.69489 12.6401 8.57476 13.0196 8.54615 13.1741C8.51755 13.3287 8.48716 13.4552 8.47854 13.4552C8.46242 13.4552 3.30851 14.6263 3.05821 14.6869C2.92655 14.7186 2.92091 14.6839 2.96712 14.125C3.10323 12.4783 3.63467 10.7402 4.49346 9.13306C6.09238 6.14093 8.78762 3.83866 11.9283 2.7823C13.3827 2.2931 15.3245 1.96953 15.2349 2.23126ZM31.8025 4.42703C32.7137 5.12295 33.9497 6.4624 34.5487 7.40289L34.68 7.609H32.7769H30.8738V5.68913V3.76926L31.0781 3.89952C31.1904 3.97118 31.5165 4.20855 31.8025 4.42703ZM22.2761 7.76325C21.5523 7.83475 20.7265 8.05294 20.0018 8.36406C19.0017 8.79338 18.3844 9.29338 16.4981 11.2019C15.5177 12.1939 14.6812 13.0055 14.6392 13.0055C14.5971 13.0055 14.2633 12.702 13.8974 12.3311L13.2321 11.6568L12.7656 12.1232L12.2991 12.5896L12.9681 13.2674C13.3361 13.6402 13.6371 13.9775 13.6371 14.0171C13.6371 14.0566 11.9524 15.7929 9.89321 17.8756C6.15798 21.6536 6.1487 21.6638 5.85084 22.2994C5.49682 23.0548 5.39028 23.523 5.39028 24.3231C5.39028 25.1236 5.4969 25.5917 5.85122 26.3468C6.14528 26.9736 6.19521 27.0296 8.94639 29.8172C10.4843 31.3755 11.925 32.7732 12.1479 32.9232C12.3709 33.0731 12.838 33.2948 13.186 33.4158C14.3377 33.8163 15.6451 33.7055 16.7947 33.11C17.2618 32.8681 17.699 32.4546 21.0858 29.0522L24.8567 25.2638L25.5445 25.9548L26.2325 26.6459L26.6954 26.1789L27.1583 25.7118L26.4738 25.0184L25.7894 24.325L27.5762 22.5065C29.8221 20.2208 30.269 19.5934 30.7517 18.0483C31.4399 15.8457 31.0091 13.3311 29.6227 11.4579C29.0977 10.7486 27.731 9.40011 27.1401 9.00826C26.1631 8.36046 24.927 7.89104 23.953 7.7978C22.9988 7.70659 22.8752 7.70404 22.2761 7.76325ZM23.7822 9.11327C24.4166 9.20231 25.3016 9.45587 25.3016 9.54858C25.3016 9.65119 24.5175 10.0013 24.0256 10.1183C23.0472 10.351 21.8809 10.2028 20.9673 9.72974L20.5838 9.53112L21.141 9.35244C22.0983 9.04544 22.8278 8.97933 23.7822 9.11327ZM19.7807 10.5758C20.3094 10.9298 20.9832 11.2309 21.624 11.3996C22.3974 11.6031 23.7459 11.59 24.5066 11.3715C25.144 11.1884 25.8384 10.8594 26.3189 10.5127L26.6305 10.2879L26.9265 10.5244C27.0892 10.6545 27.5252 11.0836 27.8953 11.478L28.5681 12.1953L28.3564 12.5067C27.0084 14.4894 26.9799 17.1234 28.2845 19.1596L28.5807 19.622L22.5763 25.6794C16.8977 31.4081 16.5443 31.7497 16.0648 31.9745C14.9907 32.4782 13.8214 32.422 12.9183 31.8234C12.6627 31.6539 11.4034 30.4357 9.84262 28.8479C7.44888 26.4128 7.18037 26.1148 6.99448 25.6861C6.54945 24.6598 6.6025 23.6027 7.14553 22.6742C7.317 22.381 9.1007 20.5348 13.3186 16.2846C16.5811 12.997 19.2795 10.3072 19.3151 10.3072C19.3506 10.3072 19.5602 10.4281 19.7807 10.5758ZM29.6524 14.7278C29.8567 15.7475 29.74 17.1385 29.3762 18.0209L29.2706 18.2769L29.0727 17.832C28.5013 16.5475 28.5007 15.1014 29.0712 13.9261L29.2737 13.5088L29.3994 13.8006C29.4686 13.961 29.5824 14.3783 29.6524 14.7278ZM16.7204 14.803C16.4959 14.8998 11.0048 20.4933 10.796 20.8379C10.3985 21.4935 10.271 21.9801 10.2656 22.8615C10.2563 24.3771 10.6137 25.0202 12.4942 26.8714C13.3267 27.691 13.8076 28.1044 14.127 28.2749C15.2827 28.892 16.7327 28.8934 17.9022 28.2786C18.2724 28.084 18.8726 27.5205 21.1933 25.1888C23.1044 23.2685 24.0476 22.2693 24.0805 22.1299C24.1387 21.8834 23.9206 21.3973 23.3999 20.613C21.8739 18.3145 20.1085 16.5899 17.8563 15.1978C17.0888 14.7234 16.9869 14.688 16.7204 14.803ZM18.2393 17.0399C19.6169 18.021 21.0169 19.4654 22.026 20.9466C22.2963 21.3435 22.3792 21.5194 22.3124 21.5545C22.2607 21.5817 21.705 21.7315 21.0776 21.8875L19.9368 22.171L18.3433 20.5633L16.7496 18.9556L17.0605 17.7023L17.3715 16.4489L17.566 16.574C17.673 16.6428 17.9759 16.8525 18.2393 17.0399ZM15.5248 18.4295C15.4231 18.8336 15.3614 19.2372 15.3875 19.3265C15.4138 19.4157 15.7741 19.8346 16.1883 20.2574L16.9415 21.0261L16.2359 21.7379L15.5303 22.4498L14.3802 21.2877L13.2302 20.1257L14.4517 18.8918C15.1236 18.2131 15.6815 17.6662 15.6915 17.6763C15.7016 17.6864 15.6266 18.0254 15.5248 18.4295ZM15.1073 23.895L17.8769 26.6897L17.6678 26.8456C17.0516 27.3052 16.3165 27.4961 15.5994 27.3827C14.8543 27.2648 14.5091 27.0234 13.2108 25.7129C11.723 24.211 11.594 23.9864 11.594 22.899C11.594 22.3064 11.6228 22.128 11.7658 21.8352C11.9494 21.4591 12.2039 21.1002 12.287 21.1002C12.3149 21.1002 13.584 22.3578 15.1073 23.895ZM18.6927 22.7866C19.2217 23.3125 19.5394 23.5736 19.6502 23.5736C19.7878 23.5736 20.5403 23.402 21.1782 23.2252C21.2599 23.2026 20.7588 23.7607 20.0646 24.4656L18.8024 25.7471L17.6685 24.605C17.0449 23.9769 16.5347 23.4295 16.5347 23.3886C16.5347 23.3163 17.7971 21.9996 17.8664 21.9996C17.8855 21.9996 18.2572 22.3537 18.6927 22.7866ZM36.5574 22.3421C36.3123 22.3996 34.7628 22.7316 33.1143 23.0798C31.188 23.4867 30.0692 23.7565 29.9835 23.8348C29.9052 23.9062 29.7825 24.2514 29.6866 24.6703C29.1685 26.9324 27.4423 28.6738 25.2 29.1965C24.8109 29.2872 24.4433 29.4167 24.3832 29.4843C24.3232 29.5518 24.223 29.8095 24.1606 30.0568C23.9149 31.0306 22.7046 36.5286 22.6906 36.734C22.6462 37.3885 22.9483 37.5532 24.0629 37.4821C27.816 37.2425 31.1179 35.762 33.6934 33.1636C36.2445 30.5901 37.7044 27.3302 37.9763 23.6003C38.0336 22.8154 37.9952 22.5896 37.7684 22.3765C37.5774 22.1969 37.2204 22.1868 36.5574 22.3421ZM36.6415 23.9296C36.6201 24.0429 36.5809 24.3212 36.5546 24.5479C36.5282 24.7747 36.4446 25.2469 36.3686 25.5972C35.2964 30.5412 31.5627 34.4639 26.7334 35.7201C25.9067 35.9351 24.2655 36.1944 24.1931 36.1213C24.1608 36.0887 24.9488 32.4274 25.2879 31.0345L25.413 30.5207L25.9172 30.382C28.2272 29.7465 30.2291 27.727 30.8623 25.3938C30.9396 25.1088 31.046 24.8752 31.1042 24.8624C33.0944 24.4247 36.3791 23.7372 36.5076 23.7313C36.6576 23.7245 36.6755 23.751 36.6415 23.9296ZM0.356137 27.583C-0.0105876 27.7438 -0.0776026 27.9986 0.0798306 28.6328C0.562383 30.5762 2.15908 32.1819 4.11172 32.6872C4.60148 32.8139 4.67266 32.8165 4.85364 32.714C5.22111 32.5059 5.23939 32.3861 5.24058 30.1856C5.24184 27.8845 5.21093 27.7031 4.7928 27.5561C4.41478 27.4232 0.668923 27.4459 0.356137 27.583ZM3.90436 30.0194C3.90436 30.6789 3.87732 31.2186 3.84426 31.2186C3.8112 31.2186 3.58556 31.0986 3.34276 30.9519C2.78985 30.6179 2.14756 29.9853 1.84228 29.4742C1.41976 28.7666 1.34888 28.8201 2.70768 28.8201H3.90436V30.0194ZM6.24469 33.5576C6.16296 33.6049 6.05308 33.6966 6.00048 33.7614C5.76756 34.0487 6.12804 35.3209 6.69618 36.2169C7.44553 37.3987 8.70307 38.3186 10.0506 38.6709C10.562 38.8046 10.7984 38.7559 10.9921 38.4769C11.0946 38.3293 11.1111 38.0024 11.1111 36.1173C11.1111 34.9138 11.0903 33.8745 11.0649 33.8078C10.948 33.5003 10.6952 33.467 8.49586 33.4694C7.05422 33.4709 6.34655 33.4987 6.24469 33.5576ZM9.84804 36.0136V37.2109L9.6548 37.1369C9.32634 37.0109 8.71317 36.5658 8.34801 36.1883C8.03017 35.8597 7.47057 35.0234 7.47057 34.8769C7.47057 34.8435 8.0055 34.8162 8.65931 34.8162H9.84804V36.0136Z" fill="url(#paint0_linear_677_2917)"/>
<path fill-rule="evenodd" clip-rule="evenodd" d="M15.2345 0.761474C8.9553 1.24371 3.70376 5.59941 2.07223 11.6783C1.6815 13.134 1.44925 15.5078 1.65921 15.8996C1.70595 15.9867 1.84399 16.0997 1.96606 16.1506C2.16406 16.2334 2.55166 16.1611 5.55366 15.4819C7.40482 15.063 9.02395 14.6874 9.15181 14.6471C9.50843 14.5347 9.61943 14.3552 9.80844 13.5852C10.0323 12.6731 10.4265 11.8626 10.9551 11.2277C11.8653 10.1344 12.9041 9.46966 14.2137 9.14257C14.9946 8.94748 15.1651 8.834 15.269 8.44028C15.4719 7.67136 16.6833 1.63803 16.6833 1.39638C16.6833 0.850141 16.2951 0.680002 15.2345 0.761474ZM29.7821 2.16853L29.5736 2.34946V5.42725V8.50504L29.7796 8.7128L29.9854 8.92064L32.8026 8.9435C35.9101 8.96869 36.1495 8.94433 36.334 8.58434C36.3956 8.46419 36.446 8.31257 36.446 8.24728C36.446 7.98361 35.58 6.50872 34.971 5.73523C33.8848 4.35568 32.2592 2.97493 30.8367 2.22347C30.3013 1.94068 30.0592 1.92809 29.7821 2.16853ZM15.2349 2.23126C15.2173 2.28283 14.9482 3.55587 14.637 5.06037C14.3258 6.56478 14.0655 7.79825 14.0585 7.80125C14.0515 7.80425 13.8284 7.86511 13.5628 7.93646C11.5184 8.48563 9.6074 10.2537 8.8131 12.3309C8.69489 12.6401 8.57476 13.0196 8.54615 13.1741C8.51755 13.3287 8.48716 13.4552 8.47854 13.4552C8.46242 13.4552 3.30851 14.6263 3.05821 14.6869C2.92655 14.7186 2.92091 14.6839 2.96712 14.125C3.10323 12.4783 3.63467 10.7402 4.49346 9.13306C6.09238 6.14093 8.78762 3.83866 11.9283 2.7823C13.3827 2.2931 15.3245 1.96953 15.2349 2.23126ZM31.8025 4.42703C32.7137 5.12295 33.9497 6.4624 34.5487 7.40289L34.68 7.609H32.7769H30.8738V5.68913V3.76926L31.0781 3.89952C31.1904 3.97118 31.5165 4.20855 31.8025 4.42703ZM22.2761 7.76325C21.5523 7.83475 20.7265 8.05294 20.0018 8.36406C19.0017 8.79338 18.3844 9.29338 16.4981 11.2019C15.5177 12.1939 14.6812 13.0055 14.6392 13.0055C14.5971 13.0055 14.2633 12.702 13.8974 12.3311L13.2321 11.6568L12.7656 12.1232L12.2991 12.5896L12.9681 13.2674C13.3361 13.6402 13.6371 13.9775 13.6371 14.0171C13.6371 14.0566 11.9524 15.7929 9.89321 17.8756C6.15798 21.6536 6.1487 21.6638 5.85084 22.2994C5.49682 23.0548 5.39028 23.523 5.39028 24.3231C5.39028 25.1236 5.4969 25.5917 5.85122 26.3468C6.14528 26.9736 6.19521 27.0296 8.94639 29.8172C10.4843 31.3755 11.925 32.7732 12.1479 32.9232C12.3709 33.0731 12.838 33.2948 13.186 33.4158C14.3377 33.8163 15.6451 33.7055 16.7947 33.11C17.2618 32.8681 17.699 32.4546 21.0858 29.0522L24.8567 25.2638L25.5445 25.9548L26.2325 26.6459L26.6954 26.1789L27.1583 25.7118L26.4738 25.0184L25.7894 24.325L27.5762 22.5065C29.8221 20.2208 30.269 19.5934 30.7517 18.0483C31.4399 15.8457 31.0091 13.3311 29.6227 11.4579C29.0977 10.7486 27.731 9.40011 27.1401 9.00826C26.1631 8.36046 24.927 7.89104 23.953 7.7978C22.9988 7.70659 22.8752 7.70404 22.2761 7.76325ZM23.7822 9.11327C24.4166 9.20231 25.3016 9.45587 25.3016 9.54858C25.3016 9.65119 24.5175 10.0013 24.0256 10.1183C23.0472 10.351 21.8809 10.2028 20.9673 9.72974L20.5838 9.53112L21.141 9.35244C22.0983 9.04544 22.8278 8.97933 23.7822 9.11327ZM19.7807 10.5758C20.3094 10.9298 20.9832 11.2309 21.624 11.3996C22.3974 11.6031 23.7459 11.59 24.5066 11.3715C25.144 11.1884 25.8384 10.8594 26.3189 10.5127L26.6305 10.2879L26.9265 10.5244C27.0892 10.6545 27.5252 11.0836 27.8953 11.478L28.5681 12.1953L28.3564 12.5067C27.0084 14.4894 26.9799 17.1234 28.2845 19.1596L28.5807 19.622L22.5763 25.6794C16.8977 31.4081 16.5443 31.7497 16.0648 31.9745C14.9907 32.4782 13.8214 32.422 12.9183 31.8234C12.6627 31.6539 11.4034 30.4357 9.84262 28.8479C7.44888 26.4128 7.18037 26.1148 6.99448 25.6861C6.54945 24.6598 6.6025 23.6027 7.14553 22.6742C7.317 22.381 9.1007 20.5348 13.3186 16.2846C16.5811 12.997 19.2795 10.3072 19.3151 10.3072C19.3506 10.3072 19.5602 10.4281 19.7807 10.5758ZM29.6524 14.7278C29.8567 15.7475 29.74 17.1385 29.3762 18.0209L29.2706 18.2769L29.0727 17.832C28.5013 16.5475 28.5007 15.1014 29.0712 13.9261L29.2737 13.5088L29.3994 13.8006C29.4686 13.961 29.5824 14.3783 29.6524 14.7278ZM16.7204 14.803C16.4959 14.8998 11.0048 20.4933 10.796 20.8379C10.3985 21.4935 10.271 21.9801 10.2656 22.8615C10.2563 24.3771 10.6137 25.0202 12.4942 26.8714C13.3267 27.691 13.8076 28.1044 14.127 28.2749C15.2827 28.892 16.7327 28.8934 17.9022 28.2786C18.2724 28.084 18.8726 27.5205 21.1933 25.1888C23.1044 23.2685 24.0476 22.2693 24.0805 22.1299C24.1387 21.8834 23.9206 21.3973 23.3999 20.613C21.8739 18.3145 20.1085 16.5899 17.8563 15.1978C17.0888 14.7234 16.9869 14.688 16.7204 14.803ZM18.2393 17.0399C19.6169 18.021 21.0169 19.4654 22.026 20.9466C22.2963 21.3435 22.3792 21.5194 22.3124 21.5545C22.2607 21.5817 21.705 21.7315 21.0776 21.8875L19.9368 22.171L18.3433 20.5633L16.7496 18.9556L17.0605 17.7023L17.3715 16.4489L17.566 16.574C17.673 16.6428 17.9759 16.8525 18.2393 17.0399ZM15.5248 18.4295C15.4231 18.8336 15.3614 19.2372 15.3875 19.3265C15.4138 19.4157 15.7741 19.8346 16.1883 20.2574L16.9415 21.0261L16.2359 21.7379L15.5303 22.4498L14.3802 21.2877L13.2302 20.1257L14.4517 18.8918C15.1236 18.2131 15.6815 17.6662 15.6915 17.6763C15.7016 17.6864 15.6266 18.0254 15.5248 18.4295ZM15.1073 23.895L17.8769 26.6897L17.6678 26.8456C17.0516 27.3052 16.3165 27.4961 15.5994 27.3827C14.8543 27.2648 14.5091 27.0234 13.2108 25.7129C11.723 24.211 11.594 23.9864 11.594 22.899C11.594 22.3064 11.6228 22.128 11.7658 21.8352C11.9494 21.4591 12.2039 21.1002 12.287 21.1002C12.3149 21.1002 13.584 22.3578 15.1073 23.895ZM18.6927 22.7866C19.2217 23.3125 19.5394 23.5736 19.6502 23.5736C19.7878 23.5736 20.5403 23.402 21.1782 23.2252C21.2599 23.2026 20.7588 23.7607 20.0646 24.4656L18.8024 25.7471L17.6685 24.605C17.0449 23.9769 16.5347 23.4295 16.5347 23.3886C16.5347 23.3163 17.7971 21.9996 17.8664 21.9996C17.8855 21.9996 18.2572 22.3537 18.6927 22.7866ZM36.5574 22.3421C36.3123 22.3996 34.7628 22.7316 33.1143 23.0798C31.188 23.4867 30.0692 23.7565 29.9835 23.8348C29.9052 23.9062 29.7825 24.2514 29.6866 24.6703C29.1685 26.9324 27.4423 28.6738 25.2 29.1965C24.8109 29.2872 24.4433 29.4167 24.3832 29.4843C24.3232 29.5518 24.223 29.8095 24.1606 30.0568C23.9149 31.0306 22.7046 36.5286 22.6906 36.734C22.6462 37.3885 22.9483 37.5532 24.0629 37.4821C27.816 37.2425 31.1179 35.762 33.6934 33.1636C36.2445 30.5901 37.7044 27.3302 37.9763 23.6003C38.0336 22.8154 37.9952 22.5896 37.7684 22.3765C37.5774 22.1969 37.2204 22.1868 36.5574 22.3421ZM36.6415 23.9296C36.6201 24.0429 36.5809 24.3212 36.5546 24.5479C36.5282 24.7747 36.4446 25.2469 36.3686 25.5972C35.2964 30.5412 31.5627 34.4639 26.7334 35.7201C25.9067 35.9351 24.2655 36.1944 24.1931 36.1213C24.1608 36.0887 24.9488 32.4274 25.2879 31.0345L25.413 30.5207L25.9172 30.382C28.2272 29.7465 30.2291 27.727 30.8623 25.3938C30.9396 25.1088 31.046 24.8752 31.1042 24.8624C33.0944 24.4247 36.3791 23.7372 36.5076 23.7313C36.6576 23.7245 36.6755 23.751 36.6415 23.9296ZM0.356137 27.583C-0.0105876 27.7438 -0.0776026 27.9986 0.0798306 28.6328C0.562383 30.5762 2.15908 32.1819 4.11172 32.6872C4.60148 32.8139 4.67266 32.8165 4.85364 32.714C5.22111 32.5059 5.23939 32.3861 5.24058 30.1856C5.24184 27.8845 5.21093 27.7031 4.7928 27.5561C4.41478 27.4232 0.668923 27.4459 0.356137 27.583ZM3.90436 30.0194C3.90436 30.6789 3.87732 31.2186 3.84426 31.2186C3.8112 31.2186 3.58556 31.0986 3.34276 30.9519C2.78985 30.6179 2.14756 29.9853 1.84228 29.4742C1.41976 28.7666 1.34888 28.8201 2.70768 28.8201H3.90436V30.0194ZM6.24469 33.5576C6.16296 33.6049 6.05308 33.6966 6.00048 33.7614C5.76756 34.0487 6.12804 35.3209 6.69618 36.2169C7.44553 37.3987 8.70307 38.3186 10.0506 38.6709C10.562 38.8046 10.7984 38.7559 10.9921 38.4769C11.0946 38.3293 11.1111 38.0024 11.1111 36.1173C11.1111 34.9138 11.0903 33.8745 11.0649 33.8078C10.948 33.5003 10.6952 33.467 8.49586 33.4694C7.05422 33.4709 6.34655 33.4987 6.24469 33.5576ZM9.84804 36.0136V37.2109L9.6548 37.1369C9.32634 37.0109 8.71317 36.5658 8.34801 36.1883C8.03017 35.8597 7.47057 35.0234 7.47057 34.8769C7.47057 34.8435 8.0055 34.8162 8.65931 34.8162H9.84804V36.0136Z" fill="white"/>
</g>
<defs>
<linearGradient id="paint0_linear_677_2917" x1="0" y1="0.742188" x2="38.76" y2="39.6922" gradientUnits="userSpaceOnUse">
<stop stop-color="#0ABD92"/>
<stop offset="1" stop-color="#009DB8"/>
</linearGradient>
</defs>
</svg>
