<svg width="20" height="22" viewBox="0 0 20 22" fill="none" xmlns="http://www.w3.org/2000/svg">
<path fill-rule="evenodd" clip-rule="evenodd" d="M8.00002 1.75C7.6685 1.75 7.35055 1.8817 7.11613 2.11612C6.88171 2.35054 6.75002 2.66848 6.75002 3V4.24998H13.25V3C13.25 2.66848 13.1183 2.35054 12.8839 2.11612C12.6495 1.8817 12.3315 1.75 12 1.75H8.00002ZM14.75 4.24998V3C14.75 2.27065 14.4603 1.57118 13.9446 1.05546C13.4288 0.539731 12.7294 0.25 12 0.25H8.00002C7.27067 0.25 6.5712 0.539731 6.05547 1.05546C5.53975 1.57118 5.25002 2.27065 5.25002 3V4.24999L1 4.24998C0.585786 4.24998 0.25 4.58577 0.25 4.99998C0.25 5.4142 0.585786 5.74998 1 5.74998H2.25L2.25002 19C2.25002 19.7293 2.53975 20.4288 3.05547 20.9445C3.5712 21.4603 4.27067 21.75 5.00002 21.75H15C15.7294 21.75 16.4288 21.4603 16.9446 20.9445C17.4603 20.4288 17.75 19.7293 17.75 19V5.74998H19C19.4142 5.74998 19.75 5.4142 19.75 4.99998C19.75 4.58577 19.4142 4.24998 19 4.24998H14.75ZM6.0045 5.74999L6.00002 5.75L5.99553 5.74999L3.75 5.74998L3.75002 19C3.75002 19.3315 3.88171 19.6495 4.11613 19.8839C4.35055 20.1183 4.6685 20.25 5.00002 20.25H15C15.3315 20.25 15.6495 20.1183 15.8839 19.8839C16.1183 19.6495 16.25 19.3315 16.25 19V5.75L14.0024 5.75L14 5.75L13.9977 5.75L6.0045 5.74999ZM7.99998 9.25C8.4142 9.25 8.74998 9.58579 8.74998 10V16C8.74998 16.4142 8.4142 16.75 7.99998 16.75C7.58577 16.75 7.24998 16.4142 7.24998 16V10C7.24998 9.58579 7.58577 9.25 7.99998 9.25ZM12 9.25C12.4142 9.25 12.75 9.58579 12.75 10V16C12.75 16.4142 12.4142 16.75 12 16.75C11.5858 16.75 11.25 16.4142 11.25 16V10C11.25 9.58579 11.5858 9.25 12 9.25Z" fill="#101010"/>
</svg>
