<svg width="23" height="32" viewBox="0 0 23 32" fill="none" xmlns="http://www.w3.org/2000/svg">
<path d="M14.8123 32V23.1659L11.0906 19.5261L9.52751 26.4645L0 24.4929L0.446602 22.2559L7.59223 23.7346L10.1602 10.3507L6.6246 11.7915V16.8341H4.39159V10.3128L10.3091 7.77251C11.0534 7.44392 11.6057 7.22907 11.966 7.12796C12.3252 7.02686 12.6537 6.9763 12.9515 6.9763C13.3981 6.9763 13.8198 7.09611 14.2168 7.33573C14.6138 7.57637 14.9364 7.89889 15.1845 8.30332L16.6731 10.7299C17.2934 11.7915 18.1559 12.6761 19.2605 13.3839C20.3641 14.0916 21.6106 14.4708 23 14.5213V16.7962C21.4865 16.7457 20.0227 16.3478 18.6084 15.6027C17.1942 14.8565 15.9908 13.7883 14.9984 12.3981L13.8819 18.0853L17.0453 21.1943V32H14.8123ZM15.1845 5.61137C14.4153 5.61137 13.7643 5.3394 13.2313 4.79545C12.6974 4.25251 12.4304 3.58926 12.4304 2.80569C12.4304 2.02212 12.6974 1.35836 13.2313 0.814408C13.7643 0.271469 14.4153 0 15.1845 0C15.9536 0 16.6047 0.271469 17.1376 0.814408C17.6715 1.35836 17.9385 2.02212 17.9385 2.80569C17.9385 3.58926 17.6715 4.25251 17.1376 4.79545C16.6047 5.3394 15.9536 5.61137 15.1845 5.61137Z" fill="url(#paint0_linear_677_2092)"/>
<defs>
<linearGradient id="paint0_linear_677_2092" x1="-0.159913" y1="16" x2="48.6088" y2="16" gradientUnits="userSpaceOnUse">
<stop stop-color="#009B8D"/>
<stop offset="1" stop-color="#009DB9"/>
</linearGradient>
</defs>
</svg>
