<svg width="22" height="26" viewBox="0 0 22 26" fill="none" xmlns="http://www.w3.org/2000/svg">
<path fill-rule="evenodd" clip-rule="evenodd" d="M2.85733 0.0924983C1.94895 0.380979 1.19046 1.01911 0.78315 1.83768C0.367739 2.67259 0.396928 1.83101 0.396928 12.9737C0.396928 24.1163 0.367739 23.2747 0.78315 24.1096C1.1151 24.7767 1.62911 25.2866 2.30157 25.6159C3.13214 26.0226 2.6109 25.9989 10.7723 26C17.2209 26.0007 18.0908 25.9917 18.4414 25.92C19.7177 25.659 20.7755 24.6533 21.1017 23.3909C21.1919 23.0416 21.1965 22.6401 21.1965 15.0815V7.13917L21.0478 6.9457C20.8264 6.65778 14.5172 0.110767 14.4024 0.0498038C14.3363 0.0147424 12.4579 -0.00169421 8.72162 0.000137734C3.53749 0.0026821 3.11947 0.00924656 2.85733 0.0924983ZM13.4769 3.36868C13.4777 5.74542 13.4951 5.91488 13.7955 6.47392C14.1139 7.06656 14.6389 7.519 15.3034 7.77348L15.6563 7.90864L17.798 7.92528L19.9397 7.94192V15.3106C19.9397 20.1098 19.9214 22.7748 19.8873 22.9531C19.7337 23.7568 19.1303 24.4176 18.3365 24.6514C18.1075 24.7189 17.1548 24.7286 10.8047 24.7286C3.70175 24.7286 3.52759 24.7264 3.2059 24.6278C2.54426 24.425 1.98363 23.8689 1.77926 23.2126C1.67938 22.8917 1.67758 22.7126 1.67758 12.9737C1.67758 3.18757 1.67892 3.05714 1.78074 2.73009C1.98163 2.08484 2.54093 1.52762 3.19585 1.3201C3.48368 1.22891 3.74535 1.22403 8.48739 1.22143L13.4761 1.21869L13.4769 3.36868ZM17.1943 4.72991L19.0222 6.63819L17.4737 6.65167C15.9404 6.66501 15.9227 6.66399 15.6602 6.54476C15.3063 6.38401 15.0649 6.16555 14.9111 5.86689C14.7846 5.6211 14.7842 5.61571 14.7699 3.91572L14.7556 2.21099L15.061 2.51631C15.229 2.68424 16.189 3.68036 17.1943 4.72991ZM10.5558 8.68651C10.459 8.73541 10.3321 8.84008 10.2736 8.91911C10.1693 9.06022 10.1669 9.12317 10.1418 12.5639L10.1161 16.0651L8.81529 14.6752C8.0214 13.827 7.44466 13.2525 7.33545 13.2011C6.99596 13.0413 6.55736 13.2585 6.47579 13.6268C6.40844 13.931 6.53699 14.0939 8.46041 16.1434C9.49658 17.2474 10.4018 18.1881 10.4721 18.2338C10.5423 18.2795 10.7019 18.3168 10.8266 18.3168C11.0275 18.3168 11.0824 18.2892 11.3065 18.0751C11.7283 17.6723 14.9311 14.2433 15.0349 14.0835C15.3465 13.6035 14.8981 13.0078 14.3483 13.1712C14.1799 13.2212 13.9246 13.467 12.7983 14.6637L11.4499 16.0963L11.4242 12.5608C11.3957 8.63109 11.4174 8.85499 11.0484 8.68126C10.8246 8.57598 10.7732 8.57649 10.5558 8.68651ZM5.29148 20.4821C4.80276 20.7214 4.8812 21.4728 5.41085 21.6254C5.54391 21.6637 7.213 21.6758 10.9112 21.6652C16.0275 21.6505 16.2258 21.6464 16.3643 21.5534C16.6538 21.3587 16.7338 21.0128 16.5561 20.7238C16.3468 20.3832 16.7056 20.4031 10.7984 20.4044C6.13825 20.4054 5.42778 20.4154 5.29148 20.4821Z" fill="black"/>
</svg>
