<svg width="36" height="12" viewBox="0 0 36 12" fill="none" xmlns="http://www.w3.org/2000/svg">
<path fill-rule="evenodd" clip-rule="evenodd" d="M5.2515 0C5.22424 2.35653 5.07444 3.68104 4.2513 4.56488C3.42816 5.44876 2.19466 5.60962 0 5.63887V5.98729C2.19466 6.01657 3.42816 6.17744 4.2513 7.06128C5.07444 7.94512 5.22424 9.26962 5.2515 11.6262H5.57599C5.60325 9.26962 5.75305 7.94512 6.57619 7.06128C7.39933 6.17744 8.63283 6.01657 10.8275 5.98729V5.63887C8.63283 5.60958 7.39933 5.44876 6.57619 4.56488C5.75305 3.68104 5.60325 2.35653 5.57599 0H5.2515Z" fill="black"/>
<path d="M14.5574 12V10.1737H18.9209V12H20.2463V8.98978H19.4839V1.4202H14.4987L14.358 5.76546C14.3111 7.17609 14.1703 8.32226 13.795 8.98978H13.2319V12H14.5574ZM15.6014 5.96697L15.7069 2.60413H18.0646V8.98978H15.1322C15.3785 8.39782 15.5544 7.37764 15.6014 5.96697Z" fill="black"/>
<path d="M22.628 9.11547C21.9125 9.11547 21.2087 8.83837 20.8334 8.53611V9.75783C21.1032 9.99714 21.7835 10.2994 22.7922 10.2994C24.2819 10.2994 25.0678 9.58148 25.0678 8.3094C25.0678 7.56629 24.6338 7.06248 23.8597 6.88617C24.5869 6.63426 24.8919 6.08009 24.8919 5.37474C24.8919 4.30416 24.106 3.7122 22.8392 3.7122C21.9242 3.7122 21.326 4.0145 20.9859 4.24121V5.46293C21.3612 5.19843 21.8773 4.89613 22.6398 4.89613C23.1558 4.89613 23.4843 5.16063 23.4843 5.62664C23.4843 6.11785 23.2028 6.38236 22.628 6.38236H21.7483V7.51589H22.628C23.3435 7.51589 23.6251 7.74263 23.6251 8.2968C23.6251 8.80061 23.2849 9.11547 22.628 9.11547Z" fill="black"/>
<path d="M30.3492 9.74523V8.52351C29.9151 8.83837 29.1878 9.11547 28.5076 9.11547C27.4871 9.11547 27.1 8.59906 27.0414 7.54109H30.4079V6.74761C30.4079 4.54347 29.5048 3.7122 28.1088 3.7122C26.408 3.7122 25.5986 5.11027 25.5986 7.02472C25.5986 9.22882 26.6074 10.2994 28.3902 10.2994C29.2818 10.2994 29.9385 10.0475 30.3492 9.74523ZM28.0854 4.89613C28.7774 4.89613 28.9885 5.51329 28.9885 6.3068V6.43275H27.0414C27.0766 5.42513 27.4167 4.89613 28.0854 4.89613Z" fill="black"/>
<path d="M34.604 3.83641V6.34281H32.739V3.83641H31.3431V10.1717H32.739V7.52674H34.604V10.1717H36V3.83641H34.604Z" fill="black"/>
</svg>
