<svg width="52" height="41" viewBox="0 0 52 41" fill="none" xmlns="http://www.w3.org/2000/svg">
<path opacity="0.6" fill-rule="evenodd" clip-rule="evenodd" d="M6.99789 0.52683C6.38421 0.808377 5.90605 1.28683 5.61501 1.91044C5.39406 2.38394 5.37445 2.55735 5.37354 4.04095L5.37252 5.6559L3.67097 5.69137C2.15155 5.72291 1.92441 5.75106 1.54945 5.95374C1.01542 6.2425 0.550258 6.71415 0.263888 7.25745L0.0392825 7.68363L0.0121591 18.7832C-0.0148626 29.7955 -0.0134404 29.8872 0.195623 30.4541C0.346274 30.8627 0.552086 31.1585 0.918302 31.4927C1.58216 32.0984 2.15724 32.2713 3.50802 32.2713H4.55263L4.58158 36.0432L4.61063 39.8151L4.89568 40.0638C5.09347 40.2364 5.30416 40.3125 5.58423 40.3125C5.99626 40.3125 7.06148 39.5306 15.1337 33.303L16.4711 32.2713H29.5151H42.5591L44.156 33.4912C45.0343 34.1621 45.8526 34.7652 45.9746 34.8314C46.2577 34.9848 46.5369 34.9839 46.8731 34.8285C47.412 34.5793 47.4289 34.4469 47.4289 30.4824V26.8276L48.7832 26.7917C50.0838 26.7572 50.1571 26.7434 50.6371 26.4435C51.1801 26.1043 51.7292 25.3712 51.8954 24.7637C51.963 24.5168 51.9994 20.6071 51.9997 13.5529C52.0004 1.56085 52.0284 2.08446 51.342 1.27075C51.145 1.03724 50.7465 0.726108 50.4563 0.579304L49.9287 0.3125L28.6919 0.314768C7.55448 0.317036 7.45289 0.317964 6.99789 0.52683ZM49.7654 2.58054C49.966 2.78415 49.9686 2.92198 49.9653 13.5341C49.9625 22.9509 49.9432 24.3071 49.8089 24.4878C49.6683 24.6769 49.5039 24.6982 47.8226 24.7455L45.9896 24.797L45.6935 25.1337L45.3972 25.4704V28.6682V31.8659L43.5433 30.4381C37.3557 25.6727 36.257 24.8585 35.9333 24.7989C35.7468 24.7646 32.9505 24.75 29.7193 24.7667L23.8443 24.797L23.548 25.1337C23.1429 25.5938 23.1432 26.0946 23.5485 26.506L23.8454 26.8073H29.6471H35.4487L37.6253 28.4826L39.802 30.1579L27.7428 30.2104C21.1102 30.2394 15.6784 30.2741 15.6722 30.2878C15.666 30.3014 13.6317 31.8685 11.1516 33.7702L6.64234 37.228L6.59155 34.0537C6.53873 30.7551 6.51038 30.5443 6.08799 30.3149C5.97797 30.2551 5.16224 30.2094 4.20632 30.2094C2.55017 30.2094 2.51431 30.2047 2.26959 29.9563L2.0202 29.7033V18.9723V8.24126L2.26959 7.98827C2.51055 7.74363 2.56643 7.73518 3.94342 7.73518H5.36795L5.39569 16.3177C5.42139 24.3002 5.43591 24.9234 5.60302 25.2338C5.91692 25.8167 6.4218 26.317 6.94639 26.565C7.45218 26.8039 7.47799 26.8054 11.4874 26.8063L15.5197 26.8073L15.7857 26.5752C15.9626 26.4207 16.0703 26.2015 16.1075 25.9197C16.1561 25.5521 16.123 25.4504 15.8557 25.1467L15.548 24.797L11.6201 24.7455C7.88087 24.6964 7.68542 24.6844 7.54828 24.4938C7.42608 24.3241 7.40424 22.6631 7.40424 13.5631C7.40424 4.01807 7.42171 2.80724 7.5624 2.60353L7.72047 2.37436H28.6414C49.4268 2.37436 49.5636 2.3757 49.7654 2.58054ZM38.047 5.83662C35.1123 6.55755 33.0196 9.74044 33.2399 13.1482C33.4757 16.797 36.1445 19.6246 39.3529 19.6246C40.3402 19.6246 41.0398 19.4373 42.0364 18.9064L42.8914 18.451L43.9768 19.5364C44.9471 20.5068 45.1006 20.6218 45.4251 20.6218C46.1204 20.6218 46.6936 19.8294 46.4087 19.2619C46.343 19.131 45.8298 18.5517 45.2681 17.9745L44.2471 16.9251L44.6089 16.2219C45.911 13.6917 45.7465 10.64 44.1862 8.38528C42.7161 6.26085 40.3384 5.27374 38.047 5.83662ZM11.5614 6.79941L11.2645 7.10075V13.5599V20.0191L11.5614 20.3204C11.9667 20.7318 12.4602 20.732 12.9136 20.3211L13.2454 20.0204L13.2752 16.9705L13.3048 13.9207H16.1402C17.9624 13.9207 19.0619 13.8807 19.2174 13.8089C19.8305 13.5254 19.945 12.6477 19.4326 12.1589L19.1721 11.9104L16.2342 11.8802L13.2962 11.8499V10.2094V8.56889L16.2342 8.53858L19.1721 8.50838L19.4326 8.25992C19.9098 7.80466 19.8752 7.1092 19.354 6.68075C19.1579 6.51951 18.7928 6.5024 15.4979 6.50034L11.8584 6.49807L11.5614 6.79941ZM25.5128 6.68075C25.2715 6.86961 20.204 18.8935 20.204 19.2773C20.204 19.6205 20.4345 20.0123 20.7267 20.1656C21.3372 20.486 21.8871 20.2482 22.2148 19.5221C22.3385 19.2481 22.7077 18.3744 23.0352 17.5805L23.6306 16.1372L26.1078 16.1103L28.5848 16.0834L29.3806 17.9911C30.2368 20.0435 30.4295 20.3125 31.0444 20.3125C31.5351 20.3125 31.9879 19.8454 31.9879 19.3394C31.9879 18.8081 27.1013 7.04776 26.7486 6.73003C26.435 6.44755 25.8411 6.42394 25.5128 6.68075ZM40.8899 8.10652C42.9872 9.11271 44.0187 12.09 43.1296 14.572C42.9912 14.9585 42.849 15.304 42.8137 15.3398C42.7785 15.3757 42.327 14.9781 41.8106 14.4562C40.6297 13.2626 40.1432 13.0953 39.5639 13.6832C39.3677 13.8822 39.3021 14.0548 39.3021 14.3712C39.3021 14.7688 39.3623 14.8549 40.3307 15.841C40.8964 16.417 41.3298 16.9367 41.2938 16.9958C41.1427 17.2439 40.0593 17.5544 39.3529 17.5519C38.0408 17.5473 36.853 16.838 36.0616 15.5864C34.6253 13.3149 35.195 9.87044 37.2436 8.44013C38.3381 7.6759 39.7271 7.54879 40.8899 8.10652ZM27.0023 12.2713L27.7059 13.9723L26.1756 14.0008C25.334 14.0165 24.6237 14.0073 24.5972 13.9804C24.557 13.9396 24.9232 13.017 25.9716 10.5187C26.1088 10.1919 26.1313 10.1773 26.211 10.364C26.2593 10.4774 26.6154 11.3357 27.0023 12.2713ZM19.3292 24.8444C18.6667 25.1228 18.4805 26.0019 18.9772 26.506C19.7218 27.2617 20.9696 26.5091 20.6393 25.5036C20.4745 25.0021 19.7824 24.6537 19.3292 24.8444Z" fill="#9E9E9E"/>
</svg>
