<svg width="48" height="50" viewBox="0 0 48 50" fill="none" xmlns="http://www.w3.org/2000/svg">
<path fill-rule="evenodd" clip-rule="evenodd" d="M19.2197 1.97284C17.4544 3.65597 16.1323 4.45303 14.1885 5.00555C13.3542 5.24272 12.8236 5.29875 11.4329 5.29611C8.89353 5.29123 6.99222 4.73977 4.89178 3.39915C3.74431 2.66655 3.19396 2.56399 2.75504 3.00075C2.39666 3.35736 2.41984 3.68181 2.89719 4.98327C3.74034 7.28219 3.8719 8.0869 3.8768 10.9767C3.88091 13.4419 3.85732 13.7046 3.51339 15.0161C2.90289 17.3453 2.1668 18.9515 0.818084 20.8972C-0.211071 22.3818 -0.252406 22.8333 0.599349 23.2848C1.08942 23.5445 1.5306 23.3245 2.16521 22.504C3.91217 20.2449 5.15675 17.3876 5.75069 14.2725C6.1598 12.1268 6.0195 8.34793 5.45537 6.32494L5.37138 6.0237L6.08362 6.31097C7.94532 7.06163 9.05238 7.26136 11.3667 7.2636C13.2079 7.26558 13.7197 7.22049 14.6126 6.97765C16.4659 6.47365 18.4177 5.43019 19.6943 4.26082L20.2717 3.73203L20.4893 4.01073C20.609 4.16405 20.9454 4.59647 21.2369 4.97193C22.325 6.37319 24.1181 7.55627 26.0726 8.16257C26.8906 8.41635 27.3592 8.47093 28.7224 8.47133C31.1613 8.47212 32.7792 7.94518 34.6388 6.54458C35.1182 6.18362 35.5216 5.90597 35.5352 5.92759C35.5489 5.94921 35.7317 6.40101 35.9417 6.93151C36.4051 8.10285 37.5691 9.91781 38.5131 10.9407C40.0076 12.5602 42.0245 13.8607 44.2585 14.6451C44.4665 14.7181 44.4423 14.7974 44.0406 15.3569C43.2985 16.3905 42.8196 17.2698 42.3253 18.5072C41.6128 20.2906 41.3972 21.4916 41.4054 23.6327C41.4134 25.6854 41.7006 27.1058 42.4866 28.9818C43.0635 30.3585 44.1323 31.9762 44.5757 32.1441C45.2343 32.3932 45.9456 31.8514 45.9456 31.1007C45.9456 30.9733 45.7917 30.6646 45.6035 30.4148C45.114 29.7649 44.307 28.1264 43.9837 27.1263C42.6956 23.1401 43.6784 18.6161 46.4868 15.6038C46.9667 15.0891 47.3957 14.5255 47.4403 14.3512C47.5768 13.8171 47.2114 13.3121 46.574 13.1539C43.8805 12.4855 42.0969 11.5448 40.4468 9.92203C38.7998 8.30232 37.8059 6.52612 37.2126 4.14204C36.8993 2.88276 36.6588 2.57783 36.0222 2.63175C35.6257 2.6655 35.4467 2.80801 34.7938 3.61035C32.0453 6.9878 27.2592 7.49721 23.8951 4.77036C23.0916 4.11897 22.1165 2.84558 21.7244 1.9354C21.4361 1.26621 21.2512 1.08151 20.7426 0.954427C20.422 0.874404 20.2536 0.986991 19.2197 1.97284ZM16.2334 10.5269C14.9766 10.8215 13.8154 11.7703 13.2756 12.9434C13.0728 13.3844 12.9016 14.1237 12.798 15.0063C12.6465 16.2987 12.6092 16.4098 12.1833 16.8433C11.3086 17.7334 6.65106 24.0356 6.35032 24.7358C5.63184 26.4088 5.50029 28.6183 6.00771 30.4881C6.12575 30.9232 7.0729 33.0885 8.11239 35.3C9.15174 37.5116 10.0789 39.5539 10.1726 39.8385C10.5228 40.9038 10.0929 43.9912 9.11677 47.4203C8.89684 48.1929 8.71692 48.9289 8.71692 49.0557C8.71692 49.3958 9.31735 49.9336 9.69719 49.9336C10.3216 49.9336 10.6577 49.4436 11.0986 47.8902C11.6298 46.0193 12.2722 42.8582 12.3741 41.6138C12.4991 40.0873 12.2374 39.2953 10.1158 34.7803C9.06126 32.5361 8.09715 30.3557 7.97341 29.9349C7.6573 28.8603 7.68538 27.164 8.03767 26.0639C8.27111 25.3349 8.71441 24.67 10.8673 21.8215C12.2714 19.9637 13.5572 18.3802 13.7245 18.3027C14.1918 18.0861 14.4285 18.1218 16.2848 18.689C17.3344 19.0097 18.2794 19.2174 18.6965 19.2191C19.6607 19.2229 20.9834 19.5216 21.3004 19.8071C21.7239 20.1886 21.6471 20.7909 21.0925 21.4356C20.058 22.6382 18.6017 23.3032 17.0026 23.3032C16.1078 23.3032 16.0328 23.2796 15.6404 22.8747C15.412 22.6391 15.0996 22.1496 14.946 21.7871C14.6244 21.0278 14.3754 20.7983 13.8733 20.7983C13.2896 20.7983 12.8918 21.2148 12.9075 21.8092C12.9345 22.8359 14.0782 24.5104 15.1102 25.0343C15.5278 25.2463 15.5964 25.3313 15.4712 25.4815C15.1589 25.8557 13.8675 26.6169 12.9936 26.9415C11.9228 27.3393 11.5875 27.6327 11.5875 28.172C11.5875 29.1873 12.5348 29.3703 14.1526 28.6672C15.3072 28.1656 16.1042 27.6459 16.9051 26.8724L17.4739 26.3232L17.9857 26.7266C18.7974 27.3664 19.4033 27.569 20.5277 27.5771L21.5407 27.5843L21.6181 28.1455C21.7148 28.8482 22.2211 29.8503 22.715 30.3162C23.301 30.8692 24.3107 31.2625 25.1675 31.2713L25.9186 31.2791L26.2004 31.9553C26.5216 32.7262 27.2012 33.4612 27.9076 33.8017C28.1736 33.93 28.794 34.0593 29.2865 34.0891C30.049 34.1354 30.2861 34.0927 30.8838 33.8017C32.4194 33.0541 33.9835 31.2177 34.6248 29.4096C35.0614 28.1784 35.054 27.4911 34.6001 27.136C34.1876 26.813 34.001 26.7985 33.5095 27.0513C33.2212 27.1998 33.0934 27.4176 32.9103 28.0725C32.5552 29.3434 31.9529 30.3447 31.0222 31.2109C30.0474 32.1184 29.4956 32.3003 28.7665 31.9544C28.2334 31.7014 27.8608 30.9692 27.9942 30.4364C28.1347 29.8759 30.6005 24.1919 30.8753 23.7956C31.2085 23.3149 31.768 23.0395 32.4109 23.0395C33.4688 23.0395 35.0954 24.6211 35.7565 26.2926C36.0006 26.91 36.0605 27.3187 36.062 28.3788C36.0637 29.5895 36.0228 29.8047 35.5593 31.0154C33.936 35.2572 32.0862 38.0614 28.9744 40.9983C27.9543 41.9611 26.9424 43.0231 26.7254 43.3585C26.2678 44.0662 25.6568 45.671 25.2008 47.3628C24.8156 48.7915 24.8037 49.1512 25.1281 49.5498C25.4213 49.9101 26.2255 49.9697 26.5423 49.6546C26.6528 49.5447 26.9178 48.7927 27.1311 47.9836C27.8089 45.4129 28.5821 43.8546 29.466 43.2784C30.1322 42.844 31.945 41.0233 32.956 39.7733C34.6631 37.6624 35.9996 35.3404 37.1623 32.4656C37.9005 30.6405 38.1245 29.7007 38.1269 28.4182C38.1297 27.0127 37.9352 26.199 37.2669 24.8192C36.6207 23.4847 35.7256 22.4573 34.5099 21.6541C33.9943 21.3134 33.7297 21.0435 33.6832 20.8108C33.0796 17.7912 31.0747 15.4329 28.8917 15.1749C28.2732 15.1018 28.2514 15.0835 27.9404 14.3812C26.8898 12.0078 23.935 10.9696 21.5511 12.1364L20.9381 12.4365L20.5115 11.9308C19.4924 10.7229 17.7859 10.1629 16.2334 10.5269ZM18.2294 12.678C18.6394 12.8903 19.0774 13.3413 19.3112 13.7917C19.4479 14.055 19.4216 14.2145 19.1371 14.8464C18.9528 15.2559 18.6966 15.9321 18.568 16.3489C18.4392 16.7658 18.2616 17.107 18.1733 17.107C18.0849 17.107 17.3471 16.8993 16.5336 16.6456C15.7202 16.3918 14.966 16.1841 14.8578 16.1841C14.7342 16.1841 14.6849 16.0983 14.7253 15.9534C14.7607 15.8265 14.8304 15.3674 14.8802 14.933C15.0193 13.7206 15.5467 12.9074 16.4011 12.588C16.7906 12.4423 17.8776 12.4958 18.2294 12.678ZM24.7189 13.884C25.3306 14.1383 25.8695 14.6417 26.0855 15.1602C26.2314 15.5109 26.2213 15.5707 25.9957 15.6908C25.4209 15.9969 24.5211 17.0983 24.0521 18.0698C23.7789 18.6356 23.5554 19.1592 23.5554 19.2336C23.5554 19.3078 23.3592 19.1126 23.1193 18.7996C22.5478 18.0542 21.9791 17.6857 21.0962 17.4892C20.6999 17.4008 20.3757 17.3066 20.3757 17.2795C20.3757 16.963 21.298 14.9943 21.6141 14.636C22.3928 13.7535 23.664 13.4455 24.7189 13.884ZM28.9055 17.2505C29.9322 17.5342 31.3225 19.2762 31.5794 20.6006C31.6526 20.9783 31.625 21.007 30.9659 21.2386C30.5242 21.3939 30.0543 21.7023 29.6602 22.0956C29.1239 22.6309 28.8856 23.083 27.8069 25.6103C26.3941 28.9207 26.1672 29.2357 25.1961 29.2357C24.6773 29.2357 24.5204 29.1677 24.1194 28.7686L23.65 28.3015L23.7234 27.0218C23.8593 24.6501 24.6735 21.5648 25.7943 19.1733C26.3535 17.9805 26.7247 17.5688 27.4843 17.2993C28.1117 17.0766 28.2579 17.0716 28.9055 17.2505ZM22.0987 23.9006C22.0338 24.1884 21.9465 24.5858 21.9049 24.7839C21.7592 25.4775 20.4342 25.7857 19.5513 25.3314L19.1375 25.1185L20.0547 24.6906C20.5592 24.4553 21.2382 24.0497 21.5639 23.7896C21.8894 23.5295 22.1695 23.3303 22.1864 23.3471C22.2032 23.3638 22.1638 23.613 22.0987 23.9006Z" fill="url(#paint0_linear_677_2484)"/>
<defs>
<linearGradient id="paint0_linear_677_2484" x1="0" y1="0.933594" x2="49.9626" y2="49.5721" gradientUnits="userSpaceOnUse">
<stop stop-color="#0ABD92"/>
<stop offset="1" stop-color="#009DB8"/>
</linearGradient>
</defs>
</svg>
