<svg width="69" height="70" viewBox="0 0 69 70" fill="none" xmlns="http://www.w3.org/2000/svg">
<g clip-path="url(#clip0_677_2613)">
<path d="M68.952 12.7276C68.814 12.217 68.3998 11.8305 67.8892 11.7339L10.5857 0.38916C10.2269 0.320153 9.84042 0.389152 9.53678 0.596173C9.23315 0.803195 9.02614 1.12064 8.95712 1.49328L8.54308 3.7291C8.41887 3.7015 8.28086 3.7015 8.15664 3.7429C7.92201 3.83951 2.56706 6.03395 1.06271 12.4654C0.993702 12.7552 1.11792 13.0589 1.38014 13.2107L7.99103 17.1027C8.00483 17.1165 8.01863 17.1027 8.04623 17.1165C8.10144 17.1441 8.15664 17.1717 8.21184 17.1855L14.2155 18.3724C14.2155 18.4552 14.2293 18.5518 14.2569 18.6346L15.9683 22.9822C16.0097 23.0788 16.0787 23.1616 16.1477 23.2306L15.7199 25.3973L0.690072 25.4249C0.303632 25.4249 0 25.7286 0 26.115V34.5615C0 34.7823 0.110411 34.9893 0.28983 35.1136C0.414043 35.1964 0.552057 35.2516 0.690072 35.2516C0.759079 35.2516 0.828086 35.2378 0.910894 35.224L18.2317 29.5654C18.3697 29.5792 18.4939 29.6068 18.6319 29.6068C19.2253 29.6068 19.8051 29.4273 20.3157 29.0961C20.992 28.6407 21.4474 27.9644 21.5992 27.164L22.1651 24.3346C22.2065 24.3208 22.2617 24.3209 22.3031 24.2932L26.8576 20.8705L27.3682 20.9671C27.3682 20.9809 27.3682 20.9947 27.3821 21.0085C27.4097 21.0361 29.4936 24.4865 28.3481 27.4814C27.6581 29.2617 25.9466 30.5866 23.2277 31.3872C18.1075 32.9053 17.1414 36.4523 17.8728 39.047C18.7561 42.1661 22.0823 44.7332 26.623 44.7332C27.3959 44.7332 28.2239 44.6228 29.0658 44.471L28.6793 46.7895C28.6241 47.1622 28.8726 47.521 29.2452 47.5762L32.8612 48.1696L32.3091 51.5511L31.5225 51.4269C31.343 51.3993 31.1636 51.4407 31.0118 51.5511C30.86 51.6615 30.7634 51.8133 30.7358 52.0065L29.811 57.6237C29.7834 57.8031 29.8248 57.9825 29.9352 58.1343C29.9766 58.2033 30.0456 58.2585 30.1148 58.2999H6.7765C6.39006 58.2999 6.08643 58.6035 6.08643 58.9899V66.222C6.08643 66.429 6.16923 66.6222 6.33485 66.7464C6.45906 66.8568 6.62469 66.912 6.7765 66.912C6.8179 66.912 6.8593 66.912 6.88692 66.8982L30.4598 62.8958L37.0983 63.9861C37.1397 63.9861 37.1673 63.9999 37.2087 63.9999C37.3467 63.9999 37.4985 63.9585 37.6089 63.8757C37.7607 63.7653 37.8573 63.6135 37.8849 63.4203L38.5336 59.5007C39.6101 59.3765 40.6451 59.0039 41.5561 58.3551C42.9362 57.3614 43.861 55.8847 44.137 54.2009C44.1922 53.8283 43.9438 53.4694 43.5712 53.4142L43.1018 53.3314C44.6338 51.7995 45.7931 48.777 46.29 45.7683C46.7868 42.7595 46.6488 39.5162 45.6827 37.5839L45.9173 37.6255C46.29 37.6807 46.6764 37.7221 47.049 37.7221C50.3752 37.7221 53.3149 35.3068 53.8669 31.9254C53.8945 31.746 53.8531 31.5666 53.7427 31.4148C53.6323 31.263 53.4805 31.1664 53.2873 31.1388L35.304 28.1852C35.1246 28.1576 34.9452 28.199 34.7934 28.3095C34.6416 28.4199 34.545 28.5717 34.5174 28.7649L33.5098 34.9065C33.4546 35.2792 33.703 35.638 34.0758 35.6932L34.8624 35.8174L34.2414 39.5852L30.6254 38.9918C30.2528 38.9228 29.8938 39.185 29.8386 39.5576L29.2728 43.0218C24.0559 44.2362 20.0673 41.8211 19.1701 38.6743C18.5905 36.6041 19.4463 33.9405 23.5867 32.7121C26.7334 31.7736 28.7622 30.1864 29.604 27.9644C30.5702 25.4111 29.7006 22.7336 29.052 21.3121L51.5898 25.77C51.6312 25.7838 51.6726 25.7838 51.7278 25.7838C51.8658 25.7838 52.0038 25.7424 52.1142 25.6734C52.266 25.5767 52.3764 25.4111 52.404 25.2317L53.0941 21.7676L57.8555 22.706C57.9383 22.7198 58.0349 22.7336 58.1179 22.7336C58.4491 22.7336 58.7665 22.6094 59.0287 22.3886L68.5378 14.1078C68.9244 13.7765 69.09 13.2383 68.952 12.7276ZM34.2828 47.7142L34.614 45.7407L36.2149 36.0382L42.674 37.1009L40.0793 52.8484L36.1321 52.1997L33.6203 51.7857L34.2828 47.7142ZM7.46657 59.6801H30.17L29.8524 61.5984L7.46657 65.4076V59.6801ZM36.6289 62.5232L31.2326 61.6398L31.7295 58.6587L34.9176 59.1833L37.1259 59.5421L36.6289 62.5232ZM40.7417 57.251C39.6515 58.0239 38.3266 58.3413 37.0155 58.1205L35.3316 57.8445L31.274 57.182H31.2326L31.9365 52.9174L32.7231 53.0416L33.6617 53.1934L42.6188 54.6701C42.2876 55.7053 41.6389 56.6024 40.7417 57.251ZM44.9099 45.5612C44.2336 49.6464 42.6464 52.1997 41.4871 52.8208L43.9852 37.5839C44.9099 38.5363 45.5861 41.4622 44.9099 45.5612ZM35.7457 29.6482L52.3212 32.3671C51.5484 35.0032 48.8985 36.7145 46.1106 36.259L43.654 35.8588L34.9452 34.4235L35.7457 29.6482ZM31.067 40.4686L33.9929 40.9515L33.3167 45.0368L33.0269 46.8309L30.101 46.3479L30.5288 43.7118C30.5288 43.7118 30.5288 43.7118 30.5288 43.698L31.067 40.4686ZM11.8968 16.5231L12.4489 13.7351L47.9462 20.7601L47.394 23.548L11.8968 16.5231ZM10.1164 10.4642L10.4891 8.44919C15.0021 9.34628 28.7898 12.079 28.7898 12.079C28.8312 12.0928 28.8864 12.0928 28.9278 12.0928C29.121 12.0928 29.3142 12.01 29.4384 11.8581L33.1786 7.67631L57.4691 12.4792L51.714 18.6898L10.1164 10.4642ZM31.6053 7.35888L28.6655 10.6436C26.4022 10.1882 14.7951 7.89714 10.7237 7.09666L11.4 3.37026L31.6053 7.35888ZM8.26706 5.21966L7.14915 11.2923C7.01113 12.0376 7.49417 12.7414 8.23946 12.8933L8.34987 12.9209L7.85301 15.4327L2.52566 12.2998C3.75399 7.86953 7.12153 5.81312 8.26706 5.21966ZM9.70241 13.1969L11.0825 13.4729L10.5305 16.2609L9.15035 15.9847L9.70241 13.1969ZM1.36634 26.8326L15.5543 26.8188C15.5957 27.3296 15.7475 27.8402 16.0511 28.2818C16.1615 28.4475 16.2857 28.5855 16.4099 28.7235L1.36634 33.6369V26.8326ZM20.2191 26.9156C20.1363 27.3434 19.8879 27.716 19.5153 27.9644C19.1425 28.2128 18.7147 28.2956 18.2731 28.2128H18.2455C17.3622 28.0334 16.7688 27.164 16.9482 26.2806L17.445 23.7688L20.7022 24.4175L20.2191 26.9156ZM21.6682 23.0236L17.1 22.154L15.7475 18.7036L24.9944 20.5393L21.6682 23.0236ZM51.1618 24.2932L48.7467 23.8102L49.2987 21.0223L51.714 21.5054L51.1618 24.2932ZM57.7037 19.8767L53.3011 19.0073L59.0563 12.7966L64.5906 13.887L57.7037 19.8767Z" fill="url(#paint0_linear_677_2613)"/>
<path d="M50.8306 50.4875C50.458 50.4323 50.0991 50.6669 50.0301 51.0396C49.9611 51.4122 50.2095 51.771 50.5822 51.84C50.7754 51.8814 50.9824 51.8952 51.1756 51.8952C52.7213 51.8952 54.1153 50.7911 54.4052 49.204C54.7226 47.4236 53.5495 45.7123 51.7691 45.3947C51.3964 45.3395 51.0376 45.5741 50.9686 45.9469C50.8996 46.3195 51.148 46.6783 51.5206 46.7473C52.5557 46.9406 53.2321 47.9204 53.0527 48.9556C52.8455 49.9907 51.8519 50.6669 50.8306 50.4875Z" fill="url(#paint1_linear_677_2613)"/>
<path d="M49.2849 55.1117C49.2159 55.4843 49.4644 55.8431 49.837 55.9121C50.2925 55.9949 50.7341 56.0363 51.1757 56.0363C54.6813 56.0363 57.8142 53.5245 58.4767 49.95C58.8355 48.0039 58.4077 46.0304 57.276 44.4018C56.1442 42.7731 54.4605 41.6828 52.5006 41.324C52.128 41.255 51.7692 41.5034 51.7002 41.8761C51.6312 42.2487 51.8796 42.6076 52.2522 42.6766C53.8394 42.9665 55.2195 43.8497 56.1304 45.1884C57.0414 46.5134 57.4002 48.1281 57.0966 49.7016C56.503 52.9725 53.3702 55.1669 50.0717 54.5596C49.7265 54.4906 49.3539 54.739 49.2849 55.1117Z" fill="url(#paint2_linear_677_2613)"/>
<path d="M53.1635 37.7346C52.7907 37.6794 52.4319 37.914 52.3629 38.2866C52.2939 38.6592 52.5423 39.018 52.9151 39.0871C58.1733 40.0531 61.6651 45.1045 60.699 50.349C59.7468 55.6074 54.6816 59.0992 49.4371 58.1331C49.0645 58.0641 48.7055 58.3125 48.6365 58.6851C48.5675 59.0577 48.8159 59.4166 49.1887 59.4856C49.8649 59.6098 50.5274 59.665 51.2036 59.665C53.4257 59.665 55.6063 58.9887 57.4695 57.7053C59.8986 56.0214 61.5271 53.4957 62.0653 50.5974C62.6036 47.6992 61.9687 44.7457 60.285 42.3166C58.6012 39.9013 56.0617 38.259 53.1635 37.7346Z" fill="url(#paint3_linear_677_2613)"/>
</g>
<defs>
<linearGradient id="paint0_linear_677_2613" x1="0" y1="0.363281" x2="67.8233" y2="71.0296" gradientUnits="userSpaceOnUse">
<stop stop-color="#0ABD92"/>
<stop offset="1" stop-color="#009DB8"/>
</linearGradient>
<linearGradient id="paint1_linear_677_2613" x1="50.0186" y1="45.3867" x2="56.2099" y2="49.6296" gradientUnits="userSpaceOnUse">
<stop stop-color="#0ABD92"/>
<stop offset="1" stop-color="#009DB8"/>
</linearGradient>
<linearGradient id="paint2_linear_677_2613" x1="49.2734" y1="41.3125" x2="62.8803" y2="49.9742" gradientUnits="userSpaceOnUse">
<stop stop-color="#0ABD92"/>
<stop offset="1" stop-color="#009DB8"/>
</linearGradient>
<linearGradient id="paint3_linear_677_2613" x1="48.625" y1="37.7266" x2="68.7282" y2="50.2749" gradientUnits="userSpaceOnUse">
<stop stop-color="#0ABD92"/>
<stop offset="1" stop-color="#009DB8"/>
</linearGradient>
<clipPath id="clip0_677_2613">
<rect width="69" height="69" fill="white" transform="translate(0 0.367188)"/>
</clipPath>
</defs>
</svg>
