<svg width="50" height="33" viewBox="0 0 50 33" fill="none" xmlns="http://www.w3.org/2000/svg">
<path fill-rule="evenodd" clip-rule="evenodd" d="M21.6817 0.374973C16.9251 0.61818 11.9433 1.43803 7.27756 2.74556C5.5702 3.22401 4.70178 3.58415 3.77422 4.19839C1.88943 5.44647 0.558108 7.49081 0.163524 9.74309C-0.0545079 10.9871 -0.0545079 21.6019 0.163524 22.846C0.662732 25.6951 2.64863 28.1484 5.31615 29.2115C6.2767 29.5942 9.13307 30.3735 11.179 30.8109C21.1947 32.9524 31.2386 32.7696 41.1523 30.2654C44.7151 29.3654 46.0047 28.7833 47.3584 27.4642C48.6895 26.1668 49.5286 24.6032 49.8365 22.846C50.0545 21.6019 50.0545 10.9871 49.8365 9.74309C49.42 7.36639 47.975 5.2563 45.8887 3.97859C44.9835 3.42419 43.7616 2.99489 41.2864 2.36171C34.8217 0.708024 28.2307 0.0400782 21.6817 0.374973ZM27.8791 3.27976C32.3537 3.51073 36.1152 4.07144 40.3712 5.14198C43.6317 5.96212 44.5223 6.35335 45.5482 7.41582C46.177 8.06716 46.615 8.87565 46.8642 9.84488C47.0454 10.5501 47.0569 10.9366 47.0569 16.2945C47.0569 21.6156 47.0443 22.0428 46.8678 22.7301C46.5482 23.9733 45.8976 24.9955 44.9763 25.7015C44.0149 26.4384 43.1733 26.7528 40.1427 27.5073C30.0627 30.017 19.7925 30.0023 9.72607 27.4638C8.49147 27.1525 7.15195 26.7789 6.74937 26.6338C4.85511 25.9507 3.61767 24.6188 3.13584 22.7442C2.9546 22.0389 2.94308 21.6525 2.94308 16.2945C2.94308 10.9366 2.9546 10.5501 3.13584 9.84488C3.61777 7.96965 4.85774 6.63541 6.74937 5.95649C7.15195 5.81206 8.40363 5.45813 9.53088 5.17005C15.6144 3.61543 21.8786 2.97012 27.8791 3.27976ZM11.434 16.2945V24.0647H12.898H14.3619V20.9566V17.8486H16.5117H18.6614L18.6344 16.4159L18.6074 14.9833L16.4847 14.9571L14.3619 14.931V13.1845V11.4382H17.729H21.0961V9.98125V8.52434H16.2651H11.434V16.2945ZM24.6096 16.2945V24.0647H26.0727H27.5358L27.561 19.1515L27.5863 14.2384L29.1701 16.6301L30.7538 19.0218L31.6101 18.9936L32.4662 18.9655L34.0277 16.6475L35.5893 14.3293L35.6146 19.1971L35.6398 24.0647H37.1029H38.566V16.2945V8.52434H37.2439H35.922L33.8036 11.7252C32.6386 13.4856 31.6593 14.9279 31.6274 14.9304C31.5956 14.9328 30.6074 13.4936 29.4315 11.7321L27.2935 8.52929L25.9516 8.52687L24.6096 8.52434V16.2945Z" fill="url(#paint0_linear_825_2890)"/>
<defs>
<linearGradient id="paint0_linear_825_2890" x1="0" y1="0.291016" x2="29.5785" y2="46.7339" gradientUnits="userSpaceOnUse">
<stop stop-color="#0ABD92"/>
<stop offset="1" stop-color="#009DB8"/>
</linearGradient>
</defs>
</svg>
