<svg width="26" height="28" viewBox="0 0 26 28" fill="none" xmlns="http://www.w3.org/2000/svg">
<path fill-rule="evenodd" clip-rule="evenodd" d="M2.805 0.39733C2.51199 0.450488 1.94599 0.645453 1.84255 0.728919C1.78923 0.771922 1.80027 0.810799 1.89514 0.9141C2.18784 1.23278 10.3148 8.8101 12.7965 11.0781C13.2877 11.527 13.7528 11.9522 13.8301 12.0229L13.9706 12.1515L16.0269 10.0999C17.1578 8.97148 18.0648 8.03167 18.0424 8.01141C18.0047 7.97735 12.6919 5.02583 7.66832 2.24818C4.97643 0.759756 4.55395 0.541941 4.19756 0.458951C3.8111 0.368926 3.12826 0.338724 2.805 0.39733ZM0.284503 2.30044C0.205991 2.47636 0.11654 2.7449 0.0856712 2.89719C0.0104716 3.26844 -0.035437 22.0632 0.0347669 23.7497C0.0781513 24.7912 0.101605 25.0073 0.19784 25.2513C0.259682 25.408 0.343664 25.5842 0.384524 25.6428C0.454675 25.7436 0.795703 25.4111 6.6181 19.566L12.7775 13.3826L12.4436 13.0652C11.1629 11.848 0.527824 2.01661 0.468926 1.99551C0.445998 1.98731 0.362963 2.12446 0.284503 2.30044ZM17.3907 11.1214L15.1948 13.3297L17.9015 15.8317L20.6082 18.3337L21.724 17.7157C23.6929 16.625 23.9186 16.4831 24.2895 16.1025C24.8538 15.5231 25.2324 14.633 25.2324 13.8851C25.2324 12.892 24.592 11.7351 23.7465 11.2006C23.2081 10.8603 19.6994 8.91309 19.6246 8.91309C19.6038 8.91309 18.5985 9.9068 17.3907 11.1214ZM7.97784 20.5892C4.66622 23.9275 1.90314 26.7364 1.83756 26.831L1.71845 27.0032L1.96177 27.1081C2.48901 27.3354 2.79175 27.3977 3.35617 27.3953C4.37547 27.3908 3.54149 27.8077 12.6904 22.7293C15.7562 21.0275 18.4124 19.5532 18.5931 19.4529C18.7738 19.3527 18.9331 19.252 18.9472 19.2291C18.9814 19.1733 18.0359 18.2563 15.9767 16.3482C15.0369 15.4774 14.2075 14.7097 14.1335 14.6422L13.999 14.5195L7.97784 20.5892Z" fill="url(#paint0_linear_677_2768)"/>
<defs>
<linearGradient id="paint0_linear_677_2768" x1="0" y1="0.367188" x2="27.5192" y2="26.1777" gradientUnits="userSpaceOnUse">
<stop stop-color="#0ABD92"/>
<stop offset="1" stop-color="#009DB8"/>
</linearGradient>
</defs>
</svg>
