<svg width="31" height="36" viewBox="0 0 31 36" fill="none" xmlns="http://www.w3.org/2000/svg">
<path fill-rule="evenodd" clip-rule="evenodd" d="M10.4531 0.830646C9.84443 1.06488 9.3334 1.6408 8.6202 2.89629C7.62744 4.64392 7.4891 4.75175 5.82263 5.07689C4.15835 5.40157 3.41133 5.73127 2.94287 6.34763C2.44453 7.0033 2.37363 7.64937 2.58841 9.57642C2.77361 11.2373 2.70747 11.43 1.5036 12.7382C0.288046 14.0592 0.00160294 14.5721 7.03769e-06 15.4308C-0.00158198 16.2877 0.265215 16.7693 1.51141 18.1589C2.73773 19.5264 2.77436 19.6377 2.57688 21.3931C2.41928 22.7944 2.4503 23.5516 2.68783 24.0982C2.84572 24.4614 3.28339 24.9451 3.6365 25.1466C3.76247 25.2184 3.61929 25.4966 2.09575 28.1399C0.982352 30.0717 0.416138 31.1268 0.416138 31.2699C0.416138 31.5376 0.720026 31.8585 0.973479 31.8585C1.07526 31.8585 2.24227 31.5665 3.5668 31.2096C4.89137 30.8528 6.00031 30.5882 6.03126 30.6215C6.06229 30.655 6.37947 31.775 6.73614 33.1105C7.29581 35.2058 7.41185 35.5619 7.58286 35.7093C7.69183 35.8032 7.86249 35.88 7.96217 35.88C8.06177 35.88 8.22645 35.8032 8.32812 35.7093C8.42979 35.6155 9.19975 34.3407 10.0392 32.8768L11.5654 30.215L11.9631 30.1233C12.1819 30.0728 12.7874 29.8411 13.3088 29.6084C14.5451 29.0567 15.0087 28.8988 15.3874 28.9008C15.7438 28.9026 16.3183 29.1007 17.5558 29.6486C18.0355 29.8609 18.5992 30.0731 18.8084 30.12L19.1889 30.2054L20.7389 32.8977C21.5914 34.3784 22.3719 35.6553 22.4732 35.735C22.8062 35.997 23.218 35.8663 23.381 35.4467C23.4262 35.3303 23.7409 34.1936 24.0803 32.9207C24.4199 31.6479 24.7105 30.5935 24.7263 30.5776C24.742 30.5618 25.8449 30.8435 27.1771 31.2036C29.5942 31.8571 29.7964 31.9002 30.028 31.8114C30.203 31.7441 30.3926 31.3413 30.3428 31.1425C30.3195 31.0499 29.5476 29.6834 28.6273 28.1058C27.707 26.5282 26.9639 25.2321 26.9759 25.2255C27.5461 24.9121 27.9318 24.4702 28.1323 23.9006C28.2688 23.513 28.2871 22.3144 28.1691 21.501C28.1267 21.2089 28.0895 20.6896 28.0864 20.3471C28.079 19.5182 28.1964 19.2938 29.2226 18.1739C30.403 16.8855 30.7421 16.2802 30.7485 15.4506C30.7548 14.6316 30.3722 13.9643 29.0867 12.5515C28.2066 11.5843 28.097 11.3603 28.099 10.5316C28.0998 10.1796 28.1364 9.65257 28.1803 9.3605C28.2243 9.06835 28.2638 8.5049 28.2681 8.10847C28.2791 7.114 28.1286 6.68581 27.5729 6.12978C27.0518 5.60842 26.6736 5.45476 25.0639 5.11035C24.4174 4.97202 23.7616 4.80471 23.6066 4.73855C23.1577 4.5468 22.8464 4.17052 22.2236 3.06656C21.4677 1.7267 21.0414 1.21376 20.4293 0.907739C19.608 0.49716 18.962 0.57873 17.386 1.29184C15.4376 2.17354 15.2672 2.17347 13.3629 1.28956C12.0118 0.662424 11.2164 0.536997 10.4531 0.830646ZM10.9162 1.9931C10.564 2.14661 10.138 2.68557 9.57499 3.69013C8.49831 5.61115 8.15698 5.85791 5.92161 6.33093C4.62909 6.60448 4.11702 6.80761 3.87312 7.14344C3.65888 7.43845 3.63377 8.14018 3.78856 9.50199C4.01138 11.4626 3.84604 11.9419 2.38409 13.5728C1.43564 14.631 1.17407 15.0423 1.17522 15.4737C1.17627 15.8465 1.5375 16.4286 2.21906 17.1559C3.82739 18.8723 4.0113 19.3569 3.79622 21.3116C3.64901 22.6497 3.64568 23.2893 3.78409 23.6208C3.94099 23.9966 4.42348 24.2431 5.43198 24.4629C6.98915 24.8021 7.24903 24.8724 7.70758 25.0783C8.32688 25.3564 8.89473 25.9943 9.52986 27.1255C10.1549 28.2383 10.437 28.6322 10.7515 28.8306C11.1291 29.0688 11.6629 28.9914 12.6263 28.5588C14.1118 27.8916 14.5307 27.749 15.1289 27.7066C15.8813 27.6534 16.3555 27.781 17.7395 28.4097C19.7764 29.335 19.9914 29.2545 21.183 27.1203C21.8111 25.9953 22.3792 25.3595 23.0083 25.0769C23.4639 24.8724 23.7256 24.8017 25.2771 24.4637C27.0672 24.0738 27.2036 23.8165 26.9166 21.3754C26.6872 19.4231 26.8782 18.8996 28.4329 17.2208C29.1865 16.4071 29.5367 15.8533 29.5378 15.4737C29.5389 15.0401 29.2681 14.6137 28.3215 13.5584C26.864 11.9337 26.7017 11.462 26.9244 9.50199C27.0792 8.14018 27.0541 7.43845 26.8398 7.14344C26.5942 6.8051 26.0814 6.60387 24.7534 6.32441C22.6257 5.87673 22.2036 5.57382 21.1818 3.76176C20.5581 2.6556 20.0978 2.08796 19.7248 1.9648C19.3664 1.84643 18.9498 1.95691 17.7607 2.48563C16.3568 3.10989 16.021 3.21118 15.3565 3.21126C14.6955 3.21134 14.1623 3.04956 12.9467 2.48017C12.2414 2.14987 11.4575 1.88066 11.2263 1.88938C11.1829 1.89105 11.0434 1.93772 10.9162 1.9931ZM13.8018 6.1014C12.5622 6.31007 11.1626 6.87627 10.0201 7.63135C9.31146 8.09967 8.04533 9.364 7.56663 10.0813C5.11706 13.7518 5.38988 18.4143 8.24489 21.6727C10.7322 24.5115 14.6292 25.5898 18.2706 24.4468C19.5809 24.0356 21.0374 23.1356 22.0528 22.1096C25.2821 18.8465 25.7274 13.9488 23.1463 10.0813C22.6646 9.35946 21.4045 8.1073 20.6653 7.61594C18.621 6.2571 16.1354 5.70866 13.8018 6.1014ZM14.0547 7.31501C11.8941 7.65178 9.78032 8.99935 8.53511 10.8339C7.79886 11.9187 7.28597 13.3621 7.17391 14.6647C6.75547 19.5299 10.5142 23.6635 15.3565 23.6635C20.1859 23.6635 23.9812 19.5081 23.539 14.7048C23.3644 12.8087 22.6195 11.1676 21.3068 9.78754C19.4154 7.79899 16.7596 6.8935 14.0547 7.31501ZM17.2475 14.6779L14.0694 17.8543L12.2228 16.0164C10.6261 14.4276 10.345 14.1787 10.1463 14.1787C9.78954 14.1787 9.51686 14.4367 9.51686 14.7741C9.51686 15.0408 9.62431 15.1622 11.6623 17.1966C13.6416 19.1725 13.8281 19.3385 14.0693 19.3385C14.313 19.3385 14.5648 19.1044 17.7635 15.9041C21.0278 12.6379 21.1961 12.4561 21.1961 12.1944C21.1961 11.8504 21.0059 11.6139 20.678 11.5505C20.4287 11.5022 20.3843 11.5428 17.2475 14.6779ZM3.61663 27.9233C2.89502 29.1793 2.31553 30.2178 2.3288 30.2312C2.34216 30.2444 3.23964 30.0185 4.32338 29.7291C5.40707 29.4396 6.38759 29.2028 6.50226 29.2027C6.61693 29.2027 6.77714 29.2691 6.85831 29.3503C7.02554 29.5176 7.05099 29.5987 7.66321 31.9154C7.90851 32.844 8.1274 33.6024 8.14948 33.6008C8.17163 33.5992 8.65487 32.7834 9.22348 31.7881L10.2574 29.9781L9.92705 29.7452C9.5267 29.4629 9.04476 28.8219 8.56338 27.9318C7.99629 26.8829 7.65695 26.4389 7.25653 26.2216C6.9767 26.0698 5.26331 25.6297 4.98423 25.6381C4.95362 25.639 4.33817 26.6673 3.61663 27.9233ZM24.8213 25.8224C23.2774 26.1455 23.069 26.3057 22.2129 27.8271C21.6145 28.8908 21.1673 29.4921 20.7497 29.7947L20.4584 30.0059L21.4909 31.8023C22.0587 32.7904 22.5413 33.5999 22.5635 33.6013C22.5856 33.6026 22.8044 32.844 23.0497 31.9154C23.662 29.5987 23.6874 29.5176 23.8546 29.3503C23.9358 29.2691 24.094 29.2027 24.2062 29.2027C24.3185 29.2027 25.2958 29.4428 26.3779 29.7363C27.4601 30.0297 28.3571 30.2582 28.3713 30.244C28.4151 30.2001 25.7884 25.6879 25.7083 25.6697C25.6667 25.6603 25.2676 25.729 24.8213 25.8224Z" fill="url(#paint0_linear_804_5961)"/>
<defs>
<linearGradient id="paint0_linear_804_5961" x1="0" y1="0.660156" x2="35.6192" y2="31.9098" gradientUnits="userSpaceOnUse">
<stop stop-color="#0ABD92"/>
<stop offset="1" stop-color="#009DB8"/>
</linearGradient>
</defs>
</svg>
