<svg width="50" height="56" viewBox="0 0 50 56" fill="none" xmlns="http://www.w3.org/2000/svg">
<path fill-rule="evenodd" clip-rule="evenodd" d="M24.5548 0.980635C24.3006 1.18618 24.3003 1.18919 24.3003 3.68184C24.3003 6.17449 24.3006 6.17751 24.5548 6.38305C24.8948 6.65804 25.2362 6.64275 25.5212 6.33977C25.7475 6.09913 25.7556 6.00707 25.7556 3.66677C25.7556 1.27242 25.7526 1.24012 25.5061 1.00884C25.1985 0.720183 24.8881 0.711032 24.5548 0.980635ZM7.38988 8.04309C7.12964 8.30301 7.08296 8.60168 7.25189 8.92534C7.33846 9.09115 8.13588 9.94152 9.02386 10.8149C10.2739 12.0446 10.7019 12.4031 10.9202 12.4031C11.3079 12.4031 11.6333 12.0485 11.6333 11.6262C11.6333 11.3228 11.423 11.07 9.93167 9.5805C8.45638 8.10694 8.18504 7.88094 7.89116 7.88094C7.70477 7.88094 7.47914 7.95394 7.38988 8.04309ZM40.1241 9.63423C38.2474 11.5084 38.1184 11.7225 38.5842 12.1877C39.054 12.6569 39.2718 12.5264 41.1457 10.6522C43.0291 8.76878 43.1413 8.57896 42.6469 8.11502C42.1641 7.66216 41.9989 7.76165 40.1241 9.63423ZM23.4456 10.0481C20.7669 10.3053 18.0114 11.3611 15.7209 13.0083C14.6936 13.7471 13.1235 15.3151 12.2842 16.4407C11.0649 18.0754 10.0063 20.4563 9.53139 22.6316C9.28754 23.7483 9.20055 26.4486 9.36602 27.7657C9.65278 30.0488 10.5787 32.4929 11.9253 34.5211C12.7996 35.8378 14.6516 37.7362 15.9185 38.6143L16.8079 39.2306V41.1006C16.8079 42.129 16.8608 43.2173 16.9256 43.5188C17.0622 44.1549 17.5583 44.8595 18.1327 45.2334L18.5328 45.4936L18.5336 47.6021C18.5341 48.7617 18.5854 50.0241 18.6477 50.4075C19.256 54.1528 22.9295 56.6145 26.5354 55.6934C28.4643 55.2007 29.9746 53.9982 30.8077 52.2918C31.3857 51.1077 31.4889 50.4225 31.4752 47.8596L31.463 45.5782L31.8463 45.3966C32.3992 45.1345 33.0593 44.3356 33.2485 43.6995C33.3664 43.3026 33.4096 42.617 33.4096 41.1406V39.124L34.1113 38.6239C36.9744 36.5833 39.0106 33.7991 40.0804 30.4618C40.6258 28.7607 40.7871 27.6504 40.7802 25.6464C40.7735 23.6875 40.5731 22.4374 39.983 20.6717C38.6683 16.7386 35.5916 13.2944 31.788 11.4984C30.0111 10.6595 28.5143 10.2529 26.4179 10.04C25.1746 9.91374 24.8358 9.91471 23.4456 10.0481ZM27.1396 11.6034C33.4611 12.5409 38.3289 17.4938 39.2404 23.9154C39.4111 25.1182 39.304 27.5705 39.0284 28.7688C38.6218 30.5365 37.8612 32.2859 36.8285 33.8284C36.1057 34.908 34.1186 36.8684 32.9605 37.6443C32.4228 38.0046 32.0003 38.3673 31.9649 38.4992C31.931 38.6252 31.9024 39.7457 31.9015 40.9893C31.8997 43.0657 31.8819 43.2794 31.682 43.6067C31.2733 44.2763 31.3041 44.2732 25.1088 44.2732C18.9134 44.2732 18.9443 44.2763 18.5356 43.6067C18.3355 43.2789 18.3179 43.0673 18.3176 40.9712C18.3174 39.7176 18.2885 38.6174 18.2534 38.5263C18.2185 38.4351 17.697 38.0348 17.0946 37.6366C13.9425 35.553 11.6563 32.0809 10.9202 28.2595C10.6715 26.9682 10.6724 24.5106 10.9221 23.2277C11.477 20.3763 12.7022 17.9691 14.63 15.9425C17.9176 12.4862 22.4625 10.9098 27.1396 11.6034ZM24.5293 13.6779C24.2797 13.9563 24.2689 14.3915 24.5051 14.6522C24.6411 14.8024 24.9669 14.8772 25.893 14.971C28.64 15.2492 30.814 16.2544 32.6632 18.1013C34.5886 20.0243 35.6335 22.3421 35.8514 25.1733C35.9136 25.9819 35.9534 26.1119 36.1972 26.3035C36.5087 26.5481 36.9277 26.5059 37.1661 26.2057C37.3758 25.9416 37.262 23.8856 36.9782 22.8099C36.3858 20.5658 35.4058 18.839 33.787 17.1866C31.5826 14.9367 28.8632 13.6761 25.8634 13.5138C24.8092 13.4567 24.7176 13.4679 24.5293 13.6779ZM0.210384 25.236C-0.0686112 25.535 -0.0702282 25.9087 0.20618 26.1847C0.409497 26.3878 0.565489 26.4001 2.94902 26.4001C5.43842 26.4001 5.47885 26.3965 5.64411 26.1607C5.87308 25.8344 5.85486 25.4739 5.59635 25.2157C5.39325 25.0128 5.23704 25.0004 2.90547 25.0004C0.497896 25.0004 0.424158 25.0068 0.210384 25.236ZM44.4812 25.218C44.1137 25.5066 44.0961 25.9514 44.4394 26.2737C44.6802 26.4994 44.7733 26.5077 47.0856 26.5077H49.4822L49.7467 26.2434C50.0647 25.9259 50.0821 25.6498 49.8055 25.3084C49.6017 25.0569 49.5742 25.0539 47.186 25.0217C44.8629 24.9905 44.7613 24.9978 44.4812 25.218ZM30.0677 47.2341V48.6876H25.0549H20.042V47.2341V45.7805H25.0549H30.0677V47.2341ZM29.9057 50.5449C29.7797 51.1626 29.249 52.1716 28.7631 52.7175C26.8578 54.8578 23.5352 54.9711 21.5258 52.9642C20.8936 52.3327 20.2977 51.2791 20.1868 50.596L20.1216 50.195H25.0494H29.9771L29.9057 50.5449Z" fill="url(#paint0_linear_677_2408)"/>
<defs>
<linearGradient id="paint0_linear_677_2408" x1="0" y1="0.785156" x2="55.9663" y2="51.8184" gradientUnits="userSpaceOnUse">
<stop stop-color="#0ABD92"/>
<stop offset="1" stop-color="#009DB8"/>
</linearGradient>
</defs>
</svg>
