<svg width="42" height="41" viewBox="0 0 42 41" fill="none" xmlns="http://www.w3.org/2000/svg">
<path fill-rule="evenodd" clip-rule="evenodd" d="M16.6453 3.33333C14.3698 4.6167 12.4499 5.72047 12.3788 5.78611C12.268 5.8885 12.2432 6.56068 12.2063 10.4769L12.1632 15.0482L8.38388 17.1786C6.30519 18.3503 4.52065 19.3911 4.41823 19.4914C4.23236 19.6735 4.23185 19.6853 4.20823 24.3579C4.18874 28.2176 4.20581 29.0904 4.30504 29.3185C4.41099 29.5623 4.90661 29.8676 8.45656 31.8762C10.6737 33.1307 12.607 34.208 12.7527 34.2701C13.0952 34.416 12.8478 34.5385 17.2662 32.0362C19.2738 30.8993 20.9682 29.9497 21.0314 29.9259C21.0947 29.9021 22.8882 30.8664 25.0171 32.0687C27.1461 33.2709 28.958 34.2799 29.0436 34.3107C29.1292 34.3414 29.3232 34.3158 29.4747 34.2537C30.0558 34.0157 37.605 29.6997 37.7891 29.5003L37.9831 29.2902V19.6617L37.7891 19.4755C37.6824 19.373 35.8401 18.3008 33.6952 17.0928L29.7952 14.8964L29.7942 10.5287C29.7935 7.60557 29.7626 6.09538 29.7008 5.96241C29.5863 5.71625 29.974 5.95 25.2275 3.26541C22.8475 1.91928 21.1329 1 21.0023 1C20.8718 1 19.1013 1.94817 16.6453 3.33333ZM24.744 4.54802L28.4105 6.6177L28.4138 15.0049L21.1102 19.16L13.5857 14.8988L13.5916 6.6177L17.2741 4.53332C19.2995 3.38689 20.9838 2.45553 21.0171 2.46364C21.0503 2.47175 22.7274 3.4097 24.744 4.54802ZM8.20491 6.92241C6.91633 7.10657 5.83587 7.51172 4.75635 8.21575C2.59446 9.62558 1.19804 11.9736 1.02683 14.4868C0.975617 15.2385 0.980359 15.2659 1.19821 15.4794C1.68038 15.9519 2.37782 15.6223 2.37911 14.9213C2.38101 13.859 2.8237 12.4226 3.45544 11.4294C4.60677 9.61924 6.49313 8.48388 8.77372 8.22825C9.79065 8.11429 9.92764 8.04637 10.0162 7.61258C10.0624 7.38585 10.0292 7.30129 9.80919 7.0857C9.52039 6.8027 9.24115 6.77432 8.20491 6.92241ZM32.2017 7.07447C31.9711 7.30044 31.9366 7.38509 31.9817 7.61368C32.0643 8.03302 32.2769 8.14783 33.0838 8.20899C35.319 8.37828 37.2699 9.50959 38.4931 11.3458C39.1673 12.3578 39.6211 13.7184 39.6211 14.7281C39.6211 15.1547 39.7961 15.565 40.0129 15.6465C40.3069 15.7571 40.6293 15.6951 40.8257 15.4902C41.0151 15.2925 41.0231 15.2377 40.9755 14.4554C40.8571 12.5115 40.0194 10.7116 38.5722 9.29206C37.8762 8.60924 36.8248 7.88257 36.0362 7.53926C35.3267 7.23033 34.0887 6.93474 33.2131 6.86505L32.4753 6.80642L32.2017 7.07447ZM22.6158 7.59104C21.6789 7.82293 20.7796 8.54301 20.3472 9.40729C20.1164 9.86845 20.0945 9.98942 20.0945 10.8011C20.0945 11.6326 20.1126 11.7257 20.3739 12.246C20.7105 12.9159 21.3271 13.5091 22.0155 13.8253C22.4442 14.0222 22.615 14.0512 23.3274 14.0484C24.4611 14.0438 24.9862 13.8356 25.7491 13.0879C26.426 12.4246 26.7049 11.8209 26.7219 10.9823C26.7381 10.1776 26.6402 10.1235 25.1675 10.1235C24.0527 10.1235 24.0013 10.1313 23.7977 10.3309C23.6642 10.4616 23.586 10.6347 23.586 10.7993C23.586 10.9639 23.6642 11.137 23.7977 11.2677C23.9823 11.4487 24.0867 11.4751 24.6167 11.4751C24.9507 11.4751 25.224 11.5074 25.224 11.5469C25.224 11.7727 24.6531 12.3521 24.249 12.5365C22.8957 13.1538 21.4271 12.2607 21.4327 10.8238C21.4351 10.2094 21.6414 9.75365 22.1009 9.34774C22.8347 8.69938 23.7382 8.69262 24.6803 9.32847C25.0473 9.57608 25.178 9.62144 25.3923 9.57532C25.7152 9.50579 25.9137 9.24383 25.9137 8.88691C25.9137 8.53397 25.3159 8.00481 24.6332 7.75349C24.0823 7.55066 23.0989 7.47151 22.6158 7.59104ZM15.4353 7.96553C15.1678 8.22757 15.166 8.52772 15.4299 8.82837C15.6156 9.03999 15.7016 9.0666 16.296 9.09599L16.9558 9.1286L16.4777 9.61975C15.9228 10.1898 15.8559 10.4973 16.2112 10.8453C16.3867 11.0174 16.5079 11.053 16.9224 11.054C17.5468 11.0555 17.8112 11.1815 18.0055 11.5701C18.1378 11.8345 18.1435 11.9182 18.0486 12.203C17.8869 12.6884 17.5445 12.8265 16.5016 12.8266C15.703 12.8267 15.6596 12.8363 15.4886 13.0493C15.1281 13.4984 15.3606 14.0321 15.9651 14.1433C16.4445 14.2314 17.8157 14.1278 18.1732 13.9764C19.6105 13.3676 20.0107 11.4594 18.9249 10.392C18.7679 10.2376 18.5268 10.0542 18.3891 9.98444L18.1388 9.85764L18.7072 9.28075C19.3389 8.63948 19.4169 8.37938 19.0968 7.98073L18.9182 7.75814H17.2825C15.6609 7.75814 15.6451 7.75991 15.4353 7.96553ZM7.92456 9.23851C6.69081 9.56433 5.74224 10.116 4.91894 10.9868C4.00572 11.9524 3.51381 12.9827 3.33009 14.3144C3.22492 15.0767 3.28311 15.3468 3.59907 15.5637C3.86373 15.7453 4.12003 15.734 4.38599 15.5291C4.56962 15.3875 4.61557 15.2644 4.66178 14.7899C4.74264 13.9587 4.99825 13.1863 5.38792 12.5954C6.22691 11.3235 7.3829 10.6329 8.96459 10.4587C9.55461 10.3937 9.69324 10.3479 9.85712 10.1634C10.0989 9.89143 10.1038 9.62059 9.87238 9.33236C9.70625 9.12531 9.64746 9.11019 9.03184 9.11534C8.66786 9.11838 8.16957 9.1738 7.92456 9.23851ZM32.1355 9.32172C31.896 9.62017 31.8981 9.88856 32.1423 10.1634C32.3062 10.3479 32.4449 10.3937 33.0349 10.4587C35.4548 10.7252 37.1037 12.385 37.3377 14.7899C37.3839 15.2644 37.4299 15.3875 37.6135 15.5291C37.8794 15.734 38.1357 15.7453 38.4004 15.5637C38.7164 15.3468 38.7746 15.0767 38.6694 14.3144C38.4863 12.9873 37.9935 11.9522 37.0897 10.9963C36.0332 9.87892 34.611 9.20573 33.1485 9.13088C32.3277 9.08881 32.3217 9.09 32.1355 9.32172ZM8.43475 11.5212C7.77697 11.6948 7.32057 11.9463 6.81719 12.4128C6.11251 13.0659 5.65784 14.0475 5.65543 14.9213C5.65414 15.3668 5.94259 15.6989 6.33062 15.6989C6.74667 15.6989 6.94108 15.47 7.0397 14.8641C7.23617 13.6563 7.9974 12.8909 9.12124 12.7708C9.37185 12.744 9.65944 12.6718 9.76031 12.6103C10.1489 12.3734 10.0826 11.6778 9.65324 11.4861C9.37564 11.3622 8.99597 11.3731 8.43475 11.5212ZM32.2004 11.6376C31.9146 11.9176 31.893 12.0545 32.0792 12.4073C32.2126 12.66 32.2989 12.6957 32.9833 12.782C34.0007 12.9101 34.9657 13.927 34.9657 14.871C34.9657 15.6073 35.6532 15.9622 36.1453 15.48C36.3554 15.2741 36.3658 15.2257 36.3182 14.6695C36.1919 13.194 35.0569 11.9072 33.5402 11.5201C32.7742 11.3246 32.4948 11.3491 32.2004 11.6376ZM32.9059 18.2119L36.6053 20.3024L36.5606 28.7209L32.9829 30.7497C31.0152 31.8655 29.3568 32.798 29.2978 32.822C29.2066 32.859 26.6258 31.4424 22.7455 29.2254L21.7756 28.6713L21.7831 20.3029L25.4648 18.2202C27.4898 17.0746 29.1601 16.1338 29.1766 16.1294C29.193 16.125 30.8713 17.0621 32.9059 18.2119ZM16.6474 18.3008L20.3532 20.3959V28.7262L16.8617 30.7082C14.9413 31.7984 13.2855 32.7305 13.1821 32.7799C13.0178 32.8582 12.522 32.6028 9.28021 30.7701L5.56663 28.6706L5.61129 20.3088L9.2321 18.2588C11.2235 17.1314 12.8729 16.2083 12.8973 16.2074C12.9218 16.2065 14.6094 17.1486 16.6474 18.3008ZM9.12124 20.9154C8.85847 21.1399 6.94754 24.4512 6.94754 24.682C6.94754 24.7932 7.02798 24.9843 7.12626 25.1067L7.30488 25.3293H10.3097V26.474C10.3097 27.9437 10.4243 28.2015 11.0776 28.2015C11.2135 28.2015 11.394 28.1182 11.5017 28.006C11.6849 27.8148 11.6891 27.7578 11.6891 25.4295C11.6891 23.161 11.6809 23.0404 11.5167 22.8795C11.4218 22.7865 11.2764 22.7061 11.1934 22.7008C10.6072 22.663 10.3818 22.8733 10.3281 23.5081L10.2883 23.9777H9.56116C9.16124 23.9777 8.8508 23.9492 8.87131 23.9143C8.89192 23.8794 9.20451 23.3503 9.56608 22.7385C9.97402 22.0482 10.2235 21.5329 10.2235 21.3805C10.2235 20.873 9.51892 20.5756 9.12124 20.9154ZM14.6486 21.433C13.756 21.7575 13.0804 22.3651 12.717 23.1702C11.8376 25.1181 13.0439 27.3175 15.2079 27.7118C17.0918 28.0551 18.9851 26.5469 19.0293 24.6675C19.039 24.2577 19.0117 24.1757 18.8083 24.0043C18.5938 23.8235 18.4985 23.8087 17.5506 23.8087C16.4435 23.8087 16.1581 23.8815 16.0091 24.2021C15.8617 24.519 15.8938 24.7265 16.125 24.953C16.3098 25.1341 16.4139 25.1603 16.9462 25.1603H17.5557L17.4319 25.3927C17.3638 25.5204 17.198 25.7251 17.0633 25.8476C16.0803 26.7418 14.5979 26.4638 13.9835 25.2702C13.8063 24.926 13.8036 24.1521 13.9782 23.7426C14.4723 22.5837 16.0324 22.2518 17.0484 23.0895C17.5705 23.52 18.241 23.2777 18.241 22.6586C18.241 22.2842 17.8426 21.8902 17.1212 21.5511C16.4755 21.2475 15.3114 21.1919 14.6486 21.433ZM18.4134 33.5235C18.1536 33.7781 18.1838 34.2394 18.4781 34.5095C19.7142 35.6444 21.8153 35.7851 23.13 34.8211C23.6714 34.4241 23.7584 34.3065 23.7584 33.972C23.7584 33.3466 23.1124 33.1612 22.4918 33.6084C22.298 33.7482 21.9751 33.9192 21.7742 33.9886C21.0343 34.2445 20.1949 34.1037 19.5077 33.6084C19.0886 33.3065 18.6683 33.2738 18.4134 33.5235ZM16.7042 35.1551C16.5956 35.2685 16.5168 35.46 16.5168 35.6107C16.5168 36.1842 18.1534 37.2831 19.5342 37.6365C19.8896 37.7275 20.4256 37.78 20.9997 37.78C21.5739 37.78 22.1099 37.7275 22.4653 37.6365C23.8621 37.2789 25.4826 36.1845 25.4826 35.5989C25.4826 35.2467 25.1795 34.9596 24.8077 34.9596C24.6074 34.9596 24.3967 35.0675 24.0384 35.3535C22.2142 36.8095 19.7835 36.81 17.962 35.3547C17.3832 34.8922 17.0127 34.8334 16.7042 35.1551ZM15.1207 36.737C14.7562 37.0943 14.8256 37.4144 15.3732 37.9023C16.3291 38.754 17.6277 39.4425 18.9307 39.7886C19.9922 40.0705 22.0073 40.0705 23.0688 39.7886C24.3717 39.4425 25.6703 38.754 26.6263 37.9023C27.1791 37.4098 27.244 37.095 26.8686 36.7271C26.6416 36.5046 26.5522 36.4691 26.3291 36.5128C26.182 36.5417 25.9023 36.709 25.7075 36.8847C24.9324 37.5837 23.7741 38.2041 22.7239 38.4829C21.9461 38.6894 20.0551 38.6896 19.2755 38.4834C18.4937 38.2765 17.4357 37.7616 16.7892 37.2733C15.5533 36.3398 15.5328 36.3332 15.1207 36.737Z" fill="url(#paint0_linear_1076_3435)"/>
<path d="M26.406 23.8084C26.3765 23.7065 26.335 23.6164 26.2816 23.5383C26.2282 23.4587 26.1628 23.3917 26.0855 23.3372C26.0096 23.2814 25.9224 23.2388 25.824 23.2095C25.727 23.1801 25.6194 23.1655 25.5013 23.1655C25.2806 23.1655 25.0866 23.2199 24.9193 23.3288C24.7534 23.4377 24.624 23.5962 24.5312 23.8042C24.4385 24.0109 24.3921 24.2636 24.3921 24.5623C24.3921 24.8611 24.4378 25.1152 24.5291 25.3246C24.6205 25.5341 24.7499 25.6939 24.9172 25.8042C25.0845 25.9131 25.282 25.9676 25.5098 25.9676C25.7164 25.9676 25.8929 25.9313 26.0391 25.8587C26.1867 25.7847 26.2992 25.6807 26.3765 25.5466C26.4553 25.4126 26.4946 25.2541 26.4946 25.0712L26.6802 25.0985H25.5667V24.4157H27.374V24.9561C27.374 25.333 27.2939 25.6569 27.1336 25.9278C26.9733 26.1972 26.7526 26.4053 26.4714 26.5519C26.1902 26.6971 25.8683 26.7697 25.5056 26.7697C25.1006 26.7697 24.7449 26.681 24.4385 26.5037C24.132 26.325 23.893 26.0716 23.7214 25.7435C23.5513 25.414 23.4663 25.0231 23.4663 24.5707C23.4663 24.2231 23.5169 23.9131 23.6181 23.6409C23.7207 23.3672 23.8641 23.1355 24.0483 22.9456C24.2325 22.7557 24.4469 22.6112 24.6915 22.5121C24.9362 22.413 25.2012 22.3634 25.4866 22.3634C25.7312 22.3634 25.959 22.399 26.1699 22.4702C26.3807 22.54 26.5677 22.6391 26.7308 22.7676C26.8953 22.896 27.0296 23.0489 27.1336 23.2262C27.2376 23.4021 27.3044 23.5962 27.334 23.8084H26.406Z" fill="url(#paint1_linear_1076_3435)"/>
<path d="M28.0599 26.711V22.422H29.7639C30.0915 22.422 30.3706 22.4842 30.6011 22.6084C30.8317 22.7313 31.0075 22.9023 31.1284 23.1215C31.2507 23.3393 31.3118 23.5906 31.3118 23.8754C31.3118 24.1602 31.25 24.4116 31.1263 24.6294C31.0025 24.8472 30.8233 25.0168 30.5885 25.1383C30.3551 25.2597 30.0725 25.3205 29.7407 25.3205H28.6546V24.5938H29.5931C29.7688 24.5938 29.9136 24.5637 30.0275 24.5037C30.1428 24.4423 30.2286 24.3578 30.2848 24.2503C30.3425 24.1414 30.3713 24.0164 30.3713 23.8754C30.3713 23.733 30.3425 23.6088 30.2848 23.5027C30.2286 23.3952 30.1428 23.3121 30.0275 23.2534C29.9122 23.1934 29.766 23.1634 29.5889 23.1634H28.9731V26.711H28.0599Z" fill="url(#paint2_linear_1076_3435)"/>
<path d="M34.2479 23.6555C34.2311 23.4866 34.1587 23.3554 34.0307 23.2618C33.9028 23.1683 33.7291 23.1215 33.5098 23.1215C33.3608 23.1215 33.235 23.1424 33.1323 23.1843C33.0297 23.2248 32.951 23.2814 32.8961 23.354C32.8427 23.4266 32.816 23.5089 32.816 23.6011C32.8132 23.6779 32.8294 23.7449 32.8645 23.8021C32.9011 23.8594 32.951 23.9089 33.0142 23.9508C33.0775 23.9913 33.1506 24.0269 33.2336 24.0576C33.3165 24.0869 33.4051 24.1121 33.4993 24.133L33.8873 24.2252C34.0757 24.2671 34.2486 24.3229 34.4061 24.3927C34.5636 24.4625 34.6999 24.5484 34.8152 24.6503C34.9305 24.7522 35.0198 24.8723 35.0831 25.0105C35.1477 25.1487 35.1808 25.3072 35.1822 25.4859C35.1808 25.7484 35.1133 25.976 34.9797 26.1686C34.8476 26.3599 34.6564 26.5086 34.4061 26.6147C34.1573 26.7194 33.8571 26.7718 33.5056 26.7718C33.1569 26.7718 32.8533 26.7187 32.5946 26.6126C32.3373 26.5065 32.1362 26.3494 31.9914 26.1414C31.848 25.932 31.7728 25.673 31.7658 25.3644H32.6494C32.6592 25.5082 32.7007 25.6283 32.7738 25.7246C32.8483 25.8196 32.9475 25.8915 33.0712 25.9404C33.1963 25.9878 33.3376 26.0116 33.4951 26.0116C33.6497 26.0116 33.784 25.9892 33.8979 25.9445C34.0131 25.8999 34.1024 25.8377 34.1657 25.7582C34.229 25.6786 34.2606 25.5871 34.2606 25.4838C34.2606 25.3875 34.2318 25.3065 34.1741 25.2409C34.1179 25.1753 34.0349 25.1194 33.9253 25.0733C33.817 25.0273 33.6842 24.9854 33.5267 24.9477L33.0564 24.8304C32.6923 24.7424 32.4048 24.6049 32.1939 24.4178C31.983 24.2308 31.8783 23.9787 31.8797 23.6618C31.8783 23.4021 31.9478 23.1753 32.0884 22.9812C32.2304 22.7871 32.4252 22.6356 32.6726 22.5267C32.92 22.4178 33.2012 22.3634 33.5162 22.3634C33.8367 22.3634 34.1165 22.4178 34.3555 22.5267C34.5959 22.6356 34.7829 22.7871 34.9165 22.9812C35.05 23.1753 35.1189 23.4 35.1231 23.6555H34.2479Z" fill="url(#paint3_linear_1076_3435)"/>
<path fill-rule="evenodd" clip-rule="evenodd" d="M16.6453 3.33333C14.3698 4.6167 12.4499 5.72047 12.3788 5.78611C12.268 5.8885 12.2432 6.56068 12.2063 10.4769L12.1632 15.0482L8.38388 17.1786C6.30519 18.3503 4.52065 19.3911 4.41823 19.4914C4.23236 19.6735 4.23185 19.6853 4.20823 24.3579C4.18874 28.2176 4.20581 29.0904 4.30504 29.3185C4.41099 29.5623 4.90661 29.8676 8.45656 31.8762C10.6737 33.1307 12.607 34.208 12.7527 34.2701C13.0952 34.416 12.8478 34.5385 17.2662 32.0362C19.2738 30.8993 20.9682 29.9497 21.0314 29.9259C21.0947 29.9021 22.8882 30.8664 25.0171 32.0687C27.1461 33.2709 28.958 34.2799 29.0436 34.3107C29.1292 34.3414 29.3232 34.3158 29.4747 34.2537C30.0558 34.0157 37.605 29.6997 37.7891 29.5003L37.9831 29.2902V19.6617L37.7891 19.4755C37.6824 19.373 35.8401 18.3008 33.6952 17.0928L29.7952 14.8964L29.7942 10.5287C29.7935 7.60557 29.7626 6.09538 29.7008 5.96241C29.5863 5.71625 29.974 5.95 25.2275 3.26541C22.8475 1.91928 21.1329 1 21.0023 1C20.8718 1 19.1013 1.94817 16.6453 3.33333ZM24.744 4.54802L28.4105 6.6177L28.4138 15.0049L21.1102 19.16L13.5857 14.8988L13.5916 6.6177L17.2741 4.53332C19.2995 3.38689 20.9838 2.45553 21.0171 2.46364C21.0503 2.47175 22.7274 3.4097 24.744 4.54802ZM8.20491 6.92241C6.91633 7.10657 5.83587 7.51172 4.75635 8.21575C2.59446 9.62558 1.19804 11.9736 1.02683 14.4868C0.975617 15.2385 0.980359 15.2659 1.19821 15.4794C1.68038 15.9519 2.37782 15.6223 2.37911 14.9213C2.38101 13.859 2.8237 12.4226 3.45544 11.4294C4.60677 9.61924 6.49313 8.48388 8.77372 8.22825C9.79065 8.11429 9.92764 8.04637 10.0162 7.61258C10.0624 7.38585 10.0292 7.30129 9.80919 7.0857C9.52039 6.8027 9.24115 6.77432 8.20491 6.92241ZM32.2017 7.07447C31.9711 7.30044 31.9366 7.38509 31.9817 7.61368C32.0643 8.03302 32.2769 8.14783 33.0838 8.20899C35.319 8.37828 37.2699 9.50959 38.4931 11.3458C39.1673 12.3578 39.6211 13.7184 39.6211 14.7281C39.6211 15.1547 39.7961 15.565 40.0129 15.6465C40.3069 15.7571 40.6293 15.6951 40.8257 15.4902C41.0151 15.2925 41.0231 15.2377 40.9755 14.4554C40.8571 12.5115 40.0194 10.7116 38.5722 9.29206C37.8762 8.60924 36.8248 7.88257 36.0362 7.53926C35.3267 7.23033 34.0887 6.93474 33.2131 6.86505L32.4753 6.80642L32.2017 7.07447ZM22.6158 7.59104C21.6789 7.82293 20.7796 8.54301 20.3472 9.40729C20.1164 9.86845 20.0945 9.98942 20.0945 10.8011C20.0945 11.6326 20.1126 11.7257 20.3739 12.246C20.7105 12.9159 21.3271 13.5091 22.0155 13.8253C22.4442 14.0222 22.615 14.0512 23.3274 14.0484C24.4611 14.0438 24.9862 13.8356 25.7491 13.0879C26.426 12.4246 26.7049 11.8209 26.7219 10.9823C26.7381 10.1776 26.6402 10.1235 25.1675 10.1235C24.0527 10.1235 24.0013 10.1313 23.7977 10.3309C23.6642 10.4616 23.586 10.6347 23.586 10.7993C23.586 10.9639 23.6642 11.137 23.7977 11.2677C23.9823 11.4487 24.0867 11.4751 24.6167 11.4751C24.9507 11.4751 25.224 11.5074 25.224 11.5469C25.224 11.7727 24.6531 12.3521 24.249 12.5365C22.8957 13.1538 21.4271 12.2607 21.4327 10.8238C21.4351 10.2094 21.6414 9.75365 22.1009 9.34774C22.8347 8.69938 23.7382 8.69262 24.6803 9.32847C25.0473 9.57608 25.178 9.62144 25.3923 9.57532C25.7152 9.50579 25.9137 9.24383 25.9137 8.88691C25.9137 8.53397 25.3159 8.00481 24.6332 7.75349C24.0823 7.55066 23.0989 7.47151 22.6158 7.59104ZM15.4353 7.96553C15.1678 8.22757 15.166 8.52772 15.4299 8.82837C15.6156 9.03999 15.7016 9.0666 16.296 9.09599L16.9558 9.1286L16.4777 9.61975C15.9228 10.1898 15.8559 10.4973 16.2112 10.8453C16.3867 11.0174 16.5079 11.053 16.9224 11.054C17.5468 11.0555 17.8112 11.1815 18.0055 11.5701C18.1378 11.8345 18.1435 11.9182 18.0486 12.203C17.8869 12.6884 17.5445 12.8265 16.5016 12.8266C15.703 12.8267 15.6596 12.8363 15.4886 13.0493C15.1281 13.4984 15.3606 14.0321 15.9651 14.1433C16.4445 14.2314 17.8157 14.1278 18.1732 13.9764C19.6105 13.3676 20.0107 11.4594 18.9249 10.392C18.7679 10.2376 18.5268 10.0542 18.3891 9.98444L18.1388 9.85764L18.7072 9.28075C19.3389 8.63948 19.4169 8.37938 19.0968 7.98073L18.9182 7.75814H17.2825C15.6609 7.75814 15.6451 7.75991 15.4353 7.96553ZM7.92456 9.23851C6.69081 9.56433 5.74224 10.116 4.91894 10.9868C4.00572 11.9524 3.51381 12.9827 3.33009 14.3144C3.22492 15.0767 3.28311 15.3468 3.59907 15.5637C3.86373 15.7453 4.12003 15.734 4.38599 15.5291C4.56962 15.3875 4.61557 15.2644 4.66178 14.7899C4.74264 13.9587 4.99825 13.1863 5.38792 12.5954C6.22691 11.3235 7.3829 10.6329 8.96459 10.4587C9.55461 10.3937 9.69324 10.3479 9.85712 10.1634C10.0989 9.89143 10.1038 9.62059 9.87238 9.33236C9.70625 9.12531 9.64746 9.11019 9.03184 9.11534C8.66786 9.11838 8.16957 9.1738 7.92456 9.23851ZM32.1355 9.32172C31.896 9.62017 31.8981 9.88856 32.1423 10.1634C32.3062 10.3479 32.4449 10.3937 33.0349 10.4587C35.4548 10.7252 37.1037 12.385 37.3377 14.7899C37.3839 15.2644 37.4299 15.3875 37.6135 15.5291C37.8794 15.734 38.1357 15.7453 38.4004 15.5637C38.7164 15.3468 38.7746 15.0767 38.6694 14.3144C38.4863 12.9873 37.9935 11.9522 37.0897 10.9963C36.0332 9.87892 34.611 9.20573 33.1485 9.13088C32.3277 9.08881 32.3217 9.09 32.1355 9.32172ZM8.43475 11.5212C7.77697 11.6948 7.32057 11.9463 6.81719 12.4128C6.11251 13.0659 5.65784 14.0475 5.65543 14.9213C5.65414 15.3668 5.94259 15.6989 6.33062 15.6989C6.74667 15.6989 6.94108 15.47 7.0397 14.8641C7.23617 13.6563 7.9974 12.8909 9.12124 12.7708C9.37185 12.744 9.65944 12.6718 9.76031 12.6103C10.1489 12.3734 10.0826 11.6778 9.65324 11.4861C9.37564 11.3622 8.99597 11.3731 8.43475 11.5212ZM32.2004 11.6376C31.9146 11.9176 31.893 12.0545 32.0792 12.4073C32.2126 12.66 32.2989 12.6957 32.9833 12.782C34.0007 12.9101 34.9657 13.927 34.9657 14.871C34.9657 15.6073 35.6532 15.9622 36.1453 15.48C36.3554 15.2741 36.3658 15.2257 36.3182 14.6695C36.1919 13.194 35.0569 11.9072 33.5402 11.5201C32.7742 11.3246 32.4948 11.3491 32.2004 11.6376ZM32.9059 18.2119L36.6053 20.3024L36.5606 28.7209L32.9829 30.7497C31.0152 31.8655 29.3568 32.798 29.2978 32.822C29.2066 32.859 26.6258 31.4424 22.7455 29.2254L21.7756 28.6713L21.7831 20.3029L25.4648 18.2202C27.4898 17.0746 29.1601 16.1338 29.1766 16.1294C29.193 16.125 30.8713 17.0621 32.9059 18.2119ZM16.6474 18.3008L20.3532 20.3959V28.7262L16.8617 30.7082C14.9413 31.7984 13.2855 32.7305 13.1821 32.7799C13.0178 32.8582 12.522 32.6028 9.28021 30.7701L5.56663 28.6706L5.61129 20.3088L9.2321 18.2588C11.2235 17.1314 12.8729 16.2083 12.8973 16.2074C12.9218 16.2065 14.6094 17.1486 16.6474 18.3008ZM9.12124 20.9154C8.85847 21.1399 6.94754 24.4512 6.94754 24.682C6.94754 24.7932 7.02798 24.9843 7.12626 25.1067L7.30488 25.3293H10.3097V26.474C10.3097 27.9437 10.4243 28.2015 11.0776 28.2015C11.2135 28.2015 11.394 28.1182 11.5017 28.006C11.6849 27.8148 11.6891 27.7578 11.6891 25.4295C11.6891 23.161 11.6809 23.0404 11.5167 22.8795C11.4218 22.7865 11.2764 22.7061 11.1934 22.7008C10.6072 22.663 10.3818 22.8733 10.3281 23.5081L10.2883 23.9777H9.56116C9.16124 23.9777 8.8508 23.9492 8.87131 23.9143C8.89192 23.8794 9.20451 23.3503 9.56608 22.7385C9.97402 22.0482 10.2235 21.5329 10.2235 21.3805C10.2235 20.873 9.51892 20.5756 9.12124 20.9154ZM14.6486 21.433C13.756 21.7575 13.0804 22.3651 12.717 23.1702C11.8376 25.1181 13.0439 27.3175 15.2079 27.7118C17.0918 28.0551 18.9851 26.5469 19.0293 24.6675C19.039 24.2577 19.0117 24.1757 18.8083 24.0043C18.5938 23.8235 18.4985 23.8087 17.5506 23.8087C16.4435 23.8087 16.1581 23.8815 16.0091 24.2021C15.8617 24.519 15.8938 24.7265 16.125 24.953C16.3098 25.1341 16.4139 25.1603 16.9462 25.1603H17.5557L17.4319 25.3927C17.3638 25.5204 17.198 25.7251 17.0633 25.8476C16.0803 26.7418 14.5979 26.4638 13.9835 25.2702C13.8063 24.926 13.8036 24.1521 13.9782 23.7426C14.4723 22.5837 16.0324 22.2518 17.0484 23.0895C17.5705 23.52 18.241 23.2777 18.241 22.6586C18.241 22.2842 17.8426 21.8902 17.1212 21.5511C16.4755 21.2475 15.3114 21.1919 14.6486 21.433ZM18.4134 33.5235C18.1536 33.7781 18.1838 34.2394 18.4781 34.5095C19.7142 35.6444 21.8153 35.7851 23.13 34.8211C23.6714 34.4241 23.7584 34.3065 23.7584 33.972C23.7584 33.3466 23.1124 33.1612 22.4918 33.6084C22.298 33.7482 21.9751 33.9192 21.7742 33.9886C21.0343 34.2445 20.1949 34.1037 19.5077 33.6084C19.0886 33.3065 18.6683 33.2738 18.4134 33.5235ZM16.7042 35.1551C16.5956 35.2685 16.5168 35.46 16.5168 35.6107C16.5168 36.1842 18.1534 37.2831 19.5342 37.6365C19.8896 37.7275 20.4256 37.78 20.9997 37.78C21.5739 37.78 22.1099 37.7275 22.4653 37.6365C23.8621 37.2789 25.4826 36.1845 25.4826 35.5989C25.4826 35.2467 25.1795 34.9596 24.8077 34.9596C24.6074 34.9596 24.3967 35.0675 24.0384 35.3535C22.2142 36.8095 19.7835 36.81 17.962 35.3547C17.3832 34.8922 17.0127 34.8334 16.7042 35.1551ZM15.1207 36.737C14.7562 37.0943 14.8256 37.4144 15.3732 37.9023C16.3291 38.754 17.6277 39.4425 18.9307 39.7886C19.9922 40.0705 22.0073 40.0705 23.0688 39.7886C24.3717 39.4425 25.6703 38.754 26.6263 37.9023C27.1791 37.4098 27.244 37.095 26.8686 36.7271C26.6416 36.5046 26.5522 36.4691 26.3291 36.5128C26.182 36.5417 25.9023 36.709 25.7075 36.8847C24.9324 37.5837 23.7741 38.2041 22.7239 38.4829C21.9461 38.6894 20.0551 38.6896 19.2755 38.4834C18.4937 38.2765 17.4357 37.7616 16.7892 37.2733C15.5533 36.3398 15.5328 36.3332 15.1207 36.737Z" stroke="url(#paint4_linear_1076_3435)" stroke-width="0.187234"/>
<path d="M26.406 23.8084C26.3765 23.7065 26.335 23.6164 26.2816 23.5383C26.2282 23.4587 26.1628 23.3917 26.0855 23.3372C26.0096 23.2814 25.9224 23.2388 25.824 23.2095C25.727 23.1801 25.6194 23.1655 25.5013 23.1655C25.2806 23.1655 25.0866 23.2199 24.9193 23.3288C24.7534 23.4377 24.624 23.5962 24.5312 23.8042C24.4385 24.0109 24.3921 24.2636 24.3921 24.5623C24.3921 24.8611 24.4378 25.1152 24.5291 25.3246C24.6205 25.5341 24.7499 25.6939 24.9172 25.8042C25.0845 25.9131 25.282 25.9676 25.5098 25.9676C25.7164 25.9676 25.8929 25.9313 26.0391 25.8587C26.1867 25.7847 26.2992 25.6807 26.3765 25.5466C26.4553 25.4126 26.4946 25.2541 26.4946 25.0712L26.6802 25.0985H25.5667V24.4157H27.374V24.9561C27.374 25.333 27.2939 25.6569 27.1336 25.9278C26.9733 26.1972 26.7526 26.4053 26.4714 26.5519C26.1902 26.6971 25.8683 26.7697 25.5056 26.7697C25.1006 26.7697 24.7449 26.681 24.4385 26.5037C24.132 26.325 23.893 26.0716 23.7214 25.7435C23.5513 25.414 23.4663 25.0231 23.4663 24.5707C23.4663 24.2231 23.5169 23.9131 23.6181 23.6409C23.7207 23.3672 23.8641 23.1355 24.0483 22.9456C24.2325 22.7557 24.4469 22.6112 24.6915 22.5121C24.9362 22.413 25.2012 22.3634 25.4866 22.3634C25.7312 22.3634 25.959 22.399 26.1699 22.4702C26.3807 22.54 26.5677 22.6391 26.7308 22.7676C26.8953 22.896 27.0296 23.0489 27.1336 23.2262C27.2376 23.4021 27.3044 23.5962 27.334 23.8084H26.406Z" stroke="url(#paint5_linear_1076_3435)" stroke-width="0.187234"/>
<path d="M28.0599 26.711V22.422H29.7639C30.0915 22.422 30.3706 22.4842 30.6011 22.6084C30.8317 22.7313 31.0075 22.9023 31.1284 23.1215C31.2507 23.3393 31.3118 23.5906 31.3118 23.8754C31.3118 24.1602 31.25 24.4116 31.1263 24.6294C31.0025 24.8472 30.8233 25.0168 30.5885 25.1383C30.3551 25.2597 30.0725 25.3205 29.7407 25.3205H28.6546V24.5938H29.5931C29.7688 24.5938 29.9136 24.5637 30.0275 24.5037C30.1428 24.4423 30.2286 24.3578 30.2848 24.2503C30.3425 24.1414 30.3713 24.0164 30.3713 23.8754C30.3713 23.733 30.3425 23.6088 30.2848 23.5027C30.2286 23.3952 30.1428 23.3121 30.0275 23.2534C29.9122 23.1934 29.766 23.1634 29.5889 23.1634H28.9731V26.711H28.0599Z" stroke="url(#paint6_linear_1076_3435)" stroke-width="0.187234"/>
<path d="M34.2479 23.6555C34.2311 23.4866 34.1587 23.3554 34.0307 23.2618C33.9028 23.1683 33.7291 23.1215 33.5098 23.1215C33.3608 23.1215 33.235 23.1424 33.1323 23.1843C33.0297 23.2248 32.951 23.2814 32.8961 23.354C32.8427 23.4266 32.816 23.5089 32.816 23.6011C32.8132 23.6779 32.8294 23.7449 32.8645 23.8021C32.9011 23.8594 32.951 23.9089 33.0142 23.9508C33.0775 23.9913 33.1506 24.0269 33.2336 24.0576C33.3165 24.0869 33.4051 24.1121 33.4993 24.133L33.8873 24.2252C34.0757 24.2671 34.2486 24.3229 34.4061 24.3927C34.5636 24.4625 34.6999 24.5484 34.8152 24.6503C34.9305 24.7522 35.0198 24.8723 35.0831 25.0105C35.1477 25.1487 35.1808 25.3072 35.1822 25.4859C35.1808 25.7484 35.1133 25.976 34.9797 26.1686C34.8476 26.3599 34.6564 26.5086 34.4061 26.6147C34.1573 26.7194 33.8571 26.7718 33.5056 26.7718C33.1569 26.7718 32.8533 26.7187 32.5946 26.6126C32.3373 26.5065 32.1362 26.3494 31.9914 26.1414C31.848 25.932 31.7728 25.673 31.7658 25.3644H32.6494C32.6592 25.5082 32.7007 25.6283 32.7738 25.7246C32.8483 25.8196 32.9475 25.8915 33.0712 25.9404C33.1963 25.9878 33.3376 26.0116 33.4951 26.0116C33.6497 26.0116 33.784 25.9892 33.8979 25.9445C34.0131 25.8999 34.1024 25.8377 34.1657 25.7582C34.229 25.6786 34.2606 25.5871 34.2606 25.4838C34.2606 25.3875 34.2318 25.3065 34.1741 25.2409C34.1179 25.1753 34.0349 25.1194 33.9253 25.0733C33.817 25.0273 33.6842 24.9854 33.5267 24.9477L33.0564 24.8304C32.6923 24.7424 32.4048 24.6049 32.1939 24.4178C31.983 24.2308 31.8783 23.9787 31.8797 23.6618C31.8783 23.4021 31.9478 23.1753 32.0884 22.9812C32.2304 22.7871 32.4252 22.6356 32.6726 22.5267C32.92 22.4178 33.2012 22.3634 33.5162 22.3634C33.8367 22.3634 34.1165 22.4178 34.3555 22.5267C34.5959 22.6356 34.7829 22.7871 34.9165 22.9812C35.05 23.1753 35.1189 23.4 35.1231 23.6555H34.2479Z" stroke="url(#paint7_linear_1076_3435)" stroke-width="0.187234"/>
<defs>
<linearGradient id="paint0_linear_1076_3435" x1="1" y1="1" x2="40.7623" y2="41.9818" gradientUnits="userSpaceOnUse">
<stop stop-color="#0ABD92"/>
<stop offset="1" stop-color="#009DB8"/>
</linearGradient>
<linearGradient id="paint1_linear_1076_3435" x1="1" y1="1" x2="40.7623" y2="41.9818" gradientUnits="userSpaceOnUse">
<stop stop-color="#0ABD92"/>
<stop offset="1" stop-color="#009DB8"/>
</linearGradient>
<linearGradient id="paint2_linear_1076_3435" x1="1" y1="1" x2="40.7623" y2="41.9818" gradientUnits="userSpaceOnUse">
<stop stop-color="#0ABD92"/>
<stop offset="1" stop-color="#009DB8"/>
</linearGradient>
<linearGradient id="paint3_linear_1076_3435" x1="1" y1="1" x2="40.7623" y2="41.9818" gradientUnits="userSpaceOnUse">
<stop stop-color="#0ABD92"/>
<stop offset="1" stop-color="#009DB8"/>
</linearGradient>
<linearGradient id="paint4_linear_1076_3435" x1="1" y1="1" x2="40.7623" y2="41.9818" gradientUnits="userSpaceOnUse">
<stop stop-color="#0ABD92"/>
<stop offset="1" stop-color="#009DB8"/>
</linearGradient>
<linearGradient id="paint5_linear_1076_3435" x1="1" y1="1" x2="40.7623" y2="41.9818" gradientUnits="userSpaceOnUse">
<stop stop-color="#0ABD92"/>
<stop offset="1" stop-color="#009DB8"/>
</linearGradient>
<linearGradient id="paint6_linear_1076_3435" x1="1" y1="1" x2="40.7623" y2="41.9818" gradientUnits="userSpaceOnUse">
<stop stop-color="#0ABD92"/>
<stop offset="1" stop-color="#009DB8"/>
</linearGradient>
<linearGradient id="paint7_linear_1076_3435" x1="1" y1="1" x2="40.7623" y2="41.9818" gradientUnits="userSpaceOnUse">
<stop stop-color="#0ABD92"/>
<stop offset="1" stop-color="#009DB8"/>
</linearGradient>
</defs>
</svg>
