<svg width="59" height="51" viewBox="0 0 59 51" fill="none" xmlns="http://www.w3.org/2000/svg">
<path fill-rule="evenodd" clip-rule="evenodd" d="M19.3898 0.245585C18.6231 0.407792 17.7001 0.919324 17.1377 1.49376C16.7671 1.87202 15.5821 3.81965 13.0419 8.22507C11.0758 11.6345 9.37534 14.6631 9.26288 14.9552C8.63773 16.5802 9.04793 18.4673 10.2909 19.6851C10.6662 20.0529 12.6349 21.2531 17.0059 23.7795C20.4071 25.7452 23.2357 27.3987 23.2915 27.4538C23.416 27.5765 21.6488 30.6801 21.143 31.227C20.9461 31.44 20.5273 31.7365 20.2124 31.8861C19.6455 32.1551 19.6012 32.1579 15.7748 32.1589L11.9098 32.1601V29.3158C11.9098 26.9271 11.8813 26.4305 11.7315 26.2163C11.557 25.9664 11.5035 25.9611 9.15489 25.9611H6.75655V25.1784C6.75655 23.5245 6.08215 22.3613 4.73909 21.6985C3.97274 21.3202 3.9685 21.3196 2.20515 21.3157C0.484868 21.312 0.433106 21.319 0.219416 21.5829C0.00595494 21.8466 0 22.2278 0 35.7367V49.6196L0.293165 49.9134C0.586102 50.2071 0.58782 50.2073 2.32586 50.1663C3.95292 50.128 4.10729 50.1047 4.71367 49.8064C5.46135 49.4385 6.10483 48.776 6.4525 48.016C6.65669 47.57 6.70181 47.2168 6.73628 45.8005L6.77728 44.1155L9.12478 44.0786C12.1455 44.0308 11.9098 44.2579 11.9098 41.3968V39.2941L16.3474 39.2512L20.785 39.2081L21.8156 38.8916C23.6492 38.3287 25.2761 37.2968 26.4999 35.9208C26.8513 35.5256 27.686 34.2819 28.3548 33.1571C29.2012 31.7334 29.6194 31.1307 29.731 31.1736C29.8193 31.2076 31.3989 32.1088 33.2415 33.1764C35.0841 34.2439 36.8376 35.201 37.138 35.3032C38.3684 35.722 40.076 35.4602 41.1476 34.6887L41.65 34.3271L42.3829 34.5773C44.6744 35.3597 47.3801 34.7053 49.1802 32.9335L49.8725 32.2521L50.3306 32.5032C51.8585 33.3405 51.8453 33.3358 52.1761 33.1736C52.4139 33.057 53.2118 31.7627 55.5601 27.6848C57.2503 24.7498 58.6331 22.2413 58.6331 22.1104C58.6331 21.9794 58.5687 21.7876 58.4899 21.6839C58.4113 21.5803 55.3837 19.7813 51.762 17.686C48.1404 15.5907 40.0016 10.8817 33.676 7.22129C27.3503 3.56101 21.9746 0.495381 21.73 0.408825C21.14 0.20024 19.985 0.119654 19.3898 0.245585ZM21.5598 2.09908C22.2462 2.45013 56.4995 22.284 56.6092 22.394C56.6614 22.4464 55.5551 24.4826 54.1505 26.9189L51.5969 31.3486L51.1355 31.0826C46.9431 28.6653 17.4145 11.5785 15.2593 10.3227C14.6136 9.94655 14.1049 9.60481 14.1289 9.56325C14.1528 9.52181 14.8543 8.29969 15.6878 6.84752C18.0159 2.79131 18.1526 2.58513 18.7412 2.23937C19.0253 2.07245 19.4211 1.8944 19.6206 1.84378C20.1414 1.71153 21.0313 1.82874 21.5598 2.09908ZM19.468 14.6232C22.4598 16.3546 29.0045 20.1387 34.0118 23.0324C39.0191 25.9262 43.1627 28.335 43.2198 28.3852C43.3222 28.4755 41.4115 31.9407 40.7692 32.8293C40.0873 33.7731 38.4868 34.1698 37.39 33.667C37.1381 33.5515 33.4535 31.4425 29.202 28.9802C24.9506 26.5181 19.3077 23.252 16.6623 21.7224C14.017 20.1928 11.6806 18.7773 11.4703 18.5768C10.71 17.8518 10.3954 16.8083 10.6503 15.8579C10.771 15.4083 11.5466 13.9785 12.9088 11.6946L13.3043 11.0314L13.6664 11.2534C13.8655 11.3754 16.4762 12.8919 19.468 14.6232ZM13.3362 15.2225C13.0044 15.5549 12.9794 15.8563 13.2554 16.1924C13.5389 16.5375 20.1488 20.3361 20.4659 20.3361C21.0322 20.3361 21.4031 19.5086 21.0426 19.0498C20.8208 18.7675 14.1298 14.9406 13.858 14.9406C13.7255 14.9406 13.4908 15.0675 13.3362 15.2225ZM48.6086 21.4302C47.9505 21.6743 47.3949 22.1722 47.0295 22.8454C45.8985 24.9283 47.3752 27.3769 49.7516 27.359C50.6056 27.3525 51.168 27.1247 51.8228 26.5196C53.3132 25.1424 53.0133 22.6879 51.2262 21.6381C50.5826 21.2601 49.3345 21.1609 48.6086 21.4302ZM3.53379 22.9682C4.15814 23.0891 4.56514 23.3869 4.8938 23.9629L5.14952 24.4113L5.15147 35.6826C5.15273 43.392 5.11471 47.0559 5.03111 47.277C4.70095 48.1505 3.89784 48.5699 2.54802 48.5734L1.60325 48.5759V35.7188V22.8616L2.31898 22.8666C2.7127 22.8694 3.25929 22.9151 3.53379 22.9682ZM50.7508 23.3052C51.1308 23.7315 51.2405 24.1025 51.142 24.6288C50.9885 25.4493 49.9689 26.0096 49.2087 25.6913C48.0872 25.2216 47.9208 23.7165 48.9208 23.0873C49.4925 22.7276 50.3243 22.8267 50.7508 23.3052ZM10.3066 35.03V42.4917H8.53157H6.75655V35.03V27.5682H8.53157H10.3066V35.03ZM26.5615 29.3025C27.453 29.8142 28.167 30.2698 28.1482 30.3148C28.1295 30.3598 27.6245 31.2455 27.0262 32.2829C26.1025 33.8842 25.7911 34.3163 24.9635 35.1448C23.8486 36.2608 23.0965 36.7427 21.6737 37.253L20.6705 37.6129L16.2902 37.6489L11.9098 37.685V35.7315V33.778L16.0039 33.7439C19.9807 33.7109 20.1166 33.7023 20.756 33.4434C21.8409 33.0043 22.4786 32.3071 23.7035 30.2214C24.3009 29.2041 24.8237 28.3718 24.8651 28.3718C24.9067 28.3718 25.6701 28.7906 26.5615 29.3025ZM46.6429 30.3465L48.4749 31.4029L47.8876 31.9444C46.9258 32.8307 45.6976 33.3107 44.4329 33.2943C43.677 33.2844 42.7016 33.0659 42.7007 32.9063C42.6999 32.7763 44.6874 29.2902 44.7622 29.2902C44.7889 29.2902 45.6351 29.7655 46.6429 30.3465Z" fill="url(#paint0_linear_677_3444)"/>
<defs>
<linearGradient id="paint0_linear_677_3444" x1="0" y1="0.185547" x2="50.321" y2="59.4843" gradientUnits="userSpaceOnUse">
<stop stop-color="#0ABD92"/>
<stop offset="1" stop-color="#009DB8"/>
</linearGradient>
</defs>
</svg>
