<svg width="51" height="62" viewBox="0 0 51 62" fill="none" xmlns="http://www.w3.org/2000/svg">
<g opacity="0.6">
<g opacity="0.6">
<path fill-rule="evenodd" clip-rule="evenodd" d="M23.2374 18.5725C23.1166 18.5862 22.7494 18.6276 22.4214 18.6645C18.4556 19.1113 14.5822 20.7558 11.4268 23.3323C10.5203 24.0725 9.18705 25.4 9.04487 25.7039C8.70658 26.4271 9.20789 27.3363 9.9861 27.4109C10.5985 27.4696 10.6754 27.4276 11.6423 26.5068C13.3276 24.9017 14.6949 23.921 16.5206 23.0078C18.3227 22.1064 20.1885 21.5239 22.3586 21.1851C22.9373 21.0948 23.4605 21.0724 24.9951 21.0724C26.5297 21.0724 27.053 21.0948 27.6316 21.1851C29.8017 21.5239 31.6676 22.1064 33.4696 23.0078C35.2877 23.9172 36.6799 24.9142 38.319 26.4807C38.7918 26.9325 39.2518 27.3299 39.3414 27.3639C39.5559 27.4453 40.0704 27.4426 40.2922 27.359C40.7078 27.2024 41.0625 26.6709 41.0625 26.2047C41.0625 25.7809 40.8691 25.4937 40.0208 24.6583C36.6585 21.3466 32.6788 19.3984 27.8199 18.6854C27.1938 18.5936 23.7934 18.5098 23.2374 18.5725ZM23.5513 25.8366C21.066 26.1332 18.8089 26.9068 16.8851 28.1215C15.537 28.9727 13.8463 30.4131 13.625 30.8989C13.408 31.3752 13.5294 31.9538 13.9233 32.3207C14.1587 32.54 14.3873 32.622 14.763 32.622C15.2103 32.622 15.3534 32.546 15.9828 31.9739C17.8697 30.2588 19.6859 29.244 21.8769 28.6806C23.8683 28.1684 26.122 28.1684 28.1133 28.6806C30.3106 29.2456 32.12 30.2582 34.0211 31.9864C34.4881 32.4109 34.666 32.5324 34.9156 32.5969C35.9213 32.8571 36.7942 31.8354 36.3651 30.9003C36.1631 30.4603 34.7017 29.1754 33.501 28.3822C31.631 27.1469 29.6937 26.3745 27.4747 25.9798C26.8763 25.8733 26.418 25.8421 25.2462 25.828C24.4349 25.8183 23.6722 25.8221 23.5513 25.8366ZM23.5324 33.225C21.9638 33.5084 20.1419 34.432 19.0127 35.5164C18.4285 36.0774 18.3113 36.3879 18.4694 36.9557C18.6097 37.4594 19.1047 37.8185 19.6588 37.8185C20.0865 37.8185 20.2974 37.7151 20.8432 37.2376C21.6049 36.5712 22.4543 36.1098 23.4885 35.8006C24.0838 35.6226 25.3209 35.5802 25.9876 35.715C27.0267 35.9249 28.0744 36.4397 28.957 37.1738C29.5999 37.7086 29.8055 37.8162 30.1856 37.8175C30.3646 37.8181 30.5906 37.7885 30.6878 37.7519C31.0973 37.5976 31.4568 37.0661 31.4595 36.6113C31.4625 36.0985 31.1893 35.7278 30.2995 35.037C29.1098 34.1134 27.6707 33.4641 26.2724 33.2202C25.5868 33.1006 24.2077 33.103 23.5324 33.225ZM24.2732 40.8355C23.9901 40.9414 23.6165 41.1896 23.4087 41.4099C22.8777 41.9726 22.7242 42.9411 23.0551 43.641C23.2519 44.0572 23.6179 44.4335 24.0303 44.6436C24.2925 44.7771 24.4209 44.7993 24.9323 44.7993C25.4438 44.7993 25.5722 44.7771 25.8343 44.6436C26.2468 44.4335 26.6128 44.0572 26.8096 43.641C27.0416 43.1502 27.0416 42.4414 26.8096 41.9506C26.6126 41.5339 26.2463 41.1576 25.8343 40.9488C25.5913 40.8255 25.4195 40.7909 24.9951 40.7794C24.7016 40.7715 24.3768 40.7967 24.2732 40.8355Z" fill="url(#paint0_linear_677_2735)"/>
<path fill-rule="evenodd" clip-rule="evenodd" d="M23.2374 18.5725C23.1166 18.5862 22.7494 18.6276 22.4214 18.6645C18.4556 19.1113 14.5822 20.7558 11.4268 23.3323C10.5203 24.0725 9.18705 25.4 9.04487 25.7039C8.70658 26.4271 9.20789 27.3363 9.9861 27.4109C10.5985 27.4696 10.6754 27.4276 11.6423 26.5068C13.3276 24.9017 14.6949 23.921 16.5206 23.0078C18.3227 22.1064 20.1885 21.5239 22.3586 21.1851C22.9373 21.0948 23.4605 21.0724 24.9951 21.0724C26.5297 21.0724 27.053 21.0948 27.6316 21.1851C29.8017 21.5239 31.6676 22.1064 33.4696 23.0078C35.2877 23.9172 36.6799 24.9142 38.319 26.4807C38.7918 26.9325 39.2518 27.3299 39.3414 27.3639C39.5559 27.4453 40.0704 27.4426 40.2922 27.359C40.7078 27.2024 41.0625 26.6709 41.0625 26.2047C41.0625 25.7809 40.8691 25.4937 40.0208 24.6583C36.6585 21.3466 32.6788 19.3984 27.8199 18.6854C27.1938 18.5936 23.7934 18.5098 23.2374 18.5725ZM23.5513 25.8366C21.066 26.1332 18.8089 26.9068 16.8851 28.1215C15.537 28.9727 13.8463 30.4131 13.625 30.8989C13.408 31.3752 13.5294 31.9538 13.9233 32.3207C14.1587 32.54 14.3873 32.622 14.763 32.622C15.2103 32.622 15.3534 32.546 15.9828 31.9739C17.8697 30.2588 19.6859 29.244 21.8769 28.6806C23.8683 28.1684 26.122 28.1684 28.1133 28.6806C30.3106 29.2456 32.12 30.2582 34.0211 31.9864C34.4881 32.4109 34.666 32.5324 34.9156 32.5969C35.9213 32.8571 36.7942 31.8354 36.3651 30.9003C36.1631 30.4603 34.7017 29.1754 33.501 28.3822C31.631 27.1469 29.6937 26.3745 27.4747 25.9798C26.8763 25.8733 26.418 25.8421 25.2462 25.828C24.4349 25.8183 23.6722 25.8221 23.5513 25.8366ZM23.5324 33.225C21.9638 33.5084 20.1419 34.432 19.0127 35.5164C18.4285 36.0774 18.3113 36.3879 18.4694 36.9557C18.6097 37.4594 19.1047 37.8185 19.6588 37.8185C20.0865 37.8185 20.2974 37.7151 20.8432 37.2376C21.6049 36.5712 22.4543 36.1098 23.4885 35.8006C24.0838 35.6226 25.3209 35.5802 25.9876 35.715C27.0267 35.9249 28.0744 36.4397 28.957 37.1738C29.5999 37.7086 29.8055 37.8162 30.1856 37.8175C30.3646 37.8181 30.5906 37.7885 30.6878 37.7519C31.0973 37.5976 31.4568 37.0661 31.4595 36.6113C31.4625 36.0985 31.1893 35.7278 30.2995 35.037C29.1098 34.1134 27.6707 33.4641 26.2724 33.2202C25.5868 33.1006 24.2077 33.103 23.5324 33.225ZM24.2732 40.8355C23.9901 40.9414 23.6165 41.1896 23.4087 41.4099C22.8777 41.9726 22.7242 42.9411 23.0551 43.641C23.2519 44.0572 23.6179 44.4335 24.0303 44.6436C24.2925 44.7771 24.4209 44.7993 24.9323 44.7993C25.4438 44.7993 25.5722 44.7771 25.8343 44.6436C26.2468 44.4335 26.6128 44.0572 26.8096 43.641C27.0416 43.1502 27.0416 42.4414 26.8096 41.9506C26.6126 41.5339 26.2463 41.1576 25.8343 40.9488C25.5913 40.8255 25.4195 40.7909 24.9951 40.7794C24.7016 40.7715 24.3768 40.7967 24.2732 40.8355Z" fill="white"/>
</g>
<g filter="url(#filter0_d_677_2735)">
<rect x="32.2754" y="15.9375" width="2.28309" height="31.4573" rx="1.14154" transform="rotate(30 32.2754 15.9375)" fill="url(#paint1_linear_677_2735)"/>
<rect x="32.2754" y="15.9375" width="2.28309" height="31.4573" rx="1.14154" transform="rotate(30 32.2754 15.9375)" fill="white"/>
</g>
</g>
<defs>
<filter id="filter0_d_677_2735" x="0.0856037" y="0.565212" width="50.6286" height="61.3054" filterUnits="userSpaceOnUse" color-interpolation-filters="sRGB">
<feFlood flood-opacity="0" result="BackgroundImageFix"/>
<feColorMatrix in="SourceAlpha" type="matrix" values="0 0 0 0 0 0 0 0 0 0 0 0 0 0 0 0 0 0 127 0" result="hardAlpha"/>
<feOffset dy="1.08898"/>
<feGaussianBlur stdDeviation="8.43962"/>
<feComposite in2="hardAlpha" operator="out"/>
<feColorMatrix type="matrix" values="0 0 0 0 0 0 0 0 0 0 0 0 0 0 0 0 0 0 0.25 0"/>
<feBlend mode="normal" in2="BackgroundImageFix" result="effect1_dropShadow_677_2735"/>
<feBlend mode="normal" in="SourceGraphic" in2="effect1_dropShadow_677_2735" result="shape"/>
</filter>
<linearGradient id="paint0_linear_677_2735" x1="8.9375" y1="18.5508" x2="35.1482" y2="50.7868" gradientUnits="userSpaceOnUse">
<stop stop-color="#0ABD92"/>
<stop offset="1" stop-color="#009DB8"/>
</linearGradient>
<linearGradient id="paint1_linear_677_2735" x1="32.2754" y1="15.9375" x2="36.931" y2="16.277" gradientUnits="userSpaceOnUse">
<stop stop-color="#0ABD92"/>
<stop offset="1" stop-color="#009DB8"/>
</linearGradient>
</defs>
</svg>
