<svg width="39" height="32" viewBox="0 0 39 32" fill="none" xmlns="http://www.w3.org/2000/svg">
<g opacity="0.6">
<path fill-rule="evenodd" clip-rule="evenodd" d="M30.8648 0.108454C27.6732 0.765074 25.5083 3.55962 25.6896 6.78913C25.7724 8.26663 26.2471 9.45029 27.227 10.6231C28.2065 11.7954 29.489 12.4831 31.3659 12.8424L31.533 12.8744V20.2787V27.6831H30.7882C29.9554 27.6831 29.7017 27.7585 29.2774 28.1319C28.7548 28.5919 28.6802 28.8338 28.6506 30.1636C28.6324 30.9813 28.6523 31.4093 28.7157 31.5627C28.8936 31.9935 28.9443 32 32.1221 32H35.0199L35.2624 31.783L35.5049 31.566L35.5289 30.4812C35.557 29.2079 35.4642 28.7728 35.0642 28.3043C34.6546 27.8246 34.2731 27.6831 33.3894 27.6831H32.6458L32.6648 20.2638L32.6837 12.8444L33.2603 12.7468C35.3679 12.3899 37.275 10.808 38.0687 8.75817C39.3625 5.41701 37.6428 1.61179 34.284 0.383696C33.2411 0.00231706 31.9038 -0.105309 30.8648 0.108454ZM33.5375 1.29844C35.9357 2.03701 37.5262 4.28657 37.3768 6.72847C37.1445 10.5225 33.1789 12.8573 29.7883 11.1964C29.4208 11.0164 28.9296 10.7153 28.6968 10.5273C27.9558 9.92917 27.2732 8.8774 26.9548 7.84335C26.8503 7.50373 26.8194 7.16745 26.822 6.39614C26.8248 5.49695 26.8467 5.32874 27.0304 4.7959C27.6641 2.95703 29.1049 1.65019 30.9762 1.21694C31.5594 1.08192 32.9813 1.12717 33.5375 1.29844ZM0.682595 3.37838C0.450296 3.6112 0.450296 3.89656 0.682595 4.12938L0.864782 4.3121H10.4337C19.6097 4.3121 20.0077 4.31768 20.1255 4.44823C20.431 4.78667 20.3544 4.89362 18.4698 6.75794C16.736 8.47295 16.688 8.52855 16.5676 8.95838C16.4078 9.52874 16.4623 10.0727 16.7284 10.5629C16.971 11.0098 18.7455 12.7766 19.6198 13.4419C21.5481 14.909 23.5879 15.8146 25.8907 16.2255C26.3623 16.3096 26.3834 16.3235 26.8187 16.8344C27.2514 17.3424 27.597 17.8379 27.5978 17.9514C27.5981 17.9821 26.8526 18.0072 25.9413 18.0072C24.6878 18.0072 24.1934 18.0343 23.911 18.1184C23.0112 18.3862 22.4014 19.2155 22.4014 20.171C22.4014 21.1155 23.0124 21.9454 23.903 22.2105C24.1673 22.2893 24.6107 22.3241 25.3474 22.3241C25.932 22.3241 26.4103 22.3325 26.4102 22.3427C26.4101 22.3529 26.0299 23.5444 25.5651 24.9904C24.6529 27.8291 24.58 27.979 24.0389 28.1297C23.8018 28.1957 21.4362 28.2403 21.4362 28.1788C21.4362 28.1649 21.5056 27.8885 21.5905 27.5647C21.7037 27.1327 21.7448 26.7482 21.7448 26.12C21.7448 25.0556 21.5798 24.3765 21.0889 23.4202C20.4403 22.1565 19.1297 21.0271 17.7984 20.5846C16.3455 20.1016 14.8594 20.1753 13.5178 20.7967C11.3725 21.7904 10.0741 23.8202 10.0787 26.1727C10.0798 26.7357 10.1294 27.0727 10.3528 28.0366L10.3917 28.2041H5.59986H0.808062L0.654235 28.4002C0.450073 28.6603 0.459873 28.9146 0.682595 29.1378L0.864782 29.3205L5.93513 29.325L11.0054 29.3295L11.3395 29.7693C11.9033 30.5115 12.9567 31.2952 13.8316 31.6234C14.9571 32.0456 16.4651 32.1068 17.5386 31.7741C18.6915 31.4167 19.8325 30.6475 20.5003 29.7775L20.8433 29.3306L22.5317 29.307C24.1699 29.284 24.2324 29.2776 24.6286 29.0905C25.0843 28.8752 25.5285 28.4551 25.7134 28.0644C25.7807 27.9223 26.4853 25.7771 27.2794 23.2974L28.7233 18.7887L28.6982 18.1933C28.68 17.7592 28.6264 17.5023 28.5008 17.2453C28.2492 16.7309 23.1141 10.7405 22.8728 10.6797C22.4928 10.5841 22.0751 11.0586 22.2331 11.4062C22.276 11.5009 22.936 12.3073 23.6995 13.1981C24.4629 14.0891 25.0691 14.8365 25.0464 14.8592C24.9794 14.9264 23.7609 14.519 22.9898 14.1716C21.406 13.458 20.1763 12.5792 18.6761 11.0891C17.2637 9.68616 17.2454 9.53931 18.3442 8.42152L19.0272 7.72672L19.7576 8.58772C20.8472 9.87223 20.9995 9.97286 21.3891 9.66562C21.5318 9.55315 21.5847 9.443 21.5847 9.25871C21.5847 9.04398 21.4551 8.85396 20.7221 7.99392L19.8594 6.98175L20.5258 6.29819C21.2743 5.53044 21.396 5.28014 21.3475 4.60796C21.3065 4.04028 21.0378 3.64171 20.5224 3.38419L20.145 3.19565H10.5049H0.864782L0.682595 3.37838ZM30.3456 3.40696L30.1224 3.63077V6.46826V9.30567L30.3047 9.48832C30.5369 9.72122 30.8215 9.72122 31.0538 9.48832C31.2298 9.31193 31.236 9.27032 31.236 8.27065V7.23563L32.0873 7.19797C32.8142 7.16582 32.9982 7.13106 33.346 6.96046C34.0506 6.61489 34.4471 5.97114 34.4467 5.17348C34.4464 4.62739 34.3121 4.28181 33.9395 3.86835C33.4272 3.29978 33.2271 3.23778 31.8119 3.20868L30.5689 3.18315L30.3456 3.40696ZM32.8622 4.40626C33.2919 4.62768 33.4767 5.28334 33.2148 5.65802C32.9836 5.98908 32.7893 6.05756 31.997 6.08703L31.236 6.11531V5.21367V4.3121L31.9599 4.31322C32.3864 4.31381 32.757 4.35207 32.8622 4.40626ZM0.654235 8.15529C0.403969 8.47422 0.461654 8.78995 0.802642 8.96672C0.976143 9.05671 1.50429 9.07561 3.84436 9.07561C6.3782 9.07561 6.7523 9.09117 7.40049 9.22358C9.05072 9.56075 10.4363 10.3079 11.5993 11.4876C12.2768 12.1747 13.4956 13.8582 13.5986 14.2491C13.6881 14.5885 13.5138 14.9738 13.1779 15.1791C12.9414 15.3237 12.794 15.3272 6.90026 15.3274L0.864782 15.3277L0.682595 15.5104C0.450296 15.7433 0.450296 16.0286 0.682595 16.2614L0.864782 16.4442H6.90531C13.864 16.4442 13.4896 16.477 14.1384 15.8098C14.784 15.1461 14.9234 14.2382 14.4956 13.4833C14.0548 12.7053 13.0214 11.3564 12.342 10.6723C11.2759 9.59878 10.1446 8.8981 8.68649 8.40835C7.50592 8.01186 6.92966 7.95976 3.71667 7.95946L0.808062 7.95916L0.654235 8.15529ZM6.26402 18.5336C6.01887 18.7269 5.99578 19.1253 6.21687 19.3469C6.35258 19.483 6.46432 19.4958 7.51943 19.4958C8.64581 19.4958 8.67795 19.4914 8.85576 19.3131C8.95599 19.2126 9.03802 19.0436 9.03802 18.9376C9.03802 18.8315 8.95599 18.6625 8.85576 18.5621C8.67862 18.3844 8.64291 18.3793 7.56657 18.3793C6.55912 18.3793 6.44205 18.3932 6.26402 18.5336ZM27.4135 19.2167C27.3961 19.2679 27.245 19.7368 27.0778 20.2587L26.7737 21.2077H25.5442C24.4338 21.2077 24.2879 21.1926 24.0381 21.0518C23.6812 20.8507 23.515 20.5614 23.515 20.1412C23.515 19.7541 23.7622 19.3943 24.1423 19.2284C24.4592 19.09 27.4601 19.0793 27.4135 19.2167ZM17.056 21.5181C17.2398 21.5614 17.6722 21.7311 18.017 21.8951C19.2152 22.4654 20.1804 23.6655 20.5171 25.0036C20.6751 25.6319 20.6726 26.6901 20.5115 27.305C19.8027 30.0099 16.915 31.5494 14.3318 30.5996C13.5468 30.311 13.0147 29.9523 12.4261 29.3149C11.5362 28.3513 11.1469 27.2535 11.214 25.8968C11.2557 25.0524 11.3896 24.5676 11.7877 23.8188C12.4349 22.6014 13.7995 21.6526 15.2283 21.4266C15.6644 21.3577 16.5669 21.4028 17.056 21.5181ZM15.1383 23.6211C14.6856 23.769 14.5318 23.9308 14.5318 24.2593C14.5318 24.6696 14.7286 24.816 15.1796 24.7417C15.3745 24.7095 15.7401 24.68 15.9919 24.676C16.3874 24.6696 16.4925 24.699 16.7648 24.892C17.575 25.466 17.638 26.6297 16.8934 27.2685C15.998 28.0369 14.6801 27.5532 14.4237 26.362C14.2789 25.6898 13.344 25.7696 13.344 26.4542C13.344 27.061 13.8196 27.864 14.4272 28.2831C14.8988 28.6085 15.3155 28.7368 15.9053 28.7382C16.9424 28.7406 17.8566 28.1585 18.2877 27.2209C18.4716 26.8209 18.5031 26.6605 18.5033 26.12C18.5036 25.5915 18.4715 25.4185 18.3081 25.0691C17.8694 24.1312 17.0533 23.5833 16.0304 23.5402C15.6769 23.5253 15.3376 23.5561 15.1383 23.6211ZM34.0612 28.8762C34.335 29.023 34.4284 29.3435 34.4284 30.1355V30.8836H32.0834H29.7384L29.7634 30.021C29.7876 29.1819 29.794 29.1536 29.9966 28.979C30.2047 28.7997 30.2064 28.7995 32.0617 28.7995C33.1932 28.7995 33.9742 28.8294 34.0612 28.8762Z" fill="url(#paint0_linear_677_2825)"/>
<path fill-rule="evenodd" clip-rule="evenodd" d="M30.8648 0.108454C27.6732 0.765074 25.5083 3.55962 25.6896 6.78913C25.7724 8.26663 26.2471 9.45029 27.227 10.6231C28.2065 11.7954 29.489 12.4831 31.3659 12.8424L31.533 12.8744V20.2787V27.6831H30.7882C29.9554 27.6831 29.7017 27.7585 29.2774 28.1319C28.7548 28.5919 28.6802 28.8338 28.6506 30.1636C28.6324 30.9813 28.6523 31.4093 28.7157 31.5627C28.8936 31.9935 28.9443 32 32.1221 32H35.0199L35.2624 31.783L35.5049 31.566L35.5289 30.4812C35.557 29.2079 35.4642 28.7728 35.0642 28.3043C34.6546 27.8246 34.2731 27.6831 33.3894 27.6831H32.6458L32.6648 20.2638L32.6837 12.8444L33.2603 12.7468C35.3679 12.3899 37.275 10.808 38.0687 8.75817C39.3625 5.41701 37.6428 1.61179 34.284 0.383696C33.2411 0.00231706 31.9038 -0.105309 30.8648 0.108454ZM33.5375 1.29844C35.9357 2.03701 37.5262 4.28657 37.3768 6.72847C37.1445 10.5225 33.1789 12.8573 29.7883 11.1964C29.4208 11.0164 28.9296 10.7153 28.6968 10.5273C27.9558 9.92917 27.2732 8.8774 26.9548 7.84335C26.8503 7.50373 26.8194 7.16745 26.822 6.39614C26.8248 5.49695 26.8467 5.32874 27.0304 4.7959C27.6641 2.95703 29.1049 1.65019 30.9762 1.21694C31.5594 1.08192 32.9813 1.12717 33.5375 1.29844ZM0.682595 3.37838C0.450296 3.6112 0.450296 3.89656 0.682595 4.12938L0.864782 4.3121H10.4337C19.6097 4.3121 20.0077 4.31768 20.1255 4.44823C20.431 4.78667 20.3544 4.89362 18.4698 6.75794C16.736 8.47295 16.688 8.52855 16.5676 8.95838C16.4078 9.52874 16.4623 10.0727 16.7284 10.5629C16.971 11.0098 18.7455 12.7766 19.6198 13.4419C21.5481 14.909 23.5879 15.8146 25.8907 16.2255C26.3623 16.3096 26.3834 16.3235 26.8187 16.8344C27.2514 17.3424 27.597 17.8379 27.5978 17.9514C27.5981 17.9821 26.8526 18.0072 25.9413 18.0072C24.6878 18.0072 24.1934 18.0343 23.911 18.1184C23.0112 18.3862 22.4014 19.2155 22.4014 20.171C22.4014 21.1155 23.0124 21.9454 23.903 22.2105C24.1673 22.2893 24.6107 22.3241 25.3474 22.3241C25.932 22.3241 26.4103 22.3325 26.4102 22.3427C26.4101 22.3529 26.0299 23.5444 25.5651 24.9904C24.6529 27.8291 24.58 27.979 24.0389 28.1297C23.8018 28.1957 21.4362 28.2403 21.4362 28.1788C21.4362 28.1649 21.5056 27.8885 21.5905 27.5647C21.7037 27.1327 21.7448 26.7482 21.7448 26.12C21.7448 25.0556 21.5798 24.3765 21.0889 23.4202C20.4403 22.1565 19.1297 21.0271 17.7984 20.5846C16.3455 20.1016 14.8594 20.1753 13.5178 20.7967C11.3725 21.7904 10.0741 23.8202 10.0787 26.1727C10.0798 26.7357 10.1294 27.0727 10.3528 28.0366L10.3917 28.2041H5.59986H0.808062L0.654235 28.4002C0.450073 28.6603 0.459873 28.9146 0.682595 29.1378L0.864782 29.3205L5.93513 29.325L11.0054 29.3295L11.3395 29.7693C11.9033 30.5115 12.9567 31.2952 13.8316 31.6234C14.9571 32.0456 16.4651 32.1068 17.5386 31.7741C18.6915 31.4167 19.8325 30.6475 20.5003 29.7775L20.8433 29.3306L22.5317 29.307C24.1699 29.284 24.2324 29.2776 24.6286 29.0905C25.0843 28.8752 25.5285 28.4551 25.7134 28.0644C25.7807 27.9223 26.4853 25.7771 27.2794 23.2974L28.7233 18.7887L28.6982 18.1933C28.68 17.7592 28.6264 17.5023 28.5008 17.2453C28.2492 16.7309 23.1141 10.7405 22.8728 10.6797C22.4928 10.5841 22.0751 11.0586 22.2331 11.4062C22.276 11.5009 22.936 12.3073 23.6995 13.1981C24.4629 14.0891 25.0691 14.8365 25.0464 14.8592C24.9794 14.9264 23.7609 14.519 22.9898 14.1716C21.406 13.458 20.1763 12.5792 18.6761 11.0891C17.2637 9.68616 17.2454 9.53931 18.3442 8.42152L19.0272 7.72672L19.7576 8.58772C20.8472 9.87223 20.9995 9.97286 21.3891 9.66562C21.5318 9.55315 21.5847 9.443 21.5847 9.25871C21.5847 9.04398 21.4551 8.85396 20.7221 7.99392L19.8594 6.98175L20.5258 6.29819C21.2743 5.53044 21.396 5.28014 21.3475 4.60796C21.3065 4.04028 21.0378 3.64171 20.5224 3.38419L20.145 3.19565H10.5049H0.864782L0.682595 3.37838ZM30.3456 3.40696L30.1224 3.63077V6.46826V9.30567L30.3047 9.48832C30.5369 9.72122 30.8215 9.72122 31.0538 9.48832C31.2298 9.31193 31.236 9.27032 31.236 8.27065V7.23563L32.0873 7.19797C32.8142 7.16582 32.9982 7.13106 33.346 6.96046C34.0506 6.61489 34.4471 5.97114 34.4467 5.17348C34.4464 4.62739 34.3121 4.28181 33.9395 3.86835C33.4272 3.29978 33.2271 3.23778 31.8119 3.20868L30.5689 3.18315L30.3456 3.40696ZM32.8622 4.40626C33.2919 4.62768 33.4767 5.28334 33.2148 5.65802C32.9836 5.98908 32.7893 6.05756 31.997 6.08703L31.236 6.11531V5.21367V4.3121L31.9599 4.31322C32.3864 4.31381 32.757 4.35207 32.8622 4.40626ZM0.654235 8.15529C0.403969 8.47422 0.461654 8.78995 0.802642 8.96672C0.976143 9.05671 1.50429 9.07561 3.84436 9.07561C6.3782 9.07561 6.7523 9.09117 7.40049 9.22358C9.05072 9.56075 10.4363 10.3079 11.5993 11.4876C12.2768 12.1747 13.4956 13.8582 13.5986 14.2491C13.6881 14.5885 13.5138 14.9738 13.1779 15.1791C12.9414 15.3237 12.794 15.3272 6.90026 15.3274L0.864782 15.3277L0.682595 15.5104C0.450296 15.7433 0.450296 16.0286 0.682595 16.2614L0.864782 16.4442H6.90531C13.864 16.4442 13.4896 16.477 14.1384 15.8098C14.784 15.1461 14.9234 14.2382 14.4956 13.4833C14.0548 12.7053 13.0214 11.3564 12.342 10.6723C11.2759 9.59878 10.1446 8.8981 8.68649 8.40835C7.50592 8.01186 6.92966 7.95976 3.71667 7.95946L0.808062 7.95916L0.654235 8.15529ZM6.26402 18.5336C6.01887 18.7269 5.99578 19.1253 6.21687 19.3469C6.35258 19.483 6.46432 19.4958 7.51943 19.4958C8.64581 19.4958 8.67795 19.4914 8.85576 19.3131C8.95599 19.2126 9.03802 19.0436 9.03802 18.9376C9.03802 18.8315 8.95599 18.6625 8.85576 18.5621C8.67862 18.3844 8.64291 18.3793 7.56657 18.3793C6.55912 18.3793 6.44205 18.3932 6.26402 18.5336ZM27.4135 19.2167C27.3961 19.2679 27.245 19.7368 27.0778 20.2587L26.7737 21.2077H25.5442C24.4338 21.2077 24.2879 21.1926 24.0381 21.0518C23.6812 20.8507 23.515 20.5614 23.515 20.1412C23.515 19.7541 23.7622 19.3943 24.1423 19.2284C24.4592 19.09 27.4601 19.0793 27.4135 19.2167ZM17.056 21.5181C17.2398 21.5614 17.6722 21.7311 18.017 21.8951C19.2152 22.4654 20.1804 23.6655 20.5171 25.0036C20.6751 25.6319 20.6726 26.6901 20.5115 27.305C19.8027 30.0099 16.915 31.5494 14.3318 30.5996C13.5468 30.311 13.0147 29.9523 12.4261 29.3149C11.5362 28.3513 11.1469 27.2535 11.214 25.8968C11.2557 25.0524 11.3896 24.5676 11.7877 23.8188C12.4349 22.6014 13.7995 21.6526 15.2283 21.4266C15.6644 21.3577 16.5669 21.4028 17.056 21.5181ZM15.1383 23.6211C14.6856 23.769 14.5318 23.9308 14.5318 24.2593C14.5318 24.6696 14.7286 24.816 15.1796 24.7417C15.3745 24.7095 15.7401 24.68 15.9919 24.676C16.3874 24.6696 16.4925 24.699 16.7648 24.892C17.575 25.466 17.638 26.6297 16.8934 27.2685C15.998 28.0369 14.6801 27.5532 14.4237 26.362C14.2789 25.6898 13.344 25.7696 13.344 26.4542C13.344 27.061 13.8196 27.864 14.4272 28.2831C14.8988 28.6085 15.3155 28.7368 15.9053 28.7382C16.9424 28.7406 17.8566 28.1585 18.2877 27.2209C18.4716 26.8209 18.5031 26.6605 18.5033 26.12C18.5036 25.5915 18.4715 25.4185 18.3081 25.0691C17.8694 24.1312 17.0533 23.5833 16.0304 23.5402C15.6769 23.5253 15.3376 23.5561 15.1383 23.6211ZM34.0612 28.8762C34.335 29.023 34.4284 29.3435 34.4284 30.1355V30.8836H32.0834H29.7384L29.7634 30.021C29.7876 29.1819 29.794 29.1536 29.9966 28.979C30.2047 28.7997 30.2064 28.7995 32.0617 28.7995C33.1932 28.7995 33.9742 28.8294 34.0612 28.8762Z" fill="white"/>
</g>
<defs>
<linearGradient id="paint0_linear_677_2825" x1="0.5" y1="0" x2="32.6371" y2="38.3499" gradientUnits="userSpaceOnUse">
<stop stop-color="#0ABD92"/>
<stop offset="1" stop-color="#009DB8"/>
</linearGradient>
</defs>
</svg>
