<svg width="66" height="48" viewBox="0 0 66 48" fill="none" xmlns="http://www.w3.org/2000/svg">
<path fill-rule="evenodd" clip-rule="evenodd" d="M49.9591 0.0935386C48.6082 0.36894 47.5912 1.39214 47.3454 2.7229C47.2608 3.18173 47.2258 5.81135 47.2503 9.87429C47.2858 15.7347 47.3097 16.3456 47.5217 16.8168C47.844 17.5337 48.4634 18.1496 49.2249 18.5107C49.8417 18.803 49.9938 18.8166 52.6766 18.8177L55.4832 18.819V32.8815V46.9439L55.8233 47.2846C56.0663 47.5278 56.2978 47.6251 56.6334 47.6251C57.2539 47.6251 57.6369 47.3377 57.8001 46.7494C57.888 46.4325 57.9337 41.5901 57.9341 32.5439L57.9349 18.819H60.6217C63.6894 18.819 64.1903 18.7175 64.9998 17.9309C66.0463 16.9145 65.9997 17.3119 65.9997 9.38924C65.9997 2.39156 65.998 2.34596 65.717 1.82022C65.5615 1.52932 65.2173 1.10059 64.9522 0.867555C63.9622 -0.00243893 64.2257 0.0263675 57.0316 0.00208259C53.4476 -0.0099307 50.265 0.0312762 49.9591 0.0935386ZM58.9852 4.01465C59.6161 4.24871 60.4163 4.95233 60.7227 5.54227C61.1783 6.41924 61.1423 8.41267 60.6537 9.37154C60.0308 10.5938 58.9537 11.0745 56.6445 11.1609C55.3697 11.2085 54.9977 11.2645 54.8702 11.4279C54.7604 11.5687 54.7089 12.1609 54.7089 13.2846C54.7089 15.2037 54.71 15.2021 53.4362 15.2021C52.1755 15.2021 52.2572 15.6035 52.2572 9.4059C52.2572 5.26778 52.2947 3.97719 52.4185 3.85047C52.68 3.58307 58.1936 3.72077 58.9852 4.01465ZM54.9291 5.95796C54.7542 6.13299 54.7089 6.4173 54.7089 7.34013C54.7089 8.95262 54.7469 9.00236 55.9716 8.99861C57.1904 8.99486 57.8936 8.84205 58.2266 8.50865C58.5484 8.18649 58.6681 7.20101 58.4493 6.67256C58.2137 6.10302 57.6903 5.88937 56.3331 5.80824C55.3275 5.74818 55.116 5.77078 54.9291 5.95796ZM10.8788 11.1892C10.038 11.4921 9.23883 12.0398 8.55751 12.7797C7.87632 13.5195 7.93039 13.4106 6.43988 17.0458C5.74153 18.7489 5.13712 20.1755 5.09648 20.216C5.05583 20.2567 4.5162 20.148 3.89708 19.9744C1.03 19.1702 -0.00603829 19.827 2.64519e-05 22.4444C0.00209105 23.3494 0.0642869 23.7985 0.241455 24.189C0.575016 24.9241 1.31582 25.4969 2.16024 25.6724C2.736 25.792 2.83846 25.8536 2.75845 26.0316C2.36837 26.8989 1.77338 28.9436 1.55221 30.1767C1.30627 31.5479 1.28756 32.1591 1.28756 38.8033C1.28756 46.5654 1.27504 46.4215 2.01146 47.1587C2.65238 47.8004 3.1235 47.9263 5.10409 47.9857C7.31475 48.052 8.21414 47.8962 8.85055 47.3367C9.64349 46.6398 9.73252 46.3471 9.80401 44.2019L9.86853 42.2643L24.4175 42.2315L38.9664 42.1985L38.9672 43.8462C38.9676 44.7523 39.0261 45.704 39.0975 45.961C39.2962 46.6772 39.7562 47.2691 40.3908 47.6251C40.9454 47.9362 41.0511 47.948 43.2892 47.948C45.4481 47.948 45.65 47.9276 46.1527 47.6585C46.8315 47.2954 47.2912 46.699 47.4838 45.9324C47.5912 45.5041 47.6177 43.3525 47.5782 38.2464C47.5236 31.178 47.5223 31.1505 47.1888 29.6697C46.863 28.2237 46.3657 26.618 46.0753 26.075C45.9442 25.8297 45.9735 25.7998 46.417 25.7263C47.5107 25.5449 48.115 25.1486 48.5477 24.329C48.7868 23.8764 48.8317 23.5796 48.8345 22.4359C48.8381 20.8989 48.6546 20.4103 47.8762 19.8851C47.2967 19.4942 46.6711 19.5126 45.0957 19.9667C44.386 20.1715 43.7702 20.3021 43.7274 20.2571C43.6845 20.2122 43.048 18.6971 42.3127 16.8904C40.8279 13.2416 40.5089 12.7227 39.2231 11.8631C37.7625 10.8868 38.6061 10.9388 24.3295 10.944C12.1943 10.9484 11.5122 10.9609 10.8788 11.1892ZM36.3577 13.3202C37.0728 13.689 37.5993 14.1621 37.863 14.6728C38.1704 15.2676 41.6986 23.8703 41.8859 24.4814C42.0303 24.9525 42.029 25.1098 41.8777 25.4722C41.7789 25.7091 41.5625 25.9802 41.3968 26.0748C41.1515 26.2147 38.0881 26.2537 24.9014 26.285C15.9946 26.3061 8.45093 26.2866 8.13775 26.2417C7.39115 26.1345 6.83448 25.6003 6.84041 24.9971C6.847 24.3415 10.8292 14.7549 11.3558 14.127C11.589 13.849 12.0756 13.4836 12.4371 13.3151L13.0945 13.0087L24.4217 13.0074L35.749 13.0061L36.3577 13.3202ZM15.2415 31.9831C15.5338 32.2198 15.5478 32.3099 15.588 34.1968C15.634 36.3616 15.5953 36.6606 15.2203 37.0359C14.9774 37.2792 14.7759 37.2911 10.895 37.2911H6.82441L6.50776 36.9739C6.19691 36.6629 6.19097 36.617 6.19097 34.5138C6.19097 32.4106 6.19691 32.3647 6.50776 32.0537L6.82441 31.7365H10.8807C14.6803 31.7365 14.9562 31.7522 15.2415 31.9831ZM42.2627 32.0537C42.5735 32.3647 42.5794 32.4106 42.5794 34.5138C42.5794 36.617 42.5735 36.6629 42.2627 36.9739L41.946 37.2911H37.8696H33.7932L33.4765 36.9739C33.1657 36.6629 33.1597 36.617 33.1597 34.5138C33.1597 32.4106 33.1657 32.3647 33.4765 32.0537L33.7932 31.7365H37.8696H41.946L42.2627 32.0537Z" fill="url(#paint0_linear_677_2821)"/>
<defs>
<linearGradient id="paint0_linear_677_2821" x1="0" y1="0" x2="46.5081" y2="64.2621" gradientUnits="userSpaceOnUse">
<stop stop-color="#0ABD92"/>
<stop offset="1" stop-color="#009DB8"/>
</linearGradient>
</defs>
</svg>
