<svg width="32" height="33" viewBox="0 0 32 33" fill="none" xmlns="http://www.w3.org/2000/svg">
<path d="M7.18717 14.5404C5.29412 14.5404 3.67849 13.8713 2.3403 12.5331C1.00211 11.1949 0.333008 9.57925 0.333008 7.6862C0.333008 5.79314 1.00211 4.17752 2.3403 2.83932C3.67849 1.50113 5.29412 0.832031 7.18717 0.832031C9.08023 0.832031 10.6959 1.50113 12.034 2.83932C13.3722 4.17752 14.0413 5.79314 14.0413 7.6862C14.0413 9.57925 13.3722 11.1949 12.034 12.5331C10.6959 13.8713 9.08023 14.5404 7.18717 14.5404ZM7.18717 10.6237C8.00315 10.6237 8.6964 10.3378 9.26692 9.76595C9.83876 9.19542 10.1247 8.50217 10.1247 7.6862C10.1247 6.87023 9.83876 6.17698 9.26692 5.60645C8.6964 5.03462 8.00315 4.7487 7.18717 4.7487C6.3712 4.7487 5.67795 5.03462 5.10742 5.60645C4.53559 6.17698 4.24967 6.87023 4.24967 7.6862C4.24967 8.50217 4.53559 9.19542 5.10742 9.76595C5.67795 10.3378 6.3712 10.6237 7.18717 10.6237ZM24.8122 32.1654C22.9191 32.1654 21.3035 31.4963 19.9653 30.1581C18.6271 28.8199 17.958 27.2043 17.958 25.3112C17.958 23.4181 18.6271 21.8025 19.9653 20.4643C21.3035 19.1261 22.9191 18.457 24.8122 18.457C26.7052 18.457 28.3209 19.1261 29.659 20.4643C30.9972 21.8025 31.6663 23.4181 31.6663 25.3112C31.6663 27.2043 30.9972 28.8199 29.659 30.1581C28.3209 31.4963 26.7052 32.1654 24.8122 32.1654ZM24.8122 28.2487C25.6281 28.2487 26.3214 27.9628 26.8919 27.3909C27.4638 26.8204 27.7497 26.1272 27.7497 25.3112C27.7497 24.4952 27.4638 23.802 26.8919 23.2314C26.3214 22.6596 25.6281 22.3737 24.8122 22.3737C23.9962 22.3737 23.303 22.6596 22.7324 23.2314C22.1606 23.802 21.8747 24.4952 21.8747 25.3112C21.8747 26.1272 22.1606 26.8204 22.7324 27.3909C23.303 27.9628 23.9962 28.2487 24.8122 28.2487ZM3.07467 32.1654L0.333008 29.4237L28.9247 0.832031L31.6663 3.5737L3.07467 32.1654Z" fill="white"/>
</svg>
