<svg width="46" height="61" viewBox="0 0 46 61" fill="none" xmlns="http://www.w3.org/2000/svg">
<path fill-rule="evenodd" clip-rule="evenodd" d="M21.3236 0.427343C19.1087 0.692036 17.5286 1.06059 15.8968 1.69325C11.8042 3.27989 8.28461 6.20969 7.25018 8.89074C6.8899 9.82455 6.89643 10.996 7.26628 11.7799C7.61642 12.5219 8.7555 13.6509 9.69087 14.183L10.4121 14.5933L10.4134 16.9209L10.4147 19.2484L10.1053 19.617C9.55506 20.2727 9.48121 20.611 9.48237 22.4729C9.48354 24.181 9.48844 24.2144 9.83181 24.8157C10.1977 25.4568 10.9148 25.9872 11.6083 26.1297C11.9558 26.2011 11.9735 26.237 12.2326 27.3976C12.7992 29.936 14.0775 31.9534 16.078 33.4662L16.9484 34.1243V34.936C16.9484 35.417 16.8699 35.9447 16.7558 36.2313C16.5699 36.698 16.5483 36.7125 16.1432 36.6437C15.5213 36.538 7.5806 38.0257 6.4449 38.4606C4.22543 39.3107 2.21842 41.176 1.09638 43.4313C0.371487 44.8882 0.138141 45.8702 0.0641701 47.7765L0 49.4262L0.322834 49.6814C0.720689 49.9958 1.08623 50.006 1.4471 49.7126C1.70273 49.5048 1.7277 49.3804 1.7935 47.9836C1.83247 47.1557 1.92441 46.2614 1.99791 45.9962L2.13127 45.5141L2.6759 45.7911C3.43661 46.1779 4.44349 46.1724 5.23325 45.777C5.87169 45.4574 7.00645 44.1829 7.46871 43.2666C7.9081 42.3953 7.77614 40.9569 7.19791 40.3149C7.04064 40.1403 7.05546 40.1083 7.34819 39.9888C7.79295 39.8074 12.7342 38.8949 12.8575 38.9714C12.9121 39.0053 13.8517 40.2921 14.9456 41.8309C16.0395 43.3697 17.0967 44.766 17.2949 44.9335C17.4931 45.1011 17.8372 45.2725 18.0595 45.3144C18.4194 45.3822 18.6676 45.3666 19.4394 45.2277C19.5822 45.202 19.8457 45.4067 20.2193 45.8337L20.7836 46.4784L19.9456 52.5448L19.1077 58.6112H13.5944H8.08124V54.86C8.08124 51.265 8.07156 51.099 7.8479 50.8743C7.50045 50.5252 6.87601 50.5617 6.57301 50.9488C6.34002 51.2463 6.33115 51.3922 6.33115 54.9344V58.6112H4.39706H2.46297L2.12193 58.2685L1.7809 57.9259V55.3911V52.8565L1.49447 52.5688C1.14456 52.2171 0.746008 52.2017 0.338235 52.524L0.0308017 52.7669V55.3531C0.0308017 56.9767 0.0812044 58.1083 0.166259 58.3934C0.357953 59.0364 1.02614 59.7685 1.71603 60.0912L2.30593 60.3672H23.0154H43.7249L44.3148 60.0912C45.0047 59.7685 45.6728 59.0364 45.8645 58.3934C45.9589 58.077 46 56.2853 46 52.4855C46 48.0052 45.9671 46.8569 45.8155 46.0517C45.1408 42.4664 42.4192 39.3306 39.0799 38.2914C37.7387 37.874 31.0504 36.6459 30.1689 36.6553L29.4469 36.6629L29.2646 36.2053C29.1606 35.944 29.0824 35.3981 29.0824 34.933V34.1186L29.7533 33.6209C31.8914 32.035 33.219 29.9925 33.7982 27.3976C34.0573 26.237 34.075 26.2011 34.4225 26.1297C35.116 25.9872 35.8331 25.4568 36.199 24.8157C36.5424 24.2144 36.5473 24.181 36.5484 22.4729C36.5496 20.611 36.4757 20.2727 35.9255 19.617L35.6161 19.2484L35.6183 16.9209L35.6205 14.5933L36.3549 14.162C37.8797 13.2664 38.8752 12.0175 39.0585 10.7702C39.2907 9.19036 37.9802 6.87072 35.8172 5.03287C32.3105 2.05325 27.4421 0.303436 22.8404 0.368965C22.1987 0.378109 21.5162 0.404367 21.3236 0.427343ZM26.4298 2.4551C30.1446 3.19162 33.8673 5.22934 35.9697 7.67699C36.7212 8.55184 37.1069 9.2185 37.2605 9.90766C37.386 10.4714 37.3749 10.5741 37.1341 11.0739C36.9741 11.406 36.6345 11.8093 36.2723 12.0974L35.6744 12.5729L35.6072 11.4144C35.5315 10.1078 35.4393 9.81763 34.9066 9.20795C34.396 8.6237 34.0937 8.48713 32.4368 8.09232C28.7067 7.20352 26.0152 6.87025 22.5487 6.86802C19.126 6.8658 16.8698 7.16847 13.3015 8.10826C12.1368 8.41492 11.8529 8.53754 11.4203 8.92004C10.6825 9.57263 10.491 10.0493 10.4182 11.4144L10.3564 12.5729L9.75854 12.0974C8.35449 10.9807 8.37199 9.7834 9.81897 7.97005C12.183 5.00708 16.6202 2.76328 21.2653 2.18161C22.2587 2.05724 25.2124 2.21361 26.4298 2.4551ZM27.1573 8.89648C28.9447 9.14465 31.9393 9.73077 32.8991 10.0203C33.773 10.284 33.866 10.4727 33.866 11.9818V13.2452H32.4744C31.1099 13.2452 31.0781 13.2511 30.841 13.5541C30.5262 13.956 30.5358 14.213 30.8803 14.616C31.1447 14.9254 31.2297 14.9484 32.3096 15.0035L33.4576 15.0622L32.727 15.5524C31.4557 16.4054 29.1997 17.1292 26.6906 17.4889C25.2902 17.6897 20.7176 17.6848 19.2819 17.481C16.8211 17.1316 14.5928 16.4059 13.2671 15.5219L12.5776 15.0622L20.1403 15.0035L27.7031 14.9449L27.9261 14.6682C28.2204 14.3028 28.2084 13.8513 27.8954 13.5164L27.6416 13.2452H19.9033H12.1648V11.9623C12.1648 10.2079 12.1844 10.1867 14.2869 9.66841C16.0589 9.23151 18.2155 8.84525 19.8069 8.67973C21.3647 8.51773 25.256 8.63249 27.1573 8.89648ZM12.9532 17.4066L13.5646 17.7583L13.5648 18.5496C13.5649 18.9848 13.5301 19.3409 13.4876 19.3409C13.4452 19.3409 13.1302 19.2521 12.7876 19.1436L12.1648 18.9464V17.9616C12.1648 17.42 12.2046 16.9944 12.2532 17.0159C12.302 17.0374 12.6169 17.2132 12.9532 17.4066ZM33.866 17.9713V18.9464L33.2432 19.1436C32.9006 19.2521 32.5856 19.3409 32.5432 19.3409C32.5007 19.3409 32.4669 18.9848 32.468 18.5496L32.47 17.7583L33.0806 17.3877C33.4162 17.1838 33.7303 17.0124 33.7785 17.0067C33.8267 17.0011 33.866 17.4351 33.866 17.9713ZM16.5984 18.7393C19.2261 19.3988 23.2246 19.6291 26.1656 19.2906C27.6633 19.1182 29.9603 18.6801 30.5011 18.4637C30.6732 18.3947 30.6991 18.5315 30.7345 19.6939L30.7742 21.0017L31.1552 21.3435C31.6721 21.8071 32.1609 21.7974 32.8276 21.3101C33.11 21.1037 33.6035 20.8657 33.9243 20.7812C34.7448 20.5654 34.7994 20.6695 34.7994 22.4493C34.7994 24.1892 34.7182 24.3139 33.5182 24.4167C32.5651 24.4983 32.3952 24.6843 32.2909 25.7606C31.9765 29.0065 30.3391 31.4401 27.4227 32.9961C25.9001 33.8085 24.891 34.0498 23.0154 34.0498C21.2094 34.0498 20.227 33.8289 18.7812 33.0979C15.8075 31.5945 14.0613 29.0546 13.7327 25.7545C13.6253 24.6768 13.4622 24.498 12.5126 24.4167C11.3126 24.3139 11.2314 24.1892 11.2314 22.4493C11.2314 20.6695 11.286 20.5654 12.1065 20.7812C12.4273 20.8657 12.9208 21.1037 13.2032 21.3101C13.8699 21.7974 14.3587 21.8071 14.8756 21.3435L15.2566 21.0017L15.2963 19.6939C15.3247 18.7636 15.3752 18.4012 15.4713 18.4382C15.5458 18.4669 16.0529 18.6025 16.5984 18.7393ZM20.0986 35.4888C20.997 35.7659 21.2714 35.7948 23.0154 35.7948C24.7594 35.7948 25.0338 35.7659 25.9322 35.4888C26.4777 35.3205 27.0083 35.1499 27.1113 35.1098C27.267 35.0492 27.3096 35.156 27.3622 35.7393C27.3971 36.1258 27.5637 36.7449 27.7324 37.1152C27.9796 37.6577 28.0102 37.8155 27.8899 37.9272C27.8079 38.0035 26.6774 38.8651 25.378 39.8419L23.0154 41.618L20.6528 39.8419C19.3534 38.8651 18.2229 38.0035 18.1409 37.9272C18.0206 37.8155 18.0512 37.6577 18.2984 37.1152C18.4671 36.7449 18.6337 36.1258 18.6686 35.7393C18.7212 35.156 18.7638 35.0492 18.9195 35.1098C19.0225 35.1499 19.5531 35.3205 20.0986 35.4888ZM18.4899 40.3934C19.9201 41.469 21.1296 42.384 21.1777 42.4266C21.2659 42.5049 18.7591 43.6113 18.5004 43.6081C18.3579 43.6064 14.8483 38.7648 14.8483 38.5701C14.8483 38.4614 15.4913 38.3426 15.7481 38.4039C15.8258 38.4225 17.0596 39.3177 18.4899 40.3934ZM30.9004 38.4485C31.0556 38.4485 31.1825 38.4998 31.1825 38.5626C31.1825 38.7623 27.6764 43.6063 27.5304 43.6081C27.3597 43.6103 24.7564 42.5215 24.8081 42.4695C24.8283 42.4491 26.0717 41.5083 27.571 40.3786C29.1243 39.2085 30.3663 38.3513 30.4577 38.3866C30.5461 38.4206 30.7452 38.4485 30.9004 38.4485ZM35.8619 39.3865C37.2347 39.6447 38.504 39.9154 38.6826 39.9885C38.9753 40.1082 38.9902 40.1403 38.8329 40.3149C38.2547 40.9569 38.1227 42.3953 38.5621 43.2666C39.0243 44.1829 40.1591 45.4574 40.7975 45.777C41.587 46.1723 42.5943 46.1779 43.3541 45.7915L43.8979 45.5148L44.0386 45.938C44.1382 46.2379 44.1912 48.0439 44.2206 52.1374L44.262 57.9136L43.9149 58.2624L43.5678 58.6112H41.6337H39.6997V54.9344C39.6997 51.3922 39.6908 51.2463 39.4578 50.9488C39.1548 50.5617 38.5304 50.5252 38.1829 50.8743C37.9592 51.099 37.9496 51.265 37.9496 54.86V58.6112H32.4345H26.9196L26.0838 52.5448L25.2481 46.4784L25.8118 45.8337C26.1853 45.4066 26.4486 45.202 26.5914 45.2277C27.3632 45.3666 27.6114 45.3822 27.9713 45.3144C28.1936 45.2725 28.5365 45.1022 28.7332 44.9358C28.9299 44.7695 29.9373 43.4397 30.9717 41.9806C32.9677 39.1653 33.1549 38.9174 33.284 38.9174C33.3292 38.9174 34.4893 39.1285 35.8619 39.3865ZM5.73927 41.3363C6.21704 41.9466 6.02803 42.5466 4.99606 43.6943C4.49716 44.2492 4.39507 44.3097 3.95767 44.3092C3.62713 44.3088 3.37209 44.2247 3.15694 44.0454L2.84122 43.7822L3.25168 43.1742C3.66494 42.5619 5.1944 41.0274 5.39146 41.0274C5.4498 41.0274 5.60638 41.1665 5.73927 41.3363ZM41.5571 41.7968C42.0036 42.22 42.5535 42.8399 42.7791 43.1742L43.1896 43.7822L42.8739 44.0454C42.6587 44.2247 42.4037 44.3088 42.0731 44.3092C41.6357 44.3097 41.5336 44.2492 41.0347 43.6943C40.2998 42.8769 40.0506 42.4508 40.0501 42.0104C40.0497 41.6552 40.4259 41.0274 40.6393 41.0274C40.6977 41.0274 41.1106 41.3736 41.5571 41.7968ZM23.8648 44.029C24.2639 44.197 24.6089 44.3517 24.6313 44.3729C24.6538 44.3941 24.5007 44.6259 24.291 44.8881L23.9097 45.3648H23.0154H22.1211L21.7398 44.8881C21.5302 44.6259 21.377 44.3941 21.3995 44.373C21.4948 44.2835 22.8533 43.7329 22.9897 43.7284C23.0719 43.7257 23.4656 43.861 23.8648 44.029ZM23.5988 47.25C23.5988 47.3196 23.94 49.831 24.3571 52.8309C24.7742 55.8307 25.1155 58.3584 25.1155 58.4481C25.1155 58.5813 24.7312 58.6112 23.0154 58.6112C21.2996 58.6112 20.9153 58.5813 20.9153 58.4481C20.9153 58.3584 21.2566 55.8307 21.6737 52.8309C22.0908 49.831 22.432 47.3196 22.432 47.25C22.432 47.1759 22.6749 47.1231 23.0154 47.1231C23.3559 47.1231 23.5988 47.1759 23.5988 47.25ZM10.1924 50.9416C9.68667 51.3691 9.57116 51.8898 9.61678 53.5352C9.65085 54.7616 9.69052 55.0071 9.90088 55.2915C10.3377 55.8816 10.5037 55.9114 13.3665 55.9132C17.0756 55.9157 17.0651 55.9232 17.0651 53.2774C17.0651 50.6243 17.0875 50.6399 13.2879 50.6399H10.5492L10.1924 50.9416ZM29.5857 50.8685C29.3812 50.9938 29.1581 51.201 29.0899 51.3293C29.0189 51.4623 28.9657 52.2718 28.9657 53.2169C28.9657 55.9326 28.9426 55.9157 32.6643 55.9132C35.5271 55.9114 35.6931 55.8816 36.1299 55.2915C36.3403 55.0071 36.38 54.7616 36.414 53.5352C36.4596 51.8898 36.3441 51.3691 35.8384 50.9416L35.4816 50.6399L32.7195 50.6403C30.1903 50.6407 29.9261 50.6599 29.5857 50.8685ZM15.315 53.2774V54.1566H13.3315H11.3481V53.2774V52.3982H13.3315H15.315V53.2774ZM34.6827 53.2774V54.1566H32.6993H30.7158V53.2774V52.3982H32.6993H34.6827V53.2774Z" fill="url(#paint0_linear_677_2574)"/>
<defs>
<linearGradient id="paint0_linear_677_2574" x1="0" y1="0.367188" x2="59.1766" y2="45.9583" gradientUnits="userSpaceOnUse">
<stop stop-color="#0ABD92"/>
<stop offset="1" stop-color="#009DB8"/>
</linearGradient>
</defs>
</svg>
