<svg width="32" height="30" viewBox="0 0 32 30" fill="none" xmlns="http://www.w3.org/2000/svg">
<path fill-rule="evenodd" clip-rule="evenodd" d="M5.94426 0.116633C5.65171 0.308723 5.55993 0.631924 5.55993 1.47006V2.23863L4.82762 2.26863C3.9997 2.3025 3.62814 2.43615 3.13122 2.87863C2.63656 3.31907 2.45705 3.735 2.42002 4.5259L2.38788 5.21243H1.56807C0.398104 5.21243 0.00190672 5.4084 0.00190672 5.98699C0.00190672 6.56699 0.397428 6.76154 1.57678 6.76154H2.40538V7.50089V8.24024H1.45901H0.512644L0.257275 8.47965C-0.0268597 8.74603 -0.0742531 9.02452 0.108185 9.35525C0.274475 9.65676 0.48891 9.7169 1.46652 9.73626L2.36782 9.75415V10.4935V11.2328L1.50408 11.2502C0.41613 11.272 0.330206 11.2922 0.150096 11.5692C-0.07891 11.9213 -0.0442097 12.2247 0.257275 12.5073L0.512644 12.7467H1.45901H2.40538V13.4861V14.2254H1.57678C0.397428 14.2254 0.00190672 14.42 0.00190672 15C0.00190672 15.58 0.397428 15.7746 1.57678 15.7746H2.40538V16.5139V17.2533H1.45901H0.512644L0.257275 17.4927C-0.0268597 17.759 -0.0742531 18.0375 0.108185 18.3683C0.274475 18.6698 0.48891 18.7299 1.46652 18.7493L2.36782 18.7672V19.5065V20.2459L1.50408 20.2632C0.41613 20.285 0.330206 20.3052 0.150096 20.5822C-0.07891 20.9343 -0.0442097 21.2377 0.257275 21.5203L0.512644 21.7598H1.45901H2.40538V22.4991V23.2385H1.57678C0.397428 23.2385 0.00190672 23.433 0.00190672 24.013C0.00190672 24.5916 0.398104 24.7876 1.56807 24.7876H2.38788L2.41987 25.4741C2.456 26.2503 2.59856 26.5986 3.07054 27.0645C3.54034 27.5282 3.984 27.6965 4.82762 27.7312L5.55993 27.7614V28.5299C5.55993 29.6268 5.76896 29.9982 6.38612 29.9982C7.00479 29.9982 7.21231 29.6274 7.21231 28.5218V27.745H8.00095H8.78959V28.6322V29.5194L9.04496 29.7588C9.32909 30.0252 9.62615 30.0696 9.97893 29.8986C10.3005 29.7427 10.3647 29.5416 10.3853 28.6251L10.4044 27.7802H11.1931H11.9817L12.0008 28.6251C12.0214 29.5416 12.0856 29.7427 12.4072 29.8986C12.76 30.0696 13.057 30.0252 13.3412 29.7588L13.5965 29.5194V28.6322V27.745H14.3852H15.1738V28.5218C15.1738 29.6274 15.3813 29.9982 16 29.9982C16.6187 29.9982 16.8262 29.6274 16.8262 28.5218V27.745H17.6148H18.4035V28.6322V29.5194L18.6588 29.7588C18.943 30.0252 19.24 30.0696 19.5928 29.8986C19.9144 29.7427 19.9786 29.5416 19.9992 28.6251L20.0183 27.7802H20.8069H21.5956L21.6147 28.6251C21.6353 29.5416 21.6995 29.7427 22.0211 29.8986C22.3738 30.0696 22.6709 30.0252 22.955 29.7588L23.2104 29.5194V28.6322V27.745H23.999H24.7877V28.5218C24.7877 29.6274 24.9952 29.9982 25.6139 29.9982C26.231 29.9982 26.4401 29.6268 26.4401 28.5299V27.7614L27.1724 27.7312C28.016 27.6965 28.4597 27.5282 28.9295 27.0645C29.4014 26.5986 29.544 26.2503 29.5801 25.4741L29.6121 24.7876H30.4319C31.6019 24.7876 31.9981 24.5916 31.9981 24.013C31.9981 23.433 31.6026 23.2385 30.4232 23.2385H29.5946V22.4991V21.7598H30.541H31.4874L31.7427 21.5203C32.0269 21.254 32.0743 20.9755 31.8918 20.6448C31.7255 20.3432 31.5111 20.2831 30.5335 20.2637L29.6322 20.2459V19.5065V18.7672L30.5335 18.7493C31.5111 18.7299 31.7255 18.6698 31.8918 18.3683C32.0743 18.0375 32.0269 17.759 31.7427 17.4927L31.4874 17.2533H30.541H29.5946V16.5139V15.7746H30.4232C31.6026 15.7746 31.9981 15.58 31.9981 15C31.9981 14.42 31.6026 14.2254 30.4232 14.2254H29.5946V13.4861V12.7467H30.541H31.4874L31.7427 12.5073C32.0269 12.241 32.0743 11.9625 31.8918 11.6317C31.7255 11.3302 31.5111 11.2701 30.5335 11.2507L29.6322 11.2328V10.4935V9.75415L30.5335 9.73626C31.5111 9.7169 31.7255 9.65676 31.8918 9.35525C32.0743 9.02452 32.0269 8.74603 31.7427 8.47965L31.4874 8.24024H30.541H29.5946V7.50089V6.76154H30.4232C31.6026 6.76154 31.9981 6.56699 31.9981 5.98699C31.9981 5.4084 31.6019 5.21243 30.4319 5.21243H29.6121L29.58 4.5259C29.5429 3.735 29.3634 3.31907 28.8688 2.87863C28.3719 2.43615 28.0003 2.3025 27.1724 2.26863L26.4401 2.23863V1.47006C26.4401 0.373222 26.231 0.00178755 25.6139 0.00178755C24.9952 0.00178755 24.7877 0.372588 24.7877 1.47823V2.25504H23.999H23.2104V1.36782V0.480604L22.955 0.241196C22.6536 -0.0414466 22.3299 -0.0739781 21.9544 0.140715C21.6589 0.309568 21.6373 0.390122 21.6141 1.41007L21.5956 2.21983H20.8069H20.0183L19.9992 1.37486C19.9786 0.458353 19.9144 0.257321 19.5928 0.101424C19.24 -0.0696123 18.943 -0.025181 18.6588 0.241196L18.4035 0.480604V1.36782V2.25504H17.6148H16.8262V1.47823C16.8262 0.372588 16.6187 0.00178755 16 0.00178755C15.3813 0.00178755 15.1738 0.372588 15.1738 1.47823V2.25504H14.3852H13.5965V1.36782V0.480604L13.3412 0.241196C13.0397 -0.0414466 12.716 -0.0739781 12.3405 0.140715C12.045 0.309568 12.0235 0.390122 12.0002 1.41007L11.9817 2.21983H11.1931H10.4044L10.3853 1.37486C10.3647 0.458353 10.3005 0.257321 9.97893 0.101424C9.62615 -0.0696123 9.32909 -0.025181 9.04496 0.241196L8.78959 0.480604V1.36782V2.25504H8.00095H7.21231V1.47823C7.21231 0.372588 7.00479 0.00178755 6.38612 0.00178755C6.23928 0.00178755 6.0404 0.0534716 5.94426 0.116633ZM27.7715 3.9642L27.9798 4.15939V15V25.8406L27.7715 26.0358L27.5633 26.2311H16H4.43668L4.22848 26.0358L4.02021 25.8406V15.0058C4.02021 4.27015 4.02156 4.1696 4.17042 4.01448C4.25304 3.92836 4.38824 3.83182 4.47086 3.79993C4.55348 3.76803 9.78305 3.74803 16.0922 3.75542L27.5633 3.76894L27.7715 3.9642ZM6.03469 5.32601C5.52966 5.5595 5.55993 4.94275 5.55993 15C5.55993 25.084 5.52786 24.4458 6.04648 24.6765C6.26985 24.7759 7.31867 24.7876 16 24.7876C24.6813 24.7876 25.7301 24.7759 25.9535 24.6765C26.4721 24.4458 26.4401 25.084 26.4401 15C26.4401 4.91599 26.4721 5.55422 25.9535 5.32348C25.7301 5.22412 24.6826 5.21257 15.9887 5.21405C7.32017 5.21546 6.2477 5.2275 6.03469 5.32601ZM24.7877 15V23.2385H16H7.21231V15V6.76154H16H24.7877V15ZM10.0091 12.0411C9.57898 12.1368 9.19728 12.4299 8.9866 12.8262L8.78959 13.1969V15.0058V16.8147L8.99944 17.1913C9.15169 17.4646 9.30904 17.6257 9.57267 17.7785C9.91937 17.9795 9.98134 17.9903 10.9321 18.0164C12.04 18.0468 12.3789 17.9825 12.6189 17.6964C12.8033 17.4766 12.8172 17.0657 12.6478 16.839C12.4424 16.564 12.0986 16.4787 11.1955 16.4787H10.3669V15V13.5213H11.1955C12.3748 13.5213 12.7703 13.3267 12.7703 12.7467C12.7703 12.4324 12.5977 12.1969 12.2747 12.0703C12.0012 11.9632 10.4494 11.9432 10.0091 12.0411ZM14.0708 12.0753C13.609 12.2636 13.5965 12.3402 13.5965 15C13.5965 17.6831 13.6061 17.7393 14.0962 17.9312C14.4244 18.0598 14.7967 17.9654 15.0224 17.6964C15.1556 17.5375 15.1738 17.4115 15.1738 16.6452V15.7746H16.0024C16.9055 15.7746 17.2494 15.6893 17.4548 15.4142C17.5579 15.2762 17.5773 15.0324 17.5773 13.8734C17.5773 12.3424 17.5532 12.2551 17.0816 12.0703C16.7311 11.933 14.4103 11.9368 14.0708 12.0753ZM18.8363 12.0789C18.4214 12.297 18.4035 12.4062 18.4035 14.7068V16.8147L18.6133 17.1913C18.7662 17.4656 18.9228 17.6257 19.1896 17.7803L19.5559 17.9926H20.8069H22.058L22.4243 17.7803C22.691 17.6257 22.8477 17.4656 23.0006 17.1913L23.2104 16.8147V14.7068C23.2104 12.3811 23.1942 12.2884 22.7494 12.0727C22.4296 11.9178 22.0677 11.9917 21.8254 12.2617L21.6331 12.4759V14.4773V16.4787H20.8069H19.9807V14.473V12.4673L19.7742 12.2525C19.5246 11.993 19.1365 11.9211 18.8363 12.0789ZM16 13.8734V14.2254H15.5869H15.1738V13.8734V13.5213H15.5869H16V13.8734Z" fill="url(#paint0_linear_677_2439)"/>
<defs>
<linearGradient id="paint0_linear_677_2439" x1="0" y1="0" x2="30.5268" y2="32.7215" gradientUnits="userSpaceOnUse">
<stop stop-color="#0ABD92"/>
<stop offset="1" stop-color="#009DB8"/>
</linearGradient>
</defs>
</svg>
