<svg width="54" height="55" viewBox="0 0 54 55" fill="none" xmlns="http://www.w3.org/2000/svg">
<path fill-rule="evenodd" clip-rule="evenodd" d="M24.4342 0.931768C16.1931 1.77674 8.90485 6.20143 4.3593 13.1195C-1.44501 21.9532 -1.45378 33.6233 4.33712 42.5438L4.86633 43.359L5.93753 42.2403C6.52662 41.6249 7.02425 41.0807 7.04326 41.0308C7.06238 40.9807 6.98518 40.8085 6.87165 40.6481C6.4678 40.0767 5.59852 38.427 5.1294 37.3415C4.18071 35.1461 3.45475 32.3739 3.29929 30.3533L3.22832 29.4298H6.45048H9.67263L9.74328 30.0312C9.85544 30.9851 10.1167 32.146 10.4632 33.2303C10.7883 34.2474 11.684 36.2918 11.8045 36.2918C11.8407 36.2918 12.3787 35.7811 13.0001 35.1569L14.13 34.0221L13.7549 33.0268C13.3382 31.9214 13.0388 30.8234 12.9252 29.9841L12.8501 29.4298H16.0019H19.1537V27.8463V26.2628H16.0019H12.8501L12.9252 25.7086C13.6054 20.6852 17.4255 16.0989 22.3452 14.3991C23.2903 14.0726 24.8598 13.7002 25.2907 13.7002C25.4127 13.7002 25.4375 14.2304 25.4375 16.8408V19.9815H27.0217H28.6058V16.8408C28.6058 14.2065 28.6299 13.7002 28.7549 13.7002C28.837 13.7002 29.2765 13.7714 29.7318 13.8585C30.1871 13.9456 30.6114 14.0169 30.6749 14.0169C30.7383 14.0169 30.8446 13.8351 30.9113 13.6129C31.046 13.1632 31.7574 12.0059 32.1669 11.5701L32.4325 11.2876L31.8763 11.1225C31.1518 10.9075 29.9635 10.6636 29.2074 10.5747L28.6058 10.5041V7.2987V4.09344H29.029C29.2616 4.09344 29.9389 4.16628 30.5339 4.25538C37.1977 5.25279 43.1646 9.04354 46.8965 14.6503C48.3411 16.8208 49.6515 19.8341 50.2491 22.3605C50.5043 23.4388 50.7838 25.2579 50.7838 25.8398V26.2628H47.5773H44.3707L44.3 25.6615C44.2114 24.908 43.9674 23.7184 43.7539 23L43.5908 22.4507L43.2433 22.7556C42.7944 23.1497 41.7584 23.7705 41.2526 23.9487C41.0348 24.0255 40.8565 24.1381 40.8565 24.199C40.8565 24.26 40.9278 24.6821 41.0149 25.1372C41.1021 25.5923 41.1734 26.0317 41.1734 26.1137C41.1734 26.2387 40.6669 26.2628 38.0315 26.2628H34.8896V27.8463V29.4298H38.0414H41.1932L41.1181 29.9841C40.8289 32.1206 39.7899 34.5649 38.3677 36.4546C37.0377 38.2219 34.7005 40.0592 32.7117 40.901L31.7741 41.2978V42.9544V44.611L32.2322 44.4732C35.1225 43.6037 38.2639 41.5274 40.2365 39.1826C42.4491 36.5525 43.9628 33.1631 44.2972 30.0897L44.3689 29.4298H47.5764H50.7838V29.8529C50.7838 30.4373 50.5045 32.2474 50.2382 33.3887C49.9485 34.6296 49.2897 36.5386 48.7626 37.6642C48.3873 38.4656 48.3609 38.5728 48.5157 38.6671C49.3008 39.1454 49.9049 39.5868 50.3496 40.007C50.7443 40.38 50.9002 40.4704 50.9811 40.373C51.2045 40.104 52.1769 37.8195 52.6261 36.5086C53.6165 33.6184 53.9964 31.2376 54 27.8991C54.0036 24.5757 53.6574 22.3249 52.6958 19.4185C49.4419 9.58341 41.0988 2.60302 30.7708 1.07439C29.4793 0.883207 25.7307 0.798858 24.4342 0.931768ZM25.4375 7.30103V10.5085L24.7246 10.584C23.6956 10.6929 21.8599 11.1777 20.5782 11.6788C16.5267 13.2632 13.092 16.5074 11.2293 20.5093C10.5041 22.0672 9.90814 24.1142 9.74613 25.603L9.67442 26.2628H6.46695H3.25948V25.8398C3.25948 25.2579 3.53903 23.4388 3.79418 22.3605C4.39183 19.8341 5.70223 16.8208 7.14687 14.6503C10.4514 9.6856 15.5512 6.10557 21.3458 4.68282C22.6711 4.35746 24.1127 4.12204 24.8831 4.10547L25.4375 4.09344V7.30103ZM37.1283 12.0212C35.3358 12.4428 33.8712 14.0312 33.5502 15.9017C33.016 19.0165 35.8518 21.8549 38.9648 21.3214C39.9986 21.1441 40.7941 20.7321 41.5493 19.983C43.7914 17.7587 43.3001 14.1282 40.5381 12.5106C39.6287 11.978 38.1899 11.7714 37.1283 12.0212ZM25.9128 23.2458C25.0235 23.4682 24.3579 23.848 23.6874 24.5157C21.8133 26.382 21.8146 29.3015 23.6903 31.1764C26.4193 33.9043 31.0327 32.4184 31.6877 28.6006C31.9444 27.104 31.4622 25.6272 30.353 24.5133C29.1621 23.3173 27.5111 22.8461 25.9128 23.2458ZM14.0719 38.5351C10.6383 41.9753 7.75138 44.9075 7.65643 45.0511C7.46908 45.3345 7.42811 46.0549 7.57702 46.4465C7.69899 46.7671 8.98088 48.0129 10.1769 48.9733C14.2522 52.2454 19.2899 54.267 24.5926 54.7586C27.2382 55.0037 27.9676 54.8639 28.3932 54.03C28.6014 53.6222 28.6058 53.425 28.6058 44.657V35.7007L27.2065 35.7059C26.3385 35.7092 25.5895 35.6553 25.2339 35.5641C23.6444 35.1566 22.3696 34.3892 21.1775 33.1225C20.7415 32.6593 20.369 32.2802 20.3498 32.2802C20.3305 32.2802 17.5055 35.095 14.0719 38.5351ZM43.6552 41.1906C42.297 41.6217 41.2597 42.5165 40.6638 43.7709C39.7757 45.6402 40.2611 47.975 41.8163 49.3161C43.7227 50.9597 46.5751 50.8633 48.3053 49.0968C50.068 47.2971 50.1394 44.5002 48.4709 42.6091C47.5599 41.5765 46.3192 41.0369 44.885 41.0494C44.4409 41.0533 43.8875 41.1168 43.6552 41.1906ZM36.7277 49.6368C35.6065 50.1487 33.4505 50.8761 32.4435 51.0821L31.7927 51.2154L31.7536 52.8061C31.7322 53.6809 31.7252 54.4138 31.7381 54.4345C31.7905 54.5186 33.9824 53.988 35.2383 53.5872C36.5752 53.1606 38.9524 52.1862 39.4474 51.862L39.7082 51.6912L39.1998 51.1673C38.7663 50.7206 38.4868 50.3431 37.8467 49.3396C37.7545 49.195 37.6126 49.2327 36.7277 49.6368Z" fill="url(#paint0_linear_677_2729)"/>
<defs>
<linearGradient id="paint0_linear_677_2729" x1="0" y1="0.867188" x2="55.08" y2="56.2172" gradientUnits="userSpaceOnUse">
<stop stop-color="#0ABD92"/>
<stop offset="1" stop-color="#009DB8"/>
</linearGradient>
</defs>
</svg>
