<svg width="33" height="34" viewBox="0 0 33 34" fill="none" xmlns="http://www.w3.org/2000/svg">
<path fill-rule="evenodd" clip-rule="evenodd" d="M12.1292 3.48713L11.479 3.71408C9.93861 4.25168 8.15135 5.28784 6.94684 6.34156C6.62864 6.61993 6.3496 6.84766 6.32662 6.84766C6.30371 6.84766 5.76165 6.54056 5.12208 6.16518C4.15978 5.60034 3.944 5.49914 3.8709 5.57844C3.8094 5.64508 0.350143 11.676 0.000183402 12.3267C-0.0111328 12.3476 0.502667 12.6677 1.142 13.0379C1.78126 13.408 2.31903 13.7481 2.33695 13.7936C2.35495 13.8391 2.30237 14.2712 2.22013 14.7537C1.94102 16.3911 1.95733 18.238 2.26512 19.8413C2.32669 20.162 2.36064 20.4661 2.34061 20.517C2.32057 20.5678 1.78161 20.9131 1.14291 21.2842C0.504213 21.6552 -0.00951618 21.9752 0.00130805 21.9954C0.351127 22.6469 3.8087 28.6755 3.87097 28.7426C3.94554 28.8228 4.15598 28.7243 5.12454 28.1558C5.76482 27.7801 6.30652 27.4727 6.32845 27.4727C6.35038 27.4727 6.62864 27.7004 6.94684 27.9788C8.15135 29.0325 9.93861 30.0686 11.479 30.6062L12.1292 30.8332V33.6602H20.0013V30.8332L20.6515 30.6074C22.1237 30.0964 23.9386 29.0491 25.1238 28.0267C25.4091 27.7807 25.6817 27.5501 25.7296 27.5145C25.7889 27.4704 26.1938 27.6715 26.9941 28.1425C27.7919 28.6121 28.1944 28.8121 28.2429 28.7631C28.2822 28.7233 29.1782 27.1767 30.234 25.3261C32.1182 22.0237 32.1509 21.9596 31.9992 21.8683C31.9143 21.8172 31.3703 21.4945 30.7904 21.1512C30.1901 20.7957 29.7448 20.4879 29.7562 20.4363C29.9975 19.3441 30.0748 18.5814 30.0809 17.2313C30.0866 15.9962 30.0618 15.622 29.9195 14.784C29.7714 13.9124 29.764 13.7855 29.8567 13.7172C29.9145 13.6745 30.4549 13.3536 31.0574 13.004C31.66 12.6544 32.1432 12.3503 32.1314 12.3284C31.7512 11.6256 28.3216 5.64557 28.2611 5.57993C28.1899 5.50269 27.9638 5.60873 27.0095 6.16668C26.3689 6.5412 25.8262 6.84766 25.8035 6.84766C25.7808 6.84766 25.5019 6.61993 25.1837 6.34156C23.9792 5.28784 22.1919 4.25168 20.6515 3.71408L20.0013 3.48713V0.660156H12.1292V3.48713ZM13.2538 3.08046C13.2538 4.04458 13.232 4.3696 13.1659 4.38987C10.4159 5.2345 9.00871 5.99371 7.29279 7.55822L6.49791 8.28301L5.45098 7.67202C4.87509 7.33597 4.37879 7.06144 4.34808 7.06194C4.30274 7.06272 2.08104 10.8881 1.64322 11.7191L1.52464 11.9443L2.59209 12.5697C3.1792 12.9138 3.671 13.2055 3.68506 13.2181C3.69912 13.2306 3.62911 13.5706 3.52958 13.9737C3.00749 16.0872 3.01628 18.3176 3.55496 20.4548C3.64134 20.7976 3.70024 21.0885 3.68583 21.1015C3.67135 21.1145 3.1792 21.4066 2.59209 21.7506L1.52464 22.376L1.64322 22.602C2.0667 23.4088 4.30246 27.2577 4.34808 27.2584C4.37879 27.2589 4.87509 26.9843 5.45098 26.6483L6.49791 26.0373L7.29279 26.7624C8.74436 28.0866 10.4805 29.098 12.2346 29.6412C12.6985 29.7849 13.1176 29.9148 13.1659 29.9299C13.2319 29.9506 13.2538 30.2759 13.2538 31.2398V32.5222H18.8768V31.2398C18.8768 30.2747 18.8985 29.9512 18.9646 29.9323C21.4358 29.2261 23.1506 28.3004 24.8387 26.7612L25.6346 26.0355L26.686 26.6474C27.2643 26.9839 27.7602 27.2589 27.788 27.2584C27.8287 27.2578 29.2495 24.8061 30.3849 22.7771L30.6121 22.3712L29.5415 21.7479C28.9527 21.4051 28.4589 21.1138 28.4441 21.1007C28.4293 21.0875 28.4979 20.7476 28.5966 20.3453C28.8913 19.143 28.9586 18.5504 28.9586 17.1602C28.9586 15.7707 28.8911 15.1724 28.5987 13.9737C28.5003 13.5706 28.4314 13.2307 28.4454 13.2183C28.4595 13.2059 28.9521 12.9156 29.5401 12.5732L30.6092 11.9508L30.489 11.7216C30.0942 10.9693 27.8297 7.06258 27.788 7.06187C27.7602 7.06137 27.2627 7.33732 26.6824 7.67507L25.6272 8.28906L25.1704 7.85672C23.316 6.10146 21.5957 5.13991 18.9646 4.38802C18.8985 4.3691 18.8768 4.04564 18.8768 3.08046V1.79809H13.2538V3.08046ZM14.8352 7.56356C10.7403 8.12918 7.48088 11.2445 6.6685 15.3692C6.58275 15.8045 6.54683 16.333 6.54683 17.1602C6.54683 17.9874 6.58275 18.5159 6.6685 18.9511C7.44123 22.8743 10.418 25.8865 14.2953 26.6684C15.1358 26.8379 16.9947 26.8379 17.8352 26.6684C21.7142 25.8862 24.689 22.8761 25.462 18.9511C25.6351 18.0722 25.6312 16.2119 25.4544 15.3466C25.299 14.5867 24.9243 13.4629 24.6258 12.862C23.2951 10.1834 20.796 8.25535 17.8883 7.66384C17.234 7.53077 15.4879 7.47338 14.8352 7.56356ZM14.6902 8.73655C11.2616 9.31974 8.54003 11.9726 7.79942 15.4533C7.63881 16.2078 7.61941 17.9536 7.76343 18.6893C8.21243 20.983 9.55582 23.0297 11.4263 24.2696L12.094 24.7122L12.1319 21.5568L11.6025 20.9874C8.95185 18.1364 9.43936 13.6891 12.6452 11.4763C12.9372 11.2747 14.236 10.6171 14.3421 10.6171C14.3621 10.6171 14.3784 12.009 14.3784 13.7102V16.8035L16.0653 17.6591L17.7522 16.8035V13.7102C17.7522 12.009 17.7685 10.6171 17.7884 10.6171C17.8943 10.6171 19.1932 11.2746 19.4853 11.476C20.7214 12.3283 21.5664 13.5038 22.0122 14.991C22.1834 15.5623 22.2039 15.7419 22.2034 16.6623C22.2028 17.4845 22.1731 17.8031 22.0566 18.2336C21.7601 19.3297 21.2753 20.1913 20.4744 21.0458L19.9986 21.5535L20.0365 24.7122L20.7042 24.2696C22.5747 23.0297 23.9181 20.983 24.3671 18.6893C24.5111 17.9536 24.4917 16.2078 24.3311 15.4533C23.4749 11.4297 20.0106 8.59538 15.995 8.63321C15.5891 8.63705 15.002 8.68349 14.6902 8.73655ZM12.8321 12.7602C12.0631 13.3942 11.444 14.3707 11.1698 15.3821C10.9772 16.0922 10.9947 17.3926 11.206 18.0847C11.4928 19.0238 11.8108 19.5451 12.566 20.3142L13.2538 21.0145V25.1795L13.4471 25.2584C13.5533 25.3017 13.925 25.4084 14.2729 25.4956C14.8072 25.6293 15.0912 25.6533 16.1004 25.6495C17.1866 25.6456 17.3656 25.6264 18.0684 25.4387L18.8416 25.2324L18.8789 21.0125L19.5656 20.3132C20.3196 19.5452 20.6378 19.0234 20.9245 18.0847C21.1359 17.3926 21.1533 16.0922 20.9608 15.3821C20.6865 14.3707 20.0674 13.3942 19.2985 12.7602L18.9119 12.4415L18.875 17.516L16.0653 18.9389L13.2555 17.516L13.2186 12.4415L12.8321 12.7602Z" fill="url(#paint0_linear_804_5936)"/>
<defs>
<linearGradient id="paint0_linear_804_5936" x1="0" y1="0.660156" x2="33.6524" y2="33.5876" gradientUnits="userSpaceOnUse">
<stop stop-color="#0ABD92"/>
<stop offset="1" stop-color="#009DB8"/>
</linearGradient>
</defs>
</svg>
