<svg width="36" height="37" viewBox="0 0 36 37" fill="none" xmlns="http://www.w3.org/2000/svg">
<path fill-rule="evenodd" clip-rule="evenodd" d="M4.31073 0.789892C2.37261 1.12013 0.778018 2.55512 0.164793 4.52094L0 5.04915V18.7476V32.446L0.164793 32.9742C0.721305 34.7581 1.98223 36.0202 3.76449 36.5772L4.29222 36.7422H17.9781H31.6639L32.1892 36.5771C33.9782 36.0148 35.235 34.7579 35.7914 32.9742L35.9562 32.446V24.8512V17.2564L35.7587 17.0864C35.491 16.8559 35.0845 16.8559 34.8167 17.0863L34.6192 17.2563L34.599 19.657L34.5787 22.0577H17.9754H1.3721L1.37316 13.8C1.37429 4.63975 1.35254 5.08648 1.84221 4.15386C2.32624 3.23188 3.30614 2.4773 4.33465 2.2346C4.72743 2.14199 6.46599 2.12846 17.9781 2.12846C29.4902 2.12846 31.2287 2.14199 31.6215 2.2346C32.6566 2.47885 33.6264 3.22518 34.113 4.15196C34.5636 5.01021 34.5819 5.1829 34.583 8.58708L34.5841 11.632L34.788 11.8604C34.9567 12.0494 35.0428 12.0889 35.2877 12.0889C35.5338 12.0889 35.6186 12.0497 35.7918 11.8556L36 11.6224L35.9756 8.30051C35.9517 5.05148 35.9475 4.96795 35.7883 4.48572C35.2059 2.72105 34.001 1.51425 32.2269 0.918425L31.7343 0.752987L18.1892 0.743057C10.7394 0.737563 4.4941 0.758692 4.31073 0.789892ZM6.98478 5.5716L6.75497 5.77711L6.73626 12.158C6.7155 19.2493 6.69073 18.8656 7.18244 19.0713C7.49084 19.2002 7.72931 19.1395 7.95138 18.8753L8.12708 18.6664V15.7137V12.7611H11.7157H15.3042V15.718V18.6749L15.4996 18.8939C15.6457 19.0575 15.7591 19.1146 15.9485 19.1199C16.2505 19.1285 16.5514 18.9487 16.6443 18.7041C16.6852 18.5964 16.7115 16.0585 16.7115 12.2216C16.7115 6.46499 16.7013 5.89874 16.5944 5.71752C16.3569 5.31509 15.8363 5.24523 15.5099 5.57195L15.3042 5.77781V8.56518V11.3525H11.7157H8.12708V8.56518V5.77781L7.9214 5.57195C7.64058 5.29087 7.29882 5.29073 6.98478 5.5716ZM20.8925 5.57779C20.7732 5.61512 20.6149 5.71288 20.5407 5.795C20.41 5.93945 20.405 6.14418 20.3869 12.099C20.3666 18.7836 20.3565 18.5967 20.7505 18.8551C20.9129 18.9617 21.1535 18.9704 23.1311 18.941C25.5793 18.9046 25.7408 18.8806 26.7384 18.4053C28.7631 17.4405 30.0102 15.0875 30.0097 12.2329C30.0091 8.86584 28.4374 6.38885 25.8685 5.70647C25.3999 5.58209 25.061 5.56033 23.2202 5.53687C21.9808 5.5211 21.0198 5.538 20.8925 5.57779ZM25.5422 7.07617C26.9764 7.48332 27.9571 8.62596 28.4085 10.4158C28.5398 10.9362 28.5648 11.2275 28.5643 12.2329C28.5639 13.2538 28.5403 13.5184 28.4041 14.0288C27.9367 15.7809 26.9557 16.9435 25.5774 17.3787C25.2696 17.476 24.8414 17.5075 23.4841 17.5328L21.7778 17.5647V12.2304V6.89594L23.4841 6.93609C24.6326 6.96313 25.3055 7.00891 25.5422 7.07617ZM34.9436 13.9159C34.7329 14.0327 34.5898 14.2855 34.5865 14.5465C34.583 14.8339 34.9876 15.2261 35.2877 15.2261C35.5727 15.2261 35.9913 14.8343 35.9913 14.5674C35.9913 14.001 35.4251 13.6487 34.9436 13.9159ZM34.583 27.7097C34.5822 31.2426 34.5642 32.0284 34.4759 32.4036C34.2334 33.433 33.4795 34.4138 32.5584 34.8983C31.6068 35.3988 32.605 35.3667 17.9781 35.3667C6.46599 35.3667 4.72743 35.3532 4.33465 35.2606C3.30614 35.0179 2.32624 34.2633 1.84221 33.3413C1.37604 32.4535 1.37429 32.4324 1.37316 27.7097L1.3721 23.4663H17.9781H34.5841L34.583 27.7097ZM14.9172 25.1482C14.5746 25.2387 14.1407 25.4869 13.8943 25.7334C13.4564 26.1719 13.2186 26.9221 13.4065 27.2734C13.4971 27.443 13.8345 27.6216 14.064 27.6216C14.2962 27.6216 14.6499 27.3144 14.7046 27.0652C14.8191 26.5434 15.5053 26.3403 15.8394 26.7292C16.2425 27.1981 16.0786 27.5291 14.1728 30.0952C13.8385 30.5455 13.5441 30.9968 13.5187 31.0983C13.4526 31.3617 13.6351 31.7471 13.8879 31.8779C14.0624 31.9682 14.3818 31.9882 15.6515 31.9882H17.2018L17.43 31.7841C17.7379 31.5088 17.7526 31.0967 17.4649 30.8085C17.2808 30.6241 17.2317 30.6132 16.4372 30.5797L15.603 30.5444L16.2363 29.6641C16.5847 29.1799 16.9959 28.5231 17.1503 28.2044C17.3902 27.7094 17.4306 27.5595 17.4284 27.1734C17.4237 26.3521 16.948 25.6271 16.1961 25.2952C15.8199 25.1292 15.2415 25.0627 14.9172 25.1482ZM20.1845 25.2328C19.714 25.4139 19.2572 25.8218 18.996 26.2937L18.7873 26.6708V28.5724V30.474L18.9769 30.8338C19.0812 31.0316 19.3275 31.3384 19.5243 31.5154C19.9995 31.9431 20.4335 32.0854 21.1383 32.0445C22.0108 31.9939 22.6546 31.5526 23.0616 30.7259C23.2139 30.4165 23.2202 30.3303 23.2202 28.5724V26.7413L22.9761 26.2905C22.425 25.2729 21.2434 24.8252 20.1845 25.2328ZM8.19202 25.3625C7.91127 25.6435 7.91113 25.9856 8.1916 26.3L8.39678 26.53L9.46316 26.5541C10.3707 26.5747 10.5235 26.5939 10.4894 26.6829C10.4674 26.7404 10.0195 27.768 9.49397 28.9665C8.44632 31.3562 8.43633 31.3987 8.84128 31.7398C9.11176 31.9677 9.46203 31.9756 9.70338 31.7593C9.81871 31.656 10.2994 30.6447 11.0841 28.8541C11.7461 27.3434 12.3047 26.0247 12.3252 25.9235C12.3693 25.707 12.1946 25.3328 12.001 25.2292C11.9187 25.185 11.1864 25.1566 10.1317 25.1566H8.3977L8.19202 25.3625ZM21.5501 26.7357L21.8129 26.9766L21.8355 28.4084C21.8502 29.3304 21.83 29.9354 21.7789 30.1076C21.6789 30.4453 21.3646 30.6494 20.9439 30.6498C20.6895 30.65 20.5975 30.6097 20.3986 30.4106L20.1594 30.1712V28.6464C20.1594 26.9788 20.1936 26.8066 20.5649 26.605C20.9078 26.4188 21.2545 26.4648 21.5501 26.7357ZM24.8684 27.7571L24.6627 27.9629V30.7816V33.6002L24.8212 33.7846C24.9266 33.9073 25.0762 33.9819 25.2685 34.0077C25.5194 34.0414 25.5889 34.0185 25.7961 33.8333L26.0348 33.62L26.0584 32.766C26.0816 31.9244 26.0841 31.9129 26.2343 31.9677C26.3181 31.9984 26.6399 32.0234 26.9495 32.0234C27.4241 32.0234 27.5756 31.9924 27.9152 31.8255C28.3572 31.6083 28.7274 31.2232 28.9722 30.7259C29.1948 30.2736 29.1968 29.353 28.9762 28.8728C28.5034 27.8436 27.2529 27.3003 26.1906 27.6626C25.8927 27.7642 25.8499 27.7642 25.705 27.6626C25.4475 27.482 25.1045 27.5208 24.8684 27.7571ZM27.3337 29.075C28.0652 29.5075 27.7634 30.6501 26.9176 30.6501C26.2652 30.6501 25.8701 29.9735 26.1764 29.3807C26.3782 28.9901 26.9394 28.8418 27.3337 29.075Z" fill="url(#paint0_linear_677_3019)"/>
<defs>
<linearGradient id="paint0_linear_677_3019" x1="0" y1="0.742188" x2="36.72" y2="37.6422" gradientUnits="userSpaceOnUse">
<stop stop-color="#0ABD92"/>
<stop offset="1" stop-color="#009DB8"/>
</linearGradient>
</defs>
</svg>
