<svg width="62" height="63" viewBox="0 0 62 63" fill="none" xmlns="http://www.w3.org/2000/svg">
<g clip-path="url(#clip0_677_2593)">
<path d="M58.094 0.867188H22.3572C20.7576 0.867188 19.4432 2.16919 19.4432 3.78119V7.42679C19.4432 9.02639 20.7452 10.3408 22.3572 10.3408H22.7912V47.206C22.7912 49.2892 24.4776 50.9756 26.5608 50.9756H28.3464L33.108 53.6788C33.2072 53.7284 33.3064 53.7656 33.418 53.7656H34.7324L36.3692 55.9356H32.4384C32.364 55.9356 32.2896 55.9108 32.2276 55.886L18.3148 48.1484C18.1164 48.0368 17.9056 47.9872 17.6948 47.9624V2.10719C17.6948 1.42519 17.1368 0.867188 16.4548 0.867188H1.24C0.558 0.867188 0 1.42519 0 2.10719C0 2.78919 0.558 3.34719 1.24 3.34719H15.2024V47.9128H1.24C0.8928 47.9128 0.62 48.1856 0.62 48.5328C0.62 48.88 0.8928 49.1528 1.24 49.1528H15.2024V51.9552H1.24C0.8928 51.9552 0.62 52.228 0.62 52.5752C0.62 52.9224 0.8928 53.1952 1.24 53.1952H15.2024V60.3872H1.24C0.558 60.3872 0 60.9452 0 61.6272C0 62.3092 0.558 62.8672 1.24 62.8672H16.4424C16.9012 62.8672 17.2732 62.6068 17.4964 62.2472H48.4592C48.9552 62.2472 49.4264 62.024 49.7364 61.652L52.2288 58.6636C52.6504 58.1552 52.7372 57.4856 52.452 56.8904C52.1792 56.2952 51.5964 55.9356 50.9392 55.9356H44.4292L45.7436 53.7656H46.81C46.934 53.7656 47.058 53.7284 47.1696 53.654L50.9764 50.9756H53.878C55.9612 50.9756 57.6476 49.2892 57.6476 47.206V10.3408H58.0816C59.6812 10.3408 60.9956 9.03879 60.9956 7.42679V3.78119C60.9956 2.16919 59.6936 0.867188 58.094 0.867188ZM51.336 57.4112C51.3732 57.4856 51.4352 57.684 51.274 57.87L48.7816 60.8584C48.6948 60.9576 48.5832 61.0072 48.4468 61.0072H17.6824V59.8416H31.5456C31.8928 59.8416 32.1656 59.5688 32.1656 59.2216C32.1656 58.8744 31.8928 58.6016 31.5456 58.6016H17.6824V49.2024H17.6948L31.6076 56.94C31.8556 57.0764 32.1408 57.1508 32.4136 57.1508H37.5968H43.338H50.9516C51.1872 57.1632 51.2988 57.3368 51.336 57.4112ZM42.9908 55.9232H37.9068L36.2824 53.7532H44.3176L42.9908 55.9232ZM46.624 52.5132H45.4088H35.03H33.5668L30.8512 50.9632H48.8188L46.624 52.5132ZM55.1676 47.206C55.1676 47.9128 54.5848 48.4956 53.878 48.4956H26.5608C25.854 48.4956 25.2712 47.9128 25.2712 47.206V10.3408H55.1676V47.206ZM58.5156 7.42679C58.5156 7.66239 58.3172 7.86079 58.0816 7.86079H56.4076H24.0436H22.3696C22.134 7.86079 21.9356 7.66239 21.9356 7.42679V3.78119C21.9356 3.54559 22.134 3.34719 22.3696 3.34719H58.1064C58.342 3.34719 58.5404 3.54559 58.5404 3.78119V7.42679H58.5156Z" fill="url(#paint0_linear_677_2593)"/>
<path d="M45.5082 25.4426C45.5082 22.5286 43.1398 20.1602 40.2258 20.1602C37.3118 20.1602 34.9434 22.5286 34.9434 25.4426C34.9434 28.3566 37.3118 30.725 40.2258 30.725C43.1398 30.725 45.5082 28.3566 45.5082 25.4426ZM37.4234 25.4426C37.4234 23.8926 38.6758 22.6402 40.2258 22.6402C41.7758 22.6402 43.0282 23.8926 43.0282 25.4426C43.0282 26.9926 41.7758 28.245 40.2258 28.245C38.6758 28.245 37.4234 26.9926 37.4234 25.4426Z" fill="url(#paint1_linear_677_2593)"/>
<path d="M40.2253 17.3828C35.7241 17.3828 32.0537 21.0532 32.0537 25.5544C32.0537 25.9016 32.3265 26.1744 32.6737 26.1744C33.0209 26.1744 33.2937 25.9016 33.2937 25.5544C33.2937 21.7352 36.4061 18.6228 40.2253 18.6228C44.0445 18.6228 47.1569 21.7352 47.1569 25.5544C47.1569 25.9016 47.4297 26.1744 47.7769 26.1744C48.1241 26.1744 48.3969 25.9016 48.3969 25.5544C48.3969 21.0532 44.7265 17.3828 40.2253 17.3828Z" fill="url(#paint2_linear_677_2593)"/>
<path d="M40.2258 35.7617C37.3118 35.7617 34.9434 38.1301 34.9434 41.0441C34.9434 43.9581 37.3118 46.3265 40.2258 46.3265C43.1398 46.3265 45.5082 43.9581 45.5082 41.0441C45.5082 38.1301 43.1398 35.7617 40.2258 35.7617ZM40.2258 43.8465C38.6758 43.8465 37.4234 42.5941 37.4234 41.0441C37.4234 39.4941 38.6758 38.2417 40.2258 38.2417C41.7758 38.2417 43.0282 39.4941 43.0282 41.0441C43.0282 42.5817 41.7758 43.8465 40.2258 43.8465Z" fill="url(#paint3_linear_677_2593)"/>
<path d="M40.2253 32.9844C35.7241 32.9844 32.0537 36.6548 32.0537 41.156C32.0537 41.5032 32.3265 41.776 32.6737 41.776C33.0209 41.776 33.2937 41.5032 33.2937 41.156C33.2937 37.3368 36.4061 34.2244 40.2253 34.2244C44.0445 34.2244 47.1569 37.3368 47.1569 41.156C47.1569 41.5032 47.4297 41.776 47.7769 41.776C48.1241 41.776 48.3969 41.5032 48.3969 41.156C48.3969 36.6424 44.7265 32.9844 40.2253 32.9844Z" fill="url(#paint4_linear_677_2593)"/>
<path d="M31.7316 16.4152H48.7196C49.6496 16.4152 50.3936 15.6588 50.3936 14.7412V13.092C50.3936 12.162 49.6372 11.418 48.7196 11.418H31.7316C30.8016 11.418 30.0576 12.1744 30.0576 13.092V14.7412C30.0576 15.6712 30.8016 16.4152 31.7316 16.4152ZM31.2976 13.092C31.2976 12.8564 31.496 12.658 31.7316 12.658H48.7196C48.9552 12.658 49.1536 12.8564 49.1536 13.092V14.7412C49.1536 14.9768 48.9552 15.1752 48.7196 15.1752H31.7316C31.496 15.1752 31.2976 14.9768 31.2976 14.7412V13.092Z" fill="url(#paint5_linear_677_2593)"/>
<path d="M52.9233 46.872C53.615 46.872 54.1757 46.3113 54.1757 45.6196C54.1757 44.9279 53.615 44.3672 52.9233 44.3672C52.2316 44.3672 51.6709 44.9279 51.6709 45.6196C51.6709 46.3113 52.2316 46.872 52.9233 46.872Z" fill="url(#paint6_linear_677_2593)"/>
<path d="M27.8129 46.872C28.5046 46.872 29.0653 46.3113 29.0653 45.6196C29.0653 44.9279 28.5046 44.3672 27.8129 44.3672C27.1213 44.3672 26.5605 44.9279 26.5605 45.6196C26.5605 46.3113 27.1213 46.872 27.8129 46.872Z" fill="url(#paint7_linear_677_2593)"/>
<path d="M52.9233 14.1611C53.615 14.1611 54.1757 13.6003 54.1757 12.9087C54.1757 12.217 53.615 11.6562 52.9233 11.6562C52.2316 11.6562 51.6709 12.217 51.6709 12.9087C51.6709 13.6003 52.2316 14.1611 52.9233 14.1611Z" fill="url(#paint8_linear_677_2593)"/>
<path d="M27.8129 14.1611C28.5046 14.1611 29.0653 13.6003 29.0653 12.9087C29.0653 12.217 28.5046 11.6562 27.8129 11.6562C27.1213 11.6562 26.5605 12.217 26.5605 12.9087C26.5605 13.6003 27.1213 14.1611 27.8129 14.1611Z" fill="url(#paint9_linear_677_2593)"/>
<path d="M52.9236 28.2461C52.2416 28.2461 51.6836 28.8041 51.6836 29.4861V41.4893C51.6836 42.1713 52.2416 42.7293 52.9236 42.7293C53.6056 42.7293 54.1636 42.1713 54.1636 41.4893V29.4861C54.1636 28.8041 53.6056 28.2461 52.9236 28.2461Z" fill="url(#paint10_linear_677_2593)"/>
</g>
<defs>
<linearGradient id="paint0_linear_677_2593" x1="0" y1="0.867188" x2="63.2366" y2="63.3843" gradientUnits="userSpaceOnUse">
<stop stop-color="#0ABD92"/>
<stop offset="1" stop-color="#009DB8"/>
</linearGradient>
<linearGradient id="paint1_linear_677_2593" x1="34.9434" y1="20.1602" x2="45.7195" y2="30.9891" gradientUnits="userSpaceOnUse">
<stop stop-color="#0ABD92"/>
<stop offset="1" stop-color="#009DB8"/>
</linearGradient>
<linearGradient id="paint2_linear_677_2593" x1="32.0537" y1="17.3828" x2="39.5161" y2="31.3232" gradientUnits="userSpaceOnUse">
<stop stop-color="#0ABD92"/>
<stop offset="1" stop-color="#009DB8"/>
</linearGradient>
<linearGradient id="paint3_linear_677_2593" x1="34.9434" y1="35.7617" x2="45.7195" y2="46.5906" gradientUnits="userSpaceOnUse">
<stop stop-color="#0ABD92"/>
<stop offset="1" stop-color="#009DB8"/>
</linearGradient>
<linearGradient id="paint4_linear_677_2593" x1="32.0537" y1="32.9844" x2="39.5162" y2="46.9247" gradientUnits="userSpaceOnUse">
<stop stop-color="#0ABD92"/>
<stop offset="1" stop-color="#009DB8"/>
</linearGradient>
<linearGradient id="paint5_linear_677_2593" x1="30.0576" y1="11.418" x2="32.4098" y2="21.0372" gradientUnits="userSpaceOnUse">
<stop stop-color="#0ABD92"/>
<stop offset="1" stop-color="#009DB8"/>
</linearGradient>
<linearGradient id="paint6_linear_677_2593" x1="51.6709" y1="44.3672" x2="54.2258" y2="46.9346" gradientUnits="userSpaceOnUse">
<stop stop-color="#0ABD92"/>
<stop offset="1" stop-color="#009DB8"/>
</linearGradient>
<linearGradient id="paint7_linear_677_2593" x1="26.5605" y1="44.3672" x2="29.1154" y2="46.9346" gradientUnits="userSpaceOnUse">
<stop stop-color="#0ABD92"/>
<stop offset="1" stop-color="#009DB8"/>
</linearGradient>
<linearGradient id="paint8_linear_677_2593" x1="51.6709" y1="11.6562" x2="54.2258" y2="14.2237" gradientUnits="userSpaceOnUse">
<stop stop-color="#0ABD92"/>
<stop offset="1" stop-color="#009DB8"/>
</linearGradient>
<linearGradient id="paint9_linear_677_2593" x1="26.5605" y1="11.6562" x2="29.1154" y2="14.2237" gradientUnits="userSpaceOnUse">
<stop stop-color="#0ABD92"/>
<stop offset="1" stop-color="#009DB8"/>
</linearGradient>
<linearGradient id="paint10_linear_677_2593" x1="51.6836" y1="28.2461" x2="56.6215" y2="29.0958" gradientUnits="userSpaceOnUse">
<stop stop-color="#0ABD92"/>
<stop offset="1" stop-color="#009DB8"/>
</linearGradient>
<clipPath id="clip0_677_2593">
<rect width="62" height="62" fill="white" transform="translate(0 0.867188)"/>
</clipPath>
</defs>
</svg>
