<svg width="130" height="34" viewBox="0 0 130 34" fill="none" xmlns="http://www.w3.org/2000/svg">
<path fill-rule="evenodd" clip-rule="evenodd" d="M112.428 0.185835C107.973 0.869946 105.017 3.06505 103.823 6.57577C102.678 9.94124 103.963 13.9056 106.905 16.0849C108.698 17.4129 110.452 18.0804 115.79 19.4649C119.67 20.4714 120.703 20.8647 121.594 21.6752C122.662 22.6465 122.877 24.1414 122.151 25.5547C121.742 26.3503 120.673 27.3284 119.761 27.7402C118.327 28.3881 115.871 28.6054 114.12 28.2393C111.437 27.6786 109.842 26.1208 108.993 23.2324L108.67 22.1334L108.229 22.1673C107.986 22.1859 106.619 22.3175 105.191 22.4596C103.762 22.6017 102.497 22.718 102.38 22.718C102.199 22.718 102.181 22.8205 102.261 23.4C102.731 26.829 104.472 29.9429 106.848 31.6049C109.073 33.1621 111.349 33.8264 114.964 33.974C120.34 34.1934 124.236 33.0236 126.634 30.4695C128.549 28.4308 129.412 26.0581 129.265 23.2376C129.104 20.1385 128.038 17.9618 125.856 16.2774C124.131 14.9452 122.077 14.1498 117.202 12.9254C112.025 11.6251 110.627 10.9703 110.033 9.56866C108.954 7.02019 112.379 5.00592 116.862 5.55246C119.37 5.85814 120.699 6.93146 121.357 9.18178C121.647 10.1727 121.653 10.1816 122.092 10.1816C123.507 10.1816 128.211 9.95151 128.287 9.87863C128.445 9.72819 128.129 7.75419 127.785 6.73907C127.162 4.89979 125.73 3.06051 124.078 1.979C122.672 1.05793 120.614 0.384469 118.391 0.117502C116.873 -0.0646337 113.832 -0.0298175 112.428 0.185835ZM0.28125 17.0019V33.5006H3.63878H6.9963V26.6153V19.73L8.47757 19.7311C10.3418 19.7322 11.4488 19.9075 12.3092 20.3378C13.665 21.0156 14.4945 22.0658 19.4731 29.4084L22.2039 33.4356L26.2018 33.4701C29.8823 33.5018 30.1929 33.4874 30.1156 33.2886C29.9855 32.9542 25.7903 26.3702 24.4564 24.4068C23.0652 22.3594 21.4034 20.6312 19.8559 19.6229C19.2887 19.2531 18.9035 18.9277 19.0001 18.8995C19.0966 18.8715 19.5311 18.777 19.9656 18.6897C21.1992 18.4417 22.7611 17.8346 23.6725 17.2487C25.5208 16.0606 26.9117 14.0295 27.3557 11.8704C27.6659 10.3619 27.5507 8.06676 27.0946 6.67125C26.273 4.15734 24.4415 2.17763 22.2271 1.40973C20.0339 0.649097 17.7945 0.505806 8.08256 0.504377L0.28125 0.503207V17.0019ZM67.6309 0.925418C67.5889 1.1577 67.5714 8.56743 67.5919 17.3916L67.6293 33.4356H70.9868H74.3443L74.3783 26.2581L74.4124 19.0805H80.9946H87.577V26.2905V33.5006H90.9345H94.292V17.0019V0.503207H90.9345H87.577V6.99876V13.4943H80.9936H74.4102V6.99876V0.503207H71.0586H67.7071L67.6309 0.925418ZM18.1923 6.44755C19.0507 6.78791 19.9041 7.59557 20.2849 8.42778C20.6369 9.19737 20.6605 10.9425 20.3311 11.8494C20.0221 12.6999 19.3749 13.4109 18.5467 13.8096C17.569 14.2803 16.0938 14.3987 11.1768 14.4015L6.9963 14.4037V10.2385V6.07314L12.2301 6.11601C17.2803 6.1572 17.4894 6.16889 18.1923 6.44755ZM44.9083 9.27857C41.885 9.81887 39.0631 11.4898 37.4817 13.6763C36.7044 14.7512 35.7749 16.6954 35.4263 17.9762C35.0289 19.4357 34.9341 22.3275 35.2284 24.0171C35.6903 26.6708 36.4759 28.4224 37.9585 30.1046C41.2972 33.8928 48.3383 35.1307 53.1183 32.7699C56.2889 31.2039 58.4518 28.5975 59.4654 25.1213C60.0978 22.9524 60.056 19.5934 59.3695 17.3916C58.0328 13.1055 54.0688 9.77742 49.6215 9.20738C48.281 9.03563 46.0823 9.06876 44.9083 9.27857ZM48.34 14.2783C50.7894 14.6575 52.5722 16.486 53.161 19.2226C53.4838 20.7233 53.3584 23.3831 52.9025 24.7016C52.3452 26.3133 51.5034 27.3909 50.2236 28.131C48.7688 28.9722 46.6875 29.045 45.1256 28.3096C42.7752 27.2028 41.6249 24.9987 41.6249 21.6014C41.6249 18.9032 42.158 17.2767 43.502 15.8747C44.4495 14.8862 45.6733 14.3412 47.3525 14.16C47.4249 14.1522 47.8693 14.2054 48.34 14.2783Z" fill="white"/>
</svg>
