<svg width="60" height="60" viewBox="0 0 60 60" fill="none" xmlns="http://www.w3.org/2000/svg">
<path fill-rule="evenodd" clip-rule="evenodd" d="M40.4146 1.75683V3.51355L41.4919 3.59506C49.2177 4.17974 55.511 10.5082 56.0904 18.2753L56.1713 19.3586H57.9015H59.6319V18.8578C59.6319 18.5824 59.579 17.9103 59.5143 17.3645C58.403 7.98702 50.8759 0.722058 41.6084 0.0824539L40.4146 0V1.75683ZM40.3241 8.90549L40.3564 10.633L41.2484 10.7144C43.1641 10.8891 45.0152 11.7908 46.4777 13.2615C47.9402 14.7322 48.8369 16.5937 49.0106 18.5202L49.0915 19.4172L50.8268 19.4498L52.5619 19.4822L52.493 18.3957C52.373 16.5027 51.6221 14.3517 50.4703 12.6012C49.5606 11.2188 47.8997 9.66058 46.3828 8.76647C44.8297 7.85116 42.6042 7.18532 41.0811 7.18052L40.2919 7.17794L40.3241 8.90549ZM17.1507 11.1308C13.5983 16.019 12.5296 22.3058 14.1693 28.6698C14.5552 30.1678 15.4565 32.4777 16.174 33.8078L16.7343 34.8464L17.8884 34.878C19.7684 34.9296 21.4093 35.5935 22.8169 36.8724C23.4506 37.4481 24.276 38.7141 24.6242 39.6443C24.9614 40.5452 25.1802 41.9961 25.0846 42.6974L25.0155 43.205L26.3966 43.9189C33.7708 47.7298 42.2079 47.3616 48.3949 42.9587C48.938 42.5722 49.3824 42.2034 49.3825 42.1392C49.3825 42.0751 46.1204 38.7415 42.1332 34.7316L34.8837 27.4408L37.3274 24.9813L39.7709 22.522L38.5511 21.2912L37.3312 20.0603L34.8831 22.5201L32.4351 24.9798L25.1569 17.66C21.1538 13.6342 17.8441 10.3402 17.802 10.3402C17.7598 10.3402 17.4667 10.6959 17.1507 11.1308ZM40.3241 15.9281L40.3564 17.651L40.7455 17.731C41.2586 17.8363 41.8878 18.4632 42.0123 18.9932L42.1119 19.4172L43.8255 19.4496L45.5392 19.482V19.0227C45.5392 18.3289 45.1254 17.1521 44.6277 16.4306C43.7795 15.2009 42.0654 14.2053 40.7965 14.2053H40.2919L40.3241 15.9281ZM16.9734 38.4598C15.8797 38.719 14.8416 39.5924 14.3408 40.6749C13.9088 41.6086 13.9147 42.8248 14.3557 43.7312C15.1769 45.4191 16.9628 46.3268 18.6219 45.8993C19.8515 45.5826 20.7383 44.8231 21.2913 43.6133C22.5134 40.9396 19.8623 37.7754 16.9734 38.4598ZM11.0891 50.2989L9.31702 52.9727H17.7612C22.4055 52.9727 26.2054 52.9494 26.2054 52.9209C26.2054 52.8811 22.9087 47.7951 22.7573 47.6012C22.7391 47.5779 22.4956 47.7473 22.2161 47.9774C21.5883 48.4949 20.4484 49.038 19.4582 49.2916C18.9104 49.432 18.3784 49.4696 17.4782 49.4318C15.9346 49.367 14.9436 49.047 13.739 48.2245L12.861 47.6251L11.0891 50.2989ZM0 58.2432V60H18.6932H37.3864V58.2432V56.4863H18.6932H0V58.2432Z" fill="url(#paint0_linear_677_2416)"/>
<defs>
<linearGradient id="paint0_linear_677_2416" x1="0" y1="0" x2="61.2007" y2="61.1234" gradientUnits="userSpaceOnUse">
<stop stop-color="#0ABD92"/>
<stop offset="1" stop-color="#009DB8"/>
</linearGradient>
</defs>
</svg>
