<svg width="25" height="31" viewBox="0 0 25 31" fill="none" xmlns="http://www.w3.org/2000/svg">
<path fill-rule="evenodd" clip-rule="evenodd" d="M16.7566 0.0441673C16.3236 0.305564 16.3295 0.892343 16.7674 1.12329C16.8381 1.16053 17.0183 1.19104 17.1679 1.19104C18.0634 1.19104 19.419 1.56718 20.2489 2.04595C22.2968 3.22733 23.5625 5.21012 23.7875 7.5895C23.8707 8.46928 23.8821 8.51525 24.0612 8.68634C24.3348 8.9478 24.7687 8.8467 24.9364 8.48232C25.1255 8.0713 24.8705 6.32358 24.4671 5.26647C23.4629 2.63473 21.1639 0.655933 18.5068 0.136232C17.8399 0.0057765 16.9019 -0.0435917 16.7566 0.0441673ZM16.8742 3.23934C16.8095 3.25341 16.6838 3.33559 16.5948 3.42195C16.3939 3.61718 16.3752 3.94929 16.5523 4.1814C16.6964 4.37032 16.7357 4.3836 17.3934 4.46614C18.6847 4.6282 19.7148 5.36605 20.2831 6.53579C20.5256 7.03511 20.5976 7.3201 20.7015 8.19072C20.7736 8.79569 21.2992 9.04053 21.6808 8.64704L21.861 8.46121L21.8282 7.84344C21.716 5.73298 20.202 3.88646 18.1683 3.37992C17.685 3.25953 17.0826 3.19409 16.8742 3.23934ZM6.13964 3.33613C5.60832 3.45585 5.2751 3.66934 4.80207 4.19316C3.61062 5.51264 2.85085 7.07138 2.48146 8.95411C2.33229 9.71452 2.27712 11.3237 2.37123 12.1685C2.72433 15.3363 4.20823 18.1498 6.74024 20.4521L7.13498 20.811L6.60566 22.5395C6.31451 23.4901 5.94418 24.6978 5.7826 25.2232L5.48885 26.1784H4.60597C3.50051 26.1784 2.9959 26.2784 2.26465 26.6421C0.966144 27.288 0.0292043 28.7467 0.00238245 30.1641C-0.00649934 30.634 0.00232356 30.6722 0.156078 30.8313L0.319127 31H8.61007H16.901L17.0558 30.8404C17.3774 30.5087 17.2726 29.5443 16.8067 28.5499C16.583 28.0725 16.4569 27.8945 16.0305 27.4546C15.6638 27.0763 15.3993 26.8643 15.0851 26.6969C14.2699 26.2625 14.0912 26.2268 12.5657 26.1945L11.1981 26.1656V24.5577V22.9499L11.3305 22.9908C11.4033 23.0134 11.7621 23.0968 12.1278 23.1762C14.6597 23.7258 17.1528 23.3699 19.227 22.1627C20.1984 21.5974 21.2368 20.7101 21.5294 20.1952C22.2788 18.8767 21.705 16.4718 19.976 13.6847C19.5134 12.9391 19.4061 12.8356 19.0957 12.8356C18.7474 12.8356 18.5506 13.0331 18.5506 13.3828C18.5506 13.5907 18.6336 13.7687 19.0503 14.4546C20.7159 17.1962 21.1486 19.368 20.1387 19.9191C19.8963 20.0513 19.822 20.0612 19.2564 20.0362C18.7521 20.014 18.5203 19.9689 17.9918 19.79C16.6796 19.3457 14.8376 18.2422 13.3092 16.9848C12.9114 16.6576 12.9 16.6408 12.9884 16.5145C13.5916 15.6533 13.6944 14.5185 13.2591 13.5286L13.0944 13.1539L14.6314 11.5729L16.1684 9.99193L16.3717 10.0819C16.6126 10.1884 17.1998 10.2038 17.5291 10.1124C18.5903 9.81781 19.169 8.51416 18.7043 7.46542C18.428 6.84195 17.9821 6.4766 17.338 6.34596C16.0656 6.08784 14.9007 7.25781 15.134 8.55928C15.1674 8.7459 15.2208 8.94519 15.2525 9.00214C15.3004 9.08814 15.0497 9.37495 13.7734 10.6935L12.2366 12.2812L11.9631 12.1384C11.0761 11.6749 10.0464 11.7172 9.18432 12.2524L8.84687 12.4619L8.44719 11.9362C6.00847 8.72795 4.90648 5.51106 5.96724 4.69673C6.37097 4.38675 7.23486 4.41405 8.27085 4.76957C9.36913 5.1465 11.0244 6.08013 12.1393 6.95142C12.9606 7.59332 13.1992 7.74113 13.415 7.74113C13.6959 7.74113 13.9627 7.46675 13.9627 7.17782C13.9627 6.88767 13.8139 6.71731 13.0551 6.13836C10.2687 4.01249 7.72065 2.98 6.13964 3.33613ZM4.55062 7.01801C4.5528 7.24975 4.94701 8.32633 5.31504 9.10573C6.92711 12.5195 10.3948 16.4768 13.9627 18.9743C15.4704 20.0296 16.8977 20.7636 18.0239 21.0627C18.2489 21.1225 18.433 21.1889 18.433 21.2103C18.433 21.256 17.8949 21.5093 17.433 21.6812C15.1678 22.5236 12.5235 22.3587 10.1235 21.2253C6.80112 19.6562 4.36757 16.5122 3.65456 12.8676C3.54363 12.3006 3.52392 12.005 3.52516 10.9252C3.52686 9.47726 3.62144 8.86004 4.00348 7.80438C4.29593 6.99624 4.4318 6.73035 4.49751 6.8374C4.52621 6.8841 4.55009 6.96543 4.55062 7.01801ZM17.2833 7.58441C17.5443 7.69685 17.6879 7.93247 17.6879 8.24815C17.6879 8.55419 17.5486 8.79387 17.312 8.89491C16.7897 9.11798 16.2959 8.8037 16.2959 8.24815C16.2959 7.93842 16.4376 7.6991 16.6875 7.58702C16.9275 7.47943 17.0383 7.47894 17.2833 7.58441ZM17.5836 11.3274C17.371 11.4998 17.3093 11.6857 17.3787 11.9448C17.5507 12.5874 18.4918 12.4579 18.4918 11.7917C18.4918 11.2985 17.9566 11.0249 17.5836 11.3274ZM11.3874 13.1976C11.9177 13.4789 12.2708 13.9968 12.3528 14.6138C12.3923 14.9111 12.2672 15.4311 12.0908 15.7034L11.9813 15.8722L10.7916 14.6455L9.60182 13.4187L9.73823 13.309C10.1215 13.0009 10.9156 12.9472 11.3874 13.1976ZM9.3272 22.1646L10.0149 22.5091L10.0183 24.3438L10.0217 26.1784H8.36849C7.07011 26.1784 6.7213 26.1622 6.74336 26.1026C6.75889 26.0609 7.04099 25.1398 7.37026 24.0557C7.69959 22.9716 8.00957 21.9548 8.05916 21.7961L8.14927 21.5075L8.39437 21.6638C8.52919 21.7498 8.94893 21.9751 9.3272 22.1646ZM14.1685 27.5961C14.6552 27.8023 15.1045 28.1329 15.3953 28.4988C15.5894 28.7431 15.9 29.3596 15.9907 29.6809L16.0293 29.8173H8.61877H1.20825L1.26807 29.5899C1.34783 29.2865 1.63281 28.7383 1.85579 28.4594C2.21618 28.0086 2.93131 27.5745 3.51298 27.4536C3.64744 27.4256 6.00729 27.407 8.75712 27.4122L13.7568 27.4217L14.1685 27.5961Z" fill="url(#paint0_linear_677_2454)"/>
<defs>
<linearGradient id="paint0_linear_677_2454" x1="0" y1="0" x2="30.9343" y2="25.0693" gradientUnits="userSpaceOnUse">
<stop stop-color="#0ABD92"/>
<stop offset="1" stop-color="#009DB8"/>
</linearGradient>
</defs>
</svg>
