<svg width="46" height="47" viewBox="0 0 46 47" fill="none" xmlns="http://www.w3.org/2000/svg">
<path fill-rule="evenodd" clip-rule="evenodd" d="M0.586514 0.761676C-0.0949942 0.978622 -0.194882 1.64692 0.359703 2.27839L0.730902 2.70116L0.359703 3.12393C-0.0518098 3.5925 -0.105641 3.94878 0.174642 4.34882C0.455643 4.75007 1.02255 4.70283 1.50189 4.2382L1.89043 3.86183L2.31929 4.2382C2.94996 4.79192 3.70552 4.71383 3.86498 4.07866C3.95039 3.73841 3.73434 3.23922 3.35166 2.89299L3.10176 2.66695L3.5189 2.20531C3.98975 1.68423 4.03449 1.41407 3.71544 1.02012C3.38564 0.612899 2.82627 0.65691 2.33987 1.12824L1.94726 1.50855L1.67092 1.21446C1.36169 0.885457 0.858303 0.675209 0.586514 0.761676ZM5.01267 5.17786C4.91397 5.21422 4.73908 5.32592 4.62388 5.42614C4.42602 5.59848 4.41454 6.72698 4.41454 25.9625C4.41454 46.0502 4.41765 46.3192 4.64984 46.5293C4.77928 46.6464 5.02331 46.7422 5.1921 46.7422C5.3609 46.7422 5.60493 46.6464 5.73437 46.5293C5.96656 46.3192 5.96967 46.0515 5.96788 25.9738C5.9668 14.7854 5.92649 5.57205 5.87816 5.49969C5.79609 5.37687 5.314 5.08146 5.22991 5.10251C5.20909 5.10766 5.11136 5.14162 5.01267 5.17786ZM44.0469 5.23742C43.9023 5.30654 43.7274 5.52576 43.6581 5.72429C43.4769 6.24417 43.4824 45.6966 43.6637 46.2168C43.8565 46.7695 44.5365 46.9157 44.9976 46.5036C45.1954 46.3267 45.2069 45.1962 45.2069 25.9625C45.2069 6.72746 45.1954 5.59836 44.9976 5.4247C44.6972 5.161 44.3496 5.09259 44.0469 5.23742ZM10.4438 6.99523C9.70044 7.33273 9.39312 7.84998 9.33702 8.85769C9.29503 9.61162 9.24897 9.74342 8.88603 10.1463L8.48181 10.5952V12.9266V15.258L8.9005 15.7213L9.31919 16.1846V17.4114V18.6382L8.9005 19.1015L8.48181 19.5648V21.8962V24.2276L8.88842 24.6775C9.2863 25.1179 9.29587 25.1533 9.33702 26.3439C9.40496 28.3124 9.65965 28.5194 12.8229 29.1796L15.0581 29.6461L17.2964 29.1554C19.6325 28.6433 19.9429 28.5101 20.4145 27.8174C20.6469 27.4761 20.6836 27.2671 20.6836 26.2881C20.6836 25.1603 20.6859 25.1519 21.1023 24.6909L21.521 24.2276V21.8595V19.4914L21.1023 19.0857L20.6836 18.6801V17.4323V16.1846L21.1023 15.7213L21.521 15.258V12.8899V10.5217L21.1149 10.1282C20.7376 9.76267 20.7055 9.6719 20.6643 8.85506C20.6116 7.81434 20.3932 7.43929 19.6046 7.03649C19.0884 6.7729 18.9954 6.7674 15.006 6.77003C11.2939 6.77243 10.8908 6.79228 10.4438 6.99523ZM24.2724 7.00659C24.0568 7.2221 24.0332 7.4052 24.0332 8.85351C24.0332 10.3794 24.0467 10.4708 24.2991 10.6474C24.6617 10.9015 25.0622 10.8812 25.349 10.5945C25.5638 10.3798 25.5883 10.1958 25.5883 8.80052C25.5883 7.4052 25.5638 7.22127 25.349 7.00659C25.2175 6.87504 24.9752 6.7674 24.8107 6.7674C24.6462 6.7674 24.404 6.87504 24.2724 7.00659ZM19.0559 8.63094C19.0958 8.73499 19.1285 9.1818 19.1285 9.62406C19.1285 10.3858 19.1505 10.4493 19.5472 10.8336L19.9659 11.2393V12.8899V14.5404L19.5472 15.0037L19.1285 15.467V17.4323V19.3976L19.5472 19.8033L19.9659 20.209V21.8595V23.5101L19.5515 23.9687C19.1387 24.4256 19.1369 24.4324 19.1029 25.7203C19.0763 26.7239 19.0285 27.0341 18.8893 27.1057C18.7906 27.1565 17.8891 27.3725 16.886 27.5856L15.0622 27.9732L13.1265 27.5658C12.062 27.3418 11.1197 27.0873 11.0326 27.0004C10.9219 26.8899 10.8743 26.4748 10.8743 25.6206C10.8743 24.4397 10.8625 24.3848 10.5204 23.9846L10.1663 23.5706L10.1615 21.8289L10.1566 20.0872L10.5154 19.7435L10.8743 19.3998V17.3932V15.3866L10.5154 14.978L10.1566 14.5693V12.8434V11.1176L10.5154 10.7739C10.8484 10.455 10.8743 10.3685 10.8743 9.57945C10.8743 9.07727 10.9332 8.66993 11.0179 8.58525C11.1236 8.47953 12.19 8.44174 15.0724 8.44174C18.5282 8.44174 18.9918 8.46374 19.0559 8.63094ZM11.3163 10.9665C10.8657 11.2286 10.8624 11.5885 11.2986 12.8834L11.7117 14.1097V16.9976C11.7117 19.7408 11.6935 19.975 11.3492 21.6683C10.9101 23.8288 10.8896 24.1542 11.1741 24.4684C11.3858 24.7023 11.511 24.7091 15.0385 24.6785L18.6841 24.6469L18.908 24.347C19.1289 24.0511 19.1262 24.0183 18.7116 21.9648C18.3018 19.9352 18.2911 19.8112 18.2911 17.0737V14.2648L18.7089 12.9731C19.156 11.5903 19.1476 11.2195 18.6636 10.9605C18.3421 10.7884 11.6129 10.7939 11.3163 10.9665ZM17.0949 12.6198C17.0949 12.6813 17.0423 12.8696 16.9782 13.0384L16.8616 13.3452H15.0161H13.1707L13.0393 12.9685C12.9671 12.7614 12.908 12.573 12.908 12.55C12.908 12.5269 13.85 12.508 15.0014 12.508C16.2202 12.508 17.0949 12.5547 17.0949 12.6198ZM24.2991 12.6942C24.0467 12.8708 24.0332 12.9622 24.0332 14.4881C24.0332 15.9364 24.0568 16.1195 24.2724 16.335C24.404 16.4666 24.6462 16.5742 24.8107 16.5742C24.9752 16.5742 25.2175 16.4666 25.349 16.335C25.5638 16.1204 25.5883 15.9364 25.5883 14.5411C25.5883 13.1458 25.5638 12.9618 25.349 12.7472C25.0622 12.4604 24.6617 12.4402 24.2991 12.6942ZM16.6164 16.933V18.9661H15.0014H13.3865V16.933V14.8999H15.0014H16.6164V16.933ZM24.2311 18.4673C24.0682 18.6473 24.0335 18.9594 24.035 20.2313C24.036 21.0812 24.0763 21.8358 24.1247 21.9082C24.2809 22.1421 24.7537 22.3301 24.994 22.2538C25.5357 22.082 25.5883 21.903 25.5883 20.2319C25.5883 18.8458 25.5605 18.6193 25.3695 18.4465C25.0792 18.1837 24.4778 18.1947 24.2311 18.4673ZM16.9937 21.5972C17.1025 22.0906 17.1968 22.6423 17.203 22.8231L17.2145 23.152H15.0014C13.1896 23.152 12.7883 23.1217 12.7883 22.9854C12.7883 22.8067 13.1284 21.0406 13.2117 20.7867C13.25 20.67 13.6778 20.6418 15.0288 20.6671L16.7958 20.7003L16.9937 21.5972ZM32.1145 22.8013C30.004 23.2785 29.6687 23.4292 29.207 24.1075C28.9745 24.4489 28.9378 24.6578 28.9378 25.6368C28.9378 26.7646 28.9355 26.7731 28.5191 27.234L28.1004 27.6973V30.0654V32.4335L28.5191 32.8392L28.9378 33.2449V34.4926V35.7404L28.5191 36.2037L28.1004 36.667V39.0351V41.4032L28.5191 41.8089C28.9151 42.1925 28.9378 42.2578 28.9378 43.0106C28.9378 43.9875 29.2261 44.4921 30.0109 44.8885C30.5323 45.1518 30.6303 45.1575 34.62 45.1575C38.6097 45.1575 38.7078 45.1518 39.2297 44.8885C39.95 44.525 40.2977 43.8986 40.3003 42.9595C40.302 42.3253 40.3433 42.2111 40.7209 41.7931L41.1396 41.3298V38.9984V36.667L40.7209 36.2037L40.3023 35.7404V34.5135V33.2867L40.7209 32.8234L41.1396 32.3601V30.0287V27.6973L40.733 27.2474C40.3352 26.8071 40.3256 26.7717 40.2844 25.5811C40.2396 24.2805 40.1207 23.9822 39.4466 23.4791C39.1202 23.2355 35.1182 22.3049 34.5004 22.3289C34.303 22.3367 33.2294 22.5492 32.1145 22.8013ZM24.6313 23.9626C24.0863 24.138 24.0332 24.3158 24.0332 25.9625C24.0332 27.3792 24.0571 27.5616 24.2685 27.7528C24.3979 27.8699 24.6419 27.9657 24.8107 27.9657C24.9795 27.9657 25.2236 27.8699 25.353 27.7528C25.5644 27.5616 25.5883 27.3792 25.5883 25.9625C25.5883 24.6083 25.5586 24.3595 25.3789 24.2053C25.1079 23.9724 24.8552 23.8905 24.6313 23.9626ZM36.4742 24.3479C37.3437 24.5453 38.155 24.7067 38.2772 24.7067C38.6359 24.7067 38.7471 25.0952 38.7471 26.3478C38.7471 27.4806 38.7609 27.5423 39.1011 27.9403L39.4552 28.3544L39.46 30.0961L39.4649 31.8377L39.106 32.1814L38.7471 32.5252V34.5317V36.5383L39.106 36.947L39.4649 37.3556V39.0815V40.8074L39.106 41.1511C38.7807 41.4626 38.7471 41.5662 38.7471 42.2577C38.7471 43.5839 39.0906 43.4832 34.5688 43.4832C30.0972 43.4832 30.4929 43.5944 30.4929 42.3376C30.4929 41.6288 30.4611 41.5351 30.0743 41.1071L29.6556 40.6438V39.0142V37.3846L30.0743 36.9212L30.4929 36.4579V34.4926V32.5273L30.0743 32.1216L29.6556 31.716V30.0654V28.4149L30.07 27.9563C30.4828 27.4994 30.4846 27.4926 30.5185 26.2047C30.5451 25.201 30.593 24.8909 30.7322 24.8193C30.9963 24.6834 34.0791 24.0182 34.5175 24.0025C34.7242 23.9953 35.6048 24.1506 36.4742 24.3479ZM30.8287 27.4275C30.7299 27.5426 30.6145 27.6979 30.5723 27.7727C30.5301 27.8474 30.6834 28.8387 30.913 29.9756C31.3196 31.9894 31.3303 32.1152 31.3303 34.8691V37.6956L30.9078 38.945C30.1649 41.1415 30.1119 41.1122 34.7363 41.0665C38.0923 41.0334 38.2976 41.0187 38.4579 40.7994C38.7075 40.4577 38.6684 40.0613 38.2686 38.8788L37.9097 37.8174V34.8685C37.9097 32.0655 37.9274 31.8322 38.2686 30.1483C38.6872 28.0824 38.7074 27.6864 38.4087 27.4162C38.2154 27.2412 37.7725 27.2182 34.5992 27.2182C31.3278 27.2182 30.9925 27.2369 30.8287 27.4275ZM36.8276 28.9823C36.8246 29.0973 36.7282 29.649 36.6132 30.2081L36.4043 31.2247H34.615H32.8256L32.6278 30.3277C32.5189 29.8344 32.4247 29.2827 32.4184 29.1019L32.407 28.773H34.62C36.6501 28.773 36.8326 28.7903 36.8276 28.9823ZM24.4518 29.7531C24.3203 29.8277 24.173 29.9472 24.1247 30.0186C24.0763 30.09 24.036 30.8531 24.035 31.7144C24.0329 33.4597 24.121 33.6764 24.8315 33.6764C25.4914 33.6764 25.5885 33.4214 25.5865 31.6936C25.5854 30.8438 25.5451 30.0891 25.4968 30.0168C25.3984 29.8695 24.9391 29.6082 24.7887 29.6137C24.735 29.6158 24.5834 29.6784 24.4518 29.7531ZM36.235 34.9919V37.0251H34.62H33.0051V34.9919V32.9588H34.62H36.235V34.9919ZM24.2724 35.5899C24.0568 35.8054 24.0332 35.9885 24.0332 37.4368C24.0332 38.9627 24.0467 39.0541 24.2991 39.2308C24.6617 39.4848 25.0622 39.4646 25.349 39.1778C25.5638 38.9631 25.5883 38.7792 25.5883 37.3838C25.5883 35.9885 25.5638 35.8046 25.349 35.5899C25.2175 35.4584 24.9752 35.3507 24.8107 35.3507C24.6462 35.3507 24.404 35.4584 24.2724 35.5899ZM36.5821 38.9564C36.6544 39.1635 36.7135 39.3519 36.7135 39.375C36.7135 39.3981 35.7714 39.417 34.62 39.417C33.4013 39.417 32.5266 39.3702 32.5266 39.3051C32.5266 39.2437 32.5791 39.0553 32.6432 38.8866L32.7599 38.5798H34.6053H36.4508L36.5821 38.9564ZM24.2311 41.31C24.068 41.4903 24.0332 41.806 24.0332 43.104C24.0332 44.5197 24.0573 44.7033 24.2724 44.9184C24.404 45.0499 24.6462 45.1575 24.8107 45.1575C24.9752 45.1575 25.2175 45.0499 25.349 44.9184C25.5646 44.7028 25.5883 44.5197 25.5883 43.0714C25.5883 41.5455 25.5748 41.4542 25.3224 41.2775C24.9655 41.0276 24.4735 41.0423 24.2311 41.31Z" fill="#565656"/>
</svg>
