<svg width="83" height="84" viewBox="0 0 83 84" fill="none" xmlns="http://www.w3.org/2000/svg">
<g clip-path="url(#clip0_677_2577)">
<path d="M82.0042 43.3937C81.9046 43.1945 81.7386 43.0451 81.5228 42.9787L73.6046 40.3725L74.5508 39.3267C74.7334 39.1109 74.8164 38.8287 74.7334 38.5631C74.6504 38.2975 74.4512 38.0817 74.1856 37.9821L71.7454 37.1687C71.8284 36.9695 71.845 36.7371 71.762 36.5213L70.6332 33.7823C70.5502 33.5665 70.351 33.3839 70.1352 33.3175L44.6376 24.6523C44.2226 24.5195 43.791 24.7021 43.6084 25.1005L42.4962 27.5241L41.2014 27.0925C40.7698 26.9431 40.305 27.1755 40.1556 27.6237L38.1636 33.6827C38.0972 33.8985 38.1138 34.1143 38.2134 34.3135C38.313 34.5127 38.479 34.6621 38.6948 34.7285L39.4252 34.9775L37.7984 39.9077C37.649 40.3393 37.898 40.8041 38.3296 40.9535L40.5872 41.7005L39.3588 45.4355C39.2094 45.8671 39.4584 46.3319 39.89 46.4813C39.9564 46.4979 40.0228 46.4979 40.1058 46.5145C40.0892 46.8631 40.139 47.2117 40.2552 47.5603L39.9232 48.7389L33.8974 47.7429C33.665 47.7097 33.416 47.7761 33.2168 47.9255C33.0342 48.0915 32.918 48.3073 32.918 48.5563V53.1379C32.918 53.3537 33.001 53.5695 33.167 53.7189C33.3164 53.8683 33.5322 53.9679 33.748 53.9679L42.3468 53.9015C42.6954 53.9015 43.0108 53.6691 43.127 53.3371L44.5712 48.9713C44.8534 48.7721 45.1024 48.5231 45.3016 48.2409C45.368 48.2741 45.4178 48.3239 45.4842 48.3405C45.5672 48.3737 45.6502 48.3903 45.7498 48.3903C46.0984 48.3903 46.4304 48.1745 46.53 47.8259L47.7584 44.0909L63.794 49.3863C63.877 49.4195 63.96 49.4361 64.0596 49.4361C64.2422 49.4361 64.4082 49.3863 64.5576 49.2701L67.529 47.0789C67.5456 47.0623 67.5456 47.0457 67.5622 47.0291L78.9332 50.7807C79.0162 50.8139 79.0992 50.8305 79.1988 50.8305C79.3316 50.8305 79.4478 50.7973 79.564 50.7475C79.7632 50.6479 79.9126 50.4819 79.979 50.2661L82.0208 44.0577C82.1204 43.8253 82.1038 43.5929 82.0042 43.3937ZM44.8202 26.4617L69.2388 34.7617L69.9858 36.5877L44.0898 28.0553L44.8202 26.4617ZM41.4836 28.9351L72.4592 39.1607L68.9732 42.9787L40.0062 33.4171L41.4836 28.9351ZM44.123 46.9959C44.0234 47.2947 43.8076 47.5437 43.5254 47.6931C43.2432 47.8425 42.9112 47.8591 42.5958 47.7595C42.297 47.6599 42.048 47.4441 41.8986 47.1619C41.7492 46.8797 41.7326 46.5477 41.8322 46.2323C41.9318 45.9335 42.1476 45.6845 42.4298 45.5351C42.5958 45.4521 42.7784 45.4023 42.9776 45.4023C43.1104 45.4023 43.2432 45.4189 43.3594 45.4687C43.6582 45.5683 43.9072 45.7841 44.0566 46.0663C44.206 46.3485 44.2226 46.6971 44.123 46.9959ZM41.7824 52.2415L34.6278 52.2913V49.5191L40.4212 50.4819C40.8362 50.5483 41.2512 50.2993 41.3508 49.8843L41.5666 49.1041C41.7326 49.1871 41.8986 49.2701 42.0812 49.3365C42.2804 49.4029 42.4962 49.4195 42.712 49.4361L41.7824 52.2415ZM46.2146 43.5597L45.5838 45.4687C45.5672 45.4189 45.5506 45.3691 45.534 45.3359C45.1854 44.6553 44.6044 44.1407 43.874 43.9083C43.0772 43.6427 42.2306 43.7589 41.55 44.1573L42.1808 42.2483L42.712 42.4309L46.2146 43.5597ZM63.9434 47.6599L43.5918 40.9535L41.9152 40.4057L39.6576 39.6587L41.0188 35.5087L61.7854 42.3645L61.221 44.0577C61.0716 44.4893 61.3206 44.9541 61.7522 45.1035L65.6698 46.3983L63.9434 47.6599ZM78.6842 48.9381L63.047 43.7755L63.3458 42.8625L68.9732 44.7217C69.0562 44.7549 69.1392 44.7715 69.2388 44.7715C69.4712 44.7715 69.687 44.6719 69.853 44.5059L72.3762 41.7337L80.2114 44.3233L78.6842 48.9381Z" fill="url(#paint0_linear_677_2577)"/>
<path d="M18.4428 0.367188H11.7032C6.15876 0.367188 1.66016 4.86577 1.66016 10.4102V51.379C1.66016 56.7574 5.90976 61.1398 11.2052 61.4054V82.5372C11.2052 83.002 11.5704 83.3672 12.0352 83.3672C12.5 83.3672 12.8652 83.002 12.8652 82.5372V61.422H17.5464V82.5372C17.5464 83.002 17.9116 83.3672 18.3764 83.3672C18.8412 83.3672 19.2064 83.002 19.2064 82.5372V61.3888C24.3856 60.9904 28.4858 56.6578 28.4858 51.379V10.4102C28.4858 4.86577 23.9706 0.367188 18.4428 0.367188ZM25.1658 51.379C25.1658 55.0808 22.1446 58.102 18.4428 58.102H11.7032C8.00136 58.102 4.98016 55.0808 4.98016 51.379V10.4102C4.98016 6.70837 8.00136 3.68719 11.7032 3.68719H18.4428C22.1446 3.68719 25.1658 6.70837 25.1658 10.4102V51.379Z" fill="url(#paint1_linear_677_2577)"/>
<path d="M15.0727 20.7839C18.6417 20.7839 21.5467 17.8789 21.5467 14.3099C21.5467 10.7409 18.6417 7.83594 15.0727 7.83594C11.5037 7.83594 8.5987 10.7409 8.5987 14.3099C8.5821 17.8789 11.4871 20.7839 15.0727 20.7839ZM15.0727 9.47932C17.7287 9.47932 19.8867 11.6373 19.8867 14.2933C19.8867 16.9493 17.7287 19.1073 15.0727 19.1073C12.4167 19.1073 10.2587 16.9493 10.2587 14.2933C10.2587 11.6373 12.4167 9.47932 15.0727 9.47932Z" fill="url(#paint2_linear_677_2577)"/>
<path d="M15.0724 5.46484C10.192 5.46484 6.22461 9.43224 6.22461 14.3126C6.22461 14.7774 6.58981 15.1426 7.05461 15.1426C7.51941 15.1426 7.88461 14.7774 7.88461 14.3126C7.88461 10.3618 11.105 7.12484 15.0724 7.12484C19.0398 7.12484 22.2602 10.3452 22.2602 14.3126C22.2602 14.7774 22.6254 15.1426 23.0902 15.1426C23.555 15.1426 23.9202 14.7774 23.9202 14.3126C23.9036 9.43224 19.9362 5.46484 15.0724 5.46484Z" fill="url(#paint3_linear_677_2577)"/>
<path d="M15.0727 37.9011C18.6417 37.9011 21.5467 34.9961 21.5467 31.4271C21.5467 27.8581 18.6417 24.9531 15.0727 24.9531C11.5037 24.9531 8.5987 27.8581 8.5987 31.4271C8.5821 34.9961 11.4871 37.9011 15.0727 37.9011ZM15.0727 26.6131C17.7287 26.6131 19.8867 28.7711 19.8867 31.4271C19.8867 34.0831 17.7287 36.2411 15.0727 36.2411C12.4167 36.2411 10.2587 34.0831 10.2587 31.4271C10.2587 28.7711 12.4167 26.6131 15.0727 26.6131Z" fill="url(#paint4_linear_677_2577)"/>
<path d="M15.0724 22.5938C10.192 22.5938 6.22461 26.5611 6.22461 31.4415C6.22461 31.9063 6.58981 32.2715 7.05461 32.2715C7.51941 32.2715 7.88461 31.9063 7.88461 31.4415C7.88461 27.4907 11.105 24.2537 15.0724 24.2537C19.0398 24.2537 22.2602 27.4741 22.2602 31.4415C22.2602 31.9063 22.6254 32.2715 23.0902 32.2715C23.555 32.2715 23.9202 31.9063 23.9202 31.4415C23.9036 26.5445 19.9362 22.5938 15.0724 22.5938Z" fill="url(#paint5_linear_677_2577)"/>
<path d="M15.0726 42.0664C11.5036 42.0664 8.59863 44.9714 8.59863 48.5404C8.59863 52.1094 11.5036 55.0144 15.0726 55.0144C18.6417 55.0144 21.5466 52.1094 21.5466 48.5404C21.5466 44.9714 18.6417 42.0664 15.0726 42.0664ZM15.0726 53.371C12.4166 53.371 10.2586 51.213 10.2586 48.557C10.2586 45.901 12.4166 43.743 15.0726 43.743C17.7287 43.743 19.8866 45.901 19.8866 48.557C19.8866 51.213 17.7287 53.371 15.0726 53.371Z" fill="url(#paint6_linear_677_2577)"/>
<path d="M15.0724 39.7109C10.192 39.7109 6.22461 43.6783 6.22461 48.5587C6.22461 49.0235 6.58981 49.3887 7.05461 49.3887C7.51941 49.3887 7.88461 49.0235 7.88461 48.5587C7.88461 44.6079 11.105 41.3709 15.0724 41.3709C19.0398 41.3709 22.2602 44.5913 22.2602 48.5587C22.2602 49.0235 22.6254 49.3887 23.0902 49.3887C23.555 49.3887 23.9202 49.0235 23.9202 48.5587C23.9036 43.6783 19.9362 39.7109 15.0724 39.7109Z" fill="url(#paint7_linear_677_2577)"/>
</g>
<defs>
<linearGradient id="paint0_linear_677_2577" x1="32.918" y1="24.6094" x2="59.2189" y2="68.8742" gradientUnits="userSpaceOnUse">
<stop stop-color="#0ABD92"/>
<stop offset="1" stop-color="#009DB8"/>
</linearGradient>
<linearGradient id="paint1_linear_677_2577" x1="1.66016" y1="0.367188" x2="51.4059" y2="16.5238" gradientUnits="userSpaceOnUse">
<stop stop-color="#0ABD92"/>
<stop offset="1" stop-color="#009DB8"/>
</linearGradient>
<linearGradient id="paint2_linear_677_2577" x1="8.59863" y1="7.83594" x2="21.8056" y2="21.1077" gradientUnits="userSpaceOnUse">
<stop stop-color="#0ABD92"/>
<stop offset="1" stop-color="#009DB8"/>
</linearGradient>
<linearGradient id="paint3_linear_677_2577" x1="6.22461" y1="5.46484" x2="14.5141" y2="20.6963" gradientUnits="userSpaceOnUse">
<stop stop-color="#0ABD92"/>
<stop offset="1" stop-color="#009DB8"/>
</linearGradient>
<linearGradient id="paint4_linear_677_2577" x1="8.59863" y1="24.9531" x2="21.8056" y2="38.2249" gradientUnits="userSpaceOnUse">
<stop stop-color="#0ABD92"/>
<stop offset="1" stop-color="#009DB8"/>
</linearGradient>
<linearGradient id="paint5_linear_677_2577" x1="6.22461" y1="22.5938" x2="14.5141" y2="37.8252" gradientUnits="userSpaceOnUse">
<stop stop-color="#0ABD92"/>
<stop offset="1" stop-color="#009DB8"/>
</linearGradient>
<linearGradient id="paint6_linear_677_2577" x1="8.59863" y1="42.0664" x2="21.8056" y2="55.3381" gradientUnits="userSpaceOnUse">
<stop stop-color="#0ABD92"/>
<stop offset="1" stop-color="#009DB8"/>
</linearGradient>
<linearGradient id="paint7_linear_677_2577" x1="6.22461" y1="39.7109" x2="14.5141" y2="54.9424" gradientUnits="userSpaceOnUse">
<stop stop-color="#0ABD92"/>
<stop offset="1" stop-color="#009DB8"/>
</linearGradient>
<clipPath id="clip0_677_2577">
<rect width="83" height="83" fill="white" transform="translate(0 0.367188)"/>
</clipPath>
</defs>
</svg>
