<svg width="18" height="19" viewBox="0 0 18 19" fill="none" xmlns="http://www.w3.org/2000/svg">
<path fill-rule="evenodd" clip-rule="evenodd" d="M7.49206 0.295589C5.47016 0.471447 3.87184 0.945356 2.72343 1.70947C1.50875 2.5177 0.755469 4.0141 0.477501 6.17115C0.325648 7.34962 0.31615 9.60084 0.458542 10.6734C0.826809 13.4478 2.03329 15.1384 4.16609 15.8688L4.46511 15.9712L4.46515 17.0223C4.46515 17.859 4.47642 18.1115 4.52043 18.2592C4.61845 18.5885 4.8435 18.7742 5.14369 18.7734C5.46149 18.7726 5.78978 18.4742 6.83281 17.2381L7.41151 16.5522L8.81117 16.5496C10.3011 16.5468 10.6776 16.5191 11.7696 16.3318C12.3533 16.2317 13.4477 15.941 13.8721 15.7734C15.4572 15.1472 16.5332 13.8651 16.9839 12.0656C17.3099 10.7639 17.4488 8.38433 17.2943 6.74975C17.0928 4.61877 16.5048 3.0989 15.5069 2.13044C14.5724 1.2233 12.9425 0.628826 10.6096 0.344191C10.0926 0.281124 8.02845 0.248939 7.49206 0.295589ZM10.519 1.64919C12.5688 1.90413 14.0519 2.45543 14.7222 3.21155C15.3841 3.95812 15.7881 5.06542 15.9802 6.65935C16.0579 7.30456 16.0685 9.12313 15.9991 9.91397C15.8812 11.2571 15.716 11.9363 15.3237 12.69C14.9068 13.4911 14.2143 14.1303 13.3945 14.4707C13.0533 14.6124 12.053 14.8769 11.4252 14.9914C10.5226 15.156 9.95429 15.2044 8.79707 15.2152L7.70956 15.2254L7.33172 15.6887C6.75168 16.3999 5.57836 17.795 5.3986 17.9872C5.28854 18.1049 5.20897 18.159 5.14597 18.159C4.95326 18.159 4.95453 18.1707 4.95453 16.3969V14.755L4.73703 14.682C4.11265 14.4726 3.54 14.1262 3.10293 13.6935C2.3502 12.9484 1.93607 12.0161 1.72114 10.583C1.62678 9.95382 1.62736 7.39109 1.72205 6.62669C1.84987 5.59447 2.0284 4.93501 2.36422 4.25454C2.80474 3.36191 3.32711 2.84555 4.22952 2.4108C5.07445 2.00372 6.23808 1.71836 7.54643 1.5974C8.06641 1.54934 9.98492 1.58275 10.519 1.64919ZM8.58537 3.63913C8.5423 3.68213 8.52494 3.74563 8.53233 3.83329C8.54636 3.99974 8.64797 4.05439 8.94475 4.05511C9.06583 4.0554 9.31828 4.08194 9.50566 4.11405C10.7999 4.33584 11.825 5.07583 12.4141 6.21368C12.7301 6.82414 12.8908 7.44324 12.9468 8.26713C12.9814 8.77546 13.0058 8.82909 13.2028 8.82909C13.3496 8.82909 13.419 8.72618 13.419 8.50841C13.419 8.22026 13.3499 7.6558 13.2681 7.27617C12.8089 5.14497 11.1738 3.71323 9.06761 3.59812C8.69727 3.57787 8.6421 3.58257 8.58537 3.63913ZM5.5038 4.14642C5.10722 4.24688 4.44394 4.8398 4.23416 5.28149C4.14075 5.47821 4.12077 5.56478 4.12077 5.77337C4.12077 6.01168 4.13951 6.06994 4.44083 6.76783C5.01946 8.10816 5.60055 9.12263 6.26375 9.95013C6.7573 10.5659 7.55296 11.3001 8.27144 11.8028C8.96988 12.2914 10.1436 12.9404 10.8452 13.2259C11.3702 13.4396 11.6141 13.4555 11.9448 13.2976C12.4159 13.0727 13.0274 12.3346 13.1075 11.8944C13.1497 11.6626 13.0787 11.5002 12.8298 11.2591C12.4441 10.8853 11.8032 10.4113 11.3046 10.1311C11.1429 10.0402 11.0493 10.0121 10.9058 10.0113C10.6071 10.0095 10.4841 10.0854 10.1965 10.4491C9.93406 10.781 9.90496 10.8043 9.68586 10.8564C9.46419 10.9093 8.85533 10.6671 8.3281 10.3163C7.65243 9.86681 6.99978 8.99624 6.65659 8.08671C6.49564 7.66021 6.55263 7.49437 6.98473 7.13138C7.34035 6.83267 7.41956 6.68068 7.39516 6.34408C7.38244 6.16891 7.3455 6.07597 7.1682 5.7733C6.9077 5.32857 6.71021 5.04563 6.34187 4.58963C5.97313 4.13311 5.83813 4.06173 5.5038 4.14642ZM9.00551 4.83445C8.91061 4.9008 8.89292 5.10443 8.97495 5.18623C9.00301 5.21422 9.16661 5.25675 9.33854 5.28073C10.8061 5.48555 11.6566 6.40408 11.7701 7.90695C11.7967 8.25863 11.8461 8.35898 11.9927 8.35898C12.0395 8.35898 12.1104 8.32644 12.1502 8.28666C12.2413 8.19585 12.2482 7.86327 12.1686 7.40809C11.9461 6.13503 11.0998 5.21824 9.86182 4.90912C9.37102 4.78657 9.10694 4.76353 9.00551 4.83445ZM9.3227 6.11691C9.28283 6.15669 9.2502 6.22681 9.2502 6.27273C9.2502 6.42574 9.32944 6.48168 9.61658 6.53144C10.2202 6.63599 10.5112 6.94496 10.5891 7.56406C10.6246 7.84591 10.6953 7.9612 10.8327 7.9612C10.9514 7.9612 11.0627 7.83795 11.0627 7.70654C11.0627 7.5088 10.9502 7.04719 10.8574 6.86461C10.7355 6.62459 10.4682 6.34607 10.2576 6.23961C10.0666 6.14309 9.6947 6.04596 9.51302 6.04513C9.44294 6.0448 9.3658 6.07391 9.3227 6.11691Z" fill="white"/>
</svg>
