<svg width="32" height="27" viewBox="0 0 32 27" fill="none" xmlns="http://www.w3.org/2000/svg">
<path opacity="0.6" fill-rule="evenodd" clip-rule="evenodd" d="M3.25216 1.08343L3.10352 1.2332V3.40268V5.57209H3.61816H4.13281V3.77162V1.97115H5.91895H7.70508V1.45237V0.933594H5.55294H3.40074L3.25216 1.08343ZM15.4551 3.00871C15.4551 4.15003 15.4318 5.08383 15.4033 5.08383C15.3749 5.08383 15.0002 5.11203 14.5708 5.14645C11.4313 5.39839 8.49473 6.41941 5.89364 8.16336C4.86646 8.85206 4.25475 9.35466 3.29321 10.2999C1.98534 11.5856 0.5 13.5217 0.5 13.9407C0.5 14.0834 0.889256 14.7208 1.41159 15.4335C2.16462 16.461 3.60387 17.9618 4.61719 18.7762C5.90768 19.8133 7.80074 20.9121 9.36025 21.5291C11.0445 22.1956 12.8147 22.5816 14.9858 22.7561L15.4551 22.7938V24.8637V26.9336H16H16.5449V24.8585C16.5449 23.7172 16.5682 22.7834 16.5967 22.7834C16.9168 22.7834 18.3703 22.6321 18.9448 22.539C19.9521 22.3757 21.3834 21.9991 22.3271 21.6489C23.967 21.0406 26.0018 19.8864 27.3828 18.7814C28.256 18.0827 29.8334 16.4366 30.5076 15.5204C31.2695 14.4853 31.5 14.115 31.5 13.9265C31.5 13.7838 31.1107 13.1464 30.5884 12.4337C29.8348 11.4054 28.3942 9.90341 27.3828 9.09143C24.9167 7.11177 21.919 5.7865 18.8154 5.3041C18.3381 5.22988 16.8669 5.08383 16.5967 5.08383C16.5682 5.08383 16.5449 4.15003 16.5449 3.00871V0.933594H16H15.4551V3.00871ZM24.2949 1.45237V1.97115H26.0811H27.8672V3.77162V5.57209H28.3818H28.8965V3.40268V1.2332L28.7478 1.08343L28.5993 0.933594H26.4471H24.2949V1.45237ZM15.4551 7.70824V9.23406H16H16.5449V7.70824V6.18242H16.7625C17.1618 6.18242 18.203 6.43223 18.8248 6.67727C21.2888 7.64819 23.1 9.85312 23.5989 12.4894C23.6487 12.7525 23.6895 13.0615 23.6895 13.1761V13.3843H22.1758H20.6621V13.9336V14.4829H22.1845H23.7068L23.6682 14.9022C23.617 15.4576 23.382 16.354 23.1298 16.9562C22.1231 19.3597 19.9807 21.1035 17.4327 21.5935C17.1716 21.6437 16.8652 21.6848 16.7515 21.6848H16.5449V20.1589V18.6331H16H15.4551V20.1589V21.6848H15.2485C15.1348 21.6848 14.8284 21.6437 14.5673 21.5935C11.9235 21.0851 9.74496 19.2472 8.7701 16.7028C8.55152 16.1322 8.31055 15.0832 8.31055 14.7022V14.4829H9.82422H11.3379V13.9336V13.3843H9.82422H8.31055V13.165C8.31055 13.0444 8.36655 12.6686 8.43503 12.3298C8.95422 9.76194 10.78 7.60839 13.2547 6.64499C13.8454 6.41502 14.7837 6.19371 15.1978 6.18675L15.4551 6.18242V7.70824ZM9.93375 7.57092C8.73758 8.72761 7.9308 10.1132 7.52126 11.7144C7.42372 12.0957 7.32303 12.6205 7.29748 12.8807L7.25098 13.3538L5.17725 13.3698L3.10352 13.3859V13.9336V14.4813L5.17725 14.4974L7.25098 14.5134L7.29748 14.9865C7.32303 15.2467 7.42372 15.7715 7.52126 16.1528C7.93207 17.7588 8.7371 19.1391 9.94356 20.3058C10.2526 20.6047 10.4545 20.8285 10.392 20.803C10.3295 20.7776 10.1421 20.7072 9.97559 20.6467C8.49219 20.1074 6.88073 19.2004 5.43457 18.0907C4.31439 17.2311 2.71947 15.5368 1.90923 14.3456L1.62902 13.9336L1.90923 13.5216C2.71947 12.3304 4.31439 10.6361 5.43457 9.77652C6.73161 8.7812 8.20683 7.92497 9.52148 7.40442C9.87114 7.266 10.2117 7.12849 10.2783 7.09889C10.5157 6.99349 10.4793 7.04341 9.93375 7.57092ZM22.2838 7.31794C23.7472 7.89769 25.3258 8.81007 26.6562 9.845C27.7368 10.6855 29.2995 12.3583 30.0903 13.521L30.3702 13.9324L30.08 14.3567C29.2693 15.5419 27.7519 17.1658 26.6562 18.0208C25.3467 19.0427 23.5107 20.1014 22.2363 20.5696C21.9533 20.6736 21.6754 20.7771 21.6188 20.7998C21.5623 20.8224 21.7846 20.5749 22.1129 20.2497C23.3285 19.0459 24.0975 17.6949 24.5064 16.0451C24.5905 15.7062 24.6794 15.2229 24.7041 14.9712L24.749 14.5134L26.8228 14.4974L28.8965 14.4813V13.9336V13.3859L26.8228 13.3698L24.749 13.3538L24.7041 12.896C24.6794 12.6443 24.5905 12.161 24.5064 11.8221C24.0982 10.175 23.3283 8.82105 22.1183 7.6228C21.7929 7.30054 21.5375 7.03688 21.5506 7.03688C21.5637 7.03688 21.8937 7.16334 22.2838 7.31794ZM15.4099 10.3355C14.5337 10.493 13.6525 11.0372 13.1239 11.7472C11.5918 13.8048 12.5761 16.7016 15.0615 17.4498C15.637 17.6231 16.5114 17.5966 17.1178 17.3877C18.63 16.8666 19.5957 15.5204 19.5957 13.9336C19.5957 11.9957 18.1245 10.4246 16.1997 10.3072C15.94 10.2913 15.5846 10.3041 15.4099 10.3355ZM16.8843 11.5006C17.5555 11.7523 18.0373 12.2017 18.3322 12.8509C19.0465 14.4236 18.0794 16.2231 16.3709 16.5005C15.0064 16.722 13.68 15.7249 13.4536 14.3075C13.2813 13.2288 13.8916 12.0715 14.8783 11.6061C15.5472 11.2906 16.229 11.2547 16.8843 11.5006ZM3.10352 24.4645V26.634L3.25216 26.7838L3.40074 26.9336H5.55294H7.70508V26.4148V25.896H5.91895H4.13281V24.0956V22.2951H3.61816H3.10352V24.4645ZM27.8672 24.0956V25.896H26.0811H24.2949V26.4148V26.9336H26.4471H28.5993L28.7478 26.7838L28.8965 26.634V24.4645V22.2951H28.3818H27.8672V24.0956Z" fill="white"/>
</svg>
