<svg width="29" height="30" viewBox="0 0 29 30" fill="none" xmlns="http://www.w3.org/2000/svg">
<path fill-rule="evenodd" clip-rule="evenodd" d="M13.6215 0.0378193C11.1744 0.434789 9.19135 2.18403 8.46755 4.58405C8.19809 5.47748 8.19202 5.6241 8.21182 10.7473L8.23038 15.5605L8.38185 16.1302C9.15316 19.0316 11.6186 20.99 14.5 20.99C17.3834 20.99 19.8422 19.0355 20.6201 16.1251L20.771 15.5605V10.5125C20.771 5.51364 20.7698 5.45987 20.6475 4.98612C19.9965 2.46507 18.1889 0.654611 15.7848 0.115945C15.2933 0.00582924 14.0871 -0.0377242 13.6215 0.0378193ZM15.3096 1.9382C16.8224 2.23756 18.1086 3.3261 18.6809 4.79154C18.9799 5.55719 18.9813 5.58437 18.9824 10.5178C18.9835 15.7267 18.9995 15.5246 18.5045 16.5583C18.0574 17.4921 17.4175 18.1539 16.5147 18.6164C15.8166 18.9739 15.2565 19.1116 14.5 19.1116C13.7435 19.1116 13.1834 18.9739 12.4853 18.6164C11.5595 18.1421 10.9335 17.4841 10.4714 16.4996C10.0024 15.5003 10.0166 15.6895 10.0166 10.4663C10.0166 6.03962 10.021 5.84716 10.1314 5.40053C10.3527 4.50557 10.769 3.77496 11.4191 3.14074C12.4799 2.10567 13.9148 1.66215 15.3096 1.9382ZM4.51117 5.50853C4.408 5.58114 4.27015 5.71514 4.20483 5.8063C4.08798 5.96948 4.08611 6.01949 4.08611 9.00989V12.0478L4.24966 12.2695C4.65158 12.8145 5.36245 12.7767 5.74472 12.1899L5.87378 11.9919V9.0157V6.03951L5.74472 5.84146C5.4444 5.38045 4.90128 5.23388 4.51117 5.50853ZM23.5722 5.50313C23.4586 5.57128 23.3117 5.72612 23.2459 5.84727C23.1285 6.06316 23.1262 6.12538 23.1262 9.02967V11.9919L23.2553 12.1899C23.6376 12.7767 24.3484 12.8145 24.7503 12.2695L24.9139 12.0478V9.0157V5.98363L24.7549 5.76803C24.6674 5.64946 24.5219 5.51281 24.4314 5.46445C24.197 5.33907 23.8172 5.35615 23.5722 5.50313ZM0.425068 6.79987C0.321894 6.87248 0.184045 7.00649 0.118724 7.09764C0.00448337 7.25712 0 7.32967 0 9.0157C0 10.7017 0.00448337 10.7743 0.118724 10.9338C0.531591 11.51 1.2277 11.51 1.64057 10.9338C1.75481 10.7743 1.7593 10.7017 1.7593 9.0157C1.7593 7.32967 1.75481 7.25712 1.64057 7.09764C1.43927 6.81672 1.17572 6.6678 0.879648 6.6678C0.696227 6.6678 0.553951 6.70913 0.425068 6.79987ZM27.6658 6.79987C27.5626 6.87248 27.4247 7.00649 27.3594 7.09764C27.2452 7.25712 27.2407 7.32967 27.2407 9.0157C27.2407 10.7017 27.2452 10.7743 27.3594 10.9338C27.7723 11.51 28.4684 11.51 28.8813 10.9338C28.9955 10.7743 29 10.7017 29 9.0157C29 7.32967 28.9955 7.25712 28.8813 7.09764C28.68 6.81672 28.4164 6.6678 28.1204 6.6678C27.9369 6.6678 27.7947 6.70913 27.6658 6.79987ZM4.76712 15.2917C4.52661 15.3527 4.3815 15.4581 4.23593 15.6778C4.02913 15.9901 4.02765 16.2091 4.22702 17.0359C5.24684 21.2661 8.56391 24.4954 12.6345 25.2209C13.0207 25.2897 13.394 25.3569 13.4643 25.3702L13.592 25.3945V26.7713V28.1481L10.4748 28.1642C7.42735 28.18 7.35403 28.1831 7.20085 28.3014C6.90308 28.5314 6.81018 28.719 6.81018 29.0902C6.81018 29.4614 6.90314 29.649 7.20091 29.879C7.35726 29.9997 7.3748 30 14.5 30C21.6252 30 21.6427 29.9997 21.7991 29.879C22.0969 29.649 22.1898 29.4614 22.1898 29.0902C22.1898 28.719 22.0969 28.5314 21.7991 28.3014C21.646 28.1831 21.5727 28.18 18.5252 28.1642L15.408 28.1481V26.7765C15.408 25.2845 15.397 25.3336 15.7318 25.3336C15.8112 25.3336 16.1897 25.2679 16.5728 25.1876C19.7533 24.5216 22.4832 22.3678 23.9324 19.3811C24.3338 18.5538 24.562 17.9153 24.7751 17.023C24.9928 16.1114 24.9789 15.9234 24.669 15.5803C24.3011 15.1732 23.7391 15.1643 23.3783 15.56C23.2314 15.7212 23.1715 15.8828 23.019 16.5296C22.6644 18.0334 22.1357 19.1302 21.1997 20.3035C19.9962 21.8123 18.2352 22.9047 16.2987 23.3439C15.6181 23.4982 14.1487 23.5566 13.3993 23.459C10.6112 23.096 8.07187 21.2889 6.78526 18.7519C6.39379 17.98 6.17751 17.3861 5.97706 16.5326C5.88184 16.1271 5.75375 15.7222 5.69246 15.6329C5.50211 15.3556 5.09991 15.2073 4.76712 15.2917Z" fill="url(#paint0_linear_677_2451)"/>
<defs>
<linearGradient id="paint0_linear_677_2451" x1="0" y1="0" x2="30.5875" y2="29.7129" gradientUnits="userSpaceOnUse">
<stop stop-color="#0ABD92"/>
<stop offset="1" stop-color="#009DB8"/>
</linearGradient>
</defs>
</svg>
