<svg width="18" height="18" viewBox="0 0 18 18" fill="none" xmlns="http://www.w3.org/2000/svg">
<path d="M13.2582 10.1577L13.2518 10.2108C11.6942 9.43449 11.5313 9.33108 11.3301 9.63282C11.1906 9.84177 10.784 10.3156 10.6615 10.4559C10.5375 10.594 10.4143 10.6046 10.2039 10.509C9.99138 10.4028 9.30926 10.1796 8.50176 9.45716C7.87276 8.89404 7.45059 8.20343 7.32592 7.99093C7.11838 7.63252 7.55259 7.58152 7.94784 6.83354C8.01867 6.68479 7.98255 6.56792 7.93013 6.46238C7.87701 6.35613 7.45413 5.3149 7.27705 4.89982C7.10705 4.48616 6.93209 4.53858 6.80105 4.53858C6.39305 4.50316 6.09484 4.50883 5.83205 4.78224C4.6888 6.0388 4.97709 7.33503 5.9553 8.71342C7.87771 11.2294 8.90196 11.6926 10.7748 12.3358C11.2805 12.4966 11.7417 12.4739 12.1065 12.4215C12.513 12.357 13.3581 11.9108 13.5345 11.4114C13.7151 10.912 13.7151 10.4977 13.662 10.4021C13.6095 10.3064 13.4707 10.2533 13.2582 10.1577Z" fill="white"/>
<path d="M15.3924 2.46674C9.94605 -2.79821 0.932505 1.02035 0.928964 8.4478C0.928964 9.93244 1.31784 11.3802 2.05876 12.6588L0.857422 17.0234L5.34471 15.8533C10.9441 18.8778 17.8546 14.8616 17.8574 8.45205C17.8574 6.20242 16.9791 4.08525 15.3818 2.49437L15.3924 2.46674ZM16.4422 8.42868C16.4379 13.8353 10.5028 17.2119 5.80867 14.4522L5.55367 14.3007L2.89742 14.9913L3.6093 12.4094L3.44001 12.1438C0.518839 7.49369 3.87492 1.4163 9.40842 1.4163C11.2883 1.4163 13.0528 2.14941 14.3816 3.47751C15.7098 4.79428 16.4422 6.55871 16.4422 8.42868Z" fill="white"/>
</svg>
