<svg width="36" height="30" viewBox="0 0 36 30" fill="none" xmlns="http://www.w3.org/2000/svg">
<path fill-rule="evenodd" clip-rule="evenodd" d="M15.6262 0.765973C15.4942 0.780887 15.0929 0.826109 14.7345 0.866474C10.4009 1.35468 6.16819 3.15172 2.7202 5.96718C1.72961 6.77597 0.272696 8.22663 0.117326 8.55872C-0.252338 9.34904 0.29547 10.3426 1.14586 10.424C1.81501 10.4881 1.89904 10.4423 2.95563 9.43606C4.79722 7.68212 6.29138 6.61048 8.28643 5.61259C10.2556 4.62762 12.2945 3.9911 14.6659 3.62084C15.2982 3.52212 15.87 3.49769 17.5469 3.49769C19.2238 3.49769 19.7956 3.52212 20.4279 3.62084C22.7993 3.9911 24.8382 4.62762 26.8074 5.61259C28.7941 6.60631 30.3154 7.69574 32.1066 9.4076C32.6232 9.90128 33.1259 10.3356 33.2237 10.3727C33.4582 10.4616 34.0203 10.4587 34.2627 10.3673C34.7168 10.1962 35.1045 9.61538 35.1045 9.10603C35.1045 8.64287 34.8931 8.32905 33.9662 7.41613C30.292 3.79735 25.9432 1.66843 20.6337 0.889324C19.9495 0.78896 16.2338 0.697422 15.6262 0.765973ZM15.9692 8.70369C13.2533 9.02784 10.787 9.87323 8.6847 11.2005C7.21153 12.1307 5.36403 13.7046 5.12223 14.2355C4.88516 14.756 5.01776 15.3883 5.4482 15.7892C5.70544 16.0289 5.95526 16.1185 6.36574 16.1185C6.85456 16.1185 7.01096 16.0354 7.69877 15.4102C9.76063 13.5361 11.7453 12.4271 14.1395 11.8115C16.3155 11.2519 18.7783 11.2519 20.9543 11.8115C23.3553 12.4289 25.3326 13.5354 27.41 15.4239C27.9203 15.8878 28.1147 16.0205 28.3875 16.0911C29.4865 16.3754 30.4404 15.2589 29.9714 14.2371C29.7506 13.7562 28.1537 12.3522 26.8417 11.4854C24.7983 10.1355 22.6812 9.29157 20.2564 8.86022C19.6026 8.74385 19.1018 8.70978 17.8213 8.69438C16.9347 8.68371 16.1012 8.68788 15.9692 8.70369ZM15.9485 16.7774C14.2344 17.0871 12.2436 18.0964 11.0096 19.2813C10.3713 19.8944 10.2431 20.2336 10.4159 20.8541C10.5692 21.4046 11.1101 21.7969 11.7157 21.7969C12.183 21.7969 12.4135 21.6839 13.0099 21.1621C13.8422 20.434 14.7704 19.9297 15.9006 19.5918C16.5511 19.3973 17.9028 19.351 18.6315 19.4983C19.7669 19.7277 20.9118 20.2902 21.8762 21.0924C22.5788 21.6768 22.8034 21.7944 23.2188 21.7958C23.4144 21.7964 23.6614 21.7641 23.7675 21.7241C24.215 21.5555 24.6079 20.9748 24.6108 20.4777C24.6141 19.9174 24.3156 19.5123 23.3433 18.7575C22.0432 17.7481 20.4707 17.0387 18.9427 16.7721C18.1934 16.6414 16.6865 16.6441 15.9485 16.7774ZM16.758 25.0937C16.4487 25.2095 16.0405 25.4807 15.8133 25.7214C15.2331 26.3363 15.0654 27.3946 15.4269 28.1594C15.642 28.6143 16.042 29.0254 16.4926 29.255C16.7791 29.4009 16.9194 29.4251 17.4783 29.4251C18.0372 29.4251 18.1775 29.4009 18.464 29.255C18.9146 29.0254 19.3146 28.6143 19.5297 28.1594C19.7832 27.6231 19.7832 26.8486 19.5297 26.3123C19.3143 25.857 18.9141 25.4457 18.464 25.2175C18.1984 25.0829 18.0106 25.045 17.5469 25.0324C17.2262 25.0238 16.8712 25.0514 16.758 25.0937Z" fill="url(#paint0_linear_677_3025)"/>
<defs>
<linearGradient id="paint0_linear_677_3025" x1="0" y1="0.742188" x2="28.6416" y2="35.9679" gradientUnits="userSpaceOnUse">
<stop stop-color="#0ABD92"/>
<stop offset="1" stop-color="#009DB8"/>
</linearGradient>
</defs>
</svg>
