<svg width="24" height="17" viewBox="0 0 24 17" fill="none" xmlns="http://www.w3.org/2000/svg">
<path d="M18.6667 0.0540981C20 0.184702 21.7333 0.0540984 22.6667 1.09893C23.7333 2.14377 23.8667 3.84162 23.8667 5.14766C24 6.71492 24 8.93519 24 10.3718C23.8667 11.8085 24 13.5063 23.3333 14.8124C22.6667 16.249 21.4667 16.7714 20 16.902C18.4 17.0327 8.53333 17.0327 5.33333 16.902C3.86667 16.7714 2.13333 16.7714 1.06667 15.596C0.133333 14.5512 0.133333 12.9839 0 11.6779C0 10.1106 0 7.89035 0 6.3231C0 4.88646 0 3.1886 0.666667 1.88256C1.33333 0.576515 2.66667 0.315306 4.13333 0.184702C5.73333 0.054098 15.4667 -0.0765062 18.6667 0.0540981ZM9.33333 4.49464V12.3309L16.6667 8.41277L9.33333 4.49464Z" fill="black"/>
</svg>
