<svg width="35" height="28" viewBox="0 0 35 28" fill="none" xmlns="http://www.w3.org/2000/svg">
<path fill-rule="evenodd" clip-rule="evenodd" d="M1.37961 0.081064C0.711932 0.283433 0.19803 0.825823 0.0592928 1.47454C0.00830965 1.71324 -0.00866174 5.6209 0.00403231 14.2082L0.0223835 26.5974L0.168848 26.9039C0.35574 27.2951 0.750497 27.6773 1.15457 27.8582L1.47116 28H17.5112H33.5512L33.8678 27.8582C34.2719 27.6773 34.6666 27.2951 34.8535 26.9039L35 26.5974V14.0078V1.41817L34.8535 1.11168C34.6666 0.720497 34.2719 0.338333 33.8678 0.157403L33.5512 0.0156112L17.6147 0.00312177C4.37485 -0.00729723 1.62763 0.00586008 1.37961 0.081064ZM33.4961 1.18174C33.918 1.43066 33.935 1.5239 33.9146 3.47078L33.8962 5.22512H17.5112H1.12621L1.10779 3.47078C1.08737 1.5239 1.10441 1.43066 1.52628 1.18174C1.7436 1.05337 1.99762 1.0513 17.5112 1.0513C33.0248 1.0513 33.2788 1.05337 33.4961 1.18174ZM4.33401 2.57027C4.06944 2.80243 3.98272 3.08675 4.08455 3.38863C4.17416 3.65445 4.54215 3.92274 4.81715 3.92274C5.09214 3.92274 5.46013 3.65445 5.54974 3.38863C5.71242 2.90622 5.33257 2.3866 4.81715 2.3866C4.61521 2.3866 4.48841 2.43482 4.33401 2.57027ZM7.53671 2.5125C7.11822 2.75962 7.05751 3.33507 7.41363 3.6799C7.9514 4.20045 8.82902 3.76405 8.72691 3.0269C8.65082 2.47784 8.04157 2.21449 7.53671 2.5125ZM10.5709 2.61368C10.3742 2.8041 10.3363 2.88885 10.3363 3.13898C10.3363 3.63929 10.7578 3.98639 11.2554 3.89596C11.5719 3.83852 11.9231 3.44741 11.9231 3.15247C11.9231 2.94115 11.6968 2.58076 11.5033 2.48385C11.1609 2.3124 10.8352 2.35775 10.5709 2.61368ZM33.9136 16.2982C33.9329 27.3552 33.9645 26.5574 33.4961 26.8339C33.2788 26.9622 33.0246 26.9643 17.525 26.9645C0.12097 26.9648 1.51449 27.0008 1.22694 26.5441C1.09489 26.3346 1.0922 26.1307 1.09199 16.3399C1.09186 10.8451 1.11248 6.32926 1.13787 6.30475C1.16326 6.28017 8.54423 6.26762 17.5401 6.2769L33.8962 6.29373L33.9136 16.2982ZM5.16209 13.8742C5.08055 13.9532 5.02418 14.0966 5.02432 14.2249C5.02446 14.3443 5.25854 15.1632 5.54457 16.0449C5.83053 16.9265 6.18962 18.0333 6.34243 18.5046C6.60652 19.3192 6.63177 19.3662 6.85371 19.4559C7.10035 19.5557 7.34105 19.5121 7.48731 19.3411C7.52988 19.2914 7.78873 18.5594 8.06247 17.7146C8.33622 16.8697 8.57603 16.1521 8.59535 16.1199C8.61467 16.0877 8.85378 16.7489 9.1267 17.5893C9.39963 18.4296 9.66117 19.1862 9.70787 19.2706C9.83385 19.4983 10.0883 19.5696 10.3694 19.4559C10.5947 19.3648 10.6148 19.3249 10.9492 18.3043C12.2468 14.3432 12.2739 14.2502 12.1907 14.0554C12.0443 13.7129 11.5738 13.6238 11.3233 13.8909C11.2405 13.9792 10.9788 14.6731 10.6887 15.5734C10.4172 16.4161 10.1823 17.1178 10.1669 17.1328C10.1514 17.1478 9.96396 16.6236 9.7503 15.9679C9.14064 14.0968 9.10311 13.9941 8.98114 13.8637C8.83474 13.7071 8.46641 13.7039 8.27213 13.8575C8.16624 13.9414 7.98562 14.4088 7.63364 15.5105C7.36368 16.3554 7.12174 17.0699 7.09593 17.0984C7.07013 17.1268 6.82329 16.4506 6.54733 15.5956C6.24295 14.6526 5.98927 13.9821 5.90228 13.8909C5.71849 13.6982 5.35243 13.69 5.16209 13.8742ZM14.1125 13.8241C13.8179 14.0407 13.8357 14.1893 14.3442 15.7573C15.563 19.516 15.4979 19.3411 15.7197 19.4522C15.9483 19.5666 16.2063 19.5301 16.3609 19.3616C16.4168 19.3006 16.6888 18.552 16.9655 17.6979C17.2421 16.8438 17.4877 16.145 17.5112 16.145C17.5347 16.145 17.7805 16.8438 18.0572 17.6979C18.334 18.552 18.5947 19.2914 18.6367 19.3411C18.7805 19.5118 19.0223 19.5557 19.269 19.4559C19.4944 19.3648 19.5144 19.3249 19.8488 18.3043C21.1269 14.4027 21.1626 14.2808 21.0874 14.0721C20.9595 13.7169 20.4804 13.6166 20.2225 13.8909C20.1393 13.9796 19.8784 14.6703 19.5866 15.5747C19.3145 16.4182 19.0784 17.1212 19.062 17.1371C19.0251 17.1728 19.0608 17.2749 18.4808 15.4772C17.9696 13.8923 17.8848 13.7407 17.5112 13.7407C17.1375 13.7407 17.0528 13.8923 16.5415 15.4772C15.9616 17.2749 15.9973 17.1728 15.9604 17.1371C15.944 17.1212 15.7079 16.4182 15.4358 15.5747C15.144 14.6703 14.8831 13.9796 14.7998 13.8909C14.6417 13.7227 14.2961 13.6891 14.1125 13.8241ZM23.0221 13.8079C22.9607 13.8426 22.8745 13.955 22.8306 14.0577C22.7465 14.2544 22.7655 14.3197 24.0391 18.2039C24.4079 19.3285 24.4252 19.3638 24.6525 19.4557C24.8998 19.5558 25.1425 19.5118 25.2844 19.3411C25.3258 19.2914 25.5919 18.5331 25.8757 17.6559C26.1595 16.7787 26.4081 16.0875 26.4281 16.1197C26.4481 16.1521 26.6882 16.8697 26.9616 17.7146C27.235 18.5594 27.4933 19.2914 27.5356 19.3411C27.6808 19.512 27.922 19.5557 28.1687 19.4559C28.3914 19.3658 28.4154 19.3205 28.6905 18.4712C28.8491 17.9816 29.2059 16.884 29.4835 16.0322C30.0983 14.1454 30.1044 14.1105 29.8603 13.8742C29.6699 13.6899 29.3036 13.6982 29.1213 13.8909C29.0365 13.9806 28.776 14.6685 28.476 15.5954C28.1992 16.4502 27.952 17.1264 27.9267 17.0981C27.9013 17.0699 27.6588 16.3554 27.3877 15.5105C26.87 13.8971 26.7844 13.7407 26.4185 13.7407C26.1199 13.7407 25.949 13.9114 25.8001 14.3584C25.7237 14.588 25.4862 15.3123 25.2724 15.9679C25.0586 16.6236 24.871 17.1478 24.8555 17.1328C24.8401 17.1178 24.6052 16.4161 24.3337 15.5734C24.0436 14.6731 23.7818 13.9792 23.6991 13.8909C23.5505 13.7324 23.2259 13.6926 23.0221 13.8079Z" fill="black"/>
</svg>
