<svg width="25" height="25" viewBox="0 0 25 25" fill="none" xmlns="http://www.w3.org/2000/svg">
<path fill-rule="evenodd" clip-rule="evenodd" d="M1.60694 0.850541C1.09433 1.00925 0.720487 1.32552 0.499876 1.78707L0.366211 2.06666V6.84298V11.6193L0.505507 11.8964C0.675296 12.234 0.964768 12.5251 1.30449 12.6999L1.55922 12.8308L3.89409 12.8442L6.229 12.8575L4.71984 14.3359C2.95743 16.0623 2.94459 16.0801 2.94459 16.7917C2.94459 17.5525 2.73696 17.3087 6.5838 21.0651C10.4305 24.8213 10.1802 24.6181 10.9611 24.6194C11.7256 24.6208 11.6201 24.7024 14.5272 21.8602C16.8271 19.6117 17.0445 19.386 17.0445 19.2464C17.0445 18.9175 16.7758 18.6773 16.4847 18.7463C16.3954 18.7674 15.5553 19.5545 13.8949 21.1727C12.2048 22.8199 11.3819 23.5903 11.2599 23.6397C11.0236 23.7354 10.8626 23.7303 10.6292 23.6194C10.3532 23.4884 4.04784 17.3218 3.94715 17.0844C3.85443 16.8658 3.85433 16.7179 3.94686 16.499C3.99888 16.3759 5.81407 14.5734 10.2101 10.2796L16.4001 4.23348H19.5937C22.5272 4.23348 22.7946 4.23991 22.8765 4.31237C22.9624 4.38828 22.9447 4.4119 22.41 4.93539L21.8542 5.47956L21.6326 5.41227C21.1995 5.28082 20.6426 5.40766 20.277 5.72108C19.8349 6.1002 19.6988 6.82625 19.9693 7.36404C20.2207 7.8639 20.6553 8.12252 21.2439 8.12252C21.6504 8.12252 21.9223 8.02573 22.2108 7.77848C22.5773 7.46418 22.7593 6.82793 22.6136 6.37024L22.5447 6.15379L23.102 5.61106C23.6381 5.08893 23.6623 5.07164 23.74 5.15552C23.8142 5.23557 23.8208 5.49657 23.8208 8.36045V11.4782L21.4825 13.7633C19.2166 15.9775 19.1442 16.0538 19.1442 16.2256C19.1442 16.4841 19.3501 16.6752 19.6286 16.6752H19.8339L22.2549 14.3128C23.5865 13.0135 24.6987 11.8968 24.7265 11.8313C24.7609 11.7502 24.7729 10.6162 24.7642 8.27769L24.7513 4.84317L24.5406 4.63352L24.3298 4.42383L24.5271 4.21493C24.8131 3.91181 24.8484 3.65254 24.632 3.44131C24.4157 3.23008 24.1502 3.26447 23.8398 3.54382L23.6259 3.73641L23.412 3.53148C23.2015 3.32971 23.1924 3.32626 22.8294 3.31013L22.4608 3.29373L21.22 2.09099C20.5376 1.42948 19.9324 0.86508 19.8751 0.836748C19.7135 0.756879 1.86578 0.770392 1.60694 0.850541ZM20.3121 2.50813L21.1211 3.29914L18.558 3.31195L15.9949 3.32481L13.1674 6.08562L10.3398 8.84642L10.3315 8.63622C10.302 7.89036 9.69426 7.30588 8.93661 7.29475C8.38582 7.28664 7.91229 7.56534 7.65622 8.04838C7.52227 8.30103 7.50041 8.38971 7.50041 8.68025C7.50041 8.96394 7.52384 9.06399 7.64634 9.30336C7.88423 9.76818 8.33958 10.0569 8.83615 10.0578L9.09814 10.0583L8.14421 10.9911L7.19023 11.924L4.46134 11.9114L1.73245 11.8989L1.58031 11.7591C1.28206 11.4851 1.29676 11.7404 1.29676 6.8242C1.29676 3.75333 1.31289 2.28744 1.34768 2.19784C1.41539 2.02323 1.57459 1.85911 1.7501 1.78297C1.86769 1.73195 3.46713 1.72048 10.6982 1.71899L19.5031 1.71717L20.3121 2.50813ZM4.42206 3.662C3.74434 3.8989 3.34683 4.56973 3.48526 5.24279C3.75579 6.55817 5.52092 6.77411 6.17531 5.57187C6.32911 5.2893 6.32911 4.6688 6.17531 4.38623C5.81851 3.73073 5.08829 3.4291 4.42206 3.662ZM8.0492 3.80799C7.85058 3.92831 4.73263 9.32056 4.73263 9.54372C4.73263 9.76534 4.95458 9.96506 5.20086 9.96506C5.31038 9.96506 5.43316 9.93071 5.49229 9.88351C5.5485 9.83864 6.30244 8.57615 7.1678 7.07793C8.78791 4.27285 8.82566 4.19517 8.6896 3.9469C8.63974 3.85589 8.37866 3.72071 8.25354 3.72108C8.21989 3.72118 8.12794 3.76027 8.0492 3.80799ZM5.08175 4.56512C5.53987 4.79391 5.36869 5.44503 4.85045 5.44503C4.78646 5.44503 4.66448 5.38427 4.5794 5.30999C4.45132 5.19825 4.42459 5.14121 4.42459 4.97905C4.42459 4.64275 4.78393 4.41638 5.08175 4.56512ZM21.5588 6.44223C21.7374 6.61656 21.7639 6.76674 21.6531 6.97601C21.5825 7.10943 21.4009 7.21576 21.2439 7.21576C20.7699 7.21576 20.5968 6.57275 21.0105 6.34885C21.2105 6.2406 21.3823 6.26987 21.5588 6.44223ZM16.0802 8.32443C15.2049 9.17913 15.1204 8.94465 16.9484 10.7324L18.4271 12.1785H18.6439C18.8583 12.1785 18.8678 12.1715 19.4559 11.5924C20.0042 11.0522 20.0509 10.9926 20.0509 10.8321C20.0509 10.6068 19.9873 10.4961 19.8051 10.4041C19.5573 10.2789 19.3969 10.3447 19.0008 10.7341L18.6455 11.0834L18.3222 10.7701C18.1444 10.5978 17.9989 10.4392 17.9989 10.4177C17.9989 10.3961 18.16 10.2134 18.3568 10.0117C18.6162 9.74577 18.7147 9.61105 18.7147 9.52228C18.7147 9.24945 18.5003 9.0357 18.225 9.03412C18.0659 9.03323 18.0022 9.07354 17.6621 9.39083L17.2787 9.74856L16.9479 9.42806L16.6172 9.10756L16.9672 8.75579C17.3601 8.36101 17.4092 8.2631 17.3306 8.03063C17.2604 7.82284 17.1198 7.72834 16.8808 7.72834C16.7008 7.72834 16.6581 7.76017 16.0802 8.32443ZM9.24703 8.33803C9.33078 8.40588 9.39811 8.64959 9.37115 8.78729C9.30625 9.11874 8.8279 9.24516 8.58305 8.99558C8.33776 8.74563 8.47176 8.2824 8.80447 8.23021C8.93207 8.21017 9.15684 8.26492 9.24703 8.33803ZM13.3408 11.0341C13.1976 11.0932 13.036 11.3091 13.036 11.4415C13.036 11.5034 13.0666 11.6106 13.1041 11.6799C13.2225 11.8985 15.9569 14.5221 16.1029 14.5571C16.3241 14.6102 16.4807 14.5043 17.1333 13.8608C17.6763 13.3253 17.7603 13.2224 17.7603 13.0926C17.7603 12.7657 17.4965 12.5316 17.1999 12.5952C17.115 12.6134 16.9094 12.7751 16.661 13.019C16.44 13.2359 16.2374 13.4133 16.2108 13.4133C16.1841 13.4133 15.6146 12.879 14.9451 12.226C13.6875 10.9992 13.5941 10.9298 13.3408 11.0341ZM10.9735 13.3157C10.7052 13.5498 10.7228 13.5999 11.7843 15.6267C12.8346 17.6324 12.8602 17.6672 13.2152 17.5793C13.5295 17.5014 13.6766 17.1108 13.4941 16.8389C13.4521 16.7763 13.4177 16.6978 13.4177 16.6643C13.4177 16.6309 13.6295 16.3976 13.8883 16.1458L14.3588 15.6881L14.5544 15.7855C14.8317 15.9237 15.0177 15.9122 15.1871 15.7468C15.3808 15.5577 15.3845 15.2706 15.1953 15.1051C14.9871 14.9229 11.4332 13.1803 11.2699 13.1803C11.1814 13.1803 11.0708 13.2308 10.9735 13.3157ZM13.2138 15.4986C13.0784 15.6331 12.9557 15.7432 12.9411 15.7432C12.916 15.7432 12.4156 14.7888 12.4156 14.7409C12.4156 14.7284 12.6506 14.8387 12.9378 14.9861L13.4599 15.254L13.2138 15.4986ZM8.33194 15.8947C7.90857 16.3134 7.78588 16.4651 7.72269 16.6485C7.40082 17.5827 8.0617 18.5108 9.05133 18.5146C9.44344 18.5161 9.62688 18.4527 9.97648 18.1949C10.3159 17.9446 10.546 17.9332 10.7503 18.1565C10.8961 18.3158 10.924 18.4781 10.8348 18.647C10.8052 18.703 10.5905 18.94 10.3576 19.1736C9.97901 19.5533 9.93415 19.6167 9.93415 19.7713C9.93415 20.0235 10.1425 20.2167 10.4144 20.2167C10.6047 20.2167 10.6412 20.1921 11.0878 19.7637C11.6852 19.1905 11.8195 18.9481 11.8181 18.4459C11.817 18.027 11.7058 17.7528 11.4266 17.4801C11.1299 17.1905 10.8357 17.0732 10.4114 17.0756C10.0065 17.0779 9.82879 17.139 9.49007 17.3924C9.20957 17.6022 9.04183 17.6409 8.8446 17.5413C8.66188 17.4491 8.59798 17.3385 8.59798 17.1147C8.59798 16.9604 8.64289 16.8975 9.02427 16.5175C9.50276 16.0407 9.58169 15.9012 9.50367 15.6704C9.43867 15.4781 9.27299 15.3704 9.04188 15.3704C8.876 15.3704 8.82093 15.4111 8.33194 15.8947ZM17.922 17.2783C17.8666 17.3011 17.7732 17.3792 17.7146 17.4519C17.4882 17.7323 17.708 18.1663 18.0763 18.1663C18.2937 18.1663 18.4105 18.1023 18.4995 17.9343C18.6056 17.7338 18.5879 17.5795 18.4403 17.4214C18.2994 17.2704 18.0848 17.2112 17.922 17.2783Z" fill="url(#paint0_linear_677_3490)"/>
<defs>
<linearGradient id="paint0_linear_677_3490" x1="0.366211" y1="0.783203" x2="24.6713" y2="25.7889" gradientUnits="userSpaceOnUse">
<stop stop-color="#0ABD92"/>
<stop offset="1" stop-color="#009DB8"/>
</linearGradient>
</defs>
</svg>
