<svg width="25" height="25" viewBox="0 0 25 25" fill="none" xmlns="http://www.w3.org/2000/svg">
<path fill-rule="evenodd" clip-rule="evenodd" d="M11.5003 0.985708C9.80687 1.16406 8.20507 1.93229 6.98696 3.15036C5.53622 4.601 4.77017 6.45964 4.77017 8.52897C4.77017 10.3757 5.35268 12.2265 6.58821 14.3058C6.77058 14.6126 7.37015 15.5157 7.45919 15.6177C7.49451 15.6581 7.52345 15.7046 7.52345 15.7209C7.52345 15.7372 6.72744 15.7565 5.75451 15.7638C4.2136 15.7754 3.97602 15.7866 3.91172 15.8509C3.79943 15.9633 1.46624 21.645 1.46624 21.8061C1.46624 22.071 1.78336 22.2289 1.99443 22.0689C2.04145 22.0333 2.16063 21.8086 2.25922 21.5696L2.43847 21.135L3.63067 21.1226L4.82291 21.1101L4.74934 21.2856C4.7089 21.3822 4.43157 22.0534 4.13309 22.7773L3.59036 24.0935H2.40683C1.47878 24.0935 1.22829 24.0809 1.24637 24.0353C1.25904 24.0033 1.34831 23.7807 1.44476 23.5406C1.58431 23.1935 1.61143 23.0794 1.57756 22.983C1.51671 22.81 1.3212 22.7101 1.1549 22.7672C1.0051 22.8186 0.908935 22.9949 0.556033 23.8646C0.308247 24.4752 0.304892 24.6158 0.535159 24.7326C0.627461 24.7794 3.01479 24.7891 12.3384 24.7802L24.0259 24.7691L24.115 24.6591C24.164 24.5986 24.204 24.5087 24.204 24.4594C24.204 24.332 20.731 15.9417 20.641 15.8516C20.5758 15.7864 20.3449 15.7754 18.7975 15.7638C17.8246 15.7565 17.0286 15.7372 17.0286 15.7209C17.0286 15.7046 17.0575 15.6581 17.0928 15.6177C17.1819 15.5157 17.7815 14.6126 17.9638 14.3058C19.1994 12.2265 19.7819 10.3757 19.7819 8.52897C19.7819 6.45964 19.0158 4.601 17.5651 3.15036C15.9628 1.5482 13.7291 0.750938 11.5003 0.985708ZM12.935 1.68555C15.1528 1.9096 17.0704 3.15856 18.1874 5.10642C19.0704 6.64633 19.3103 8.43225 18.8853 10.3027C18.3903 12.4813 17.0631 14.7921 14.948 17.1581C14.1884 18.0078 12.4048 19.714 12.276 19.714C12.1139 19.714 9.88254 17.5167 9.12972 16.6157C7.01157 14.0806 5.84108 11.778 5.52191 9.51846C5.44559 8.97796 5.45351 7.9874 5.53841 7.45995C6.07275 4.13934 8.83679 1.72203 12.1895 1.64301C12.3342 1.63961 12.6696 1.65876 12.935 1.68555ZM11.8851 5.3185C11.3502 5.38373 10.7214 5.63136 10.4522 5.88276C10.2855 6.03851 10.2753 6.23853 10.4269 6.38095C10.5773 6.52217 10.6826 6.50917 11.098 6.29788C11.5478 6.06922 11.816 6.00581 12.3226 6.00828C12.8166 6.01065 13.2345 6.13416 13.6204 6.3919C14.9929 7.30834 15.1808 9.15645 14.0197 10.3175C13.0466 11.2905 11.5054 11.2905 10.5323 10.3175C9.78739 9.5726 9.58541 8.61763 9.9521 7.57442L10.106 7.13675L10.0099 7.0075C9.89093 6.84747 9.65386 6.81005 9.52092 6.9303C9.40957 7.03113 9.2716 7.33662 9.16774 7.71256C9.11365 7.90843 9.08989 8.1698 9.09119 8.55553C9.09282 9.03047 9.11155 9.17071 9.21564 9.48734C9.38813 10.0118 9.63405 10.4085 10.0415 10.8197C10.6266 11.4099 11.4363 11.7454 12.276 11.7454C13.6622 11.7454 14.9069 10.8277 15.33 9.49382C15.5843 8.69199 15.5208 7.88061 15.1435 7.11122C14.7996 6.40984 14.3448 5.95572 13.6505 5.62036C13.068 5.33895 12.5055 5.24279 11.8851 5.3185ZM6.71006 16.5342C6.69286 16.579 6.49913 17.0507 6.27948 17.5825L5.88013 18.5492H4.69436C4.01521 18.5492 3.51526 18.5314 3.52415 18.5075C3.53268 18.4845 3.72712 18.0128 3.95617 17.4592L4.37268 16.4526H5.557C6.66575 16.4526 6.73932 16.4579 6.71006 16.5342ZM8.57833 17.0467C9.54664 18.1903 11.7166 20.2963 12.1395 20.5028C12.3361 20.5988 12.4363 20.5379 13.2256 19.8421L13.8994 19.2481H15.93C17.8984 19.2481 17.9633 19.2452 18.0537 19.1549C18.1792 19.0293 18.1768 18.7771 18.0488 18.6613C17.9569 18.578 17.8471 18.5717 16.273 18.5592L14.5953 18.5458L15.0086 18.1166C15.2359 17.8805 15.6598 17.4095 15.9505 17.07L16.479 16.4526H18.3292H20.1794L20.5959 17.4592C20.8249 18.0128 21.0189 18.4833 21.027 18.5048C21.0351 18.5263 20.6005 18.5504 20.0614 18.5582C19.1257 18.5719 19.0765 18.5771 18.9795 18.6742C18.9144 18.7394 18.8795 18.8296 18.8822 18.9259C18.8905 19.2163 18.9149 19.2224 20.1852 19.2481L21.3351 19.2714L21.5777 19.8421L21.8203 20.4129H18.1768C14.2091 20.4129 14.3741 20.4018 14.3063 20.672C14.2895 20.7388 14.2881 20.8324 14.3032 20.88C14.3183 20.9275 15.131 21.6648 16.1091 22.5183L17.8875 24.0702L16.8764 24.0828L15.8654 24.0953L12.27 21.0361C10.2925 19.3535 8.61621 17.9548 8.54492 17.9279C8.36885 17.8615 8.21047 17.939 8.11733 18.1372C8.06314 18.2524 5.8182 23.6691 5.67283 24.0353C5.65592 24.078 5.47686 24.0935 5.00239 24.0935C4.64637 24.0935 4.35506 24.087 4.35506 24.0791C4.35506 24.0712 4.64506 23.3636 4.9995 22.5067C5.3539 21.6497 5.65857 20.89 5.67651 20.8184C5.70316 20.712 5.68392 20.6629 5.57154 20.5505L5.4339 20.4129H4.08286H2.73178L2.97439 19.8421L3.21705 19.2714L4.73369 19.2591C6.23746 19.2469 6.25115 19.2459 6.34388 19.1426C6.39527 19.0853 6.66463 18.4828 6.94237 17.8038C7.22012 17.1247 7.46702 16.5429 7.49111 16.5109C7.5173 16.476 7.64329 16.4526 7.80511 16.4526H8.07535L8.57833 17.0467ZM11.6919 21.4611L14.7574 24.0702L12.6512 24.0823C11.4928 24.089 9.61551 24.089 8.47946 24.0823L6.41391 24.0702L7.49288 21.4506C8.0863 20.0097 8.58411 18.8357 8.59911 18.8415C8.61411 18.8473 10.0059 20.0261 11.6919 21.4611ZM22.7162 22.5959C23.0476 23.3994 23.3188 24.065 23.3188 24.0752C23.3188 24.0852 22.3385 24.0928 21.1405 24.0919L18.9622 24.0903L17.2849 22.6202C16.3623 21.8117 15.5986 21.1413 15.5878 21.1306C15.5769 21.1199 17.0408 21.1165 18.8408 21.123L22.1136 21.135L22.7162 22.5959Z" fill="url(#paint0_linear_677_3498)"/>
<defs>
<linearGradient id="paint0_linear_677_3498" x1="0.366211" y1="0.945313" x2="24.6808" y2="25.3791" gradientUnits="userSpaceOnUse">
<stop stop-color="#0ABD92"/>
<stop offset="1" stop-color="#009DB8"/>
</linearGradient>
</defs>
</svg>
