<svg width="32" height="32" viewBox="0 0 32 32" fill="none" xmlns="http://www.w3.org/2000/svg">
<path fill-rule="evenodd" clip-rule="evenodd" d="M16 0C7.16344 0 0 7.16344 0 16C0 16.9262 0.0787028 17.8341 0.229786 18.7172C0.784462 18.0835 5.18447 12.9653 7.0691 10.7608C8.62552 8.94021 8.66355 8.90563 8.88353 9.11219C8.92814 9.15409 9.09932 9.26179 9.26383 9.35149C10.0627 9.78725 13.0794 11.5066 13.1701 11.5778C13.2268 11.6225 13.2568 11.7598 13.2366 11.883C13.2164 12.0063 13.1219 12.6088 13.0265 13.2219C12.6647 15.5493 12.4973 16.5717 12.4534 16.7237C12.4282 16.8107 12.4465 16.867 12.4944 16.8499C12.5836 16.8179 13.1641 16.0234 16.4443 11.4448C17.5009 9.96983 18.7383 8.24707 19.1941 7.61644C19.6499 6.98572 20.2423 6.15552 20.5106 5.7715C20.8702 5.2569 21.0343 5.08702 21.1348 5.12522C21.7937 5.37588 25.8283 6.81198 26.2279 6.93819C26.5099 7.02712 26.7906 7.13188 26.8515 7.17083C26.9402 7.22763 26.8997 7.59221 26.648 9.0013C26.4751 9.96907 26.2839 11.0448 26.2229 11.3919C26.1618 11.739 25.9938 12.6753 25.8495 13.4725C25.705 14.2698 25.5869 14.97 25.5869 15.0286C25.5869 15.0871 26.7505 13.99 28.1726 12.5904C29.5948 11.1908 30.785 10.0456 30.8177 10.0456C30.9074 10.0456 31.445 11.7486 31.6411 12.654C31.8023 13.3985 31.9234 14.3413 31.974 15.08C31.4973 6.67154 24.5278 0 16 0ZM31.9992 15.8335C31.9942 16.0988 31.9674 16.268 31.9147 16.286C31.8695 16.3014 30.3404 17.7718 28.5165 19.5534C26.6925 21.3351 24.6781 23.2962 24.0398 23.9113L22.8796 25.0299L22.0753 24.5772C21.6331 24.3282 20.5789 23.7352 19.7328 23.2595C18.8868 22.7837 18.181 22.3824 18.1645 22.3677C18.148 22.3529 18.1944 22.1587 18.2678 21.9359C18.3411 21.7131 18.515 21.0953 18.6543 20.5631C18.7936 20.0309 19.0309 19.1601 19.1815 18.6279C19.3322 18.0957 19.504 17.471 19.5633 17.2396C19.6226 17.0082 19.7498 16.5444 19.8461 16.2089C19.9423 15.8733 20.008 15.5989 19.9921 15.5989C19.9762 15.5989 19.7575 15.8842 19.5062 16.2329C19.2549 16.5815 18.8352 17.1589 18.5737 17.516C18.3122 17.873 17.9234 18.4112 17.7096 18.712C16.8655 19.8999 14.0491 23.8195 12.7465 25.6192L11.3708 27.5201L10.8942 27.3687C10.6321 27.2855 9.39843 26.8521 8.15283 26.4056C6.90724 25.9592 5.79846 25.5739 5.68881 25.5495C5.5337 25.5149 5.50089 25.4656 5.54097 25.327C5.71257 24.7327 6.25722 22.7105 6.99398 19.9321L7.37334 18.5017L7.14345 18.7619C6.64846 19.3221 2.49034 24.1787 2.38984 24.3139C2.37684 24.3314 2.36475 24.3458 2.35287 24.3563C5.16646 28.9416 10.2261 32 16 32C24.8366 32 32 24.8366 32 16C32 15.9444 31.9997 15.8889 31.9992 15.8335Z" fill="black"/>
</svg>
