<svg width="19" height="14" viewBox="0 0 19 14" fill="none" xmlns="http://www.w3.org/2000/svg">
<path d="M1.50468 6.74768H15.9943L10.446 1.96849C10.1555 1.71824 10.1442 1.30246 10.4209 1.03972C10.6973 0.77731 11.1571 0.766801 11.448 1.01706L17.7843 6.47542C18.0585 6.72371 18.21 7.05344 18.21 7.40452C18.21 7.75528 18.0585 8.08534 17.7716 8.34446L11.4476 13.7917C11.307 13.9128 11.1269 13.9729 10.9468 13.9729C10.755 13.9729 10.5633 13.9046 10.4206 13.769C10.1439 13.5063 10.1551 13.0908 10.4456 12.8406L16.0172 8.06137H1.50468C1.10376 8.06137 0.778366 7.7671 0.778366 7.40452C0.778366 7.04195 1.10376 6.74768 1.50468 6.74768Z" fill="#2E3C53"/>
</svg>
