<svg width="41" height="37" viewBox="0 0 41 37" fill="none" xmlns="http://www.w3.org/2000/svg">
<g opacity="0.3">
<path fill-rule="evenodd" clip-rule="evenodd" d="M7.13648 0.388468C6.61678 0.507561 6.46319 0.76215 5.56743 2.98854L4.72461 5.08363V9.48698C4.72461 13.6542 4.73246 13.8973 4.87107 14.019C5.07255 14.1961 5.48976 14.1823 5.68555 13.9922C5.84154 13.8408 5.8457 13.7331 5.8457 9.83329V5.82983H12.0518H18.2578V10.2259C18.2578 14.9625 18.253 14.9051 18.6756 15.1924C18.8612 15.3187 19.2634 15.3519 19.507 15.2612C19.5846 15.2323 20.3353 14.616 21.1751 13.8916C22.015 13.1673 22.7462 12.5579 22.7999 12.5375C22.8537 12.517 23.5024 13.0197 24.2415 13.6544C26.2776 15.403 26.1576 15.3138 26.4725 15.3138C26.8415 15.3138 27.172 15.142 27.291 14.8884C27.3617 14.738 27.3867 13.5242 27.3867 10.2572V5.82983H33.5928H39.7988V18.698C39.7988 33.0284 39.8467 31.8645 39.2501 32.0254C38.8864 32.1234 28.3477 32.1351 28.3477 32.0375C28.3477 32.0003 28.6141 31.9533 28.9398 31.933C29.8452 31.8767 30.409 31.5082 30.76 30.7436C31.1333 29.9305 30.9336 29.0041 30.2572 28.4109L29.9339 28.1273L30.0967 27.9589C30.5256 27.5155 30.7298 26.4916 30.5053 25.9105C30.364 25.5449 30.0325 25.1313 29.7225 24.9338C29.5609 24.8309 27.365 23.9309 24.8426 22.9339C22.3203 21.9369 20.2682 21.11 20.2822 21.0963C20.2963 21.0827 21.2912 20.7756 22.4931 20.4139C23.7473 20.0364 24.81 19.6717 24.9871 19.5579C25.5946 19.1677 25.9197 18.2599 25.7151 17.5251C25.6146 17.1642 25.1558 16.6074 24.8202 16.4389C24.2624 16.1589 23.8933 16.1529 22.6621 16.4042C16.2893 17.7044 12.9932 18.2996 10.834 18.5401C9.44898 18.6943 9.15741 18.6805 9.19737 18.4621C9.34984 17.6293 9.25759 17.2535 8.82981 16.9642C8.5481 16.7737 5.21437 15.4692 5.00905 15.4692C4.68321 15.4692 4.16118 15.7918 4.00455 16.09C3.63915 16.7852 0 25.5749 0 25.7622C0 26.0363 0.179295 26.4355 0.380371 26.6093C0.611877 26.8093 3.81925 28.0739 4.21083 28.1196C4.60417 28.1654 4.9654 28.0053 5.21869 27.6726C5.31591 27.5452 5.44635 27.4408 5.50865 27.4408C5.71758 27.4408 6.97673 28.0559 7.47673 28.4022C7.74892 28.5908 8.32524 29.1158 8.75726 29.5687C9.18937 30.0217 9.78314 30.5687 10.0766 30.7843C10.5675 31.1449 11.5694 31.684 12.252 31.9549C12.5036 32.0548 12.2302 32.0682 9.57766 32.0865C5.72855 32.1131 5.84907 32.1618 5.8469 30.5783C5.84586 29.8537 5.8216 29.6835 5.69804 29.5353C5.51578 29.3168 5.11411 29.2993 4.88581 29.4999C4.73926 29.6287 4.72469 29.7374 4.72541 30.6983C4.72613 31.6476 4.74559 31.7956 4.91696 32.1529C5.02194 32.3717 5.2307 32.6418 5.38093 32.753C5.99193 33.2054 5.84186 33.1933 10.8354 33.1933H15.4299L19.3733 34.7529C23.0637 36.2125 23.3492 36.3125 23.823 36.3125C24.9407 36.3125 25.8652 35.4554 25.8652 34.4194V34.1475L26.3257 34.0961C26.8934 34.0329 27.5757 33.7207 27.8052 33.4194L27.9774 33.1933L33.6679 33.1928C37.5266 33.1926 39.4615 33.1652 39.6787 33.1076C40.1001 32.9961 40.7674 32.338 40.9016 31.9016C40.9777 31.654 41 28.5941 41 18.3724V5.16324L40.1279 3.00362C39.6483 1.8158 39.1769 0.762383 39.0804 0.662569C38.9838 0.562832 38.7476 0.442806 38.5556 0.395853C38.1068 0.286166 35.4962 0.284145 35.1738 0.393288C34.7238 0.545575 34.6548 1.18092 35.0651 1.39408C35.161 1.4439 35.8248 1.47655 36.7412 1.47655H38.2586L38.6391 2.42883C38.8484 2.95255 39.1371 3.6675 39.2808 4.01755C39.4245 4.3676 39.5217 4.67365 39.4969 4.69775C39.4721 4.72185 36.7198 4.74151 33.3807 4.74151H27.3097L27.2674 4.5666C27.2442 4.47044 27.07 3.74453 26.8805 2.95356L26.5356 1.51542L28.8992 1.49482C31.1959 1.47477 31.2679 1.46948 31.4468 1.30631C31.7727 1.0092 31.6569 0.544175 31.2202 0.396397C30.92 0.294795 7.57867 0.287099 7.13648 0.388468ZM19.1387 1.52226C19.1387 1.62565 18.4133 4.60819 18.3726 4.67209C18.3206 4.7538 6.16602 4.76849 6.16602 4.68686C6.16602 4.63734 7.07218 2.33773 7.33147 1.7292L7.4391 1.47655H13.2889C16.5063 1.47655 19.1387 1.49708 19.1387 1.52226ZM25.711 3.07016C25.9167 3.92527 26.0695 4.65118 26.0505 4.68321C25.9994 4.76942 19.6191 4.75597 19.6191 4.66968C19.6191 4.63012 19.7813 3.9161 19.9795 3.08284C20.1777 2.24965 20.3398 1.54683 20.3398 1.5211C20.3398 1.49537 21.4642 1.48355 22.8384 1.4949L25.337 1.51542L25.711 3.07016ZM26.2656 9.84278C26.2656 13.5996 26.257 13.849 26.1304 13.7491C26.056 13.6905 25.4704 13.1922 24.8291 12.6419C24.1878 12.0916 23.5469 11.5546 23.4048 11.4486C23.0986 11.2202 22.6736 11.1952 22.3707 11.388C22.1832 11.5073 20.3636 13.0466 19.7192 13.6311L19.459 13.8672V9.84853V5.82983H22.8623H26.2656V9.84278ZM6.67027 17.2804C7.91124 17.7678 8.09149 17.8603 8.06467 17.9957C8.02519 18.1956 4.40093 26.8356 4.31901 26.9252C4.23373 27.0184 1.18796 25.8083 1.21767 25.693C1.23064 25.6428 2.08804 23.5841 3.12305 21.118C4.59753 17.6048 5.03091 16.6435 5.125 16.6774C5.19106 16.7011 5.88646 16.9725 6.67027 17.2804ZM24.2589 17.4492C24.7099 17.6756 24.718 18.4204 24.2718 18.6523C24.1807 18.6995 22.8256 19.1232 21.2605 19.5937C19.6954 20.0642 18.3267 20.4881 18.219 20.5358C17.9762 20.6432 17.857 20.957 17.9546 21.2327C18.0444 21.4868 17.7327 21.3528 23.9033 23.7907C26.634 24.8695 28.9647 25.8179 29.0826 25.8981C29.5387 26.2085 29.5449 26.9381 29.0945 27.282C28.6421 27.6274 28.6392 27.6266 24.7462 26.0846C22.7435 25.2913 21.0268 24.6422 20.9314 24.6422C20.4665 24.6422 20.2118 25.258 20.5467 25.5722C20.6311 25.6514 22.6281 26.4761 24.9844 27.4048C27.9771 28.5845 29.3376 29.158 29.4975 29.3071C29.6631 29.4616 29.738 29.6196 29.7679 29.8779C29.8062 30.2072 29.7873 30.2565 29.527 30.5093C29.2624 30.7661 29.0988 30.8216 28.708 30.7873C28.6199 30.7795 26.5907 29.9999 24.1985 29.0548C19.4941 27.1963 19.5757 27.2192 19.309 27.6803C19.136 27.9795 19.2461 28.2668 19.6004 28.4409C19.7649 28.5218 21.2507 29.1208 22.9023 29.7722C26.8206 31.3174 26.8662 31.3379 27.0203 31.6271C27.3534 32.2524 26.9063 32.9601 26.1783 32.9601C26.0834 32.9601 24.3696 32.3129 22.3701 31.5219C20.3704 30.731 18.6861 30.0838 18.6271 30.0838C18.568 30.0838 18.4247 30.1563 18.3087 30.245C18.0511 30.4416 18.0201 30.8466 18.2471 31.0461C18.3293 31.1183 19.6896 31.6885 21.27 32.3133C22.8505 32.938 24.24 33.5147 24.358 33.5947C24.6128 33.7675 24.7766 34.1947 24.7065 34.5042C24.6789 34.6263 24.5512 34.8239 24.4228 34.9434C23.9739 35.3608 24.0346 35.3793 17.8574 32.9315C14.7524 31.701 11.9957 30.5882 11.7314 30.4585C11.0659 30.132 10.6175 29.7984 10.0098 29.1775C8.48748 27.6222 7.74748 27.0769 6.47103 26.5701L5.85507 26.3256L5.97519 26.0475C6.04125 25.8946 6.6014 24.5625 7.22 23.0875C7.83853 21.6124 8.41421 20.2466 8.49933 20.0522L8.65404 19.699L9.4051 19.7309C10.3503 19.771 11.2581 19.6713 13.9736 19.2293C15.9078 18.9145 21.1158 17.9076 22.9023 17.5031C23.743 17.3128 23.9693 17.3038 24.2589 17.4492Z" fill="url(#paint0_linear_804_6091)"/>
<path fill-rule="evenodd" clip-rule="evenodd" d="M7.13648 0.388468C6.61678 0.507561 6.46319 0.76215 5.56743 2.98854L4.72461 5.08363V9.48698C4.72461 13.6542 4.73246 13.8973 4.87107 14.019C5.07255 14.1961 5.48976 14.1823 5.68555 13.9922C5.84154 13.8408 5.8457 13.7331 5.8457 9.83329V5.82983H12.0518H18.2578V10.2259C18.2578 14.9625 18.253 14.9051 18.6756 15.1924C18.8612 15.3187 19.2634 15.3519 19.507 15.2612C19.5846 15.2323 20.3353 14.616 21.1751 13.8916C22.015 13.1673 22.7462 12.5579 22.7999 12.5375C22.8537 12.517 23.5024 13.0197 24.2415 13.6544C26.2776 15.403 26.1576 15.3138 26.4725 15.3138C26.8415 15.3138 27.172 15.142 27.291 14.8884C27.3617 14.738 27.3867 13.5242 27.3867 10.2572V5.82983H33.5928H39.7988V18.698C39.7988 33.0284 39.8467 31.8645 39.2501 32.0254C38.8864 32.1234 28.3477 32.1351 28.3477 32.0375C28.3477 32.0003 28.6141 31.9533 28.9398 31.933C29.8452 31.8767 30.409 31.5082 30.76 30.7436C31.1333 29.9305 30.9336 29.0041 30.2572 28.4109L29.9339 28.1273L30.0967 27.9589C30.5256 27.5155 30.7298 26.4916 30.5053 25.9105C30.364 25.5449 30.0325 25.1313 29.7225 24.9338C29.5609 24.8309 27.365 23.9309 24.8426 22.9339C22.3203 21.9369 20.2682 21.11 20.2822 21.0963C20.2963 21.0827 21.2912 20.7756 22.4931 20.4139C23.7473 20.0364 24.81 19.6717 24.9871 19.5579C25.5946 19.1677 25.9197 18.2599 25.7151 17.5251C25.6146 17.1642 25.1558 16.6074 24.8202 16.4389C24.2624 16.1589 23.8933 16.1529 22.6621 16.4042C16.2893 17.7044 12.9932 18.2996 10.834 18.5401C9.44898 18.6943 9.15741 18.6805 9.19737 18.4621C9.34984 17.6293 9.25759 17.2535 8.82981 16.9642C8.5481 16.7737 5.21437 15.4692 5.00905 15.4692C4.68321 15.4692 4.16118 15.7918 4.00455 16.09C3.63915 16.7852 0 25.5749 0 25.7622C0 26.0363 0.179295 26.4355 0.380371 26.6093C0.611877 26.8093 3.81925 28.0739 4.21083 28.1196C4.60417 28.1654 4.9654 28.0053 5.21869 27.6726C5.31591 27.5452 5.44635 27.4408 5.50865 27.4408C5.71758 27.4408 6.97673 28.0559 7.47673 28.4022C7.74892 28.5908 8.32524 29.1158 8.75726 29.5687C9.18937 30.0217 9.78314 30.5687 10.0766 30.7843C10.5675 31.1449 11.5694 31.684 12.252 31.9549C12.5036 32.0548 12.2302 32.0682 9.57766 32.0865C5.72855 32.1131 5.84907 32.1618 5.8469 30.5783C5.84586 29.8537 5.8216 29.6835 5.69804 29.5353C5.51578 29.3168 5.11411 29.2993 4.88581 29.4999C4.73926 29.6287 4.72469 29.7374 4.72541 30.6983C4.72613 31.6476 4.74559 31.7956 4.91696 32.1529C5.02194 32.3717 5.2307 32.6418 5.38093 32.753C5.99193 33.2054 5.84186 33.1933 10.8354 33.1933H15.4299L19.3733 34.7529C23.0637 36.2125 23.3492 36.3125 23.823 36.3125C24.9407 36.3125 25.8652 35.4554 25.8652 34.4194V34.1475L26.3257 34.0961C26.8934 34.0329 27.5757 33.7207 27.8052 33.4194L27.9774 33.1933L33.6679 33.1928C37.5266 33.1926 39.4615 33.1652 39.6787 33.1076C40.1001 32.9961 40.7674 32.338 40.9016 31.9016C40.9777 31.654 41 28.5941 41 18.3724V5.16324L40.1279 3.00362C39.6483 1.8158 39.1769 0.762383 39.0804 0.662569C38.9838 0.562832 38.7476 0.442806 38.5556 0.395853C38.1068 0.286166 35.4962 0.284145 35.1738 0.393288C34.7238 0.545575 34.6548 1.18092 35.0651 1.39408C35.161 1.4439 35.8248 1.47655 36.7412 1.47655H38.2586L38.6391 2.42883C38.8484 2.95255 39.1371 3.6675 39.2808 4.01755C39.4245 4.3676 39.5217 4.67365 39.4969 4.69775C39.4721 4.72185 36.7198 4.74151 33.3807 4.74151H27.3097L27.2674 4.5666C27.2442 4.47044 27.07 3.74453 26.8805 2.95356L26.5356 1.51542L28.8992 1.49482C31.1959 1.47477 31.2679 1.46948 31.4468 1.30631C31.7727 1.0092 31.6569 0.544175 31.2202 0.396397C30.92 0.294795 7.57867 0.287099 7.13648 0.388468ZM19.1387 1.52226C19.1387 1.62565 18.4133 4.60819 18.3726 4.67209C18.3206 4.7538 6.16602 4.76849 6.16602 4.68686C6.16602 4.63734 7.07218 2.33773 7.33147 1.7292L7.4391 1.47655H13.2889C16.5063 1.47655 19.1387 1.49708 19.1387 1.52226ZM25.711 3.07016C25.9167 3.92527 26.0695 4.65118 26.0505 4.68321C25.9994 4.76942 19.6191 4.75597 19.6191 4.66968C19.6191 4.63012 19.7813 3.9161 19.9795 3.08284C20.1777 2.24965 20.3398 1.54683 20.3398 1.5211C20.3398 1.49537 21.4642 1.48355 22.8384 1.4949L25.337 1.51542L25.711 3.07016ZM26.2656 9.84278C26.2656 13.5996 26.257 13.849 26.1304 13.7491C26.056 13.6905 25.4704 13.1922 24.8291 12.6419C24.1878 12.0916 23.5469 11.5546 23.4048 11.4486C23.0986 11.2202 22.6736 11.1952 22.3707 11.388C22.1832 11.5073 20.3636 13.0466 19.7192 13.6311L19.459 13.8672V9.84853V5.82983H22.8623H26.2656V9.84278ZM6.67027 17.2804C7.91124 17.7678 8.09149 17.8603 8.06467 17.9957C8.02519 18.1956 4.40093 26.8356 4.31901 26.9252C4.23373 27.0184 1.18796 25.8083 1.21767 25.693C1.23064 25.6428 2.08804 23.5841 3.12305 21.118C4.59753 17.6048 5.03091 16.6435 5.125 16.6774C5.19106 16.7011 5.88646 16.9725 6.67027 17.2804ZM24.2589 17.4492C24.7099 17.6756 24.718 18.4204 24.2718 18.6523C24.1807 18.6995 22.8256 19.1232 21.2605 19.5937C19.6954 20.0642 18.3267 20.4881 18.219 20.5358C17.9762 20.6432 17.857 20.957 17.9546 21.2327C18.0444 21.4868 17.7327 21.3528 23.9033 23.7907C26.634 24.8695 28.9647 25.8179 29.0826 25.8981C29.5387 26.2085 29.5449 26.9381 29.0945 27.282C28.6421 27.6274 28.6392 27.6266 24.7462 26.0846C22.7435 25.2913 21.0268 24.6422 20.9314 24.6422C20.4665 24.6422 20.2118 25.258 20.5467 25.5722C20.6311 25.6514 22.6281 26.4761 24.9844 27.4048C27.9771 28.5845 29.3376 29.158 29.4975 29.3071C29.6631 29.4616 29.738 29.6196 29.7679 29.8779C29.8062 30.2072 29.7873 30.2565 29.527 30.5093C29.2624 30.7661 29.0988 30.8216 28.708 30.7873C28.6199 30.7795 26.5907 29.9999 24.1985 29.0548C19.4941 27.1963 19.5757 27.2192 19.309 27.6803C19.136 27.9795 19.2461 28.2668 19.6004 28.4409C19.7649 28.5218 21.2507 29.1208 22.9023 29.7722C26.8206 31.3174 26.8662 31.3379 27.0203 31.6271C27.3534 32.2524 26.9063 32.9601 26.1783 32.9601C26.0834 32.9601 24.3696 32.3129 22.3701 31.5219C20.3704 30.731 18.6861 30.0838 18.6271 30.0838C18.568 30.0838 18.4247 30.1563 18.3087 30.245C18.0511 30.4416 18.0201 30.8466 18.2471 31.0461C18.3293 31.1183 19.6896 31.6885 21.27 32.3133C22.8505 32.938 24.24 33.5147 24.358 33.5947C24.6128 33.7675 24.7766 34.1947 24.7065 34.5042C24.6789 34.6263 24.5512 34.8239 24.4228 34.9434C23.9739 35.3608 24.0346 35.3793 17.8574 32.9315C14.7524 31.701 11.9957 30.5882 11.7314 30.4585C11.0659 30.132 10.6175 29.7984 10.0098 29.1775C8.48748 27.6222 7.74748 27.0769 6.47103 26.5701L5.85507 26.3256L5.97519 26.0475C6.04125 25.8946 6.6014 24.5625 7.22 23.0875C7.83853 21.6124 8.41421 20.2466 8.49933 20.0522L8.65404 19.699L9.4051 19.7309C10.3503 19.771 11.2581 19.6713 13.9736 19.2293C15.9078 18.9145 21.1158 17.9076 22.9023 17.5031C23.743 17.3128 23.9693 17.3038 24.2589 17.4492Z" fill="white"/>
</g>
<defs>
<linearGradient id="paint0_linear_804_6091" x1="0" y1="0.3125" x2="36.3886" y2="41.9582" gradientUnits="userSpaceOnUse">
<stop stop-color="#0ABD92"/>
<stop offset="1" stop-color="#009DB8"/>
</linearGradient>
</defs>
</svg>
