<svg width="140" height="68" viewBox="0 0 140 68" fill="none" xmlns="http://www.w3.org/2000/svg">
<path fill-rule="evenodd" clip-rule="evenodd" d="M0 33.8642V67.4454L33.8613 67.4204L67.7226 67.3955L67.7477 33.8393L67.7729 0.283203H33.8864H0V33.8642ZM72.2237 0.40711C72.1976 0.475364 72.1876 15.5757 72.2018 33.9633L72.2274 67.3955H106.114H140V33.8641V0.332806L106.136 0.307905C79.0965 0.287965 72.2617 0.307905 72.2237 0.40711ZM135.946 33.8643V63.4772L106.089 63.4523L76.2317 63.4273L76.2061 33.9633C76.1919 17.7582 76.2018 4.44367 76.228 4.37541C76.2658 4.27661 82.3345 4.25141 106.111 4.25141H135.946V33.8643ZM105.901 10.8982C105.894 10.9527 105.883 11.0532 105.876 11.1214C105.869 11.1896 105.762 11.2894 105.638 11.3433C105.514 11.3972 105.413 11.5002 105.413 11.5723C105.413 11.6445 105.449 11.6815 105.493 11.6546C105.638 11.5656 105.863 11.7812 105.863 12.0092C105.863 12.144 105.933 12.2472 106.039 12.2677C106.175 12.294 106.214 12.2339 106.214 11.9985C106.214 11.7581 106.265 11.6828 106.464 11.6334C106.775 11.5559 106.789 11.4185 106.489 11.3763C106.328 11.3536 106.255 11.2671 106.232 11.0718C106.203 10.8165 105.929 10.6734 105.901 10.8982ZM105.654 12.7329C105.5 12.9672 105.506 13.0228 105.775 13.7721C105.931 14.2076 106.096 14.5272 106.141 14.4823C106.186 14.4374 106.337 14.0778 106.475 13.6831C106.71 13.0147 106.716 12.9491 106.568 12.7255C106.349 12.3941 105.876 12.3979 105.654 12.7329ZM104.921 12.9071C104.997 13.1633 105.413 15.2988 105.413 15.4293C105.413 15.4471 105.481 15.4616 105.563 15.4616C105.763 15.4616 105.753 15.2447 105.503 14.0958C105.306 13.1919 105.063 12.5846 104.898 12.5846C104.858 12.5846 104.869 12.7298 104.921 12.9071ZM107.062 12.8882C106.885 13.2274 106.52 14.7671 106.516 15.1888C106.513 15.6413 106.787 15.5229 106.861 15.04C106.977 14.2862 107.235 13.0399 107.324 12.8095C107.454 12.4711 107.247 12.5332 107.062 12.8882ZM83.0794 13.344C82.9045 14.2174 82.9048 15.8534 83.08 16.5528C83.1552 16.8529 83.3477 17.3663 83.5078 17.6937C84.1987 19.1068 86.2509 21.4041 87.8909 22.6005C88.6763 23.1734 89.9582 23.894 90.192 23.894C90.2474 23.894 90.1578 23.7042 89.9931 23.4724C89.8283 23.2406 89.5898 22.7974 89.4628 22.4877C89.2913 22.0687 89.1057 21.8254 88.7384 21.5377C87.9408 20.9129 86.5529 19.5753 86.116 19.0105C85.4651 18.169 84.7424 16.7513 84.9643 16.7513C85.208 16.7513 86.3479 17.954 87.6515 19.5865C88.4542 20.5916 89.1299 21.4139 89.1532 21.4139C89.1765 21.4139 89.1956 21.2454 89.1956 21.0396C89.1956 20.7669 89.0302 20.3698 88.586 19.5763C87.2094 17.1173 85.7033 15.098 84.0113 13.4432L83.2155 12.6648L83.0794 13.344ZM128.632 12.9794C128.35 13.1881 126.686 15.0228 126.065 15.8088C125.326 16.7455 123.959 18.9004 123.327 20.1242C123.097 20.5704 122.903 21.4139 123.031 21.4139C123.068 21.4139 123.732 20.6197 124.506 19.6488C126.041 17.7233 127.336 16.4188 127.336 16.798C127.336 16.986 126.755 18.0751 126.327 18.6889C125.847 19.3765 124.207 20.9885 123.313 21.6511C123.059 21.8387 122.893 22.0726 122.786 22.3926C122.7 22.6496 122.473 23.0953 122.282 23.3831C121.961 23.8654 121.951 23.9012 122.158 23.8407C123.578 23.4229 126.409 21.0399 127.821 19.0729C128.941 17.5125 129.266 16.5694 129.257 14.9023C129.252 14.0091 129.074 12.78 128.95 12.7862C128.916 12.7879 128.773 12.8748 128.632 12.9794ZM103.761 13.1183C103.59 13.2422 103.584 13.2958 103.697 13.6887C103.766 13.9272 103.961 14.4715 104.131 14.8984C104.425 15.6356 104.453 15.6712 104.701 15.6106C104.845 15.5755 105.001 15.509 105.049 15.4628C105.146 15.3693 104.988 14.3122 104.756 13.5023C104.615 13.0098 104.589 12.9815 104.278 12.9815C104.097 12.9815 103.865 13.043 103.761 13.1183ZM107.53 13.2364C107.342 13.6468 107.066 15.3537 107.171 15.4561C107.223 15.506 107.38 15.575 107.521 15.6094C107.767 15.6694 107.793 15.6313 108.148 14.6987C108.668 13.334 108.629 12.9815 107.962 12.9815C107.721 12.9815 107.62 13.0414 107.53 13.2364ZM96.6035 14.2306C96.0449 14.5462 95.8026 14.7582 95.8026 14.9313C95.8026 15.0932 96.1359 15.1053 96.4349 14.9543C96.9276 14.7053 97.695 14.1374 97.6456 14.0583C97.5444 13.896 97.0511 13.9776 96.6035 14.2306ZM100.107 14.2146C100.107 14.3862 100.045 14.4649 99.8898 14.4874C99.5901 14.5311 99.5439 14.7446 99.8256 14.7843C99.9926 14.8078 100.07 14.8986 100.108 15.1144C100.138 15.288 100.221 15.412 100.307 15.412C100.394 15.412 100.477 15.288 100.507 15.1144C100.545 14.8986 100.622 14.8078 100.789 14.7843C101.071 14.7446 101.025 14.5311 100.725 14.4874C100.57 14.4649 100.508 14.3862 100.508 14.2146C100.508 14.0397 100.453 13.9735 100.307 13.9735C100.162 13.9735 100.107 14.0397 100.107 14.2146ZM111.72 14.2146C111.72 14.3862 111.657 14.4649 111.502 14.4874C111.19 14.533 111.166 14.7325 111.465 14.8068C111.667 14.8569 111.72 14.9318 111.72 15.1659C111.72 15.5493 111.994 15.569 112.038 15.1888C112.058 15.0201 112.156 14.8786 112.295 14.818C112.588 14.6909 112.58 14.5863 112.27 14.4695C112.117 14.4118 112.02 14.2973 112.02 14.1744C112.02 14.062 111.954 13.9735 111.87 13.9735C111.778 13.9735 111.72 14.0665 111.72 14.2146ZM114.581 14.0598C114.505 14.1808 115.646 14.955 116.004 15.0261C116.416 15.1077 116.481 14.9274 116.152 14.6176C115.617 14.115 114.74 13.8038 114.581 14.0598ZM97.9371 14.5191C97.8919 14.6283 97.6836 15.0163 97.4741 15.3812C97.2648 15.7463 97.0536 16.1828 97.0048 16.3513C96.8831 16.7719 97.0583 17.2188 97.417 17.4025L97.7082 17.5517L97.6471 17.1736C97.5959 16.8561 97.6518 16.6717 97.9958 16.0246C98.454 15.1624 98.4933 14.8957 98.2124 14.555C98.0241 14.3265 98.0173 14.3256 97.9371 14.5191ZM113.979 14.5892C113.744 14.9218 113.783 15.1537 114.222 16.0328C114.647 16.8827 114.684 17.0475 114.519 17.353C114.391 17.5894 114.5 17.598 114.826 17.377C115.175 17.1403 115.22 17.0513 115.222 16.6004C115.223 16.3049 115.107 16.0036 114.773 15.4389C114.525 15.0194 114.322 14.6323 114.322 14.5788C114.322 14.3714 114.129 14.3773 113.979 14.5892ZM95.1269 15.0678C94.8346 15.1843 94.8409 15.4529 95.1539 16.2056C95.3442 16.6634 95.4014 16.9792 95.4017 17.5729C95.402 18.0562 95.4617 18.4829 95.5612 18.7137L95.7202 19.0826L95.9058 18.3881C96.1647 17.4196 96.1514 16.8593 95.8527 16.156C95.7151 15.8319 95.6024 15.4315 95.6024 15.2662C95.6024 14.9505 95.514 14.9137 95.1269 15.0678ZM116.625 15.2166C116.625 15.3546 116.511 15.7368 116.371 16.0658C116.213 16.4366 116.114 16.8628 116.11 17.1863C116.104 17.7202 116.392 18.9338 116.525 18.9338C116.681 18.9338 116.85 18.0326 116.785 17.5457C116.731 17.144 116.766 16.9314 116.97 16.4262C117.374 15.4253 117.39 15.2251 117.079 15.0845C116.7 14.9131 116.625 14.9347 116.625 15.2166ZM99.9416 15.813C99.9063 15.9041 99.9789 16.1856 100.103 16.4386L100.328 16.8984L100.524 16.5202C100.802 15.9843 100.741 15.7175 100.332 15.6785C100.1 15.6563 99.9873 15.695 99.9416 15.813ZM111.526 15.8012C111.433 15.9124 111.46 16.0439 111.653 16.4208L111.898 16.8994L112.124 16.4391C112.248 16.1858 112.322 15.9069 112.288 15.8193C112.211 15.6194 111.688 15.607 111.526 15.8012ZM104.937 15.8702C104.278 16.0589 104.599 16.2473 105.713 16.3261C106.474 16.3798 107.615 16.2169 107.615 16.0544C107.615 15.7951 105.668 15.6611 104.937 15.8702ZM98.9064 16.0068C98.7993 16.1346 98.8366 16.2527 99.1343 16.728C99.5337 17.3655 99.7456 17.5462 99.9066 17.3866C100.047 17.2479 99.8295 16.3044 99.6145 16.1181C99.3486 15.8875 99.046 15.84 98.9064 16.0068ZM101.208 15.9853C100.957 16.1123 100.76 16.5398 100.693 17.1002C100.633 17.6017 100.99 17.4827 101.434 16.8526C101.968 16.0949 101.855 15.6583 101.208 15.9853ZM110.49 15.9192C110.347 16.0612 110.425 16.3213 110.776 16.8783C111.138 17.4506 111.372 17.5834 111.489 17.2816C111.566 17.0839 111.357 16.2527 111.189 16.0882C111.034 15.9361 110.583 15.8272 110.49 15.9192ZM112.744 15.9803C112.59 16.054 112.466 16.2604 112.36 16.6238C112.06 17.6474 112.449 17.7321 113.053 16.7747C113.374 16.265 113.422 16.1277 113.321 16.0062C113.177 15.8351 113.059 15.8298 112.744 15.9803ZM23.5133 16.2026C24.6572 16.3568 25.8229 17.3271 26.4704 18.6643C27.7739 21.3562 27.7426 25.7143 26.4002 28.4575C25.9544 29.3683 24.966 30.3378 24.1759 30.6393C23.2648 30.9868 22.0813 30.97 21.2516 30.5977C20.4274 30.2279 19.6626 29.4313 19.1949 28.4554C17.9188 25.7928 17.9371 21.166 19.2341 18.5623C19.6984 17.6302 20.437 16.8212 21.1349 16.4801C21.5973 16.2541 22.5135 16.0615 22.8745 16.1143C22.9846 16.1303 23.2721 16.1701 23.5133 16.2026ZM14.6914 23.522L14.6657 30.5904H13.3643H12.0629L12.0371 24.71L12.0113 18.8295L10.4354 18.8569L8.85949 18.8842L8.83366 24.7621L8.80784 30.64H7.50724H6.20665V23.5468V16.4536H10.4619H14.7171L14.6914 23.522ZM32.9368 18.4625C32.9384 20.6746 32.9728 20.8332 33.5196 21.1497C33.7864 21.3042 34.0573 21.3449 34.8709 21.3536L35.8885 21.3643L35.9152 18.909L35.942 16.4536H37.2416H38.5413L38.5642 22.0339C38.5837 26.7653 38.58 28.4831 38.5462 30.3672L38.5413 30.64H37.2399H35.9385V27.2282V23.8164L34.4619 23.779C33.0505 23.7433 32.9556 23.7278 32.3121 23.4274C31.5856 23.0883 30.8649 22.4355 30.5954 21.8726C30.5045 21.6829 30.3858 21.2951 30.3313 21.0108C30.2213 20.4361 30.1941 16.624 30.2992 16.5198C30.3358 16.4834 30.944 16.4536 31.6506 16.4536H32.9353L32.9368 18.4625ZM48.7304 17.6689L48.7585 18.8346H47.6551H46.5515L46.5256 24.7125L46.4998 30.5904H45.1984H43.897L43.8712 24.7125L43.8454 18.8346H42.7951C41.8651 18.8346 41.7436 18.8146 41.7352 18.661C41.6908 17.8497 41.688 17.3255 41.7261 16.9236L41.7709 16.4511L45.2366 16.4771L48.7022 16.5032L48.7304 17.6689ZM57.8112 16.7476C58.7149 17.1007 59.4814 17.9014 59.7546 18.7781C59.8699 19.148 59.9642 19.5946 59.9642 19.7706C59.9642 19.9465 60.2345 22.3563 60.5649 25.1259C60.8952 27.8954 61.1655 30.269 61.1655 30.4007V30.64H59.866C58.5998 30.64 58.5653 30.6343 58.5174 30.4168C58.4904 30.2939 58.3298 28.832 58.1606 27.1678C57.9914 25.5036 57.8317 24.0416 57.8055 23.9188C57.7587 23.6987 57.7361 23.6956 56.1719 23.6956H54.5858L54.5237 24.7125C54.4896 25.2717 54.4362 26.6891 54.4053 27.8622C54.3744 29.0353 54.3265 30.1402 54.2991 30.3176L54.249 30.64H52.9522H51.6553L51.6521 30.3672C51.644 29.6865 52.082 16.6869 52.117 16.5689C52.149 16.4612 52.634 16.4434 54.6838 16.4747C57.0546 16.5108 57.2484 16.5277 57.8112 16.7476ZM105.858 16.6616C105.82 16.7214 105.863 16.8425 105.952 16.9308C106.101 17.0787 106.126 17.0787 106.276 16.9308C106.365 16.8425 106.407 16.7214 106.37 16.6616C106.282 16.521 105.945 16.521 105.858 16.6616ZM104.396 16.7693C104.004 16.8726 103.28 17.4293 103.098 17.7672C102.991 17.9647 103.005 17.97 103.492 17.9127C104.142 17.8365 104.733 17.535 105.057 17.1148C105.198 16.9318 105.313 16.7528 105.313 16.7171C105.313 16.6265 104.834 16.6537 104.396 16.7693ZM106.915 16.7301C106.915 16.9272 107.439 17.4539 107.835 17.6539C108.052 17.7636 108.463 17.8807 108.748 17.9139C109.247 17.9721 109.262 17.9671 109.122 17.7844C108.767 17.3215 108.541 17.1161 108.191 16.9382C107.743 16.7105 106.915 16.5755 106.915 16.7301ZM104.713 17.0973C104.531 17.3144 103.911 17.6763 103.84 17.6064C103.694 17.4616 104.34 16.9724 104.699 16.9559C104.81 16.9509 104.812 16.9787 104.713 17.0973ZM107.903 17.0919C108.222 17.2556 108.472 17.5227 108.386 17.6082C108.316 17.6767 107.694 17.3117 107.514 17.0973C107.351 16.9023 107.528 16.9 107.903 17.0919ZM80.0125 18.0657C80.0418 18.6249 80.1381 19.3124 80.2268 19.5934C80.6913 21.066 82.4573 22.6447 85.2038 24.0425C86.253 24.5767 87.6713 25.102 88.4367 25.2404L88.8292 25.3113L88.6022 24.9955C88.4484 24.7813 88.0309 24.5085 87.305 24.1478C86.7164 23.8552 85.8085 23.3355 85.2876 22.9928C84.3087 22.3489 82.4482 20.622 82.6561 20.5501C82.9435 20.4507 84.4865 21.4419 86.6899 23.1412C87.4315 23.7132 88.054 24.1655 88.0733 24.1464C88.0925 24.1274 88.0526 23.9277 87.9846 23.7027C87.8902 23.3903 87.6814 23.1364 87.1017 22.6286C86.6842 22.2629 85.6217 21.2926 84.7408 20.4724C82.9313 18.7877 82.1436 18.1476 81.0819 17.499C79.9734 16.8216 79.9483 16.8349 80.0125 18.0657ZM131.253 17.4206C130.294 17.9827 128.761 19.2332 127.038 20.8598C126.185 21.6644 125.252 22.5088 124.964 22.7364C124.581 23.0387 124.388 23.2834 124.247 23.646C124.14 23.9188 124.069 24.1581 124.087 24.1777C124.106 24.1974 124.607 23.8403 125.2 23.3841C127.846 21.3506 129.245 20.4406 129.565 20.5461C129.774 20.6151 127.922 22.349 126.977 22.9693C126.476 23.2979 125.545 23.8287 124.908 24.149C124.085 24.5629 123.7 24.8149 123.577 25.0207L123.405 25.3101L123.749 25.2461C125.342 24.95 128.346 23.502 129.789 22.335C131.617 20.8571 132.242 19.6821 132.242 17.7251C132.242 16.9021 132.173 16.881 131.253 17.4206ZM99.6302 17.7143C99.5056 17.738 99.4294 17.799 99.461 17.8496C99.534 17.9667 101.078 17.9713 101.151 17.8546C101.256 17.6865 100.259 17.5945 99.6302 17.7143ZM111.193 17.7127C111.096 17.7378 111.042 17.7996 111.074 17.85C111.147 17.9668 112.691 17.971 112.763 17.8546C112.868 17.6874 111.699 17.5818 111.193 17.7127ZM98.4451 18.28C98.3815 18.4442 98.6209 18.9389 98.8584 19.1343C99.0104 19.2593 99.0182 19.2296 98.9512 18.7798C98.8839 18.3273 98.7774 18.1455 98.5775 18.1416C98.5345 18.1408 98.4749 18.203 98.4451 18.28ZM99.1575 18.4984C99.1936 18.7106 99.3234 19.0851 99.4458 19.3306C99.7552 19.9505 100.608 20.4964 100.608 20.0746C100.608 19.8827 100.583 19.877 101.269 20.2221C101.969 20.5738 102.009 20.5794 102.009 20.3251C102.009 20.1547 102.043 20.142 102.272 20.228C102.518 20.3208 102.531 20.3111 102.485 20.071C102.448 19.8814 102.471 19.8294 102.573 19.8705C102.648 19.9009 102.78 19.9538 102.865 19.9879C102.991 20.0381 103.008 19.9997 102.954 19.7889L102.888 19.5277L103.417 19.8801C103.887 20.1936 104.006 20.2291 104.496 20.2031C104.825 20.1856 105.063 20.1239 105.088 20.0498C105.111 19.9817 105.056 19.9258 104.967 19.9258C104.758 19.9258 104.083 19.5856 103.931 19.404C103.838 19.2932 103.87 19.2167 104.083 19.0327L104.352 18.8008L104.13 18.7024L103.907 18.6039L104.134 18.3608L104.362 18.1175L103.954 18.1842C102.578 18.4092 100.47 18.4092 99.4244 18.1841L99.0919 18.1124L99.1575 18.4984ZM108.099 18.3674C108.332 18.6166 108.333 18.6176 108.124 18.6831C107.846 18.7707 107.861 18.878 108.187 19.1129L108.458 19.3087L107.967 19.6173C107.697 19.7869 107.397 19.9258 107.301 19.9258C107.065 19.9258 106.978 20.0889 107.174 20.1634C107.422 20.2581 108.076 20.2336 108.385 20.1179C108.54 20.0598 108.79 19.8953 108.942 19.7521C109.093 19.609 109.222 19.5338 109.229 19.5848C109.235 19.6359 109.246 19.7448 109.254 19.8266C109.267 19.9785 109.342 19.9887 109.63 19.8778C109.759 19.828 109.783 19.8649 109.745 20.0569C109.704 20.2715 109.728 20.2932 109.959 20.2495C110.151 20.2129 110.218 20.2416 110.218 20.3606C110.218 20.5715 110.226 20.57 110.924 20.221C111.428 19.9689 111.533 19.9451 111.582 20.0721C111.675 20.3105 111.888 20.2517 112.314 19.8699C112.684 19.539 112.923 19.0738 113.07 18.3994C113.13 18.1197 113.124 18.1148 112.801 18.1845C111.784 18.4036 109.622 18.4051 108.293 18.1875L107.866 18.1175L108.099 18.3674ZM113.46 18.216C113.347 18.2905 113.165 19.2314 113.264 19.2314C113.294 19.2314 113.437 19.0539 113.582 18.837C113.901 18.3596 113.826 17.9766 113.46 18.216ZM22.3239 18.607C21.485 18.9109 20.9477 20.4449 20.8545 22.8028C20.7232 26.1216 21.4831 28.4575 22.694 28.4575C23.4849 28.4575 24.04 27.8185 24.3745 26.5233C24.9642 24.2403 24.7659 20.6084 23.979 19.2776C23.6296 18.6869 22.9092 18.395 22.3239 18.607ZM96.6368 18.8917C96.4151 19.1114 96.3861 19.2097 96.4296 19.5923C96.4604 19.8638 96.5681 20.13 96.7054 20.2749C96.9156 20.4967 96.9492 20.5029 97.2126 20.368C97.5749 20.1823 98.3354 20.1825 98.6981 20.3684C98.9281 20.4861 99.044 20.4912 99.3188 20.3952C99.5047 20.3302 99.6757 20.2648 99.6989 20.2498C99.8097 20.1783 99.2332 19.7207 98.7992 19.5355C98.531 19.4213 98.1863 19.1722 98.0331 18.982C97.7929 18.6835 97.6959 18.6362 97.3248 18.6362C96.9961 18.6362 96.834 18.6965 96.6368 18.8917ZM114.246 18.9228C114.129 19.0803 113.704 19.3847 113.302 19.5989C112.451 20.0523 112.353 20.2385 112.882 20.3991C113.177 20.4889 113.306 20.4826 113.531 20.3674C113.896 20.1806 114.595 20.1843 114.964 20.3752C115.237 20.516 115.271 20.5117 115.488 20.3091C115.954 19.8756 115.872 18.923 115.351 18.727C114.872 18.5464 114.475 18.6166 114.246 18.9228ZM54.6577 19.5538C54.6573 19.9494 54.6284 20.5075 54.5937 20.7939L54.5305 21.3147H55.9961C57.6681 21.3147 57.5525 21.4026 57.304 20.3201C57.0487 19.2078 56.531 18.8363 55.2342 18.8352L54.6586 18.8346L54.6577 19.5538ZM101.218 18.9422C100.975 18.9894 100.672 19.1249 100.545 19.2435C100.353 19.4219 100.287 19.4372 100.16 19.333C100.076 19.2637 100.007 19.1232 100.007 19.0209C100.007 18.8528 100.088 18.8357 100.833 18.8455C101.586 18.8554 101.62 18.8638 101.218 18.9422ZM112.22 18.9644C112.22 19.0358 112.156 19.1809 112.078 19.2868C111.939 19.476 111.932 19.4754 111.694 19.2537C111.56 19.1296 111.253 18.9894 111.01 18.9422C110.607 18.8638 110.641 18.8554 111.394 18.8455C112.014 18.8372 112.22 18.867 112.22 18.9644ZM97.8869 19.7103C97.9104 19.8691 97.8671 19.9258 97.7224 19.9258C97.4868 19.9258 97.3749 19.6971 97.5336 19.5398C97.6933 19.3816 97.8491 19.4568 97.8869 19.7103ZM114.705 19.7103C114.728 19.8691 114.685 19.9258 114.54 19.9258C114.305 19.9258 114.193 19.6971 114.352 19.5398C114.511 19.3816 114.667 19.4568 114.705 19.7103ZM89.6314 20.3741C89.5984 20.4595 89.591 20.9007 89.615 21.3544C89.6748 22.4827 89.9929 23.1131 90.997 24.0924C91.6641 24.7431 92.9656 25.6474 93.0766 25.5373C93.0981 25.5159 93.0497 25.3942 92.969 25.2667C92.8222 25.0349 92.6393 24.4996 92.1549 22.8851C91.7903 21.6698 91.0512 20.7819 90.0639 20.373C89.7266 20.2335 89.6859 20.2336 89.6314 20.3741ZM121.928 20.4668C121.399 20.7397 120.633 21.5182 120.35 22.0694C120.241 22.2818 120.01 22.9626 119.836 23.5822C119.663 24.2019 119.433 24.8809 119.324 25.0911C119.216 25.3013 119.128 25.5017 119.128 25.5364C119.128 25.6444 120.05 25.0766 120.7 24.5681C121.41 24.0126 122.014 23.3003 122.348 22.6245C122.538 22.2394 122.578 21.995 122.58 21.2246C122.581 20.6865 122.539 20.2791 122.481 20.2623C122.426 20.2462 122.177 20.3383 121.928 20.4668ZM103.211 20.4696C103.211 20.5578 103.436 21.0807 103.711 21.6317C103.986 22.1825 104.212 22.6938 104.212 22.7676C104.212 23.0762 104.391 22.8702 104.452 22.4919C104.565 21.7947 104.183 20.9953 103.511 20.5212C103.256 20.3411 103.211 20.3333 103.211 20.4696ZM108.52 20.6776C107.843 21.2822 107.554 22.1312 107.812 22.7532L107.894 22.9516L107.966 22.7532C108.005 22.644 108.263 22.1019 108.539 21.5484C108.815 20.9949 109.021 20.4849 108.998 20.4153C108.97 20.3332 108.802 20.4253 108.52 20.6776ZM99.2984 20.6524C98.6878 20.9723 98.4611 21.3778 98.6021 21.8969L98.7099 22.2933L99.2013 21.8062C99.5727 21.4381 99.7921 21.3035 100.1 21.2547C100.324 21.2192 100.508 21.1666 100.508 21.1378C100.508 21.008 99.9835 20.4218 99.8676 20.4218C99.7965 20.4218 99.5404 20.5256 99.2984 20.6524ZM111.978 20.7281C111.713 21.0398 111.714 21.2155 111.98 21.2155C112.263 21.2155 112.914 21.6137 113.188 21.9552C113.505 22.3476 113.618 22.2755 113.62 21.6802C113.622 21.1962 113.503 20.9828 113.097 20.7411C112.505 20.388 112.269 20.3852 111.978 20.7281ZM102.31 20.7234C102.31 20.8744 102.265 20.9219 102.159 20.882C101.901 20.7838 101.994 20.9353 102.405 21.2841C102.623 21.4688 102.948 21.845 103.128 22.1204C103.435 22.5893 103.462 22.6074 103.552 22.4061C103.621 22.2532 103.609 22.1294 103.51 21.9762C103.433 21.8579 103.238 21.5156 103.074 21.2155C102.911 20.9154 102.774 20.6642 102.769 20.6574C102.764 20.6505 102.659 20.614 102.535 20.5763C102.349 20.5197 102.31 20.5455 102.31 20.7234ZM104.286 20.8255C104.604 21.3223 105.089 21.783 105.411 21.8944C105.67 21.9838 105.713 21.9747 105.713 21.8304C105.712 21.5639 105.279 20.9255 104.957 20.7148C104.795 20.6089 104.534 20.522 104.377 20.5217L104.092 20.521L104.286 20.8255ZM107.244 20.716C106.931 20.9049 106.514 21.5538 106.514 21.8512C106.514 21.972 106.568 21.9801 106.814 21.8953C107.14 21.7825 108.016 20.8821 108.016 20.6591C108.016 20.4602 107.619 20.4894 107.244 20.716ZM109.518 20.6451C109.304 20.8927 108.616 22.1008 108.618 22.2269C108.619 22.2981 108.657 22.4157 108.704 22.4883C108.765 22.5842 108.858 22.5014 109.046 22.1849C109.187 21.9455 109.509 21.5616 109.76 21.3318C110.237 20.8967 110.313 20.7889 110.081 20.877C110 20.9079 109.922 20.8461 109.89 20.7251C109.829 20.4943 109.677 20.4614 109.518 20.6451ZM100.971 21.0937C101.962 21.9999 102.41 22.3317 102.41 22.1599C102.41 21.7047 101.898 21.1367 101.208 20.827C100.493 20.5054 100.418 20.5886 100.971 21.0937ZM111.019 20.827C110.326 21.1384 109.818 21.7048 109.818 22.1659C109.818 22.2898 109.934 22.2337 110.271 21.9476C111.825 20.6265 111.979 20.3956 111.019 20.827ZM100.754 21.7422C101.217 22.0207 101.502 22.4029 101.665 22.9617C101.758 23.2835 101.927 23.7254 102.04 23.9436L102.245 24.3404L102.39 23.6748L102.536 23.0092L101.827 22.3107C101.278 21.7697 101.055 21.6136 100.838 21.6182C100.577 21.6235 100.572 21.6322 100.754 21.7422ZM110.384 22.3315L109.654 23.0508L109.824 23.6956L109.993 24.3404L110.204 23.894C110.32 23.6485 110.486 23.1926 110.573 22.881C110.724 22.3388 110.919 22.0946 111.481 21.7422C111.654 21.6339 111.646 21.6235 111.392 21.6182C111.177 21.6136 110.949 21.7754 110.384 22.3315ZM105.667 22.4163C105.428 22.6243 105.313 22.81 105.313 22.9889C105.313 23.2376 105.979 24.4893 106.111 24.4893C106.24 24.4893 106.915 23.2192 106.915 22.9779C106.915 22.7345 106.338 22.1083 106.114 22.1083C106.062 22.1083 105.861 22.2469 105.667 22.4163ZM92.6993 22.7397C92.6993 24.0956 93.1068 25.1004 94.0487 26.0672C94.4077 26.4358 94.7015 26.7646 94.7015 26.7982C94.7015 26.8316 94.4874 26.7633 94.226 26.6464C93.7137 26.4173 92.5919 26.3424 92.4073 26.5248C92.1604 26.7689 93.1932 28.2411 93.6288 28.266C93.8521 28.2788 93.3541 28.4434 93.0707 28.4505C92.7412 28.4587 91.9986 28.813 91.9986 28.962C91.9986 29.2951 92.8917 30.0424 93.2946 30.0462C93.3802 30.0471 93.5148 30.0883 93.5938 30.1379C93.71 30.2107 93.6661 30.3064 93.3641 30.6376C92.9618 31.0789 92.7606 31.488 92.8423 31.6987C92.9133 31.8823 93.9108 31.8703 94.3697 31.6803C94.569 31.5978 94.748 31.5459 94.7673 31.5651C94.7867 31.5841 94.73 31.7436 94.6415 31.9195C94.3017 32.5944 94.3912 33.7183 94.7844 33.7131C95.1122 33.7089 95.8318 33.3119 96.1649 32.9515L96.5034 32.5853V32.9055C96.5034 33.2661 96.7236 33.853 96.8994 33.9607C97.0331 34.0425 97.7872 33.5787 97.8705 33.3635C97.9523 33.152 98.1005 33.1868 98.3255 33.4701C98.4906 33.6782 99.1795 34.1121 99.3447 34.1121C99.4603 34.1121 99.6238 33.3624 99.5743 33.0598C99.5211 32.7352 99.5306 32.7233 99.8442 32.7233C100.023 32.7233 100.256 32.6604 100.362 32.5834C100.541 32.4537 100.543 32.4303 100.393 32.261C100.303 32.1606 100.115 31.85 99.9736 31.5708L99.7169 31.0633L99.1864 31.205C98.4418 31.4041 97.2681 31.3316 96.682 31.0505C95.8594 30.6558 95.8531 30.1903 96.6458 28.3786C97.1174 27.3009 97.1532 27.0088 96.8792 26.4704C96.7141 26.1461 96.4115 25.8461 95.7526 25.3536C94.5913 24.4858 93.6968 23.6059 93.1842 22.8276C92.9597 22.4866 92.7587 22.2075 92.7377 22.2075C92.7165 22.2075 92.6993 22.447 92.6993 22.7397ZM119.138 22.6556C118.78 23.3235 117.826 24.3028 116.645 25.2151C114.908 26.5559 114.87 26.677 115.613 28.4988C116.236 30.0285 116.278 30.4943 115.825 30.8719C115.299 31.3109 114.088 31.4306 112.752 31.1761C112.456 31.1198 112.42 31.143 112.279 31.4786C112.194 31.6785 112.027 31.9795 111.906 32.1477C111.693 32.4437 111.692 32.4579 111.872 32.5884C111.975 32.6626 112.179 32.7233 112.327 32.7233C112.585 32.7233 112.598 32.7492 112.64 33.32C112.664 33.6482 112.732 33.9643 112.79 34.0225C112.938 34.1682 113.639 33.8053 113.904 33.446L114.108 33.1697L114.441 33.4802C114.623 33.651 114.883 33.8467 115.017 33.915C115.231 34.0245 115.282 34.013 115.44 33.8197C115.538 33.6988 115.649 33.3776 115.685 33.1059L115.751 32.6119L116.035 32.9528C116.328 33.3046 117.074 33.7153 117.42 33.7153C117.562 33.7153 117.646 33.6119 117.721 33.3433C117.88 32.7774 117.849 32.5674 117.482 31.7157C117.418 31.5662 117.446 31.5635 117.794 31.6865C118.236 31.8427 119.288 31.8754 119.375 31.7356C119.475 31.5758 119.137 30.9079 118.766 30.5305L118.415 30.173L118.872 30.0461C119.353 29.9128 120.229 29.2352 120.229 28.9966C120.229 28.8069 119.578 28.4979 119.003 28.4148L118.527 28.3461L118.953 28.0284C119.369 27.7174 119.828 26.9976 119.828 26.6568C119.828 26.2856 118.585 26.3331 117.801 26.7344C117.356 26.9621 117.482 26.7267 118.167 26.0478C118.911 25.3105 119.188 24.823 119.384 23.9083C119.535 23.1992 119.576 22.2075 119.453 22.2075C119.411 22.2075 119.27 22.4092 119.138 22.6556ZM103.293 23.3224C103.111 23.5764 103.053 23.8061 103.026 24.39C103.007 24.7993 103.033 25.2903 103.083 25.4813L103.174 25.8285L103.546 25.2737C104.011 24.5813 104.094 24.136 103.867 23.5469C103.772 23.3025 103.657 23.0792 103.611 23.0507C103.564 23.0221 103.421 23.1444 103.293 23.3224ZM108.377 23.4C108.079 24.1379 108.219 24.7661 108.851 25.5296L109.096 25.8259L109.169 25.1534C109.209 24.7835 109.211 24.2951 109.175 24.068C109.107 23.6513 108.769 23.0012 108.619 23.0012C108.575 23.0012 108.466 23.1806 108.377 23.4ZM104.435 24.0205C104.013 25.2048 103.933 25.8377 104.152 26.2572C104.243 26.4307 104.355 26.5726 104.402 26.5726C104.45 26.5726 104.723 26.2712 105.01 25.9029C105.488 25.291 105.529 25.1976 105.486 24.8196C105.447 24.4756 104.892 23.1 104.793 23.1006C104.776 23.1007 104.615 23.5147 104.435 24.0205ZM107.024 23.8374C106.695 24.6198 106.641 25.0606 106.831 25.4134C106.986 25.7035 107.728 26.5726 107.82 26.5726C108.005 26.5726 108.218 25.8743 108.159 25.462C108.085 24.9435 107.532 23.2216 107.417 23.1509C107.371 23.123 107.194 23.4319 107.024 23.8374ZM77.8834 23.3258C77.8834 23.5937 78.8656 24.5605 79.6675 25.0819C80.8316 25.8389 82.1429 26.2943 85.5099 27.1106C87.1791 27.5153 88.675 27.8959 88.8341 27.9563C89.2298 28.1067 89.267 28.0246 88.9647 27.6686C88.824 27.5028 88.6814 27.2815 88.6478 27.1766C88.6003 27.0283 88.4263 26.9596 87.865 26.8671C86.2555 26.6021 83.1891 25.5467 83.1891 25.2577C83.1891 24.9697 85.6056 25.5379 87.8655 26.3572L88.6878 26.6553L89.1594 26.4779C89.6026 26.3112 89.618 26.2936 89.4148 26.1859C89.0737 26.0049 86.1679 24.947 84.7908 24.5023C82.2755 23.6902 80.7024 23.351 78.921 23.2368C78.0173 23.179 77.8834 23.1905 77.8834 23.3258ZM132.292 23.3137C131.344 23.4178 129.121 23.9463 127.614 24.4252C126.23 24.8651 122.631 26.1978 122.631 26.2704C122.631 26.301 122.835 26.3989 123.085 26.4876C123.534 26.6478 123.546 26.6463 124.421 26.3238C126.179 25.6761 128.098 25.1799 128.822 25.1859L129.088 25.1881L128.838 25.383C128.296 25.8055 126.097 26.5411 124.517 26.8289C123.814 26.9569 123.627 27.0275 123.577 27.184C123.543 27.2914 123.372 27.5405 123.198 27.7375C122.888 28.0889 122.886 28.0944 123.132 28.0216C123.27 27.9809 124.869 27.5744 126.686 27.1184C130.881 26.0655 131.939 25.6535 133.283 24.5505C133.755 24.1634 134.344 23.46 134.344 23.2839C134.344 23.1808 133.371 23.1949 132.292 23.3137ZM88.3947 23.7059C88.3947 23.7661 88.5633 24.1344 88.7694 24.5244C89.1722 25.2865 89.7707 25.952 90.311 26.2387C90.7782 26.4866 91.8059 26.472 92.3971 26.209L92.8457 26.0095L91.9466 25.3553C91.0079 24.6723 89.9365 24.0986 89.0092 23.7825C88.3668 23.5635 88.3947 23.5669 88.3947 23.7059ZM123.182 23.7825C121.919 24.2341 121.147 24.6611 120.039 25.5204L119.399 26.0169L119.839 26.2131C120.135 26.345 120.499 26.41 120.95 26.4111C121.568 26.4125 121.668 26.3817 122.184 26.0295C122.769 25.6297 123.124 25.1913 123.569 24.3189C123.974 23.5234 123.961 23.5041 123.182 23.7825ZM105.777 25.6776C105.632 25.8947 105.513 26.2005 105.513 26.3574C105.513 26.6506 105.872 27.2717 106.081 27.3395C106.254 27.3958 106.714 26.6712 106.714 26.3422C106.714 26.0862 106.253 25.2902 106.102 25.285C106.068 25.2839 105.922 25.4605 105.777 25.6776ZM103.061 26.5902C102.636 27.2258 101.908 27.9581 101.49 28.1693C100.76 28.5382 100.28 28.3954 99.7915 27.6638L99.6259 27.4158L99.5162 27.6951C99.2437 28.3887 99.4952 29.2227 100.097 29.6211C100.539 29.9139 100.89 29.9057 101.37 29.5915C102.11 29.1069 102.784 28.1399 103.165 27.0162C103.307 26.5969 103.404 26.2354 103.381 26.2127C103.359 26.1902 103.214 26.3601 103.061 26.5902ZM108.884 26.5227C109.229 28.0624 110.641 29.8472 111.514 29.8459C111.833 29.8455 112.36 29.534 112.564 29.2246C112.799 28.8702 112.865 28.1663 112.701 27.7686L112.561 27.4281L112.325 27.7692C112.195 27.9568 112.02 28.1661 111.935 28.2342C111.724 28.4051 111.166 28.3896 110.767 28.2019C110.453 28.0542 109.702 27.3208 109.092 26.5655L108.818 26.2253L108.884 26.5227ZM103.527 27.0359C103.413 27.4086 103.16 27.9755 102.965 28.2959C102.77 28.6162 102.61 28.9287 102.61 28.9903C102.611 29.0519 102.706 29.2569 102.822 29.4457L103.033 29.7893L103.219 29.4457C103.321 29.2569 103.546 28.7456 103.718 28.3098C103.965 27.6877 104.022 27.4145 103.986 27.0391C103.911 26.2701 103.763 26.2691 103.527 27.0359ZM108.333 26.5412C108.053 27.0588 108.37 28.4055 109.023 29.4808L109.193 29.7599L109.405 29.4194C109.522 29.2322 109.617 29.0462 109.617 29.0064C109.617 28.9665 109.456 28.6741 109.258 28.3568C109.06 28.0393 108.798 27.4522 108.674 27.0521C108.47 26.3902 108.44 26.3441 108.333 26.5412ZM89.2206 26.7675C88.7152 26.9836 89.1496 27.6886 90.0191 28.0632C90.6541 28.3368 91.8964 28.4398 92.4352 28.2636L92.7981 28.1449L92.5576 27.83C92.4253 27.6568 92.2544 27.3612 92.1778 27.1732C92.0443 26.8459 92.0157 26.831 91.4929 26.8163C91.1929 26.8079 90.6096 26.7718 90.1966 26.7361C89.7712 26.6993 89.3482 26.7129 89.2206 26.7675ZM121.38 26.7876C121.16 26.8404 120.81 26.8623 120.602 26.8363C120.242 26.7914 120.213 26.8091 120.013 27.2017C119.897 27.4286 119.718 27.7334 119.614 27.879L119.426 28.1438L119.794 28.2641C120.379 28.4557 121.633 28.3298 122.284 28.0139C122.827 27.7507 123.232 27.3285 123.232 27.026C123.232 26.6976 122.272 26.5739 121.38 26.7876ZM104.731 27.1121C104.138 27.7812 103.927 28.4067 104.151 28.8304C104.311 29.1325 104.984 29.8086 105.055 29.7382C105.08 29.7135 105.027 29.4741 104.939 29.2064C104.787 28.7509 104.788 28.6903 104.956 28.2661C105.183 27.6928 105.259 27.1332 105.139 26.9208C105.059 26.7784 105.004 26.8042 104.731 27.1121ZM107.065 26.8703C106.942 27.0669 106.997 27.5976 107.196 28.1453C107.385 28.6636 107.381 28.8836 107.171 29.5324C107.103 29.7415 107.116 29.7537 107.298 29.6571C107.409 29.5982 107.638 29.3833 107.808 29.1796C108.225 28.6784 108.228 28.1628 107.818 27.5492C107.428 26.9669 107.157 26.7222 107.065 26.8703ZM105.416 28.1742C105.237 28.5872 105.222 28.718 105.314 29.0581C105.374 29.2777 105.55 29.599 105.707 29.7721C105.963 30.0562 106.016 30.0756 106.247 29.9712C106.565 29.8278 106.808 29.4708 106.921 28.9806C106.992 28.677 106.966 28.5227 106.786 28.1641C106.573 27.7401 106.545 27.7213 106.095 27.7058L105.627 27.6896L105.416 28.1742ZM89.6961 28.6576C88.9939 28.7982 88.1945 29.2999 88.1945 29.5998C88.1945 29.8334 89.2809 30.2824 89.9481 30.3245C90.6208 30.367 91.756 30.128 91.993 29.8939C92.1189 29.7695 92.1108 29.7222 91.9304 29.526C91.8165 29.4021 91.6744 29.2066 91.6147 29.0915C91.4524 28.7787 90.3432 28.5279 89.6961 28.6576ZM121.78 28.637C121.04 28.7132 120.729 28.8594 120.482 29.2469C120.347 29.4583 120.187 29.662 120.125 29.6995C119.815 29.8896 121.195 30.3424 122.084 30.3424C122.698 30.3424 123.373 30.1291 123.782 29.8056L124.082 29.5684L123.882 29.3496C123.455 28.8811 122.512 28.5617 121.78 28.637ZM103.572 29.6717C102.92 30.7795 102.952 31.1588 103.779 32.115L104.068 32.449L104.451 31.8173C104.992 30.9271 104.97 30.3145 104.374 29.6636C103.958 29.2086 103.844 29.2098 103.572 29.6717ZM107.964 29.5631C107.224 30.2071 107.123 30.9192 107.665 31.6746C107.858 31.9432 108.016 32.2221 108.016 32.2943C108.016 32.5557 108.208 32.4142 108.658 31.8206C109.201 31.1043 109.221 30.9008 108.823 30.0943C108.368 29.1712 108.395 29.188 107.964 29.5631ZM99.9412 30.5123C100.021 31.0029 100.491 31.9296 100.66 31.9296C100.93 31.9296 101.108 31.5065 101.108 30.864C101.108 30.2555 101.102 30.2409 100.87 30.2987C100.739 30.3313 100.463 30.312 100.257 30.2557L99.8823 30.1532L99.9412 30.5123ZM111.87 30.253C111.705 30.3036 111.471 30.3219 111.351 30.2938C111.191 30.2563 111.115 30.2983 111.066 30.4512C110.955 30.7963 111.117 31.5189 111.368 31.8075L111.605 32.0784L111.91 31.4336C112.237 30.7438 112.401 30.1385 112.258 30.1525C112.21 30.1571 112.035 30.2024 111.87 30.253ZM91.4516 30.4517C90.1695 30.639 89.3593 31.1229 89.1017 31.8553C89.0078 32.1225 89.0233 32.1498 89.3455 32.2832C89.5348 32.3616 89.8693 32.4257 90.0887 32.4257C90.5734 32.4257 91.6676 32.0455 92.0614 31.7403C92.3082 31.549 93.0412 30.5406 92.9732 30.4859C92.8686 30.402 91.9354 30.381 91.4516 30.4517ZM105.763 30.5057C105.387 30.7006 105.213 30.9157 105.213 31.1852C105.213 31.3822 106.005 32.7297 106.113 32.7177C106.177 32.7109 106.887 31.6211 106.973 31.3992C107.097 31.0782 106.92 30.7461 106.517 30.542C106.054 30.3083 106.137 30.3123 105.763 30.5057ZM119.553 30.418C119.374 30.4379 119.229 30.4848 119.231 30.5222C119.232 30.5597 119.401 30.8355 119.606 31.1351C119.902 31.5683 120.112 31.7464 120.629 32.0046C121.445 32.4116 122.306 32.5215 122.865 32.29L123.249 32.1312L123.015 31.7168C122.887 31.489 122.624 31.1775 122.431 31.0246C121.923 30.6211 120.474 30.3158 119.553 30.418ZM87.4437 31.888C85.0796 32.2983 84.5258 32.4414 83.6396 32.8714C83.1441 33.1118 82.5174 33.4989 82.2471 33.7316C81.7524 34.1575 80.8867 35.2363 80.8867 35.427C80.8867 35.4943 81.2393 35.5116 81.9128 35.4775C83.0935 35.4177 84.1449 35.1108 85.7583 34.3547C86.2999 34.1009 87.3828 33.6363 88.1649 33.3222C89.4843 32.7921 89.5687 32.7428 89.3364 32.6379C88.9805 32.4773 88.8999 32.4894 88.0354 32.8323C86.676 33.3718 84.5529 33.8182 84.7349 33.5263C84.9026 33.2574 87.4145 32.1595 88.2685 31.9818C88.4468 31.9447 88.6183 31.8732 88.6498 31.8228C88.7249 31.7024 88.4178 31.7189 87.4437 31.888ZM123.443 31.7754C123.468 31.7996 123.915 31.9598 124.436 32.1313C125.459 32.4675 127.062 33.1907 127.386 33.462C127.755 33.7703 126.33 33.5577 125.034 33.1111C123.244 32.4944 123.22 32.489 122.882 32.6209C122.586 32.7361 122.601 32.7456 123.783 33.2165C124.443 33.4797 125.589 33.968 126.328 34.3016C128.096 35.0996 129.088 35.4031 130.155 35.4726C131.321 35.5487 131.4 35.5127 131.116 35.0353C130.519 34.0329 129.125 32.983 127.777 32.52C126.959 32.2393 123.272 31.6056 123.443 31.7754ZM101.018 32.0678L100.793 32.3052L101.135 32.5639C101.494 32.835 101.709 32.8932 101.709 32.7193C101.709 32.6112 101.327 31.8304 101.274 31.8304C101.257 31.8304 101.142 31.9373 101.018 32.0678ZM102.511 32.5026C102.246 32.8889 102.075 33.242 102.095 33.3613C102.181 33.8596 102.986 35.1042 103.224 35.1042C103.402 35.1042 103.911 33.8793 103.911 33.4514C103.911 33.1188 103.831 32.9359 103.496 32.509C103.268 32.2176 103.054 31.9494 103.021 31.913C102.988 31.8765 102.758 32.1418 102.511 32.5026ZM110.673 32.3169C110.378 32.894 110.496 32.9913 111.023 32.6054C111.37 32.3516 111.391 32.2229 111.126 31.9851C110.938 31.8168 110.924 31.8272 110.673 32.3169ZM91.6482 32.4032C90.5703 32.9987 90.5065 33.1031 91.0225 33.4255C91.6398 33.811 92.926 33.5265 93.7305 32.8266C93.9341 32.6493 94.1008 32.4196 94.1008 32.3161C94.1008 32.1506 94.0221 32.128 93.4435 32.128C93.082 32.128 92.7104 32.0905 92.6176 32.0444C92.4977 31.985 92.2178 32.0886 91.6482 32.4032ZM104.827 32.0613C104.426 32.5395 104.236 33.6417 104.462 34.1782C104.607 34.5216 105.169 35.204 105.307 35.203C105.498 35.2017 105.947 33.5272 105.836 33.2271C105.772 33.0509 105.024 31.9296 104.971 31.9296C104.952 31.9296 104.887 31.9889 104.827 32.0613ZM106.732 32.6027C106.351 33.1887 106.306 33.3166 106.358 33.6657C106.431 34.1617 106.812 35.2034 106.919 35.2034C107.054 35.2034 107.719 34.3797 107.781 34.136C107.939 33.5134 107.589 32.061 107.258 31.964C107.207 31.9489 106.97 32.2363 106.732 32.6027ZM108.8 32.4009C108.287 33.0763 108.21 33.2606 108.282 33.6328C108.36 34.0408 108.887 35.1042 109.01 35.1042C109.261 35.1042 110.111 33.709 110.116 33.2888C110.118 33.1139 109.336 31.9296 109.218 31.9296C109.185 31.9296 108.997 32.1416 108.8 32.4009ZM119.528 32.0288C119.445 32.0817 119.074 32.1257 118.702 32.1266C118.321 32.1274 118.026 32.1711 118.026 32.227C118.026 32.2814 118.185 32.4993 118.378 32.7112C119.024 33.4199 120.36 33.7992 121.056 33.4717C121.729 33.1555 121.635 32.9836 120.437 32.331C120.032 32.1103 119.696 31.9303 119.689 31.9311C119.683 31.932 119.611 31.976 119.528 32.0288ZM100.346 32.928C99.9684 33.1003 99.9293 33.1539 99.8827 33.5631C99.8547 33.809 99.7596 34.1195 99.6712 34.2531C99.5318 34.4638 99.4696 34.4846 99.2035 34.409L98.8967 34.3218L99.0956 34.6407C99.205 34.8161 99.3894 35.3158 99.5054 35.7512C99.7855 36.8024 100.003 37.3859 100.116 37.3859C100.166 37.3859 100.207 37.3391 100.207 37.2819C100.207 37.2246 100.5 36.5638 100.858 35.8133C101.424 34.6266 101.509 34.3745 101.509 33.8781C101.509 33.3617 101.478 33.2795 101.186 33.0153C100.814 32.6788 100.878 32.6854 100.346 32.928ZM111.037 33.002C110.737 33.2482 110.703 33.3304 110.691 33.8278C110.68 34.3147 110.761 34.5586 111.372 35.8831C111.754 36.7096 112.098 37.3859 112.135 37.3859C112.215 37.3859 112.439 36.7276 112.674 35.8046C112.763 35.4532 112.923 34.9974 113.029 34.7917C113.275 34.3132 113.272 34.2963 112.965 34.4122C112.823 34.4654 112.689 34.509 112.666 34.509C112.566 34.509 112.32 33.7625 112.32 33.4599C112.32 33.1623 112.274 33.1092 111.857 32.9264C111.602 32.8146 111.388 32.7245 111.382 32.726C111.375 32.7274 111.22 32.8517 111.037 33.002ZM88.5818 33.5623C86.1614 34.5272 85.6164 34.8146 84.9628 35.4706C84.2656 36.1704 84.0783 36.4326 83.6298 37.3363L83.2852 38.0308L83.6973 38.0617C84.2486 38.1032 84.9846 37.9377 85.6621 37.6201C86.2403 37.349 86.914 36.8135 88.6957 35.2085C89.2743 34.6873 89.9417 34.098 90.1788 33.8988C90.7753 33.3978 90.5337 33.3246 89.9061 33.8162C89.1091 34.4406 87.757 35.2867 87.0456 35.6064C86.2705 35.9546 86.2536 35.9567 86.4003 35.6851C86.8019 34.9415 88.0609 34.022 89.5209 33.4058C89.9477 33.2258 90.2967 33.0431 90.2967 33.0001C90.2967 32.8812 90.2602 32.8932 88.5818 33.5623ZM121.934 32.9855C121.936 33.0322 122.528 33.3549 123.25 33.7026C124.341 34.2285 124.668 34.4407 125.198 34.9656C125.99 35.7501 126.041 35.9778 125.359 35.6896C124.553 35.3487 123.704 34.844 122.691 34.104C121.622 33.3232 121.279 33.2539 122.133 33.9912C122.431 34.2487 123.239 34.9679 123.929 35.5894C125.518 37.0203 126.195 37.5179 126.913 37.7844C127.628 38.0495 128.838 38.1712 128.838 37.9782C128.838 37.9061 128.671 37.509 128.468 37.0957C128.196 36.5436 127.897 36.1463 127.342 35.5975C126.417 34.6846 126.236 34.5939 122.056 32.9497C121.987 32.9226 121.932 32.9388 121.934 32.9855ZM93.3491 33.4022C92.5768 33.7643 92.0987 34.2883 92.0987 34.7728V35.1288L92.6528 35.0833C93.2452 35.0346 93.8571 34.6931 94.2189 34.2094C94.3992 33.9682 94.3996 33.9444 94.2284 33.5407C94.1307 33.3105 94.0282 33.1217 94.0007 33.1212C93.9732 33.1207 93.68 33.2472 93.3491 33.4022ZM117.999 33.5418C117.828 33.9438 117.828 33.9686 118.006 34.2094C118.108 34.3469 118.41 34.6066 118.678 34.7864C119.082 35.0584 119.242 35.1086 119.622 35.0841L120.079 35.0546L120.067 34.6767C120.052 34.2248 119.736 33.857 119.045 33.4903C118.249 33.0677 118.2 33.0702 117.999 33.5418ZM97.9136 33.8537C97.8132 33.9737 97.7906 34.3049 97.8225 35.1909C97.8614 36.2738 97.8909 36.4211 98.1884 37.02C98.5539 37.7557 98.9332 38.1202 99.5118 38.2921C99.9948 38.4354 100.066 38.3815 99.8758 38.0152C99.7954 37.86 99.5629 37.1528 99.3589 36.4435C98.9906 35.1627 98.7033 34.51 98.2719 33.9739C98.0696 33.7225 98.0336 33.7104 97.9136 33.8537ZM113.892 34.0329C113.483 34.5731 113.25 35.1125 112.87 36.3987C112.67 37.0715 112.442 37.7766 112.362 37.9656C112.283 38.1546 112.24 38.3318 112.268 38.3595C112.39 38.4799 113.153 38.1417 113.471 37.8265C114.149 37.1542 114.42 36.3197 114.421 34.8931C114.423 33.7321 114.287 33.5113 113.892 34.0329ZM96.2012 34.6623C95.9312 35.3218 95.9634 36.1308 96.2848 36.7549C96.5695 37.3078 96.7561 37.4492 96.9702 37.274C97.4306 36.8974 97.6463 35.7064 97.4459 34.6478C97.3928 34.3671 97.3387 34.3044 97.1669 34.3248C97.0498 34.3387 96.8555 34.2966 96.7352 34.2311C96.6149 34.1657 96.4963 34.1121 96.4716 34.1121C96.4468 34.1121 96.3251 34.3598 96.2012 34.6623ZM115.474 34.2114C115.44 34.2659 115.281 34.3106 115.122 34.3106C114.868 34.3106 114.824 34.3552 114.764 34.6699C114.616 35.4519 114.671 36.3282 114.894 36.7477C115.012 36.9697 115.185 37.2138 115.278 37.2904C115.428 37.4135 115.475 37.3954 115.687 37.135C115.96 36.7997 116.225 36.0163 116.225 35.5414C116.225 35.3652 116.128 34.9716 116.01 34.6666C115.809 34.1463 115.616 33.9825 115.474 34.2114ZM101.927 34.9384C101.818 35.1836 101.697 35.4818 101.659 35.6011C101.537 35.9793 101.706 36.6579 102.032 37.1035L102.345 37.5319L102.627 36.9381C103.037 36.0771 102.982 35.6129 102.379 34.8233L102.126 34.4927L101.927 34.9384ZM109.687 35.0572C109.231 35.7798 109.205 36.232 109.578 36.973C109.882 37.5774 109.965 37.5552 110.363 36.763C110.689 36.1152 110.684 35.7894 110.338 35.0604L110.057 34.4708L109.687 35.0572ZM103.682 35.1676C103.198 35.8968 103.171 36.4712 103.594 37.0486C104.116 37.7597 104.16 37.7657 104.505 37.1698C104.954 36.3938 104.949 35.9001 104.484 35.129C104.311 34.8426 104.143 34.6082 104.112 34.6082C104.08 34.6082 103.887 34.86 103.682 35.1676ZM107.73 35.108C107.294 35.8628 107.252 36.1746 107.511 36.7558C107.87 37.5613 108.002 37.7188 108.19 37.5662C108.508 37.307 108.917 36.552 108.917 36.2224C108.917 35.8004 108.717 35.3452 108.341 34.9096L108.044 34.5661L107.73 35.108ZM105.71 35.5258C105.268 36.2166 105.268 36.5944 105.712 37.3191C105.901 37.6287 106.082 37.8819 106.114 37.8819C106.264 37.8819 106.854 36.7346 106.854 36.4435C106.854 36.1457 106.262 35.005 106.107 35.005C106.072 35.005 105.894 35.2394 105.71 35.5258ZM95.3286 35.8234C95.2747 35.8917 95.1763 36.3046 95.11 36.7411C94.948 37.8071 94.6467 38.8974 94.3744 39.4021L94.1509 39.8164L94.1217 39.1693C94.0991 38.6656 94.1686 38.2638 94.4355 37.3545C94.6337 36.679 94.7304 36.2018 94.6647 36.2226C94.4788 36.2815 93.9198 37.187 93.6008 37.946C93.0357 39.2906 92.8768 40.2786 93.1006 41.0565C93.2828 41.6896 93.3292 41.7096 93.8277 41.3697C94.8927 40.6436 95.2709 39.8457 95.4885 37.8659C95.7191 35.7695 95.7217 35.6994 95.5696 35.6994C95.491 35.6994 95.3826 35.7553 95.3286 35.8234ZM116.571 36.5085C116.822 39.5496 117.254 40.6697 118.465 41.4273C118.905 41.7029 118.952 41.6741 119.139 41.0069C119.283 40.4944 119.193 39.4745 118.94 38.7543C118.539 37.6138 117.644 36.0387 117.489 36.201C117.466 36.2252 117.583 36.6692 117.749 37.1875C118.114 38.3297 118.265 39.9283 117.983 39.6602C117.724 39.4147 117.337 38.1856 117.165 37.068C116.991 35.9283 116.931 35.7641 116.678 35.7148C116.517 35.6836 116.508 35.752 116.571 36.5085ZM50.1516 36.7163C50.1504 36.8391 50.2697 40.1024 50.4166 43.9682C50.6345 49.7027 50.6598 51.0115 50.5538 51.0764C50.4824 51.1202 49.9762 51.1539 49.4292 51.1514C48.5132 51.1473 48.4279 51.1303 48.3508 50.9379C48.3049 50.8231 48.2174 48.9656 48.1566 46.8104C48.0445 42.8382 47.9939 42.0121 47.8666 42.0674C47.8276 42.0844 47.1113 42.8124 46.2747 43.6854L44.7534 45.2727L44.7507 48.1128C44.7486 50.2619 44.7175 50.9773 44.6228 51.054C44.4933 51.1588 42.8298 51.2071 42.5206 51.115C42.3559 51.066 42.3454 50.644 42.3454 44.0724V37.0821L43.5216 37.1099L44.6979 37.1379L44.7479 39.5012L44.798 41.8643L45.5011 41.1381C45.8878 40.7386 47.0556 39.53 48.0962 38.4524C49.1369 37.3747 50.0256 36.4931 50.071 36.4931C50.1165 36.4931 50.1527 36.5935 50.1516 36.7163ZM61.1071 37.5099C61.1406 38.0691 61.2153 39.8437 61.273 41.4533C61.3308 43.0629 61.437 45.8754 61.5091 47.7033C61.5812 49.5311 61.6198 51.0489 61.5949 51.0762C61.5101 51.1692 59.375 51.1747 59.3173 51.0822C59.2566 50.985 59.1209 48.0009 59.0038 44.1876L58.9339 41.912L57.3013 43.5924L55.6686 45.2727L55.6641 48.1639C55.6605 50.4993 55.6336 51.0649 55.5242 51.1065C55.4497 51.1349 54.9317 51.1587 54.373 51.1596L53.3572 51.1611L53.3436 50.7467C53.2995 49.4021 53.2789 37.5881 53.3202 37.3678C53.3695 37.1048 53.3812 37.1012 54.2897 37.0701C55.8229 37.0177 55.6518 36.7204 55.6829 39.4913L55.7097 41.8808L58.3107 39.1869C59.7413 37.7054 60.942 36.4931 60.9789 36.4931C61.0159 36.4931 61.0735 36.9507 61.1071 37.5099ZM19.7749 37.0827C21.3525 37.8524 22.2718 39.9313 22.4752 43.1894C22.7178 47.0748 21.454 50.4316 19.4718 51.1666C17.7925 51.7892 16.1958 51.0537 15.3166 49.2525C14.3849 47.3436 14.0801 44.0794 14.5723 41.2824C15.2133 37.64 17.3619 35.9055 19.7749 37.0827ZM31.3336 37.9244V39.1573L30.758 39.2229C28.7575 39.4509 27.6948 40.2829 27.0684 42.1115C26.8413 42.7743 26.8005 43.0634 26.7973 44.0327C26.7931 45.3105 26.9463 45.9893 27.4515 46.9331C28.0322 48.0179 29.215 48.8423 30.3498 48.9534C31.4261 49.0588 31.3336 48.9284 31.3336 50.3401V51.5843L30.6078 51.5204C29.7067 51.4411 28.5681 51.1486 27.9479 50.8372C25.3281 49.5217 23.9037 46.3975 24.3259 42.8932C24.5576 40.9703 25.1519 39.6416 26.2851 38.5136C27.4366 37.3672 28.9371 36.7809 30.9081 36.7074L31.3336 36.6915V37.9244ZM40.143 37.9244V39.1573L39.5674 39.2229C38.2598 39.3719 37.513 39.7049 36.8054 40.4545C35.5072 41.8299 35.1665 44.4007 36.0067 46.4807C36.5249 47.7637 37.8741 48.8266 39.1428 48.9516C40.2384 49.0594 40.143 48.9269 40.143 50.3401V51.5843L39.4172 51.5204C37.655 51.3653 36.2047 50.7412 35.1439 49.6814C34.3506 48.889 33.9069 48.175 33.5298 47.0843C32.7831 44.9241 32.9323 42.0731 33.896 40.0874C34.3324 39.1885 35.2754 38.1721 36.1523 37.6556C37.0976 37.0988 38.442 36.7399 39.7176 36.7036L40.143 36.6915V37.9244ZM10.3335 37.464C11.9207 38.239 12.7255 39.9799 12.728 42.6438C12.7307 45.5233 11.8343 47.3738 10.3065 47.6422C9.89831 47.714 8.99804 47.482 8.80914 47.2565C8.74076 47.1749 8.64526 47.108 8.59701 47.108C8.54866 47.108 8.50912 48.0009 8.50912 49.0921V51.0762H7.35788H6.20665L6.20064 49.0177C6.19183 46.0157 6.19093 37.6812 6.19944 37.3529L6.20665 37.0719L7.9361 37.1049C9.65965 37.1378 9.66796 37.139 10.3335 37.464ZM102.754 37.5336C102.38 38.0202 102.323 38.6671 102.6 39.302C102.715 39.5647 102.843 39.7586 102.885 39.733C102.926 39.7074 103.118 39.3943 103.311 39.0373L103.661 38.3882L103.461 37.8194C103.351 37.5066 103.208 37.234 103.145 37.2138C103.081 37.1936 102.905 37.3375 102.754 37.5336ZM108.814 37.6091C108.556 38.1712 108.567 38.3902 108.884 39.0311C109.267 39.8073 109.372 39.864 109.573 39.4031C109.925 38.5954 109.849 37.9375 109.34 37.3611C109.112 37.1038 109.027 37.1438 108.814 37.6091ZM104.547 37.7581C103.904 38.7171 103.871 38.9794 104.28 39.9033C104.428 40.2375 104.563 40.5292 104.58 40.5517C104.658 40.6545 105.04 40.1771 105.313 39.6365C105.648 38.9706 105.687 38.5459 105.459 38.0063C105.308 37.6468 105.039 37.2865 104.922 37.2869C104.889 37.287 104.72 37.499 104.547 37.7581ZM107.039 37.5099C106.595 37.9792 106.49 38.7523 106.776 39.4323C106.957 39.8631 107.426 40.5551 107.539 40.5584C107.663 40.562 108.107 39.6076 108.174 39.1947C108.218 38.9211 108.185 38.7041 108.065 38.4674C107.811 37.9688 107.374 37.2871 107.307 37.2869C107.276 37.2868 107.155 37.3871 107.039 37.5099ZM18.0479 39.0906C17.067 39.3493 16.5618 41.2734 16.6407 44.451C16.6995 46.8214 16.9868 48.0548 17.6462 48.7682C18.058 49.2136 18.7628 49.1389 19.1973 48.6035C20.1325 47.451 20.4334 42.7185 19.7174 40.4239C19.3918 39.3802 18.7856 38.8961 18.0479 39.0906ZM8.54676 39.3168C8.51582 39.3965 8.50681 40.5238 8.52664 41.8217C8.55977 43.9934 8.58009 44.2192 8.78101 44.6539C8.90114 44.9137 9.06942 45.1529 9.15491 45.1854C9.47425 45.3069 9.80641 45.1238 10.0346 44.7007C10.2412 44.3175 10.2608 44.1503 10.2591 42.7926C10.2563 40.6777 9.90421 39.6637 9.0497 39.3099C8.63495 39.1382 8.61583 39.1384 8.54676 39.3168ZM105.84 39.4955C105.445 40.159 105.282 40.7358 105.351 41.2285C105.42 41.728 105.996 43.3382 106.105 43.3382C106.197 43.3382 106.688 42.0616 106.819 41.4852C106.878 41.2222 106.898 40.8507 106.862 40.6597C106.791 40.2785 106.231 39.1716 106.11 39.1716C106.068 39.1716 105.947 39.3173 105.84 39.4955ZM103.144 39.9405C102.638 40.5661 102.587 40.7109 102.744 41.079C102.82 41.2576 102.98 41.4894 103.098 41.5943C103.312 41.7833 103.316 41.7827 103.605 41.509C104.018 41.1162 104.061 40.8258 103.805 40.1473C103.685 39.8289 103.555 39.5684 103.515 39.5684C103.476 39.5684 103.309 39.7359 103.144 39.9405ZM108.429 40.0777C108.312 40.3578 108.216 40.6746 108.216 40.7816C108.216 41.0416 108.49 41.4886 108.747 41.6478C108.933 41.7624 108.985 41.7425 109.236 41.4644C109.636 41.0213 109.612 40.6146 109.154 40.0311C108.954 39.7767 108.757 39.5684 108.716 39.5684C108.676 39.5684 108.547 39.7976 108.429 40.0777ZM101.667 41.1074C101.15 41.462 100.285 42.258 100.349 42.3211C100.473 42.4439 102.51 41.6544 102.51 41.4835C102.51 41.3493 102.267 40.7591 102.214 40.7643C102.184 40.7673 101.938 40.9218 101.667 41.1074ZM109.825 41.1244C109.702 41.4603 109.708 41.5032 109.896 41.6539C110.135 41.8456 111.716 42.3825 111.8 42.3C111.89 42.2108 111.221 41.5675 110.599 41.1457C110.285 40.933 110.013 40.7589 109.993 40.7589C109.974 40.7589 109.898 40.9234 109.825 41.1244ZM107.367 41.2053C107.553 42.0204 107.633 42.2354 107.903 42.6571C108.473 43.5491 109.331 43.9235 109.813 43.4912C110.228 43.1187 110.067 42.88 109.04 42.3455C108.695 42.1659 108.162 41.769 107.856 41.4634C107.329 40.9378 107.303 40.9238 107.367 41.2053ZM104.261 41.5548C103.986 41.8321 103.477 42.1979 103.13 42.3678C102.512 42.6701 102.07 43.0734 102.138 43.274C102.156 43.3294 102.334 43.4581 102.532 43.56C102.869 43.7333 102.917 43.735 103.275 43.5865C103.753 43.3889 104.046 43.1197 104.358 42.5922C104.609 42.1665 104.86 41.3478 104.797 41.1589C104.777 41.0995 104.535 41.2776 104.261 41.5548ZM90.7076 41.7406C90.4228 42.0229 90.4426 42.3217 90.7817 42.8514C91.3213 43.6947 92.5375 44.5161 93.0557 44.3872C93.3567 44.3124 93.5492 43.9421 93.4633 43.6031C93.2992 42.9548 91.9425 41.7323 91.2331 41.5935C90.9916 41.5462 90.8692 41.5805 90.7076 41.7406ZM120.679 41.6911C119.805 42.0719 118.727 43.2503 118.727 43.825C118.727 44.2708 119.109 44.4967 119.608 44.346C120.409 44.1033 121.73 42.76 121.73 42.1875C121.73 41.9662 121.308 41.5489 121.091 41.5564C121.03 41.5586 120.844 41.6192 120.679 41.6911ZM109.313 41.9053C109.244 41.9868 109.206 42.0634 109.228 42.0757C109.249 42.088 109.443 42.1874 109.658 42.2966C109.882 42.41 110.127 42.6403 110.23 42.8342C110.33 43.0208 110.469 43.2099 110.54 43.2543C110.733 43.3755 111.197 43.3545 111.281 43.2209C111.377 43.066 110.525 42.3037 109.91 41.9949C109.495 41.7867 109.421 41.7755 109.313 41.9053ZM102.109 42.0943C101.574 42.3738 100.857 43.0771 100.953 43.2301C101.045 43.3779 101.576 43.3668 101.711 43.2142C101.771 43.1461 101.907 42.947 102.011 42.7718C102.116 42.5967 102.385 42.3606 102.61 42.2472C103.007 42.046 103.069 41.8455 102.729 41.8548C102.636 41.8573 102.357 41.9651 102.109 42.0943ZM99.5983 42.8758C98.7193 43.0966 97.8608 43.5543 97.9315 43.7645C97.9533 43.8291 98.1476 43.932 98.3634 43.9932C98.7247 44.0957 98.8114 44.0772 99.4566 43.7607C100.111 43.4396 100.808 42.905 100.808 42.7236C100.808 42.6045 100.549 42.6372 99.5983 42.8758ZM111.625 42.9975C111.815 43.192 112.299 43.5224 112.702 43.7318C113.363 44.0754 113.47 44.1029 113.803 44.0137C114.006 43.9594 114.213 43.8763 114.263 43.829C114.362 43.7358 114.047 43.4291 113.606 43.1897C113.365 43.0584 111.69 42.6438 111.401 42.6438C111.334 42.6438 111.435 42.8029 111.625 42.9975ZM90.1966 42.9888C90.1966 43.1241 90.0146 43.7723 89.7923 44.4292C89.2976 45.8905 89.2116 46.629 89.4353 47.4946C89.6367 48.2738 89.976 48.9043 90.6201 49.6963C90.891 50.0295 91.1919 50.4428 91.2886 50.6148C91.4635 50.9255 91.4701 50.9276 92.3671 50.9558C93.0992 50.9787 93.2949 50.9539 93.4035 50.8241C93.5827 50.6103 93.387 50.4846 92.8713 50.4825C91.4754 50.4769 90.7234 48.9888 91.432 47.634C91.7162 47.0906 92.5413 46.6112 93.1897 46.6126C94.0983 46.6145 94.9798 47.3025 95.2089 48.1885L95.3426 48.7054L95.5304 48.3427C95.6939 48.0267 95.7013 47.94 95.588 47.6687C95.4038 47.2281 94.8357 46.6346 94.3579 46.3839C94.0455 46.2199 93.7759 46.1701 93.1999 46.1701C92.309 46.1701 91.838 46.3745 91.2554 47.0136L90.8762 47.4294L90.9488 47.0951C91.032 46.7125 91.5173 45.6533 91.7253 45.4004C91.8022 45.3069 92.0583 45.1216 92.2944 44.9887L92.7237 44.747L92.2558 44.542C91.7609 44.325 90.5428 43.2407 90.4426 42.928C90.3571 42.6609 90.1966 42.7005 90.1966 42.9888ZM121.831 42.8385C121.831 43.068 120.607 44.2097 120.076 44.476L119.508 44.7607L119.793 44.9052C120.2 45.111 120.42 45.3173 120.703 45.7582C120.943 46.1325 121.364 47.2062 121.297 47.2725C121.279 47.2906 121.06 47.1107 120.809 46.873C120.295 46.3849 119.626 46.116 118.926 46.116C118.322 46.116 117.34 46.5929 116.98 47.0617C116.555 47.6136 116.486 47.9169 116.682 48.362L116.852 48.7449L116.938 48.3697C117.175 47.3315 118.021 46.612 119.005 46.612C119.57 46.612 120.39 47.0542 120.709 47.5308C121.088 48.0987 121.134 49.0773 120.808 49.6284C120.472 50.1978 120.153 50.3894 119.434 50.454C119.021 50.4911 118.791 50.5589 118.754 50.6544C118.661 50.894 118.934 50.9739 119.851 50.9755C120.721 50.977 120.725 50.976 120.88 50.6781C120.966 50.5137 121.271 50.0878 121.558 49.7318C122.577 48.4691 123.013 47.3084 122.893 46.1755C122.859 45.8513 122.651 45.0713 122.431 44.4423C122.211 43.8131 122.031 43.1734 122.031 43.0207C122.031 42.868 121.986 42.743 121.931 42.743C121.876 42.743 121.831 42.7861 121.831 42.8385ZM99.9672 43.782C99.1478 44.1158 99.1104 44.1786 99.5871 44.4196L99.9917 44.6241L100.4 44.141C100.624 43.8753 100.808 43.6306 100.808 43.5973C100.808 43.4855 100.562 43.5396 99.9672 43.782ZM111.402 43.5869C111.368 43.6205 111.437 43.7456 111.555 43.8651C111.673 43.9845 111.842 44.1921 111.93 44.3264C112.084 44.5628 112.103 44.5662 112.51 44.4329C112.742 44.3572 112.955 44.2575 112.983 44.2113C113.08 44.0558 111.542 43.4483 111.402 43.5869ZM104.198 43.7599C104.115 43.8281 103.892 44.0847 103.704 44.3303C103.303 44.8515 103.152 44.9909 102.407 45.5213C101.882 45.8949 101.423 46.4609 101.546 46.5826C101.629 46.665 102.209 46.4185 102.595 46.1372C102.779 46.0027 103.183 45.5857 103.492 45.2106C104.119 44.4508 104.376 44.3322 104.272 44.8511C104.16 45.4142 103.685 46.0318 102.916 46.6145C102.507 46.925 102.089 47.3304 101.989 47.5156L101.806 47.8521L102.05 47.8827C102.346 47.9198 102.98 47.6119 103.449 47.2039C103.906 46.8068 104.391 46.044 104.667 45.2899C104.889 44.6825 104.889 44.6745 104.701 44.3094C104.597 44.107 104.512 43.8726 104.512 43.7886C104.512 43.6036 104.402 43.5935 104.198 43.7599ZM107.715 43.7398C107.715 43.797 107.625 44.0295 107.514 44.2564C107.284 44.7281 107.324 44.9394 107.835 45.9507C108.333 46.9378 109.302 47.7857 110.079 47.9162C110.633 48.0092 110.233 47.3171 109.354 46.6617C108.525 46.0429 108.052 45.4677 107.956 44.9587C107.858 44.4436 107.99 44.4346 108.437 44.9261C109.438 46.0245 109.767 46.3168 110.182 46.4738C110.425 46.5656 110.653 46.6111 110.689 46.5751C110.81 46.4554 110.36 45.9742 109.586 45.395C109.166 45.0804 108.772 44.7305 108.711 44.6174C108.558 44.3349 107.912 43.6358 107.804 43.6358C107.755 43.6358 107.715 43.6827 107.715 43.7398ZM97.5074 44.2772C97.2681 44.5629 97.4635 44.7472 97.9804 44.7234C98.6981 44.6903 98.787 44.7105 98.8548 44.9219C98.9045 45.077 98.9769 45.1049 99.2104 45.0586C99.4529 45.0105 99.5573 45.0575 99.8139 45.3298L100.124 45.659L100.091 45.3699C100.036 44.9005 99.6382 44.693 97.7939 44.1728C97.7053 44.1478 97.5764 44.1948 97.5074 44.2772ZM113.667 44.3703C112.765 44.6544 112.151 44.9973 112.083 45.2542C111.99 45.6061 112.124 45.6311 112.394 45.3125C112.617 45.0505 112.706 45.0124 112.989 45.0579C113.231 45.0968 113.321 45.0742 113.321 44.9747C113.321 44.7581 113.502 44.7007 114.136 44.7149C114.768 44.7291 114.971 44.5775 114.722 44.2794C114.568 44.0953 114.53 44.0985 113.667 44.3703ZM97.5669 45.2514C97.2402 45.5752 96.5965 46.6985 95.865 48.2215C95.517 48.9459 95.1367 49.6225 95.0197 49.7251C94.7552 49.957 94.3507 49.8946 93.825 49.5405C93.2454 49.1503 92.318 49.2361 91.915 49.7172C91.7424 49.9234 91.9259 50.0287 92.6933 50.1639C93.0479 50.2264 93.6605 50.4355 94.0548 50.6285C94.449 50.8216 94.9434 50.9901 95.1534 51.0031C95.5346 51.0266 95.5358 51.0254 95.7036 50.481C95.8909 49.8735 96.5781 48.4573 96.9219 47.9699C97.6777 46.8989 98.4473 46.2565 99.3301 45.9599C99.7364 45.8234 99.7906 45.775 99.7083 45.6227C99.5559 45.3404 99.3054 45.3033 98.951 45.5105C98.575 45.7304 98.5055 45.6985 98.5055 45.3058C98.5055 45.05 98.4736 45.0247 98.1507 45.0247C97.9144 45.0247 97.7192 45.1005 97.5669 45.2514ZM113.722 45.3058C113.722 45.7021 113.649 45.7339 113.24 45.5166C112.933 45.3536 112.85 45.3448 112.681 45.4564C112.357 45.6691 112.387 45.7922 112.791 45.9202C114.263 46.3867 115.602 47.9946 116.424 50.2826L116.692 51.0266L117.084 50.9961C117.299 50.9793 117.793 50.8114 118.18 50.623C118.567 50.4345 119.175 50.2305 119.531 50.1697C120.293 50.0396 120.488 49.9269 120.312 49.7172C119.89 49.2123 119.011 49.1565 118.277 49.5882C118.001 49.75 117.683 49.8832 117.57 49.8841C117.235 49.8869 116.869 49.4069 116.368 48.3061C115.81 47.0823 115 45.6503 114.658 45.2852C114.486 45.1008 114.313 45.0247 114.068 45.0247C113.755 45.0247 113.722 45.0513 113.722 45.3058ZM105.666 47.3321C105.447 47.6726 104.726 48.5037 104.064 49.1789C103.222 50.0372 102.935 50.3851 103.11 50.335C103.529 50.2152 104.404 49.8056 104.726 49.5782C105.027 49.366 105.037 49.3656 105.555 49.5401C106.056 49.709 106.103 49.7091 106.64 49.5417C107.194 49.3689 107.205 49.3694 107.503 49.5799C107.822 49.8049 108.696 50.2141 109.117 50.3358C109.29 50.3857 108.965 49.9969 108.066 49.077C107.35 48.345 106.629 47.5142 106.464 47.2306C106.299 46.9471 106.141 46.7147 106.114 46.7141C106.086 46.7134 105.885 46.9916 105.666 47.3321ZM104.207 47.48C103.657 48.243 103.012 48.8876 102.189 49.4951C101.765 49.8083 101.36 50.0848 101.288 50.1095C101.191 50.1433 101.204 50.2055 101.343 50.3607L101.528 50.5669L102.044 50.2526C102.717 49.8425 103.996 48.6276 104.618 47.8075C104.889 47.4501 105.111 47.1242 105.112 47.0832C105.112 47.0423 104.985 47.0088 104.829 47.0088C104.606 47.0088 104.474 47.1081 104.207 47.48ZM107.437 47.6162C108.383 48.9563 110.468 50.7287 110.788 50.4655C111.026 50.2693 110.926 50.1242 110.225 49.6498C109.513 49.1673 108.359 48.0329 107.916 47.3791C107.712 47.079 107.604 47.01 107.337 47.0095L107.008 47.0088L107.437 47.6162ZM98.3053 48.2107V49.1149L98.5521 48.9547C98.6877 48.8666 98.8377 48.7945 98.8852 48.7945C98.9328 48.7945 99.7566 49.8873 100.716 51.2228C101.675 52.5584 102.484 53.6521 102.513 53.6533C102.543 53.6546 102.642 53.5294 102.734 53.3751L102.901 53.0947L101.198 50.7344L99.4942 48.374L99.7156 48.1404C99.9282 47.9162 99.9294 47.9041 99.7469 47.8399C99.6423 47.8031 99.2899 47.668 98.9638 47.5397C98.6377 47.4114 98.3562 47.3064 98.3382 47.3064C98.32 47.3064 98.3053 47.7134 98.3053 48.2107ZM112.989 47.6294L112.206 47.9327L112.467 48.1404L112.727 48.3481L110.146 51.9419C108.727 53.9186 107.52 55.5226 107.465 55.5065C107.41 55.4905 106.802 54.4657 106.114 53.2291C105.425 51.9926 104.827 50.98 104.783 50.9789C104.739 50.9779 104.131 51.848 103.431 52.9126C102.559 54.2409 102.112 54.8359 102.009 54.8088C101.927 54.7871 101.78 54.7372 101.684 54.6978C101.525 54.633 101.509 54.7059 101.509 55.4802C101.509 55.9499 101.525 56.3341 101.545 56.3341C101.618 56.3341 103.049 55.7333 103.103 55.6804C103.133 55.6506 103.048 55.5439 102.913 55.4435L102.669 55.261L103.666 53.766C104.214 52.9437 104.689 52.27 104.723 52.2688C104.756 52.2677 105.156 52.9252 105.612 53.73C106.067 54.5347 106.648 55.5613 106.903 56.011C107.157 56.4608 107.388 56.8279 107.415 56.827C107.443 56.8259 108.763 55.0181 110.35 52.8097C111.937 50.6013 113.294 48.7945 113.366 48.7945C113.438 48.7945 113.553 48.861 113.621 48.9422C113.689 49.0235 113.785 49.0654 113.833 49.0356C113.941 48.9699 113.954 47.3023 113.847 47.3163C113.806 47.3218 113.42 47.4627 112.989 47.6294ZM105.467 50.0842C105.582 50.384 105.967 50.8765 106.088 50.8771C106.202 50.8777 106.814 50.1337 106.814 49.9949C106.814 49.9622 106.499 49.9354 106.113 49.9354C105.53 49.9354 105.42 49.9607 105.467 50.0842ZM99.428 50.8822C99.0172 51.0457 97.1975 51.3731 96.3354 51.4388C95.5532 51.4984 95.4945 51.5181 95.5223 51.7112C95.5479 51.8879 95.6322 51.924 96.0784 51.9494C96.6703 51.9833 98.0795 51.7652 99.2079 51.4654C100.173 51.209 100.287 51.142 100.114 50.935C99.968 50.7612 99.7705 50.746 99.428 50.8822ZM112.14 50.8977C112.074 50.9631 112.02 51.047 112.02 51.0841C112.02 51.3596 115.232 52.0224 116.225 51.9516C116.604 51.9245 116.68 51.8841 116.707 51.6963C116.736 51.4905 116.7 51.473 116.241 51.473C115.649 51.473 113.677 51.1473 112.971 50.9329C112.365 50.7487 112.294 50.7456 112.14 50.8977ZM93.8005 51.1604C93.8005 51.3926 94.4601 51.7 94.861 51.6547C95.2615 51.6095 95.2325 51.3641 94.8016 51.1508C94.3202 50.9124 93.8005 50.9174 93.8005 51.1604ZM106.828 51.9131C106.313 52.8379 106.307 52.8582 106.462 53.1553C106.548 53.3212 106.652 53.4566 106.692 53.456C106.732 53.4554 106.913 53.1875 107.094 52.8607C107.275 52.534 107.455 52.2668 107.494 52.2669C107.533 52.267 107.698 52.479 107.86 52.7381C108.022 52.9971 108.232 53.3107 108.327 53.4348L108.499 53.6606L108.702 53.3777L108.906 53.0948L108.211 52.0608C107.829 51.4922 107.479 51.0148 107.434 50.9999C107.389 50.9851 107.117 51.396 106.828 51.9131ZM117.426 51.1508C116.929 51.3969 116.962 51.624 117.492 51.6139C117.949 51.6052 118.427 51.3544 118.427 51.1235C118.427 50.9182 117.865 50.9335 117.426 51.1508ZM91.7996 51.305C91.3656 51.4522 91.3162 51.6655 91.6321 52.0293L91.8764 52.3108L92.3754 52.0793C93.0289 51.7759 93.4516 51.4376 93.3602 51.2911C93.2667 51.1411 92.2563 51.1501 91.7996 51.305ZM118.827 51.3089C118.827 51.3823 118.906 51.511 119.003 51.5952C119.294 51.8497 120.24 52.2837 120.384 52.229C120.557 52.1629 120.855 51.5949 120.78 51.4738C120.608 51.1979 118.827 51.0475 118.827 51.3089ZM93.2499 51.8363C92.8172 52.0623 92.4991 52.374 92.4991 52.5718C92.4991 52.7953 93.0498 52.9947 93.3001 52.8618C93.5532 52.7276 94.1008 52.0224 94.1008 51.8308C94.1008 51.6226 93.6534 51.6254 93.2499 51.8363ZM118.127 51.8681C118.127 51.9763 118.326 52.2707 118.569 52.5222C119.029 52.9982 119.265 53.0406 119.617 52.7101C119.823 52.5167 119.69 52.3014 119.161 51.9688C118.6 51.6159 118.127 51.5699 118.127 51.8681ZM94.2046 52.2866C93.8333 52.6696 93.6906 52.9619 93.8756 52.9605C93.9169 52.9602 94.1309 52.9113 94.3511 52.8519C94.8474 52.7178 95.202 52.4048 95.202 52.1006C95.202 51.911 95.1491 51.8699 94.9054 51.8699C94.6879 51.8699 94.501 51.981 94.2046 52.2866ZM117.025 52.1006C117.025 52.4048 117.38 52.7178 117.876 52.8519C118.097 52.9113 118.311 52.9602 118.352 52.9605C118.543 52.962 118.389 52.6675 117.998 52.2873C117.493 51.7967 117.025 51.7068 117.025 52.1006ZM103.535 54.547C103.467 54.6555 103.411 54.7913 103.411 54.8488C103.411 55.0132 104.731 56.8301 104.814 56.7794C104.855 56.7545 105.119 56.3308 105.402 55.8378C105.905 54.9617 105.913 54.9346 105.762 54.6456C105.677 54.483 105.575 54.3505 105.535 54.3512C105.496 54.3518 105.315 54.6196 105.134 54.9464C104.953 55.2731 104.77 55.5405 104.728 55.5405C104.686 55.5405 104.461 55.2726 104.228 54.9452C103.995 54.6178 103.772 54.35 103.732 54.35C103.692 54.35 103.603 54.4387 103.535 54.547ZM109.452 54.6077C109.309 54.823 109.302 54.8988 109.409 55.0677C109.521 55.2457 109.504 55.2959 109.265 55.4843L108.994 55.6986L109.681 55.9631C110.059 56.1085 110.447 56.2562 110.543 56.2914C110.702 56.3492 110.719 56.2729 110.719 55.5015C110.719 54.8242 110.689 54.6476 110.574 54.6476C110.495 54.6476 110.402 54.6923 110.368 54.7468C110.26 54.921 110.056 54.8537 109.918 54.598C109.748 54.2846 109.664 54.2864 109.452 54.6077Z" fill="#9A9B9B"/>
</svg>
