<svg width="148" height="71" viewBox="0 0 148 71" fill="none" xmlns="http://www.w3.org/2000/svg">
<path fill-rule="evenodd" clip-rule="evenodd" d="M0 35.5V71L35.7962 70.9736L71.5924 70.9473L71.619 35.4736L71.6457 0H35.8228H0V35.5ZM76.3508 0.130988C76.3231 0.203141 76.3127 16.1663 76.3276 35.6047L76.3547 70.9473H112.177H148V35.4998V0.052437L112.201 0.0261137C83.6163 0.00503401 76.391 0.0261137 76.3508 0.130988ZM143.714 35.5001V66.805L112.151 66.7787L80.5878 66.7523L80.5607 35.6047C80.5458 18.4736 80.5562 4.3982 80.5839 4.32605C80.6239 4.2216 87.0394 4.19496 112.174 4.19496H143.714V35.5001ZM111.952 11.2215C111.945 11.2792 111.933 11.3854 111.926 11.4575C111.919 11.5296 111.806 11.6351 111.675 11.6921C111.544 11.749 111.437 11.858 111.437 11.9342C111.437 12.0105 111.475 12.0496 111.521 12.0212C111.675 11.9271 111.913 12.155 111.913 12.3961C111.913 12.5385 111.987 12.6477 112.098 12.6693C112.242 12.6971 112.283 12.6336 112.283 12.3848C112.283 12.1306 112.338 12.051 112.548 11.9987C112.877 11.9168 112.891 11.7716 112.574 11.727C112.404 11.703 112.327 11.6115 112.303 11.405C112.271 11.1352 111.982 10.9839 111.952 11.2215ZM111.692 13.1612C111.528 13.4088 111.535 13.4676 111.819 14.2597C111.984 14.7201 112.158 15.0579 112.206 15.0105C112.254 14.963 112.413 14.5828 112.559 14.1656C112.807 13.459 112.814 13.3897 112.658 13.1533C112.426 12.8029 111.926 12.807 111.692 13.1612ZM110.917 13.3452C110.996 13.6161 111.437 15.8736 111.437 16.0116C111.437 16.0304 111.508 16.0457 111.595 16.0457C111.806 16.0457 111.796 15.8165 111.532 14.6019C111.324 13.6463 111.066 13.0044 110.892 13.0044C110.85 13.0044 110.861 13.1578 110.917 13.3452ZM113.179 13.3253C112.992 13.6839 112.606 15.3115 112.603 15.7573C112.599 16.2358 112.89 16.1105 112.968 15.6C113.09 14.8032 113.363 13.4856 113.457 13.2421C113.594 12.8844 113.375 12.9499 113.179 13.3253ZM87.8268 13.8071C87.6419 14.7304 87.6423 16.46 87.8274 17.1993C87.9069 17.5166 88.1104 18.0593 88.2796 18.4054C89.0101 19.8992 91.1795 22.3278 92.9132 23.5926C93.7435 24.1982 95.0986 24.96 95.3459 24.96C95.4044 24.96 95.3097 24.7594 95.1356 24.5143C94.9614 24.2692 94.7092 23.8007 94.575 23.4733C94.3936 23.0304 94.1974 22.7732 93.8091 22.469C92.966 21.8085 91.4988 20.3945 91.0369 19.7974C90.3488 18.9078 89.5848 17.4091 89.8194 17.4091C90.077 17.4091 91.2821 18.6806 92.6602 20.4064C93.5087 21.4689 94.223 22.3382 94.2477 22.3382C94.2724 22.3382 94.2925 22.1601 94.2925 21.9425C94.2925 21.6542 94.1176 21.2344 93.6481 20.3956C92.1928 17.7961 90.6007 15.6614 88.812 13.912L87.9706 13.0891L87.8268 13.8071ZM135.982 13.4217C135.684 13.6423 133.925 15.5819 133.269 16.4128C132.487 17.403 131.042 19.6811 130.375 20.9748C130.131 21.4464 129.926 22.3382 130.061 22.3382C130.101 22.3382 130.802 21.4985 131.621 20.4722C133.244 18.4366 134.613 17.0576 134.613 17.4585C134.613 17.6572 133.998 18.8086 133.545 19.4575C133.038 20.1844 131.304 21.8885 130.359 22.5889C130.091 22.7872 129.916 23.0345 129.802 23.3727C129.711 23.6445 129.471 24.1157 129.269 24.4199C128.93 24.9297 128.92 24.9676 129.138 24.9036C130.64 24.462 133.633 21.9428 135.125 19.8633C136.309 18.2138 136.652 17.2168 136.643 15.4544C136.637 14.5103 136.449 13.2109 136.319 13.2175C136.283 13.2193 136.131 13.3111 135.982 13.4217ZM109.69 13.5685C109.509 13.6995 109.503 13.7562 109.623 14.1715C109.695 14.4236 109.902 14.9991 110.082 15.4503C110.392 16.2297 110.422 16.2673 110.684 16.2032C110.836 16.1661 111.002 16.0958 111.052 16.047C111.154 15.9482 110.987 14.8307 110.742 13.9745C110.593 13.4539 110.565 13.4239 110.237 13.4239C110.046 13.4239 109.8 13.4889 109.69 13.5685ZM113.675 13.6934C113.475 14.1273 113.184 15.9316 113.296 16.04C113.35 16.0927 113.516 16.1656 113.665 16.202C113.925 16.2654 113.952 16.2252 114.328 15.2392C114.877 13.7966 114.837 13.4239 114.131 13.4239C113.877 13.4239 113.77 13.4872 113.675 13.6934ZM102.124 14.7443C101.533 15.078 101.277 15.3022 101.277 15.4852C101.277 15.6563 101.629 15.6691 101.945 15.5094C102.466 15.2463 103.278 14.6459 103.225 14.5623C103.118 14.3907 102.597 14.4769 102.124 14.7443ZM105.828 14.7275C105.828 14.9089 105.761 14.9921 105.598 15.0159C105.281 15.0621 105.232 15.2878 105.53 15.3297C105.707 15.3546 105.788 15.4506 105.828 15.6787C105.86 15.8622 105.948 15.9933 106.039 15.9933C106.131 15.9933 106.219 15.8622 106.251 15.6787C106.29 15.4506 106.372 15.3546 106.549 15.3297C106.847 15.2878 106.798 15.0621 106.481 15.0159C106.317 14.9921 106.251 14.9089 106.251 14.7275C106.251 14.5426 106.193 14.4726 106.039 14.4726C105.886 14.4726 105.828 14.5426 105.828 14.7275ZM118.104 14.7275C118.104 14.9089 118.037 14.9921 117.874 15.0159C117.543 15.0641 117.519 15.275 117.834 15.3536C118.048 15.4065 118.104 15.4857 118.104 15.7331C118.104 16.1384 118.394 16.1593 118.441 15.7573C118.461 15.579 118.565 15.4294 118.712 15.3654C119.021 15.231 119.013 15.1204 118.686 14.997C118.524 14.9359 118.421 14.8149 118.421 14.685C118.421 14.5662 118.351 14.4726 118.262 14.4726C118.165 14.4726 118.104 14.5709 118.104 14.7275ZM121.128 14.5638C121.048 14.6918 122.254 15.5102 122.633 15.5853C123.069 15.6716 123.137 15.481 122.789 15.1536C122.223 14.6222 121.297 14.2932 121.128 14.5638ZM103.534 15.0494C103.486 15.1648 103.265 15.5749 103.044 15.9608C102.823 16.3467 102.6 16.8082 102.548 16.9862C102.419 17.4309 102.604 17.9034 102.984 18.0976L103.292 18.2553L103.227 17.8555C103.173 17.5199 103.232 17.325 103.596 16.6409C104.08 15.7294 104.122 15.4475 103.825 15.0873C103.626 14.8458 103.618 14.8448 103.534 15.0494ZM120.492 15.1235C120.244 15.4751 120.285 15.7202 120.749 16.6496C121.198 17.548 121.238 17.7222 121.063 18.0452C120.928 18.2952 121.043 18.3042 121.387 18.0706C121.756 17.8204 121.804 17.7262 121.806 17.2496C121.807 16.9373 121.684 16.6188 121.331 16.0217C121.07 15.5783 120.855 15.1691 120.855 15.1124C120.855 14.8933 120.65 14.8994 120.492 15.1235ZM100.563 15.6295C100.254 15.7526 100.26 16.0365 100.591 16.8323C100.792 17.3162 100.853 17.6501 100.853 18.2776C100.854 18.7886 100.917 19.2397 101.022 19.4837L101.19 19.8736L101.386 19.1395C101.66 18.1156 101.646 17.5233 101.33 16.7798C101.184 16.4372 101.065 16.0139 101.065 15.8391C101.065 15.5054 100.972 15.4665 100.563 15.6295ZM123.289 15.7867C123.289 15.9327 123.168 16.3366 123.021 16.6845C122.854 17.0764 122.749 17.527 122.745 17.869C122.739 18.4334 123.043 19.7163 123.184 19.7163C123.349 19.7163 123.527 18.7636 123.458 18.2489C123.401 17.8243 123.438 17.5995 123.654 17.0654C124.081 16.0073 124.099 15.7957 123.769 15.6471C123.368 15.4659 123.289 15.4887 123.289 15.7867ZM105.653 16.4172C105.615 16.5136 105.692 16.8111 105.823 17.0785L106.061 17.5646L106.268 17.1648C106.562 16.5983 106.497 16.3163 106.065 16.275C105.82 16.2516 105.701 16.2925 105.653 16.4172ZM117.899 16.4047C117.8 16.5223 117.829 16.6613 118.033 17.0597L118.293 17.5657L118.531 17.079C118.663 16.8113 118.741 16.5165 118.705 16.4239C118.623 16.2126 118.071 16.1995 117.899 16.4047ZM110.934 16.4777C110.237 16.6772 110.576 16.8763 111.754 16.9596C112.559 17.0164 113.765 16.8442 113.765 16.6724C113.765 16.3983 111.706 16.2566 110.934 16.4777ZM104.558 16.6221C104.445 16.7572 104.484 16.882 104.799 17.3845C105.221 18.0585 105.445 18.2494 105.616 18.0807C105.764 17.9341 105.534 16.9367 105.307 16.7398C105.026 16.4959 104.706 16.4457 104.558 16.6221ZM106.992 16.5993C106.726 16.7336 106.518 17.1856 106.447 17.7779C106.384 18.3082 106.761 18.1823 107.23 17.5163C107.795 16.7152 107.675 16.2537 106.992 16.5993ZM116.804 16.5295C116.653 16.6796 116.735 16.9546 117.106 17.5434C117.488 18.1483 117.736 18.2888 117.86 17.9697C117.941 17.7607 117.72 16.8821 117.542 16.7081C117.379 16.5473 116.902 16.4322 116.804 16.5295ZM119.186 16.5941C119.023 16.672 118.893 16.8902 118.78 17.2743C118.463 18.3564 118.874 18.446 119.513 17.4338C119.853 16.8951 119.903 16.7498 119.796 16.6215C119.645 16.4406 119.52 16.435 119.186 16.5941ZM24.8569 16.8291C26.0662 16.9921 27.2985 18.0179 27.983 19.4315C29.3609 22.2771 29.3279 26.8843 27.9088 29.7842C27.4375 30.7471 26.3927 31.772 25.5574 32.0907C24.5942 32.4581 23.343 32.4404 22.4659 32.0468C21.5947 31.6558 20.7861 30.8137 20.2917 29.782C18.9427 26.9673 18.9621 22.0761 20.3332 19.3237C20.824 18.3383 21.6048 17.483 22.3427 17.1225C22.8315 16.8836 23.8 16.6799 24.1816 16.7357C24.298 16.7527 24.602 16.7947 24.8569 16.8291ZM15.531 24.5667L15.5038 32.039H14.128H12.7522L12.7249 25.8226L12.6976 19.6061L11.0317 19.635L9.36575 19.6639L9.33845 25.8777L9.31114 32.0914H7.93623H6.56132V24.5929V17.0945H11.0597H15.558L15.531 24.5667ZM34.8189 19.2182C34.8206 21.5566 34.857 21.7243 35.435 22.0589C35.7171 22.2222 36.0034 22.2653 36.8635 22.2744L37.9392 22.2857L37.9675 19.6901L37.9958 17.0945H39.3697H40.7437L40.7679 22.9936C40.7885 27.9954 40.7846 29.8113 40.7488 31.803L40.7437 32.0914H39.3679H37.9921V28.4847V24.878L36.4312 24.8385C34.9391 24.8007 34.8388 24.7842 34.1585 24.4667C33.3905 24.1082 32.6286 23.4181 32.3437 22.8231C32.2476 22.6226 32.1221 22.2126 32.0645 21.9121C31.9482 21.3045 31.9194 17.2745 32.0305 17.1644C32.0693 17.1259 32.7122 17.0945 33.4592 17.0945H34.8173L34.8189 19.2182ZM51.515 18.3792L51.5447 19.6114H50.3782H49.2116L49.1843 25.8252L49.157 32.039H47.7812H46.4054L46.3781 25.8252L46.3508 19.6114H45.2405C44.2573 19.6114 44.129 19.5904 44.1201 19.4279C44.0731 18.5702 44.0701 18.0161 44.1105 17.5912L44.1578 17.0917L47.8215 17.1193L51.4852 17.1469L51.515 18.3792ZM61.1147 17.4052C62.07 17.7784 62.8804 18.625 63.1692 19.5518C63.2911 19.9428 63.3908 20.4149 63.3908 20.6009C63.3908 20.7869 63.6765 23.3345 64.0257 26.2622C64.375 29.19 64.6607 31.6993 64.6607 31.8385V32.0914H63.287C61.9483 32.0914 61.9119 32.0855 61.8612 31.8555C61.8327 31.7256 61.6629 30.1801 61.4841 28.4209C61.3052 26.6616 61.1363 25.1161 61.1087 24.9862C61.0592 24.7535 61.0353 24.7503 59.3817 24.7503H57.705L57.6394 25.8252C57.6033 26.4164 57.5469 27.9148 57.5142 29.155C57.4815 30.3951 57.4309 31.5631 57.4019 31.7506L57.349 32.0914H55.9781H54.6071L54.6037 31.803C54.5951 31.0835 55.0581 17.341 55.0952 17.2163C55.1289 17.1024 55.6417 17.0837 57.8086 17.1167C60.3149 17.1549 60.5198 17.1728 61.1147 17.4052ZM111.907 17.3143C111.867 17.3775 111.912 17.5056 112.006 17.5989C112.164 17.7553 112.191 17.7553 112.349 17.5989C112.443 17.5056 112.488 17.3775 112.448 17.3143C112.356 17.1657 111.999 17.1657 111.907 17.3143ZM110.361 17.4282C109.947 17.5373 109.182 18.1259 108.989 18.4831C108.876 18.6919 108.891 18.6975 109.406 18.6369C110.093 18.5563 110.718 18.2376 111.06 17.7934C111.209 17.6 111.331 17.4108 111.331 17.373C111.331 17.2771 110.824 17.306 110.361 17.4282ZM113.024 17.3867C113.024 17.5951 113.579 18.1519 113.997 18.3633C114.226 18.4793 114.661 18.6031 114.963 18.6382C115.49 18.6997 115.505 18.6944 115.357 18.5012C114.983 18.0119 114.744 17.7948 114.374 17.6067C113.9 17.366 113.024 17.2232 113.024 17.3867ZM110.697 17.7749C110.505 18.0045 109.848 18.387 109.774 18.3131C109.619 18.16 110.302 17.6428 110.682 17.6254C110.799 17.6201 110.802 17.6496 110.697 17.7749ZM114.069 17.7692C114.406 17.9423 114.67 18.2246 114.579 18.315C114.506 18.3875 113.848 18.0015 113.658 17.7749C113.485 17.5688 113.673 17.5663 114.069 17.7692ZM84.5847 18.7987C84.6156 19.3898 84.7174 20.1166 84.8111 20.4136C85.3022 21.9704 87.1692 23.6393 90.0726 25.117C91.1818 25.6816 92.6811 26.2371 93.4903 26.3834L93.9051 26.4582L93.6652 26.1244C93.5026 25.898 93.0613 25.6096 92.2939 25.2283C91.6716 24.919 90.7119 24.3696 90.1612 24.0073C89.1264 23.3266 87.1596 21.5011 87.3793 21.425C87.6831 21.3199 89.3143 22.3677 91.6436 24.1641C92.4276 24.7688 93.0857 25.247 93.106 25.2268C93.1263 25.2067 93.0842 24.9956 93.0123 24.7577C92.9125 24.4275 92.6918 24.1591 92.079 23.6222C91.6376 23.2357 90.5144 22.2099 89.5831 21.3429C87.6702 19.5619 86.8375 18.8852 85.7151 18.1995C84.5433 17.4834 84.5167 17.4975 84.5847 18.7987ZM138.753 18.1167C137.739 18.7109 136.119 20.0328 134.297 21.7524C133.395 22.603 132.409 23.4957 132.105 23.7362C131.7 24.0558 131.496 24.3145 131.347 24.6978C131.234 24.9862 131.158 25.2392 131.178 25.2599C131.198 25.2807 131.728 24.9032 132.355 24.421C135.151 22.2712 136.631 21.3092 136.968 21.4208C137.189 21.4937 135.232 23.3267 134.233 23.9825C133.704 24.3298 132.719 24.891 132.046 25.2295C131.175 25.6671 130.768 25.9336 130.639 26.1511L130.456 26.457L130.821 26.3893C132.504 26.0763 135.68 24.5455 137.206 23.3119C139.138 21.7495 139.798 20.5074 139.798 18.4385C139.798 17.5686 139.726 17.5463 138.753 18.1167ZM105.323 18.4272C105.192 18.4523 105.111 18.5167 105.144 18.5701C105.222 18.694 106.854 18.6988 106.931 18.5755C107.042 18.3977 105.988 18.3005 105.323 18.4272ZM117.547 18.4255C117.444 18.4521 117.388 18.5173 117.421 18.5707C117.498 18.6941 119.13 18.6985 119.207 18.5755C119.317 18.3987 118.082 18.2871 117.547 18.4255ZM104.071 19.0252C104.003 19.1988 104.256 19.7218 104.507 19.9283C104.668 20.0604 104.676 20.029 104.606 19.5535C104.534 19.0752 104.422 18.883 104.211 18.8789C104.165 18.8781 104.102 18.9438 104.071 19.0252ZM104.824 19.256C104.862 19.4803 104.999 19.8762 105.128 20.1358C105.455 20.7912 106.357 21.3683 106.357 20.9224C106.357 20.7194 106.33 20.7135 107.056 21.0783C107.796 21.4501 107.838 21.456 107.838 21.1872C107.838 21.007 107.874 20.9936 108.116 21.0845C108.376 21.1826 108.39 21.1724 108.341 20.9185C108.302 20.7181 108.326 20.6631 108.434 20.7065C108.514 20.7387 108.653 20.7946 108.743 20.8307C108.876 20.8838 108.894 20.8432 108.838 20.6203L108.768 20.3442L109.326 20.7167C109.823 21.0481 109.949 21.0857 110.467 21.0582C110.815 21.0397 111.067 20.9745 111.093 20.8961C111.117 20.8241 111.059 20.765 110.965 20.765C110.745 20.765 110.031 20.4054 109.87 20.2134C109.772 20.0963 109.805 20.0154 110.031 19.8209L110.315 19.5758L110.08 19.4717L109.845 19.3676L110.085 19.1106L110.325 18.8534L109.894 18.9239C108.439 19.1617 106.211 19.1617 105.106 18.9238L104.754 18.8481L104.824 19.256ZM114.277 19.1176C114.523 19.381 114.523 19.3821 114.303 19.4513C114.008 19.5439 114.025 19.6574 114.369 19.9057L114.656 20.1126L114.137 20.4389C113.851 20.6182 113.534 20.765 113.433 20.765C113.183 20.765 113.091 20.9375 113.298 21.0162C113.561 21.1163 114.252 21.0904 114.578 20.9681C114.742 20.9067 115.007 20.7327 115.167 20.5814C115.327 20.4301 115.463 20.3506 115.47 20.4046C115.477 20.4586 115.489 20.5737 115.497 20.6602C115.511 20.8207 115.591 20.8315 115.894 20.7143C116.031 20.6616 116.056 20.7007 116.017 20.9036C115.973 21.1305 115.998 21.1534 116.242 21.1073C116.446 21.0686 116.516 21.0989 116.516 21.2247C116.516 21.4477 116.525 21.446 117.262 21.077C117.795 20.8106 117.907 20.7854 117.959 20.9197C118.056 21.1718 118.281 21.1096 118.732 20.7059C119.123 20.3561 119.375 19.8644 119.531 19.1515C119.595 18.8557 119.589 18.8506 119.247 18.9242C118.172 19.1559 115.886 19.1574 114.482 18.9274L114.029 18.8534L114.277 19.1176ZM119.944 18.9575C119.824 19.0363 119.631 20.0309 119.736 20.0309C119.768 20.0309 119.919 19.8433 120.072 19.6141C120.409 19.1093 120.33 18.7045 119.944 18.9575ZM23.5996 19.3709C22.7127 19.6922 22.1448 21.3137 22.0462 23.8064C21.9074 27.3148 22.7107 29.7842 23.9908 29.7842C24.8269 29.7842 25.4137 29.1087 25.7673 27.7395C26.3908 25.3261 26.1811 21.4866 25.3492 20.0798C24.9799 19.4554 24.2183 19.1467 23.5996 19.3709ZM102.159 19.6718C101.925 19.9041 101.894 20.008 101.94 20.4125C101.972 20.6995 102.086 20.9809 102.231 21.1341C102.454 21.3686 102.489 21.3751 102.768 21.2325C103.151 21.0361 103.955 21.0364 104.338 21.2329C104.581 21.3574 104.704 21.3627 104.994 21.2612C105.191 21.1925 105.371 21.1234 105.396 21.1076C105.513 21.032 104.904 20.5482 104.445 20.3525C104.161 20.2317 103.797 19.9683 103.635 19.7673C103.381 19.4517 103.278 19.4017 102.886 19.4017C102.539 19.4017 102.367 19.4654 102.159 19.6718ZM120.775 19.7047C120.651 19.8712 120.201 20.193 119.776 20.4195C118.877 20.8988 118.774 21.0956 119.332 21.2654C119.644 21.3603 119.781 21.3536 120.019 21.2318C120.404 21.0344 121.143 21.0383 121.534 21.2401C121.822 21.3889 121.857 21.3844 122.088 21.1703C122.58 20.712 122.493 19.7049 121.943 19.4977C121.436 19.3068 121.016 19.381 120.775 19.7047ZM57.781 20.3718C57.7805 20.79 57.7501 21.3799 57.7133 21.6827L57.6466 22.2333H59.1959C60.9634 22.2333 60.8412 22.3262 60.5785 21.1818C60.3087 20.006 59.7613 19.6133 58.3904 19.6121L57.7819 19.6114L57.781 20.3718ZM107.001 19.7252C106.745 19.7751 106.425 19.9184 106.29 20.0437C106.088 20.2323 106.018 20.2485 105.884 20.1383C105.795 20.0651 105.722 19.9166 105.722 19.8084C105.722 19.6307 105.807 19.6126 106.595 19.623C107.391 19.6335 107.427 19.6424 107.001 19.7252ZM118.633 19.7487C118.633 19.8242 118.565 19.9775 118.483 20.0896C118.335 20.2895 118.328 20.2889 118.076 20.0545C117.935 19.9233 117.61 19.7751 117.353 19.7252C116.928 19.6424 116.963 19.6335 117.76 19.623C118.414 19.6143 118.633 19.6457 118.633 19.7487ZM103.48 20.5373C103.505 20.7051 103.459 20.765 103.307 20.765C103.058 20.765 102.939 20.5232 103.107 20.357C103.276 20.1897 103.441 20.2692 103.48 20.5373ZM121.259 20.5373C121.284 20.7051 121.239 20.765 121.086 20.765C120.837 20.765 120.718 20.5232 120.886 20.357C121.055 20.1897 121.22 20.2692 121.259 20.5373ZM94.7532 21.239C94.7183 21.3293 94.7105 21.7956 94.7359 22.2752C94.7991 23.4681 95.1354 24.1344 96.1968 25.1698C96.9021 25.8576 98.2779 26.8135 98.3953 26.6971C98.418 26.6746 98.3668 26.5459 98.2815 26.4111C98.1264 26.1661 97.9329 25.6002 97.4209 23.8934C97.0355 22.6087 96.2541 21.67 95.2104 21.2378C94.8539 21.0903 94.8108 21.0904 94.7532 21.239ZM128.896 21.3369C128.336 21.6254 127.526 22.4484 127.227 23.0312C127.111 23.2557 126.867 23.9753 126.684 24.6304C126.501 25.2854 126.257 26.0033 126.143 26.2255C126.029 26.4477 125.935 26.6596 125.935 26.6962C125.935 26.8104 126.91 26.2102 127.597 25.6726C128.348 25.0853 128.987 24.3323 129.339 23.6179C129.54 23.2108 129.583 22.9525 129.584 22.1381C129.585 21.5692 129.541 21.1385 129.48 21.1208C129.422 21.1038 129.159 21.2011 128.896 21.3369ZM109.108 21.3399C109.108 21.4331 109.346 21.9859 109.637 22.5684C109.928 23.1507 110.167 23.6912 110.167 23.7693C110.167 24.0954 110.357 23.8777 110.421 23.4777C110.54 22.7408 110.136 21.8957 109.426 21.3945C109.156 21.2041 109.108 21.1958 109.108 21.3399ZM114.721 21.5598C114.006 22.1989 113.7 23.0965 113.972 23.754L114.059 23.9637L114.135 23.754C114.177 23.6386 114.449 23.0655 114.741 22.4804C115.033 21.8952 115.251 21.3561 115.226 21.2825C115.197 21.1957 115.02 21.2931 114.721 21.5598ZM104.973 21.5331C104.327 21.8714 104.087 22.3 104.237 22.8488L104.35 23.2678L104.87 22.7529C105.263 22.3637 105.495 22.2214 105.82 22.1698C106.057 22.1323 106.251 22.0767 106.251 22.0463C106.251 21.9091 105.697 21.2894 105.574 21.2894C105.499 21.2894 105.228 21.3991 104.973 21.5331ZM118.377 21.6132C118.097 21.9427 118.098 22.1284 118.379 22.1284C118.678 22.1284 119.366 22.5494 119.656 22.9104C119.99 23.3252 120.11 23.249 120.113 22.6196C120.115 22.1081 119.989 21.8825 119.56 21.6269C118.933 21.2537 118.684 21.2507 118.377 21.6132ZM108.156 21.6082C108.156 21.7679 108.108 21.8181 107.997 21.7758C107.724 21.6721 107.822 21.8322 108.257 22.201C108.487 22.3962 108.831 22.7939 109.021 23.0851C109.345 23.5807 109.374 23.5999 109.469 23.3871C109.542 23.2254 109.529 23.0945 109.425 22.9326C109.344 22.8076 109.137 22.4457 108.964 22.1284C108.792 21.8112 108.647 21.5456 108.642 21.5384C108.636 21.5312 108.525 21.4926 108.394 21.4527C108.198 21.3928 108.156 21.4201 108.156 21.6082ZM110.246 21.7162C110.581 22.2414 111.094 22.7284 111.435 22.8462C111.708 22.9407 111.754 22.931 111.753 22.7784C111.753 22.4967 111.295 21.8219 110.954 21.5991C110.783 21.4872 110.507 21.3953 110.341 21.395L110.04 21.3943L110.246 21.7162ZM113.372 21.6004C113.042 21.8001 112.601 22.486 112.601 22.8004C112.601 22.9282 112.658 22.9367 112.917 22.8471C113.262 22.7279 114.188 21.7759 114.188 21.5403C114.188 21.33 113.768 21.3608 113.372 21.6004ZM115.776 21.5254C115.55 21.7872 114.823 23.0643 114.825 23.1976C114.826 23.2729 114.866 23.3972 114.916 23.4739C114.98 23.5754 115.079 23.4878 115.277 23.1532C115.426 22.9002 115.766 22.4943 116.033 22.2513C116.536 21.7915 116.616 21.6775 116.371 21.7706C116.285 21.8033 116.203 21.738 116.17 21.61C116.105 21.366 115.944 21.3313 115.776 21.5254ZM106.74 21.9996C107.788 22.9576 108.262 23.3085 108.262 23.1268C108.262 22.6455 107.721 22.0451 106.992 21.7177C106.235 21.3777 106.156 21.4657 106.74 21.9996ZM117.363 21.7177C116.63 22.0469 116.093 22.6456 116.093 23.1331C116.093 23.2641 116.216 23.2048 116.572 22.9024C118.215 21.5058 118.378 21.2616 117.363 21.7177ZM106.511 22.6852C107.001 22.9797 107.302 23.3836 107.474 23.9744C107.573 24.3146 107.751 24.7817 107.87 25.0124L108.087 25.4319L108.241 24.7282L108.395 24.0246L107.646 23.2862C107.065 22.7143 106.829 22.5493 106.6 22.5541C106.325 22.5598 106.319 22.569 106.511 22.6852ZM116.692 23.3082L115.92 24.0686L116.099 24.7503L116.278 25.4319L116.501 24.96C116.624 24.7004 116.799 24.2185 116.891 23.8891C117.051 23.3159 117.257 23.0578 117.851 22.6852C118.034 22.5708 118.026 22.5598 117.757 22.5541C117.53 22.5493 117.289 22.7203 116.692 23.3082ZM111.705 23.3978C111.452 23.6177 111.331 23.8141 111.331 24.0031C111.331 24.2661 112.035 25.5893 112.175 25.5893C112.31 25.5893 113.024 24.2467 113.024 23.9915C113.024 23.7342 112.414 23.0723 112.177 23.0723C112.123 23.0723 111.911 23.2188 111.705 23.3978ZM97.9964 23.7397C97.9964 25.1731 98.4271 26.2353 99.4229 27.2574C99.8025 27.647 100.113 27.9946 100.113 28.0301C100.113 28.0654 99.8867 27.9933 99.6103 27.8696C99.0688 27.6275 97.8829 27.5483 97.6877 27.7412C97.4268 27.9992 98.5186 29.5555 98.979 29.5818C99.215 29.5953 98.6886 29.7693 98.389 29.7769C98.0407 29.7856 97.2556 30.1601 97.2556 30.3176C97.2556 30.6698 98.1998 31.4597 98.6257 31.4638C98.7162 31.4647 98.8585 31.5082 98.942 31.5607C99.0649 31.6376 99.0184 31.7389 98.6992 32.0889C98.2739 32.5554 98.0612 32.9879 98.1475 33.2107C98.2227 33.4048 99.2772 33.3921 99.7623 33.1913C99.973 33.104 100.162 33.0491 100.183 33.0694C100.203 33.0895 100.143 33.2582 100.05 33.4441C99.6904 34.1576 99.785 35.3457 100.201 35.3402C100.547 35.3357 101.308 34.916 101.66 34.535L102.018 34.1479V34.4864C102.018 34.8677 102.251 35.4881 102.437 35.6019C102.578 35.6884 103.375 35.1981 103.463 34.9705C103.55 34.7471 103.706 34.7838 103.944 35.0833C104.119 35.3033 104.847 35.762 105.022 35.762C105.144 35.762 105.317 34.9694 105.264 34.6495C105.208 34.3064 105.218 34.2938 105.55 34.2938C105.738 34.2938 105.985 34.2273 106.097 34.1459C106.286 34.0089 106.289 33.9841 106.129 33.8051C106.035 33.6989 105.836 33.3706 105.686 33.0755L105.415 32.5389L104.854 32.6888C104.067 32.8992 102.826 32.8226 102.207 32.5254C101.337 32.1082 101.33 31.616 102.168 29.7008C102.667 28.5616 102.705 28.2527 102.415 27.6836C102.241 27.3408 101.921 27.0236 101.224 26.503C99.9966 25.5856 99.0509 24.6555 98.5091 23.8326C98.2717 23.4722 98.0592 23.1772 98.037 23.1772C98.0146 23.1772 97.9964 23.4303 97.9964 23.7397ZM125.946 23.6509C125.568 24.3569 124.559 25.3922 123.31 26.3566C121.474 27.774 121.434 27.902 122.219 29.8279C122.878 31.445 122.922 31.9375 122.444 32.3366C121.887 32.8007 120.608 32.9273 119.194 32.6582C118.883 32.5987 118.844 32.6233 118.695 32.9779C118.606 33.1893 118.428 33.5076 118.3 33.6853C118.076 33.9983 118.074 34.0133 118.265 34.1512C118.373 34.2296 118.59 34.2938 118.746 34.2938C119.018 34.2938 119.033 34.3212 119.077 34.9246C119.102 35.2715 119.174 35.6058 119.236 35.6672C119.391 35.8213 120.132 35.4377 120.413 35.0578L120.629 34.7657L120.98 35.094C121.173 35.2746 121.447 35.4814 121.589 35.5536C121.816 35.6693 121.869 35.6573 122.036 35.4529C122.141 35.325 122.257 34.9855 122.296 34.6983L122.366 34.176L122.666 34.5365C122.975 34.9084 123.764 35.3425 124.13 35.3425C124.28 35.3425 124.368 35.2332 124.448 34.9493C124.615 34.3511 124.583 34.129 124.196 33.2286C124.127 33.0705 124.157 33.0677 124.525 33.1978C124.992 33.3629 126.104 33.3974 126.197 33.2497C126.302 33.0807 125.945 32.3747 125.553 31.9758L125.182 31.5978L125.665 31.4637C126.173 31.3227 127.099 30.6064 127.099 30.3542C127.099 30.1536 126.411 29.827 125.803 29.7391L125.3 29.6665L125.75 29.3306C126.19 29.0019 126.676 28.2409 126.676 27.8806C126.676 27.4882 125.361 27.5384 124.533 27.9627C124.062 28.2034 124.195 27.9546 124.919 27.2368C125.706 26.4574 125.999 25.942 126.206 24.9751C126.366 24.2255 126.409 23.1772 126.279 23.1772C126.235 23.1772 126.085 23.3904 125.946 23.6509ZM109.196 24.3557C109.003 24.6242 108.942 24.8671 108.913 25.4844C108.893 25.917 108.92 26.4361 108.973 26.638L109.07 27.0051L109.463 26.4185C109.955 25.6866 110.042 25.2158 109.802 24.5931C109.702 24.3346 109.581 24.0986 109.531 24.0685C109.482 24.0383 109.331 24.1676 109.196 24.3557ZM114.57 24.4377C114.255 25.2178 114.403 25.882 115.071 26.6891L115.33 27.0023L115.407 26.2914C115.449 25.9003 115.452 25.384 115.413 25.144C115.342 24.7034 114.984 24.0161 114.826 24.0161C114.779 24.0161 114.664 24.2059 114.57 24.4377ZM110.403 25.0937C109.957 26.3457 109.872 27.0147 110.104 27.4582C110.2 27.6416 110.319 27.7916 110.368 27.7916C110.418 27.7916 110.707 27.473 111.011 27.0837C111.515 26.4368 111.559 26.3381 111.514 25.9385C111.473 25.5748 110.886 24.1206 110.781 24.1212C110.763 24.1213 110.593 24.559 110.403 25.0937ZM113.14 24.9001C112.792 25.7273 112.735 26.1932 112.935 26.5663C113.1 26.8729 113.884 27.7916 113.981 27.7916C114.176 27.7916 114.402 27.0534 114.34 26.6175C114.262 26.0695 113.677 24.2492 113.555 24.1744C113.507 24.1449 113.32 24.4715 113.14 24.9001ZM82.3339 24.3593C82.3339 24.6426 83.3722 25.6646 84.2199 26.2158C85.4506 27.0161 86.8368 27.4974 90.3962 28.3603C92.1608 28.7882 93.7421 29.1905 93.9103 29.2544C94.3286 29.4134 94.368 29.3266 94.0484 28.9503C93.8996 28.775 93.7489 28.541 93.7134 28.4302C93.6632 28.2734 93.4793 28.2007 92.8859 28.103C91.1844 27.8229 87.9428 26.7071 87.9428 26.4016C87.9428 26.0972 90.4974 26.6978 92.8864 27.5639L93.7557 27.8791L94.2542 27.6916C94.7227 27.5153 94.7391 27.4967 94.5242 27.3828C94.1637 27.1915 91.0918 26.0731 89.636 25.6031C86.9769 24.7445 85.3139 24.3859 83.4307 24.2652C82.4754 24.2041 82.3339 24.2162 82.3339 24.3593ZM139.851 24.3465C138.85 24.4566 136.499 25.0153 134.906 25.5215C133.443 25.9866 129.639 27.3954 129.639 27.4722C129.639 27.5046 129.855 27.608 130.118 27.7018C130.593 27.8711 130.606 27.8695 131.531 27.5286C133.389 26.844 135.418 26.3194 136.183 26.3257L136.465 26.328L136.2 26.5341C135.627 26.9807 133.303 27.7584 131.632 28.0626C130.889 28.1979 130.692 28.2726 130.639 28.4379C130.602 28.5515 130.422 28.8149 130.238 29.0231C129.91 29.3946 129.909 29.4004 130.168 29.3235C130.314 29.2804 132.004 28.8507 133.925 28.3686C138.36 27.2556 139.479 26.8201 140.899 25.654C141.398 25.2447 142.021 24.5012 142.021 24.315C142.021 24.2061 140.992 24.221 139.851 24.3465ZM93.4458 24.7612C93.4458 24.8248 93.6241 25.2141 93.8419 25.6264C94.2678 26.432 94.9004 27.1356 95.4716 27.4387C95.9655 27.7008 97.0519 27.6853 97.6769 27.4072L98.1511 27.1963L97.2007 26.5048C96.2084 25.7827 95.0757 25.1763 94.0954 24.8421C93.4163 24.6106 93.4458 24.6142 93.4458 24.7612ZM130.221 24.8421C128.886 25.3195 128.069 25.7709 126.899 26.6793L126.222 27.2042L126.687 27.4116C126.999 27.551 127.385 27.6197 127.862 27.6209C128.514 27.6224 128.62 27.5898 129.166 27.2175C129.785 26.7949 130.16 26.3314 130.63 25.4092C131.059 24.5682 131.044 24.5479 130.221 24.8421ZM111.821 26.8455C111.668 27.075 111.542 27.3983 111.542 27.5641C111.542 27.8741 111.922 28.5307 112.143 28.6024C112.326 28.6618 112.812 27.8959 112.812 27.5481C112.812 27.2774 112.325 26.436 112.165 26.4304C112.129 26.4293 111.974 26.616 111.821 26.8455ZM108.95 27.8103C108.501 28.4822 107.731 29.2563 107.29 29.4796C106.518 29.8696 106.01 29.7186 105.494 28.9452L105.319 28.683L105.203 28.9783C104.915 29.7115 105.181 30.5932 105.817 31.0144C106.284 31.3239 106.655 31.3152 107.162 30.983C107.945 30.4707 108.657 29.4485 109.06 28.2606C109.21 27.8173 109.313 27.4351 109.289 27.4112C109.265 27.3874 109.112 27.567 108.95 27.8103ZM115.106 27.7389C115.47 29.3666 116.964 31.2534 117.886 31.252C118.224 31.2516 118.781 30.9223 118.997 30.5952C119.245 30.2205 119.314 29.4764 119.141 29.056L118.993 28.696L118.744 29.0566C118.606 29.2549 118.421 29.4762 118.332 29.5482C118.108 29.7288 117.518 29.7125 117.096 29.5141C116.764 29.3579 115.971 28.5826 115.326 27.7842L115.036 27.4245L115.106 27.7389ZM109.443 28.2815C109.322 28.6754 109.054 29.2747 108.848 29.6134C108.642 29.952 108.474 30.2824 108.474 30.3475C108.474 30.4126 108.575 30.6293 108.698 30.829L108.921 31.1921L109.117 30.829C109.225 30.6293 109.462 30.0889 109.645 29.6282C109.906 28.9705 109.966 28.6817 109.928 28.2848C109.849 27.4718 109.692 27.4708 109.443 28.2815ZM114.524 27.7585C114.228 28.3056 114.562 29.7293 115.253 30.866L115.432 31.1611L115.657 30.8012C115.78 30.6032 115.881 30.4066 115.881 30.3645C115.881 30.3223 115.71 30.0133 115.501 29.6778C115.292 29.3422 115.015 28.7215 114.884 28.2986C114.669 27.5989 114.636 27.5501 114.524 27.7585ZM94.3189 27.9977C93.7846 28.2261 94.2439 28.9714 95.1631 29.3674C95.8344 29.6567 97.1476 29.7655 97.7173 29.5793L98.1009 29.4538L97.8466 29.1209C97.7068 28.9378 97.5261 28.6254 97.4451 28.4266C97.304 28.0805 97.2737 28.0648 96.7211 28.0493C96.4039 28.0404 95.7873 28.0022 95.3507 27.9644C94.901 27.9256 94.4538 27.94 94.3189 27.9977ZM128.316 28.019C128.083 28.0748 127.713 28.0979 127.493 28.0705C127.113 28.023 127.083 28.0416 126.871 28.4567C126.748 28.6966 126.559 29.0187 126.449 29.1727L126.25 29.4526L126.639 29.5798C127.258 29.7823 128.583 29.6492 129.272 29.3153C129.846 29.0371 130.274 28.5907 130.274 28.271C130.274 27.9237 129.259 27.7931 128.316 28.019ZM110.716 28.362C110.089 29.0693 109.866 29.7305 110.102 30.1784C110.271 30.4979 110.983 31.2126 111.058 31.1381C111.084 31.112 111.029 30.859 110.935 30.5759C110.775 30.0944 110.776 30.0304 110.954 29.5819C111.193 28.9758 111.274 28.3843 111.147 28.1597C111.062 28.0092 111.004 28.0365 110.716 28.362ZM113.183 28.1063C113.053 28.3142 113.111 28.8753 113.322 29.4542C113.521 30.0021 113.517 30.2348 113.295 30.9206C113.223 31.1416 113.236 31.1545 113.429 31.0525C113.546 30.9902 113.789 30.763 113.968 30.5476C114.409 30.0178 114.412 29.4727 113.979 28.8241C113.567 28.2085 113.28 27.9498 113.183 28.1063ZM111.44 29.4848C111.25 29.9214 111.235 30.0596 111.332 30.4192C111.395 30.6513 111.582 30.991 111.747 31.174C112.018 31.4743 112.074 31.4948 112.318 31.3845C112.654 31.2328 112.911 30.8555 113.031 30.3372C113.105 30.0163 113.078 29.8532 112.888 29.4741C112.663 29.0259 112.633 29.0059 112.158 28.9896L111.662 28.9725L111.44 29.4848ZM94.8216 29.9957C94.0793 30.1445 93.2342 30.6748 93.2342 30.9918C93.2342 31.2388 94.3826 31.7135 95.088 31.7579C95.7991 31.8028 96.9992 31.5502 97.2497 31.3028C97.3828 31.1713 97.3743 31.1213 97.1836 30.9138C97.0631 30.7828 96.913 30.5761 96.8498 30.4545C96.6782 30.1238 95.5057 29.8587 94.8216 29.9957ZM128.739 29.974C127.956 30.0546 127.627 30.2092 127.366 30.6188C127.224 30.8423 127.055 31.0576 126.99 31.0972C126.662 31.2982 128.12 31.7768 129.06 31.7768C129.71 31.7768 130.423 31.5513 130.855 31.2093L131.172 30.9586L130.961 30.7273C130.509 30.232 129.513 29.8944 128.739 29.974ZM109.49 31.0679C108.801 32.2389 108.835 32.6399 109.709 33.6507L110.014 34.0038L110.42 33.3361C110.992 32.3949 110.969 31.7473 110.339 31.0593C109.898 30.5783 109.778 30.5796 109.49 31.0679ZM114.134 30.953C113.351 31.6339 113.245 32.3867 113.818 33.1852C114.021 33.4692 114.188 33.764 114.188 33.8403C114.188 34.1167 114.391 33.967 114.867 33.3395C115.441 32.5823 115.462 32.3672 115.042 31.5146C114.561 30.5388 114.589 30.5565 114.134 30.953ZM105.652 31.9565C105.737 32.4751 106.234 33.4548 106.412 33.4548C106.698 33.4548 106.886 33.0075 106.886 32.3282C106.886 31.6849 106.879 31.6695 106.634 31.7307C106.495 31.7652 106.203 31.7447 105.986 31.6852L105.59 31.5768L105.652 31.9565ZM118.262 31.6823C118.088 31.7358 117.841 31.7552 117.714 31.7255C117.545 31.6859 117.464 31.7303 117.413 31.8919C117.296 32.2567 117.466 33.0206 117.732 33.3257L117.982 33.6121L118.305 32.9304C118.65 32.2012 118.824 31.5613 118.673 31.5761C118.622 31.581 118.437 31.6288 118.262 31.6823ZM96.6774 31.8924C95.3221 32.0904 94.4656 32.602 94.1932 33.3763C94.0939 33.6587 94.1103 33.6875 94.451 33.8286C94.6511 33.9114 95.0047 33.9792 95.2366 33.9792C95.7491 33.9792 96.9058 33.5773 97.3221 33.2546C97.583 33.0524 98.3578 31.9864 98.286 31.9286C98.1754 31.8398 97.1889 31.8177 96.6774 31.8924ZM111.807 31.9495C111.409 32.1555 111.225 32.3829 111.225 32.6678C111.225 32.8761 112.062 34.3006 112.177 34.2879C112.244 34.2807 112.994 33.1286 113.085 32.894C113.217 32.5547 113.03 32.2037 112.603 31.9878C112.115 31.7408 112.202 31.745 111.807 31.9495ZM126.385 31.8568C126.196 31.8778 126.042 31.9274 126.044 31.967C126.046 32.0066 126.224 32.2981 126.441 32.6149C126.754 33.0728 126.975 33.2611 127.522 33.5341C128.384 33.9643 129.295 34.0805 129.886 33.8358L130.292 33.6679L130.045 33.2298C129.909 32.989 129.631 32.6596 129.427 32.498C128.89 32.0715 127.358 31.7487 126.385 31.8568ZM92.4405 33.4108C89.9412 33.8445 89.3558 33.9958 88.419 34.4504C87.8952 34.7045 87.2327 35.1137 86.947 35.3597C86.424 35.81 85.5088 36.9505 85.5088 37.152C85.5088 37.2231 85.8816 37.2415 86.5935 37.2054C87.8417 37.1422 88.9531 36.8177 90.6588 36.0184C91.2313 35.7502 92.3761 35.2589 93.2029 34.9269C94.5977 34.3666 94.6869 34.3145 94.4414 34.2035C94.0651 34.0337 93.9798 34.0465 93.066 34.409C91.6289 34.9794 89.3845 35.4513 89.5769 35.1427C89.7541 34.8584 92.4096 33.6978 93.3124 33.51C93.5009 33.4707 93.6823 33.3951 93.7155 33.3419C93.7949 33.2145 93.4703 33.232 92.4405 33.4108ZM130.497 33.2917C130.523 33.3173 130.995 33.4867 131.547 33.668C132.628 34.0234 134.323 34.788 134.666 35.0747C135.056 35.4006 133.549 35.1759 132.179 34.7037C130.287 34.0518 130.261 34.0461 129.903 34.1856C129.591 34.3073 129.606 34.3174 130.856 34.8152C131.554 35.0935 132.765 35.6096 133.547 35.9623C135.416 36.8059 136.464 37.1268 137.593 37.2003C138.825 37.2807 138.909 37.2426 138.608 36.7379C137.977 35.6782 136.504 34.5684 135.078 34.0789C134.214 33.7821 130.316 33.1123 130.497 33.2917ZM106.791 33.6009L106.553 33.8519L106.915 34.1253C107.294 34.4119 107.521 34.4734 107.521 34.2896C107.521 34.1753 107.117 33.3499 107.061 33.3499C107.043 33.3499 106.922 33.4629 106.791 33.6009ZM108.368 34.0606C108.088 34.4688 107.908 34.8422 107.929 34.9682C108.019 35.495 108.871 36.8108 109.122 36.8108C109.31 36.8108 109.849 35.5159 109.849 35.0636C109.849 34.7119 109.764 34.5185 109.411 34.0673C109.169 33.7593 108.943 33.4757 108.908 33.4372C108.873 33.3986 108.63 33.6791 108.368 34.0606ZM116.998 33.8642C116.686 34.4743 116.81 34.5772 117.367 34.1692C117.734 33.9008 117.756 33.7648 117.476 33.5134C117.277 33.3356 117.262 33.3465 116.998 33.8642ZM96.8852 33.9555C95.7458 34.5849 95.6783 34.6954 96.2238 35.0361C96.8764 35.4436 98.236 35.143 99.0866 34.403C99.3018 34.2156 99.478 33.9728 99.478 33.8634C99.478 33.6884 99.3948 33.6646 98.7831 33.6646C98.401 33.6646 98.0082 33.6248 97.9101 33.5761C97.7833 33.5133 97.4874 33.6228 96.8852 33.9555ZM110.817 33.594C110.393 34.0996 110.193 35.2647 110.431 35.8319C110.584 36.1948 111.179 36.9163 111.325 36.9152C111.527 36.9139 112.001 35.1437 111.884 34.8265C111.816 34.6401 111.025 33.4548 110.969 33.4548C110.95 33.4548 110.881 33.5174 110.817 33.594ZM112.831 34.1664C112.428 34.7859 112.381 34.921 112.436 35.2901C112.513 35.8144 112.915 36.9156 113.029 36.9156C113.171 36.9156 113.875 36.0449 113.94 35.7872C114.106 35.1291 113.737 33.5937 113.387 33.4911C113.333 33.4751 113.083 33.779 112.831 34.1664ZM115.017 33.953C114.475 34.6669 114.393 34.8618 114.469 35.2553C114.552 35.6866 115.109 36.8108 115.239 36.8108C115.504 36.8108 116.403 35.3358 116.408 34.8917C116.41 34.7068 115.583 33.4548 115.459 33.4548C115.424 33.4548 115.225 33.6789 115.017 33.953ZM126.358 33.5597C126.271 33.6156 125.878 33.662 125.485 33.663C125.082 33.6638 124.771 33.7101 124.771 33.7691C124.771 33.8267 124.938 34.057 125.142 34.281C125.825 35.0302 127.238 35.4312 127.974 35.085C128.685 34.7507 128.586 34.569 127.319 33.8791C126.891 33.6458 126.535 33.4555 126.529 33.4564C126.522 33.4573 126.446 33.5038 126.358 33.5597ZM106.08 34.5103C105.681 34.6923 105.64 34.7491 105.59 35.1817C105.561 35.4415 105.46 35.7698 105.367 35.9111C105.219 36.1338 105.154 36.1557 104.872 36.0758L104.548 35.9836L104.758 36.3208C104.874 36.5062 105.069 37.0345 105.191 37.4948C105.488 38.606 105.718 39.2229 105.836 39.2229C105.89 39.2229 105.934 39.1734 105.934 39.1129C105.934 39.0523 106.243 38.3538 106.621 37.5604C107.22 36.3059 107.309 36.0394 107.309 35.5146C107.309 34.9687 107.277 34.8818 106.968 34.6025C106.575 34.2468 106.642 34.2537 106.08 34.5103ZM117.382 34.5885C117.065 34.8487 117.029 34.9356 117.016 35.4615C117.004 35.9762 117.09 36.234 117.737 37.6341C118.14 38.5079 118.503 39.2229 118.543 39.2229C118.627 39.2229 118.864 38.5269 119.112 37.5512C119.207 37.1797 119.376 36.6978 119.488 36.4804C119.748 35.9746 119.745 35.9567 119.42 36.0793C119.27 36.1355 119.128 36.1815 119.104 36.1815C118.998 36.1815 118.739 35.3923 118.739 35.0725C118.739 34.7579 118.69 34.7018 118.249 34.5085C117.98 34.3904 117.753 34.2951 117.746 34.2966C117.739 34.2982 117.575 34.4295 117.382 34.5885ZM93.6436 35.1807C91.0849 36.2008 90.5088 36.5046 89.8179 37.1981C89.0808 37.9378 88.8828 38.215 88.4086 39.1704L88.0444 39.9046L88.48 39.9373C89.0628 39.9811 89.8408 39.8062 90.5571 39.4705C91.1683 39.1839 91.8805 38.6177 93.7641 36.921C94.3756 36.3701 95.0812 35.747 95.3319 35.5364C95.9624 35.0068 95.7071 34.9294 95.0436 35.4492C94.201 36.1093 92.7717 37.0037 92.0196 37.3416C91.2003 37.7097 91.1824 37.7119 91.3374 37.4249C91.762 36.6388 93.0929 35.6667 94.6364 35.0153C95.0875 34.825 95.4566 34.6319 95.4566 34.5864C95.4566 34.4608 95.4179 34.4734 93.6436 35.1807ZM128.902 34.571C128.904 34.6204 129.53 34.9615 130.292 35.3291C131.446 35.885 131.792 36.1094 132.352 36.6643C133.189 37.4936 133.243 37.7343 132.523 37.4296C131.671 37.0693 130.773 36.5357 129.702 35.7534C128.572 34.928 128.21 34.8548 129.112 35.6342C129.427 35.9063 130.281 36.6667 131.011 37.3237C132.691 38.8364 133.406 39.3624 134.166 39.6441C134.921 39.9244 136.2 40.0531 136.2 39.849C136.2 39.7727 136.024 39.353 135.809 38.9161C135.521 38.3324 135.205 37.9124 134.618 37.3323C133.641 36.3671 133.45 36.2713 129.03 34.5331C128.958 34.5045 128.9 34.5216 128.902 34.571ZM98.6834 35.0116C97.8669 35.3943 97.3615 35.9483 97.3615 36.4604V36.8368L97.9472 36.7886C98.5735 36.7371 99.2203 36.3762 99.6029 35.8648C99.7935 35.6099 99.7939 35.5847 99.6128 35.158C99.5096 34.9145 99.4013 34.715 99.3722 34.7144C99.3431 34.7139 99.0331 34.8476 98.6834 35.0116ZM124.742 35.1591C124.561 35.5841 124.561 35.6103 124.749 35.8648C124.857 36.0102 125.176 36.2847 125.459 36.4749C125.887 36.7623 126.055 36.8154 126.457 36.7895L126.94 36.7583L126.928 36.3589C126.913 35.8812 126.578 35.4923 125.848 35.1047C125.006 34.6579 124.954 34.6605 124.742 35.1591ZM103.509 35.4888C103.403 35.6156 103.379 35.9658 103.412 36.9024C103.454 38.0472 103.485 38.2029 103.799 38.836C104.186 39.6137 104.587 39.9991 105.198 40.1808C105.709 40.3323 105.784 40.2754 105.583 39.8881C105.498 39.7241 105.252 38.9764 105.037 38.2266C104.647 36.8726 104.343 36.1826 103.887 35.6158C103.674 35.3501 103.636 35.3373 103.509 35.4888ZM120.4 35.6782C119.968 36.2493 119.722 36.8196 119.319 38.1793C119.109 38.8905 118.867 39.6359 118.783 39.8356C118.699 40.0354 118.654 40.2228 118.684 40.2521C118.812 40.3793 119.619 40.0218 119.955 39.6886C120.672 38.9779 120.958 38.0957 120.96 36.5876C120.961 35.3603 120.818 35.1268 120.4 35.6782ZM101.698 36.3437C101.413 37.0408 101.447 37.896 101.787 38.5558C102.088 39.1403 102.285 39.2898 102.511 39.1046C102.998 38.7065 103.226 37.4474 103.014 36.3282C102.958 36.0316 102.901 35.9653 102.719 35.9869C102.595 36.0016 102.39 35.957 102.263 35.8878C102.136 35.8187 102.01 35.762 101.984 35.762C101.958 35.762 101.829 36.0238 101.698 36.3437ZM122.072 35.8669C122.036 35.9246 121.869 35.9718 121.7 35.9718C121.432 35.9718 121.385 36.019 121.322 36.3516C121.165 37.1784 121.223 38.1047 121.459 38.5482C121.584 38.7828 121.767 39.0409 121.865 39.1219C122.024 39.252 122.074 39.2329 122.298 38.9576C122.587 38.6032 122.866 37.775 122.866 37.2729C122.866 37.0867 122.764 36.6706 122.64 36.3482C122.427 35.7981 122.223 35.625 122.072 35.8669ZM107.752 36.6355C107.636 36.8947 107.508 37.2099 107.468 37.3361C107.34 37.7359 107.518 38.4532 107.862 38.9243L108.193 39.3771L108.492 38.7495C108.924 37.8393 108.867 37.3486 108.229 36.5138L107.962 36.1643L107.752 36.6355ZM115.955 36.7611C115.473 37.525 115.446 38.003 115.84 38.7864C116.161 39.4253 116.249 39.4018 116.67 38.5644C117.014 37.8795 117.009 37.5351 116.643 36.7644L116.346 36.1411L115.955 36.7611ZM109.607 36.8778C109.095 37.6486 109.067 38.2559 109.514 38.8663C110.065 39.618 110.112 39.6243 110.477 38.9945C110.951 38.174 110.946 37.6522 110.454 36.837C110.271 36.5342 110.095 36.2864 110.061 36.2864C110.028 36.2864 109.823 36.5526 109.607 36.8778ZM113.886 36.8148C113.425 37.6127 113.381 37.9424 113.655 38.5567C114.034 39.4083 114.174 39.5747 114.372 39.4134C114.709 39.1394 115.141 38.3413 115.141 37.9929C115.141 37.5468 114.929 37.0655 114.532 36.605L114.218 36.2419L113.886 36.8148ZM111.751 37.2565C111.284 37.9867 111.284 38.3861 111.752 39.1522C111.952 39.4795 112.144 39.7472 112.177 39.7472C112.336 39.7472 112.96 38.5344 112.96 38.2266C112.96 37.9117 112.334 36.7059 112.171 36.7059C112.134 36.7059 111.945 36.9537 111.751 37.2565ZM100.776 37.5711C100.719 37.6433 100.615 38.0797 100.545 38.5412C100.374 39.6682 100.055 40.8207 99.7672 41.3542L99.5309 41.7923L99.5001 41.1082C99.4762 40.5756 99.5497 40.1509 99.8318 39.1896C100.041 38.4755 100.144 37.9711 100.074 37.9931C99.8776 38.0553 99.2867 39.0126 98.9494 39.815C98.352 41.2363 98.1841 42.2809 98.4207 43.1032C98.6133 43.7725 98.6623 43.7936 99.1893 43.4343C100.315 42.6667 100.715 41.8232 100.945 39.7303C101.189 37.5141 101.191 37.44 101.031 37.44C100.948 37.44 100.833 37.4991 100.776 37.5711ZM123.232 38.2953C123.498 41.5102 123.954 42.6943 125.234 43.4952C125.7 43.7866 125.749 43.756 125.947 43.0508C126.1 42.509 126.004 41.4308 125.737 40.6694C125.313 39.4638 124.367 37.7987 124.203 37.9703C124.179 37.9958 124.302 38.4652 124.477 39.0131C124.863 40.2205 125.023 41.9106 124.725 41.6271C124.451 41.3675 124.042 40.0683 123.86 38.8867C123.676 37.682 123.613 37.5084 123.345 37.4563C123.176 37.4232 123.166 37.4956 123.232 38.2953ZM53.0174 38.515C53.0162 38.6448 53.1422 42.0946 53.2976 46.1813C53.528 52.2435 53.5546 53.6271 53.4426 53.6957C53.3671 53.7419 52.832 53.7776 52.2537 53.775C51.2854 53.7706 51.1952 53.7526 51.1137 53.5493C51.0651 53.4278 50.9726 51.4643 50.9084 49.1859C50.7899 44.9867 50.7364 44.1134 50.6018 44.1719C50.5607 44.1898 49.8033 44.9595 48.9189 45.8824L47.3108 47.5604L47.3079 50.5627C47.3057 52.8346 47.2728 53.5909 47.1727 53.672C47.0357 53.7827 45.2772 53.8338 44.9503 53.7365C44.7762 53.6847 44.7651 53.2385 44.7651 46.2915V38.9016L46.0086 38.9311L47.2521 38.9607L47.305 41.459L47.3579 43.9572L48.1011 43.1894C48.5099 42.7671 49.7445 41.4895 50.8446 40.3503C51.9448 39.211 52.8842 38.279 52.9323 38.279C52.9803 38.279 53.0186 38.3851 53.0174 38.515ZM64.5989 39.354C64.6344 39.9451 64.7133 41.8211 64.7744 43.5227C64.8354 45.2243 64.9477 48.1975 65.0239 50.1298C65.1001 52.0621 65.141 53.6666 65.1146 53.6955C65.025 53.7937 62.7679 53.7996 62.7068 53.7018C62.6427 53.599 62.4993 50.4444 62.3755 46.4132L62.3016 44.0075L60.5757 45.784L58.8497 47.5604L58.8449 50.6167C58.8411 53.0856 58.8127 53.6835 58.697 53.7275C58.6183 53.7575 58.0706 53.7826 57.48 53.7836L56.4062 53.7853L56.3918 53.3471C56.3452 51.9257 56.3234 39.4366 56.3671 39.2037C56.4192 38.9257 56.4316 38.9219 57.3919 38.8891C59.0128 38.8336 58.8319 38.5193 58.8647 41.4485L58.8931 43.9746L61.6427 41.1268C63.1551 39.5606 64.4244 38.279 64.4634 38.279C64.5025 38.279 64.5635 38.7628 64.5989 39.354ZM20.9049 38.9023C22.5726 39.716 23.5444 41.9137 23.7595 45.358C24.016 49.4654 22.6799 53.014 20.5844 53.791C18.8092 54.4492 17.1212 53.6717 16.1918 51.7676C15.2069 49.7496 14.8847 46.2988 15.405 43.342C16.0826 39.4915 18.354 37.6578 20.9049 38.9023ZM33.1241 39.7921V41.0955L32.5156 41.1648C30.4008 41.4058 29.2773 42.2854 28.6152 44.2184C28.375 44.9192 28.332 45.2248 28.3286 46.2494C28.3241 47.6003 28.4861 48.3179 29.0202 49.3156C29.6341 50.4624 30.8844 51.3339 32.0841 51.4514C33.2218 51.5628 33.1241 51.425 33.1241 52.9173V54.2325L32.3568 54.165C31.4043 54.0812 30.2006 53.772 29.545 53.4428C26.7755 52.0521 25.2696 48.7494 25.7159 45.0448C25.9609 43.0121 26.5892 41.6075 27.7871 40.415C29.0044 39.203 30.5907 38.5832 32.6743 38.5055L33.1241 38.4888V39.7921ZM42.4369 39.7921V41.0955L41.8284 41.1648C40.4461 41.3223 39.6566 41.6744 38.9086 42.4668C37.5362 43.9208 37.176 46.6385 38.0642 48.8373C38.6121 50.1936 40.0383 51.3173 41.3796 51.4494C42.5378 51.5634 42.4369 51.4234 42.4369 52.9173V54.2325L41.6696 54.165C39.8068 54.0011 38.2735 53.3413 37.1521 52.221C36.3135 51.3832 35.8445 50.6284 35.4458 49.4755C34.6564 47.1918 34.8141 44.1779 35.8329 42.0787C36.2942 41.1284 37.2911 40.054 38.2182 39.5079C39.2175 38.9194 40.6387 38.5399 41.9871 38.5015L42.4369 38.4888V39.7921ZM10.924 39.3054C12.6019 40.1247 13.4527 41.9651 13.4554 44.7812C13.4582 47.8253 12.5105 49.7815 10.8955 50.0653C10.4639 50.1411 9.51221 49.8959 9.31252 49.6575C9.24024 49.5712 9.13928 49.5005 9.08827 49.5005C9.03715 49.5005 8.99535 50.4444 8.99535 51.598V53.6955H7.77833H6.56132L6.55497 51.5193C6.54565 48.3458 6.5447 39.535 6.5537 39.1879L6.56132 38.8909L8.3896 38.9258C10.2116 38.9606 10.2204 38.9618 10.924 39.3054ZM108.626 39.379C108.23 39.8934 108.17 40.5772 108.463 41.2484C108.584 41.5261 108.72 41.7311 108.764 41.7041C108.808 41.677 109.011 41.346 109.214 40.9686L109.584 40.2824L109.373 39.6812C109.256 39.3504 109.106 39.0623 109.039 39.0409C108.971 39.0195 108.785 39.1717 108.626 39.379ZM115.032 39.4588C114.76 40.0531 114.771 40.2845 115.106 40.9621C115.511 41.7826 115.622 41.8425 115.835 41.3553C116.206 40.5015 116.127 39.806 115.588 39.1967C115.347 38.9246 115.257 38.9669 115.032 39.4588ZM110.521 39.6164C109.841 40.6301 109.807 40.9074 110.239 41.884C110.396 42.2374 110.538 42.5458 110.556 42.5695C110.638 42.6783 111.042 42.1735 111.331 41.602C111.686 40.8981 111.726 40.4492 111.485 39.8788C111.325 39.4987 111.041 39.1178 110.917 39.1182C110.883 39.1183 110.704 39.3424 110.521 39.6164ZM113.155 39.354C112.686 39.85 112.575 40.6673 112.878 41.3862C113.069 41.8416 113.565 42.5732 113.684 42.5766C113.815 42.5804 114.285 41.5715 114.355 41.135C114.402 40.8458 114.367 40.6163 114.24 40.3661C113.972 39.8391 113.509 39.1184 113.439 39.1182C113.406 39.1181 113.278 39.2241 113.155 39.354ZM19.0792 41.0249C18.0422 41.2984 17.5082 43.3325 17.5916 46.6917C17.6537 49.1975 17.9575 50.5014 18.6546 51.2556C19.0899 51.7265 19.835 51.6474 20.2943 51.0815C21.2829 49.8631 21.601 44.8602 20.8441 42.4344C20.4999 41.3312 19.8591 40.8194 19.0792 41.0249ZM9.03514 41.264C9.00244 41.3484 8.99292 42.54 9.01387 43.9121C9.0489 46.2079 9.07038 46.4466 9.28278 46.9062C9.40977 47.1808 9.58767 47.4337 9.67805 47.4681C10.0156 47.5964 10.3668 47.4029 10.608 46.9557C10.8264 46.5505 10.8471 46.3738 10.8453 44.9385C10.8424 42.7028 10.4702 41.6308 9.56682 41.2568C9.12838 41.0753 9.10816 41.0755 9.03514 41.264ZM111.889 41.453C111.471 42.1544 111.299 42.7642 111.371 43.2851C111.444 43.8131 112.053 45.5153 112.169 45.5153C112.265 45.5153 112.785 44.1657 112.923 43.5564C112.986 43.2783 113.006 42.8856 112.969 42.6837C112.894 42.2808 112.302 41.1106 112.173 41.1106C112.129 41.1106 112.001 41.2647 111.889 41.453ZM109.037 41.9234C108.503 42.5848 108.449 42.7378 108.615 43.127C108.696 43.3158 108.864 43.5609 108.99 43.6717C109.216 43.8715 109.22 43.8709 109.525 43.5815C109.962 43.1663 110.007 42.8593 109.737 42.142C109.61 41.8055 109.472 41.5301 109.431 41.5301C109.389 41.5301 109.212 41.7071 109.037 41.9234ZM114.625 42.0684C114.501 42.3646 114.4 42.6994 114.4 42.8126C114.4 43.0875 114.69 43.56 114.961 43.7283C115.157 43.8494 115.213 43.8284 115.478 43.5345C115.901 43.066 115.876 42.6361 115.391 42.0192C115.179 41.7502 114.972 41.5301 114.929 41.5301C114.886 41.5301 114.75 41.7724 114.625 42.0684ZM107.477 43.157C106.93 43.5318 106.016 44.3733 106.083 44.44C106.214 44.5699 108.368 43.7353 108.368 43.5546C108.368 43.4127 108.111 42.7888 108.055 42.7944C108.023 42.7975 107.763 42.9608 107.477 43.157ZM116.1 43.1749C115.971 43.53 115.977 43.5755 116.175 43.7348C116.428 43.9374 118.1 44.505 118.188 44.4178C118.283 44.3234 117.576 43.6434 116.919 43.1975C116.588 42.9726 116.299 42.7886 116.279 42.7886C116.258 42.7886 116.178 42.9625 116.1 43.1749ZM113.502 43.2605C113.699 44.1222 113.783 44.3494 114.068 44.7952C114.672 45.7383 115.578 46.1341 116.088 45.677C116.527 45.2832 116.357 45.0309 115.271 44.4658C114.906 44.276 114.343 43.8564 114.019 43.5333C113.462 42.9777 113.434 42.9629 113.502 43.2605ZM110.218 43.63C109.928 43.9231 109.39 44.3098 109.023 44.4894C108.37 44.809 107.903 45.2353 107.974 45.4475C107.994 45.506 108.181 45.642 108.391 45.7497C108.747 45.9329 108.798 45.9348 109.177 45.7778C109.681 45.5689 109.991 45.2843 110.321 44.7267C110.587 44.2766 110.852 43.4111 110.785 43.2114C110.764 43.1486 110.509 43.337 110.218 43.63ZM95.8909 43.8264C95.5898 44.1248 95.6108 44.4407 95.9692 45.0007C96.5397 45.8921 97.8254 46.7605 98.3732 46.6242C98.6914 46.5452 98.8949 46.1537 98.8041 45.7953C98.6305 45.11 97.1964 43.8176 96.4465 43.6709C96.1911 43.6209 96.0617 43.6572 95.8909 43.8264ZM127.575 43.7741C126.651 44.1766 125.512 45.4224 125.512 46.0299C125.512 46.5011 125.916 46.74 126.442 46.5806C127.29 46.3241 128.686 44.904 128.686 44.2989C128.686 44.0649 128.24 43.6237 128.011 43.6317C127.946 43.634 127.75 43.6981 127.575 43.7741ZM115.559 44.0005C115.487 44.0866 115.447 44.1677 115.469 44.1807C115.492 44.1937 115.697 44.2988 115.924 44.4141C116.161 44.534 116.42 44.7775 116.529 44.9824C116.634 45.1797 116.782 45.3796 116.856 45.4266C117.06 45.5547 117.551 45.5325 117.639 45.3912C117.742 45.2275 116.84 44.4217 116.19 44.0952C115.752 43.8751 115.674 43.8633 115.559 44.0005ZM107.944 44.2003C107.378 44.4957 106.62 45.2393 106.721 45.401C106.819 45.5573 107.38 45.5455 107.523 45.3842C107.587 45.3122 107.73 45.1017 107.841 44.9165C107.951 44.7314 108.236 44.4818 108.473 44.3619C108.894 44.1492 108.958 43.9373 108.599 43.9471C108.501 43.9497 108.206 44.0637 107.944 44.2003ZM105.29 45.0265C104.36 45.2598 103.453 45.7437 103.528 45.966C103.551 46.0342 103.756 46.143 103.984 46.2077C104.366 46.316 104.458 46.2965 105.14 45.962C105.832 45.6225 106.568 45.0573 106.568 44.8655C106.568 44.7397 106.294 44.7743 105.29 45.0265ZM118.004 45.1551C118.204 45.3607 118.716 45.7101 119.142 45.9313C119.841 46.2946 119.954 46.3237 120.306 46.2294C120.521 46.172 120.74 46.0841 120.793 46.0341C120.897 45.9356 120.564 45.6114 120.098 45.3583C119.843 45.2195 118.072 44.7812 117.767 44.7812C117.696 44.7812 117.803 44.9494 118.004 45.1551ZM95.3507 45.1459C95.3507 45.289 95.1583 45.9741 94.9233 46.6686C94.4003 48.2134 94.3094 48.9941 94.5459 49.9092C94.7588 50.7329 95.1175 51.3995 95.7984 52.2367C96.0848 52.589 96.4029 53.0259 96.5051 53.2077C96.69 53.5362 96.697 53.5384 97.6452 53.5682C98.4191 53.5924 98.626 53.5662 98.7408 53.429C98.9302 53.2029 98.7234 53.07 98.1782 53.0678C96.7026 53.0619 95.9076 51.4887 96.6567 50.0566C96.9571 49.4821 97.8293 48.9753 98.5149 48.9768C99.4754 48.9788 100.407 49.7061 100.649 50.6427L100.791 51.1892L100.989 50.8058C101.162 50.4717 101.17 50.38 101.05 50.0933C100.855 49.6274 100.255 49.0001 99.7498 48.735C99.4195 48.5617 99.1345 48.509 98.5256 48.509C97.5838 48.509 97.0859 48.7251 96.47 49.4007L96.0691 49.8403L96.1459 49.4869C96.2339 49.0824 96.7468 47.9626 96.9667 47.6953C97.048 47.5964 97.3188 47.4006 97.5684 47.2601L98.0222 47.0046L97.5276 46.7878C97.0044 46.5585 95.7167 45.4122 95.6107 45.0817C95.5204 44.7992 95.3507 44.8412 95.3507 45.1459ZM128.792 44.9871C128.792 45.2296 127.499 46.4366 126.937 46.7181L126.337 47.0191L126.639 47.1718C127.069 47.3894 127.301 47.6074 127.6 48.0736C127.854 48.4693 128.299 49.6043 128.229 49.6744C128.21 49.6935 127.977 49.5033 127.713 49.2521C127.169 48.7361 126.462 48.4518 125.721 48.4518C125.083 48.4518 124.045 48.956 123.664 49.4515C123.215 50.035 123.142 50.3557 123.35 50.8261L123.529 51.2309L123.62 50.8343C123.871 49.7368 124.765 48.9762 125.805 48.9762C126.403 48.9762 127.27 49.4436 127.606 49.9475C128.007 50.5478 128.056 51.5824 127.712 52.165C127.356 52.7668 127.018 52.9694 126.259 53.0377C125.822 53.0769 125.579 53.1486 125.54 53.2496C125.442 53.5028 125.73 53.5874 126.699 53.589C127.62 53.5906 127.623 53.5896 127.788 53.2746C127.878 53.1008 128.201 52.6506 128.505 52.2742C129.582 50.9394 130.042 49.7124 129.916 48.5147C129.88 48.172 129.66 47.3475 129.427 46.6825C129.194 46.0173 129.004 45.3411 129.004 45.1796C129.004 45.0182 128.956 44.8861 128.898 44.8861C128.84 44.8861 128.792 44.9316 128.792 44.9871ZM105.68 45.9844C104.813 46.3373 104.774 46.4037 105.278 46.6584L105.706 46.8747L106.137 46.3639C106.374 46.0831 106.568 45.8244 106.568 45.7891C106.568 45.6711 106.309 45.7282 105.68 45.9844ZM117.768 45.7782C117.732 45.8137 117.805 45.9459 117.93 46.0723C118.054 46.1986 118.233 46.418 118.325 46.56C118.489 46.8099 118.508 46.8134 118.939 46.6725C119.184 46.5925 119.409 46.4871 119.44 46.4383C119.542 46.2739 117.916 45.6317 117.768 45.7782ZM110.152 45.961C110.064 46.0332 109.829 46.3045 109.629 46.564C109.207 47.1151 109.046 47.2624 108.259 47.8232C107.704 48.2181 107.219 48.8164 107.349 48.9451C107.436 49.0322 108.05 48.7716 108.457 48.4742C108.652 48.332 109.079 47.8912 109.406 47.4947C110.068 46.6915 110.34 46.566 110.231 47.1146C110.112 47.7099 109.61 48.3629 108.797 48.9788C108.364 49.307 107.923 49.7356 107.816 49.9313L107.623 50.2871L107.881 50.3195C108.194 50.3587 108.865 50.0332 109.361 49.6018C109.843 49.1821 110.356 48.3757 110.648 47.5785C110.882 46.9363 110.883 46.928 110.684 46.542C110.574 46.328 110.484 46.0803 110.484 45.9914C110.484 45.7958 110.368 45.7852 110.152 45.961ZM113.871 45.9398C113.871 46.0004 113.775 46.2461 113.658 46.4859C113.415 46.9846 113.457 47.208 113.997 48.2771C114.524 49.3206 115.547 50.2169 116.369 50.3549C116.955 50.4532 116.532 49.7216 115.603 49.0287C114.726 48.3745 114.227 47.7664 114.125 47.2284C114.022 46.6838 114.161 46.6744 114.634 47.1939C115.691 48.3551 116.04 48.664 116.478 48.8301C116.735 48.9271 116.976 48.9752 117.014 48.9371C117.142 48.8106 116.667 48.3019 115.848 47.6897C115.404 47.357 114.987 46.9871 114.923 46.8676C114.762 46.569 114.079 45.8299 113.964 45.8299C113.913 45.8299 113.871 45.8794 113.871 45.9398ZM103.079 46.5079C102.826 46.81 103.033 47.0048 103.579 46.9797C104.338 46.9446 104.432 46.966 104.504 47.1895C104.556 47.3534 104.633 47.3829 104.88 47.334C105.136 47.2832 105.246 47.3328 105.518 47.6207L105.846 47.9687L105.81 47.6631C105.753 47.1669 105.332 46.9475 103.382 46.3976C103.288 46.3712 103.152 46.4208 103.079 46.5079ZM120.162 46.6063C119.209 46.9067 118.559 47.2692 118.488 47.5407C118.39 47.9127 118.531 47.9392 118.817 47.6024C119.052 47.3254 119.146 47.2852 119.445 47.3333C119.701 47.3744 119.797 47.3505 119.797 47.2453C119.797 47.0164 119.987 46.9557 120.658 46.9706C121.326 46.9856 121.541 46.8254 121.277 46.5103C121.114 46.3156 121.074 46.3191 120.162 46.6063ZM103.142 47.5378C102.797 47.8801 102.116 49.0676 101.343 50.6776C100.975 51.4434 100.573 52.1587 100.449 52.2671C100.17 52.5123 99.7422 52.4463 99.1865 52.072C98.5737 51.6595 97.5933 51.7502 97.1673 52.2588C96.9848 52.4767 97.1788 52.5881 97.9901 52.7311C98.3649 52.7971 99.0126 53.0181 99.4293 53.2222C99.8461 53.4263 100.369 53.6045 100.591 53.6182C100.994 53.643 100.995 53.6418 101.172 53.0662C101.37 52.424 102.097 50.9269 102.46 50.4117C103.259 49.2794 104.073 48.6004 105.006 48.2868C105.436 48.1425 105.493 48.0913 105.406 47.9303C105.245 47.6319 104.98 47.5927 104.605 47.8117C104.208 48.0441 104.134 48.0105 104.134 47.5953C104.134 47.3249 104.101 47.2982 103.759 47.2982C103.51 47.2982 103.303 47.3783 103.142 47.5378ZM120.22 47.5953C120.22 48.0142 120.143 48.0479 119.711 47.8181C119.386 47.6458 119.299 47.6365 119.119 47.7545C118.778 47.9793 118.809 48.1095 119.236 48.2449C120.792 48.738 122.208 50.4378 123.077 52.8565L123.36 53.643L123.774 53.6107C124.002 53.593 124.524 53.4156 124.933 53.2163C125.342 53.0171 125.985 52.8014 126.362 52.7371C127.167 52.5997 127.373 52.4805 127.187 52.2588C126.74 51.725 125.812 51.6661 125.035 52.1224C124.744 52.2934 124.408 52.4343 124.288 52.4352C123.934 52.4381 123.547 51.9308 123.017 50.7671C122.428 49.4734 121.571 47.9595 121.21 47.5736C121.028 47.3786 120.846 47.2982 120.586 47.2982C120.255 47.2982 120.22 47.3263 120.22 47.5953ZM111.704 49.7374C111.473 50.0974 110.711 50.976 110.011 51.6898C109.121 52.597 108.818 52.9648 109.003 52.9119C109.445 52.7853 110.37 52.3523 110.711 52.1119C111.028 51.8876 111.039 51.8871 111.586 52.0716C112.116 52.2501 112.166 52.2502 112.734 52.0733C113.32 51.8906 113.331 51.8911 113.647 52.1137C113.984 52.3515 114.907 52.7841 115.352 52.9127C115.535 52.9655 115.192 52.5545 114.241 51.5821C113.484 50.8082 112.722 49.9299 112.548 49.6301C112.373 49.3304 112.206 49.0847 112.177 49.0841C112.148 49.0833 111.935 49.3774 111.704 49.7374ZM110.161 49.8938C109.58 50.7004 108.898 51.3817 108.029 52.024C107.58 52.3551 107.152 52.6474 107.076 52.6735C106.973 52.7092 106.987 52.775 107.134 52.939L107.329 53.1571L107.875 52.8248C108.587 52.3913 109.939 51.107 110.596 50.24C110.883 49.8621 111.117 49.5176 111.118 49.4743C111.119 49.431 110.984 49.3956 110.82 49.3956C110.583 49.3956 110.444 49.5006 110.161 49.8938ZM113.576 50.0377C114.576 51.4544 116.78 53.3281 117.118 53.0499C117.371 52.8424 117.265 52.689 116.524 52.1875C115.771 51.6775 114.551 50.4783 114.082 49.7871C113.867 49.4698 113.753 49.3969 113.47 49.3964L113.122 49.3956L113.576 50.0377ZM103.923 50.6662V51.6221L104.184 51.4527C104.327 51.3596 104.486 51.2834 104.536 51.2834C104.586 51.2834 105.457 52.4386 106.471 53.8504C107.485 55.2623 108.34 56.4185 108.371 56.4198C108.402 56.4212 108.507 56.2888 108.604 56.1257L108.781 55.8292L106.98 53.3341L105.18 50.8388L105.414 50.5919C105.638 50.3549 105.64 50.3421 105.447 50.2742C105.336 50.2353 104.964 50.0925 104.619 49.9568C104.274 49.8212 103.977 49.7103 103.957 49.7103C103.938 49.7103 103.923 50.1405 103.923 50.6662ZM119.446 50.0517L118.618 50.3723L118.893 50.5919L119.169 50.8114L116.44 54.6106C114.94 56.7002 113.664 58.3959 113.606 58.3789C113.548 58.362 112.905 57.2786 112.177 55.9713C111.45 54.6642 110.817 53.5938 110.77 53.5926C110.724 53.5915 110.081 54.5114 109.342 55.6368C108.419 57.041 107.947 57.67 107.838 57.6414C107.751 57.6184 107.596 57.5656 107.494 57.524C107.327 57.4555 107.309 57.5326 107.309 58.3512C107.309 58.8476 107.327 59.2538 107.348 59.2538C107.424 59.2538 108.938 58.6187 108.994 58.5628C109.026 58.5312 108.936 58.4185 108.794 58.3123L108.536 58.1194L109.589 56.5389C110.169 55.6696 110.672 54.9574 110.707 54.9562C110.742 54.955 111.165 55.6501 111.647 56.5009C112.128 57.3516 112.742 58.4368 113.011 58.9122C113.28 59.3877 113.524 59.7759 113.553 59.7748C113.582 59.7737 114.978 57.8626 116.656 55.528C118.333 53.1935 119.768 51.2834 119.844 51.2834C119.92 51.2834 120.041 51.3536 120.113 51.4395C120.185 51.5254 120.286 51.5698 120.338 51.5382C120.451 51.4688 120.465 49.7059 120.353 49.7208C120.309 49.7265 119.901 49.8754 119.446 50.0517ZM111.494 52.6467C111.615 52.9637 112.022 53.4844 112.15 53.485C112.27 53.4856 112.918 52.6991 112.918 52.5524C112.918 52.5177 112.584 52.4894 112.176 52.4894C111.561 52.4894 111.444 52.5162 111.494 52.6467ZM105.11 53.4903C104.675 53.6632 102.752 54.0094 101.84 54.0788C101.013 54.1418 100.951 54.1626 100.981 54.3668C101.008 54.5536 101.097 54.5917 101.569 54.6186C102.194 54.6543 103.684 54.4238 104.877 54.1069C105.897 53.8358 106.018 53.765 105.834 53.5461C105.68 53.3624 105.472 53.3464 105.11 53.4903ZM118.548 53.5067C118.478 53.5759 118.421 53.6645 118.421 53.7038C118.421 53.995 121.817 54.6958 122.866 54.6209C123.267 54.5923 123.348 54.5495 123.376 54.3509C123.407 54.1334 123.369 54.115 122.884 54.115C122.257 54.115 120.172 53.7706 119.427 53.5439C118.786 53.3492 118.71 53.3459 118.548 53.5067ZM99.1605 53.7844C99.1605 54.0299 99.8578 54.3549 100.282 54.307C100.705 54.2592 100.674 53.9998 100.219 53.7743C99.7099 53.5223 99.1605 53.5276 99.1605 53.7844ZM112.933 54.5802C112.388 55.5578 112.382 55.5793 112.545 55.8933C112.637 56.0688 112.746 56.2119 112.789 56.2112C112.831 56.2106 113.022 55.9274 113.213 55.582C113.405 55.2366 113.595 54.9541 113.637 54.9542C113.678 54.9543 113.852 55.1784 114.023 55.4523C114.194 55.7262 114.416 56.0577 114.517 56.1889L114.699 56.4276L114.914 56.1284L115.129 55.8293L114.394 54.7364C113.991 54.1352 113.621 53.6306 113.574 53.6148C113.526 53.5991 113.238 54.0335 112.933 54.5802ZM124.136 53.7743C123.61 54.0344 123.645 54.2746 124.206 54.2639C124.689 54.2547 125.194 53.9895 125.194 53.7455C125.194 53.5284 124.6 53.5446 124.136 53.7743ZM97.0452 53.9373C96.5865 54.093 96.5343 54.3184 96.8682 54.703L97.1265 55.0006L97.654 54.7559C98.3448 54.4352 98.7917 54.0775 98.6951 53.9226C98.5963 53.7641 97.5281 53.7736 97.0452 53.9373ZM125.617 53.9414C125.617 54.019 125.701 54.1551 125.803 54.2441C126.111 54.5132 127.111 54.9719 127.263 54.9141C127.446 54.8443 127.761 54.2438 127.682 54.1158C127.5 53.8241 125.617 53.6651 125.617 53.9414ZM98.5785 54.499C98.1211 54.7379 97.7848 55.0674 97.7848 55.2766C97.7848 55.5127 98.3669 55.7235 98.6315 55.5831C98.8991 55.4412 99.478 54.6958 99.478 54.4932C99.478 54.273 99.0051 54.2761 98.5785 54.499ZM124.877 54.5326C124.877 54.647 125.087 54.9582 125.344 55.2241C125.831 55.7273 126.08 55.7721 126.452 55.4228C126.67 55.2182 126.53 54.9907 125.97 54.639C125.377 54.266 124.877 54.2173 124.877 54.5326ZM99.5878 54.975C99.1952 55.3799 99.0443 55.6889 99.2399 55.6875C99.2836 55.6871 99.5098 55.6354 99.7426 55.5726C100.267 55.4308 100.642 55.1 100.642 54.7784C100.642 54.578 100.586 54.5345 100.329 54.5345C100.099 54.5345 99.9011 54.6519 99.5878 54.975ZM123.713 54.7784C123.713 55.1 124.087 55.4308 124.612 55.5726C124.845 55.6354 125.071 55.6871 125.115 55.6875C125.317 55.689 125.154 55.3777 124.74 54.9758C124.207 54.4571 123.713 54.3621 123.713 54.7784ZM109.451 57.3646C109.379 57.4792 109.32 57.6228 109.32 57.6836C109.32 57.8574 110.716 59.7782 110.803 59.7246C110.846 59.6983 111.126 59.2503 111.425 58.7291C111.957 57.803 111.965 57.7743 111.806 57.4688C111.716 57.297 111.608 57.1568 111.566 57.1576C111.524 57.1582 111.333 57.4414 111.141 57.7868C110.95 58.1322 110.757 58.4148 110.712 58.4148C110.668 58.4148 110.43 58.1316 110.184 57.7856C109.937 57.4395 109.702 57.1563 109.659 57.1563C109.617 57.1563 109.523 57.2501 109.451 57.3646ZM115.706 57.4288C115.556 57.6564 115.548 57.7365 115.661 57.9151C115.779 58.1032 115.761 58.1563 115.509 58.3555L115.222 58.582L115.949 58.8616C116.348 59.0153 116.758 59.1715 116.86 59.2087C117.028 59.2697 117.045 59.1891 117.045 58.3736C117.045 57.6576 117.014 57.4709 116.893 57.4709C116.809 57.4709 116.711 57.5181 116.675 57.5758C116.56 57.76 116.345 57.6888 116.199 57.4185C116.02 57.0872 115.931 57.0891 115.706 57.4288Z" fill="#0055A2"/>
</svg>
