<svg width="22" height="23" viewBox="0 0 22 23" fill="none" xmlns="http://www.w3.org/2000/svg">
<path fill-rule="evenodd" clip-rule="evenodd" d="M14.8456 0.761427C14.7681 0.887771 14.6421 1.30612 14.6729 1.33455C14.7208 1.37859 15.2114 1.56015 15.2305 1.54091C15.2386 1.5328 15.2935 1.39675 15.3526 1.23859L15.4601 0.950965L15.2355 0.865406C15.112 0.818379 14.979 0.767105 14.94 0.751501C14.901 0.735898 14.8585 0.740362 14.8456 0.761427ZM14.3386 2.06184C14.2092 2.39463 14.1733 2.52435 14.2034 2.55001C14.2447 2.58525 14.6878 2.76616 14.7328 2.76616C14.7637 2.76616 15.0003 2.19829 14.9781 2.17748C14.9639 2.16422 14.4186 1.94265 14.4001 1.94265C14.3918 1.94265 14.3641 1.99631 14.3386 2.06184ZM13.8335 3.3838C13.5062 4.20892 7.42043 20.0783 7.4283 20.0861C7.43368 20.0916 7.56952 20.1458 7.73014 20.2066L8.02213 20.3173L8.05861 20.2212C8.07867 20.1683 9.5407 16.3632 11.3075 11.7654C13.0744 7.16759 14.5143 3.40036 14.5073 3.39373C14.4945 3.38146 13.9496 3.15625 13.9329 3.15625C13.9278 3.15625 13.8831 3.25863 13.8335 3.3838ZM5.78155 4.78902C5.2388 4.86678 4.68435 5.11691 4.31018 5.45286C3.79148 5.91858 3.51425 6.53231 3.00795 8.33572C2.65538 9.59158 2.65396 9.59531 1.3834 12.67C0.683982 14.3625 0.0865008 15.8254 0.055607 15.9207C-0.025414 16.1708 -0.0162492 16.8244 0.0723447 17.1127C0.223888 17.6059 0.596593 18.0798 1.02442 18.3231C1.26683 18.4611 3.45569 19.386 3.75925 19.4789C3.86575 19.5114 4.0888 19.5505 4.25489 19.5657C4.97358 19.6315 5.7834 19.2117 6.15529 18.5805C6.23067 18.4526 6.87252 16.9436 7.58165 15.2272C8.85708 12.1401 8.8776 12.0947 9.49186 11.0013C10.1382 9.85077 10.4726 9.10398 10.5593 8.61745C10.7442 7.579 10.1464 6.38096 9.20224 5.89825C8.83272 5.70932 6.82389 4.89694 6.62059 4.85425C6.36664 4.8009 5.93357 4.76726 5.78155 4.78902ZM17.1145 4.80579C16.3332 4.91198 15.6838 5.34008 15.2458 6.03768C15.0145 6.4061 14.7556 7.12303 14.4243 8.31318L14.0802 9.54932L12.8097 12.6216C12.1109 14.3114 11.5093 15.7937 11.4726 15.9157C11.3796 16.2254 11.3843 16.8147 11.4821 17.111C11.6502 17.6204 11.9831 18.048 12.4078 18.2999C12.6368 18.4357 14.6458 19.2968 15.1052 19.456C15.8647 19.7192 16.6854 19.5288 17.2532 18.9575C17.3979 18.812 17.561 18.6056 17.6156 18.4988C17.6702 18.392 18.289 16.9177 18.9905 15.2225C20.2495 12.1805 20.2742 12.1259 20.8968 11.0144C21.5577 9.83443 21.8814 9.11152 21.9648 8.62928C22.1517 7.54792 21.5791 6.39864 20.6036 5.89743C20.2388 5.70997 18.3238 4.92607 18.0936 4.86994C17.7802 4.79353 17.3919 4.76809 17.1145 4.80579ZM6.30141 5.45342C6.37047 5.45342 6.42696 5.47249 6.42696 5.49581C6.42696 5.51913 6.32202 5.64391 6.1938 5.77312C5.91317 6.0558 5.51499 6.26294 5.12805 6.32752C4.83907 6.37576 4.44769 6.34633 4.44769 6.27633C4.44769 6.17309 4.9188 5.77637 5.2027 5.64058C5.48737 5.50435 5.97285 5.39669 6.11854 5.43739C6.15004 5.44623 6.23235 5.45342 6.30141 5.45342ZM17.8259 5.48125C17.8658 5.51627 17.5713 5.83146 17.3566 5.98364C17.0008 6.23576 16.7071 6.33159 16.2732 6.33718C16.0682 6.33978 15.8854 6.32682 15.867 6.30836C15.8486 6.2899 15.9389 6.16693 16.0677 6.03504C16.3647 5.73086 16.8011 5.50626 17.1844 5.46027C17.4375 5.42984 17.7801 5.44107 17.8259 5.48125ZM7.76452 5.98892L8.42775 6.26437L8.41553 6.41152C8.34797 7.22554 8.4117 7.63548 8.6934 8.19898C8.84073 8.49371 9.2482 8.95531 9.54457 9.16318L9.67176 9.25242L9.58313 9.46589C9.53442 9.5833 9.22105 10.1637 8.88681 10.7557C8.28894 11.8147 8.2596 11.8794 7.06868 14.7649C5.61361 18.2905 5.62923 18.2557 5.39275 18.4923C5.05202 18.8331 4.5757 18.9883 4.14035 18.9002C3.92065 18.8558 1.82081 18.0028 1.39002 17.783C1.01314 17.5907 0.694438 17.1146 0.63833 16.66C0.621635 16.5248 0.634974 16.3412 0.673096 16.1808C0.707088 16.0378 1.30767 14.5359 2.00773 12.8434C3.26452 9.80483 3.28466 9.7513 3.60672 8.59578C3.78614 7.95214 3.97426 7.31166 4.02482 7.17253C4.10997 6.9383 4.12503 6.92136 4.22843 6.94416C4.28987 6.95768 4.48711 6.98156 4.6667 6.99717C5.47782 7.06764 6.45192 6.60496 6.90337 5.9347C6.98447 5.81425 7.06222 5.71521 7.07608 5.71461C7.08993 5.714 7.39973 5.83744 7.76452 5.98892ZM19.2277 6.01055L19.8301 6.26463L19.8149 6.80173C19.8035 7.20586 19.8177 7.40858 19.8723 7.62057C20.0205 8.19529 20.4171 8.77778 20.874 9.09162L21.0911 9.24068L20.9916 9.46719C20.937 9.59175 20.6112 10.1976 20.2677 10.8134C19.6533 11.9151 19.623 11.9824 18.3843 14.9889C17.6919 16.6695 17.0694 18.1365 17.0011 18.2491C16.8566 18.4871 16.6302 18.6794 16.3375 18.813C16.179 18.8852 16.048 18.9077 15.7855 18.9074C15.4442 18.9071 15.4307 18.9027 14.215 18.3956C13.5405 18.1143 12.8956 17.8337 12.782 17.772C12.2601 17.4888 11.9521 16.8379 12.0625 16.2516C12.086 16.1266 12.6871 14.6175 13.3981 12.8982L14.6909 9.77202L15.0356 8.53597C15.2252 7.85613 15.4181 7.21375 15.4644 7.10838C15.5363 6.9445 15.5625 6.92075 15.6455 6.94381C15.6988 6.95863 15.8804 6.98308 16.0491 6.99816C16.9038 7.07457 17.8518 6.62095 18.3528 5.89582C18.4422 5.76649 18.5033 5.7169 18.5533 5.73311C18.5929 5.74599 18.8964 5.87081 19.2277 6.01055ZM9.41123 6.88157C9.786 7.28522 10.0126 7.96232 9.92838 8.42687L9.89039 8.63622L9.63188 8.37759C9.48967 8.23538 9.31941 8.01711 9.25345 7.89259C9.09558 7.59447 8.99408 7.10171 9.03001 6.80802C9.06327 6.53604 9.09627 6.54237 9.41123 6.88157ZM20.7626 6.81395C21.0336 7.08693 21.1995 7.37446 21.2916 7.73044C21.359 7.99097 21.3766 8.3463 21.3308 8.51854L21.3052 8.61472L21.1515 8.49687C20.9132 8.31422 20.6367 7.90394 20.5405 7.59018C20.4508 7.29766 20.4166 6.58034 20.4923 6.58034C20.5134 6.58034 20.635 6.68544 20.7626 6.81395ZM4.81881 7.89831C4.63641 7.9667 4.38659 8.18688 4.29796 8.35739C4.1965 8.55257 3.70921 10.2748 3.74544 10.3101C3.78997 10.3536 7.40756 11.8732 7.52417 11.8973C7.59693 11.9125 7.68229 11.7828 8.07707 11.0574C8.49259 10.2938 8.54642 10.1703 8.56664 9.93369C8.58562 9.71121 8.57176 9.62929 8.48145 9.43061C8.41798 9.291 8.3099 9.14437 8.21885 9.07437C8.1337 9.00897 7.48755 8.71189 6.78297 8.41417C5.39331 7.82701 5.1672 7.76763 4.81881 7.89831ZM16.2475 7.8925C16.0778 7.95769 15.8301 8.15147 15.7406 8.28909C15.6517 8.4257 15.1136 10.2774 15.1523 10.3135C15.1934 10.3519 18.9238 11.9115 18.9745 11.9115C18.9962 11.9115 19.2266 11.5263 19.4866 11.0555L19.9591 10.1995V9.84561C19.9591 9.52223 19.948 9.47594 19.8301 9.3079C19.7591 9.20678 19.651 9.08672 19.5898 9.04108C19.5287 8.9954 18.8994 8.71359 18.1914 8.41474C16.8203 7.83602 16.5697 7.76871 16.2475 7.8925ZM6.41608 8.96953C7.95333 9.6133 7.92876 9.59917 7.93155 9.84067C7.93297 9.96242 7.34474 11.088 7.27973 11.088C7.25068 11.088 4.54369 9.96723 4.4995 9.93689C4.49249 9.93208 4.56929 9.64788 4.67023 9.3053C4.86442 8.6461 4.95856 8.48742 5.15558 8.48742C5.21574 8.48742 5.78297 8.70435 6.41608 8.96953ZM17.9153 9.00572C18.5898 9.28931 19.1852 9.56025 19.2384 9.60788C19.4013 9.75355 19.3645 9.91713 19.0313 10.5295C18.8642 10.8366 18.7115 11.088 18.692 11.088C18.657 11.088 16.0083 9.9844 15.9377 9.9404C15.9177 9.92801 15.9858 9.63016 16.089 9.27847C16.2874 8.60189 16.3587 8.48617 16.5755 8.48881C16.6379 8.48955 17.2409 8.72217 17.9153 9.00572ZM2.2575 14.0353C1.94039 14.8144 1.89073 15.038 1.95519 15.3961C2.07244 16.0476 2.34485 16.3027 3.39352 16.7431C3.91635 16.9626 4.04138 16.9986 4.34012 17.0152C4.61791 17.0307 4.73069 17.0168 4.9244 16.9431C5.20081 16.8381 5.48457 16.6094 5.63366 16.3715C5.73973 16.2023 6.27202 14.9471 6.24715 14.9249C6.21936 14.9 2.58688 13.3852 2.55504 13.3852C2.53692 13.3852 2.40306 13.6777 2.2575 14.0353ZM13.8382 13.6096C13.7887 13.7365 13.6585 14.0598 13.5489 14.3282C13.3721 14.7613 13.3496 14.8531 13.3496 15.1445C13.3496 15.4166 13.3711 15.5191 13.4752 15.7431C13.695 16.2162 13.8883 16.3588 14.8696 16.7713C15.3155 16.9588 15.452 16.9968 15.7424 17.014C16.219 17.0422 16.514 16.9306 16.8435 16.5974C17.0587 16.3797 17.1142 16.2819 17.3706 15.6667C17.5282 15.2887 17.6572 14.966 17.6572 14.9496C17.6572 14.9221 14.1752 13.4439 14.0046 13.3989C13.9453 13.3833 13.9079 13.4306 13.8382 13.6096ZM16.7966 15.3199C16.7966 15.3515 16.7218 15.5405 16.6304 15.7399C16.4197 16.1991 16.2536 16.3412 15.8967 16.3672C15.6734 16.3835 15.5912 16.3605 15.009 16.1193C14.1702 15.7718 13.9856 15.5908 13.992 15.122C13.9938 14.996 14.1947 14.3902 14.282 14.248C14.3121 14.1988 16.7966 15.258 16.7966 15.3199ZM4.17877 14.7586C4.84729 15.0374 5.3943 15.2832 5.3943 15.3049C5.3943 15.3836 5.09143 16.0458 5.01798 16.1276C4.86532 16.2976 4.62174 16.3865 4.36504 16.3658C3.99771 16.3362 2.98622 15.8942 2.79311 15.6789C2.63034 15.4974 2.53348 15.2132 2.57436 15.0372C2.62874 14.803 2.86725 14.252 2.91428 14.2519C2.94121 14.2517 3.51025 14.4797 4.17877 14.7586ZM1.26976 16.7289L1.13797 17.0294L1.23306 17.0674C1.28538 17.0883 1.47122 17.1656 1.64608 17.2391C1.8209 17.3126 1.96879 17.3727 1.97468 17.3727C2.00725 17.3727 2.21895 16.8036 2.19528 16.7797C2.17971 16.764 1.99473 16.6786 1.78424 16.5898L1.40151 16.4284L1.26976 16.7289ZM12.6832 16.7258C12.6188 16.8912 12.5741 17.0324 12.5838 17.0396C12.6747 17.1072 13.3764 17.3669 13.3988 17.3412C13.476 17.2527 13.6251 16.805 13.5884 16.7718C13.5662 16.7517 13.3798 16.6655 13.1742 16.5802L12.8004 16.425L12.6832 16.7258ZM4.0157 17.7885C3.84565 18.1881 3.83502 18.1656 4.27859 18.3445C4.49679 18.4324 4.68869 18.4887 4.70504 18.4695C4.7451 18.4226 4.921 17.9954 4.921 17.9451C4.921 17.9094 4.21182 17.5894 4.1326 17.5894C4.11488 17.5894 4.0623 17.679 4.0157 17.7885ZM15.4662 17.6869C15.4457 17.7406 15.3953 17.8682 15.3544 17.9705C15.3134 18.0728 15.2871 18.1636 15.296 18.1723C15.3191 18.195 16.055 18.4996 16.0866 18.4996C16.1203 18.4996 16.3233 18.0391 16.3233 17.9626C16.3233 17.9136 15.636 17.5869 15.537 17.5888C15.5187 17.5891 15.4868 17.6333 15.4662 17.6869ZM7.15843 20.7266C7.15843 20.7357 7.11089 20.8703 7.0528 21.0258L6.94717 21.3085L7.23567 21.4164C7.39435 21.4757 7.53587 21.5172 7.5502 21.5086C7.6054 21.4754 7.76689 20.959 7.73255 20.9255C7.69443 20.8883 7.2463 20.7102 7.1907 20.7102C7.17298 20.7101 7.15843 20.7175 7.15843 20.7266ZM6.67394 21.9996C6.66224 22.0413 6.61289 22.1752 6.56422 22.2972L6.47571 22.5191L6.77648 22.638C6.94188 22.7033 7.08193 22.7498 7.0877 22.7412C7.0935 22.7326 7.14793 22.596 7.20873 22.4376L7.31923 22.1497L7.0334 22.0367C6.69417 21.9026 6.70088 21.9033 6.67394 21.9996Z" fill="white"/>
</svg>
