<svg width="18" height="19" viewBox="0 0 18 19" fill="none" xmlns="http://www.w3.org/2000/svg">
<path fill-rule="evenodd" clip-rule="evenodd" d="M5.74438 0.807619C5.66513 0.843622 5.56229 0.926352 5.51585 0.991432C5.43755 1.10123 5.43143 1.14163 5.43143 1.5493C5.43143 2.01488 5.45949 2.11445 5.67163 2.40139C5.85846 2.65411 6.30976 2.8502 6.70451 2.8502H6.8905V3.58685V4.32351L4.31515 4.33511C1.94088 4.3458 1.72473 4.35171 1.54644 4.41049C0.769755 4.66674 0.204831 5.26648 0.0521383 5.99695C0.00829591 6.20661 0.000596234 7.0299 6.88593e-05 11.5553C-0.000528832 16.7315 0.00126424 16.8745 0.0689088 17.1391C0.170516 17.5362 0.326584 17.806 0.631126 18.1105C0.935667 18.4151 1.2054 18.5711 1.60255 18.6727C1.86859 18.7408 2.01872 18.7422 9 18.7422C15.927 18.7422 16.1333 18.7403 16.3915 18.6743C16.8042 18.5687 17.0682 18.4172 17.3689 18.1133C17.6732 17.8057 17.8301 17.5338 17.9311 17.1391C17.9987 16.8745 18.0005 16.7315 17.9999 11.5553C17.9992 5.67169 18.0109 5.97789 17.7686 5.49744C17.5209 5.00616 17.0909 4.63843 16.5337 4.44122L16.2602 4.34447L13.6848 4.33399L11.1095 4.32351V3.58685V2.8502H11.2955C11.6902 2.8502 12.1415 2.65411 12.3284 2.40139C12.5405 2.11445 12.5686 2.01488 12.5686 1.5493C12.5686 1.14163 12.5625 1.10123 12.4842 0.991432C12.4377 0.926352 12.3349 0.843622 12.2556 0.807619C12.1186 0.745387 11.9593 0.742188 9 0.742188C6.04069 0.742188 5.88142 0.745387 5.74438 0.807619ZM11.9885 1.56864C11.9885 1.69855 11.9668 1.84028 11.9388 1.89386C11.8615 2.04185 11.703 2.17197 11.549 2.21385C11.3477 2.26859 6.59394 2.26736 6.42989 2.21255C6.29038 2.16593 6.13157 2.02867 6.06115 1.89386C6.03317 1.84028 6.01154 1.69855 6.01154 1.56864V1.33835H9H11.9885V1.56864ZM10.5118 3.58854V4.32689H9H7.48819V3.58854V2.8502H9H10.5118V3.58854ZM16.0844 4.96141C16.5472 5.02803 16.9566 5.29159 17.1816 5.66779C17.4152 6.05827 17.4028 5.73037 17.4028 11.5345C17.4028 17.2056 17.4099 16.9774 17.2233 17.3431C17.1199 17.546 16.8384 17.834 16.6359 17.9441C16.2454 18.1567 16.7108 18.1445 9 18.1445C1.3819 18.1445 1.76825 18.1536 1.39853 17.965C1.19566 17.8615 0.907681 17.58 0.797495 17.3775C0.587318 16.9914 0.597163 17.2785 0.597163 11.5345C0.597163 5.73037 0.584787 6.05827 0.818379 5.66779C1.03583 5.30431 1.47816 5.01267 1.89289 4.95933C2.21156 4.91837 15.7992 4.92034 16.0844 4.96141ZM1.69393 5.64852C1.59341 5.69862 1.46329 5.79749 1.40475 5.86827C1.18508 6.13386 1.19485 5.89763 1.19485 10.9368C1.19485 16.143 1.17464 15.772 1.47443 16.0718C1.7788 16.3761 1.11234 16.3514 9 16.3514C16.8877 16.3514 16.2212 16.3761 16.5256 16.0718C16.8254 15.772 16.8051 16.143 16.8051 10.9368C16.8051 5.89763 16.8149 6.13386 16.5953 5.86827C16.5367 5.79749 16.4066 5.69862 16.3061 5.64852L16.1233 5.55746H9H1.87668L1.69393 5.64852ZM6.70525 6.18154C6.69776 6.19602 5.6819 8.35572 4.44777 10.9808C2.62467 14.8587 2.19138 15.7536 2.1371 15.7536C2.02522 15.7536 1.86177 15.6499 1.82619 15.5563C1.80541 15.5016 1.79255 13.7353 1.79255 10.9328C1.79255 6.99913 1.79944 6.38444 1.84454 6.29725C1.87313 6.24194 1.91665 6.1886 1.94123 6.17869C2.01323 6.14972 6.72023 6.15253 6.70525 6.18154ZM12.8706 10.948C14.1064 13.5744 15.1175 15.7301 15.1175 15.7384C15.1175 15.7468 12.3647 15.7536 9 15.7536C5.63535 15.7536 2.88245 15.7455 2.88245 15.7356C2.88245 15.7257 3.84192 13.6808 5.01463 11.1913C6.1873 8.70182 7.19954 6.55011 7.26402 6.40972L7.38128 6.15446L9.00246 6.16361L10.6237 6.17275L12.8706 10.948ZM16.0477 6.177C16.2121 6.24008 16.2075 6.10334 16.2075 10.9328C16.2075 13.7353 16.1946 15.5016 16.1738 15.5563C16.1382 15.6499 15.9748 15.7536 15.8629 15.7536C15.8086 15.7536 15.3753 14.8587 13.5522 10.9808C12.3181 8.35572 11.3022 6.19602 11.2947 6.18154C11.2785 6.15 15.9656 6.14553 16.0477 6.177ZM8.34957 6.83255C8.12488 6.95803 8.05653 7.13752 8.03174 7.66702C8.0123 8.08253 8.0156 8.11403 8.09249 8.24451C8.14193 8.32843 8.2345 8.41454 8.32872 8.46425C8.47031 8.53893 8.52775 8.546 8.99444 8.546C9.61063 8.546 9.75088 8.49889 9.90188 8.24124C9.99213 8.08717 9.99357 8.07476 9.97034 7.65569C9.94182 7.1423 9.86971 6.95803 9.64836 6.83255C9.52259 6.76128 9.46275 6.75404 9 6.75404C8.53784 6.75404 8.47706 6.76138 8.34957 6.83255ZM9.36417 7.56671C9.4078 7.98443 9.44229 7.94829 9 7.94829C8.55771 7.94829 8.5922 7.98443 8.63583 7.56671L8.65844 7.35058H9H9.34156L9.36417 7.56671ZM8.18809 9.22528C7.92511 9.36373 7.88875 9.47041 7.82258 10.2974C7.75262 11.172 7.77501 11.2698 8.08929 11.4613C8.20064 11.5292 8.26178 11.5343 8.97135 11.5344C9.42373 11.5345 9.77401 11.5193 9.83272 11.4972C9.98289 11.4406 10.1574 11.2537 10.1968 11.1073C10.2218 11.0144 10.2158 10.774 10.1761 10.2798C10.1113 9.47216 10.0736 9.36306 9.81191 9.22528C9.66586 9.14838 9.61921 9.14371 9 9.14371C8.38079 9.14371 8.33414 9.14838 8.18809 9.22528ZM9.5394 9.89084C9.5504 9.97301 9.56893 10.1985 9.58061 10.3919C9.59224 10.5852 9.61003 10.787 9.62012 10.8401L9.63844 10.9368H9H8.36156L8.37988 10.8401C8.38997 10.787 8.40776 10.5852 8.4194 10.3919C8.43107 10.1985 8.4496 9.97301 8.4606 9.89084L8.48061 9.74141H9H9.51939L9.5394 9.89084ZM8.03315 12.1851C7.85978 12.2464 7.71451 12.4025 7.66683 12.579C7.60984 12.7899 7.48696 14.572 7.52117 14.6913C7.56674 14.8502 7.65808 14.9707 7.79945 15.0586C7.92542 15.137 7.94662 15.1384 9 15.1384C10.0534 15.1384 10.0746 15.137 10.2006 15.0586C10.3419 14.9707 10.4333 14.8502 10.4788 14.6913C10.5136 14.5699 10.3897 12.7877 10.3315 12.5735C10.2834 12.3963 10.1082 12.2207 9.93004 12.1712C9.7153 12.1116 8.20985 12.1226 8.03315 12.1851ZM9.77531 12.8442C9.77633 12.9071 9.80435 13.3115 9.83761 13.7429C9.87087 14.1744 9.89116 14.5343 9.88265 14.5428C9.86222 14.5633 8.13736 14.5628 8.11689 14.5424C8.09928 14.5248 8.22047 12.8436 8.24438 12.7739C8.25584 12.7406 8.44235 12.73 9.01649 12.73H9.77348L9.77531 12.8442ZM4.9088 17.0219C4.79355 17.1126 4.78111 17.3199 4.88331 17.4462L4.9505 17.5292L5.96953 17.5395L6.98856 17.5498L7.08022 17.4692C7.21948 17.3466 7.23368 17.1972 7.11903 17.0609L7.02488 16.9491H6.01316C5.04286 16.9491 4.99765 16.9521 4.9088 17.0219ZM7.89093 17.0354C7.76995 17.1563 7.77625 17.3129 7.90739 17.444L8.01015 17.5468H9H9.98985L10.0926 17.444C10.2238 17.3129 10.2301 17.1563 10.1091 17.0354L10.0228 16.9491H9H7.97721L7.89093 17.0354ZM10.881 17.0609C10.7667 17.1967 10.7804 17.3465 10.9181 17.4677C11.0066 17.5456 11.0222 17.5468 11.9746 17.5468C13.1428 17.5468 13.1838 17.5354 13.1838 17.2124C13.1838 17.1273 13.1583 17.0747 13.0912 17.0219C13.0024 16.9521 12.9571 16.9491 11.9868 16.9491H10.9751L10.881 17.0609Z" fill="white"/>
</svg>
