<svg width="16" height="19" viewBox="0 0 16 19" fill="none" xmlns="http://www.w3.org/2000/svg">
<path fill-rule="evenodd" clip-rule="evenodd" d="M0.886522 0.780378C0.51145 0.880571 0.181066 1.19965 0.0664884 1.57224C-0.00447129 1.80295 -0.00518515 1.88088 0.00423806 8.31396L0.0137683 14.8223L0.106608 15.0174C0.283258 15.3885 0.562813 15.6158 0.954412 15.7067C1.08341 15.7366 1.39398 15.7536 1.81699 15.754L2.47801 15.7545L2.70816 16.0799C3.00492 16.4995 3.80097 17.2845 4.24351 17.594C4.88585 18.0432 5.886 18.4682 6.65285 18.6179C8.34639 18.9483 10.0288 18.6165 11.4894 17.6639C11.9958 17.3335 12.7805 16.5769 13.1319 16.0799L13.362 15.7545L14.023 15.754C14.446 15.7536 14.7566 15.7366 14.8856 15.7067C15.2772 15.6158 15.5567 15.3885 15.7334 15.0174L15.8262 14.8223L15.8357 8.31396C15.8452 1.86755 15.8446 1.80345 15.7731 1.5708C15.6817 1.27385 15.4336 0.992162 15.137 0.848557L14.9339 0.750264L7.99137 0.743615C2.58152 0.738444 1.01306 0.74657 0.886522 0.780378ZM14.9673 1.44978C15.204 1.62772 15.2356 1.74899 15.2365 2.48288L15.2373 3.12491H7.91999H0.602719V2.49055C0.602719 1.81449 0.627241 1.68753 0.791826 1.51142C0.967976 1.32292 0.560172 1.33263 7.95846 1.34076L14.8323 1.34832L14.9673 1.44978ZM1.33641 2.00795C1.19667 2.12914 1.18278 2.27908 1.29875 2.41491C1.39106 2.52302 1.40369 2.52682 1.66779 2.52573C1.95099 2.52457 2.02313 2.49702 2.09605 2.36207C2.16297 2.23817 2.14459 2.14139 2.03323 2.03162C1.93771 1.93748 1.90769 1.92879 1.67829 1.92879C1.46923 1.92879 1.41254 1.94192 1.33641 2.00795ZM2.84869 2.03162C2.71555 2.16285 2.70916 2.31947 2.83199 2.44049C2.90923 2.51665 2.95085 2.52685 3.18411 2.52685C3.39356 2.52685 3.46727 2.51236 3.53834 2.4573C3.6492 2.37132 3.67579 2.24999 3.61493 2.1074C3.55782 1.97347 3.44589 1.92879 3.16762 1.92879C2.97805 1.92879 2.94089 1.94079 2.84869 2.03162ZM4.43982 1.96943C4.25525 2.06892 4.22009 2.2959 4.36683 2.44049C4.44443 2.517 4.4853 2.52685 4.72537 2.52685C4.96545 2.52685 5.00632 2.517 5.08392 2.44049C5.23123 2.29533 5.19289 2.0687 5.00436 1.96971C4.90645 1.91835 4.53495 1.91813 4.43982 1.96943ZM11.1324 1.97432C10.9386 2.07096 10.9152 2.3233 11.0877 2.45706C11.1746 2.52436 11.2362 2.52685 12.8117 2.52685H14.4456L14.5412 2.41491C14.6572 2.27908 14.6433 2.12914 14.5036 2.00795L14.4123 1.92879L12.817 1.92932C11.6027 1.92971 11.2004 1.94044 11.1324 1.97432ZM15.2373 9.186V14.649L15.1569 14.804C15.0624 14.9864 14.9452 15.0788 14.7526 15.1228C14.6209 15.1529 13.7024 15.1712 13.7024 15.1437C13.7024 15.1367 13.7511 15.0146 13.8106 14.8723C14.8049 12.496 14.2661 9.79564 12.4383 7.99442C11.5174 7.08692 10.4704 6.53435 9.13358 6.25027C8.80698 6.18086 8.65325 6.17044 7.93783 6.16932C7.21938 6.16816 7.06636 6.17808 6.71232 6.24875C4.3947 6.71155 2.55118 8.31857 1.84098 10.4951C1.60729 11.2112 1.54954 11.5947 1.54954 12.43C1.54954 13.06 1.56157 13.2277 1.63124 13.5685C1.72551 14.0298 1.84423 14.4192 2.01627 14.8315C2.08298 14.9913 2.13756 15.1298 2.13756 15.1393C2.13756 15.1487 1.91672 15.1558 1.64677 15.1549C0.979755 15.1528 0.810565 15.0891 0.669859 14.7871C0.607145 14.6525 0.604254 14.4092 0.603504 9.18467L0.602719 3.72297H7.91999H15.2373V9.186ZM9.08004 6.85255C9.86552 7.02001 10.6397 7.3527 11.2752 7.79594C11.7063 8.09658 12.3301 8.71181 12.6396 9.14161C13.5919 10.4638 13.9253 12.1777 13.541 13.7745C13.142 15.4323 11.9433 16.8771 10.365 17.6024C9.02082 18.2202 7.47367 18.3069 6.06426 17.8437C5.40424 17.6267 4.61858 17.1758 4.09798 16.715C3.12775 15.8564 2.51524 14.8091 2.24011 13.5382C2.13121 13.0351 2.12186 11.9748 2.22169 11.445C2.37271 10.6437 2.73765 9.78417 3.20017 9.14069C3.49454 8.73112 4.12539 8.10299 4.51824 7.82827C5.28852 7.28963 6.01403 6.99035 6.97409 6.81529C7.47799 6.72344 8.56458 6.74265 9.08004 6.85255ZM7.73281 7.41606C7.62344 7.50085 7.59524 7.62306 7.65353 7.75967C7.71107 7.89458 7.83032 7.93479 8.24123 7.95783C10.0425 8.05891 11.6603 9.28943 12.2377 10.9978C12.4171 11.5285 12.4688 11.8498 12.4682 12.43C12.4671 13.3993 12.237 14.1537 11.7023 14.9416C10.6428 16.5028 8.66231 17.2607 6.83132 16.8057C4.71113 16.2789 3.26917 14.3857 3.36451 12.2541C3.39642 11.541 3.53694 11.0205 3.87282 10.372C4.37572 9.40102 5.14078 8.71512 6.22452 8.26358C6.64432 8.08867 6.73719 7.99994 6.69083 7.81796C6.62793 7.57085 6.42484 7.53631 6.00236 7.70088C4.30272 8.3629 3.07335 9.89453 2.79836 11.6925C2.60094 12.9836 2.96445 14.4298 3.74443 15.4563C5.11576 17.2612 7.41402 17.9766 9.56623 17.2685C10.37 17.004 10.9444 16.6504 11.5628 16.0391C12.3447 15.2664 12.81 14.4006 13.0108 13.3447C13.108 12.834 13.1001 11.928 12.9942 11.4384C12.541 9.34238 10.9009 7.7718 8.7947 7.41691C8.23731 7.32298 7.85327 7.32269 7.73281 7.41606ZM9.94201 9.45059C9.83611 9.46315 4.73598 11.665 4.54555 11.7804C4.4859 11.8165 4.39974 11.9116 4.35409 11.9916C4.28598 12.1111 4.27381 12.1746 4.28637 12.3457C4.30237 12.5636 4.36865 12.6879 4.53127 12.8049C4.57914 12.8393 5.05197 13.0058 5.58203 13.175C6.11209 13.3441 6.55009 13.4847 6.55537 13.4875C6.56065 13.4903 6.70296 13.9184 6.87158 14.4389C7.05758 15.013 7.21246 15.4301 7.26539 15.4995C7.41727 15.6987 7.67341 15.7848 7.91988 15.7194C8.23445 15.6359 8.21664 15.6687 9.47064 12.8611C10.108 11.4342 10.6398 10.2123 10.6525 10.1458C10.6927 9.93428 10.537 9.62779 10.3353 9.52137C10.2309 9.46632 10.0634 9.43617 9.94201 9.45059ZM9.94298 10.3104C9.87873 10.4507 9.36916 11.5902 8.81059 12.8426C8.25205 14.095 7.77924 15.1148 7.75993 15.109C7.74062 15.1031 7.59428 14.6953 7.43473 14.2027C7.11894 13.228 7.07468 13.1224 6.93733 13.0159C6.88686 12.9768 6.40106 12.7988 5.8578 12.6203C5.15706 12.3901 4.88532 12.2865 4.92262 12.2637C5.02224 12.203 9.97246 10.058 10.0161 10.0567C10.0436 10.0559 10.0164 10.1502 9.94298 10.3104Z" fill="white"/>
</svg>
