<svg width="50" height="50" viewBox="0 0 50 50" fill="none" xmlns="http://www.w3.org/2000/svg">
<path fill-rule="evenodd" clip-rule="evenodd" d="M2.77603 0.134903C2.41125 0.297574 1.99 0.738955 1.85249 1.10252C1.71733 1.45973 1.71733 3.71424 1.85249 4.07145C1.99411 4.44597 2.41644 4.88021 2.79736 5.04298C3.18944 5.21054 7.0623 5.23576 7.49206 5.07358C7.82963 4.9462 8.27603 4.53483 8.4614 4.18046C8.56094 3.99022 8.5995 3.53798 8.5995 2.56255C8.5995 1.25229 8.59089 1.19529 8.33123 0.795362C7.85478 0.0614863 7.59346 -0.00420761 5.16747 0.00019154C3.6333 0.00302655 2.99076 0.0391973 2.77603 0.134903ZM20.8694 0.102838C20.2392 0.285256 19.6298 0.79761 19.3188 1.40655L19.023 1.98577L18.9925 4.46151L18.9619 6.93725H17.3499C15.625 6.93725 15.3604 6.99102 14.7325 7.46945C14.5527 7.60641 14.2773 7.94964 14.1206 8.23217L13.8357 8.74579V28.4442C13.8357 46.4184 13.8496 48.1732 13.9948 48.4919C14.2209 48.9885 14.7297 49.5362 15.1967 49.7858L15.5975 50H25.0423C34.0657 50 34.5023 49.9919 34.8296 49.818C35.3078 49.5639 35.7877 49.0923 36.0372 48.6314L36.2488 48.2403L36.2742 28.6924C36.3021 7.21841 36.3379 8.5535 35.714 7.80144C35.5507 7.60465 35.1882 7.32975 34.9084 7.19045C34.422 6.9483 34.3279 6.93725 32.761 6.93725H31.1224L31.0919 4.41996L31.0615 1.90268L30.7712 1.37908C30.6115 1.09118 30.3252 0.72693 30.135 0.569832C29.4766 0.0258043 29.2008 -0.00450088 25 0.00517724C22.897 0.0100652 21.0381 0.0539589 20.8694 0.102838ZM6.93565 2.58699V3.41794H5.17393H3.4122V2.58699V1.75604H5.17393H6.93565V2.58699ZM29.1084 1.99603C29.3102 2.19752 29.3487 2.33008 29.3487 2.82307V3.41021L26.1755 3.43856L23.0024 3.46682L22.75 3.70378C22.5793 3.86411 22.4975 4.0435 22.4975 4.25798C22.4975 5.15951 22.5716 5.1776 26.2608 5.1776H29.3487V6.05742V6.93725H25.0423H20.7358V4.68391C20.7358 2.38072 20.7961 1.96358 21.1497 1.82144C21.2181 1.79397 22.9828 1.76796 25.0711 1.76376L28.8682 1.75604L29.1084 1.99603ZM2.82496 7.00529C2.47555 7.14235 2.12164 7.46955 1.94185 7.82138C1.7555 8.18632 1.74835 8.41547 1.74835 14.0209V19.8414H1.15358C0.621242 19.8414 0.527577 19.8727 0.260676 20.1392C0.0138386 20.3857 -0.0284427 20.4926 0.0149153 20.7595C0.0493667 20.9719 0.79164 22.0957 2.19094 24.0543C3.35896 25.6891 4.42813 27.1477 4.56682 27.2955C4.84497 27.5919 5.39943 27.6647 5.68463 27.4422C5.77066 27.375 6.85823 25.8946 8.10123 24.1526C10.5725 20.6892 10.594 20.6454 10.0751 20.1272C9.82175 19.8741 9.72113 19.8414 9.19428 19.8414H8.5995V14.0151C8.5995 7.53036 8.62367 7.77612 7.93298 7.2495L7.58759 6.98613L5.27963 6.96687C4.01031 6.95632 2.90571 6.97362 2.82496 7.00529ZM6.93565 14.7936C6.93565 20.9125 6.9381 20.9913 7.13854 21.2457C7.25002 21.3874 7.40163 21.5033 7.47532 21.5033C7.54893 21.5033 7.63613 21.5468 7.66902 21.6C7.72363 21.6883 5.28668 25.2156 5.17393 25.2115C5.12519 25.2097 2.70751 21.8344 2.64556 21.6816C2.62765 21.6373 2.69371 21.5726 2.79237 21.5377C2.89103 21.5027 3.07092 21.3851 3.19199 21.2762L3.4122 21.0782V14.9038C3.4122 11.508 3.44157 8.70014 3.47748 8.66436C3.51331 8.62848 4.30608 8.59915 5.23921 8.59915H6.93565V14.7936ZM34.3489 8.87884C34.5317 9.10427 34.536 9.55425 34.536 28.4731V47.8367L34.3232 48.063L34.1103 48.2892H25.0323H15.9542L15.7514 48.0316L15.5485 47.774V28.4497C15.5485 13.137 15.5739 9.09352 15.6709 8.9721C15.7382 8.88793 15.8813 8.77043 15.989 8.71118C16.1284 8.63435 18.7684 8.60981 25.1733 8.62574L34.1618 8.64803L34.3489 8.87884ZM18.3379 10.5042C17.9265 10.6973 17.7576 10.849 17.5187 11.2404L17.3109 11.5808L17.3106 28.4229C17.3103 42.4269 17.3328 45.3187 17.4437 45.5841C17.6139 45.991 18.0946 46.3958 18.5612 46.5253C19.0585 46.6632 31.026 46.6632 31.5233 46.5253C31.9629 46.4034 32.4278 46.0289 32.6554 45.6137C32.8117 45.3286 32.8251 44.1749 32.8498 28.7863C32.8676 17.6632 32.8433 12.1097 32.7749 11.7894C32.6421 11.1664 32.3483 10.7692 31.8542 10.545C31.4759 10.3735 31.0871 10.3632 25.0423 10.3648C19.7346 10.3661 18.581 10.3902 18.3379 10.5042ZM31.1104 28.4931V44.8677H25.0423H18.9741V28.4931V12.1185H25.0423H31.1104V28.4931ZM42.5127 14.8422C42.0586 15.0547 41.7373 15.3763 41.5894 15.7663C41.5238 15.9394 41.485 17.1498 41.485 19.028C41.485 21.9396 41.4905 22.0241 41.7041 22.4039C41.8283 22.6246 42.1009 22.8973 42.3332 23.0332C42.7411 23.2721 42.7532 23.2729 45.0336 23.2436L47.3242 23.2141L47.6696 22.9507C48.3214 22.4538 48.3362 22.3654 48.3362 18.9601C48.3362 16.0635 48.326 15.8907 48.1352 15.5517C48.0246 15.3553 47.7747 15.0853 47.5799 14.9518C47.2321 14.7136 47.1856 14.7086 45.0648 14.6841C43.1249 14.6616 42.8641 14.6777 42.5127 14.8422ZM46.6723 19.0127V21.6056L44.935 21.5789L43.1978 21.5522L43.1717 18.986L43.1456 16.4199H44.9089H46.6723V19.0127ZM42.5127 25.1612C42.1479 25.3238 41.7267 25.7652 41.5891 26.1288C41.5217 26.3071 41.485 27.8304 41.485 30.4546V34.5052H40.9032C40.1415 34.5052 39.7753 34.7806 39.7795 35.3503C39.7819 35.6832 40.0315 36.0753 41.9167 38.7089C43.0907 40.3488 44.1648 41.8115 44.3035 41.9593C44.6044 42.2802 45.1675 42.3271 45.4755 42.0571C45.5829 41.9631 46.6447 40.5176 47.8353 38.8451C49.8966 35.9494 50 35.7829 50 35.3574C50 34.737 49.7035 34.5052 48.9102 34.5052H48.3362V30.3835V26.2618L48.0928 25.8471C47.9307 25.5707 47.7083 25.3642 47.4257 25.2275C47.035 25.0386 46.8385 25.0229 44.9041 25.0264C43.37 25.0293 42.7274 25.0654 42.5127 25.1612ZM46.6723 31.2171C46.6723 35.4922 46.6793 35.6608 46.8665 35.8986C46.9733 36.0342 47.1701 36.1726 47.3037 36.206C47.5385 36.265 47.5036 36.3273 46.2715 38.0501C45.5701 39.0307 44.966 39.8418 44.9289 39.8524C44.8086 39.8871 42.3382 36.323 42.4555 36.284C42.5179 36.2631 42.6993 36.1365 42.8589 36.0024L43.1489 35.7587V31.2705V26.7823H44.9106H46.6723V31.2171ZM21.1188 36.3902C20.7612 36.6645 20.7358 36.8875 20.7358 39.7635V42.5907L20.9758 42.8493L21.2159 43.108H25.0421H28.8682L29.1084 42.868L29.3487 42.6281V39.6864V36.7448L29.1084 36.5049L28.8682 36.2649L25.0711 36.268C22.2407 36.2704 21.2346 36.3015 21.1188 36.3902ZM27.6359 39.6864V41.3972L25.0667 41.4233L22.4975 41.4493V39.6864V37.9236L25.0667 37.9496L27.6359 37.9757V39.6864Z" fill="url(#paint0_linear_677_3099)"/>
<defs>
<linearGradient id="paint0_linear_677_3099" x1="0" y1="0" x2="51" y2="51.25" gradientUnits="userSpaceOnUse">
<stop stop-color="#0ABD92"/>
<stop offset="1" stop-color="#009DB8"/>
</linearGradient>
</defs>
</svg>
