<svg width="66" height="50" viewBox="0 0 66 50" fill="none" xmlns="http://www.w3.org/2000/svg">
<mask id="path-1-inside-1_953_2890" fill="white">
<path fill-rule="evenodd" clip-rule="evenodd" d="M1.66992 0.136753C1.07628 0.308009 0.282203 1.14706 0.110604 1.78435C0.0184886 2.12673 -0.017745 3.40451 0.00815437 5.40585L0.0482154 8.49827L0.390521 9.01523C0.786155 9.61284 1.37993 10.0157 2.04744 10.1394L2.5158 10.2263L2.55777 11.7879C2.59771 13.2668 2.62029 13.3825 2.98454 13.9713C3.26433 14.4234 3.55547 14.6903 4.05177 14.9496C4.68228 15.2791 4.84431 15.3061 6.18674 15.3061H7.6394V20.7161C7.6394 23.6916 7.69949 26.7208 7.77311 27.4476C8.26354 32.2968 10.2268 37.0664 13.2548 40.7647C14.1011 41.7982 16.0618 43.7457 17.083 44.567C19.9371 46.8624 24.002 48.7623 27.6285 49.4957C42.1556 52.4338 56.026 42.2023 57.5182 27.4476C57.5918 26.7208 57.6519 23.6916 57.6519 20.7161V15.3061H59.1046C60.447 15.3061 60.609 15.2791 61.2396 14.9496C61.7359 14.6903 62.027 14.4234 62.3068 13.9713C62.671 13.3825 62.6936 13.2668 62.7335 11.7879L62.7755 10.2263L63.2439 10.1394C63.9117 10.0156 64.5053 9.61271 64.9008 9.01485L65.2431 8.49751V5.09716V1.69681L64.9008 1.17947C64.7126 0.895024 64.3394 0.525842 64.0715 0.359309L63.5845 0.0564854L50.5713 0.0221577C40.9245 -0.00323704 37.4657 0.0262413 37.201 0.13586C36.5813 0.392615 36.3188 1.17309 36.6256 1.84663C36.9571 2.57427 36.3906 2.54492 50.1182 2.54492H62.7552V5.09716V7.6494H32.6457H2.53608V5.09716V2.54492H15.1732C28.9007 2.54492 28.3343 2.57427 28.6657 1.84663C28.8585 1.42346 28.8585 1.11413 28.6657 0.690972C28.3337 -0.0379475 28.9247 -0.00834152 14.9499 0.00416446C7.2601 0.0110555 1.92088 0.0643973 1.66992 0.136753ZM32.0218 0.170826C30.9158 0.784001 31.3785 2.54492 32.6457 2.54492C33.2921 2.54492 33.9215 1.92153 33.9215 1.28118C33.9215 0.323067 32.8629 -0.295596 32.0218 0.170826ZM60.1763 11.4459L60.1398 12.6901H32.6457H5.15153L5.11505 11.4459L5.07856 10.2016H32.6457H60.2128L60.1763 11.4459ZM55.0981 20.6977C55.0968 23.6632 55.0394 26.6254 54.9704 27.2806C54.675 30.0854 53.9709 32.4662 52.6762 35.0382C51.6502 37.0765 50.58 38.6253 49.0771 40.247L48.0194 41.3883L47.9471 36.8653C47.8699 32.0459 47.8183 31.5846 47.1252 29.5195C45.4285 24.4639 41.0335 20.584 35.7077 19.44C34.3535 19.149 31.2204 19.1142 29.9026 19.3753C26.7795 19.9941 24.0749 21.4316 21.8535 23.6533C19.7494 25.7579 18.3954 28.1893 17.6899 31.13C17.4629 32.0757 17.4195 32.8017 17.3508 36.7962L17.2719 41.3776L16.2513 40.2968C13.5585 37.4453 11.4984 33.5017 10.6958 29.6625C10.2672 27.6123 10.1932 26.304 10.1921 20.7615L10.1911 15.3061H32.6457H55.1003L55.0981 20.6977ZM35.6439 22.0532C40.2713 23.2034 43.8127 26.7399 45.0527 31.449C45.3016 32.3944 45.3252 32.8774 45.3712 37.9724L45.4208 43.4748L44.6073 43.9887C42.294 45.45 39.3772 46.5901 36.6316 47.106C35.427 47.3324 34.6587 47.3884 32.7095 47.3916C30.1628 47.3958 29.1961 47.2862 27.1371 46.7597C24.8967 46.1867 22.6069 45.2034 20.6831 43.9882L19.8705 43.4748L19.9202 37.9724C19.9662 32.8683 19.9893 32.396 20.2397 31.449C21.3983 27.0671 24.4682 23.757 28.6926 22.3351C30.7581 21.6399 33.5289 21.5276 35.6439 22.0532ZM30.7957 25.8421C30.2869 25.9421 29.3811 26.2745 28.6906 26.6146C27.686 27.1095 27.2908 27.3995 26.381 28.3094C25.47 29.2205 25.1822 29.6133 24.6877 30.6196C23.3954 33.2493 23.3954 35.9018 24.6877 38.5315C25.1822 39.5377 25.47 39.9305 26.381 40.8417C27.2985 41.7593 27.6773 42.0361 28.6906 42.5289C32.36 44.3135 36.3236 43.5983 39.1278 40.6455C40.6372 39.0561 41.5765 36.7278 41.5765 34.5755C41.5765 32.4232 40.6372 30.0949 39.1278 28.5055C36.9082 26.1684 33.9494 25.2226 30.7957 25.8421ZM33.9471 28.3359C36.8244 28.9361 39.0248 31.6401 39.0248 34.5755C39.0248 38.0196 36.089 40.9561 32.6457 40.9561C29.2072 40.9561 26.2665 38.0148 26.2665 34.5755C26.2665 31.7104 28.3624 29.0546 31.1591 28.3761C31.9995 28.1722 33.0871 28.1565 33.9471 28.3359ZM31.4122 30.9756C28.2115 32.1199 27.9316 36.4947 30.9639 37.984C31.9964 38.4912 33.2949 38.4912 34.3275 37.984C35.696 37.3118 36.4041 36.1496 36.4041 34.5755C36.4041 33.4884 36.1391 32.7613 35.4622 31.99C34.5474 30.948 32.7493 30.4976 31.4122 30.9756ZM33.2651 33.4813C34.1261 33.9266 34.1004 35.2995 33.2234 35.6992C32.5687 35.9975 31.8553 35.7824 31.5516 35.1951C30.9528 34.0368 32.107 32.8822 33.2651 33.4813Z"/>
</mask>
<path fill-rule="evenodd" clip-rule="evenodd" d="M1.66992 0.136753C1.07628 0.308009 0.282203 1.14706 0.110604 1.78435C0.0184886 2.12673 -0.017745 3.40451 0.00815437 5.40585L0.0482154 8.49827L0.390521 9.01523C0.786155 9.61284 1.37993 10.0157 2.04744 10.1394L2.5158 10.2263L2.55777 11.7879C2.59771 13.2668 2.62029 13.3825 2.98454 13.9713C3.26433 14.4234 3.55547 14.6903 4.05177 14.9496C4.68228 15.2791 4.84431 15.3061 6.18674 15.3061H7.6394V20.7161C7.6394 23.6916 7.69949 26.7208 7.77311 27.4476C8.26354 32.2968 10.2268 37.0664 13.2548 40.7647C14.1011 41.7982 16.0618 43.7457 17.083 44.567C19.9371 46.8624 24.002 48.7623 27.6285 49.4957C42.1556 52.4338 56.026 42.2023 57.5182 27.4476C57.5918 26.7208 57.6519 23.6916 57.6519 20.7161V15.3061H59.1046C60.447 15.3061 60.609 15.2791 61.2396 14.9496C61.7359 14.6903 62.027 14.4234 62.3068 13.9713C62.671 13.3825 62.6936 13.2668 62.7335 11.7879L62.7755 10.2263L63.2439 10.1394C63.9117 10.0156 64.5053 9.61271 64.9008 9.01485L65.2431 8.49751V5.09716V1.69681L64.9008 1.17947C64.7126 0.895024 64.3394 0.525842 64.0715 0.359309L63.5845 0.0564854L50.5713 0.0221577C40.9245 -0.00323704 37.4657 0.0262413 37.201 0.13586C36.5813 0.392615 36.3188 1.17309 36.6256 1.84663C36.9571 2.57427 36.3906 2.54492 50.1182 2.54492H62.7552V5.09716V7.6494H32.6457H2.53608V5.09716V2.54492H15.1732C28.9007 2.54492 28.3343 2.57427 28.6657 1.84663C28.8585 1.42346 28.8585 1.11413 28.6657 0.690972C28.3337 -0.0379475 28.9247 -0.00834152 14.9499 0.00416446C7.2601 0.0110555 1.92088 0.0643973 1.66992 0.136753ZM32.0218 0.170826C30.9158 0.784001 31.3785 2.54492 32.6457 2.54492C33.2921 2.54492 33.9215 1.92153 33.9215 1.28118C33.9215 0.323067 32.8629 -0.295596 32.0218 0.170826ZM60.1763 11.4459L60.1398 12.6901H32.6457H5.15153L5.11505 11.4459L5.07856 10.2016H32.6457H60.2128L60.1763 11.4459ZM55.0981 20.6977C55.0968 23.6632 55.0394 26.6254 54.9704 27.2806C54.675 30.0854 53.9709 32.4662 52.6762 35.0382C51.6502 37.0765 50.58 38.6253 49.0771 40.247L48.0194 41.3883L47.9471 36.8653C47.8699 32.0459 47.8183 31.5846 47.1252 29.5195C45.4285 24.4639 41.0335 20.584 35.7077 19.44C34.3535 19.149 31.2204 19.1142 29.9026 19.3753C26.7795 19.9941 24.0749 21.4316 21.8535 23.6533C19.7494 25.7579 18.3954 28.1893 17.6899 31.13C17.4629 32.0757 17.4195 32.8017 17.3508 36.7962L17.2719 41.3776L16.2513 40.2968C13.5585 37.4453 11.4984 33.5017 10.6958 29.6625C10.2672 27.6123 10.1932 26.304 10.1921 20.7615L10.1911 15.3061H32.6457H55.1003L55.0981 20.6977ZM35.6439 22.0532C40.2713 23.2034 43.8127 26.7399 45.0527 31.449C45.3016 32.3944 45.3252 32.8774 45.3712 37.9724L45.4208 43.4748L44.6073 43.9887C42.294 45.45 39.3772 46.5901 36.6316 47.106C35.427 47.3324 34.6587 47.3884 32.7095 47.3916C30.1628 47.3958 29.1961 47.2862 27.1371 46.7597C24.8967 46.1867 22.6069 45.2034 20.6831 43.9882L19.8705 43.4748L19.9202 37.9724C19.9662 32.8683 19.9893 32.396 20.2397 31.449C21.3983 27.0671 24.4682 23.757 28.6926 22.3351C30.7581 21.6399 33.5289 21.5276 35.6439 22.0532ZM30.7957 25.8421C30.2869 25.9421 29.3811 26.2745 28.6906 26.6146C27.686 27.1095 27.2908 27.3995 26.381 28.3094C25.47 29.2205 25.1822 29.6133 24.6877 30.6196C23.3954 33.2493 23.3954 35.9018 24.6877 38.5315C25.1822 39.5377 25.47 39.9305 26.381 40.8417C27.2985 41.7593 27.6773 42.0361 28.6906 42.5289C32.36 44.3135 36.3236 43.5983 39.1278 40.6455C40.6372 39.0561 41.5765 36.7278 41.5765 34.5755C41.5765 32.4232 40.6372 30.0949 39.1278 28.5055C36.9082 26.1684 33.9494 25.2226 30.7957 25.8421ZM33.9471 28.3359C36.8244 28.9361 39.0248 31.6401 39.0248 34.5755C39.0248 38.0196 36.089 40.9561 32.6457 40.9561C29.2072 40.9561 26.2665 38.0148 26.2665 34.5755C26.2665 31.7104 28.3624 29.0546 31.1591 28.3761C31.9995 28.1722 33.0871 28.1565 33.9471 28.3359ZM31.4122 30.9756C28.2115 32.1199 27.9316 36.4947 30.9639 37.984C31.9964 38.4912 33.2949 38.4912 34.3275 37.984C35.696 37.3118 36.4041 36.1496 36.4041 34.5755C36.4041 33.4884 36.1391 32.7613 35.4622 31.99C34.5474 30.948 32.7493 30.4976 31.4122 30.9756ZM33.2651 33.4813C34.1261 33.9266 34.1004 35.2995 33.2234 35.6992C32.5687 35.9975 31.8553 35.7824 31.5516 35.1951C30.9528 34.0368 32.107 32.8822 33.2651 33.4813Z" fill="url(#paint0_linear_953_2890)" stroke="#121212" stroke-width="0.8" mask="url(#path-1-inside-1_953_2890)"/>
<defs>
<linearGradient id="paint0_linear_953_2890" x1="0" y1="0" x2="49.1837" y2="64.4925" gradientUnits="userSpaceOnUse">
<stop stop-color="#0ABD92"/>
<stop offset="1" stop-color="#009DB8"/>
</linearGradient>
</defs>
</svg>
