<svg width="50" height="50" viewBox="0 0 50 50" fill="none" xmlns="http://www.w3.org/2000/svg">
<path fill-rule="evenodd" clip-rule="evenodd" d="M25.489 0.231708C25.1791 0.441526 25.0885 0.631283 24.5414 2.21651L23.9364 3.96941L22.9282 4.35004C22.3736 4.55935 21.6822 4.85204 21.3917 5.00047L20.8635 5.27036L19.2504 4.45865C18.36 4.01075 17.5079 3.64704 17.3487 3.64704C17.1881 3.64704 16.8858 3.77712 16.6669 3.94054C16.2057 4.2847 12.2944 8.24174 12.0528 8.60859C11.9619 8.74628 11.8877 8.98092 11.8877 9.12984C11.8877 9.27877 12.2506 10.1366 12.6941 11.036L13.5004 12.6715L13.2333 13.1995C13.0863 13.49 12.7959 14.1835 12.5879 14.7407L12.2097 15.7538L10.4686 16.3617C9.04826 16.8576 8.68902 17.0223 8.51802 17.2557C8.31536 17.5324 8.3084 17.657 8.3084 21.0276V24.5135L8.61088 24.8078C9.01771 25.2036 12.8339 26.4943 13.2959 26.3923C13.708 26.3014 14.1059 25.8034 14.1059 25.3785C14.1059 24.7415 13.7945 24.5242 11.9997 23.9094L10.3733 23.3522L10.3995 20.9803L10.4257 18.6083L11.7365 18.1702C14.0076 17.4112 13.8576 17.5401 14.403 15.88C14.5817 15.3364 14.9508 14.4515 15.2235 13.9135C15.4961 13.3754 15.7191 12.8052 15.7191 12.6463C15.7191 12.4873 15.3823 11.6815 14.9706 10.8555L14.222 9.35364L15.9127 7.65687L17.6036 5.9602L19.1303 6.72855C19.97 7.15112 20.7508 7.4969 20.8654 7.4969C20.98 7.4969 21.5364 7.26813 22.1018 6.98851C22.6672 6.70889 23.6516 6.3006 24.2893 6.08136C25.0694 5.81309 25.4983 5.60996 25.6001 5.46063C25.6833 5.33844 25.982 4.54993 26.2639 3.70823L26.7764 2.17801H29.179H31.5816L32.1188 3.79901C32.4379 4.76208 32.735 5.48575 32.8509 5.5819C32.9581 5.67095 33.4916 5.8913 34.0366 6.07154C34.5815 6.25167 35.5335 6.64608 36.1521 6.94799C36.7708 7.2499 37.3725 7.4969 37.4893 7.4969C37.6061 7.4969 38.3888 7.15112 39.2285 6.72855L40.7553 5.9602L42.4461 7.65687L44.1369 9.35364L43.3882 10.8555C42.9636 11.7073 42.6397 12.4868 42.6397 12.6566C42.6397 12.8212 42.8914 13.4711 43.1989 14.1007C43.5064 14.7304 43.894 15.685 44.06 16.2223C44.2261 16.7595 44.4446 17.274 44.5455 17.3658C44.6464 17.4576 45.4499 17.7747 46.331 18.0704L47.9331 18.6081L47.9601 21.0006L47.9871 23.3931L46.3913 23.9028C45.3262 24.2429 44.7238 24.4893 44.5796 24.6434C44.4608 24.7704 44.2004 25.3525 44.0008 25.9369C43.8012 26.5213 43.4133 27.4589 43.1388 28.0205C42.8598 28.5911 42.6397 29.1828 42.6397 29.362C42.6397 29.5568 42.9259 30.2592 43.3695 31.1532L44.0993 32.6239L42.4148 34.3164L40.7304 36.009L39.1392 35.2254C38.264 34.7945 37.5057 34.4428 37.4541 34.4439C37.4024 34.445 36.8415 34.7003 36.2075 35.0112C35.5736 35.3221 34.6037 35.7249 34.0525 35.9061C33.5012 36.0874 32.9505 36.3355 32.8288 36.4576C32.6972 36.5896 32.3997 37.3049 32.0949 38.2221L31.5824 39.7648H29.1822H26.782L26.2618 38.2227C25.9475 37.2912 25.6467 36.5791 25.502 36.4244C24.947 35.8308 23.7852 36.2864 23.7852 37.0974C23.7852 37.2828 24.0835 38.3337 24.448 39.4328C25.0018 41.1021 25.1608 41.4732 25.4137 41.6871L25.7163 41.943H29.1815H32.6466L32.9254 41.7021C33.1428 41.5142 33.3292 41.0844 33.7709 39.7529L34.3377 38.0447L34.7329 37.9035C34.9503 37.8258 35.6691 37.5335 36.3303 37.2541L37.5323 36.7459L39.0786 37.5208C41.3693 38.6689 40.9584 38.8086 43.8732 35.8896C45.7407 34.0195 46.3014 33.3984 46.39 33.1018C46.5 32.7335 46.4749 32.6605 45.6745 31.0249L44.845 29.3296L45.2059 28.5475C45.4044 28.1173 45.6955 27.4141 45.8527 26.9848L46.1385 26.2042L47.8361 25.6275C49.1291 25.1883 49.5892 24.9859 49.7668 24.7784L50 24.506V20.9794C50 17.5942 49.9918 17.4424 49.7962 17.1926C49.6388 16.9915 49.1963 16.8003 47.8492 16.3516L46.1058 15.7708L45.8756 15.1038C45.749 14.737 45.4596 14.0337 45.2326 13.541L44.82 12.6451L45.558 11.1601C46.4524 9.36033 46.5065 9.19286 46.3271 8.77667C46.252 8.60211 45.1058 7.37664 43.7801 6.0532C41.6372 3.914 41.3338 3.64704 41.0456 3.64704C40.8421 3.64704 40.1223 3.94864 39.1085 4.45865L37.4953 5.27036L36.9671 5.00047C36.6766 4.85204 35.9852 4.55834 35.4306 4.34781C34.8761 4.13729 34.3837 3.90386 34.3366 3.8291C34.2894 3.75433 33.9945 2.94191 33.6812 2.02382C33.1393 0.435346 33.0945 0.345786 32.7587 0.177304C32.4445 0.0194597 32.0462 0.000109049 29.1187 7.73677e-06C25.8599 -0.000194887 25.8286 0.00183131 25.489 0.231708ZM27.1765 7.50095C20.3474 8.57354 15.3572 14.6229 15.6466 21.478C15.7038 22.8318 15.8861 23.8732 16.2916 25.1631L16.5443 25.9667L12.9057 29.6238L9.26716 33.2808L8.18287 33.2961C4.10637 33.3539 0.736662 36.2903 0.0876446 40.3504C-0.170269 41.9634 0.168003 44.2584 0.74977 44.8429C1.01343 45.1079 1.55477 45.1665 1.9378 44.9716C2.0589 44.9099 3.04326 43.9752 4.12523 42.8945L6.09245 40.9295L7.55221 42.3989L9.01197 43.8683L7.03245 45.869C5.94373 46.9694 5.00282 47.9693 4.94141 48.091C4.60415 48.7603 4.96944 49.3501 5.90017 49.639C9.82755 50.8578 14.1678 48.8996 15.8831 45.135C16.3581 44.0923 16.5402 43.2753 16.5946 41.943L16.6463 40.6766L20.2306 37.0646L23.8148 33.4527L24.2484 33.6395C24.8973 33.919 26.0089 34.2353 26.9397 34.4053C28.0506 34.6082 30.3403 34.6037 31.4984 34.3965C37.0787 33.3974 41.4955 28.9699 42.5097 23.3581C42.7394 22.0871 42.7313 19.7957 42.4927 18.5399C41.4513 13.0596 37.3955 8.88558 31.9017 7.63985C31.0665 7.4505 28.0604 7.36215 27.1765 7.50095ZM30.3893 9.56944C32.1231 9.68939 34.4962 10.6101 35.9884 11.742C38.9216 13.967 40.6232 17.3904 40.6232 21.0667C40.6232 25.3226 38.0772 29.3938 34.1942 31.347C32.849 32.0236 30.7267 32.52 29.1794 32.5197C27.992 32.5195 25.4993 32.0512 25.4993 31.8284C25.4993 31.7897 26.0628 31.1932 26.7516 30.5027L28.004 29.2474L28.7429 29.2672C30.8333 29.3233 33.0465 28.4813 34.6293 27.0277C35.6694 26.0725 36.6194 24.4736 37.0155 23.0114C37.3252 21.8681 37.3189 19.9083 37.0019 18.7675C36.7217 17.7594 36.4129 17.4255 35.7605 17.4255C35.3609 17.4255 35.2923 17.4827 33.2456 19.5244L31.1416 21.6233L29.6813 20.1587L28.2212 18.6941L30.2272 16.6667C31.3304 15.5517 32.2875 14.532 32.3539 14.4008C32.515 14.0825 32.4063 13.5577 32.1241 13.2913C31.6033 12.7996 30.133 12.512 28.5081 12.5841C25.4704 12.7188 22.8185 14.4855 21.4689 17.2735C20.9181 18.4115 20.7537 19.109 20.6894 20.5807L20.6336 21.8617L19.4401 23.0579C18.7837 23.7157 18.2198 24.2271 18.1869 24.1941C18.1542 24.1611 18.035 23.6847 17.9221 23.1353C17.6325 21.7266 17.6974 19.5323 18.0709 18.1066C19.1383 14.0316 22.3575 10.8395 26.435 9.81248C27.2422 9.60915 28.8238 9.43094 29.3306 9.48616C29.4693 9.50136 29.9457 9.53874 30.3893 9.56944ZM27.6011 16.2857C26.6787 17.2191 25.8739 18.0823 25.8125 18.204C25.7511 18.3257 25.7009 18.5755 25.7009 18.7589C25.7009 19.0597 25.9467 19.3397 28.1986 21.6024L30.6963 24.1121H31.1414C31.5833 24.1121 31.5994 24.0992 33.3825 22.3174L35.1786 20.5229V21.0855C35.1786 21.7897 34.8727 23.0119 34.5186 23.7224C33.7752 25.2141 32.5925 26.2305 30.8479 26.8772C30.3847 27.0489 30.0226 27.0875 28.7426 27.1013L27.1967 27.1181L20.9004 33.4414C17.4374 36.9192 14.5783 39.8654 14.5468 39.9884C14.5153 40.1114 14.4809 40.8636 14.4704 41.66C14.4531 42.9618 14.4243 43.1766 14.1843 43.7866C13.5747 45.3357 12.507 46.5395 11.1435 47.2147C10.2895 47.6376 9.23106 47.9156 8.46347 47.9187L8.01369 47.9204L9.69174 46.2234C10.6146 45.29 11.4201 44.3931 11.4817 44.2302C11.7107 43.6241 11.5702 43.4227 9.32967 41.1455C8.15797 39.9546 7.02236 38.849 6.80609 38.6886C6.3922 38.3818 5.9768 38.3197 5.60465 38.5092C5.48356 38.5709 4.64882 39.3552 3.74965 40.2521C2.85048 41.1489 2.09066 41.8585 2.06111 41.8287C2.03157 41.799 2.05285 41.4137 2.1084 40.9724C2.45141 38.2464 4.1951 36.243 6.8319 35.5452C7.48506 35.3724 7.78632 35.3508 8.80689 35.4041L10.0113 35.4669L16.3688 29.0809L22.7265 22.6949L22.7295 21.2506C22.7317 20.1547 22.7764 19.6597 22.915 19.1984C23.719 16.5213 26.1024 14.6829 28.8758 14.6007L29.278 14.5887L27.6011 16.2857Z" fill="url(#paint0_linear_677_3104)"/>
<defs>
<linearGradient id="paint0_linear_677_3104" x1="0" y1="0" x2="51" y2="51.25" gradientUnits="userSpaceOnUse">
<stop stop-color="#0ABD92"/>
<stop offset="1" stop-color="#009DB8"/>
</linearGradient>
</defs>
</svg>
