<svg width="50" height="50" viewBox="0 0 50 50" fill="none" xmlns="http://www.w3.org/2000/svg">
<path fill-rule="evenodd" clip-rule="evenodd" d="M5.31701 0.0965406C4.96207 0.235462 0.459961 4.75365 0.216499 5.21525C-0.0898311 5.79605 -0.0688429 6.72327 0.265211 7.36454C0.613712 8.03365 12.1856 19.5985 12.8337 19.9253C13.3692 20.1955 14.2638 20.2214 14.8211 19.9829C15.0284 19.8942 15.5455 19.4832 15.9703 19.0694L16.7427 18.3172L17.2775 18.8457C17.5717 19.1365 17.8123 19.4203 17.8123 19.4763C17.8123 19.5324 16.9966 20.3912 15.9995 21.3847C15.0025 22.3783 14.1012 23.3558 13.9965 23.5571C13.709 24.1104 13.6642 24.685 13.857 25.3499C14.0172 25.9032 14.1133 26.0165 16.2316 28.1501L18.4393 30.3735L17.819 30.9999C17.2679 31.5564 17.1723 31.6162 16.9622 31.5362C16.6286 31.4092 15.8086 31.4246 15.335 31.5665C15.1031 31.6361 14.7417 31.8731 14.4783 32.1283C13.0075 33.5533 13.902 36.0207 15.9568 36.2072C17.6138 36.3576 18.9076 34.8505 18.5029 33.2417L18.387 32.7815L18.9981 32.1644L19.6092 31.5474L21.8102 33.7291C23.793 35.6946 24.0633 35.9279 24.537 36.0843C25.1467 36.2856 25.9023 36.246 26.4162 35.9859C26.5968 35.8944 27.5906 34.9795 28.6247 33.9526L30.5051 32.0857L31.0586 32.6396L31.6121 33.1935L30.9018 33.942C30.05 34.8393 29.8246 35.2881 29.8216 36.092C29.8177 37.1804 29.7379 37.0874 36.3325 43.6695C41.797 49.1237 42.4088 49.7042 42.8446 49.8487C43.4558 50.0514 43.9122 50.0505 44.5182 49.8455C44.9279 49.7069 45.2938 49.3918 46.9851 47.7206C48.0772 46.6415 49.0876 45.5607 49.2303 45.3189C49.4491 44.9483 49.4898 44.7644 49.4898 44.1466C49.4898 43.526 49.4497 43.3466 49.2279 42.9742C49.0805 42.727 46.2191 39.7933 42.6874 36.2684C37.7733 31.364 36.3306 29.9775 36.0491 29.8883C35.3768 29.6756 34.9957 29.8699 33.803 31.0338L32.7401 32.0711L32.1868 31.5175L31.6336 30.9639L33.5888 28.9825C35.3184 27.2298 35.5587 26.9473 35.6724 26.5346C35.8459 25.9052 35.7521 25.0942 35.4462 24.5786C35.3121 24.3528 33.014 21.9844 30.339 19.3155C25.5326 14.5202 25.4687 14.4612 24.9046 14.299C24.2538 14.1119 23.6362 14.1632 23.086 14.4499C22.8969 14.5485 21.9299 15.4455 20.9371 16.4433C19.9444 17.4412 19.0862 18.2575 19.0302 18.2575C18.9742 18.2575 18.6894 18.0155 18.3975 17.7197L17.8668 17.1818L18.6104 16.4252C19.0195 16.009 19.4202 15.5361 19.5011 15.3742C19.7573 14.8615 19.7998 14.2285 19.6204 13.602C19.4578 13.0341 19.4211 12.995 13.0946 6.64599C9.4142 2.95245 6.60012 0.203809 6.41836 0.124872C6.05843 -0.0312441 5.66913 -0.0413066 5.31701 0.0965406ZM12.1339 7.73089C15.3215 10.9146 17.9843 13.644 18.0511 13.7962C18.1178 13.9485 18.1533 14.1739 18.1298 14.297C18.1055 14.4237 17.2525 15.3521 16.1625 16.4379C14.0369 18.5557 14.0228 18.5639 13.3609 18.0727C13.1515 17.9172 10.4652 15.2669 7.39143 12.1829L1.80272 6.57575V6.14501C1.80272 5.71584 1.80955 5.70744 3.68716 3.82838C5.49478 2.01937 5.58722 1.94248 5.95486 1.94248C6.33138 1.94248 6.44149 2.04574 12.1339 7.73089ZM29.3083 20.4335C33.4885 24.6201 34.1147 25.285 34.1147 25.5368C34.1147 25.7881 33.5573 26.3841 29.8914 30.0529C25.9514 33.996 25.6455 34.2794 25.3301 34.2794C25.0142 34.2794 24.6806 33.9681 20.2393 29.5268C17.4514 26.7388 15.4691 24.6826 15.4443 24.5525C15.4211 24.4307 15.4564 24.2064 15.5229 24.0541C15.5894 23.9019 17.4848 21.9419 19.7348 19.6985C23.5461 15.8987 23.8489 15.6197 24.1638 15.6197C24.4799 15.6197 24.8146 15.9329 29.3083 20.4335ZM21.9334 22.095C21.6533 22.3788 21.4242 22.6551 21.4242 22.709C21.4242 22.7629 21.6563 23.0362 21.9397 23.3165L22.4554 23.8261L23.0348 23.24L23.6143 22.654L23.0838 22.1165C22.7922 21.821 22.5286 21.5791 22.498 21.5791C22.4675 21.5791 22.2135 21.8113 21.9334 22.095ZM23.6202 23.8266L23.0385 24.4148L24.1824 25.5595L25.3262 26.7042L25.8644 26.1721C26.1605 25.8795 26.4028 25.594 26.4028 25.5375C26.4028 25.481 25.9076 24.9407 25.3022 24.3366L24.2018 23.2384L23.6202 23.8266ZM26.4528 26.6581L25.8722 27.2451L26.4027 27.7826C26.6944 28.0781 26.9799 28.32 27.0373 28.32C27.0947 28.32 27.3808 28.0778 27.673 27.7815L28.2045 27.2431L27.6188 26.657L27.0333 26.071L26.4528 26.6581ZM35.95 31.6839C36.4023 31.924 47.6652 43.2878 47.7347 43.5743C47.7725 43.73 47.7391 43.9433 47.6505 44.1116C47.5697 44.2652 46.6959 45.1931 45.7086 46.1737C43.9934 47.8772 43.8965 47.9567 43.5307 47.9567C43.1548 47.9567 43.0434 47.852 37.2646 42.0689C31.5131 36.3128 31.3814 36.1725 31.3814 35.8031C31.3814 35.4445 31.4701 35.3352 33.1141 33.6678C34.7722 31.9863 35.2802 31.5451 35.5595 31.5444C35.6292 31.5442 35.8049 31.6069 35.95 31.6839ZM4.37303 32.985C4.12977 33.245 4.12352 33.2832 4.17701 34.184C4.48822 39.4211 8.0936 43.8366 13.1476 45.1701C14.1453 45.4334 16.0021 45.6535 16.3942 45.555C16.7032 45.4775 17.0313 45.0752 17.0313 44.7739C17.0313 44.6498 16.9293 44.4296 16.8047 44.2845C16.5961 44.0418 16.4967 44.0144 15.56 43.9407C11.874 43.6509 8.69582 41.6081 7.02565 38.4552C6.26021 37.0104 5.95662 35.9657 5.81009 34.2731C5.72184 33.2537 5.69129 33.1367 5.4609 32.9361C5.11104 32.6314 4.6859 32.6505 4.37303 32.985ZM7.59252 32.9702C7.34603 33.2169 7.34047 33.2493 7.39767 34.1181C7.53678 36.2323 8.53572 38.3812 10.0675 39.8612C11.5972 41.3392 13.7509 42.2671 15.7723 42.319C16.5238 42.3383 16.5689 42.3271 16.7949 42.0651C17.0916 41.7211 17.0954 41.3988 16.8065 41.0627C16.609 40.8331 16.4811 40.7917 15.7571 40.7244C14.6014 40.617 14.086 40.4756 13.0778 39.9895C10.7026 38.8441 9.31511 36.8354 9.0245 34.1212C8.93489 33.2838 8.88861 33.1268 8.67551 32.9361C8.34224 32.6378 7.91115 32.6513 7.59252 32.9702ZM16.7189 32.9144C17.0132 33.1888 17.0751 33.5206 16.8964 33.8663C16.5163 34.6019 15.4694 34.3244 15.4694 33.4879C15.4694 32.8312 16.2469 32.4743 16.7189 32.9144ZM11.0145 33.1237C10.5501 33.3487 10.4771 34.0075 10.7834 35.2064C11.2976 37.2184 12.8256 38.7476 14.836 39.2621C16.0958 39.5845 16.7159 39.4948 16.9382 38.958C17.0853 38.6025 16.9919 38.2299 16.7093 38.0446C16.5876 37.9648 16.1613 37.8531 15.7619 37.7963C14.8128 37.6617 14.1287 37.3383 13.4664 36.7114C12.7929 36.0739 12.3821 35.2594 12.2483 34.296C12.1309 33.4509 12.0282 33.2277 11.6988 33.1024C11.4013 32.9893 11.2844 32.9929 11.0145 33.1237Z" fill="url(#paint0_linear_677_3109)"/>
<defs>
<linearGradient id="paint0_linear_677_3109" x1="0" y1="0" x2="50.9999" y2="50.7269" gradientUnits="userSpaceOnUse">
<stop stop-color="#0ABD92"/>
<stop offset="1" stop-color="#009DB8"/>
</linearGradient>
</defs>
</svg>
