<svg width="51" height="50" viewBox="0 0 51 50" fill="none" xmlns="http://www.w3.org/2000/svg">
<path fill-rule="evenodd" clip-rule="evenodd" d="M20.2869 0.0253771C11.9253 0.659897 4.93209 6.39109 2.75946 14.3896C2.23916 16.305 1.92989 19.4284 2.20948 19.9439C2.27171 20.0585 2.45553 20.2072 2.61808 20.2743C2.88175 20.3832 3.3979 20.2881 7.39549 19.3943C9.86057 18.8432 12.0167 18.3489 12.1869 18.2959C12.6618 18.148 12.8096 17.9119 13.0613 16.8987C13.3594 15.6986 13.8844 14.6322 14.5883 13.7967C15.8004 12.3582 17.1837 11.4835 18.9275 11.0531C19.9674 10.7964 20.1945 10.6471 20.3328 10.1291C20.603 9.11733 22.2162 1.17874 22.2162 0.860785C22.2162 0.142044 21.6992 -0.0818226 20.2869 0.0253771ZM39.6591 1.87677L39.3815 2.11483V6.16456V10.2143L39.6557 10.4877L39.9299 10.7611L43.6813 10.7912C47.8194 10.8243 48.1382 10.7923 48.3839 10.3186C48.466 10.1605 48.533 9.96102 48.533 9.87513C48.533 9.52818 47.3798 7.58754 46.5689 6.56979C45.1224 4.75459 42.9577 2.93782 41.0634 1.94905C40.3506 1.57696 40.0281 1.56039 39.6591 1.87677ZM20.2874 1.95931C20.264 2.02716 19.9056 3.70222 19.4913 5.68181C19.0768 7.66131 18.7302 9.2843 18.7209 9.28824C18.7116 9.29219 18.4146 9.37227 18.0609 9.46615C15.3384 10.1887 12.7936 12.5152 11.7359 15.2483C11.5785 15.6551 11.4185 16.1544 11.3804 16.3578C11.3423 16.5613 11.3019 16.7276 11.2904 16.7276C11.2689 16.7276 4.40575 18.2686 4.07244 18.3482C3.89713 18.3901 3.88961 18.3444 3.95114 17.609C4.13239 15.4422 4.84008 13.1553 5.98368 11.0406C8.11287 7.10362 11.702 4.07431 15.8843 2.68436C17.8209 2.04067 20.4068 1.61493 20.2874 1.95931ZM42.3496 4.84848C43.5629 5.76416 45.2089 7.5266 46.0065 8.76408L46.1813 9.03528H43.6471H41.1129V6.50914V3.98299L41.3849 4.15439C41.5345 4.24867 41.9687 4.561 42.3496 4.84848ZM29.6638 9.23824C28.7 9.33232 27.6003 9.61941 26.6353 10.0288C25.3035 10.5937 24.4814 11.2516 21.9696 13.7628C20.664 15.0681 19.5501 16.1359 19.4941 16.1359C19.4381 16.1359 18.9936 15.7366 18.5064 15.2486L17.6204 14.3613L16.9992 14.9751L16.378 15.5888L17.2689 16.4806C17.7589 16.971 18.1598 17.4149 18.1598 17.467C18.1598 17.5189 15.9163 19.8036 13.1742 22.544C8.20023 27.5151 8.18787 27.5285 7.79123 28.3648C7.3198 29.3586 7.17793 29.9747 7.17793 31.0275C7.17793 32.0808 7.3199 32.6967 7.79173 33.6902C8.18331 34.515 8.2498 34.5887 11.9134 38.2566C13.9614 40.307 15.8798 42.1461 16.1767 42.3434C16.4736 42.5407 17.0956 42.8324 17.5591 42.9917C19.0927 43.5186 20.8336 43.3727 22.3646 42.5893C22.9866 42.2709 23.5688 41.7269 28.0787 37.25L33.1003 32.2653L34.0162 33.1745L34.9323 34.0838L35.5487 33.4693L36.1652 32.8548L35.2537 31.9424L34.3422 31.0301L36.7217 28.6372C39.7124 25.6297 40.3075 24.8043 40.9503 22.7711C41.8668 19.873 41.293 16.5643 39.4468 14.0996C38.7477 13.1664 36.9278 11.392 36.141 10.8764C34.8399 10.024 33.1939 9.40639 31.8968 9.2837C30.6262 9.16368 30.4615 9.16033 29.6638 9.23824ZM31.6694 11.0146C32.5142 11.1317 33.6927 11.4654 33.6927 11.5874C33.6927 11.7224 32.6485 12.183 31.9935 12.337C30.6907 12.6432 29.1375 12.4481 27.9209 11.8257L27.4103 11.5644L28.1523 11.3293C29.4271 10.9253 30.3984 10.8383 31.6694 11.0146ZM26.3409 12.9389C27.0448 13.4047 27.9422 13.801 28.7954 14.0229C29.8253 14.2907 31.6211 14.2735 32.634 13.986C33.4828 13.7451 34.4075 13.3121 35.0474 12.8559L35.4624 12.5602L35.8564 12.8713C36.0732 13.0425 36.6537 13.6071 37.1465 14.1261L38.0425 15.0698L37.7605 15.4796C35.9655 18.0884 35.9276 21.5543 37.6649 24.2335L38.0593 24.8419L30.0635 32.8121C22.5017 40.3498 22.0311 40.7993 21.3925 41.0952C19.9623 41.7579 18.4052 41.684 17.2026 40.8963C16.8622 40.6733 15.1853 39.0704 13.1068 36.9813C9.91924 33.7771 9.56169 33.385 9.31415 32.8209C8.72153 31.4706 8.79216 30.0796 9.51529 28.8579C9.74363 28.4722 12.1189 26.0429 17.7356 20.4505C22.0801 16.1248 25.6735 12.5856 25.7208 12.5856C25.7681 12.5856 26.0471 12.7446 26.3409 12.9389ZM39.4865 18.4022C39.7584 19.7438 39.603 21.5741 39.1186 22.7351L38.978 23.072L38.7145 22.4866C37.9536 20.7965 37.9528 18.8937 38.7125 17.3473L38.9821 16.7982L39.1495 17.1821C39.2416 17.3932 39.3932 17.9422 39.4865 18.4022ZM22.2656 18.501C21.9666 18.6284 14.6545 25.9883 14.3764 26.4417C13.8471 27.3044 13.6773 27.9446 13.6701 29.1044C13.6577 31.0986 14.1337 31.9448 16.6378 34.3806C17.7464 35.459 18.3868 36.0029 18.8121 36.2272C20.3511 37.0393 22.2819 37.0411 23.8394 36.2322C24.3323 35.9761 25.1316 35.2346 28.2218 32.1665C30.7668 29.6399 32.0229 28.3251 32.0667 28.1417C32.1441 27.8174 31.8537 27.1778 31.1603 26.1458C29.1282 23.1214 26.7773 20.8523 23.7781 19.0205C22.7561 18.3963 22.6205 18.3497 22.2656 18.501ZM24.2882 21.4444C26.1227 22.7353 27.987 24.6357 29.3307 26.5848C29.6907 27.107 29.8012 27.3384 29.7121 27.3847C29.6433 27.4204 28.9033 27.6175 28.0678 27.8227L26.5487 28.1958L24.4267 26.0804L22.3045 23.965L22.7185 22.3159L23.1326 20.6667L23.3916 20.8313C23.5342 20.9218 23.9375 21.1978 24.2882 21.4444ZM20.6735 23.2727C20.5381 23.8045 20.4559 24.3356 20.4907 24.453C20.5256 24.5705 21.0055 25.1216 21.557 25.678L22.5601 26.6893L21.6205 27.626L20.6808 28.5626L19.1493 27.0336L17.6179 25.5047L19.2445 23.8811C20.1392 22.9881 20.8821 22.2684 20.8955 22.2817C20.9089 22.295 20.809 22.7411 20.6735 23.2727ZM20.1175 30.4642L23.8057 34.1414L23.5272 34.3466C22.7067 34.9513 21.7277 35.2025 20.7729 35.0533C19.7807 34.8981 19.3209 34.5806 17.5921 32.8562C15.6109 30.8801 15.4391 30.5845 15.4391 29.1537C15.4391 28.3739 15.4774 28.1392 15.6678 27.7539C15.9124 27.259 16.2512 26.7868 16.3619 26.7868C16.399 26.7868 18.0891 28.4416 20.1175 30.4642ZM24.892 29.0058C25.5964 29.6978 26.0194 30.0413 26.167 30.0413C26.3503 30.0413 27.3524 29.8156 28.2018 29.5829C28.3106 29.5531 27.6433 30.2875 26.7188 31.215L25.0381 32.9012L23.5281 31.3985C22.6978 30.572 22.0183 29.8517 22.0183 29.7979C22.0183 29.7028 23.6994 27.9703 23.7916 27.9703C23.817 27.9703 24.3121 28.4363 24.892 29.0058ZM48.6814 28.421C48.355 28.4966 46.2917 28.9334 44.0964 29.3916C41.5313 29.927 40.0415 30.2819 39.9273 30.385C39.823 30.479 39.6597 30.9332 39.532 31.4844C38.842 34.4607 36.5433 36.7521 33.5574 37.4398C33.0392 37.5592 32.5498 37.7296 32.4697 37.8186C32.3898 37.9074 32.2563 38.2465 32.1732 38.5719C31.8462 39.8532 30.2344 47.0873 30.2158 47.3576C30.1566 48.2189 30.5589 48.4356 32.0431 48.342C37.041 48.0267 41.4379 46.0786 44.8676 42.6598C48.2647 39.2736 50.2088 34.9842 50.5709 30.0765C50.6472 29.0437 50.596 28.7466 50.294 28.4661C50.0396 28.2298 49.5642 28.2165 48.6814 28.421ZM48.7934 30.5097C48.7648 30.6589 48.7127 31.025 48.6777 31.3234C48.6426 31.6217 48.5312 32.243 48.43 32.704C47.0022 39.2093 42.0303 44.3706 35.5994 46.0235C34.4985 46.3065 32.3129 46.6476 32.2166 46.5515C32.1735 46.5086 33.2229 41.6911 33.6745 39.8583L33.8411 39.1823L34.5125 38.9997C37.5885 38.1635 40.2544 35.5063 41.0975 32.4364C41.2005 32.0613 41.3422 31.7539 41.4197 31.7371C44.07 31.1612 48.444 30.2566 48.6151 30.2489C48.8148 30.2399 48.8387 30.2747 48.7934 30.5097ZM0.474248 35.3169C-0.0140989 35.5284 -0.103339 35.8637 0.106306 36.6981C0.748893 39.2553 2.87512 41.3681 5.47535 42.0329C6.12753 42.1996 6.22231 42.203 6.46332 42.0682C6.95265 41.7944 6.97699 41.6367 6.97858 38.7413C6.98026 35.7135 6.9391 35.475 6.38229 35.2815C5.87891 35.1066 0.890767 35.1365 0.474248 35.3169ZM5.19922 38.5226C5.19922 39.3905 5.16321 40.1005 5.11918 40.1005C5.07515 40.1005 4.77468 39.9426 4.45136 39.7496C3.71508 39.3102 2.85978 38.4778 2.45326 37.8052C1.89061 36.8742 1.79623 36.9447 3.60566 36.9447H5.19922V38.5226ZM8.31569 43.1782C8.20686 43.2405 8.06054 43.3611 7.99049 43.4464C7.68033 43.8243 8.16036 45.4983 8.91692 46.6773C9.91479 48.2322 11.5894 49.4427 13.3838 49.9062C14.0647 50.0821 14.3797 50.018 14.6376 49.651C14.774 49.4568 14.796 49.0266 14.796 46.5462C14.796 44.9627 14.7683 43.5951 14.7345 43.5073C14.5788 43.1028 14.2422 43.059 11.3134 43.0621C9.39369 43.0641 8.45133 43.1006 8.31569 43.1782ZM13.1141 46.4097V47.9852L12.8567 47.8877C12.4193 47.7219 11.6028 47.1363 11.1166 46.6396C10.6933 46.2072 9.94813 45.1068 9.94813 44.914C9.94813 44.8702 10.6605 44.8343 11.5311 44.8343H13.1141V46.4097Z" fill="url(#paint0_linear_677_3125)"/>
<defs>
<linearGradient id="paint0_linear_677_3125" x1="0" y1="0" x2="50.9934" y2="51.8607" gradientUnits="userSpaceOnUse">
<stop stop-color="#0ABD92"/>
<stop offset="1" stop-color="#009DB8"/>
</linearGradient>
</defs>
</svg>
