<svg width="35" height="37" viewBox="0 0 35 37" fill="none" xmlns="http://www.w3.org/2000/svg">
<path opacity="0.6" fill-rule="evenodd" clip-rule="evenodd" d="M15.4779 0.396877C11.287 0.934653 7.33274 3.17429 4.58671 6.56572C1.1413 10.8207 -0.249558 16.6845 0.891113 22.1458C1.4691 24.9133 2.79556 27.7538 4.52363 29.9247C7.70712 33.9238 12.5233 36.2852 17.4967 36.2852C21.3346 36.2852 25.1566 34.8563 28.1729 32.2939C31.577 29.4019 33.8741 24.9779 34.3881 20.3238C35.0374 14.4457 32.8301 8.49544 28.5592 4.61012C26.5139 2.74951 23.8021 1.31762 21.1444 0.694964C19.4159 0.289976 17.2138 0.174148 15.4779 0.396877ZM19.4254 1.43151C20.379 1.55166 20.2464 1.4542 20.9454 2.54858C21.7526 3.81234 22.6151 5.85841 23.1874 7.86758C23.5786 9.2407 24.1626 12.1862 24.0862 12.4008C24.074 12.4352 23.6439 12.1509 23.1305 11.7688C21.9251 10.8718 20.7009 10.0998 19.2424 9.31695C15.3132 7.2078 11.4283 6.16074 6.89066 5.988L6.43411 5.97059L7.03114 5.4285C9.58199 3.11254 12.4422 1.81627 15.9865 1.36992C16.5473 1.29932 18.6786 1.33748 19.4254 1.43151ZM22.6689 2.21776C26.5996 3.64042 29.9199 6.69948 31.7784 10.6105C32.0239 11.1273 32.2983 11.7472 32.3884 11.9882L32.552 12.4264L32.3818 12.7686C32.1315 13.2719 30.9255 15.178 30.423 15.8647C29.5767 17.0211 28.595 18.1838 27.5298 19.2913C26.6144 20.243 25.2835 21.5123 25.2561 21.4598C25.2515 21.4511 25.2725 21.1093 25.3026 20.7001C25.3865 19.5584 25.3826 15.5356 25.2964 14.4512C24.9039 9.50947 23.757 5.28939 22.0158 2.37978C21.7886 2.00009 21.7511 1.91625 21.8085 1.91625C21.8236 1.91625 22.2107 2.05194 22.6689 2.21776ZM8.36918 7.12701C9.70891 7.23726 11.409 7.52761 12.7377 7.87323C14.0413 8.21231 16.2646 8.98047 16.1821 9.06342C16.1518 9.09385 15.6434 9.38993 15.0524 9.72134C9.31564 12.9381 4.96199 17.2873 2.56096 22.2002L2.11733 23.1078L2.04562 22.8153C2.00622 22.6544 1.939 22.3804 1.89615 22.2066C1.54524 20.7805 1.38545 18.2075 1.54588 16.5668C1.86089 13.3461 3.10959 10.1201 5.00596 7.62744C5.31662 7.2191 5.42247 7.12998 5.62637 7.10469C6.13785 7.04138 7.45931 7.0521 8.36918 7.12701ZM18.8398 10.2696C20.6178 11.2215 22.2043 12.2659 23.6425 13.4312L24.2747 13.9434L24.3272 14.5693C24.4215 15.6928 24.4137 19.4528 24.3139 20.9138L24.218 22.3178L23.6337 22.7753C22.3534 23.7781 19.4926 25.5046 18.0175 26.1646L17.6605 26.3244L16.8937 25.9777C15.1514 25.1899 13.4915 24.2386 11.8684 23.0979L10.911 22.425L10.7948 21.3394C10.5643 19.186 10.4595 15.6541 10.5877 14.3554L10.6323 13.903L11.5184 13.2367C13.0719 12.0685 14.5587 11.1267 16.3699 10.1634C16.9703 9.84401 17.4813 9.58186 17.5053 9.58067C17.5294 9.57955 18.1299 9.88954 18.8398 10.2696ZM33.0818 14.2868C33.4165 15.7503 33.5402 17.1386 33.4904 18.874C33.4172 21.4213 32.9414 23.4355 31.8639 25.7587C31.3148 26.9428 31.0161 27.4671 30.3275 28.4554L29.9 29.0692H29.5394C29.0118 29.0692 27.0876 28.8656 25.9995 28.6947C24.8692 28.5171 23.5964 28.249 22.4485 27.9467C21.4187 27.6754 19.0415 26.9063 19.043 26.8449C19.0435 26.8203 19.591 26.5058 20.2595 26.1459C24.2244 24.0112 27.971 20.7674 30.8027 17.0177C31.4968 16.0986 32.2849 14.9337 32.6733 14.2525C32.8057 14.0205 32.9334 13.8531 32.9571 13.8806C32.9809 13.908 33.0369 14.0909 33.0818 14.2868ZM9.73139 20.4769C10.1648 25.233 11.2276 29.7065 12.864 33.6629C13.0882 34.2049 13.246 34.6485 13.2146 34.6485C13.0064 34.6485 11.3269 33.9618 10.5079 33.5417C7.09183 31.7896 4.35653 28.8049 2.85083 25.1865L2.61266 24.6142L2.79197 24.145C3.89128 21.2685 6.2005 17.9918 8.9627 15.389L9.5246 14.8596L9.57033 17.036C9.59554 18.2329 9.66796 19.7814 9.73139 20.4769ZM11.5829 24.1474C12.6967 24.9428 14.7569 26.1179 16.2865 26.8302C19.7361 28.4366 24.1536 29.6292 27.937 29.9754C28.4917 30.0261 28.9455 30.0866 28.9455 30.1098C28.9455 30.1329 28.7321 30.3713 28.4714 30.6396C26.2677 32.9066 23.3497 34.4299 19.9901 35.0674C18.7402 35.3045 14.9696 35.2291 14.5684 34.959C14.5276 34.9315 14.3666 34.6395 14.2106 34.3101C13.5096 32.8294 12.6369 30.3647 12.0917 28.3253C11.6791 26.7819 11.0646 23.8618 11.1524 23.8618C11.1692 23.8618 11.363 23.9903 11.5829 24.1474Z" fill="#F8FCFC"/>
</svg>
